M48
;Layer_Color=9474304
;FILE_FORMAT=2:4
INCH,TZ
;TYPE=PLATED
T01F00S00C0.0120
T02F00S00C0.0354
%
T01
X843Y2079
X2016Y2051
X2363Y2023
X3161Y1781
X4500Y1345
X5950Y1770
X9543Y1621
Y1995
X10807Y1737
X11719Y1965
X12506Y2115
X12927
X13322Y2453
X13240Y1439
X15312Y1621
Y1995
X16576Y1737
X17488Y1965
X18275Y2115
X18696
X19091Y2453
X19009Y1439
X21083Y1641
Y2015
X22347Y1757
X23259Y1985
X24046Y2135
X24467
X24862Y2473
X24780Y1459
X26835Y1620
Y1994
X28099Y1736
X29011Y1964
X29799Y2113
X30220
X30614Y2452
X30532Y1437
X30725Y3708
X30725Y4158
X30725Y4608
X30752Y5078
X30735Y5508
X29504Y5078
X28972Y5549
X28153Y5553
X28125Y4767
Y4248
X28942Y4509
X28968Y4000
X28099Y2696
X27557Y2943
X26968Y2957
X27032Y3435
X26686Y3435
X26399Y4128
Y4514
X26403Y4918
X26429Y5318
X26434Y5708
X26429Y6908
X27649Y6888
X28331Y6523
X28066Y7676
X28063Y8668
X28608Y8296
X29033Y8298
X29799Y8560
X30725Y8084
X30444Y7136
X29444Y6888
X28608Y9259
X26801Y8458
Y8084
X24972Y8105
X24862Y8853
X24982Y9280
X24046Y8581
X23280Y8319
X22856Y8317
X22310Y8689
X22314Y7697
X21897Y6909
X22578Y6545
X22401Y5574
X22373Y4789
Y4269
X22710Y3920
X23215Y4021
X23190Y4530
X23219Y5570
X23752Y5099
X25000Y5099
X24982Y5498
X24972Y4629
X24972Y4179
X24972Y3729
X22347Y2717
X21804Y2956
X21215Y2943
X21280Y3456
X20934Y3456
X20647Y4149
Y4535
X20651Y4939
X20677Y5339
X20682Y5729
X20677Y6929
X21049Y8105
Y8479
X20934Y9390
X19995Y9280
X19471Y9209
X19201Y8085
X19211Y5509
X19229Y5079
X19201Y4609
X19201Y4159
X19201Y3709
X23692Y6909
X24692Y7157
X22856Y9280
X18980Y9390
X17085Y9260
X17089Y10195
X16050Y10190
X16539Y8669
X17085Y8297
X17509Y8299
X18280Y8029
X17921Y6889
X18921Y7137
X16808Y6525
X16126Y6889
X16543Y7677
X15278Y8085
Y8459
Y8825
X14906Y6909
X14911Y5709
X14906Y5319
X14880Y4919
X14876Y4515
Y4129
X15163Y3436
X15509Y3436
X16576Y2697
X16951Y3886
X17444Y4001
X17419Y4510
X17449Y5550
X16630Y5554
X16602Y4769
Y4249
X17981Y5079
X13460Y5079
X13442Y5509
X13432Y4609
X13432Y4159
X13432Y3709
X11675Y4001
X11650Y4510
X11679Y5550
X10861Y5554
X10833Y4769
Y4249
X11182Y3830
X10807Y2697
X9740Y3436
X9394Y3436
X9107Y4129
Y4515
X9111Y4919
X9137Y5319
X9142Y5709
X8044Y5657
X7982Y5157
Y6473
X7228Y5966
X6066Y4966
X5950Y6941
X5210Y6461
X3818Y6470
X4014Y6966
X4140Y9034
X6160Y9032
X9509Y8459
Y8085
X9137Y6909
X10357Y6889
X11038Y6525
X10774Y7677
X10770Y8669
X11316Y8297
X11740Y8299
X12506Y8561
X13107Y9063
X13432Y8085
X13152Y7137
X12152Y6889
X12212Y5079
X11316Y9260
X7228Y2884
X2371Y2792
X2017
X3131Y5204
X3136Y5657
Y6107
X2636Y6357
X2888Y6962
Y7829
X3426Y7518
Y8996
X2888Y8942
X647Y9051
Y7392
X843Y6962
T02
X500Y800
X1500
X2500
X3500
X4500
X5500
X6500
X7500
X8500
X9500
X10500
X11500
X12500
X13500
X14500
X15500
X16500
X17500
X18500
X19500
X20500
X21500
X22500
X23500
X24500
X25500
X26500
X27500
X28500
X29500
X30500
X31510
Y9800
X30500
X29500
X28500
X27500
X26500
X25500
X24500
X23500
X22500
X21500
X20500
X19500
X18500
X17500
X16500
X15500
X14500
X13500
X12500
X11500
X10500
X9500
X8500
X7500
X6500
X5500
X4500
X3500
X2500
X1500
X500
M30
