G04*
G04 #@! TF.GenerationSoftware,Altium Limited,Altium Designer,24.2.2 (26)*
G04*
G04 Layer_Color=32896*
%FSLAX23Y23*%
%MOIN*%
G70*
G04*
G04 #@! TF.SameCoordinates,485C1437-8325-44BD-8A32-A566A60D5BA3*
G04*
G04*
G04 #@! TF.FilePolarity,Positive*
G04*
G01*
G75*
%ADD12C,0.010*%
D12*
X592Y211D02*
X628D01*
X592Y149D02*
X628D01*
X789Y242D02*
Y278D01*
X728Y242D02*
Y278D01*
X892Y242D02*
Y278D01*
X831Y242D02*
Y278D01*
X172Y921D02*
X208D01*
X172Y859D02*
X208D01*
X659Y255D02*
X664Y260D01*
X674D01*
X679Y255D01*
Y250D01*
X674Y245D01*
X664D01*
X659Y240D01*
Y235D01*
X664Y230D01*
X674D01*
X679Y235D01*
X649Y260D02*
X639D01*
X644D01*
Y230D01*
X649D01*
X639D01*
X604Y255D02*
X609Y260D01*
X619D01*
X624Y255D01*
Y235D01*
X619Y230D01*
X609D01*
X604Y235D01*
Y245D01*
X614D01*
X594Y260D02*
X584D01*
X589D01*
Y230D01*
X594D01*
X584D01*
X569D02*
Y260D01*
X549Y230D01*
Y260D01*
X705Y329D02*
Y299D01*
X690D01*
X685Y304D01*
Y309D01*
X690Y314D01*
X705D01*
X690D01*
X685Y319D01*
Y324D01*
X690Y329D01*
X705D01*
X675D02*
Y304D01*
X670Y299D01*
X660D01*
X655Y304D01*
Y329D01*
X625D02*
X645D01*
Y314D01*
X635D01*
X645D01*
Y299D01*
X595Y329D02*
X615D01*
Y314D01*
X605D01*
X615D01*
Y299D01*
X967Y241D02*
Y211D01*
X947D01*
X937D02*
Y241D01*
X922D01*
X917Y236D01*
Y226D01*
X922Y221D01*
X937D01*
X450Y157D02*
X430D01*
X440D01*
Y128D01*
X420D02*
Y157D01*
X405D01*
X400Y152D01*
Y142D01*
X405Y138D01*
X420D01*
X390Y123D02*
X370D01*
X340Y152D02*
X345Y157D01*
X355D01*
X360Y152D01*
Y147D01*
X355Y142D01*
X345D01*
X340Y138D01*
Y133D01*
X345Y128D01*
X355D01*
X360Y133D01*
X330Y157D02*
X320D01*
X325D01*
Y128D01*
X330D01*
X320D01*
X285Y152D02*
X290Y157D01*
X300D01*
X305Y152D01*
Y133D01*
X300Y128D01*
X290D01*
X285Y133D01*
Y142D01*
X295D01*
X275Y157D02*
X265D01*
X270D01*
Y128D01*
X275D01*
X265D01*
X250D02*
Y157D01*
X230Y128D01*
Y157D01*
X220Y128D02*
X210D01*
X215D01*
Y157D01*
X220Y152D01*
X1112Y397D02*
X1092D01*
X1102D01*
Y368D01*
X1082D02*
Y397D01*
X1067D01*
X1062Y392D01*
Y382D01*
X1067Y378D01*
X1082D01*
X1052Y363D02*
X1032D01*
X1002Y392D02*
X1007Y397D01*
X1017D01*
X1022Y392D01*
Y387D01*
X1017Y382D01*
X1007D01*
X1002Y378D01*
Y373D01*
X1007Y368D01*
X1017D01*
X1022Y373D01*
X992Y397D02*
X982D01*
X987D01*
Y368D01*
X992D01*
X982D01*
X948Y392D02*
X953Y397D01*
X962D01*
X967Y392D01*
Y373D01*
X962Y368D01*
X953D01*
X948Y373D01*
Y382D01*
X958D01*
X938Y397D02*
Y368D01*
X923D01*
X918Y373D01*
Y378D01*
X923Y382D01*
X938D01*
X923D01*
X918Y387D01*
Y392D01*
X923Y397D01*
X938D01*
X908D02*
Y373D01*
X903Y368D01*
X893D01*
X888Y373D01*
Y397D01*
X858D02*
X878D01*
Y382D01*
X868D01*
X878D01*
Y368D01*
X828Y397D02*
X848D01*
Y382D01*
X838D01*
X848D01*
Y368D01*
X818D02*
X808D01*
X813D01*
Y397D01*
X818Y392D01*
X3102Y302D02*
X3082D01*
X3092D01*
Y273D01*
X3072D02*
Y302D01*
X3057D01*
X3052Y297D01*
Y287D01*
X3057Y283D01*
X3072D01*
X3042Y268D02*
X3022D01*
X2993Y297D02*
X2998Y302D01*
X3007D01*
X3012Y297D01*
Y292D01*
X3007Y287D01*
X2998D01*
X2993Y283D01*
Y278D01*
X2998Y273D01*
X3007D01*
X3012Y278D01*
X2983Y302D02*
X2973D01*
X2978D01*
Y273D01*
X2983D01*
X2973D01*
X2938Y297D02*
X2943Y302D01*
X2953D01*
X2958Y297D01*
Y278D01*
X2953Y273D01*
X2943D01*
X2938Y278D01*
Y287D01*
X2948D01*
X2913Y273D02*
Y302D01*
X2928Y287D01*
X2908D01*
X3162Y717D02*
X3142D01*
X3152D01*
Y688D01*
X3132D02*
Y717D01*
X3117D01*
X3112Y712D01*
Y702D01*
X3117Y698D01*
X3132D01*
X3102Y683D02*
X3082D01*
X3053Y712D02*
X3058Y717D01*
X3067D01*
X3072Y712D01*
Y707D01*
X3067Y702D01*
X3058D01*
X3053Y698D01*
Y693D01*
X3058Y688D01*
X3067D01*
X3072Y693D01*
X3043Y717D02*
X3033D01*
X3038D01*
Y688D01*
X3043D01*
X3033D01*
X2998Y712D02*
X3003Y717D01*
X3013D01*
X3018Y712D01*
Y693D01*
X3013Y688D01*
X3003D01*
X2998Y693D01*
Y702D01*
X3008D01*
X2988Y712D02*
X2983Y717D01*
X2973D01*
X2968Y712D01*
Y707D01*
X2973Y702D01*
X2978D01*
X2973D01*
X2968Y698D01*
Y693D01*
X2973Y688D01*
X2983D01*
X2988Y693D01*
X3037Y777D02*
X3017D01*
X3027D01*
Y748D01*
X3007D02*
Y777D01*
X2992D01*
X2987Y772D01*
Y762D01*
X2992Y758D01*
X3007D01*
X2977Y743D02*
X2957D01*
X2928Y772D02*
X2933Y777D01*
X2942D01*
X2947Y772D01*
Y767D01*
X2942Y762D01*
X2933D01*
X2928Y758D01*
Y753D01*
X2933Y748D01*
X2942D01*
X2947Y753D01*
X2918Y777D02*
X2908D01*
X2913D01*
Y748D01*
X2918D01*
X2908D01*
X2873Y772D02*
X2878Y777D01*
X2888D01*
X2893Y772D01*
Y753D01*
X2888Y748D01*
X2878D01*
X2873Y753D01*
Y762D01*
X2883D01*
X2843Y748D02*
X2863D01*
X2843Y767D01*
Y772D01*
X2848Y777D01*
X2858D01*
X2863Y772D01*
X1577Y217D02*
X1557D01*
X1567D01*
Y188D01*
X1547D02*
Y217D01*
X1532D01*
X1527Y212D01*
Y202D01*
X1532Y198D01*
X1547D01*
X1517Y183D02*
X1497D01*
X1468Y212D02*
X1473Y217D01*
X1483D01*
X1487Y212D01*
Y207D01*
X1483Y202D01*
X1473D01*
X1468Y198D01*
Y193D01*
X1473Y188D01*
X1483D01*
X1487Y193D01*
X1458Y217D02*
X1448D01*
X1453D01*
Y188D01*
X1458D01*
X1448D01*
X1413Y212D02*
X1418Y217D01*
X1428D01*
X1433Y212D01*
Y193D01*
X1428Y188D01*
X1418D01*
X1413Y193D01*
Y202D01*
X1423D01*
X1403Y188D02*
X1393D01*
X1398D01*
Y217D01*
X1403Y212D01*
X2377Y552D02*
X2357D01*
X2367D01*
Y523D01*
X2347D02*
Y552D01*
X2332D01*
X2327Y547D01*
Y537D01*
X2332Y533D01*
X2347D01*
X2317Y518D02*
X2297D01*
X2267Y547D02*
X2272Y552D01*
X2282D01*
X2287Y547D01*
Y542D01*
X2282Y537D01*
X2272D01*
X2267Y533D01*
Y528D01*
X2272Y523D01*
X2282D01*
X2287Y528D01*
X2257Y552D02*
Y523D01*
Y537D01*
X2238D01*
Y552D01*
Y523D01*
X2228Y552D02*
X2218D01*
X2223D01*
Y523D01*
X2228D01*
X2218D01*
X2183Y552D02*
X2203D01*
Y537D01*
X2193D01*
X2203D01*
Y523D01*
X2173Y552D02*
X2153D01*
X2163D01*
Y523D01*
X2128D02*
Y552D01*
X2143Y537D01*
X2123D01*
X1857Y602D02*
X1837D01*
X1847D01*
Y573D01*
X1827D02*
Y602D01*
X1812D01*
X1807Y597D01*
Y587D01*
X1812Y583D01*
X1827D01*
X1797Y568D02*
X1777D01*
X1747Y597D02*
X1752Y602D01*
X1762D01*
X1767Y597D01*
Y592D01*
X1762Y587D01*
X1752D01*
X1747Y583D01*
Y578D01*
X1752Y573D01*
X1762D01*
X1767Y578D01*
X1737Y602D02*
Y573D01*
Y587D01*
X1718D01*
Y602D01*
Y573D01*
X1708Y602D02*
X1698D01*
X1703D01*
Y573D01*
X1708D01*
X1698D01*
X1663Y602D02*
X1683D01*
Y587D01*
X1673D01*
X1683D01*
Y573D01*
X1653Y602D02*
X1633D01*
X1643D01*
Y573D01*
X1623Y597D02*
X1618Y602D01*
X1608D01*
X1603Y597D01*
Y592D01*
X1608Y587D01*
X1613D01*
X1608D01*
X1603Y583D01*
Y578D01*
X1608Y573D01*
X1618D01*
X1623Y578D01*
X2842Y832D02*
X2822D01*
X2832D01*
Y803D01*
X2812D02*
Y832D01*
X2797D01*
X2792Y827D01*
Y817D01*
X2797Y813D01*
X2812D01*
X2782Y798D02*
X2762D01*
X2732Y827D02*
X2737Y832D01*
X2747D01*
X2752Y827D01*
Y822D01*
X2747Y817D01*
X2737D01*
X2732Y813D01*
Y808D01*
X2737Y803D01*
X2747D01*
X2752Y808D01*
X2722Y832D02*
Y803D01*
Y817D01*
X2703D01*
Y832D01*
Y803D01*
X2693Y832D02*
X2683D01*
X2688D01*
Y803D01*
X2693D01*
X2683D01*
X2648Y832D02*
X2668D01*
Y817D01*
X2658D01*
X2668D01*
Y803D01*
X2638Y832D02*
X2618D01*
X2628D01*
Y803D01*
X2588D02*
X2608D01*
X2588Y822D01*
Y827D01*
X2593Y832D01*
X2603D01*
X2608Y827D01*
X712Y602D02*
X692D01*
X702D01*
Y573D01*
X682D02*
Y602D01*
X667D01*
X662Y597D01*
Y587D01*
X667Y583D01*
X682D01*
X652Y568D02*
X632D01*
X602Y597D02*
X607Y602D01*
X617D01*
X622Y597D01*
Y592D01*
X617Y587D01*
X607D01*
X602Y583D01*
Y578D01*
X607Y573D01*
X617D01*
X622Y578D01*
X592Y602D02*
Y573D01*
Y587D01*
X573D01*
Y602D01*
Y573D01*
X563Y602D02*
X553D01*
X558D01*
Y573D01*
X563D01*
X553D01*
X518Y602D02*
X538D01*
Y587D01*
X528D01*
X538D01*
Y573D01*
X508Y602D02*
X488D01*
X498D01*
Y573D01*
X478D02*
X468D01*
X473D01*
Y602D01*
X478Y597D01*
X1142Y572D02*
X1122D01*
X1132D01*
Y543D01*
X1112D02*
Y572D01*
X1097D01*
X1092Y567D01*
Y557D01*
X1097Y553D01*
X1112D01*
X1082Y538D02*
X1062D01*
X1052Y572D02*
Y543D01*
X1032D01*
X1022D02*
Y572D01*
X1008D01*
X1003Y567D01*
Y557D01*
X1008Y553D01*
X1022D01*
X973Y567D02*
X978Y572D01*
X988D01*
X993Y567D01*
Y562D01*
X988Y557D01*
X978D01*
X973Y553D01*
Y548D01*
X978Y543D01*
X988D01*
X993Y548D01*
X963Y572D02*
X953D01*
X958D01*
Y543D01*
X963D01*
X953D01*
X918Y567D02*
X923Y572D01*
X933D01*
X938Y567D01*
Y548D01*
X933Y543D01*
X923D01*
X918Y548D01*
Y557D01*
X928D01*
X908Y543D02*
X898D01*
X903D01*
Y572D01*
X908Y567D01*
M02*
