M48
;Layer_Color=9474304
;FILE_FORMAT=2:4
INCH,TZ
;TYPE=PLATED
T01F00S00C0.0120
T02F00S00C0.0354
%
T01
X1304Y2870
X1332Y4123
X945Y3988
X445Y4536
X1325Y4719
X850Y5400
X1000Y6000
X1100Y6600
X450Y6750
X491Y7695
X2200Y7950
X3000Y8350
X2950Y8900
X3618Y7873
X3553Y6727
X3030Y6722
X2635Y6609
X2401Y6106
X2020Y5987
X2420Y4134
X2984Y4132
X4091Y4131
X5285Y4405
X5801Y4399
X7252Y4185
X7251Y3699
X7241Y4691
X7950Y4700
X8050Y6070
X8856Y6575
X8657Y6836
X8914Y7098
X8650Y7358
X8850Y7600
X8635Y7860
X9835Y7956
Y7606
X10907Y8108
X11400Y8120
X11750Y8790
X12100
X12490Y9000
X13875Y7849
Y7355
X14134Y7598
Y7090
X13871Y6835
X14119Y6575
X14379Y6328
X14571Y5282
X15068Y5272
X15565Y5263
X15566Y3242
X14562Y3233
X14062Y3940
X13420Y5350
Y5800
X12474Y5606
X12558Y5240
X12096Y6262
X11057Y6871
X10415Y5839
Y5376
X10200Y4700
X10080Y4181
X9700Y3500
X9257Y3684
X9219Y2688
X9400Y1400
X11565Y3284
X12559
X13100Y1750
X11050Y3950
X9050Y5550
X6987Y6953
X7000Y7450
X7249Y7838
X5650Y7950
Y8950
X4950
X5000Y7450
Y6950
Y5950
X3634Y5177
X2587Y2871
X4800Y2100
X5805Y2438
X15050Y7600
Y7950
X14950Y9250
X16157Y8193
X16650Y8200
X16989Y8822
X17342Y8814
X17800Y9080
X18800Y9050
X19600Y8900
X20250Y8600
X20298Y7947
X20300Y7600
X19400
X19400Y7091
X19397Y6581
X19110Y6832
X19107Y7352
X19100Y7850
X19112Y6308
X19420Y5800
Y5350
X18570Y5220
X18550Y3242
X17558
X17070Y3940
X16325Y4843
X16390Y5350
X16400Y5780
X16310Y6890
X17343Y6425
X21474Y6828
X21650Y8000
X21350Y8600
X21280Y8900
X22237Y8837
X22602Y8834
X22965Y8304
X23850Y8394
X24350Y7863
X24346Y7361
X24349Y6840
X24658Y7088
Y6578
X24650Y7600
X25250Y7850
X25552Y7598
X26950Y7950
X26803Y6884
X27850Y6350
X27724Y5819
X27736Y5400
X27581Y3849
X27597Y3239
X28346Y3396
X28250Y2550
X28650Y2500
X29323Y3343
X29819Y3601
Y4304
X30573
X30574Y3605
X31066Y3349
X30195Y2072
X29815Y1683
X29850Y5300
X30550Y5300
X30573Y6300
X30573Y6789
X30575Y7136
X31067Y7149
X29825Y7158
X29833Y6798
X29623Y6303
X29334Y7154
X29300Y9200
X29840Y8940
X30570Y8950
X28687Y8604
X28200Y8394
X27826Y8814
X27465
X24370Y8930
X23800Y5900
X23570Y5162
X22416Y5294
X22300Y4900
X22420Y5800
X22572Y6236
X22951Y6246
X23100Y3850
X23572Y3242
X24550Y3250
Y3850
X26099Y3818
X26580Y3242
X25200Y1690
X22200Y1600
X21559Y3233
X21569Y3940
X20070
X20570Y3242
X16103Y1574
X25300Y5000
X25432Y5351
X25420Y5770
X31411Y7142
X31415Y3368
X31413Y1658
T02
X500Y800
X1450
X2450
X3450
X4450
X5450
X6450
X7450
X8450
X9450
X10450
X11450
X12450
X13450
X14450
X15450
X15500Y9800
X14500
X13500
X12500
X11500
X10500
X9500
X8500
X7500
X6500
X5500
X4500
X3500
X2500
X1500
X500
X16500
X17500
X18500
X19500
X20500
X21500
X22500
X23500
X24500
X25500
X26500
X27500
X28500
X29500
X30500
X30450Y800
X29450
X28450
X27450
X26450
X25450
X24450
X23450
X22450
X21450
X20450
X19450
X18450
X17450
X16450
X31450
X31500Y9800
M30
