G04*
G04 #@! TF.GenerationSoftware,Altium Limited,Altium Designer,24.2.2 (26)*
G04*
G04 Layer_Color=255*
%FSLAX23Y23*%
%MOIN*%
G70*
G04*
G04 #@! TF.SameCoordinates,485C1437-8325-44BD-8A32-A566A60D5BA3*
G04*
G04*
G04 #@! TF.FilePolarity,Positive*
G04*
G01*
G75*
%ADD13R,0.058X0.014*%
%ADD14R,0.022X0.058*%
%ADD15R,0.022X0.078*%
%ADD16R,0.026X0.022*%
%ADD17R,0.022X0.026*%
%ADD18R,0.026X0.024*%
%ADD19R,0.080X0.023*%
%ADD20R,0.024X0.026*%
%ADD21R,0.037X0.039*%
%ADD22R,0.037X0.035*%
%ADD23R,0.035X0.037*%
%ADD24R,0.069X0.045*%
%ADD25R,0.045X0.069*%
%ADD26R,0.051X0.042*%
%ADD27R,0.031X0.031*%
%ADD28R,0.039X0.037*%
%ADD29R,0.057X0.049*%
%ADD47C,0.059*%
%ADD48R,0.059X0.059*%
D13*
X811Y632D02*
D03*
Y683D02*
D03*
Y658D02*
D03*
Y709D02*
D03*
Y734D02*
D03*
Y760D02*
D03*
Y811D02*
D03*
Y786D02*
D03*
X1033Y632D02*
D03*
Y683D02*
D03*
Y658D02*
D03*
Y709D02*
D03*
Y734D02*
D03*
Y760D02*
D03*
Y811D02*
D03*
Y786D02*
D03*
X1335Y811D02*
D03*
Y786D02*
D03*
Y760D02*
D03*
Y734D02*
D03*
Y709D02*
D03*
Y683D02*
D03*
Y658D02*
D03*
Y632D02*
D03*
X1557D02*
D03*
Y658D02*
D03*
Y683D02*
D03*
Y709D02*
D03*
Y734D02*
D03*
Y760D02*
D03*
Y786D02*
D03*
Y811D02*
D03*
X2606Y812D02*
D03*
Y786D02*
D03*
Y760D02*
D03*
Y735D02*
D03*
Y709D02*
D03*
Y684D02*
D03*
Y658D02*
D03*
Y632D02*
D03*
X2384D02*
D03*
Y658D02*
D03*
Y684D02*
D03*
Y709D02*
D03*
Y735D02*
D03*
Y760D02*
D03*
Y786D02*
D03*
Y812D02*
D03*
X2082D02*
D03*
Y786D02*
D03*
Y760D02*
D03*
Y735D02*
D03*
Y709D02*
D03*
Y684D02*
D03*
Y658D02*
D03*
Y632D02*
D03*
X1860D02*
D03*
Y658D02*
D03*
Y684D02*
D03*
Y709D02*
D03*
Y735D02*
D03*
Y760D02*
D03*
Y786D02*
D03*
Y812D02*
D03*
D14*
X2746Y685D02*
D03*
X2784D02*
D03*
X2821D02*
D03*
Y773D02*
D03*
X2784D02*
D03*
X2746D02*
D03*
X1698Y685D02*
D03*
X1735D02*
D03*
X1772D02*
D03*
Y773D02*
D03*
X1735D02*
D03*
X1698D02*
D03*
X2222Y685D02*
D03*
X2259D02*
D03*
X2297D02*
D03*
Y773D02*
D03*
X2259D02*
D03*
X2222D02*
D03*
X1173Y685D02*
D03*
X1210D02*
D03*
X1247D02*
D03*
Y773D02*
D03*
X1210D02*
D03*
X1173D02*
D03*
D15*
X2609Y458D02*
D03*
X2659D02*
D03*
X2709D02*
D03*
X2759D02*
D03*
Y264D02*
D03*
X2709D02*
D03*
X2659D02*
D03*
X2609D02*
D03*
X1106D02*
D03*
X1156D02*
D03*
X1206D02*
D03*
X1256D02*
D03*
Y458D02*
D03*
X1206D02*
D03*
X1156D02*
D03*
X1106D02*
D03*
X1707D02*
D03*
X1757D02*
D03*
X1807D02*
D03*
X1857D02*
D03*
Y264D02*
D03*
X1807D02*
D03*
X1757D02*
D03*
X1707D02*
D03*
X1406Y458D02*
D03*
X1456D02*
D03*
X1506D02*
D03*
X1556D02*
D03*
Y264D02*
D03*
X1506D02*
D03*
X1456D02*
D03*
X1406D02*
D03*
X2307D02*
D03*
X2357D02*
D03*
X2407D02*
D03*
X2457D02*
D03*
Y458D02*
D03*
X2407D02*
D03*
X2357D02*
D03*
X2307D02*
D03*
X2007Y264D02*
D03*
X2057D02*
D03*
X2107D02*
D03*
X2157D02*
D03*
Y458D02*
D03*
X2107D02*
D03*
X2057D02*
D03*
X2007D02*
D03*
D16*
X3108Y201D02*
D03*
X3141D02*
D03*
X3141Y300D02*
D03*
X3107D02*
D03*
X2898D02*
D03*
X2932D02*
D03*
Y201D02*
D03*
X2898D02*
D03*
X3107Y848D02*
D03*
X3141D02*
D03*
X3141Y750D02*
D03*
X3108D02*
D03*
X2900Y848D02*
D03*
X2934D02*
D03*
X2933Y750D02*
D03*
X2900D02*
D03*
D17*
X3057Y241D02*
D03*
Y208D02*
D03*
X3057Y290D02*
D03*
Y324D02*
D03*
X2982Y241D02*
D03*
Y208D02*
D03*
Y324D02*
D03*
Y290D02*
D03*
X3057Y751D02*
D03*
Y784D02*
D03*
X3057Y833D02*
D03*
Y867D02*
D03*
X2984Y867D02*
D03*
Y833D02*
D03*
X2984Y751D02*
D03*
Y784D02*
D03*
X45Y492D02*
D03*
Y525D02*
D03*
X982Y469D02*
D03*
Y502D02*
D03*
X934Y502D02*
D03*
Y469D02*
D03*
D18*
X3142Y250D02*
D03*
X3107D02*
D03*
X2897D02*
D03*
X2932D02*
D03*
X3142Y799D02*
D03*
X3107D02*
D03*
X2934D02*
D03*
X2899D02*
D03*
X2813Y582D02*
D03*
X2847D02*
D03*
Y540D02*
D03*
X2813D02*
D03*
X1073Y585D02*
D03*
X1107D02*
D03*
X1107Y540D02*
D03*
X1073D02*
D03*
X130Y599D02*
D03*
X165D02*
D03*
X337Y413D02*
D03*
X372D02*
D03*
X205D02*
D03*
X170D02*
D03*
X937Y319D02*
D03*
X971D02*
D03*
X877Y161D02*
D03*
X843D02*
D03*
X618D02*
D03*
X652D02*
D03*
X945Y553D02*
D03*
X980D02*
D03*
X971Y418D02*
D03*
X937D02*
D03*
X329Y287D02*
D03*
X294D02*
D03*
X200D02*
D03*
X165D02*
D03*
X2273Y535D02*
D03*
X2307D02*
D03*
X2574D02*
D03*
X2609D02*
D03*
X2307Y580D02*
D03*
X2273D02*
D03*
X2609D02*
D03*
X2574D02*
D03*
X1971Y535D02*
D03*
X2006D02*
D03*
Y580D02*
D03*
X1971D02*
D03*
X1407D02*
D03*
X1373D02*
D03*
X1373Y535D02*
D03*
X1407D02*
D03*
X1706Y580D02*
D03*
X1671D02*
D03*
X1671Y535D02*
D03*
X1706D02*
D03*
X2748Y846D02*
D03*
X2782D02*
D03*
X1699D02*
D03*
X1734D02*
D03*
X2224D02*
D03*
X2259D02*
D03*
X1175D02*
D03*
X1209D02*
D03*
D19*
X3123Y380D02*
D03*
Y430D02*
D03*
Y480D02*
D03*
Y530D02*
D03*
Y580D02*
D03*
Y630D02*
D03*
Y680D02*
D03*
X2917Y380D02*
D03*
Y430D02*
D03*
Y480D02*
D03*
Y530D02*
D03*
Y580D02*
D03*
Y630D02*
D03*
Y680D02*
D03*
X430Y896D02*
D03*
Y846D02*
D03*
Y796D02*
D03*
Y746D02*
D03*
Y696D02*
D03*
Y646D02*
D03*
Y596D02*
D03*
X636Y896D02*
D03*
Y846D02*
D03*
Y796D02*
D03*
Y746D02*
D03*
Y696D02*
D03*
Y646D02*
D03*
Y596D02*
D03*
X655Y518D02*
D03*
Y468D02*
D03*
Y418D02*
D03*
Y368D02*
D03*
Y318D02*
D03*
Y268D02*
D03*
Y218D02*
D03*
X861Y518D02*
D03*
Y468D02*
D03*
Y418D02*
D03*
Y368D02*
D03*
Y318D02*
D03*
Y268D02*
D03*
Y218D02*
D03*
D20*
X1106Y761D02*
D03*
Y726D02*
D03*
X304Y745D02*
D03*
Y710D02*
D03*
X355Y710D02*
D03*
Y745D02*
D03*
X94Y472D02*
D03*
Y438D02*
D03*
X580Y316D02*
D03*
Y282D02*
D03*
X528Y369D02*
D03*
Y403D02*
D03*
X580Y403D02*
D03*
Y369D02*
D03*
X2680Y723D02*
D03*
Y757D02*
D03*
X2148Y719D02*
D03*
Y753D02*
D03*
X1631Y726D02*
D03*
Y761D02*
D03*
D21*
X725Y830D02*
D03*
Y890D02*
D03*
X345Y895D02*
D03*
Y836D02*
D03*
D22*
X1080Y177D02*
D03*
X1137D02*
D03*
X1206D02*
D03*
X1263D02*
D03*
X121Y540D02*
D03*
X179D02*
D03*
X306Y472D02*
D03*
X364D02*
D03*
X248Y540D02*
D03*
X305D02*
D03*
X180Y472D02*
D03*
X237D02*
D03*
X773Y160D02*
D03*
X715D02*
D03*
X571Y518D02*
D03*
X514D02*
D03*
X272Y346D02*
D03*
X329D02*
D03*
X146D02*
D03*
X203D02*
D03*
X1506Y177D02*
D03*
X1563D02*
D03*
X1380D02*
D03*
X1437D02*
D03*
X2464D02*
D03*
X2407D02*
D03*
X2338D02*
D03*
X2281D02*
D03*
X2037D02*
D03*
X1980D02*
D03*
X1860D02*
D03*
X1803D02*
D03*
X1734D02*
D03*
X1677D02*
D03*
X2164D02*
D03*
X2106D02*
D03*
X2766D02*
D03*
X2709D02*
D03*
X2640D02*
D03*
X2583D02*
D03*
D23*
X1331Y325D02*
D03*
Y268D02*
D03*
X1031Y331D02*
D03*
Y274D02*
D03*
X521Y251D02*
D03*
Y308D02*
D03*
X964Y259D02*
D03*
Y201D02*
D03*
X2834Y385D02*
D03*
Y443D02*
D03*
X1932Y394D02*
D03*
Y451D02*
D03*
X2532Y268D02*
D03*
Y325D02*
D03*
X1631Y268D02*
D03*
Y325D02*
D03*
X2532Y394D02*
D03*
Y451D02*
D03*
X1632Y394D02*
D03*
Y451D02*
D03*
X2232Y268D02*
D03*
Y325D02*
D03*
Y394D02*
D03*
Y451D02*
D03*
X1331Y394D02*
D03*
Y451D02*
D03*
X1932Y268D02*
D03*
Y325D02*
D03*
D24*
X415Y320D02*
D03*
Y210D02*
D03*
X60Y210D02*
D03*
Y320D02*
D03*
D25*
X151Y210D02*
D03*
X261D02*
D03*
X245Y890D02*
D03*
X135D02*
D03*
D26*
X155Y745D02*
D03*
X216D02*
D03*
D27*
X45Y576D02*
D03*
X45Y635D02*
D03*
D28*
X286Y610D02*
D03*
X345D02*
D03*
X156Y660D02*
D03*
X215D02*
D03*
D29*
X50Y890D02*
D03*
Y825D02*
D03*
D47*
X3145Y80D02*
D03*
X3045D02*
D03*
X2945D02*
D03*
X2845D02*
D03*
X2745D02*
D03*
X2645D02*
D03*
X2545D02*
D03*
X2445D02*
D03*
X2345D02*
D03*
X2245D02*
D03*
X2145D02*
D03*
X2045D02*
D03*
X1945D02*
D03*
X1845D02*
D03*
X1745D02*
D03*
X1645D02*
D03*
X1545D02*
D03*
X1445D02*
D03*
X1345D02*
D03*
X1245D02*
D03*
X1145D02*
D03*
X1045D02*
D03*
X945D02*
D03*
X845D02*
D03*
X745D02*
D03*
X645D02*
D03*
X545D02*
D03*
X445D02*
D03*
X345D02*
D03*
X245D02*
D03*
X145D02*
D03*
X150Y980D02*
D03*
X250D02*
D03*
X350D02*
D03*
X450D02*
D03*
X550D02*
D03*
X650D02*
D03*
X750D02*
D03*
X850D02*
D03*
X950D02*
D03*
X1050D02*
D03*
X1150D02*
D03*
X1250D02*
D03*
X1350D02*
D03*
X1450D02*
D03*
X1550D02*
D03*
X1650D02*
D03*
X1750D02*
D03*
X1850D02*
D03*
X1950D02*
D03*
X2050D02*
D03*
X2150D02*
D03*
X2250D02*
D03*
X2350D02*
D03*
X2450D02*
D03*
X2550D02*
D03*
X2650D02*
D03*
X2750D02*
D03*
X2850D02*
D03*
X2950D02*
D03*
X3050D02*
D03*
X3150D02*
D03*
D48*
X50Y80D02*
D03*
Y980D02*
D03*
M02*
