G04*
G04 #@! TF.GenerationSoftware,Altium Limited,Altium Designer,24.2.2 (26)*
G04*
G04 Layer_Physical_Order=3*
G04 Layer_Color=16440176*
%FSLAX23Y23*%
%MOIN*%
G70*
G04*
G04 #@! TF.SameCoordinates,485C1437-8325-44BD-8A32-A566A60D5BA3*
G04*
G04*
G04 #@! TF.FilePolarity,Positive*
G04*
G01*
G75*
%ADD12C,0.010*%
%ADD47C,0.059*%
%ADD48R,0.059X0.059*%
%ADD49C,0.022*%
G36*
X3195Y1001D02*
X3190Y1000D01*
X3186Y1007D01*
X3177Y1016D01*
X3167Y1021D01*
X3156Y1025D01*
X3144D01*
X3133Y1021D01*
X3123Y1016D01*
X3114Y1007D01*
X3109Y997D01*
X3105Y986D01*
Y974D01*
X3109Y963D01*
X3114Y953D01*
X3123Y944D01*
X3133Y939D01*
X3144Y935D01*
X3156D01*
X3167Y939D01*
X3177Y944D01*
X3186Y953D01*
X3190Y960D01*
X3195Y959D01*
Y5D01*
X5D01*
Y31D01*
X5Y35D01*
X10Y35D01*
X95D01*
Y125D01*
X10D01*
X5Y125D01*
X5Y129D01*
Y931D01*
X5Y935D01*
X10Y935D01*
X95D01*
Y1025D01*
X10D01*
X5Y1025D01*
X5Y1029D01*
Y1055D01*
X3195D01*
Y1001D01*
D02*
G37*
%LPC*%
G36*
X1856Y1025D02*
X1844D01*
X1833Y1021D01*
X1823Y1016D01*
X1814Y1007D01*
X1809Y997D01*
X1805Y986D01*
Y980D01*
X1805Y979D01*
X1805Y971D01*
X1805Y969D01*
X1805Y966D01*
X1804Y964D01*
X1804Y963D01*
X1803Y962D01*
X1803Y961D01*
X1803Y961D01*
X1802Y960D01*
X1801Y958D01*
X1800Y955D01*
X1799Y955D01*
X1799Y955D01*
X1799Y952D01*
X1798Y949D01*
X1799Y949D01*
X1788Y939D01*
X1788Y939D01*
X1787Y938D01*
X1786Y939D01*
X1784Y938D01*
X1782Y938D01*
X1781Y937D01*
X1780Y937D01*
X1779Y936D01*
X1777Y935D01*
X1776Y934D01*
X1775Y933D01*
X1773Y933D01*
X1772Y933D01*
X1772Y932D01*
X1770Y931D01*
X1768Y929D01*
X1768Y929D01*
X1767Y929D01*
X1766Y926D01*
X1765Y924D01*
X1765Y924D01*
X1765Y923D01*
X1764Y921D01*
X1764Y918D01*
X1764Y918D01*
X1764Y917D01*
X1765Y915D01*
X1765Y914D01*
X1764Y911D01*
Y905D01*
X1766Y899D01*
X1771Y894D01*
X1777Y892D01*
X1783D01*
X1788Y894D01*
X1789Y894D01*
X1791Y894D01*
X1792Y894D01*
X1792Y894D01*
X1794Y894D01*
X1797Y895D01*
X1797Y895D01*
X1798Y895D01*
X1800Y897D01*
X1802Y898D01*
X1802Y898D01*
X1802Y899D01*
X1804Y901D01*
X1805Y903D01*
X1805Y904D01*
X1805Y904D01*
X1806Y906D01*
X1806Y906D01*
X1806Y907D01*
X1806Y907D01*
X1808Y909D01*
X1809Y911D01*
X1809Y912D01*
X1809Y912D01*
X1810Y915D01*
X1810Y917D01*
X1810Y917D01*
X1820Y928D01*
X1821Y928D01*
X1821Y928D01*
X1824Y928D01*
X1826Y928D01*
X1826Y929D01*
X1827Y929D01*
X1829Y930D01*
X1831Y931D01*
X1832Y932D01*
X1832Y932D01*
X1833Y933D01*
X1834Y933D01*
X1836Y934D01*
X1838Y934D01*
X1840Y934D01*
X1847Y935D01*
X1851Y935D01*
X1852Y935D01*
X1856D01*
X1867Y939D01*
X1877Y944D01*
X1886Y953D01*
X1891Y963D01*
X1895Y974D01*
Y986D01*
X1891Y997D01*
X1886Y1007D01*
X1877Y1016D01*
X1867Y1021D01*
X1856Y1025D01*
D02*
G37*
G36*
X1956D02*
X1944D01*
X1933Y1021D01*
X1923Y1016D01*
X1914Y1007D01*
X1909Y997D01*
X1905Y986D01*
Y979D01*
X1905Y977D01*
X1905Y970D01*
X1905Y967D01*
X1905Y965D01*
X1905Y963D01*
X1904Y962D01*
X1904Y961D01*
X1904Y960D01*
X1904Y960D01*
X1903Y959D01*
X1901Y956D01*
X1900Y954D01*
X1900Y954D01*
X1900Y954D01*
X1900Y951D01*
X1899Y948D01*
X1887Y936D01*
X1886Y936D01*
X1885Y936D01*
X1883Y936D01*
X1882Y935D01*
X1880Y935D01*
X1879Y934D01*
X1878Y933D01*
X1877Y932D01*
X1875Y932D01*
X1875Y931D01*
X1874Y930D01*
X1874Y930D01*
X1874Y930D01*
X1874Y930D01*
X1873Y930D01*
X1870Y929D01*
X1870Y929D01*
X1870Y929D01*
X1868Y927D01*
X1866Y925D01*
X1866Y925D01*
X1866Y924D01*
X1865Y922D01*
X1863Y919D01*
X1863Y919D01*
X1863Y919D01*
X1863Y919D01*
X1861Y918D01*
X1859Y916D01*
X1858Y916D01*
X1858Y916D01*
X1857Y914D01*
X1855Y911D01*
X1855Y911D01*
X1855Y911D01*
X1854Y908D01*
X1854Y908D01*
X1854Y908D01*
X1854Y907D01*
X1852Y905D01*
X1851Y903D01*
X1851Y903D01*
X1851Y902D01*
X1850Y900D01*
X1850Y897D01*
X1850Y897D01*
X1850Y897D01*
X1850Y896D01*
X1768Y814D01*
X1683D01*
X1681Y817D01*
Y823D01*
X1679Y829D01*
X1674Y834D01*
X1668Y836D01*
X1662D01*
X1656Y834D01*
X1651Y829D01*
X1649Y823D01*
Y820D01*
X1644Y819D01*
X1643Y819D01*
X1642Y822D01*
X1641Y822D01*
X1641Y822D01*
X1641Y823D01*
X1641Y825D01*
X1641Y825D01*
X1640Y826D01*
X1639Y828D01*
X1637Y830D01*
X1637Y830D01*
X1637Y831D01*
X1635Y832D01*
X1633Y833D01*
X1632Y833D01*
X1632Y834D01*
X1629Y834D01*
X1627Y835D01*
X1626Y834D01*
X1626Y835D01*
X1623Y834D01*
X1623Y834D01*
X1619Y835D01*
X1612D01*
X1607Y833D01*
X1602Y828D01*
X1600Y823D01*
Y816D01*
X1601Y812D01*
X1601Y812D01*
X1600Y809D01*
X1601Y809D01*
X1600Y808D01*
X1601Y806D01*
X1601Y803D01*
X1602Y803D01*
X1602Y802D01*
X1603Y800D01*
X1604Y798D01*
X1605Y798D01*
X1605Y798D01*
X1607Y796D01*
X1609Y795D01*
X1610Y794D01*
X1610Y794D01*
X1612Y794D01*
X1613Y794D01*
X1613Y794D01*
X1613Y793D01*
X1616Y792D01*
X1618Y790D01*
X1618Y790D01*
X1618Y790D01*
X1621Y789D01*
X1624Y789D01*
X1624Y789D01*
X1624Y789D01*
X1624Y789D01*
X1625Y788D01*
X1630Y785D01*
X1636Y784D01*
X1774D01*
X1780Y785D01*
X1785Y788D01*
X1871Y875D01*
X1872Y875D01*
X1872Y875D01*
X1872Y875D01*
X1875Y875D01*
X1877Y876D01*
X1878Y876D01*
X1878Y876D01*
X1880Y877D01*
X1882Y879D01*
X1883Y879D01*
X1883Y879D01*
X1883Y879D01*
X1886Y880D01*
X1886Y880D01*
X1886Y880D01*
X1889Y882D01*
X1891Y883D01*
X1891Y883D01*
X1891Y884D01*
X1893Y886D01*
X1894Y888D01*
X1894Y888D01*
X1894Y889D01*
X1895Y891D01*
X1895Y892D01*
X1896Y893D01*
X1898Y893D01*
X1898Y894D01*
X1899Y894D01*
X1901Y896D01*
X1903Y897D01*
X1903Y898D01*
X1903Y898D01*
X1904Y900D01*
X1906Y903D01*
X1906Y903D01*
X1906Y903D01*
X1906Y905D01*
X1906Y905D01*
X1907Y906D01*
X1908Y908D01*
X1909Y909D01*
X1909Y911D01*
X1909Y912D01*
X1909Y913D01*
X1910Y915D01*
X1910Y915D01*
X1921Y927D01*
X1922Y927D01*
X1923Y927D01*
X1925Y928D01*
X1927Y928D01*
X1928Y928D01*
X1929Y929D01*
X1930Y930D01*
X1932Y931D01*
X1933Y931D01*
X1933Y932D01*
X1934Y932D01*
X1935Y933D01*
X1937Y933D01*
X1939Y934D01*
X1942Y934D01*
X1949Y935D01*
X1952Y935D01*
X1953Y935D01*
X1956D01*
X1967Y939D01*
X1977Y944D01*
X1986Y953D01*
X1991Y963D01*
X1995Y974D01*
Y986D01*
X1991Y997D01*
X1986Y1007D01*
X1977Y1016D01*
X1967Y1021D01*
X1956Y1025D01*
D02*
G37*
G36*
X3056D02*
X3044D01*
X3033Y1021D01*
X3023Y1016D01*
X3014Y1007D01*
X3009Y997D01*
X3005Y986D01*
Y974D01*
X3009Y963D01*
X3014Y953D01*
X3023Y944D01*
X3033Y939D01*
X3044Y935D01*
X3056D01*
X3067Y939D01*
X3077Y944D01*
X3086Y953D01*
X3091Y963D01*
X3095Y974D01*
Y986D01*
X3091Y997D01*
X3086Y1007D01*
X3077Y1016D01*
X3067Y1021D01*
X3056Y1025D01*
D02*
G37*
G36*
X2856D02*
X2844D01*
X2833Y1021D01*
X2823Y1016D01*
X2814Y1007D01*
X2809Y997D01*
X2805Y986D01*
Y974D01*
X2809Y963D01*
X2814Y953D01*
X2823Y944D01*
X2833Y939D01*
X2844Y935D01*
X2856D01*
X2867Y939D01*
X2877Y944D01*
X2886Y953D01*
X2891Y963D01*
X2895Y974D01*
Y986D01*
X2891Y997D01*
X2886Y1007D01*
X2877Y1016D01*
X2867Y1021D01*
X2856Y1025D01*
D02*
G37*
G36*
X2756D02*
X2744D01*
X2733Y1021D01*
X2723Y1016D01*
X2714Y1007D01*
X2709Y997D01*
X2705Y986D01*
Y974D01*
X2709Y963D01*
X2714Y953D01*
X2723Y944D01*
X2733Y939D01*
X2744Y935D01*
X2756D01*
X2767Y939D01*
X2777Y944D01*
X2786Y953D01*
X2791Y963D01*
X2795Y974D01*
Y986D01*
X2791Y997D01*
X2786Y1007D01*
X2777Y1016D01*
X2767Y1021D01*
X2756Y1025D01*
D02*
G37*
G36*
X2656D02*
X2644D01*
X2633Y1021D01*
X2623Y1016D01*
X2614Y1007D01*
X2609Y997D01*
X2605Y986D01*
Y974D01*
X2609Y963D01*
X2614Y953D01*
X2623Y944D01*
X2633Y939D01*
X2644Y935D01*
X2656D01*
X2667Y939D01*
X2677Y944D01*
X2686Y953D01*
X2691Y963D01*
X2695Y974D01*
Y986D01*
X2691Y997D01*
X2686Y1007D01*
X2677Y1016D01*
X2667Y1021D01*
X2656Y1025D01*
D02*
G37*
G36*
X2556D02*
X2544D01*
X2533Y1021D01*
X2523Y1016D01*
X2514Y1007D01*
X2509Y997D01*
X2505Y986D01*
Y974D01*
X2509Y963D01*
X2514Y953D01*
X2523Y944D01*
X2533Y939D01*
X2544Y935D01*
X2556D01*
X2567Y939D01*
X2577Y944D01*
X2586Y953D01*
X2591Y963D01*
X2595Y974D01*
Y986D01*
X2591Y997D01*
X2586Y1007D01*
X2577Y1016D01*
X2567Y1021D01*
X2556Y1025D01*
D02*
G37*
G36*
X2456D02*
X2444D01*
X2433Y1021D01*
X2423Y1016D01*
X2414Y1007D01*
X2409Y997D01*
X2405Y986D01*
Y974D01*
X2409Y963D01*
X2414Y953D01*
X2423Y944D01*
X2433Y939D01*
X2444Y935D01*
X2456D01*
X2467Y939D01*
X2477Y944D01*
X2486Y953D01*
X2491Y963D01*
X2495Y974D01*
Y986D01*
X2491Y997D01*
X2486Y1007D01*
X2477Y1016D01*
X2467Y1021D01*
X2456Y1025D01*
D02*
G37*
G36*
X1456D02*
X1444D01*
X1433Y1021D01*
X1423Y1016D01*
X1414Y1007D01*
X1409Y997D01*
X1405Y986D01*
Y974D01*
X1409Y963D01*
X1414Y953D01*
X1423Y944D01*
X1433Y939D01*
X1444Y935D01*
X1456D01*
X1467Y939D01*
X1477Y944D01*
X1486Y953D01*
X1491Y963D01*
X1495Y974D01*
Y986D01*
X1491Y997D01*
X1486Y1007D01*
X1477Y1016D01*
X1467Y1021D01*
X1456Y1025D01*
D02*
G37*
G36*
X1356D02*
X1344D01*
X1333Y1021D01*
X1323Y1016D01*
X1314Y1007D01*
X1309Y997D01*
X1305Y986D01*
Y974D01*
X1309Y963D01*
X1314Y953D01*
X1323Y944D01*
X1333Y939D01*
X1344Y935D01*
X1356D01*
X1367Y939D01*
X1377Y944D01*
X1386Y953D01*
X1391Y963D01*
X1395Y974D01*
Y986D01*
X1391Y997D01*
X1386Y1007D01*
X1377Y1016D01*
X1367Y1021D01*
X1356Y1025D01*
D02*
G37*
G36*
X1256D02*
X1244D01*
X1233Y1021D01*
X1223Y1016D01*
X1214Y1007D01*
X1209Y997D01*
X1205Y986D01*
Y974D01*
X1209Y963D01*
X1214Y953D01*
X1223Y944D01*
X1233Y939D01*
X1244Y935D01*
X1256D01*
X1267Y939D01*
X1277Y944D01*
X1286Y953D01*
X1291Y963D01*
X1295Y974D01*
Y986D01*
X1291Y997D01*
X1286Y1007D01*
X1277Y1016D01*
X1267Y1021D01*
X1256Y1025D01*
D02*
G37*
G36*
X1156D02*
X1144D01*
X1133Y1021D01*
X1123Y1016D01*
X1114Y1007D01*
X1109Y997D01*
X1105Y986D01*
Y974D01*
X1109Y963D01*
X1114Y953D01*
X1123Y944D01*
X1133Y939D01*
X1144Y935D01*
X1156D01*
X1167Y939D01*
X1177Y944D01*
X1186Y953D01*
X1191Y963D01*
X1195Y974D01*
Y986D01*
X1191Y997D01*
X1186Y1007D01*
X1177Y1016D01*
X1167Y1021D01*
X1156Y1025D01*
D02*
G37*
G36*
X1056D02*
X1044D01*
X1033Y1021D01*
X1023Y1016D01*
X1014Y1007D01*
X1009Y997D01*
X1005Y986D01*
Y974D01*
X1009Y963D01*
X1014Y953D01*
X1023Y944D01*
X1033Y939D01*
X1044Y935D01*
X1056D01*
X1067Y939D01*
X1077Y944D01*
X1086Y953D01*
X1091Y963D01*
X1095Y974D01*
Y986D01*
X1091Y997D01*
X1086Y1007D01*
X1077Y1016D01*
X1067Y1021D01*
X1056Y1025D01*
D02*
G37*
G36*
X956D02*
X944D01*
X933Y1021D01*
X923Y1016D01*
X914Y1007D01*
X909Y997D01*
X905Y986D01*
Y974D01*
X909Y963D01*
X914Y953D01*
X923Y944D01*
X933Y939D01*
X944Y935D01*
X956D01*
X967Y939D01*
X977Y944D01*
X986Y953D01*
X991Y963D01*
X995Y974D01*
Y986D01*
X991Y997D01*
X986Y1007D01*
X977Y1016D01*
X967Y1021D01*
X956Y1025D01*
D02*
G37*
G36*
X856D02*
X844D01*
X833Y1021D01*
X823Y1016D01*
X814Y1007D01*
X809Y997D01*
X805Y986D01*
Y974D01*
X809Y963D01*
X814Y953D01*
X823Y944D01*
X833Y939D01*
X844Y935D01*
X856D01*
X867Y939D01*
X877Y944D01*
X886Y953D01*
X891Y963D01*
X895Y974D01*
Y986D01*
X891Y997D01*
X886Y1007D01*
X877Y1016D01*
X867Y1021D01*
X856Y1025D01*
D02*
G37*
G36*
X756D02*
X744D01*
X733Y1021D01*
X723Y1016D01*
X714Y1007D01*
X709Y997D01*
X705Y986D01*
Y974D01*
X709Y963D01*
X714Y953D01*
X723Y944D01*
X733Y939D01*
X744Y935D01*
X756D01*
X767Y939D01*
X777Y944D01*
X786Y953D01*
X791Y963D01*
X795Y974D01*
Y986D01*
X791Y997D01*
X786Y1007D01*
X777Y1016D01*
X767Y1021D01*
X756Y1025D01*
D02*
G37*
G36*
X656D02*
X644D01*
X633Y1021D01*
X623Y1016D01*
X614Y1007D01*
X609Y997D01*
X605Y986D01*
Y974D01*
X609Y963D01*
X614Y953D01*
X623Y944D01*
X633Y939D01*
X644Y935D01*
X656D01*
X667Y939D01*
X677Y944D01*
X686Y953D01*
X691Y963D01*
X695Y974D01*
Y986D01*
X691Y997D01*
X686Y1007D01*
X677Y1016D01*
X667Y1021D01*
X656Y1025D01*
D02*
G37*
G36*
X556D02*
X544D01*
X533Y1021D01*
X523Y1016D01*
X514Y1007D01*
X509Y997D01*
X505Y986D01*
Y974D01*
X509Y963D01*
X514Y953D01*
X523Y944D01*
X533Y939D01*
X544Y935D01*
X556D01*
X567Y939D01*
X577Y944D01*
X586Y953D01*
X591Y963D01*
X595Y974D01*
Y986D01*
X591Y997D01*
X586Y1007D01*
X577Y1016D01*
X567Y1021D01*
X556Y1025D01*
D02*
G37*
G36*
X356D02*
X344D01*
X333Y1021D01*
X323Y1016D01*
X314Y1007D01*
X309Y997D01*
X305Y986D01*
Y974D01*
X309Y963D01*
X314Y953D01*
X323Y944D01*
X333Y939D01*
X344Y935D01*
X356D01*
X367Y939D01*
X377Y944D01*
X386Y953D01*
X391Y963D01*
X395Y974D01*
Y986D01*
X391Y997D01*
X386Y1007D01*
X377Y1016D01*
X367Y1021D01*
X356Y1025D01*
D02*
G37*
G36*
X256D02*
X244D01*
X233Y1021D01*
X223Y1016D01*
X214Y1007D01*
X209Y997D01*
X205Y986D01*
Y974D01*
X209Y963D01*
X214Y953D01*
X223Y944D01*
X233Y939D01*
X244Y935D01*
X256D01*
X267Y939D01*
X277Y944D01*
X286Y953D01*
X291Y963D01*
X295Y974D01*
Y986D01*
X291Y997D01*
X286Y1007D01*
X277Y1016D01*
X267Y1021D01*
X256Y1025D01*
D02*
G37*
G36*
X156D02*
X144D01*
X133Y1021D01*
X123Y1016D01*
X114Y1007D01*
X109Y997D01*
X105Y986D01*
Y974D01*
X109Y963D01*
X114Y953D01*
X123Y944D01*
X133Y939D01*
X144Y935D01*
X156D01*
X167Y939D01*
X177Y944D01*
X186Y953D01*
X191Y963D01*
X195Y974D01*
Y986D01*
X191Y997D01*
X186Y1007D01*
X177Y1016D01*
X167Y1021D01*
X156Y1025D01*
D02*
G37*
G36*
X2156D02*
X2144D01*
X2133Y1021D01*
X2123Y1016D01*
X2114Y1007D01*
X2109Y997D01*
X2105Y986D01*
Y974D01*
X2109Y963D01*
X2114Y953D01*
X2118Y949D01*
X2118Y948D01*
X2121Y945D01*
X2125Y941D01*
X2127Y939D01*
X2128Y937D01*
X2129Y935D01*
X2129Y934D01*
X2130Y933D01*
X2130Y933D01*
X2130Y932D01*
X2130Y930D01*
X2131Y927D01*
X2131Y927D01*
X2131Y926D01*
X2133Y925D01*
X2132Y923D01*
X2131Y919D01*
X2131Y919D01*
X2130Y919D01*
X2128Y918D01*
X2126Y916D01*
X2125Y916D01*
X2125Y916D01*
X2123Y915D01*
X2122Y915D01*
X2122Y915D01*
X2120Y913D01*
X2118Y912D01*
X2117Y912D01*
X2117Y911D01*
X2116Y909D01*
X2114Y907D01*
X2114Y907D01*
X2114Y906D01*
X2113Y904D01*
X2113Y901D01*
X2113Y901D01*
X2113Y900D01*
X2114Y898D01*
X2114Y897D01*
X2112Y893D01*
Y887D01*
X2113Y884D01*
X2113Y881D01*
X2112Y879D01*
X2111Y878D01*
X2110Y877D01*
X2108Y876D01*
X2108Y876D01*
X2108Y876D01*
X2107Y875D01*
X2053D01*
X2052Y876D01*
X2052Y876D01*
X2052Y876D01*
X2050Y877D01*
X2048Y879D01*
X2047Y879D01*
X2047Y879D01*
X2044Y880D01*
X2042Y880D01*
X2041Y880D01*
X2041Y880D01*
X2041Y880D01*
X2039Y882D01*
X2038Y882D01*
X2038Y882D01*
X2035Y882D01*
X2033Y883D01*
X2033Y883D01*
X2032Y883D01*
X2030Y882D01*
X2027Y882D01*
X2027Y882D01*
X2026Y882D01*
X2024Y880D01*
X2022Y879D01*
X2022Y878D01*
X2022Y878D01*
X2020Y876D01*
X2020Y875D01*
X2016Y874D01*
X2011Y869D01*
X2011Y868D01*
X2005Y867D01*
X1990Y881D01*
X1990Y882D01*
X1990Y882D01*
X1990Y882D01*
X1990Y885D01*
X1989Y887D01*
X1989Y888D01*
X1989Y888D01*
X1988Y890D01*
X1989Y892D01*
X1989Y892D01*
X1989Y893D01*
X1990Y895D01*
X1990Y898D01*
X1990Y898D01*
X1990Y898D01*
X1990Y899D01*
X2020Y928D01*
X2020Y928D01*
X2020Y928D01*
X2023Y929D01*
X2025Y929D01*
X2026Y929D01*
X2026Y929D01*
X2028Y931D01*
X2030Y932D01*
X2031Y932D01*
X2032Y933D01*
X2032Y933D01*
X2033Y933D01*
X2035Y934D01*
X2037Y934D01*
X2039Y935D01*
X2046Y935D01*
X2050Y935D01*
X2051Y935D01*
X2056D01*
X2067Y939D01*
X2077Y944D01*
X2086Y953D01*
X2091Y963D01*
X2095Y974D01*
Y986D01*
X2091Y997D01*
X2086Y1007D01*
X2077Y1016D01*
X2067Y1021D01*
X2056Y1025D01*
X2044D01*
X2033Y1021D01*
X2023Y1016D01*
X2014Y1007D01*
X2009Y997D01*
X2005Y986D01*
Y981D01*
X2005Y980D01*
X2005Y976D01*
X2005Y969D01*
X2004Y967D01*
X2004Y965D01*
X2003Y963D01*
X2003Y962D01*
X2003Y962D01*
X2002Y961D01*
X2002Y960D01*
X2001Y958D01*
X1999Y956D01*
X1999Y956D01*
X1999Y955D01*
X1999Y953D01*
X1998Y950D01*
X1998Y950D01*
X1998Y950D01*
X1969Y920D01*
X1968Y920D01*
X1968Y920D01*
X1968Y920D01*
X1965Y920D01*
X1963Y919D01*
X1962Y919D01*
X1962Y919D01*
X1960Y918D01*
X1958Y916D01*
X1957Y916D01*
X1957Y916D01*
X1957Y916D01*
X1954Y915D01*
X1954Y915D01*
X1954Y915D01*
X1951Y913D01*
X1949Y912D01*
X1949Y912D01*
X1949Y911D01*
X1947Y909D01*
X1946Y907D01*
X1946Y907D01*
X1946Y906D01*
X1945Y904D01*
X1945Y901D01*
X1945Y901D01*
X1945Y900D01*
X1945Y898D01*
X1946Y897D01*
X1944Y893D01*
Y887D01*
X1946Y883D01*
X1945Y882D01*
X1945Y880D01*
X1945Y879D01*
X1945Y879D01*
X1945Y876D01*
X1946Y874D01*
X1946Y873D01*
X1946Y873D01*
X1947Y871D01*
X1949Y869D01*
X1949Y868D01*
X1949Y868D01*
X1951Y867D01*
X1954Y865D01*
X1954Y865D01*
X1954Y865D01*
X1957Y864D01*
X1957Y864D01*
X1957Y864D01*
X1958Y864D01*
X1960Y862D01*
X1962Y861D01*
X1962Y861D01*
X1963Y861D01*
X1965Y860D01*
X1968Y860D01*
X1968Y860D01*
X1968Y860D01*
X1969Y860D01*
X2009Y820D01*
X2014Y816D01*
X2020Y815D01*
X2024D01*
X2025Y810D01*
X2021Y808D01*
X2016Y804D01*
X2014Y798D01*
Y792D01*
X2016Y786D01*
X2021Y781D01*
X2027Y779D01*
X2033D01*
X2039Y781D01*
X2043Y786D01*
X2046Y792D01*
Y798D01*
X2043Y804D01*
X2039Y808D01*
X2034Y810D01*
X2035Y815D01*
X2150D01*
X2152Y810D01*
X2151Y809D01*
X2149Y803D01*
Y797D01*
X2151Y791D01*
X2156Y786D01*
X2162Y784D01*
X2168D01*
X2174Y786D01*
X2179Y791D01*
X2181Y797D01*
Y803D01*
X2179Y809D01*
X2178Y810D01*
X2180Y815D01*
X2269D01*
X2269Y815D01*
X2269Y815D01*
X2269Y815D01*
X2272Y813D01*
X2274Y811D01*
X2274Y811D01*
X2274Y811D01*
X2277Y811D01*
X2280Y810D01*
X2281Y810D01*
X2281Y810D01*
X2281Y810D01*
X2283Y809D01*
X2283Y808D01*
X2283Y808D01*
X2286Y808D01*
X2289Y807D01*
X2289Y807D01*
X2289Y807D01*
X2292Y808D01*
X2295Y809D01*
X2295Y809D01*
X2295Y809D01*
X2297Y810D01*
X2299Y812D01*
X2300Y812D01*
X2300Y812D01*
X2301Y815D01*
X2302Y815D01*
X2306Y817D01*
X2310Y821D01*
X2313Y827D01*
Y834D01*
X2310Y839D01*
X2306Y844D01*
X2302Y846D01*
X2301Y846D01*
X2300Y848D01*
X2300Y849D01*
X2299Y849D01*
X2297Y850D01*
X2295Y852D01*
X2295Y852D01*
X2295Y852D01*
X2292Y853D01*
X2289Y853D01*
X2289Y853D01*
X2289Y853D01*
X2286Y853D01*
X2283Y852D01*
X2283Y852D01*
X2283Y852D01*
X2281Y851D01*
X2281Y851D01*
X2280Y851D01*
X2280Y851D01*
X2277Y850D01*
X2274Y850D01*
X2274Y849D01*
X2274Y849D01*
X2272Y848D01*
X2269Y846D01*
X2269Y846D01*
X2269Y846D01*
X2269Y846D01*
X2150D01*
X2148Y851D01*
X2149Y851D01*
X2151Y857D01*
Y863D01*
X2149Y869D01*
X2146Y871D01*
X2146Y872D01*
X2147Y877D01*
X2149Y879D01*
X2149Y879D01*
X2150Y879D01*
X2151Y881D01*
X2153Y883D01*
X2153Y884D01*
X2153Y884D01*
X2154Y887D01*
X2154Y887D01*
X2154Y887D01*
X2154Y887D01*
X2156Y890D01*
X2157Y892D01*
X2157Y892D01*
X2157Y892D01*
X2158Y895D01*
X2158Y898D01*
X2158Y898D01*
X2158Y898D01*
X2158Y899D01*
X2161Y901D01*
X2164Y906D01*
X2165Y912D01*
Y922D01*
X2165Y922D01*
X2166Y922D01*
X2167Y924D01*
X2169Y926D01*
X2169Y927D01*
X2169Y927D01*
X2170Y930D01*
X2170Y932D01*
X2170Y933D01*
X2170Y933D01*
X2171Y934D01*
X2171Y935D01*
X2172Y937D01*
X2173Y939D01*
X2175Y941D01*
X2179Y945D01*
X2182Y948D01*
X2182Y949D01*
X2186Y953D01*
X2191Y963D01*
X2195Y974D01*
Y986D01*
X2191Y997D01*
X2186Y1007D01*
X2177Y1016D01*
X2167Y1021D01*
X2156Y1025D01*
D02*
G37*
G36*
X1756D02*
X1744D01*
X1733Y1021D01*
X1723Y1016D01*
X1714Y1007D01*
X1709Y997D01*
X1705Y986D01*
Y981D01*
X1705Y980D01*
X1705Y976D01*
X1705Y969D01*
X1704Y967D01*
X1704Y965D01*
X1703Y963D01*
X1703Y962D01*
X1703Y962D01*
X1702Y961D01*
X1702Y960D01*
X1701Y958D01*
X1699Y956D01*
X1699Y956D01*
X1699Y955D01*
X1699Y953D01*
X1698Y950D01*
X1698Y950D01*
X1698Y950D01*
X1664Y915D01*
X1613D01*
X1612Y920D01*
X1620Y928D01*
X1620Y928D01*
X1620Y928D01*
X1623Y929D01*
X1625Y929D01*
X1626Y929D01*
X1626Y929D01*
X1628Y931D01*
X1630Y932D01*
X1631Y932D01*
X1632Y933D01*
X1632Y933D01*
X1633Y933D01*
X1635Y934D01*
X1637Y934D01*
X1639Y935D01*
X1646Y935D01*
X1650Y935D01*
X1651Y935D01*
X1656D01*
X1667Y939D01*
X1677Y944D01*
X1686Y953D01*
X1691Y963D01*
X1695Y974D01*
Y986D01*
X1691Y997D01*
X1686Y1007D01*
X1677Y1016D01*
X1667Y1021D01*
X1656Y1025D01*
X1644D01*
X1633Y1021D01*
X1623Y1016D01*
X1614Y1007D01*
X1609Y997D01*
X1605Y986D01*
Y981D01*
X1605Y980D01*
X1605Y976D01*
X1605Y969D01*
X1604Y967D01*
X1604Y965D01*
X1603Y963D01*
X1603Y962D01*
X1603Y962D01*
X1602Y961D01*
X1602Y960D01*
X1601Y958D01*
X1599Y956D01*
X1599Y956D01*
X1599Y955D01*
X1599Y953D01*
X1598Y950D01*
X1598Y950D01*
X1598Y950D01*
X1589Y940D01*
X1580D01*
X1578Y945D01*
X1586Y953D01*
X1591Y963D01*
X1595Y974D01*
Y986D01*
X1591Y997D01*
X1586Y1007D01*
X1577Y1016D01*
X1567Y1021D01*
X1556Y1025D01*
X1544D01*
X1533Y1021D01*
X1523Y1016D01*
X1514Y1007D01*
X1509Y997D01*
X1505Y986D01*
Y974D01*
X1509Y963D01*
X1514Y953D01*
X1518Y949D01*
X1516Y945D01*
X1513Y945D01*
X1512Y945D01*
X1511Y945D01*
X1511Y945D01*
X1511Y945D01*
X1509Y947D01*
X1508Y947D01*
X1508Y947D01*
X1505Y947D01*
X1503Y948D01*
X1503Y948D01*
X1502Y948D01*
X1500Y947D01*
X1497Y947D01*
X1497Y947D01*
X1496Y947D01*
X1494Y945D01*
X1492Y944D01*
X1492Y943D01*
X1492Y943D01*
X1490Y941D01*
X1490Y940D01*
X1486Y939D01*
X1481Y934D01*
X1479Y928D01*
Y922D01*
X1480Y920D01*
X1476Y915D01*
X1277D01*
X1276Y916D01*
X1276Y916D01*
X1276Y916D01*
X1274Y917D01*
X1272Y919D01*
X1271Y919D01*
X1271Y919D01*
X1268Y920D01*
X1266Y920D01*
X1265Y920D01*
X1265Y920D01*
X1265Y920D01*
X1263Y922D01*
X1262Y922D01*
X1262Y922D01*
X1259Y922D01*
X1257Y923D01*
X1257Y923D01*
X1256Y923D01*
X1254Y922D01*
X1251Y922D01*
X1251Y922D01*
X1250Y922D01*
X1248Y920D01*
X1246Y919D01*
X1246Y918D01*
X1246Y918D01*
X1244Y916D01*
X1244Y915D01*
X1240Y914D01*
X1235Y909D01*
X1233Y903D01*
Y897D01*
X1235Y891D01*
X1240Y886D01*
X1244Y885D01*
X1244Y884D01*
X1246Y882D01*
X1246Y882D01*
X1246Y881D01*
X1248Y880D01*
X1250Y878D01*
X1251Y878D01*
X1251Y878D01*
X1254Y878D01*
X1256Y877D01*
X1257Y877D01*
X1257Y877D01*
X1259Y878D01*
X1262Y878D01*
X1262Y878D01*
X1263Y878D01*
X1265Y880D01*
X1265Y880D01*
X1265Y880D01*
X1266Y880D01*
X1268Y880D01*
X1271Y881D01*
X1271Y881D01*
X1272Y881D01*
X1274Y883D01*
X1276Y884D01*
X1276Y884D01*
X1276Y884D01*
X1277Y885D01*
X1670D01*
X1676Y886D01*
X1678Y888D01*
X1681Y886D01*
X1683Y885D01*
Y879D01*
X1685Y873D01*
X1690Y869D01*
X1696Y866D01*
X1702D01*
X1708Y869D01*
X1712Y873D01*
X1715Y879D01*
Y885D01*
X1712Y891D01*
X1708Y896D01*
X1702Y898D01*
X1697D01*
X1695Y902D01*
X1694Y903D01*
X1720Y928D01*
X1720Y928D01*
X1720Y928D01*
X1723Y929D01*
X1725Y929D01*
X1726Y929D01*
X1726Y929D01*
X1728Y931D01*
X1730Y932D01*
X1731Y932D01*
X1732Y933D01*
X1732Y933D01*
X1733Y933D01*
X1735Y934D01*
X1737Y934D01*
X1739Y935D01*
X1746Y935D01*
X1750Y935D01*
X1751Y935D01*
X1756D01*
X1767Y939D01*
X1777Y944D01*
X1786Y953D01*
X1791Y963D01*
X1795Y974D01*
Y986D01*
X1791Y997D01*
X1786Y1007D01*
X1777Y1016D01*
X1767Y1021D01*
X1756Y1025D01*
D02*
G37*
G36*
X2956D02*
X2944D01*
X2933Y1021D01*
X2923Y1016D01*
X2914Y1007D01*
X2909Y997D01*
X2905Y986D01*
Y974D01*
X2909Y963D01*
X2914Y953D01*
X2923Y944D01*
X2928Y941D01*
X2927Y936D01*
X2927D01*
X2921Y934D01*
X2916Y929D01*
X2914Y923D01*
Y917D01*
X2916Y911D01*
X2921Y906D01*
X2927Y904D01*
X2933D01*
X2939Y906D01*
X2944Y911D01*
X2946Y917D01*
Y923D01*
X2944Y929D01*
X2942Y931D01*
X2944Y935D01*
X2944Y935D01*
X2956D01*
X2967Y939D01*
X2977Y944D01*
X2986Y953D01*
X2991Y963D01*
X2995Y974D01*
Y986D01*
X2991Y997D01*
X2986Y1007D01*
X2977Y1016D01*
X2967Y1021D01*
X2956Y1025D01*
D02*
G37*
G36*
X3060Y911D02*
X3054D01*
X3048Y909D01*
X3043Y904D01*
X3041Y898D01*
Y892D01*
X3043Y886D01*
X3048Y881D01*
X3054Y879D01*
X3060D01*
X3066Y881D01*
X3071Y886D01*
X3073Y892D01*
Y898D01*
X3071Y904D01*
X3066Y909D01*
X3060Y911D01*
D02*
G37*
G36*
X2987Y910D02*
X2981D01*
X2975Y908D01*
X2970Y903D01*
X2968Y897D01*
Y891D01*
X2970Y885D01*
X2975Y880D01*
X2981Y878D01*
X2987D01*
X2993Y880D01*
X2998Y885D01*
X3000Y891D01*
Y897D01*
X2998Y903D01*
X2993Y908D01*
X2987Y910D01*
D02*
G37*
G36*
X2356Y1025D02*
X2344D01*
X2333Y1021D01*
X2323Y1016D01*
X2314Y1007D01*
X2309Y997D01*
X2305Y986D01*
Y974D01*
X2309Y963D01*
X2314Y953D01*
X2323Y944D01*
X2333Y939D01*
X2344Y935D01*
X2349D01*
X2350Y935D01*
X2354Y935D01*
X2361Y935D01*
X2363Y934D01*
X2365Y934D01*
X2367Y933D01*
X2368Y933D01*
X2368Y933D01*
X2369Y932D01*
X2370Y932D01*
X2372Y931D01*
X2374Y929D01*
X2374Y929D01*
X2375Y929D01*
X2377Y929D01*
X2380Y928D01*
X2380Y928D01*
X2380Y928D01*
X2407Y902D01*
X2407Y901D01*
X2407Y901D01*
X2407Y901D01*
X2407Y898D01*
X2408Y896D01*
X2408Y895D01*
X2408Y895D01*
X2409Y893D01*
X2411Y891D01*
X2411Y890D01*
X2411Y890D01*
X2411Y890D01*
X2412Y887D01*
X2412Y887D01*
X2412Y887D01*
X2414Y884D01*
X2415Y882D01*
X2415Y882D01*
X2416Y882D01*
X2418Y880D01*
X2420Y879D01*
X2420Y879D01*
X2421Y879D01*
X2423Y878D01*
X2426Y878D01*
X2426Y878D01*
X2427Y878D01*
X2429Y878D01*
X2430Y879D01*
X2434Y877D01*
X2440D01*
X2446Y879D01*
X2451Y884D01*
X2453Y890D01*
Y896D01*
X2451Y900D01*
X2452Y901D01*
X2452Y903D01*
X2452Y904D01*
X2452Y904D01*
X2452Y907D01*
X2451Y909D01*
X2451Y910D01*
X2451Y910D01*
X2450Y912D01*
X2448Y914D01*
X2448Y915D01*
X2448Y915D01*
X2446Y916D01*
X2443Y918D01*
X2443Y918D01*
X2443Y918D01*
X2440Y919D01*
X2440Y919D01*
X2440Y919D01*
X2439Y919D01*
X2437Y921D01*
X2435Y922D01*
X2435Y922D01*
X2434Y922D01*
X2432Y923D01*
X2429Y923D01*
X2429Y923D01*
X2429Y923D01*
X2428Y923D01*
X2402Y950D01*
X2402Y950D01*
X2402Y950D01*
X2401Y953D01*
X2401Y955D01*
X2401Y956D01*
X2401Y956D01*
X2399Y958D01*
X2398Y960D01*
X2398Y961D01*
X2397Y962D01*
X2397Y962D01*
X2397Y963D01*
X2396Y965D01*
X2396Y967D01*
X2395Y969D01*
X2395Y976D01*
X2395Y980D01*
X2395Y981D01*
Y986D01*
X2391Y997D01*
X2386Y1007D01*
X2377Y1016D01*
X2367Y1021D01*
X2356Y1025D01*
D02*
G37*
G36*
X2227Y900D02*
X2221D01*
X2215Y897D01*
X2210Y893D01*
X2208Y887D01*
Y880D01*
X2210Y875D01*
X2215Y870D01*
X2221Y868D01*
X2227D01*
X2233Y870D01*
X2237Y875D01*
X2240Y880D01*
Y887D01*
X2237Y893D01*
X2233Y897D01*
X2227Y900D01*
D02*
G37*
G36*
X2750Y897D02*
X2743D01*
X2737Y895D01*
X2733Y890D01*
X2731Y885D01*
Y878D01*
X2733Y872D01*
X2737Y868D01*
X2743Y865D01*
X2750D01*
X2756Y868D01*
X2760Y872D01*
X2763Y878D01*
Y885D01*
X2760Y890D01*
X2756Y895D01*
X2750Y897D01*
D02*
G37*
G36*
X1178Y895D02*
X1172D01*
X1166Y893D01*
X1161Y888D01*
X1159Y882D01*
Y876D01*
X1161Y870D01*
X1166Y865D01*
X1172Y863D01*
X1178D01*
X1184Y865D01*
X1189Y870D01*
X1191Y876D01*
Y882D01*
X1189Y888D01*
X1184Y893D01*
X1178Y895D01*
D02*
G37*
G36*
X2872Y876D02*
X2865D01*
X2860Y874D01*
X2855Y869D01*
X2853Y864D01*
Y857D01*
X2855Y851D01*
X2860Y847D01*
X2865Y844D01*
X2872D01*
X2878Y847D01*
X2882Y851D01*
X2885Y857D01*
Y864D01*
X2882Y869D01*
X2878Y874D01*
X2872Y876D01*
D02*
G37*
G36*
X2256Y1025D02*
X2244D01*
X2233Y1021D01*
X2223Y1016D01*
X2214Y1007D01*
X2209Y997D01*
X2205Y986D01*
Y974D01*
X2209Y963D01*
X2214Y953D01*
X2223Y944D01*
X2233Y939D01*
X2244Y935D01*
X2249D01*
X2250Y935D01*
X2254Y935D01*
X2261Y935D01*
X2263Y934D01*
X2265Y934D01*
X2267Y933D01*
X2268Y933D01*
X2268Y933D01*
X2269Y932D01*
X2270Y932D01*
X2272Y931D01*
X2274Y929D01*
X2274Y929D01*
X2275Y929D01*
X2277Y929D01*
X2280Y928D01*
X2280Y928D01*
X2280Y928D01*
X2357Y852D01*
X2357Y852D01*
X2357Y852D01*
X2357Y852D01*
X2357Y849D01*
X2358Y846D01*
X2358Y846D01*
X2358Y846D01*
X2359Y843D01*
X2360Y842D01*
X2360Y842D01*
X2360Y840D01*
X2361Y837D01*
X2361Y837D01*
X2361Y836D01*
X2363Y834D01*
X2364Y832D01*
X2365Y832D01*
X2365Y832D01*
X2367Y831D01*
X2369Y829D01*
X2370Y829D01*
X2370Y829D01*
X2373Y829D01*
X2373Y828D01*
X2376Y826D01*
X2382Y823D01*
X2388D01*
X2389Y824D01*
X2391Y822D01*
X2391Y822D01*
X2392Y822D01*
X2394Y822D01*
X2397Y822D01*
X2397Y822D01*
X2397Y822D01*
X2400Y822D01*
X2402Y823D01*
X2403Y823D01*
X2403Y823D01*
X2405Y825D01*
X2405Y825D01*
X2407Y825D01*
X2408Y826D01*
X2409Y826D01*
X2410Y827D01*
X2412Y828D01*
X2413Y829D01*
X2414Y829D01*
X2414Y830D01*
X2791D01*
X2791Y829D01*
X2793Y828D01*
X2795Y827D01*
X2795Y827D01*
X2796Y826D01*
X2798Y826D01*
X2800Y825D01*
X2800Y825D01*
X2802Y823D01*
X2802Y823D01*
X2803Y823D01*
X2805Y822D01*
X2808Y822D01*
X2808Y822D01*
X2808Y822D01*
X2811Y822D01*
X2813Y822D01*
X2814Y822D01*
X2814Y822D01*
X2816Y824D01*
X2817Y823D01*
X2823D01*
X2829Y826D01*
X2834Y830D01*
X2836Y836D01*
Y843D01*
X2834Y848D01*
X2832Y850D01*
X2832Y852D01*
X2831Y854D01*
X2831Y855D01*
X2831Y856D01*
X2830Y857D01*
X2829Y859D01*
X2828Y860D01*
X2828Y861D01*
X2826Y862D01*
X2824Y863D01*
X2823Y863D01*
X2823Y864D01*
X2820Y864D01*
X2818Y865D01*
X2818Y865D01*
X2817Y865D01*
X2804Y865D01*
X2802Y865D01*
X2800Y865D01*
X2799Y864D01*
X2798Y864D01*
X2797Y863D01*
X2795Y862D01*
X2794Y862D01*
X2793Y861D01*
X2793Y860D01*
X2406D01*
X2405Y861D01*
X2403Y862D01*
X2402Y863D01*
X2401Y864D01*
X2400Y864D01*
X2398Y865D01*
X2396Y865D01*
X2395Y865D01*
X2394Y865D01*
X2393Y865D01*
X2393Y865D01*
X2393Y866D01*
X2391Y867D01*
X2389Y869D01*
X2388Y869D01*
X2388Y869D01*
X2385Y870D01*
X2383Y870D01*
X2382Y870D01*
X2382Y870D01*
X2382Y870D01*
X2302Y950D01*
X2302Y950D01*
X2302Y950D01*
X2301Y953D01*
X2301Y955D01*
X2301Y956D01*
X2301Y956D01*
X2299Y958D01*
X2298Y960D01*
X2298Y961D01*
X2297Y962D01*
X2297Y962D01*
X2297Y963D01*
X2296Y965D01*
X2296Y967D01*
X2295Y969D01*
X2295Y976D01*
X2295Y980D01*
X2295Y981D01*
Y986D01*
X2291Y997D01*
X2286Y1007D01*
X2277Y1016D01*
X2267Y1021D01*
X2256Y1025D01*
D02*
G37*
G36*
X303Y851D02*
X297D01*
X291Y849D01*
X286Y844D01*
X284Y838D01*
Y832D01*
X286Y826D01*
X291Y821D01*
X297Y819D01*
X303D01*
X309Y821D01*
X314Y826D01*
X316Y832D01*
Y838D01*
X314Y844D01*
X309Y849D01*
X303Y851D01*
D02*
G37*
G36*
X1143Y828D02*
X1137D01*
X1131Y826D01*
X1126Y821D01*
X1124Y815D01*
Y809D01*
X1126Y803D01*
X1131Y798D01*
X1137Y796D01*
X1143D01*
X1149Y798D01*
X1154Y803D01*
X1156Y809D01*
Y815D01*
X1154Y821D01*
X1149Y826D01*
X1143Y828D01*
D02*
G37*
G36*
X1094Y827D02*
X1088D01*
X1082Y824D01*
X1077Y820D01*
X1075Y814D01*
Y808D01*
X1077Y802D01*
X1082Y797D01*
X1088Y795D01*
X1094D01*
X1100Y797D01*
X1104Y802D01*
X1107Y808D01*
Y814D01*
X1104Y820D01*
X1100Y824D01*
X1094Y827D01*
D02*
G37*
G36*
X987Y812D02*
X980D01*
X974Y809D01*
X970Y805D01*
X967Y799D01*
Y792D01*
X970Y787D01*
X974Y782D01*
X980Y780D01*
X987D01*
X993Y782D01*
X997Y787D01*
X999Y792D01*
Y799D01*
X997Y805D01*
X993Y809D01*
X987Y812D01*
D02*
G37*
G36*
X2698Y811D02*
X2692D01*
X2686Y809D01*
X2681Y804D01*
X2679Y798D01*
Y792D01*
X2681Y786D01*
X2686Y781D01*
X2692Y779D01*
X2698D01*
X2704Y781D01*
X2709Y786D01*
X2711Y792D01*
Y798D01*
X2709Y804D01*
X2704Y809D01*
X2698Y811D01*
D02*
G37*
G36*
X1508D02*
X1502D01*
X1496Y809D01*
X1491Y804D01*
X1489Y798D01*
Y792D01*
X1491Y786D01*
X1496Y781D01*
X1502Y779D01*
X1508D01*
X1514Y781D01*
X1519Y786D01*
X1521Y792D01*
Y798D01*
X1519Y804D01*
X1514Y809D01*
X1508Y811D01*
D02*
G37*
G36*
X365Y803D02*
X359D01*
X353Y801D01*
X348Y796D01*
X346Y791D01*
Y784D01*
X348Y778D01*
X353Y774D01*
X359Y771D01*
X365D01*
X371Y774D01*
X375Y778D01*
X378Y784D01*
Y791D01*
X375Y796D01*
X371Y801D01*
X365Y803D01*
D02*
G37*
G36*
X2528Y801D02*
X2522D01*
X2516Y799D01*
X2511Y794D01*
X2509Y788D01*
Y782D01*
X2511Y776D01*
X2516Y771D01*
X2522Y769D01*
X2528D01*
X2534Y771D01*
X2539Y776D01*
X2541Y782D01*
Y788D01*
X2539Y794D01*
X2534Y799D01*
X2528Y801D01*
D02*
G37*
G36*
X52Y786D02*
X46D01*
X40Y783D01*
X36Y779D01*
X33Y773D01*
Y766D01*
X36Y760D01*
X40Y756D01*
X46Y754D01*
X52D01*
X58Y756D01*
X63Y760D01*
X65Y766D01*
Y773D01*
X63Y779D01*
X58Y783D01*
X52Y786D01*
D02*
G37*
G36*
X2937Y731D02*
X2930D01*
X2924Y729D01*
X2920Y724D01*
X2917Y719D01*
Y712D01*
X2920Y706D01*
X2924Y702D01*
X2930Y699D01*
X2937D01*
X2942Y702D01*
X2947Y706D01*
X2949Y712D01*
Y719D01*
X2947Y724D01*
X2942Y729D01*
X2937Y731D01*
D02*
G37*
G36*
X3110Y731D02*
X3104D01*
X3098Y728D01*
X3093Y724D01*
X3091Y718D01*
Y712D01*
X3093Y706D01*
X3098Y701D01*
X3104Y699D01*
X3110D01*
X3116Y701D01*
X3120Y706D01*
X3121Y708D01*
X3126D01*
X3128Y705D01*
X3132Y701D01*
X3138Y698D01*
X3144D01*
X3150Y701D01*
X3155Y705D01*
X3157Y711D01*
Y717D01*
X3155Y723D01*
X3150Y728D01*
X3144Y730D01*
X3138D01*
X3132Y728D01*
X3128Y723D01*
X3127Y721D01*
X3121D01*
X3120Y724D01*
X3116Y728D01*
X3110Y731D01*
D02*
G37*
G36*
X503Y711D02*
X497D01*
X491Y709D01*
X486Y704D01*
X484Y698D01*
Y692D01*
X486Y686D01*
X491Y681D01*
X497Y679D01*
X503D01*
X509Y681D01*
X514Y686D01*
X516Y692D01*
Y698D01*
X514Y704D01*
X509Y709D01*
X503Y711D01*
D02*
G37*
G36*
X3061Y730D02*
X3054D01*
X3048Y727D01*
X3044Y723D01*
X3041Y717D01*
Y710D01*
X3044Y705D01*
X3048Y700D01*
X3051Y699D01*
Y694D01*
X3048Y692D01*
X3044Y688D01*
X3041Y682D01*
Y676D01*
X3044Y670D01*
X3048Y665D01*
X3054Y663D01*
X3060D01*
X3066Y665D01*
X3071Y670D01*
X3073Y676D01*
Y682D01*
X3071Y688D01*
X3066Y692D01*
X3064Y693D01*
Y699D01*
X3067Y700D01*
X3071Y705D01*
X3073Y710D01*
Y717D01*
X3071Y723D01*
X3067Y727D01*
X3061Y730D01*
D02*
G37*
G36*
X456Y1025D02*
X444D01*
X433Y1021D01*
X423Y1016D01*
X414Y1007D01*
X409Y997D01*
X405Y986D01*
Y974D01*
X409Y963D01*
X414Y953D01*
X423Y944D01*
X433Y939D01*
X444Y935D01*
X456D01*
X463Y937D01*
X465Y933D01*
X461Y930D01*
X457Y925D01*
X456Y919D01*
X456Y850D01*
X457Y848D01*
X457Y846D01*
X457Y845D01*
X457Y844D01*
X458Y842D01*
X459Y841D01*
X460Y840D01*
X461Y839D01*
X462Y838D01*
X464Y837D01*
X540Y790D01*
X541Y790D01*
X541Y789D01*
X544Y789D01*
X546Y788D01*
X547Y788D01*
X547Y788D01*
X550Y788D01*
X551Y788D01*
X551Y786D01*
X556Y781D01*
X562Y779D01*
X565D01*
X565Y777D01*
X566Y776D01*
X566Y776D01*
X568Y774D01*
X569Y773D01*
X570Y772D01*
X571Y772D01*
X684Y702D01*
X683Y698D01*
Y692D01*
X685Y686D01*
X690Y682D01*
X696Y679D01*
X702D01*
X708Y682D01*
X712Y686D01*
X807Y628D01*
X805Y623D01*
X802D01*
X796Y621D01*
X791Y616D01*
X789Y610D01*
Y604D01*
X791Y598D01*
X796Y593D01*
X802Y591D01*
X808D01*
X814Y593D01*
X819Y598D01*
X821Y604D01*
Y610D01*
X819Y615D01*
X823Y618D01*
X894Y575D01*
X895Y575D01*
X896Y574D01*
X896Y573D01*
X896Y569D01*
X896Y569D01*
X891Y564D01*
X889Y558D01*
Y552D01*
X891Y546D01*
X896Y541D01*
X902Y539D01*
X908D01*
X914Y541D01*
X919Y546D01*
X921Y552D01*
Y558D01*
X919Y564D01*
X915Y568D01*
X916Y572D01*
X916Y573D01*
X1026D01*
X1029Y573D01*
X1032Y570D01*
X1038Y568D01*
X1045D01*
X1051Y570D01*
X1054Y573D01*
X1057Y573D01*
X1230Y573D01*
X1233Y568D01*
X1231Y564D01*
Y557D01*
X1234Y552D01*
X1238Y547D01*
X1244Y545D01*
X1251D01*
X1256Y547D01*
X1261Y552D01*
X1261Y552D01*
X1266Y554D01*
X1314Y513D01*
X1315Y512D01*
X1316Y511D01*
X1317Y511D01*
X1319Y510D01*
X1320Y510D01*
X1320Y509D01*
X1321Y508D01*
X1322Y507D01*
X1323Y505D01*
X1324Y504D01*
X1422Y420D01*
Y306D01*
X1423Y300D01*
X1426Y295D01*
X1431Y292D01*
X1437Y291D01*
X1576D01*
X1576Y291D01*
X1576Y291D01*
X1579Y291D01*
X1582Y292D01*
X1582Y292D01*
X1582Y292D01*
X1584Y294D01*
X1587Y295D01*
X1587Y295D01*
X1587Y295D01*
X1590Y299D01*
X1590Y299D01*
X1591Y299D01*
X1592Y301D01*
X1594Y304D01*
X1594Y304D01*
X1594Y304D01*
X1594Y307D01*
X1595Y310D01*
X1595Y310D01*
X1595Y310D01*
X1592Y421D01*
X1633Y462D01*
X1636Y467D01*
X1636Y468D01*
X1642Y471D01*
X1646Y475D01*
X1648Y481D01*
X1650Y481D01*
X1655Y484D01*
X1744Y573D01*
X1928D01*
X1928Y571D01*
X1933Y566D01*
X1939Y564D01*
X1945D01*
X1951Y566D01*
X1956Y571D01*
X1956Y573D01*
X2177D01*
X2217Y532D01*
X2217Y532D01*
X2217Y532D01*
X2219Y531D01*
X2221Y529D01*
X2221Y529D01*
X2222Y529D01*
X2224Y528D01*
X2226Y528D01*
Y526D01*
X2228Y520D01*
X2233Y516D01*
X2238Y514D01*
X2238Y512D01*
X2238Y512D01*
X2238Y512D01*
X2240Y509D01*
X2240Y508D01*
X2237Y504D01*
X2233Y506D01*
X2227D01*
X2221Y504D01*
X2216Y499D01*
X2214Y493D01*
Y487D01*
X2216Y481D01*
X2221Y476D01*
X2227Y474D01*
X2233D01*
X2239Y476D01*
X2244Y481D01*
X2246Y487D01*
Y493D01*
X2245Y496D01*
X2249Y499D01*
X2325Y421D01*
Y306D01*
X2326Y300D01*
X2329Y295D01*
X2334Y292D01*
X2340Y291D01*
X2485D01*
X2491Y292D01*
X2496Y295D01*
X2499Y300D01*
X2500Y306D01*
Y667D01*
X2505Y669D01*
X2635Y563D01*
Y361D01*
X2516Y242D01*
X2209D01*
X2148Y304D01*
X2151Y308D01*
X2153Y307D01*
X2159D01*
X2165Y310D01*
X2169Y314D01*
X2172Y320D01*
Y326D01*
X2169Y332D01*
X2165Y337D01*
X2159Y339D01*
X2153D01*
X2147Y337D01*
X2142Y332D01*
X2140Y326D01*
Y320D01*
X2141Y318D01*
X2137Y315D01*
X2101Y351D01*
X2096Y354D01*
X2090Y355D01*
X1869D01*
X1863Y354D01*
X1858Y351D01*
X1858Y351D01*
X1856Y350D01*
X1854D01*
X1852Y351D01*
X1852Y351D01*
X1847Y354D01*
X1841Y355D01*
X1739D01*
X1736Y355D01*
X1734Y354D01*
X1734Y354D01*
X1733Y354D01*
X1731Y353D01*
X1729Y351D01*
X1601Y230D01*
X1355D01*
X1178Y353D01*
X1177Y353D01*
X1175Y354D01*
X1174Y354D01*
X1173Y355D01*
X1171Y355D01*
X1169Y355D01*
X1088D01*
X1008Y397D01*
X1009Y402D01*
X1011D01*
X1017Y405D01*
X1022Y409D01*
X1024Y415D01*
Y421D01*
X1022Y427D01*
X1017Y432D01*
X1011Y434D01*
X1005D01*
X999Y432D01*
X994Y427D01*
X992Y421D01*
Y415D01*
X994Y410D01*
X992Y407D01*
X991Y406D01*
X820Y495D01*
X820Y495D01*
X820Y495D01*
X817Y496D01*
X814Y496D01*
X814Y496D01*
X814Y496D01*
X813Y496D01*
X809Y496D01*
X807Y499D01*
X806Y500D01*
X806Y500D01*
X806Y501D01*
X804Y502D01*
X803Y503D01*
X802Y504D01*
X801Y505D01*
X534Y644D01*
X533Y644D01*
X532Y644D01*
X530Y645D01*
X528Y645D01*
X527Y645D01*
X526Y645D01*
X460D01*
X454Y644D01*
X449Y641D01*
X446Y636D01*
X445Y630D01*
Y564D01*
X445Y561D01*
X445Y559D01*
X446Y559D01*
X446Y558D01*
X447Y556D01*
X448Y554D01*
X449Y553D01*
X449Y553D01*
X451Y552D01*
X453Y550D01*
X700Y413D01*
X701Y413D01*
X701Y412D01*
X703Y412D01*
X706Y411D01*
X706Y411D01*
X707Y411D01*
X709Y411D01*
X711Y411D01*
X712Y409D01*
X716Y405D01*
X722Y403D01*
X725D01*
X726Y401D01*
X726Y400D01*
X727Y399D01*
X728Y398D01*
X730Y397D01*
X731Y396D01*
X731Y395D01*
X922Y290D01*
X921Y285D01*
X919D01*
X913Y282D01*
X908Y278D01*
X906Y272D01*
Y266D01*
X908Y260D01*
X913Y255D01*
X919Y253D01*
X925D01*
X931Y255D01*
X936Y260D01*
X938Y266D01*
Y272D01*
X936Y276D01*
X940Y280D01*
X1192Y140D01*
X1193Y140D01*
X1193Y139D01*
X1195Y139D01*
X1197Y138D01*
X1198Y138D01*
X1199Y138D01*
X1594Y140D01*
X1597Y141D01*
X1600Y141D01*
X1600Y141D01*
X1600Y141D01*
X1603Y143D01*
X1603Y143D01*
X1607Y141D01*
X1614D01*
X1619Y144D01*
X1620Y144D01*
X1622Y143D01*
X1624Y141D01*
X1624Y141D01*
X1624Y141D01*
X1627Y141D01*
X1630Y140D01*
X1630Y140D01*
X1630Y140D01*
X2178Y143D01*
X2181Y143D01*
X2184Y144D01*
X2184Y144D01*
X2184Y144D01*
X2187Y146D01*
X2189Y147D01*
X2199Y157D01*
X2201Y157D01*
X2204Y156D01*
X2206Y151D01*
X2211Y146D01*
X2215Y145D01*
X2215Y144D01*
X2217Y142D01*
X2217Y142D01*
X2217Y141D01*
X2219Y140D01*
X2221Y138D01*
X2222Y138D01*
X2222Y138D01*
X2225Y138D01*
X2227Y137D01*
X2228Y137D01*
X2228Y137D01*
X2230Y138D01*
X2233Y138D01*
X2233Y138D01*
X2234Y138D01*
X2236Y140D01*
X2236Y140D01*
X2236Y140D01*
X2237Y140D01*
X2239Y140D01*
X2242Y141D01*
X2242Y141D01*
X2243Y141D01*
X2245Y143D01*
X2247Y144D01*
X2247Y144D01*
X2247Y144D01*
X2248Y145D01*
X2444D01*
X2457Y132D01*
X2462Y129D01*
X2468Y128D01*
X2532D01*
X2532Y123D01*
X2528Y121D01*
X2518Y116D01*
X2509Y107D01*
X2504Y97D01*
X2500Y86D01*
Y74D01*
X2504Y63D01*
X2509Y53D01*
X2518Y44D01*
X2528Y39D01*
X2539Y35D01*
X2551D01*
X2562Y39D01*
X2572Y44D01*
X2581Y53D01*
X2586Y63D01*
X2590Y74D01*
Y86D01*
X2586Y97D01*
X2581Y107D01*
X2572Y116D01*
X2562Y121D01*
X2558Y123D01*
X2558Y128D01*
X2632D01*
X2632Y123D01*
X2628Y121D01*
X2618Y116D01*
X2609Y107D01*
X2604Y97D01*
X2600Y86D01*
Y74D01*
X2604Y63D01*
X2609Y53D01*
X2618Y44D01*
X2628Y39D01*
X2639Y35D01*
X2651D01*
X2662Y39D01*
X2672Y44D01*
X2681Y53D01*
X2686Y63D01*
X2690Y74D01*
Y86D01*
X2686Y97D01*
X2681Y107D01*
X2672Y116D01*
X2662Y121D01*
X2658Y123D01*
X2658Y128D01*
X2732D01*
X2732Y123D01*
X2728Y121D01*
X2718Y116D01*
X2709Y107D01*
X2704Y97D01*
X2700Y86D01*
Y74D01*
X2704Y63D01*
X2709Y53D01*
X2718Y44D01*
X2728Y39D01*
X2739Y35D01*
X2751D01*
X2762Y39D01*
X2772Y44D01*
X2781Y53D01*
X2786Y63D01*
X2790Y74D01*
Y86D01*
X2786Y97D01*
X2781Y107D01*
X2772Y116D01*
X2762Y121D01*
X2751Y125D01*
X2742D01*
X2741Y130D01*
X2745Y132D01*
X2805Y192D01*
X2809Y197D01*
X2810Y203D01*
Y240D01*
X2815Y243D01*
X2816Y241D01*
X2822Y239D01*
X2828D01*
X2834Y241D01*
X2839Y246D01*
X2841Y252D01*
Y258D01*
X2839Y264D01*
X2834Y269D01*
X2828Y271D01*
X2822D01*
X2816Y269D01*
X2815Y267D01*
X2810Y270D01*
Y505D01*
X2943Y638D01*
X2947Y635D01*
X2946Y633D01*
Y627D01*
X2949Y621D01*
X2953Y617D01*
X2959Y614D01*
X2965D01*
X2971Y617D01*
X2976Y621D01*
X2978Y627D01*
Y633D01*
X2976Y639D01*
X2971Y644D01*
X2965Y646D01*
X2959D01*
X2957Y645D01*
X2954Y650D01*
X2965Y660D01*
X2967Y659D01*
X2967Y659D01*
X2967Y659D01*
X2967Y659D01*
X2970Y658D01*
X2970Y658D01*
X2970Y658D01*
X2973Y657D01*
X2975Y657D01*
X2976Y657D01*
X2976Y657D01*
X2979Y657D01*
X2981Y658D01*
X2982Y658D01*
X2982Y658D01*
X2984Y660D01*
X2986Y661D01*
X2986Y662D01*
X2987Y662D01*
X2988Y664D01*
X2988Y665D01*
X2992Y666D01*
X2997Y671D01*
X2999Y677D01*
Y683D01*
X2997Y689D01*
X2992Y693D01*
X2988Y695D01*
X2988Y696D01*
X2990Y701D01*
X2990Y701D01*
X2992Y702D01*
X2996Y707D01*
X2999Y713D01*
Y719D01*
X2996Y725D01*
X2992Y729D01*
X2986Y732D01*
X2979D01*
X2973Y729D01*
X2969Y725D01*
X2967Y719D01*
Y713D01*
X2969Y707D01*
X2969Y707D01*
X2969Y706D01*
X2969Y706D01*
X2968Y701D01*
X2967Y700D01*
X2967Y700D01*
X2967Y700D01*
X2967Y700D01*
X2964Y699D01*
X2961Y699D01*
X2961Y699D01*
X2961Y699D01*
X2958Y697D01*
X2956Y696D01*
X2956Y695D01*
X2956Y695D01*
X2954Y693D01*
X2953Y692D01*
X2952Y691D01*
X2797Y535D01*
X2790Y535D01*
X2789Y536D01*
X2790Y537D01*
Y543D01*
X2788Y548D01*
X2789Y550D01*
X2790Y556D01*
Y566D01*
X2789Y572D01*
X2787Y575D01*
X2788Y579D01*
Y585D01*
X2786Y591D01*
X2781Y596D01*
X2776Y598D01*
X2772D01*
X2771Y600D01*
X2770Y602D01*
X2769Y602D01*
X2769Y602D01*
X2692Y671D01*
X2692Y678D01*
X2694Y679D01*
X2696Y685D01*
Y692D01*
X2694Y697D01*
X2689Y702D01*
X2684Y704D01*
X2677D01*
X2671Y702D01*
X2667Y697D01*
X2663Y697D01*
X2613Y741D01*
X2611Y743D01*
X2609Y744D01*
X2608Y744D01*
X2608Y744D01*
X2605Y745D01*
X2603Y745D01*
X2480D01*
X2478Y750D01*
X2479Y751D01*
X2481Y757D01*
Y763D01*
X2479Y769D01*
X2474Y774D01*
X2468Y776D01*
X2462D01*
X2456Y774D01*
X2451Y769D01*
X2449Y763D01*
Y757D01*
X2450Y754D01*
X2448Y748D01*
X2448Y748D01*
X2446Y748D01*
X2444Y750D01*
X2438Y752D01*
X2431D01*
X2426Y750D01*
X2421Y745D01*
X2421Y745D01*
X2420Y745D01*
X1955D01*
X1953Y750D01*
X1954Y751D01*
X1956Y757D01*
Y763D01*
X1954Y769D01*
X1949Y774D01*
X1943Y776D01*
X1937D01*
X1931Y774D01*
X1926Y769D01*
X1924Y763D01*
Y757D01*
X1925Y753D01*
X1924Y748D01*
X1923Y747D01*
X1921Y748D01*
X1920Y749D01*
X1914Y751D01*
X1908D01*
X1902Y749D01*
X1898Y745D01*
X1896Y745D01*
X1429D01*
X1427Y750D01*
X1427Y751D01*
X1429Y757D01*
Y763D01*
X1427Y769D01*
X1422Y773D01*
X1417Y776D01*
X1410D01*
X1404Y773D01*
X1400Y769D01*
X1397Y763D01*
Y757D01*
X1399Y753D01*
X1395Y750D01*
X1391Y752D01*
X1384D01*
X1378Y749D01*
X1374Y745D01*
X1372Y745D01*
X900D01*
X898Y750D01*
X899Y751D01*
X901Y757D01*
Y763D01*
X899Y769D01*
X894Y774D01*
X888Y776D01*
X882D01*
X876Y774D01*
X871Y769D01*
X869Y763D01*
Y757D01*
X869Y756D01*
X869Y756D01*
X866Y752D01*
X862D01*
X856Y749D01*
X851Y745D01*
X849Y739D01*
Y733D01*
X851Y727D01*
X854Y724D01*
X853Y720D01*
Y716D01*
X848Y714D01*
X742Y783D01*
X741Y783D01*
Y787D01*
X738Y793D01*
X734Y797D01*
X728Y800D01*
X722D01*
X718Y798D01*
X717Y799D01*
X579Y888D01*
X581Y892D01*
Y898D01*
X579Y904D01*
X574Y909D01*
X568Y911D01*
X562D01*
X556Y909D01*
X552Y905D01*
X510Y932D01*
X509Y933D01*
X508Y933D01*
X506Y934D01*
X504Y934D01*
X503Y934D01*
X502Y935D01*
X472D01*
X470Y934D01*
X468Y939D01*
X477Y944D01*
X486Y953D01*
X491Y963D01*
X495Y974D01*
Y986D01*
X491Y997D01*
X486Y1007D01*
X477Y1016D01*
X467Y1021D01*
X456Y1025D01*
D02*
G37*
G36*
X358Y689D02*
X352D01*
X346Y686D01*
X342Y682D01*
X339Y676D01*
Y670D01*
X342Y664D01*
X346Y659D01*
X352Y657D01*
X358D01*
X364Y659D01*
X369Y664D01*
X371Y670D01*
Y676D01*
X369Y682D01*
X364Y686D01*
X358Y689D01*
D02*
G37*
G36*
X306Y688D02*
X300D01*
X294Y686D01*
X289Y681D01*
X287Y675D01*
Y669D01*
X289Y663D01*
X294Y659D01*
X300Y656D01*
X306D01*
X312Y659D01*
X317Y663D01*
X319Y669D01*
Y675D01*
X317Y681D01*
X312Y686D01*
X306Y688D01*
D02*
G37*
G36*
X113Y676D02*
X107D01*
X101Y674D01*
X96Y669D01*
X94Y663D01*
Y657D01*
X96Y651D01*
X101Y646D01*
X107Y644D01*
X113D01*
X119Y646D01*
X124Y651D01*
X126Y657D01*
Y663D01*
X124Y669D01*
X119Y674D01*
X113Y676D01*
D02*
G37*
G36*
X2788Y651D02*
X2782D01*
X2776Y649D01*
X2771Y644D01*
X2769Y638D01*
Y632D01*
X2771Y626D01*
X2776Y621D01*
X2782Y619D01*
X2788D01*
X2794Y621D01*
X2799Y626D01*
X2801Y632D01*
Y638D01*
X2799Y644D01*
X2794Y649D01*
X2788Y651D01*
D02*
G37*
G36*
X3060Y646D02*
X3054D01*
X3048Y644D01*
X3044Y639D01*
X3041Y633D01*
Y627D01*
X3044Y621D01*
X3048Y616D01*
X3054Y614D01*
X3060D01*
X3066Y616D01*
X3071Y621D01*
X3073Y627D01*
Y633D01*
X3071Y639D01*
X3066Y644D01*
X3060Y646D01*
D02*
G37*
G36*
X243Y627D02*
X237D01*
X231Y624D01*
X226Y620D01*
X224Y614D01*
Y607D01*
X226Y601D01*
X231Y597D01*
X237Y595D01*
X243D01*
X249Y597D01*
X254Y601D01*
X256Y607D01*
Y614D01*
X254Y620D01*
X249Y624D01*
X243Y627D01*
D02*
G37*
G36*
X103Y616D02*
X97D01*
X91Y614D01*
X86Y609D01*
X84Y603D01*
Y597D01*
X86Y591D01*
X91Y586D01*
X97Y584D01*
X103D01*
X109Y586D01*
X114Y591D01*
X116Y597D01*
Y603D01*
X114Y609D01*
X109Y614D01*
X103Y616D01*
D02*
G37*
G36*
X2545Y593D02*
X2539D01*
X2533Y591D01*
X2528Y586D01*
X2526Y580D01*
Y574D01*
X2528Y568D01*
X2533Y563D01*
X2539Y561D01*
X2545D01*
X2551Y563D01*
X2556Y568D01*
X2558Y574D01*
Y580D01*
X2556Y586D01*
X2551Y591D01*
X2545Y593D01*
D02*
G37*
G36*
X1045Y554D02*
X1038D01*
X1032Y551D01*
X1028Y547D01*
X1025Y541D01*
Y534D01*
X1028Y529D01*
X1032Y524D01*
X1038Y522D01*
X1045D01*
X1051Y524D01*
X1055Y529D01*
X1057Y534D01*
Y541D01*
X1055Y547D01*
X1051Y551D01*
X1045Y554D01*
D02*
G37*
G36*
X2546Y551D02*
X2540D01*
X2534Y549D01*
X2530Y544D01*
X2527Y538D01*
Y532D01*
X2530Y526D01*
X2534Y521D01*
X2540Y519D01*
X2546D01*
X2552Y521D01*
X2557Y526D01*
X2559Y532D01*
Y538D01*
X2557Y544D01*
X2552Y549D01*
X2546Y551D01*
D02*
G37*
G36*
X1945Y551D02*
X1939D01*
X1933Y549D01*
X1928Y544D01*
X1926Y538D01*
Y532D01*
X1928Y526D01*
X1933Y521D01*
X1939Y519D01*
X1945D01*
X1951Y521D01*
X1956Y526D01*
X1958Y532D01*
Y538D01*
X1956Y544D01*
X1951Y549D01*
X1945Y551D01*
D02*
G37*
G36*
X3058Y546D02*
X3052D01*
X3046Y544D01*
X3041Y539D01*
X3039Y533D01*
Y527D01*
X3041Y521D01*
X3046Y516D01*
X3052Y514D01*
X3058D01*
X3064Y516D01*
X3069Y521D01*
X3071Y527D01*
Y533D01*
X3069Y539D01*
X3064Y544D01*
X3058Y546D01*
D02*
G37*
G36*
X1259Y540D02*
X1253D01*
X1247Y538D01*
X1242Y533D01*
X1240Y527D01*
Y521D01*
X1242Y515D01*
X1247Y510D01*
X1253Y508D01*
X1259D01*
X1265Y510D01*
X1269Y515D01*
X1272Y521D01*
Y527D01*
X1269Y533D01*
X1265Y538D01*
X1259Y540D01*
D02*
G37*
G36*
X1860Y538D02*
X1854D01*
X1848Y536D01*
X1843Y531D01*
X1841Y525D01*
Y519D01*
X1843Y513D01*
X1848Y508D01*
X1854Y506D01*
X1860D01*
X1866Y508D01*
X1871Y513D01*
X1873Y519D01*
Y525D01*
X1871Y531D01*
X1866Y536D01*
X1860Y538D01*
D02*
G37*
G36*
X367Y534D02*
X360D01*
X354Y531D01*
X350Y527D01*
X347Y521D01*
Y514D01*
X350Y509D01*
X354Y504D01*
X360Y502D01*
X367D01*
X372Y504D01*
X377Y509D01*
X379Y514D01*
Y521D01*
X377Y527D01*
X372Y531D01*
X367Y534D01*
D02*
G37*
G36*
X2533Y516D02*
X2527D01*
X2521Y514D01*
X2516Y509D01*
X2514Y503D01*
Y497D01*
X2516Y491D01*
X2521Y486D01*
X2527Y484D01*
X2533D01*
X2539Y486D01*
X2544Y491D01*
X2546Y497D01*
Y503D01*
X2544Y509D01*
X2539Y514D01*
X2533Y516D01*
D02*
G37*
G36*
X136Y488D02*
X129D01*
X123Y485D01*
X119Y481D01*
X116Y475D01*
Y469D01*
X119Y463D01*
X123Y458D01*
X129Y456D01*
X136D01*
X142Y458D01*
X146Y463D01*
X148Y469D01*
Y475D01*
X146Y481D01*
X142Y485D01*
X136Y488D01*
D02*
G37*
G36*
X1023Y486D02*
X1017D01*
X1011Y484D01*
X1006Y479D01*
X1004Y473D01*
Y467D01*
X1006Y461D01*
X1011Y456D01*
X1017Y454D01*
X1023D01*
X1029Y456D01*
X1034Y461D01*
X1036Y467D01*
Y473D01*
X1034Y479D01*
X1029Y484D01*
X1023Y486D01*
D02*
G37*
G36*
X48Y470D02*
X41D01*
X35Y467D01*
X31Y463D01*
X28Y457D01*
Y450D01*
X31Y445D01*
X35Y440D01*
X41Y438D01*
X48D01*
X54Y440D01*
X58Y445D01*
X60Y450D01*
Y457D01*
X58Y463D01*
X54Y467D01*
X48Y470D01*
D02*
G37*
G36*
X532Y456D02*
X525D01*
X519Y454D01*
X515Y450D01*
X513Y444D01*
Y437D01*
X515Y431D01*
X519Y427D01*
X525Y424D01*
X532D01*
X538Y427D01*
X542Y431D01*
X545Y437D01*
Y444D01*
X542Y450D01*
X538Y454D01*
X532Y456D01*
D02*
G37*
G36*
X583Y456D02*
X577D01*
X571Y453D01*
X567Y449D01*
X564Y443D01*
Y437D01*
X567Y431D01*
X571Y426D01*
X577Y424D01*
X583D01*
X589Y426D01*
X594Y431D01*
X596Y437D01*
Y443D01*
X594Y449D01*
X589Y453D01*
X583Y456D01*
D02*
G37*
G36*
X3060Y446D02*
X3054D01*
X3048Y444D01*
X3044Y439D01*
X3041Y434D01*
Y427D01*
X3044Y421D01*
X3048Y417D01*
X3054Y414D01*
X3060D01*
X3066Y417D01*
X3071Y421D01*
X3073Y427D01*
Y434D01*
X3071Y439D01*
X3066Y444D01*
X3060Y446D01*
D02*
G37*
G36*
X2985D02*
X2979D01*
X2973Y444D01*
X2968Y439D01*
X2966Y434D01*
Y427D01*
X2968Y421D01*
X2973Y417D01*
X2979Y414D01*
X2985D01*
X2991Y417D01*
X2995Y421D01*
X2998Y427D01*
Y434D01*
X2995Y439D01*
X2991Y444D01*
X2985Y446D01*
D02*
G37*
G36*
X245Y429D02*
X239D01*
X233Y427D01*
X228Y422D01*
X226Y417D01*
Y410D01*
X228Y404D01*
X233Y400D01*
X239Y397D01*
X245D01*
X251Y400D01*
X256Y404D01*
X258Y410D01*
Y417D01*
X256Y422D01*
X251Y427D01*
X245Y429D01*
D02*
G37*
G36*
X302Y429D02*
X295D01*
X289Y427D01*
X285Y422D01*
X282Y416D01*
Y410D01*
X285Y404D01*
X289Y400D01*
X295Y397D01*
X302D01*
X307Y400D01*
X312Y404D01*
X314Y410D01*
Y416D01*
X312Y422D01*
X307Y427D01*
X302Y429D01*
D02*
G37*
G36*
X412Y429D02*
X406D01*
X400Y427D01*
X395Y422D01*
X393Y416D01*
Y410D01*
X395Y404D01*
X400Y400D01*
X406Y397D01*
X412D01*
X418Y400D01*
X423Y404D01*
X425Y410D01*
Y416D01*
X423Y422D01*
X418Y427D01*
X412Y429D01*
D02*
G37*
G36*
X136Y428D02*
X130D01*
X124Y426D01*
X120Y421D01*
X117Y415D01*
Y409D01*
X120Y403D01*
X124Y399D01*
X130Y396D01*
X136D01*
X142Y399D01*
X147Y403D01*
X149Y409D01*
Y415D01*
X147Y421D01*
X142Y426D01*
X136Y428D01*
D02*
G37*
G36*
X98Y415D02*
X91D01*
X85Y412D01*
X81Y408D01*
X78Y402D01*
Y396D01*
X81Y390D01*
X85Y385D01*
X91Y383D01*
X98D01*
X104Y385D01*
X108Y390D01*
X110Y396D01*
Y402D01*
X108Y408D01*
X104Y412D01*
X98Y415D01*
D02*
G37*
G36*
X2160Y410D02*
X2154D01*
X2148Y408D01*
X2143Y403D01*
X2141Y397D01*
Y391D01*
X2143Y385D01*
X2148Y380D01*
X2154Y378D01*
X2160D01*
X2166Y380D01*
X2171Y385D01*
X2173Y391D01*
Y397D01*
X2171Y403D01*
X2166Y408D01*
X2160Y410D01*
D02*
G37*
G36*
X3061Y377D02*
X3054D01*
X3048Y374D01*
X3044Y370D01*
X3041Y364D01*
Y357D01*
X3044Y351D01*
X3048Y347D01*
X3054Y345D01*
X3061D01*
X3066Y347D01*
X3071Y351D01*
X3073Y357D01*
Y364D01*
X3071Y370D01*
X3066Y374D01*
X3061Y377D01*
D02*
G37*
G36*
X2985Y376D02*
X2979D01*
X2973Y374D01*
X2968Y369D01*
X2966Y363D01*
Y357D01*
X2968Y351D01*
X2973Y346D01*
X2979Y344D01*
X2985D01*
X2991Y346D01*
X2995Y351D01*
X2998Y357D01*
Y363D01*
X2995Y369D01*
X2991Y374D01*
X2985Y376D01*
D02*
G37*
G36*
X3145Y353D02*
X3138D01*
X3132Y350D01*
X3128Y346D01*
X3126Y342D01*
X3121D01*
X3120Y344D01*
X3116Y348D01*
X3110Y351D01*
X3103D01*
X3098Y348D01*
X3093Y344D01*
X3091Y338D01*
Y332D01*
X3093Y326D01*
X3098Y321D01*
X3103Y319D01*
X3110D01*
X3116Y321D01*
X3120Y326D01*
X3122Y330D01*
X3127D01*
X3128Y328D01*
X3132Y323D01*
X3138Y321D01*
X3145D01*
X3151Y323D01*
X3155Y328D01*
X3158Y334D01*
Y340D01*
X3155Y346D01*
X3151Y350D01*
X3145Y353D01*
D02*
G37*
G36*
X2936Y350D02*
X2929D01*
X2923Y348D01*
X2919Y343D01*
X2916Y338D01*
Y331D01*
X2919Y325D01*
X2923Y321D01*
X2929Y318D01*
X2936D01*
X2941Y321D01*
X2946Y325D01*
X2948Y331D01*
Y338D01*
X2946Y343D01*
X2941Y348D01*
X2936Y350D01*
D02*
G37*
G36*
X1259Y344D02*
X1253D01*
X1247Y342D01*
X1242Y337D01*
X1240Y332D01*
Y325D01*
X1242Y319D01*
X1247Y315D01*
X1253Y312D01*
X1259D01*
X1265Y315D01*
X1269Y319D01*
X1272Y325D01*
Y332D01*
X1269Y337D01*
X1265Y342D01*
X1259Y344D01*
D02*
G37*
G36*
X262Y303D02*
X256D01*
X250Y301D01*
X245Y296D01*
X243Y290D01*
Y284D01*
X245Y278D01*
X250Y274D01*
X256Y271D01*
X262D01*
X268Y274D01*
X272Y278D01*
X275Y284D01*
Y290D01*
X272Y296D01*
X268Y301D01*
X262Y303D01*
D02*
G37*
G36*
X134Y303D02*
X127D01*
X121Y301D01*
X117Y296D01*
X114Y290D01*
Y284D01*
X117Y278D01*
X121Y273D01*
X127Y271D01*
X134D01*
X140Y273D01*
X144Y278D01*
X146Y284D01*
Y290D01*
X144Y296D01*
X140Y301D01*
X134Y303D01*
D02*
G37*
G36*
X2868Y266D02*
X2862D01*
X2856Y264D01*
X2851Y259D01*
X2849Y253D01*
Y247D01*
X2851Y241D01*
X2856Y236D01*
X2862Y234D01*
X2868D01*
X2874Y236D01*
X2879Y241D01*
X2881Y247D01*
Y253D01*
X2879Y259D01*
X2874Y264D01*
X2868Y266D01*
D02*
G37*
G36*
X584Y260D02*
X577D01*
X571Y257D01*
X567Y253D01*
X565Y247D01*
Y241D01*
X567Y235D01*
X571Y230D01*
X577Y228D01*
X584D01*
X590Y230D01*
X594Y235D01*
X597Y241D01*
Y247D01*
X594Y253D01*
X590Y257D01*
X584Y260D01*
D02*
G37*
G36*
X483Y226D02*
X477D01*
X471Y224D01*
X466Y219D01*
X464Y213D01*
Y207D01*
X466Y201D01*
X471Y196D01*
X477Y194D01*
X483D01*
X489Y196D01*
X494Y201D01*
X496Y207D01*
Y213D01*
X494Y219D01*
X489Y224D01*
X483Y226D01*
D02*
G37*
G36*
X2846Y360D02*
X2843Y359D01*
X2840Y359D01*
X2840Y359D01*
X2840Y359D01*
X2837Y357D01*
X2835Y356D01*
X2835Y356D01*
X2835Y356D01*
X2834Y356D01*
X2831D01*
X2826Y353D01*
X2821Y349D01*
X2819Y343D01*
Y336D01*
X2821Y331D01*
X2826Y326D01*
X2831Y324D01*
X2832D01*
X2832Y323D01*
X2833Y322D01*
X2834Y322D01*
X2834Y322D01*
X2835Y321D01*
X2836Y320D01*
X2836Y320D01*
X2838Y319D01*
X2839Y319D01*
X2839Y319D01*
X2840Y318D01*
X2841Y318D01*
X2842Y318D01*
X2844Y318D01*
X2845Y318D01*
X2849Y318D01*
X2978Y189D01*
X2977Y184D01*
X2972Y182D01*
X2968Y177D01*
X2965Y171D01*
Y165D01*
X2968Y159D01*
X2972Y155D01*
X2978Y152D01*
X2985D01*
X2991Y155D01*
X2995Y159D01*
X2997Y164D01*
X3002Y165D01*
X3012Y155D01*
X3017Y152D01*
X3023Y150D01*
X3114D01*
X3114Y150D01*
X3114Y150D01*
X3114Y150D01*
X3116Y148D01*
X3119Y147D01*
X3119Y147D01*
X3119Y147D01*
X3122Y146D01*
X3125Y145D01*
X3125Y145D01*
X3125Y145D01*
X3125Y145D01*
X3128Y144D01*
X3128Y144D01*
X3128Y144D01*
X3131Y143D01*
X3133Y143D01*
X3134Y143D01*
X3134Y143D01*
X3137Y143D01*
X3139Y144D01*
X3140Y144D01*
X3140Y144D01*
X3142Y146D01*
X3144Y147D01*
X3144Y148D01*
X3145Y148D01*
X3146Y150D01*
X3147Y151D01*
X3150Y152D01*
X3155Y157D01*
X3157Y163D01*
Y169D01*
X3155Y175D01*
X3150Y179D01*
X3147Y181D01*
X3146Y182D01*
X3145Y184D01*
X3144Y184D01*
X3144Y184D01*
X3142Y186D01*
X3140Y187D01*
X3140Y187D01*
X3139Y188D01*
X3137Y188D01*
X3134Y189D01*
X3134Y189D01*
X3133Y189D01*
X3131Y188D01*
X3128Y188D01*
X3128Y188D01*
X3128Y188D01*
X3125Y186D01*
X3125Y186D01*
X3125Y186D01*
X3125Y186D01*
X3122Y185D01*
X3119Y185D01*
X3119Y185D01*
X3119Y185D01*
X3116Y183D01*
X3114Y182D01*
X3114Y181D01*
X3114Y181D01*
X3114Y181D01*
X3030D01*
X3024Y187D01*
X3025Y192D01*
X3029Y194D01*
X3033Y198D01*
X3036Y204D01*
Y210D01*
X3033Y216D01*
X3029Y221D01*
X3023Y223D01*
X3016D01*
X3010Y221D01*
X3006Y216D01*
X3005Y213D01*
X2999Y212D01*
X2865Y345D01*
X2865Y346D01*
X2865Y349D01*
X2865Y349D01*
X2865Y349D01*
X2863Y352D01*
X2861Y354D01*
X2861Y354D01*
X2861Y354D01*
X2859Y356D01*
X2857Y358D01*
X2856Y358D01*
X2856Y358D01*
X2853Y358D01*
X2851Y359D01*
X2848Y359D01*
X2848Y359D01*
X2848Y359D01*
X2848Y359D01*
X2848Y359D01*
X2846Y360D01*
X2846Y360D01*
X2846Y360D01*
D02*
G37*
G36*
X3151Y125D02*
X3139D01*
X3128Y121D01*
X3118Y116D01*
X3109Y107D01*
X3104Y97D01*
X3100Y86D01*
Y74D01*
X3104Y63D01*
X3109Y53D01*
X3118Y44D01*
X3128Y39D01*
X3139Y35D01*
X3151D01*
X3162Y39D01*
X3172Y44D01*
X3181Y53D01*
X3186Y63D01*
X3190Y74D01*
Y86D01*
X3186Y97D01*
X3181Y107D01*
X3172Y116D01*
X3162Y121D01*
X3151Y125D01*
D02*
G37*
G36*
X3051D02*
X3039D01*
X3028Y121D01*
X3018Y116D01*
X3009Y107D01*
X3004Y97D01*
X3000Y86D01*
Y74D01*
X3004Y63D01*
X3009Y53D01*
X3018Y44D01*
X3028Y39D01*
X3039Y35D01*
X3051D01*
X3062Y39D01*
X3072Y44D01*
X3081Y53D01*
X3086Y63D01*
X3090Y74D01*
Y86D01*
X3086Y97D01*
X3081Y107D01*
X3072Y116D01*
X3062Y121D01*
X3051Y125D01*
D02*
G37*
G36*
X2951D02*
X2939D01*
X2928Y121D01*
X2918Y116D01*
X2909Y107D01*
X2904Y97D01*
X2900Y86D01*
Y74D01*
X2904Y63D01*
X2909Y53D01*
X2918Y44D01*
X2928Y39D01*
X2939Y35D01*
X2951D01*
X2962Y39D01*
X2972Y44D01*
X2981Y53D01*
X2986Y63D01*
X2990Y74D01*
Y86D01*
X2986Y97D01*
X2981Y107D01*
X2972Y116D01*
X2962Y121D01*
X2951Y125D01*
D02*
G37*
G36*
X2851D02*
X2839D01*
X2828Y121D01*
X2818Y116D01*
X2809Y107D01*
X2804Y97D01*
X2800Y86D01*
Y74D01*
X2804Y63D01*
X2809Y53D01*
X2818Y44D01*
X2828Y39D01*
X2839Y35D01*
X2851D01*
X2862Y39D01*
X2872Y44D01*
X2881Y53D01*
X2886Y63D01*
X2890Y74D01*
Y86D01*
X2886Y97D01*
X2881Y107D01*
X2872Y116D01*
X2862Y121D01*
X2851Y125D01*
D02*
G37*
G36*
X2451D02*
X2439D01*
X2428Y121D01*
X2418Y116D01*
X2409Y107D01*
X2404Y97D01*
X2400Y86D01*
Y74D01*
X2404Y63D01*
X2409Y53D01*
X2418Y44D01*
X2428Y39D01*
X2439Y35D01*
X2451D01*
X2462Y39D01*
X2472Y44D01*
X2481Y53D01*
X2486Y63D01*
X2490Y74D01*
Y86D01*
X2486Y97D01*
X2481Y107D01*
X2472Y116D01*
X2462Y121D01*
X2451Y125D01*
D02*
G37*
G36*
X2351D02*
X2339D01*
X2328Y121D01*
X2318Y116D01*
X2309Y107D01*
X2304Y97D01*
X2300Y86D01*
Y74D01*
X2304Y63D01*
X2309Y53D01*
X2318Y44D01*
X2328Y39D01*
X2339Y35D01*
X2351D01*
X2362Y39D01*
X2372Y44D01*
X2381Y53D01*
X2386Y63D01*
X2390Y74D01*
Y86D01*
X2386Y97D01*
X2381Y107D01*
X2372Y116D01*
X2362Y121D01*
X2351Y125D01*
D02*
G37*
G36*
X2251D02*
X2239D01*
X2228Y121D01*
X2218Y116D01*
X2209Y107D01*
X2204Y97D01*
X2200Y86D01*
Y74D01*
X2204Y63D01*
X2209Y53D01*
X2218Y44D01*
X2228Y39D01*
X2239Y35D01*
X2251D01*
X2262Y39D01*
X2272Y44D01*
X2281Y53D01*
X2286Y63D01*
X2290Y74D01*
Y86D01*
X2286Y97D01*
X2281Y107D01*
X2272Y116D01*
X2262Y121D01*
X2251Y125D01*
D02*
G37*
G36*
X2151D02*
X2139D01*
X2128Y121D01*
X2118Y116D01*
X2109Y107D01*
X2104Y97D01*
X2100Y86D01*
Y74D01*
X2104Y63D01*
X2109Y53D01*
X2118Y44D01*
X2128Y39D01*
X2139Y35D01*
X2151D01*
X2162Y39D01*
X2172Y44D01*
X2181Y53D01*
X2186Y63D01*
X2190Y74D01*
Y86D01*
X2186Y97D01*
X2181Y107D01*
X2172Y116D01*
X2162Y121D01*
X2151Y125D01*
D02*
G37*
G36*
X2051D02*
X2039D01*
X2028Y121D01*
X2018Y116D01*
X2009Y107D01*
X2004Y97D01*
X2000Y86D01*
Y74D01*
X2004Y63D01*
X2009Y53D01*
X2018Y44D01*
X2028Y39D01*
X2039Y35D01*
X2051D01*
X2062Y39D01*
X2072Y44D01*
X2081Y53D01*
X2086Y63D01*
X2090Y74D01*
Y86D01*
X2086Y97D01*
X2081Y107D01*
X2072Y116D01*
X2062Y121D01*
X2051Y125D01*
D02*
G37*
G36*
X1951D02*
X1939D01*
X1928Y121D01*
X1918Y116D01*
X1909Y107D01*
X1904Y97D01*
X1900Y86D01*
Y74D01*
X1904Y63D01*
X1909Y53D01*
X1918Y44D01*
X1928Y39D01*
X1939Y35D01*
X1951D01*
X1962Y39D01*
X1972Y44D01*
X1981Y53D01*
X1986Y63D01*
X1990Y74D01*
Y86D01*
X1986Y97D01*
X1981Y107D01*
X1972Y116D01*
X1962Y121D01*
X1951Y125D01*
D02*
G37*
G36*
X1851D02*
X1839D01*
X1828Y121D01*
X1818Y116D01*
X1809Y107D01*
X1804Y97D01*
X1800Y86D01*
Y74D01*
X1804Y63D01*
X1809Y53D01*
X1818Y44D01*
X1828Y39D01*
X1839Y35D01*
X1851D01*
X1862Y39D01*
X1872Y44D01*
X1881Y53D01*
X1886Y63D01*
X1890Y74D01*
Y86D01*
X1886Y97D01*
X1881Y107D01*
X1872Y116D01*
X1862Y121D01*
X1851Y125D01*
D02*
G37*
G36*
X1751D02*
X1739D01*
X1728Y121D01*
X1718Y116D01*
X1709Y107D01*
X1704Y97D01*
X1700Y86D01*
Y74D01*
X1704Y63D01*
X1709Y53D01*
X1718Y44D01*
X1728Y39D01*
X1739Y35D01*
X1751D01*
X1762Y39D01*
X1772Y44D01*
X1781Y53D01*
X1786Y63D01*
X1790Y74D01*
Y86D01*
X1786Y97D01*
X1781Y107D01*
X1772Y116D01*
X1762Y121D01*
X1751Y125D01*
D02*
G37*
G36*
X1651D02*
X1639D01*
X1628Y121D01*
X1618Y116D01*
X1609Y107D01*
X1604Y97D01*
X1600Y86D01*
Y74D01*
X1604Y63D01*
X1609Y53D01*
X1618Y44D01*
X1628Y39D01*
X1639Y35D01*
X1651D01*
X1662Y39D01*
X1672Y44D01*
X1681Y53D01*
X1686Y63D01*
X1690Y74D01*
Y86D01*
X1686Y97D01*
X1681Y107D01*
X1672Y116D01*
X1662Y121D01*
X1651Y125D01*
D02*
G37*
G36*
X1551D02*
X1539D01*
X1528Y121D01*
X1518Y116D01*
X1509Y107D01*
X1504Y97D01*
X1500Y86D01*
Y74D01*
X1504Y63D01*
X1509Y53D01*
X1518Y44D01*
X1528Y39D01*
X1539Y35D01*
X1551D01*
X1562Y39D01*
X1572Y44D01*
X1581Y53D01*
X1586Y63D01*
X1590Y74D01*
Y86D01*
X1586Y97D01*
X1581Y107D01*
X1572Y116D01*
X1562Y121D01*
X1551Y125D01*
D02*
G37*
G36*
X1451D02*
X1439D01*
X1428Y121D01*
X1418Y116D01*
X1409Y107D01*
X1404Y97D01*
X1400Y86D01*
Y74D01*
X1404Y63D01*
X1409Y53D01*
X1418Y44D01*
X1428Y39D01*
X1439Y35D01*
X1451D01*
X1462Y39D01*
X1472Y44D01*
X1481Y53D01*
X1486Y63D01*
X1490Y74D01*
Y86D01*
X1486Y97D01*
X1481Y107D01*
X1472Y116D01*
X1462Y121D01*
X1451Y125D01*
D02*
G37*
G36*
X1351D02*
X1339D01*
X1328Y121D01*
X1318Y116D01*
X1309Y107D01*
X1304Y97D01*
X1300Y86D01*
Y74D01*
X1304Y63D01*
X1309Y53D01*
X1318Y44D01*
X1328Y39D01*
X1339Y35D01*
X1351D01*
X1362Y39D01*
X1372Y44D01*
X1381Y53D01*
X1386Y63D01*
X1390Y74D01*
Y86D01*
X1386Y97D01*
X1381Y107D01*
X1372Y116D01*
X1362Y121D01*
X1351Y125D01*
D02*
G37*
G36*
X1251D02*
X1239D01*
X1228Y121D01*
X1218Y116D01*
X1209Y107D01*
X1204Y97D01*
X1200Y86D01*
Y74D01*
X1204Y63D01*
X1209Y53D01*
X1218Y44D01*
X1228Y39D01*
X1239Y35D01*
X1251D01*
X1262Y39D01*
X1272Y44D01*
X1281Y53D01*
X1286Y63D01*
X1290Y74D01*
Y86D01*
X1286Y97D01*
X1281Y107D01*
X1272Y116D01*
X1262Y121D01*
X1251Y125D01*
D02*
G37*
G36*
X1151D02*
X1139D01*
X1128Y121D01*
X1118Y116D01*
X1109Y107D01*
X1104Y97D01*
X1100Y86D01*
Y74D01*
X1104Y63D01*
X1109Y53D01*
X1118Y44D01*
X1128Y39D01*
X1139Y35D01*
X1151D01*
X1162Y39D01*
X1172Y44D01*
X1181Y53D01*
X1186Y63D01*
X1190Y74D01*
Y86D01*
X1186Y97D01*
X1181Y107D01*
X1172Y116D01*
X1162Y121D01*
X1151Y125D01*
D02*
G37*
G36*
X1051D02*
X1039D01*
X1028Y121D01*
X1018Y116D01*
X1009Y107D01*
X1004Y97D01*
X1000Y86D01*
Y74D01*
X1004Y63D01*
X1009Y53D01*
X1018Y44D01*
X1028Y39D01*
X1039Y35D01*
X1051D01*
X1062Y39D01*
X1072Y44D01*
X1081Y53D01*
X1086Y63D01*
X1090Y74D01*
Y86D01*
X1086Y97D01*
X1081Y107D01*
X1072Y116D01*
X1062Y121D01*
X1051Y125D01*
D02*
G37*
G36*
X943Y156D02*
X937D01*
X931Y154D01*
X926Y149D01*
X924Y143D01*
Y137D01*
X926Y131D01*
X930Y127D01*
X930Y124D01*
X929Y122D01*
X928Y121D01*
X918Y116D01*
X909Y107D01*
X904Y97D01*
X900Y86D01*
Y74D01*
X904Y63D01*
X909Y53D01*
X918Y44D01*
X928Y39D01*
X939Y35D01*
X951D01*
X962Y39D01*
X972Y44D01*
X981Y53D01*
X986Y63D01*
X990Y74D01*
Y86D01*
X986Y97D01*
X981Y107D01*
X972Y116D01*
X962Y121D01*
X954Y124D01*
X952Y129D01*
X954Y131D01*
X956Y137D01*
Y143D01*
X954Y149D01*
X949Y154D01*
X943Y156D01*
D02*
G37*
G36*
X851Y125D02*
X839D01*
X828Y121D01*
X818Y116D01*
X809Y107D01*
X804Y97D01*
X800Y86D01*
Y74D01*
X804Y63D01*
X809Y53D01*
X818Y44D01*
X828Y39D01*
X839Y35D01*
X851D01*
X862Y39D01*
X872Y44D01*
X881Y53D01*
X886Y63D01*
X890Y74D01*
Y86D01*
X886Y97D01*
X881Y107D01*
X872Y116D01*
X862Y121D01*
X851Y125D01*
D02*
G37*
G36*
X751D02*
X739D01*
X728Y121D01*
X718Y116D01*
X709Y107D01*
X704Y97D01*
X700Y86D01*
Y74D01*
X704Y63D01*
X709Y53D01*
X718Y44D01*
X728Y39D01*
X739Y35D01*
X751D01*
X762Y39D01*
X772Y44D01*
X781Y53D01*
X786Y63D01*
X790Y74D01*
Y86D01*
X786Y97D01*
X781Y107D01*
X772Y116D01*
X762Y121D01*
X751Y125D01*
D02*
G37*
G36*
X651D02*
X639D01*
X628Y121D01*
X618Y116D01*
X609Y107D01*
X604Y97D01*
X600Y86D01*
Y74D01*
X604Y63D01*
X609Y53D01*
X618Y44D01*
X628Y39D01*
X639Y35D01*
X651D01*
X662Y39D01*
X672Y44D01*
X681Y53D01*
X686Y63D01*
X690Y74D01*
Y86D01*
X686Y97D01*
X681Y107D01*
X672Y116D01*
X662Y121D01*
X651Y125D01*
D02*
G37*
G36*
X551D02*
X539D01*
X528Y121D01*
X518Y116D01*
X509Y107D01*
X504Y97D01*
X500Y86D01*
Y74D01*
X504Y63D01*
X509Y53D01*
X518Y44D01*
X528Y39D01*
X539Y35D01*
X551D01*
X562Y39D01*
X572Y44D01*
X581Y53D01*
X586Y63D01*
X590Y74D01*
Y86D01*
X586Y97D01*
X581Y107D01*
X572Y116D01*
X562Y121D01*
X551Y125D01*
D02*
G37*
G36*
X451D02*
X439D01*
X428Y121D01*
X418Y116D01*
X409Y107D01*
X404Y97D01*
X400Y86D01*
Y74D01*
X404Y63D01*
X409Y53D01*
X418Y44D01*
X428Y39D01*
X439Y35D01*
X451D01*
X462Y39D01*
X472Y44D01*
X481Y53D01*
X486Y63D01*
X490Y74D01*
Y86D01*
X486Y97D01*
X481Y107D01*
X472Y116D01*
X462Y121D01*
X451Y125D01*
D02*
G37*
G36*
X351D02*
X339D01*
X328Y121D01*
X318Y116D01*
X309Y107D01*
X304Y97D01*
X300Y86D01*
Y74D01*
X304Y63D01*
X309Y53D01*
X318Y44D01*
X328Y39D01*
X339Y35D01*
X351D01*
X362Y39D01*
X372Y44D01*
X381Y53D01*
X386Y63D01*
X390Y74D01*
Y86D01*
X386Y97D01*
X381Y107D01*
X372Y116D01*
X362Y121D01*
X351Y125D01*
D02*
G37*
G36*
X251D02*
X239D01*
X228Y121D01*
X218Y116D01*
X209Y107D01*
X204Y97D01*
X200Y86D01*
Y74D01*
X204Y63D01*
X209Y53D01*
X218Y44D01*
X228Y39D01*
X239Y35D01*
X251D01*
X262Y39D01*
X272Y44D01*
X281Y53D01*
X286Y63D01*
X290Y74D01*
Y86D01*
X286Y97D01*
X281Y107D01*
X272Y116D01*
X262Y121D01*
X251Y125D01*
D02*
G37*
G36*
X151D02*
X139D01*
X128Y121D01*
X118Y116D01*
X109Y107D01*
X104Y97D01*
X100Y86D01*
Y74D01*
X104Y63D01*
X109Y53D01*
X118Y44D01*
X128Y39D01*
X139Y35D01*
X151D01*
X162Y39D01*
X172Y44D01*
X181Y53D01*
X186Y63D01*
X190Y74D01*
Y86D01*
X186Y97D01*
X181Y107D01*
X172Y116D01*
X162Y121D01*
X151Y125D01*
D02*
G37*
%LPD*%
G36*
X1850Y950D02*
X1846Y950D01*
X1838Y950D01*
X1835Y949D01*
X1832Y948D01*
X1829Y948D01*
X1827Y947D01*
X1825Y946D01*
X1823Y944D01*
X1821Y943D01*
X1814Y950D01*
X1815Y951D01*
X1816Y953D01*
X1818Y956D01*
X1818Y958D01*
X1819Y961D01*
X1820Y964D01*
X1820Y967D01*
X1820Y971D01*
X1820Y979D01*
X1850Y950D01*
D02*
G37*
G36*
X1795Y917D02*
X1794Y916D01*
X1793Y915D01*
X1793Y914D01*
X1792Y914D01*
X1792Y913D01*
X1791Y912D01*
X1791Y911D01*
X1791Y910D01*
X1791Y910D01*
X1791Y909D01*
X1779Y919D01*
X1780Y919D01*
X1781Y919D01*
X1782Y919D01*
X1782Y920D01*
X1783Y920D01*
X1784Y921D01*
X1785Y921D01*
X1786Y922D01*
X1787Y923D01*
X1795Y917D01*
D02*
G37*
G36*
X1951Y951D02*
X1947Y950D01*
X1939Y949D01*
X1936Y949D01*
X1933Y948D01*
X1930Y947D01*
X1928Y946D01*
X1925Y945D01*
X1923Y944D01*
X1922Y942D01*
X1914Y949D01*
X1916Y951D01*
X1917Y953D01*
X1918Y955D01*
X1919Y957D01*
X1920Y960D01*
X1920Y963D01*
X1921Y966D01*
X1921Y970D01*
X1921Y978D01*
X1951Y951D01*
D02*
G37*
G36*
X1894Y915D02*
X1894Y914D01*
X1893Y913D01*
X1892Y912D01*
X1892Y912D01*
X1891Y911D01*
X1891Y910D01*
X1891Y909D01*
X1891Y908D01*
X1891Y908D01*
X1891Y907D01*
X1878Y916D01*
X1879Y916D01*
X1880Y916D01*
X1880Y917D01*
X1881Y917D01*
X1882Y917D01*
X1883Y918D01*
X1884Y918D01*
X1885Y920D01*
X1886Y921D01*
X1894Y915D01*
D02*
G37*
G36*
X1880Y894D02*
X1879Y894D01*
X1878Y894D01*
X1878Y894D01*
X1877Y893D01*
X1876Y893D01*
X1875Y893D01*
X1874Y892D01*
X1874Y891D01*
X1873Y891D01*
X1872Y890D01*
X1865Y897D01*
X1866Y898D01*
X1867Y899D01*
X1868Y900D01*
X1868Y901D01*
X1868Y902D01*
X1869Y903D01*
X1869Y903D01*
X1869Y904D01*
X1869Y905D01*
X1880Y894D01*
D02*
G37*
G36*
X1627Y818D02*
X1627Y818D01*
X1627Y817D01*
X1627Y816D01*
X1628Y815D01*
X1628Y815D01*
X1629Y814D01*
X1629Y813D01*
X1630Y812D01*
X1631Y811D01*
X1624Y804D01*
X1623Y805D01*
X1621Y806D01*
X1620Y807D01*
X1620Y807D01*
X1619Y808D01*
X1618Y808D01*
X1617Y808D01*
X1617Y808D01*
X1616Y808D01*
X1627Y819D01*
X1627Y818D01*
D02*
G37*
G36*
X2050Y950D02*
X2045Y950D01*
X2038Y950D01*
X2034Y949D01*
X2031Y949D01*
X2029Y948D01*
X2026Y947D01*
X2024Y946D01*
X2022Y945D01*
X2020Y943D01*
X2013Y950D01*
X2015Y952D01*
X2016Y954D01*
X2017Y956D01*
X2018Y959D01*
X2019Y961D01*
X2019Y964D01*
X2020Y968D01*
X2020Y975D01*
X2020Y980D01*
X2050Y950D01*
D02*
G37*
G36*
X2168Y956D02*
X2163Y950D01*
X2161Y947D01*
X2159Y945D01*
X2158Y942D01*
X2156Y940D01*
X2156Y938D01*
X2155Y935D01*
X2155Y933D01*
X2145D01*
X2145Y935D01*
X2144Y938D01*
X2144Y940D01*
X2142Y942D01*
X2141Y945D01*
X2139Y947D01*
X2137Y950D01*
X2132Y956D01*
X2129Y959D01*
X2171D01*
X2168Y956D01*
D02*
G37*
G36*
X1975Y898D02*
X1974Y897D01*
X1973Y896D01*
X1972Y895D01*
X1972Y894D01*
X1972Y893D01*
X1971Y892D01*
X1971Y892D01*
X1971Y891D01*
X1971Y890D01*
X1960Y901D01*
X1961Y901D01*
X1962Y901D01*
X1962Y901D01*
X1963Y902D01*
X1964Y902D01*
X1965Y902D01*
X1966Y903D01*
X1966Y904D01*
X1967Y904D01*
X1968Y905D01*
X1975Y898D01*
D02*
G37*
G36*
X2143Y898D02*
X2142Y897D01*
X2141Y895D01*
X2141Y895D01*
X2140Y894D01*
X2140Y893D01*
X2139Y892D01*
X2139Y892D01*
X2139Y891D01*
X2139Y890D01*
X2128Y901D01*
X2129Y901D01*
X2130Y901D01*
X2131Y901D01*
X2131Y902D01*
X2132Y902D01*
X2133Y902D01*
X2134Y903D01*
X2135Y904D01*
X2135Y904D01*
X2136Y905D01*
X2143Y898D01*
D02*
G37*
G36*
X1971Y889D02*
X1971Y888D01*
X1971Y888D01*
X1972Y887D01*
X1972Y886D01*
X1972Y885D01*
X1973Y884D01*
X1974Y884D01*
X1974Y883D01*
X1975Y882D01*
X1968Y875D01*
X1967Y876D01*
X1966Y877D01*
X1965Y878D01*
X1964Y878D01*
X1963Y878D01*
X1962Y879D01*
X1962Y879D01*
X1961Y879D01*
X1960Y879D01*
X1971Y890D01*
X1971Y889D01*
D02*
G37*
G36*
X2127Y852D02*
X2127Y853D01*
X2126Y853D01*
X2125Y854D01*
X2125Y854D01*
X2124Y854D01*
X2123Y855D01*
X2122Y855D01*
X2121Y855D01*
X2120Y855D01*
X2119Y855D01*
Y865D01*
X2120Y865D01*
X2122Y865D01*
X2123Y865D01*
X2124Y866D01*
X2125Y866D01*
X2125Y866D01*
X2126Y867D01*
X2127Y867D01*
X2127Y868D01*
Y852D01*
D02*
G37*
G36*
X2033Y867D02*
X2034Y867D01*
X2035Y866D01*
X2035Y866D01*
X2036Y866D01*
X2037Y865D01*
X2038Y865D01*
X2039Y865D01*
X2040Y865D01*
X2041Y865D01*
Y855D01*
X2040Y855D01*
X2038Y855D01*
X2037Y855D01*
X2036Y854D01*
X2035Y854D01*
X2035Y854D01*
X2034Y853D01*
X2033Y853D01*
X2033Y852D01*
Y868D01*
X2033Y867D01*
D02*
G37*
G36*
X2289Y823D02*
X2288Y823D01*
X2287Y824D01*
X2287Y824D01*
X2286Y824D01*
X2285Y825D01*
X2284Y825D01*
X2283Y825D01*
X2282Y825D01*
X2281Y825D01*
X2280Y825D01*
Y835D01*
X2281Y835D01*
X2283Y836D01*
X2284Y836D01*
X2285Y836D01*
X2286Y836D01*
X2287Y837D01*
X2287Y837D01*
X2288Y838D01*
X2289Y838D01*
Y823D01*
D02*
G37*
G36*
X1750Y950D02*
X1745Y950D01*
X1738Y950D01*
X1734Y949D01*
X1731Y949D01*
X1729Y948D01*
X1726Y947D01*
X1724Y946D01*
X1722Y945D01*
X1720Y943D01*
X1713Y950D01*
X1715Y952D01*
X1716Y954D01*
X1717Y956D01*
X1718Y959D01*
X1719Y961D01*
X1719Y964D01*
X1720Y968D01*
X1720Y975D01*
X1720Y980D01*
X1750Y950D01*
D02*
G37*
G36*
X1650D02*
X1645Y950D01*
X1638Y950D01*
X1634Y949D01*
X1631Y949D01*
X1629Y948D01*
X1626Y947D01*
X1624Y946D01*
X1622Y945D01*
X1620Y943D01*
X1613Y950D01*
X1615Y952D01*
X1616Y954D01*
X1617Y956D01*
X1618Y959D01*
X1619Y961D01*
X1619Y964D01*
X1620Y968D01*
X1620Y975D01*
X1620Y980D01*
X1650Y950D01*
D02*
G37*
G36*
X1503Y932D02*
X1504Y932D01*
X1505Y931D01*
X1505Y931D01*
X1506Y931D01*
X1507Y930D01*
X1508Y930D01*
X1509Y930D01*
X1510Y930D01*
X1511Y930D01*
Y920D01*
X1510Y920D01*
X1508Y920D01*
X1507Y920D01*
X1506Y919D01*
X1505Y919D01*
X1505Y919D01*
X1504Y918D01*
X1503Y918D01*
X1503Y917D01*
Y933D01*
X1503Y932D01*
D02*
G37*
G36*
X1257Y907D02*
X1258Y907D01*
X1259Y906D01*
X1259Y906D01*
X1260Y906D01*
X1261Y905D01*
X1262Y905D01*
X1263Y905D01*
X1264Y905D01*
X1265Y905D01*
Y895D01*
X1264Y895D01*
X1262Y895D01*
X1261Y895D01*
X1260Y894D01*
X1259Y894D01*
X1259Y894D01*
X1258Y893D01*
X1257Y893D01*
X1257Y892D01*
Y908D01*
X1257Y907D01*
D02*
G37*
G36*
X2380Y975D02*
X2380Y968D01*
X2381Y964D01*
X2381Y961D01*
X2382Y959D01*
X2383Y956D01*
X2384Y954D01*
X2385Y952D01*
X2387Y950D01*
X2380Y943D01*
X2378Y945D01*
X2376Y946D01*
X2374Y947D01*
X2371Y948D01*
X2369Y949D01*
X2366Y949D01*
X2362Y950D01*
X2355Y950D01*
X2350Y950D01*
X2380Y980D01*
X2380Y975D01*
D02*
G37*
G36*
X2430Y907D02*
X2431Y906D01*
X2432Y905D01*
X2433Y905D01*
X2434Y905D01*
X2435Y904D01*
X2435Y904D01*
X2436Y904D01*
X2437Y904D01*
X2426Y893D01*
X2426Y894D01*
X2426Y895D01*
X2426Y895D01*
X2425Y896D01*
X2425Y897D01*
X2425Y898D01*
X2424Y899D01*
X2423Y899D01*
X2423Y900D01*
X2422Y901D01*
X2429Y908D01*
X2430Y907D01*
D02*
G37*
G36*
X2280Y975D02*
X2280Y968D01*
X2281Y964D01*
X2281Y961D01*
X2282Y959D01*
X2283Y956D01*
X2284Y954D01*
X2285Y952D01*
X2287Y950D01*
X2280Y943D01*
X2278Y945D01*
X2276Y946D01*
X2274Y947D01*
X2271Y948D01*
X2269Y949D01*
X2266Y949D01*
X2262Y950D01*
X2255Y950D01*
X2250Y950D01*
X2280Y980D01*
X2280Y975D01*
D02*
G37*
G36*
X2817Y850D02*
X2809Y837D01*
X2809Y837D01*
X2809Y838D01*
X2808Y838D01*
X2808Y839D01*
X2807Y839D01*
X2806Y839D01*
X2806Y840D01*
X2805Y840D01*
X2804Y840D01*
X2802Y840D01*
X2804Y850D01*
X2817Y850D01*
D02*
G37*
G36*
X2383Y854D02*
X2386Y851D01*
X2387Y851D01*
X2388Y850D01*
X2388Y850D01*
X2388Y850D01*
X2395Y850D01*
X2403Y840D01*
X2401Y840D01*
X2400Y840D01*
X2399Y840D01*
X2399Y839D01*
X2398Y839D01*
X2397Y839D01*
X2397Y838D01*
X2396Y838D01*
X2396Y837D01*
X2396Y837D01*
X2389Y850D01*
X2375Y843D01*
X2375Y844D01*
X2375Y845D01*
X2375Y846D01*
X2375Y846D01*
X2375Y847D01*
X2374Y848D01*
X2374Y849D01*
X2373Y849D01*
X2373Y850D01*
X2372Y851D01*
X2382Y855D01*
X2383Y854D01*
D02*
G37*
G36*
X2759Y591D02*
X2756Y585D01*
Y579D01*
X2759Y573D01*
X2763Y568D01*
X2769Y566D01*
X2775D01*
Y556D01*
X2770D01*
X2765Y554D01*
X2760Y549D01*
X2758Y543D01*
Y537D01*
X2760Y531D01*
X2765Y526D01*
X2770Y524D01*
X2775D01*
Y398D01*
X2770Y396D01*
X2767Y398D01*
X2761Y401D01*
X2755D01*
X2749Y398D01*
X2745Y394D01*
X2742Y388D01*
Y382D01*
X2745Y376D01*
X2749Y371D01*
X2755Y369D01*
X2757D01*
X2759Y364D01*
X2570Y175D01*
X2535D01*
X2534Y178D01*
X2529Y183D01*
X2523Y185D01*
X2517D01*
X2511Y183D01*
X2506Y178D01*
X2505Y175D01*
X2452D01*
X2451Y175D01*
X2248D01*
X2247Y176D01*
X2247Y176D01*
X2247Y176D01*
X2245Y177D01*
X2243Y179D01*
X2242Y179D01*
X2242Y179D01*
X2239Y180D01*
X2237Y180D01*
X2236Y180D01*
X2236Y180D01*
X2236Y180D01*
X2234Y182D01*
X2233Y182D01*
X2233Y182D01*
X2230Y182D01*
X2228Y183D01*
X2228Y183D01*
X2227Y183D01*
X2225Y182D01*
X2222Y182D01*
X2222Y182D01*
X2221Y182D01*
X2219Y180D01*
X2217Y179D01*
X2217Y178D01*
X2217Y178D01*
X2215Y176D01*
X2215Y175D01*
X2214Y175D01*
X2195D01*
X2178Y158D01*
X1630Y155D01*
X1626Y159D01*
Y161D01*
X1624Y166D01*
X1619Y171D01*
X1614Y173D01*
X1607D01*
X1601Y171D01*
X1597Y166D01*
X1594Y161D01*
Y155D01*
X1199Y153D01*
X739Y409D01*
X739Y409D01*
X741Y415D01*
Y422D01*
X739Y428D01*
X734Y432D01*
X728Y435D01*
X722D01*
X716Y432D01*
X712Y428D01*
X708Y426D01*
X460Y564D01*
Y630D01*
X526D01*
X794Y491D01*
X793Y486D01*
X792D01*
X786Y484D01*
X781Y479D01*
X779Y473D01*
Y467D01*
X781Y461D01*
X786Y456D01*
X792Y454D01*
X798D01*
X804Y456D01*
X809Y461D01*
X811Y467D01*
Y473D01*
X809Y477D01*
X813Y481D01*
X1084Y340D01*
X1169D01*
X1350Y215D01*
X1607D01*
X1739Y340D01*
X1841D01*
X1843Y335D01*
X1841Y333D01*
X1839Y327D01*
Y321D01*
X1841Y315D01*
X1846Y311D01*
X1852Y308D01*
X1858D01*
X1864Y311D01*
X1869Y315D01*
X1871Y321D01*
Y327D01*
X1869Y333D01*
X1867Y335D01*
X1869Y340D01*
X2090D01*
X2203Y227D01*
X2522D01*
X2650Y355D01*
Y570D01*
X2504Y690D01*
X2486D01*
X2485Y690D01*
X2450D01*
X2448Y693D01*
X2444Y698D01*
X2438Y700D01*
X2432D01*
X2426Y698D01*
X2421Y693D01*
X2420Y690D01*
X2162D01*
X2161Y692D01*
X2156Y696D01*
X2151Y699D01*
X2144D01*
X2138Y696D01*
X2134Y692D01*
X2133Y690D01*
X1925Y690D01*
X1925Y692D01*
X1920Y697D01*
X1914Y699D01*
X1908D01*
X1902Y697D01*
X1897Y692D01*
X1897Y690D01*
X1647D01*
Y692D01*
X1645Y698D01*
X1640Y703D01*
X1634Y705D01*
X1628D01*
X1622Y703D01*
X1617Y698D01*
X1615Y692D01*
Y690D01*
X1402D01*
X1401Y693D01*
X1396Y697D01*
X1390Y700D01*
X1384D01*
X1378Y697D01*
X1373Y693D01*
X1373Y690D01*
X1122Y690D01*
Y690D01*
X1119Y696D01*
X1115Y701D01*
X1109Y703D01*
X1103D01*
X1097Y701D01*
X1092Y696D01*
X1090Y690D01*
Y690D01*
X881D01*
X880Y690D01*
X879Y693D01*
X875Y697D01*
X869Y700D01*
X868D01*
Y720D01*
X874Y722D01*
X879Y727D01*
X880Y730D01*
X1372D01*
X1374Y726D01*
X1378Y722D01*
X1384Y720D01*
X1391D01*
X1397Y722D01*
X1401Y726D01*
X1403Y730D01*
X1896D01*
X1897Y726D01*
X1902Y722D01*
X1908Y719D01*
X1914D01*
X1920Y722D01*
X1924Y726D01*
X1926Y730D01*
X2420D01*
X2421Y727D01*
X2426Y723D01*
X2431Y720D01*
X2438D01*
X2444Y723D01*
X2448Y727D01*
X2449Y730D01*
X2603D01*
X2759Y591D01*
D02*
G37*
G36*
X2975Y672D02*
X2975Y673D01*
X2974Y673D01*
X2974Y673D01*
X2973Y674D01*
X2972Y674D01*
X2971Y674D01*
X2970Y675D01*
X2969Y675D01*
X2968Y675D01*
X2967Y675D01*
Y685D01*
X2968Y685D01*
X2970Y685D01*
X2971Y685D01*
X2972Y685D01*
X2973Y686D01*
X2974Y686D01*
X2974Y686D01*
X2975Y687D01*
X2975Y687D01*
Y672D01*
D02*
G37*
G36*
X551Y888D02*
X551Y886D01*
X556Y881D01*
X562Y879D01*
X564D01*
X709Y786D01*
Y781D01*
X711Y775D01*
X716Y770D01*
X722Y768D01*
X728D01*
X733Y770D01*
X852Y693D01*
X852Y693D01*
X850Y687D01*
Y680D01*
X852Y675D01*
X857Y670D01*
X862Y668D01*
X869D01*
X875Y670D01*
X879Y675D01*
X879Y675D01*
X881Y675D01*
X1095D01*
X1097Y674D01*
X1103Y671D01*
X1109D01*
X1115Y674D01*
X1116Y675D01*
X1373Y675D01*
X1373Y674D01*
X1378Y670D01*
X1384Y668D01*
X1390D01*
X1396Y670D01*
X1401Y674D01*
X1401Y675D01*
X1623D01*
X1628Y673D01*
X1634D01*
X1639Y675D01*
X1897D01*
X1897Y674D01*
X1902Y670D01*
X1908Y667D01*
X1914D01*
X1920Y670D01*
X1925Y674D01*
X1925Y675D01*
X2133Y675D01*
X2134Y674D01*
X2138Y669D01*
X2144Y667D01*
X2151D01*
X2156Y669D01*
X2161Y674D01*
X2161Y675D01*
X2421D01*
X2421Y675D01*
X2426Y670D01*
X2432Y668D01*
X2438D01*
X2444Y670D01*
X2448Y675D01*
X2449Y675D01*
X2485D01*
Y306D01*
X2340D01*
Y427D01*
X2252Y517D01*
X2255Y520D01*
X2258Y526D01*
Y533D01*
X2255Y538D01*
X2251Y543D01*
X2245Y545D01*
X2238D01*
X2233Y543D01*
X2232Y543D01*
X2227Y543D01*
X2184Y588D01*
X1956D01*
X1956Y589D01*
X1951Y594D01*
X1945Y596D01*
X1939D01*
X1933Y594D01*
X1928Y589D01*
X1928Y588D01*
X1737D01*
X1644Y495D01*
X1642Y498D01*
X1636Y500D01*
X1629D01*
X1623Y498D01*
X1619Y493D01*
X1617Y487D01*
Y481D01*
X1619Y475D01*
X1622Y472D01*
X1577Y427D01*
X1579Y310D01*
X1576Y306D01*
X1437D01*
Y427D01*
X1334Y516D01*
X1337Y520D01*
X1339Y519D01*
X1345D01*
X1351Y521D01*
X1356Y526D01*
X1358Y532D01*
Y538D01*
X1356Y544D01*
X1351Y549D01*
X1345Y551D01*
X1339D01*
X1333Y549D01*
X1328Y544D01*
X1326Y538D01*
Y532D01*
X1328Y527D01*
X1324Y524D01*
X1249Y588D01*
X1057Y588D01*
X1055Y593D01*
X1051Y598D01*
X1045Y600D01*
X1038D01*
X1032Y598D01*
X1028Y593D01*
X1026Y588D01*
X902D01*
X713Y703D01*
X712Y704D01*
X708Y709D01*
X702Y711D01*
X699D01*
X579Y785D01*
X579Y786D01*
X581Y792D01*
Y798D01*
X579Y804D01*
X574Y809D01*
X568Y811D01*
X562D01*
X556Y809D01*
X551Y804D01*
X548Y803D01*
X472Y850D01*
X472Y919D01*
X502D01*
X551Y888D01*
D02*
G37*
G36*
X2742Y321D02*
X2744Y320D01*
X2746Y315D01*
X2751Y310D01*
X2757Y308D01*
X2763D01*
X2769Y310D01*
X2773Y315D01*
X2774Y317D01*
X2779Y316D01*
Y209D01*
X2728Y158D01*
X2581D01*
X2579Y163D01*
X2581Y164D01*
X2739Y322D01*
X2742Y321D01*
D02*
G37*
G36*
X2228Y167D02*
X2229Y167D01*
X2230Y166D01*
X2230Y166D01*
X2231Y166D01*
X2232Y165D01*
X2233Y165D01*
X2234Y165D01*
X2235Y165D01*
X2236Y165D01*
Y155D01*
X2235Y155D01*
X2233Y155D01*
X2232Y155D01*
X2231Y154D01*
X2230Y154D01*
X2230Y154D01*
X2229Y153D01*
X2228Y153D01*
X2228Y152D01*
Y168D01*
X2228Y167D01*
D02*
G37*
%LPC*%
G36*
X727Y485D02*
X721D01*
X715Y483D01*
X711Y478D01*
X708Y472D01*
Y466D01*
X711Y460D01*
X715Y456D01*
X721Y453D01*
X727D01*
X733Y456D01*
X738Y460D01*
X740Y466D01*
Y472D01*
X738Y478D01*
X733Y483D01*
X727Y485D01*
D02*
G37*
G36*
X929Y384D02*
X923D01*
X917Y382D01*
X912Y377D01*
X910Y372D01*
Y365D01*
X912Y359D01*
X917Y355D01*
X923Y352D01*
X929D01*
X935Y355D01*
X939Y359D01*
X942Y365D01*
Y372D01*
X939Y377D01*
X935Y382D01*
X929Y384D01*
D02*
G37*
G36*
X973Y366D02*
X967D01*
X961Y364D01*
X956Y359D01*
X954Y353D01*
Y347D01*
X956Y341D01*
X961Y336D01*
X967Y334D01*
X973D01*
X979Y336D01*
X984Y341D01*
X986Y347D01*
Y353D01*
X984Y359D01*
X979Y364D01*
X973Y366D01*
D02*
G37*
G36*
X1313Y191D02*
X1307D01*
X1301Y189D01*
X1296Y184D01*
X1294Y178D01*
Y172D01*
X1296Y166D01*
X1301Y161D01*
X1307Y159D01*
X1313D01*
X1319Y161D01*
X1324Y166D01*
X1326Y172D01*
Y178D01*
X1324Y184D01*
X1319Y189D01*
X1313Y191D01*
D02*
G37*
G36*
X703Y761D02*
X697D01*
X691Y759D01*
X686Y754D01*
X684Y748D01*
Y742D01*
X686Y736D01*
X691Y731D01*
X697Y729D01*
X703D01*
X709Y731D01*
X714Y736D01*
X716Y742D01*
Y748D01*
X714Y754D01*
X709Y759D01*
X703Y761D01*
D02*
G37*
G36*
X1738Y659D02*
X1731D01*
X1725Y656D01*
X1721Y652D01*
X1718Y646D01*
Y639D01*
X1721Y633D01*
X1725Y629D01*
X1731Y627D01*
X1738D01*
X1743Y629D01*
X1748Y633D01*
X1750Y639D01*
Y646D01*
X1748Y652D01*
X1743Y656D01*
X1738Y659D01*
D02*
G37*
G36*
X1441Y649D02*
X1435D01*
X1429Y646D01*
X1424Y642D01*
X1422Y636D01*
Y630D01*
X1424Y624D01*
X1429Y619D01*
X1435Y617D01*
X1441D01*
X1447Y619D01*
X1451Y624D01*
X1454Y630D01*
Y636D01*
X1451Y642D01*
X1447Y646D01*
X1441Y649D01*
D02*
G37*
G36*
X1914Y647D02*
X1908D01*
X1902Y644D01*
X1898Y640D01*
X1895Y634D01*
Y628D01*
X1898Y622D01*
X1902Y617D01*
X1908Y615D01*
X1914D01*
X1920Y617D01*
X1925Y622D01*
X1927Y628D01*
Y634D01*
X1925Y640D01*
X1920Y644D01*
X1914Y647D01*
D02*
G37*
G36*
X1213Y642D02*
X1206D01*
X1201Y640D01*
X1196Y635D01*
X1194Y629D01*
Y623D01*
X1196Y617D01*
X1201Y613D01*
X1206Y610D01*
X1213D01*
X1219Y613D01*
X1223Y617D01*
X1226Y623D01*
Y629D01*
X1223Y635D01*
X1219Y640D01*
X1213Y642D01*
D02*
G37*
G36*
X2298Y641D02*
X2292D01*
X2286Y638D01*
X2281Y634D01*
X2279Y628D01*
Y621D01*
X2281Y616D01*
X2286Y611D01*
X2292Y609D01*
X2298D01*
X2304Y611D01*
X2309Y616D01*
X2311Y621D01*
Y628D01*
X2309Y634D01*
X2304Y638D01*
X2298Y641D01*
D02*
G37*
G36*
X2260Y640D02*
X2254D01*
X2248Y637D01*
X2244Y633D01*
X2241Y627D01*
Y620D01*
X2244Y615D01*
X2248Y610D01*
X2254Y608D01*
X2260D01*
X2266Y610D01*
X2271Y615D01*
X2273Y620D01*
Y627D01*
X2271Y633D01*
X2266Y637D01*
X2260Y640D01*
D02*
G37*
G36*
X2383Y606D02*
X2377D01*
X2371Y604D01*
X2366Y599D01*
X2364Y593D01*
Y587D01*
X2366Y581D01*
X2371Y576D01*
X2377Y574D01*
X2383D01*
X2389Y576D01*
X2394Y581D01*
X2396Y587D01*
Y593D01*
X2394Y599D01*
X2389Y604D01*
X2383Y606D01*
D02*
G37*
G36*
X2245Y596D02*
X2239D01*
X2233Y594D01*
X2228Y589D01*
X2226Y583D01*
Y577D01*
X2228Y571D01*
X2233Y566D01*
X2239Y564D01*
X2245D01*
X2251Y566D01*
X2256Y571D01*
X2258Y577D01*
Y583D01*
X2256Y589D01*
X2251Y594D01*
X2245Y596D01*
D02*
G37*
G36*
X1345D02*
X1339D01*
X1333Y594D01*
X1328Y589D01*
X1326Y583D01*
Y577D01*
X1328Y571D01*
X1333Y566D01*
X1339Y564D01*
X1345D01*
X1351Y566D01*
X1356Y571D01*
X1358Y577D01*
Y583D01*
X1356Y589D01*
X1351Y594D01*
X1345Y596D01*
D02*
G37*
G36*
X1643Y594D02*
X1637D01*
X1631Y592D01*
X1626Y587D01*
X1624Y581D01*
Y575D01*
X1626Y569D01*
X1631Y564D01*
X1637Y562D01*
X1643D01*
X1649Y564D01*
X1654Y569D01*
X1656Y575D01*
Y581D01*
X1654Y587D01*
X1649Y592D01*
X1643Y594D01*
D02*
G37*
G36*
X1642Y551D02*
X1636D01*
X1630Y549D01*
X1625Y544D01*
X1623Y538D01*
Y532D01*
X1625Y526D01*
X1630Y521D01*
X1636Y519D01*
X1642D01*
X1648Y521D01*
X1653Y526D01*
X1655Y532D01*
Y538D01*
X1653Y544D01*
X1648Y549D01*
X1642Y551D01*
D02*
G37*
G36*
X1460Y544D02*
X1454D01*
X1448Y542D01*
X1444Y537D01*
X1441Y531D01*
Y525D01*
X1444Y519D01*
X1448Y515D01*
X1454Y512D01*
X1460D01*
X1466Y515D01*
X1471Y519D01*
X1473Y525D01*
Y531D01*
X1471Y537D01*
X1466Y542D01*
X1460Y544D01*
D02*
G37*
G36*
X1510Y543D02*
X1504D01*
X1498Y541D01*
X1493Y536D01*
X1491Y530D01*
Y524D01*
X1493Y518D01*
X1498Y514D01*
X1504Y511D01*
X1510D01*
X1516Y514D01*
X1520Y518D01*
X1523Y524D01*
Y530D01*
X1520Y536D01*
X1516Y541D01*
X1510Y543D01*
D02*
G37*
G36*
X1560Y542D02*
X1553D01*
X1547Y540D01*
X1543Y535D01*
X1541Y529D01*
Y523D01*
X1543Y517D01*
X1547Y513D01*
X1553Y510D01*
X1560D01*
X1566Y513D01*
X1570Y517D01*
X1573Y523D01*
Y529D01*
X1570Y535D01*
X1566Y540D01*
X1560Y542D01*
D02*
G37*
G36*
X2360Y532D02*
X2354D01*
X2348Y530D01*
X2343Y525D01*
X2341Y519D01*
Y513D01*
X2343Y507D01*
X2348Y503D01*
X2354Y500D01*
X2360D01*
X2366Y503D01*
X2371Y507D01*
X2373Y513D01*
Y519D01*
X2371Y525D01*
X2366Y530D01*
X2360Y532D01*
D02*
G37*
G36*
X2458Y401D02*
X2452D01*
X2446Y399D01*
X2441Y394D01*
X2439Y388D01*
Y382D01*
X2441Y376D01*
X2446Y371D01*
X2452Y369D01*
X2458D01*
X2464Y371D01*
X2469Y376D01*
X2471Y382D01*
Y388D01*
X2469Y394D01*
X2464Y399D01*
X2458Y401D01*
D02*
G37*
%LPD*%
G36*
X2845Y344D02*
X2845Y344D01*
X2845Y344D01*
X2846Y344D01*
X2846Y344D01*
X2848Y344D01*
X2850Y344D01*
Y334D01*
X2849Y334D01*
X2844Y333D01*
X2844Y333D01*
X2845Y344D01*
X2845Y344D01*
D02*
G37*
G36*
X3133Y158D02*
X3133Y159D01*
X3132Y159D01*
X3132Y159D01*
X3131Y160D01*
X3130Y160D01*
X3129Y160D01*
X3128Y161D01*
X3127Y161D01*
X3126Y161D01*
X3125Y161D01*
Y171D01*
X3126Y171D01*
X3128Y171D01*
X3129Y171D01*
X3130Y171D01*
X3131Y172D01*
X3132Y172D01*
X3132Y173D01*
X3133Y173D01*
X3133Y173D01*
Y158D01*
D02*
G37*
D12*
X1850Y979D02*
Y980D01*
X1780Y908D02*
Y909D01*
X2811Y845D02*
X2817Y839D01*
X1670Y900D02*
X1750Y980D01*
X1249Y900D02*
X1670D01*
X2128Y890D02*
X2128D01*
X2150Y912D02*
Y980D01*
X1960Y890D02*
X2050Y980D01*
X2020Y830D02*
X2297D01*
X1495Y925D02*
X1595D01*
X1650Y980D01*
X1780Y909D02*
X1850Y979D01*
X1950Y978D02*
Y980D01*
X1880Y908D02*
X1950Y978D01*
X2836Y339D02*
X2850D01*
X3023Y166D02*
X3141D01*
X2835Y340D02*
X2836Y339D01*
X2850D02*
X3023Y166D01*
X2250Y980D02*
Y980D01*
Y980D02*
X2385Y845D01*
Y839D02*
Y845D01*
X1880Y905D02*
Y908D01*
X1774Y799D02*
X1880Y905D01*
X1616Y819D02*
X1636Y799D01*
X1774D01*
X2468Y143D02*
X2735D01*
X2350Y980D02*
X2437Y893D01*
X2385Y845D02*
X2811D01*
X2817Y839D02*
X2820D01*
X2220Y160D02*
X2451D01*
X2468Y143D01*
X2963Y680D02*
X2983D01*
X2795Y203D02*
Y512D01*
X2963Y680D01*
X2735Y143D02*
X2795Y203D01*
X1960Y890D02*
X2020Y830D01*
X2025Y860D02*
X2135D01*
X2128Y890D02*
X2150Y912D01*
D47*
X3145Y80D02*
D03*
X3045D02*
D03*
X2945D02*
D03*
X2845D02*
D03*
X2745D02*
D03*
X2645D02*
D03*
X2545D02*
D03*
X2445D02*
D03*
X2345D02*
D03*
X2245D02*
D03*
X2145D02*
D03*
X2045D02*
D03*
X1945D02*
D03*
X1845D02*
D03*
X1745D02*
D03*
X1645D02*
D03*
X1545D02*
D03*
X1445D02*
D03*
X1345D02*
D03*
X1245D02*
D03*
X1145D02*
D03*
X1045D02*
D03*
X945D02*
D03*
X845D02*
D03*
X745D02*
D03*
X645D02*
D03*
X545D02*
D03*
X445D02*
D03*
X345D02*
D03*
X245D02*
D03*
X145D02*
D03*
X150Y980D02*
D03*
X250D02*
D03*
X350D02*
D03*
X450D02*
D03*
X550D02*
D03*
X650D02*
D03*
X750D02*
D03*
X850D02*
D03*
X950D02*
D03*
X1050D02*
D03*
X1150D02*
D03*
X1250D02*
D03*
X1350D02*
D03*
X1450D02*
D03*
X1550D02*
D03*
X1650D02*
D03*
X1750D02*
D03*
X1850D02*
D03*
X1950D02*
D03*
X2050D02*
D03*
X2150D02*
D03*
X2250D02*
D03*
X2350D02*
D03*
X2450D02*
D03*
X2550D02*
D03*
X2650D02*
D03*
X2750D02*
D03*
X2850D02*
D03*
X2950D02*
D03*
X3050D02*
D03*
X3150D02*
D03*
D48*
X50Y80D02*
D03*
Y980D02*
D03*
D49*
X2260Y883D02*
D03*
X2747Y881D02*
D03*
X2783D02*
D03*
X2224Y884D02*
D03*
X805Y607D02*
D03*
X1780Y908D02*
D03*
X2128Y890D02*
D03*
X2135Y860D02*
D03*
X2437Y893D02*
D03*
X2962Y630D02*
D03*
X2758Y385D02*
D03*
X2760Y324D02*
D03*
X2520Y169D02*
D03*
X2825Y255D02*
D03*
X2983Y680D02*
D03*
X2983Y716D02*
D03*
X2981Y168D02*
D03*
X2820Y839D02*
D03*
X2385D02*
D03*
X2165Y800D02*
D03*
X1707Y394D02*
D03*
X1857Y522D02*
D03*
X1342Y535D02*
D03*
Y580D02*
D03*
X2543Y535D02*
D03*
X2542Y577D02*
D03*
X2242Y529D02*
D03*
X2242Y580D02*
D03*
X1942Y535D02*
D03*
Y580D02*
D03*
X1639Y535D02*
D03*
X1640Y578D02*
D03*
X2984Y894D02*
D03*
X3057Y895D02*
D03*
X2930Y920D02*
D03*
X2007Y394D02*
D03*
X2156Y323D02*
D03*
X220Y795D02*
D03*
X100Y600D02*
D03*
X85Y540D02*
D03*
X2455Y325D02*
D03*
X2658Y324D02*
D03*
X886Y657D02*
D03*
X1091Y811D02*
D03*
X891Y710D02*
D03*
X865Y736D02*
D03*
X885Y760D02*
D03*
X983Y761D02*
D03*
X863Y786D02*
D03*
X983Y796D02*
D03*
X866Y684D02*
D03*
X3141Y166D02*
D03*
X3020Y207D02*
D03*
X2865Y250D02*
D03*
X2985Y530D02*
D03*
X3055Y530D02*
D03*
X3057Y430D02*
D03*
X2932Y334D02*
D03*
X3107Y335D02*
D03*
X3142Y337D02*
D03*
X2982Y360D02*
D03*
X3057Y361D02*
D03*
X2982Y430D02*
D03*
X3057Y630D02*
D03*
X3057Y679D02*
D03*
X3057Y714D02*
D03*
X3141Y714D02*
D03*
X3107Y715D02*
D03*
X2933Y715D02*
D03*
X2869Y860D02*
D03*
X2774Y540D02*
D03*
X2772Y582D02*
D03*
X2357Y324D02*
D03*
X2455Y385D02*
D03*
X1734Y881D02*
D03*
X1699Y882D02*
D03*
X1175Y879D02*
D03*
X1106Y687D02*
D03*
X1438Y633D02*
D03*
X1412Y658D02*
D03*
X1387Y684D02*
D03*
X1413Y709D02*
D03*
X1387Y736D02*
D03*
X1413Y760D02*
D03*
X1505Y760D02*
D03*
X1387Y785D02*
D03*
X1505Y795D02*
D03*
X1616Y819D02*
D03*
X1210Y879D02*
D03*
X1880Y905D02*
D03*
X1140Y812D02*
D03*
X2525Y785D02*
D03*
X2230Y490D02*
D03*
X2785Y635D02*
D03*
X2695Y795D02*
D03*
X1756Y324D02*
D03*
X1406Y394D02*
D03*
X2310Y385D02*
D03*
X2157Y394D02*
D03*
X2610Y382D02*
D03*
X1105Y395D02*
D03*
X1855Y324D02*
D03*
X1310Y175D02*
D03*
X1256Y524D02*
D03*
X1247Y561D02*
D03*
X1041Y538D02*
D03*
Y584D02*
D03*
X1157Y328D02*
D03*
X1256D02*
D03*
X1020Y470D02*
D03*
X1495Y925D02*
D03*
X1665Y820D02*
D03*
X1631Y689D02*
D03*
X905Y555D02*
D03*
X1008Y418D02*
D03*
X922Y269D02*
D03*
X795Y470D02*
D03*
X2835Y340D02*
D03*
X2380Y590D02*
D03*
X2025Y860D02*
D03*
X1960Y890D02*
D03*
X2297Y830D02*
D03*
X2435Y736D02*
D03*
X2147Y683D02*
D03*
X130Y287D02*
D03*
X259Y287D02*
D03*
X2220Y160D02*
D03*
X970Y350D02*
D03*
X1457Y528D02*
D03*
X2530Y500D02*
D03*
X2680Y688D02*
D03*
X1456Y323D02*
D03*
X1557Y324D02*
D03*
X2057D02*
D03*
X2030Y795D02*
D03*
X1940Y658D02*
D03*
X1911Y631D02*
D03*
X2435Y684D02*
D03*
X2435Y786D02*
D03*
X2466Y658D02*
D03*
Y709D02*
D03*
X2465Y760D02*
D03*
X1911Y735D02*
D03*
X1911Y683D02*
D03*
X1940Y709D02*
D03*
X1940Y760D02*
D03*
X1910Y785D02*
D03*
X1610Y157D02*
D03*
X2555Y760D02*
D03*
X2295Y625D02*
D03*
X2030Y760D02*
D03*
X1507Y527D02*
D03*
X1633Y484D02*
D03*
X1734Y643D02*
D03*
X1557Y526D02*
D03*
X2357Y516D02*
D03*
X2257Y624D02*
D03*
X1249Y900D02*
D03*
X1210Y626D02*
D03*
X926Y368D02*
D03*
X581Y244D02*
D03*
X529Y440D02*
D03*
X580Y440D02*
D03*
X725Y370D02*
D03*
X363Y518D02*
D03*
X409Y413D02*
D03*
X240Y611D02*
D03*
X202Y599D02*
D03*
X133Y412D02*
D03*
X94Y399D02*
D03*
X44Y454D02*
D03*
X45Y675D02*
D03*
X110Y660D02*
D03*
X263Y661D02*
D03*
X355Y673D02*
D03*
X303Y672D02*
D03*
X500Y745D02*
D03*
X300Y835D02*
D03*
X295Y890D02*
D03*
X49Y770D02*
D03*
X725Y784D02*
D03*
X699Y695D02*
D03*
X700Y745D02*
D03*
X940Y140D02*
D03*
X724Y469D02*
D03*
X480Y210D02*
D03*
X725Y419D02*
D03*
X298Y413D02*
D03*
X565Y795D02*
D03*
Y895D02*
D03*
X362Y787D02*
D03*
X500Y595D02*
D03*
Y695D02*
D03*
X495Y895D02*
D03*
X242Y413D02*
D03*
X132Y472D02*
D03*
M02*
