G04*
G04 #@! TF.GenerationSoftware,Altium Limited,Altium Designer,24.2.2 (26)*
G04*
G04 Layer_Color=65535*
%FSLAX23Y23*%
%MOIN*%
G70*
G04*
G04 #@! TF.SameCoordinates,485C1437-8325-44BD-8A32-A566A60D5BA3*
G04*
G04*
G04 #@! TF.FilePolarity,Positive*
G04*
G01*
G75*
%ADD10C,0.006*%
%ADD11C,0.012*%
%ADD12C,0.010*%
G36*
X1072Y665D02*
X1082D01*
Y650D01*
X1072D01*
Y665D01*
D02*
G37*
G36*
X1596D02*
X1606D01*
Y650D01*
X1596D01*
Y665D01*
D02*
G37*
G36*
X2121Y665D02*
X2131D01*
Y650D01*
X2121D01*
Y665D01*
D02*
G37*
G36*
X2645D02*
X2655D01*
Y650D01*
X2645D01*
Y665D01*
D02*
G37*
D10*
X2585Y349D02*
G03*
X2585Y373I0J12D01*
G01*
X1083Y349D02*
G03*
X1083Y373I0J12D01*
G01*
X1683Y349D02*
G03*
X1683Y373I0J12D01*
G01*
X1383Y349D02*
G03*
X1383Y373I0J12D01*
G01*
X2283Y349D02*
G03*
X2283Y373I0J12D01*
G01*
X1983Y349D02*
G03*
X1983Y373I0J12D01*
G01*
X2844Y720D02*
Y738D01*
X2724Y720D02*
Y738D01*
X1795Y720D02*
Y738D01*
X1675Y720D02*
Y738D01*
X2319Y720D02*
Y738D01*
X2199Y720D02*
Y738D01*
X1270Y720D02*
Y738D01*
X1150Y720D02*
Y738D01*
D11*
X2996Y680D02*
G03*
X2996Y680I-6J0D01*
G01*
X2917Y709D02*
G03*
X2917Y709I-6J0D01*
G01*
D02*
G03*
X2917Y709I-6J0D01*
G01*
X2996Y680D02*
G03*
X2996Y680I-6J0D01*
G01*
X509Y896D02*
G03*
X509Y896I-6J0D01*
G01*
X430Y925D02*
G03*
X430Y925I-6J0D01*
G01*
D02*
G03*
X430Y925I-6J0D01*
G01*
X509Y896D02*
G03*
X509Y896I-6J0D01*
G01*
X734Y518D02*
G03*
X734Y518I-6J0D01*
G01*
X655Y547D02*
G03*
X655Y547I-6J0D01*
G01*
D02*
G03*
X655Y547I-6J0D01*
G01*
X734Y518D02*
G03*
X734Y518I-6J0D01*
G01*
D12*
X850Y616D02*
X995D01*
X850Y827D02*
X995D01*
X172Y921D02*
X208D01*
X172Y860D02*
X208D01*
X1899Y616D02*
X2043D01*
X1899Y827D02*
X2043D01*
X2423Y616D02*
X2568D01*
X2423Y827D02*
X2568D01*
X1983Y307D02*
Y415D01*
X2180Y307D02*
Y415D01*
X2283Y307D02*
Y415D01*
X2480Y307D02*
Y415D01*
X1580Y307D02*
Y415D01*
X1383Y307D02*
Y415D01*
X1880Y307D02*
Y415D01*
X1683Y307D02*
Y415D01*
X58Y614D02*
Y614D01*
X45Y601D02*
X58Y614D01*
X31Y614D02*
X31D01*
X45Y601D01*
X31Y614D02*
X58D01*
X45Y601D02*
Y614D01*
X129Y782D02*
X242D01*
X129Y708D02*
X242D01*
X188Y179D02*
X224D01*
X188Y241D02*
X224D01*
X91Y247D02*
Y283D01*
X29Y247D02*
Y283D01*
X384Y247D02*
Y283D01*
X445Y247D02*
Y283D01*
X813Y196D02*
Y541D01*
X703Y196D02*
X813D01*
X703D02*
Y541D01*
X813D01*
X588Y573D02*
Y918D01*
X478Y573D02*
X588D01*
X478D02*
Y918D01*
X588D01*
X1083Y307D02*
Y415D01*
X1280Y307D02*
Y415D01*
X1374Y827D02*
X1518D01*
X1374Y616D02*
X1518D01*
X2965Y702D02*
X3075D01*
X2965Y357D02*
Y702D01*
Y357D02*
X3075D01*
Y702D01*
X2782Y307D02*
Y415D01*
X2585Y307D02*
Y415D01*
X50Y740D02*
X30D01*
Y725D01*
X40D01*
X30D01*
Y710D01*
X60Y740D02*
Y710D01*
X75D01*
X80Y715D01*
Y720D01*
X75Y725D01*
X60D01*
X75D01*
X80Y730D01*
Y735D01*
X75Y740D01*
X60D01*
X90Y710D02*
X100D01*
X95D01*
Y740D01*
X90Y735D01*
M02*
