G04*
G04 #@! TF.GenerationSoftware,Altium Limited,Altium Designer,24.2.2 (26)*
G04*
G04 Layer_Color=32768*
%FSLAX23Y23*%
%MOIN*%
G70*
G04*
G04 #@! TF.SameCoordinates,485C1437-8325-44BD-8A32-A566A60D5BA3*
G04*
G04*
G04 #@! TF.FilePolarity,Positive*
G04*
G01*
G75*
%ADD10C,0.006*%
%ADD12C,0.010*%
G36*
X417Y917D02*
Y915D01*
X416Y913D01*
X414D01*
X413Y915D01*
Y917D01*
X414Y918D01*
X416D01*
X417Y917D01*
D02*
G37*
G36*
X651Y887D02*
X610D01*
Y904D01*
X651D01*
Y887D01*
D02*
G37*
G36*
X457D02*
X415D01*
Y904D01*
X457D01*
Y887D01*
D02*
G37*
G36*
X651Y837D02*
X610D01*
Y854D01*
X651D01*
Y837D01*
D02*
G37*
G36*
X457D02*
X415D01*
Y854D01*
X457D01*
Y837D01*
D02*
G37*
G36*
X651Y787D02*
X610D01*
Y804D01*
X651D01*
Y787D01*
D02*
G37*
G36*
X457D02*
X415D01*
Y804D01*
X457D01*
Y787D01*
D02*
G37*
G36*
X651Y737D02*
X610D01*
Y754D01*
X651D01*
Y737D01*
D02*
G37*
G36*
X457D02*
X415D01*
Y754D01*
X457D01*
Y737D01*
D02*
G37*
G36*
X2904Y701D02*
Y699D01*
X2903Y698D01*
X2901D01*
X2899Y699D01*
Y701D01*
X2901Y703D01*
X2903D01*
X2904Y701D01*
D02*
G37*
G36*
X651Y687D02*
X610D01*
Y704D01*
X651D01*
Y687D01*
D02*
G37*
G36*
X457D02*
X415D01*
Y704D01*
X457D01*
Y687D01*
D02*
G37*
G36*
X3138Y672D02*
X3096D01*
Y688D01*
X3138D01*
Y672D01*
D02*
G37*
G36*
X2944D02*
X2902D01*
Y688D01*
X2944D01*
Y672D01*
D02*
G37*
G36*
X2854Y646D02*
X2714D01*
Y812D01*
X2854D01*
Y646D01*
D02*
G37*
G36*
X2329D02*
X2189D01*
Y812D01*
X2329D01*
Y646D01*
D02*
G37*
G36*
X1805D02*
X1665D01*
Y812D01*
X1805D01*
Y646D01*
D02*
G37*
G36*
X1280D02*
X1140D01*
Y812D01*
X1280D01*
Y646D01*
D02*
G37*
G36*
X651Y637D02*
X610D01*
Y654D01*
X651D01*
Y637D01*
D02*
G37*
G36*
X457D02*
X415D01*
Y654D01*
X457D01*
Y637D01*
D02*
G37*
G36*
X61Y625D02*
X29D01*
Y637D01*
X61D01*
Y625D01*
D02*
G37*
G36*
X3138Y622D02*
X3096D01*
Y638D01*
X3138D01*
Y622D01*
D02*
G37*
G36*
X2944D02*
X2902D01*
Y638D01*
X2944D01*
Y622D01*
D02*
G37*
G36*
X2594Y829D02*
X2645D01*
Y615D01*
X2594D01*
Y611D01*
X2397D01*
Y615D01*
X2345D01*
Y829D01*
X2397D01*
Y832D01*
X2594D01*
Y829D01*
D02*
G37*
G36*
X2069D02*
X2121D01*
Y615D01*
X2069D01*
Y611D01*
X1872D01*
Y615D01*
X1821D01*
Y829D01*
X1872D01*
Y832D01*
X2069D01*
Y829D01*
D02*
G37*
G36*
X1545Y828D02*
X1596D01*
Y615D01*
X1545D01*
Y611D01*
X1348D01*
Y615D01*
X1296D01*
Y828D01*
X1348D01*
Y832D01*
X1545D01*
Y828D01*
D02*
G37*
G36*
X1021D02*
X1072D01*
Y615D01*
X1021D01*
Y611D01*
X824D01*
Y615D01*
X772D01*
Y828D01*
X824D01*
Y832D01*
X1021D01*
Y828D01*
D02*
G37*
G36*
X651Y587D02*
X610D01*
Y604D01*
X651D01*
Y587D01*
D02*
G37*
G36*
X457D02*
X415D01*
Y604D01*
X457D01*
Y587D01*
D02*
G37*
G36*
X3138Y572D02*
X3096D01*
Y588D01*
X3138D01*
Y572D01*
D02*
G37*
G36*
X2944D02*
X2902D01*
Y588D01*
X2944D01*
Y572D01*
D02*
G37*
G36*
X61Y576D02*
X62D01*
X63Y575D01*
Y573D01*
X62Y572D01*
X60D01*
X59Y573D01*
Y574D01*
X29D01*
Y586D01*
X61D01*
Y576D01*
D02*
G37*
G36*
X642Y539D02*
Y537D01*
X641Y536D01*
X639D01*
X638Y537D01*
Y539D01*
X639Y541D01*
X641D01*
X642Y539D01*
D02*
G37*
G36*
X3138Y522D02*
X3096D01*
Y538D01*
X3138D01*
Y522D01*
D02*
G37*
G36*
X2944D02*
X2902D01*
Y538D01*
X2944D01*
Y522D01*
D02*
G37*
G36*
X876Y510D02*
X835D01*
Y526D01*
X876D01*
Y510D01*
D02*
G37*
G36*
X682D02*
X640D01*
Y526D01*
X682D01*
Y510D01*
D02*
G37*
G36*
X3138Y472D02*
X3096D01*
Y488D01*
X3138D01*
Y472D01*
D02*
G37*
G36*
X2944D02*
X2902D01*
Y488D01*
X2944D01*
Y472D01*
D02*
G37*
G36*
X876Y460D02*
X835D01*
Y476D01*
X876D01*
Y460D01*
D02*
G37*
G36*
X682D02*
X640D01*
Y476D01*
X682D01*
Y460D01*
D02*
G37*
G36*
X3138Y422D02*
X3096D01*
Y438D01*
X3138D01*
Y422D01*
D02*
G37*
G36*
X2944D02*
X2902D01*
Y438D01*
X2944D01*
Y422D01*
D02*
G37*
G36*
X876Y410D02*
X835D01*
Y426D01*
X876D01*
Y410D01*
D02*
G37*
G36*
X682D02*
X640D01*
Y426D01*
X682D01*
Y410D01*
D02*
G37*
G36*
X3138Y372D02*
X3096D01*
Y388D01*
X3138D01*
Y372D01*
D02*
G37*
G36*
X2944D02*
X2902D01*
Y388D01*
X2944D01*
Y372D01*
D02*
G37*
G36*
X876Y360D02*
X835D01*
Y376D01*
X876D01*
Y360D01*
D02*
G37*
G36*
X682D02*
X640D01*
Y376D01*
X682D01*
Y360D01*
D02*
G37*
G36*
X876Y310D02*
X835D01*
Y326D01*
X876D01*
Y310D01*
D02*
G37*
G36*
X682D02*
X640D01*
Y326D01*
X682D01*
Y310D01*
D02*
G37*
G36*
X876Y260D02*
X835D01*
Y276D01*
X876D01*
Y260D01*
D02*
G37*
G36*
X682D02*
X640D01*
Y276D01*
X682D01*
Y260D01*
D02*
G37*
G36*
X2792Y215D02*
X2575D01*
Y507D01*
X2792D01*
Y215D01*
D02*
G37*
G36*
X2490D02*
X2273D01*
Y507D01*
X2490D01*
Y215D01*
D02*
G37*
G36*
X2190D02*
X1973D01*
Y507D01*
X2190D01*
Y215D01*
D02*
G37*
G36*
X1890D02*
X1673D01*
Y507D01*
X1890D01*
Y215D01*
D02*
G37*
G36*
X1590D02*
X1373D01*
Y507D01*
X1590D01*
Y215D01*
D02*
G37*
G36*
X1290D02*
X1073D01*
Y507D01*
X1290D01*
Y215D01*
D02*
G37*
G36*
X876Y210D02*
X835D01*
Y226D01*
X876D01*
Y210D01*
D02*
G37*
G36*
X682D02*
X640D01*
Y226D01*
X682D01*
Y210D01*
D02*
G37*
D10*
X2714Y646D02*
X2854D01*
X2714D02*
Y812D01*
X2854D01*
Y646D02*
Y812D01*
X1665Y646D02*
X1805D01*
X1665D02*
Y812D01*
X1805D01*
Y646D02*
Y812D01*
X2189Y646D02*
X2329D01*
X2189D02*
Y812D01*
X2329D01*
Y646D02*
Y812D01*
X1140Y646D02*
X1280D01*
X1140D02*
Y812D01*
X1280D01*
Y646D02*
Y812D01*
D12*
X772Y615D02*
X824D01*
Y611D02*
Y615D01*
X772D02*
Y828D01*
X824Y611D02*
X1021D01*
X772Y828D02*
X824D01*
Y832D01*
X1021D01*
Y611D02*
Y615D01*
X1072D01*
Y828D01*
X1021D02*
Y832D01*
Y828D02*
X1072D01*
X1192Y835D02*
Y857D01*
X2279Y826D02*
Y865D01*
X2204Y826D02*
Y865D01*
Y826D02*
X2279D01*
X2204Y865D02*
X2279D01*
X2231Y846D02*
X2253D01*
X2242Y835D02*
Y857D01*
X1754Y826D02*
Y865D01*
X1679Y826D02*
Y865D01*
Y826D02*
X1754D01*
X1679Y865D02*
X1754D01*
X1706Y846D02*
X1727D01*
X1717Y835D02*
Y857D01*
X2802Y826D02*
Y865D01*
X2728Y826D02*
Y865D01*
Y826D02*
X2802D01*
X2728Y865D02*
X2802D01*
X2754Y846D02*
X2776D01*
X2765Y835D02*
Y857D01*
X2660Y777D02*
X2700D01*
X2660Y703D02*
X2700D01*
Y777D01*
X2660Y703D02*
Y777D01*
X2680Y729D02*
Y751D01*
X2669Y740D02*
X2691D01*
X1821Y615D02*
Y829D01*
X1872D01*
Y832D01*
X2069D01*
Y829D02*
Y832D01*
Y829D02*
X2121D01*
Y615D02*
Y829D01*
X2069Y615D02*
X2121D01*
X2069Y611D02*
Y615D01*
X1872Y611D02*
X2069D01*
X1872D02*
Y615D01*
X1821D02*
X1872D01*
X2345D02*
Y829D01*
X2397D01*
Y832D01*
X2594D01*
Y829D02*
Y832D01*
Y829D02*
X2645D01*
Y615D02*
Y829D01*
X2594Y615D02*
X2645D01*
X2594Y611D02*
Y615D01*
X2397Y611D02*
X2594D01*
X2397D02*
Y615D01*
X2345D02*
X2397D01*
X1726Y515D02*
Y555D01*
X1651Y515D02*
Y555D01*
Y515D02*
X1726D01*
X1651Y555D02*
X1726D01*
X1677Y535D02*
X1699D01*
X1688Y524D02*
Y546D01*
X1651Y560D02*
Y600D01*
X1726Y560D02*
Y600D01*
X1651D02*
X1726D01*
X1651Y560D02*
X1726D01*
X1677Y580D02*
X1699D01*
X1688Y569D02*
Y591D01*
X1427Y515D02*
Y555D01*
X1353Y515D02*
Y555D01*
Y515D02*
X1427D01*
X1612Y781D02*
X1651D01*
X1612Y706D02*
X1651D01*
Y781D01*
X1612Y706D02*
Y781D01*
X1631Y732D02*
Y754D01*
X1620Y743D02*
X1642D01*
X2128Y773D02*
X2168D01*
X2128Y699D02*
X2168D01*
Y773D01*
X2128Y699D02*
Y773D01*
X2148Y725D02*
Y747D01*
X2137Y736D02*
X2159D01*
X1230Y826D02*
Y865D01*
X1155Y826D02*
Y865D01*
Y826D02*
X1230D01*
X1155Y865D02*
X1230D01*
X1181Y846D02*
X1203D01*
X2793Y520D02*
X2867D01*
X2793D02*
Y560D01*
X2867Y520D02*
Y560D01*
X2830Y571D02*
Y593D01*
X2819Y582D02*
X2841D01*
X2793Y562D02*
X2867D01*
X2793Y602D02*
X2867D01*
Y562D02*
Y602D01*
X2793Y562D02*
Y602D01*
X2917Y788D02*
Y810D01*
X2906Y799D02*
X2928D01*
X2879Y819D02*
X2954D01*
X2879Y779D02*
X2954D01*
X2879D02*
Y819D01*
X2954Y779D02*
Y819D01*
X2917Y739D02*
Y760D01*
X2906Y750D02*
X2928D01*
X2881Y767D02*
X2952D01*
X2881Y732D02*
X2952D01*
X2881D02*
Y767D01*
X2952Y732D02*
Y767D01*
X2973Y850D02*
X2995D01*
X2984Y839D02*
Y861D01*
X2966Y815D02*
Y886D01*
X3002Y815D02*
Y886D01*
X2966Y815D02*
X3002D01*
X2966Y886D02*
X3002D01*
X2917Y838D02*
Y859D01*
X2906Y848D02*
X2928D01*
X2882Y831D02*
X2953D01*
X2882Y866D02*
X2953D01*
Y831D02*
Y866D01*
X2882Y831D02*
Y866D01*
X3046Y850D02*
X3068D01*
X3057Y839D02*
Y861D01*
X3075Y815D02*
Y886D01*
X3039Y815D02*
Y886D01*
X3075D01*
X3039Y815D02*
X3075D01*
X2943Y360D02*
Y700D01*
Y360D02*
X3097D01*
Y700D01*
X2943D02*
X3097D01*
X2943Y360D02*
Y700D01*
Y360D02*
X3097D01*
Y700D01*
X2943D02*
X3097D01*
X3046Y767D02*
X3068D01*
X3057Y757D02*
Y778D01*
X3075Y732D02*
Y803D01*
X3039Y732D02*
Y803D01*
X3075D01*
X3039Y732D02*
X3075D01*
X3124Y739D02*
Y760D01*
X3114Y750D02*
X3135D01*
X3089Y767D02*
X3160D01*
X3089Y732D02*
X3160D01*
X3089D02*
Y767D01*
X3160Y732D02*
Y767D01*
X3124Y838D02*
Y859D01*
X3113Y848D02*
X3135D01*
X3089Y831D02*
X3160D01*
X3089Y866D02*
X3160D01*
Y831D02*
Y866D01*
X1348Y832D02*
X1545D01*
X1348Y828D02*
Y832D01*
X1296Y828D02*
X1348D01*
X1296Y615D02*
Y828D01*
X1095Y743D02*
X1117D01*
X1106Y732D02*
Y754D01*
X1087Y706D02*
Y781D01*
X1126Y706D02*
Y781D01*
X1087Y706D02*
X1126D01*
X1087Y781D02*
X1126D01*
X2973Y767D02*
X2995D01*
X2984Y757D02*
Y778D01*
X3002Y732D02*
Y803D01*
X2966Y732D02*
Y803D01*
X3002D01*
X2966Y732D02*
X3002D01*
X2830Y529D02*
Y551D01*
X2819Y540D02*
X2841D01*
X2793Y560D02*
X2867D01*
X1951Y555D02*
X2026D01*
X1978Y535D02*
X2000D01*
X1989Y524D02*
Y546D01*
X2554Y560D02*
Y600D01*
X2629Y560D02*
Y600D01*
X2554D02*
X2629D01*
X2554Y560D02*
X2629D01*
X2581Y580D02*
X2602D01*
X2591Y569D02*
Y591D01*
X2253Y560D02*
Y600D01*
X2327Y560D02*
Y600D01*
X2253D02*
X2327D01*
X2253Y560D02*
X2327D01*
X2279Y580D02*
X2301D01*
X2290Y569D02*
Y591D01*
X2629Y515D02*
Y555D01*
X2554Y515D02*
Y555D01*
Y515D02*
X2629D01*
X2554Y555D02*
X2629D01*
X2581Y535D02*
X2602D01*
X2591Y524D02*
Y546D01*
X2327Y515D02*
Y555D01*
X2253Y515D02*
Y555D01*
Y515D02*
X2327D01*
X2253Y555D02*
X2327D01*
X2279Y535D02*
X2301D01*
X2290Y524D02*
Y546D01*
X2190Y215D02*
Y507D01*
X1973D02*
X2190D01*
X1973Y215D02*
Y507D01*
Y215D02*
X2190D01*
X2490D02*
Y507D01*
X2273D02*
X2490D01*
X2273Y215D02*
Y507D01*
Y215D02*
X2490D01*
X1373D02*
X1590D01*
X1373D02*
Y507D01*
X1590D01*
Y215D02*
Y507D01*
X1673Y215D02*
X1890D01*
X1673D02*
Y507D01*
X1890D01*
Y215D02*
Y507D01*
X145Y267D02*
Y307D01*
X220Y267D02*
Y307D01*
X145D02*
X220D01*
X145Y267D02*
X220D01*
X171Y287D02*
X193D01*
X182Y276D02*
Y298D01*
X274Y267D02*
Y307D01*
X349Y267D02*
Y307D01*
X274D02*
X349D01*
X1353Y555D02*
X1427D01*
X1379Y535D02*
X1401D01*
X1390Y524D02*
Y546D01*
X1353Y560D02*
Y600D01*
X1427Y560D02*
Y600D01*
X1353D02*
X1427D01*
X1353Y560D02*
X1427D01*
X1379Y580D02*
X1401D01*
X1390Y569D02*
Y591D01*
X1951Y560D02*
Y600D01*
X2026Y560D02*
Y600D01*
X1951D02*
X2026D01*
X1951Y560D02*
X2026D01*
X1978Y580D02*
X2000D01*
X1989Y569D02*
Y591D01*
X2026Y515D02*
Y555D01*
X1951Y515D02*
Y555D01*
Y515D02*
X2026D01*
X304Y716D02*
Y738D01*
X293Y727D02*
X315D01*
X29Y574D02*
X61D01*
X29D02*
Y637D01*
X61D01*
Y574D02*
Y637D01*
X916Y450D02*
X952D01*
X916Y521D02*
X952D01*
X916Y450D02*
Y521D01*
X952Y450D02*
Y521D01*
X934Y475D02*
Y496D01*
X923Y485D02*
X945D01*
X964Y521D02*
X999D01*
X964Y450D02*
X999D01*
Y521D01*
X964Y450D02*
Y521D01*
X982Y475D02*
Y496D01*
X971Y485D02*
X992D01*
X27Y544D02*
X63D01*
X27Y473D02*
X63D01*
Y544D01*
X27Y473D02*
Y544D01*
X45Y497D02*
Y519D01*
X34Y508D02*
X56D01*
X681Y538D02*
X835D01*
Y198D02*
Y538D01*
X681Y198D02*
X835D01*
X681D02*
Y538D01*
X835D01*
Y198D02*
Y538D01*
X681Y198D02*
X835D01*
X681D02*
Y538D01*
X456Y916D02*
X610D01*
Y575D02*
Y916D01*
X456Y575D02*
X610D01*
X456D02*
Y916D01*
X610D01*
Y575D02*
Y916D01*
X456Y575D02*
X610D01*
X456D02*
Y916D01*
X1090Y529D02*
Y551D01*
X1079Y540D02*
X1101D01*
X1053Y560D02*
X1127D01*
X1053Y520D02*
X1127D01*
X1053D02*
Y560D01*
X1127Y520D02*
Y560D01*
X1090Y574D02*
Y596D01*
X1079Y585D02*
X1101D01*
X1053Y565D02*
X1127D01*
X1053Y605D02*
X1127D01*
Y565D02*
Y605D01*
X1053Y565D02*
Y605D01*
X1290Y215D02*
Y507D01*
X1073D02*
X1290D01*
X1073Y215D02*
Y507D01*
Y215D02*
X1290D01*
X1296Y615D02*
X1348D01*
Y611D02*
Y615D01*
Y611D02*
X1545D01*
Y615D01*
X1596D01*
Y828D01*
X1545D02*
X1596D01*
X1545D02*
Y832D01*
X317Y394D02*
Y433D01*
Y394D02*
X392D01*
X317Y433D02*
X392D01*
X344Y413D02*
X366D01*
X355Y402D02*
Y424D01*
X185Y579D02*
Y618D01*
X110Y579D02*
Y618D01*
Y579D02*
X185D01*
X110Y618D02*
X185D01*
X136Y599D02*
X158D01*
X147Y588D02*
Y610D01*
X336Y765D02*
X375D01*
X336Y690D02*
X375D01*
Y765D01*
X336Y690D02*
Y765D01*
X355Y716D02*
Y738D01*
X344Y727D02*
X366D01*
X284Y690D02*
X323D01*
X284Y765D02*
X323D01*
X284Y690D02*
Y765D01*
X323Y690D02*
Y765D01*
X2575Y507D02*
X2792D01*
Y215D02*
Y507D01*
X2904Y300D02*
X2926D01*
X2915Y289D02*
Y311D01*
X2964Y272D02*
X3000D01*
X2964Y343D02*
X3000D01*
X2964Y272D02*
Y343D01*
X3000Y272D02*
Y343D01*
X2982Y296D02*
Y318D01*
X2971Y307D02*
X2993D01*
X2952Y231D02*
Y270D01*
X2877Y231D02*
Y270D01*
Y231D02*
X2952D01*
X2877Y270D02*
X2952D01*
X2904Y250D02*
X2926D01*
X2915Y240D02*
Y261D01*
X2964Y189D02*
X3000D01*
X2964Y260D02*
X3000D01*
X2964Y189D02*
Y260D01*
X3000Y189D02*
Y260D01*
X2982Y213D02*
Y235D01*
X2971Y224D02*
X2993D01*
X3124Y289D02*
Y311D01*
X3113Y300D02*
X3135D01*
X3089Y318D02*
X3160D01*
X3089Y282D02*
X3160D01*
X3089D02*
Y318D01*
X3160Y282D02*
Y318D01*
X3046Y307D02*
X3068D01*
X3057Y296D02*
Y318D01*
X3075Y272D02*
Y343D01*
X3039Y272D02*
Y343D01*
X3075D01*
X3039Y272D02*
X3075D01*
X3124Y240D02*
Y261D01*
X3113Y250D02*
X3135D01*
X3087Y270D02*
X3162D01*
X3087Y231D02*
X3162D01*
X3087D02*
Y270D01*
X3162Y231D02*
Y270D01*
X3046Y224D02*
X3068D01*
X3057Y213D02*
Y235D01*
X3039Y189D02*
Y260D01*
X3075Y189D02*
Y260D01*
X3039Y189D02*
X3075D01*
X3039Y260D02*
X3075D01*
X3124Y190D02*
Y212D01*
X3114Y201D02*
X3135D01*
X3089Y183D02*
X3160D01*
X3089Y219D02*
X3160D01*
Y183D02*
Y219D01*
X3089Y183D02*
Y219D01*
X2575Y215D02*
X2792D01*
X2575D02*
Y507D01*
X3089Y831D02*
Y866D01*
X3124Y788D02*
Y810D01*
X3113Y799D02*
X3135D01*
X3087Y819D02*
X3162D01*
X3087Y779D02*
X3162D01*
X3087D02*
Y819D01*
X3162Y779D02*
Y819D01*
X2879Y183D02*
Y219D01*
X2950Y183D02*
Y219D01*
X2879D02*
X2950D01*
X2879Y183D02*
X2950D01*
X2904Y201D02*
X2926D01*
X2915Y190D02*
Y212D01*
X2950Y282D02*
Y318D01*
X2879Y282D02*
Y318D01*
Y282D02*
X2950D01*
X2879Y318D02*
X2950D01*
X274Y267D02*
X349D01*
X301Y287D02*
X322D01*
X312Y276D02*
Y298D01*
X916Y399D02*
Y438D01*
X991Y399D02*
Y438D01*
X916D02*
X991D01*
X916Y399D02*
X991D01*
X943Y418D02*
X965D01*
X954Y407D02*
Y429D01*
X1000Y533D02*
Y572D01*
X925Y533D02*
Y572D01*
Y533D02*
X1000D01*
X925Y572D02*
X1000D01*
X952Y553D02*
X974D01*
X963Y542D02*
Y563D01*
X561Y348D02*
X600D01*
X561Y423D02*
X600D01*
X561Y348D02*
Y423D01*
X600Y348D02*
Y423D01*
X580Y375D02*
Y397D01*
X569Y386D02*
X591D01*
X509Y423D02*
X548D01*
X509Y348D02*
X548D01*
Y423D01*
X509Y348D02*
Y423D01*
X528Y375D02*
Y397D01*
X518Y386D02*
X539D01*
X672Y141D02*
Y181D01*
X598Y141D02*
Y181D01*
Y141D02*
X672D01*
X598Y181D02*
X672D01*
X624Y161D02*
X646D01*
X635Y150D02*
Y172D01*
X823Y141D02*
Y181D01*
X897Y141D02*
Y181D01*
X823D02*
X897D01*
X823Y141D02*
X897D01*
X849Y161D02*
X871D01*
X860Y150D02*
Y172D01*
X561Y262D02*
X600D01*
X561Y336D02*
X600D01*
X561Y262D02*
Y336D01*
X600Y262D02*
Y336D01*
X580Y288D02*
Y310D01*
X569Y299D02*
X591D01*
X991Y299D02*
Y339D01*
X917Y299D02*
Y339D01*
Y299D02*
X991D01*
X917Y339D02*
X991D01*
X943Y319D02*
X965D01*
X954Y308D02*
Y330D01*
X75Y418D02*
X114D01*
X75Y492D02*
X114D01*
X75Y418D02*
Y492D01*
X114Y418D02*
Y492D01*
X94Y444D02*
Y466D01*
X84Y455D02*
X105D01*
X150Y394D02*
Y433D01*
X225Y394D02*
Y433D01*
X150D02*
X225D01*
X150Y394D02*
X225D01*
X177Y413D02*
X199D01*
X188Y402D02*
Y424D01*
X392Y394D02*
Y433D01*
M02*
