G04*
G04 #@! TF.GenerationSoftware,Altium Limited,Altium Designer,24.2.2 (26)*
G04*
G04 Layer_Color=16711935*
%FSLAX23Y23*%
%MOIN*%
G70*
G04*
G04 #@! TF.SameCoordinates,485C1437-8325-44BD-8A32-A566A60D5BA3*
G04*
G04*
G04 #@! TF.FilePolarity,Negative*
G04*
G01*
G75*
%ADD40R,0.077X0.053*%
%ADD41R,0.053X0.077*%
%ADD45C,0.067*%
%ADD46R,0.067X0.067*%
%ADD50C,0.050*%
D40*
X759Y315D02*
D03*
Y205D02*
D03*
X861Y315D02*
D03*
Y205D02*
D03*
D41*
X665Y180D02*
D03*
X555D02*
D03*
X135Y890D02*
D03*
X245D02*
D03*
D45*
X3145Y80D02*
D03*
X3045D02*
D03*
X2945D02*
D03*
X2845D02*
D03*
X2745D02*
D03*
X2645D02*
D03*
X2545D02*
D03*
X2445D02*
D03*
X2345D02*
D03*
X2245D02*
D03*
X2145D02*
D03*
X2045D02*
D03*
X1945D02*
D03*
X1845D02*
D03*
X1745D02*
D03*
X1645D02*
D03*
X1545D02*
D03*
X1445D02*
D03*
X1345D02*
D03*
X1245D02*
D03*
X1145D02*
D03*
X1045D02*
D03*
X945D02*
D03*
X845D02*
D03*
X745D02*
D03*
X645D02*
D03*
X545D02*
D03*
X445D02*
D03*
X345D02*
D03*
X245D02*
D03*
X145D02*
D03*
X150Y980D02*
D03*
X250D02*
D03*
X350D02*
D03*
X450D02*
D03*
X550D02*
D03*
X650D02*
D03*
X750D02*
D03*
X850D02*
D03*
X950D02*
D03*
X1050D02*
D03*
X1150D02*
D03*
X1250D02*
D03*
X1350D02*
D03*
X1450D02*
D03*
X1550D02*
D03*
X1650D02*
D03*
X1750D02*
D03*
X1850D02*
D03*
X1950D02*
D03*
X2050D02*
D03*
X2150D02*
D03*
X2250D02*
D03*
X2350D02*
D03*
X2450D02*
D03*
X2550D02*
D03*
X2650D02*
D03*
X2750D02*
D03*
X2850D02*
D03*
X2950D02*
D03*
X3050D02*
D03*
X3150D02*
D03*
D46*
X50Y80D02*
D03*
Y980D02*
D03*
D50*
X750Y585D02*
D03*
X1610Y200D02*
D03*
X1891Y585D02*
D03*
X3075Y771D02*
D03*
X2420Y535D02*
D03*
X3142Y757D02*
D03*
X3142Y289D02*
D03*
X2879Y819D02*
D03*
X485Y140D02*
D03*
X765Y384D02*
D03*
X860Y555D02*
D03*
M02*
