G04*
G04 #@! TF.GenerationSoftware,Altium Limited,Altium Designer,24.10.1 (45)*
G04*
G04 Layer_Color=8421504*
%FSLAX25Y25*%
%MOIN*%
G70*
G04*
G04 #@! TF.SameCoordinates,14948A98-C654-4A88-B0D0-9DEE250FE6C4*
G04*
G04*
G04 #@! TF.FilePolarity,Positive*
G04*
G01*
G75*
%ADD16R,0.08024X0.02260*%
%ADD17R,0.01570X0.02170*%
%ADD18R,0.03828X0.02197*%
%ADD19R,0.05600X0.01700*%
%ADD20R,0.05700X0.01800*%
%ADD21R,0.02559X0.02165*%
%ADD22R,0.03740X0.03543*%
%ADD23R,0.02441X0.02598*%
%ADD24R,0.02598X0.02441*%
%ADD25R,0.06890X0.04528*%
%ADD26R,0.03150X0.03150*%
%ADD27R,0.05142X0.04166*%
%ADD28R,0.04528X0.06890*%
%ADD29R,0.03543X0.03740*%
%ADD30R,0.02165X0.02559*%
%ADD31R,0.05709X0.04921*%
%ADD32R,0.03740X0.03937*%
%ADD33R,0.04331X0.02756*%
D16*
X66098Y44664D02*
D03*
Y49663D02*
D03*
Y54663D02*
D03*
Y59663D02*
D03*
Y64663D02*
D03*
Y69664D02*
D03*
Y74664D02*
D03*
X45476Y44664D02*
D03*
Y49663D02*
D03*
Y54663D02*
D03*
Y59663D02*
D03*
Y64663D02*
D03*
Y69664D02*
D03*
Y74664D02*
D03*
D17*
X122533Y90721D02*
D03*
X127651D02*
D03*
Y82921D02*
D03*
X125092D02*
D03*
X122533D02*
D03*
X235105Y22535D02*
D03*
X232546D02*
D03*
X229987D02*
D03*
Y14735D02*
D03*
X235105D02*
D03*
X237933Y83121D02*
D03*
X240492D02*
D03*
X243051D02*
D03*
Y90921D02*
D03*
X237933D02*
D03*
X119705Y22335D02*
D03*
X117146D02*
D03*
X114587D02*
D03*
Y14535D02*
D03*
X119705D02*
D03*
X292630Y14522D02*
D03*
X287512D02*
D03*
Y22322D02*
D03*
X290071D02*
D03*
X292630D02*
D03*
X295458Y90708D02*
D03*
X300576D02*
D03*
Y82908D02*
D03*
X298017D02*
D03*
X295458D02*
D03*
X177396Y14535D02*
D03*
X172278D02*
D03*
Y22335D02*
D03*
X174837D02*
D03*
X177396D02*
D03*
X180224Y90721D02*
D03*
X185342D02*
D03*
Y82921D02*
D03*
X182783D02*
D03*
X180224D02*
D03*
D18*
X102303Y88333D02*
D03*
Y84592D02*
D03*
Y80852D02*
D03*
X91575D02*
D03*
Y84592D02*
D03*
Y88333D02*
D03*
X207175Y23893D02*
D03*
Y20153D02*
D03*
Y16412D02*
D03*
X217903D02*
D03*
Y20153D02*
D03*
Y23893D02*
D03*
X206975Y88533D02*
D03*
Y84792D02*
D03*
Y81052D02*
D03*
X217703D02*
D03*
Y84792D02*
D03*
Y88533D02*
D03*
X149266Y88333D02*
D03*
Y84592D02*
D03*
Y80852D02*
D03*
X159994D02*
D03*
Y84592D02*
D03*
Y88333D02*
D03*
X275428Y23680D02*
D03*
Y19940D02*
D03*
Y16200D02*
D03*
X264700D02*
D03*
Y19940D02*
D03*
Y23680D02*
D03*
X275228Y88320D02*
D03*
Y84580D02*
D03*
Y80840D02*
D03*
X264500D02*
D03*
Y84580D02*
D03*
Y88320D02*
D03*
X160194Y23693D02*
D03*
Y19952D02*
D03*
Y16213D02*
D03*
X149466D02*
D03*
Y19952D02*
D03*
Y23693D02*
D03*
X91775D02*
D03*
Y19952D02*
D03*
Y16213D02*
D03*
X102503D02*
D03*
Y19952D02*
D03*
Y23693D02*
D03*
D19*
X121306Y55541D02*
D03*
Y63218D02*
D03*
Y60659D02*
D03*
Y58100D02*
D03*
X104206Y55541D02*
D03*
Y58100D02*
D03*
Y60659D02*
D03*
Y63218D02*
D03*
X219606Y63418D02*
D03*
Y60859D02*
D03*
Y58300D02*
D03*
Y55741D02*
D03*
X236706Y58300D02*
D03*
Y60859D02*
D03*
Y63418D02*
D03*
Y55741D02*
D03*
X294231Y55528D02*
D03*
Y63205D02*
D03*
Y60646D02*
D03*
Y58087D02*
D03*
X277131Y55528D02*
D03*
Y58087D02*
D03*
Y60646D02*
D03*
Y63205D02*
D03*
X178997Y55541D02*
D03*
Y63218D02*
D03*
Y60659D02*
D03*
Y58100D02*
D03*
X161897Y55541D02*
D03*
Y58100D02*
D03*
Y60659D02*
D03*
Y63218D02*
D03*
D20*
X103880Y40010D02*
D03*
Y42569D02*
D03*
Y45129D02*
D03*
Y47688D02*
D03*
X121203D02*
D03*
Y45129D02*
D03*
Y42569D02*
D03*
Y40010D02*
D03*
X161566D02*
D03*
Y42569D02*
D03*
Y45129D02*
D03*
Y47688D02*
D03*
X178888D02*
D03*
Y45129D02*
D03*
Y42569D02*
D03*
Y40010D02*
D03*
X219274Y40210D02*
D03*
Y42769D02*
D03*
Y45329D02*
D03*
Y47888D02*
D03*
X236597D02*
D03*
Y45329D02*
D03*
Y42769D02*
D03*
Y40210D02*
D03*
X294122Y39998D02*
D03*
Y42557D02*
D03*
Y45116D02*
D03*
Y47675D02*
D03*
X276800D02*
D03*
Y45116D02*
D03*
Y42557D02*
D03*
Y39998D02*
D03*
D21*
X209395Y45348D02*
D03*
X212741D02*
D03*
X246841Y46292D02*
D03*
X243495D02*
D03*
X209395Y41490D02*
D03*
X212741D02*
D03*
X246841Y41793D02*
D03*
X243495D02*
D03*
X243595Y55291D02*
D03*
X246941D02*
D03*
X243495Y37293D02*
D03*
X246841D02*
D03*
X213041Y53390D02*
D03*
X209695D02*
D03*
Y57290D02*
D03*
X213041D02*
D03*
X246841Y59791D02*
D03*
X243495D02*
D03*
X209695Y61090D02*
D03*
X213041D02*
D03*
X246841Y64290D02*
D03*
X243495D02*
D03*
X246941Y68790D02*
D03*
X243595D02*
D03*
X213041Y65490D02*
D03*
X209695D02*
D03*
X213041Y69287D02*
D03*
X209695D02*
D03*
X55198Y90319D02*
D03*
X58545D02*
D03*
X73094Y69664D02*
D03*
X76441D02*
D03*
X185786Y41592D02*
D03*
X189132D02*
D03*
X189232Y55091D02*
D03*
X185886D02*
D03*
X189132Y37093D02*
D03*
X185786D02*
D03*
X151986Y53190D02*
D03*
X155332D02*
D03*
Y57090D02*
D03*
X151986D02*
D03*
X185786Y59591D02*
D03*
X189132D02*
D03*
X155332Y60890D02*
D03*
X151986D02*
D03*
X185786Y64090D02*
D03*
X189132D02*
D03*
X185886Y68590D02*
D03*
X189232D02*
D03*
X151986Y65290D02*
D03*
X155332D02*
D03*
X151986Y69086D02*
D03*
X155332D02*
D03*
X270266Y45136D02*
D03*
X266920D02*
D03*
X301020Y46080D02*
D03*
X304366D02*
D03*
X270266Y41277D02*
D03*
X266920D02*
D03*
X301020Y41580D02*
D03*
X304366D02*
D03*
X304466Y55079D02*
D03*
X301120D02*
D03*
X304366Y37080D02*
D03*
X301020D02*
D03*
X267220Y53177D02*
D03*
X270566D02*
D03*
Y57077D02*
D03*
X267220D02*
D03*
X301020Y59578D02*
D03*
X304366D02*
D03*
X270566Y60877D02*
D03*
X267220D02*
D03*
X301020Y64078D02*
D03*
X304366D02*
D03*
X301120Y68577D02*
D03*
X304466D02*
D03*
X267220Y65277D02*
D03*
X270566D02*
D03*
X267220Y69074D02*
D03*
X270566D02*
D03*
X155032Y45148D02*
D03*
X151686D02*
D03*
X185786Y46092D02*
D03*
X189132D02*
D03*
X155032Y41290D02*
D03*
X151686D02*
D03*
X93995Y45148D02*
D03*
X97341D02*
D03*
X131441Y46092D02*
D03*
X128095D02*
D03*
X93995Y41290D02*
D03*
X97341D02*
D03*
X131441Y41592D02*
D03*
X128095D02*
D03*
X128195Y55091D02*
D03*
X131541D02*
D03*
X128095Y37093D02*
D03*
X131441D02*
D03*
X97641Y53190D02*
D03*
X94295D02*
D03*
Y57090D02*
D03*
X97641D02*
D03*
X131441Y59591D02*
D03*
X128095D02*
D03*
X94295Y60890D02*
D03*
X97641D02*
D03*
X131441Y64090D02*
D03*
X128095D02*
D03*
X131541Y68590D02*
D03*
X128195D02*
D03*
X97641Y65290D02*
D03*
X94295D02*
D03*
X97641Y69086D02*
D03*
X94295D02*
D03*
D22*
X236574Y28870D02*
D03*
X230865D02*
D03*
X248896Y28916D02*
D03*
X243187D02*
D03*
X237574Y76870D02*
D03*
X231865D02*
D03*
X249323D02*
D03*
X243614D02*
D03*
X37319Y46766D02*
D03*
X31610D02*
D03*
X52910Y37966D02*
D03*
X58618D02*
D03*
X79818Y46466D02*
D03*
X74110D02*
D03*
X185478Y28716D02*
D03*
X191187D02*
D03*
X174156Y76670D02*
D03*
X179865D02*
D03*
X185905D02*
D03*
X191613D02*
D03*
X288390Y28658D02*
D03*
X294098D02*
D03*
X300712Y28703D02*
D03*
X306421D02*
D03*
X289390Y76658D02*
D03*
X295098D02*
D03*
X173156Y28670D02*
D03*
X178865D02*
D03*
X121174D02*
D03*
X115465D02*
D03*
X133496Y28716D02*
D03*
X127787D02*
D03*
X122174Y76670D02*
D03*
X116465D02*
D03*
X133923D02*
D03*
X128214D02*
D03*
X301139Y76658D02*
D03*
X306847D02*
D03*
D23*
X223468Y20710D02*
D03*
Y24174D02*
D03*
X244674Y18052D02*
D03*
Y14587D02*
D03*
X240474D02*
D03*
Y18052D02*
D03*
X223139Y83753D02*
D03*
Y80288D02*
D03*
X228604Y86343D02*
D03*
Y89808D02*
D03*
X232804D02*
D03*
Y86343D02*
D03*
X28866Y81688D02*
D03*
Y85153D02*
D03*
X302199Y14375D02*
D03*
Y17839D02*
D03*
X297999D02*
D03*
Y14375D02*
D03*
X280664Y80076D02*
D03*
Y83540D02*
D03*
X286128Y89595D02*
D03*
Y86131D02*
D03*
X290329D02*
D03*
Y89595D02*
D03*
X165759Y23975D02*
D03*
Y20510D02*
D03*
X186965Y14387D02*
D03*
Y17852D02*
D03*
X182765Y17852D02*
D03*
Y14387D02*
D03*
X165430Y80089D02*
D03*
Y83553D02*
D03*
X170895Y89608D02*
D03*
Y86143D02*
D03*
X175095D02*
D03*
Y89608D02*
D03*
X125074Y14387D02*
D03*
Y17852D02*
D03*
X108068Y20510D02*
D03*
Y23975D02*
D03*
X129274Y17852D02*
D03*
Y14387D02*
D03*
X107739Y83553D02*
D03*
Y80089D02*
D03*
X113204Y86143D02*
D03*
Y89608D02*
D03*
X117403D02*
D03*
Y86143D02*
D03*
X280993Y23962D02*
D03*
Y20497D02*
D03*
D24*
X212801Y37490D02*
D03*
X209336D02*
D03*
X212901Y49390D02*
D03*
X209436D02*
D03*
X243636Y50988D02*
D03*
X247101D02*
D03*
X230553Y69090D02*
D03*
X234017D02*
D03*
X225701D02*
D03*
X222236D02*
D03*
X34632Y56565D02*
D03*
X38096D02*
D03*
X38096Y61066D02*
D03*
X34632D02*
D03*
X76696Y64663D02*
D03*
X73232D02*
D03*
X73232Y74664D02*
D03*
X76696D02*
D03*
X38096Y52065D02*
D03*
X34632D02*
D03*
X34632Y41366D02*
D03*
X38096D02*
D03*
X73232Y51565D02*
D03*
X76696D02*
D03*
X76696Y41166D02*
D03*
X73232D02*
D03*
X20166Y17040D02*
D03*
X23631D02*
D03*
X20166Y24529D02*
D03*
X23631D02*
D03*
X266861Y37277D02*
D03*
X270325D02*
D03*
X266961Y49177D02*
D03*
X270425D02*
D03*
X304625Y50776D02*
D03*
X301161D02*
D03*
X291542Y68877D02*
D03*
X288078D02*
D03*
X279761D02*
D03*
X283225D02*
D03*
X151627Y37290D02*
D03*
X155091D02*
D03*
X151727Y49190D02*
D03*
X155191D02*
D03*
X189391Y50788D02*
D03*
X185927D02*
D03*
X176308Y68890D02*
D03*
X172844D02*
D03*
X164527D02*
D03*
X167991D02*
D03*
X97400Y37290D02*
D03*
X93936D02*
D03*
X97500Y49190D02*
D03*
X94036D02*
D03*
X128236Y50788D02*
D03*
X131701D02*
D03*
X115153Y68890D02*
D03*
X118617D02*
D03*
X110301D02*
D03*
X106836D02*
D03*
D25*
X38096Y28837D02*
D03*
Y17813D02*
D03*
X52097Y28837D02*
D03*
Y17813D02*
D03*
X66098Y28837D02*
D03*
Y17813D02*
D03*
D26*
X50853Y90320D02*
D03*
X44956Y90319D02*
D03*
D27*
X21822Y85221D02*
D03*
X15711D02*
D03*
D28*
X24278Y69621D02*
D03*
X13254D02*
D03*
D29*
X26464Y53711D02*
D03*
Y59420D02*
D03*
D30*
X76964Y59739D02*
D03*
Y56392D02*
D03*
D31*
X6466Y85169D02*
D03*
Y78673D02*
D03*
D32*
X34266Y85173D02*
D03*
Y79268D02*
D03*
D33*
X4800Y24528D02*
D03*
Y20788D02*
D03*
Y17040D02*
D03*
X14989D02*
D03*
Y24520D02*
D03*
M02*
