G04*
G04 #@! TF.GenerationSoftware,Altium Limited,Altium Designer,24.10.1 (45)*
G04*
G04 Layer_Color=16711935*
%FSLAX25Y25*%
%MOIN*%
G70*
G04*
G04 #@! TF.SameCoordinates,14948A98-C654-4A88-B0D0-9DEE250FE6C4*
G04*
G04*
G04 #@! TF.FilePolarity,Negative*
G04*
G01*
G75*
%ADD50C,0.06706*%
G04:AMPARAMS|DCode=55|XSize=59.06mil|YSize=59.06mil|CornerRadius=14.76mil|HoleSize=0mil|Usage=FLASHONLY|Rotation=0.000|XOffset=0mil|YOffset=0mil|HoleType=Round|Shape=RoundedRectangle|*
%AMROUNDEDRECTD55*
21,1,0.05906,0.02953,0,0,0.0*
21,1,0.02953,0.05906,0,0,0.0*
1,1,0.02953,0.01476,-0.01476*
1,1,0.02953,-0.01476,-0.01476*
1,1,0.02953,-0.01476,0.01476*
1,1,0.02953,0.01476,0.01476*
%
%ADD55ROUNDEDRECTD55*%
D50*
X115000Y98000D02*
D03*
X105000D02*
D03*
X125000D02*
D03*
X85000D02*
D03*
X95000D02*
D03*
X155000D02*
D03*
X165000D02*
D03*
X135000D02*
D03*
X145000D02*
D03*
X25000D02*
D03*
X35000D02*
D03*
X5000D02*
D03*
X15000D02*
D03*
X65000D02*
D03*
X75000D02*
D03*
X45000D02*
D03*
X55000D02*
D03*
X265000D02*
D03*
X275000D02*
D03*
X255000D02*
D03*
X305000D02*
D03*
X315098D02*
D03*
X285000D02*
D03*
X295000D02*
D03*
X195000D02*
D03*
X205000D02*
D03*
X175000D02*
D03*
X185000D02*
D03*
X235000D02*
D03*
X245000D02*
D03*
X215000D02*
D03*
X225000D02*
D03*
X205000Y8000D02*
D03*
X215000D02*
D03*
X195000D02*
D03*
X235000D02*
D03*
X225000D02*
D03*
X165000D02*
D03*
X155000D02*
D03*
X185000D02*
D03*
X175000D02*
D03*
X295000D02*
D03*
X285000D02*
D03*
X315098D02*
D03*
X305000D02*
D03*
X255000D02*
D03*
X245000D02*
D03*
X275000D02*
D03*
X265000D02*
D03*
X55000D02*
D03*
X45000D02*
D03*
X65000D02*
D03*
X15000D02*
D03*
X5000D02*
D03*
X35000D02*
D03*
X25000D02*
D03*
X125000D02*
D03*
X115000D02*
D03*
X145000D02*
D03*
X135000D02*
D03*
X85000D02*
D03*
X75000D02*
D03*
X105000D02*
D03*
X95000D02*
D03*
D55*
X252119Y72239D02*
D03*
X228559Y50245D02*
D03*
X206815Y30000D02*
D03*
X251680Y19850D02*
D03*
X309644Y72026D02*
D03*
X286084Y50033D02*
D03*
X264340Y29787D02*
D03*
X309205Y19637D02*
D03*
X194410Y72039D02*
D03*
X170850Y50045D02*
D03*
X149106Y29800D02*
D03*
X193971Y19650D02*
D03*
X136719Y72039D02*
D03*
X113160Y50045D02*
D03*
X91415Y29800D02*
D03*
X136280Y19650D02*
D03*
M02*
