G04*
G04 #@! TF.GenerationSoftware,Altium Limited,Altium Designer,24.10.1 (45)*
G04*
G04 Layer_Color=128*
%FSLAX25Y25*%
%MOIN*%
G70*
G04*
G04 #@! TF.SameCoordinates,14948A98-C654-4A88-B0D0-9DEE250FE6C4*
G04*
G04*
G04 #@! TF.FilePolarity,Positive*
G04*
G01*
G75*
%ADD62C,0.00500*%
D62*
X113228Y98000D02*
X116772D01*
X115000Y96228D02*
Y99772D01*
X103228Y98000D02*
X106772D01*
X105000Y96228D02*
Y99772D01*
X123228Y98000D02*
X126772D01*
X125000Y96228D02*
Y99772D01*
X83228Y98000D02*
X86772D01*
X85000Y96228D02*
Y99772D01*
X93228Y98000D02*
X96772D01*
X95000Y96228D02*
Y99772D01*
X153228Y98000D02*
X156772D01*
X155000Y96228D02*
Y99772D01*
X163228Y98000D02*
X166772D01*
X165000Y96228D02*
Y99772D01*
X133228Y98000D02*
X136772D01*
X135000Y96228D02*
Y99772D01*
X143228Y98000D02*
X146772D01*
X145000Y96228D02*
Y99772D01*
X23228Y98000D02*
X26772D01*
X25000Y96228D02*
Y99772D01*
X33228Y98000D02*
X36772D01*
X35000Y96228D02*
Y99772D01*
X3228Y98000D02*
X6772D01*
X5000Y96228D02*
Y99772D01*
X13228Y98000D02*
X16772D01*
X15000Y96228D02*
Y99772D01*
X63228Y98000D02*
X66772D01*
X65000Y96228D02*
Y99772D01*
X73228Y98000D02*
X76772D01*
X75000Y96228D02*
Y99772D01*
X43228Y98000D02*
X46772D01*
X45000Y96228D02*
Y99772D01*
X53228Y98000D02*
X56772D01*
X55000Y96228D02*
Y99772D01*
X263228Y98000D02*
X266772D01*
X265000Y96228D02*
Y99772D01*
X273228Y98000D02*
X276772D01*
X275000Y96228D02*
Y99772D01*
X253228Y98000D02*
X256772D01*
X255000Y96228D02*
Y99772D01*
X303228Y98000D02*
X306772D01*
X305000Y96228D02*
Y99772D01*
X313327Y98000D02*
X316870D01*
X315098Y96228D02*
Y99772D01*
X283228Y98000D02*
X286772D01*
X285000Y96228D02*
Y99772D01*
X293228Y98000D02*
X296772D01*
X295000Y96228D02*
Y99772D01*
X193228Y98000D02*
X196772D01*
X195000Y96228D02*
Y99772D01*
X203228Y98000D02*
X206772D01*
X205000Y96228D02*
Y99772D01*
X173228Y98000D02*
X176772D01*
X175000Y96228D02*
Y99772D01*
X183228Y98000D02*
X186772D01*
X185000Y96228D02*
Y99772D01*
X233228Y98000D02*
X236772D01*
X235000Y96228D02*
Y99772D01*
X243228Y98000D02*
X246772D01*
X245000Y96228D02*
Y99772D01*
X213228Y98000D02*
X216772D01*
X215000Y96228D02*
Y99772D01*
X223228Y98000D02*
X226772D01*
X225000Y96228D02*
Y99772D01*
X203228Y8000D02*
X206772D01*
X205000Y6228D02*
Y9772D01*
X213228Y8000D02*
X216772D01*
X215000Y6228D02*
Y9772D01*
X193228Y8000D02*
X196772D01*
X195000Y6228D02*
Y9772D01*
X233228Y8000D02*
X236772D01*
X235000Y6228D02*
Y9772D01*
X223228Y8000D02*
X226772D01*
X225000Y6228D02*
Y9772D01*
X163228Y8000D02*
X166772D01*
X165000Y6228D02*
Y9772D01*
X153228Y8000D02*
X156772D01*
X155000Y6228D02*
Y9772D01*
X183228Y8000D02*
X186772D01*
X185000Y6228D02*
Y9772D01*
X173228Y8000D02*
X176772D01*
X175000Y6228D02*
Y9772D01*
X293228Y8000D02*
X296772D01*
X295000Y6228D02*
Y9772D01*
X283228Y8000D02*
X286772D01*
X285000Y6228D02*
Y9772D01*
X313327Y8000D02*
X316870D01*
X315098Y6228D02*
Y9772D01*
X303228Y8000D02*
X306772D01*
X305000Y6228D02*
Y9772D01*
X253228Y8000D02*
X256772D01*
X255000Y6228D02*
Y9772D01*
X243228Y8000D02*
X246772D01*
X245000Y6228D02*
Y9772D01*
X273228Y8000D02*
X276772D01*
X275000Y6228D02*
Y9772D01*
X263228Y8000D02*
X266772D01*
X265000Y6228D02*
Y9772D01*
X53228Y8000D02*
X56772D01*
X55000Y6228D02*
Y9772D01*
X43228Y8000D02*
X46772D01*
X45000Y6228D02*
Y9772D01*
X63228Y8000D02*
X66772D01*
X65000Y6228D02*
Y9772D01*
X13228Y8000D02*
X16772D01*
X15000Y6228D02*
Y9772D01*
X3228Y8000D02*
X6772D01*
X5000Y6228D02*
Y9772D01*
X33228Y8000D02*
X36772D01*
X35000Y6228D02*
Y9772D01*
X23228Y8000D02*
X26772D01*
X25000Y6228D02*
Y9772D01*
X123228Y8000D02*
X126772D01*
X125000Y6228D02*
Y9772D01*
X113228Y8000D02*
X116772D01*
X115000Y6228D02*
Y9772D01*
X143228Y8000D02*
X146772D01*
X145000Y6228D02*
Y9772D01*
X133228Y8000D02*
X136772D01*
X135000Y6228D02*
Y9772D01*
X83228Y8000D02*
X86772D01*
X85000Y6228D02*
Y9772D01*
X73228Y8000D02*
X76772D01*
X75000Y6228D02*
Y9772D01*
X103228Y8000D02*
X106772D01*
X105000Y6228D02*
Y9772D01*
X93228Y8000D02*
X96772D01*
X95000Y6228D02*
Y9772D01*
X280931Y55528D02*
X282131D01*
X281531Y54928D02*
Y56128D01*
X282710Y65234D02*
X283910D01*
X283310Y64634D02*
Y65834D01*
X293841Y68877D02*
X295041D01*
X294441Y68277D02*
Y69477D01*
X90768Y69087D02*
X91968D01*
X91368Y68488D02*
Y69687D01*
X102968Y68890D02*
X104168D01*
X103568Y68290D02*
Y69490D01*
X120917Y68890D02*
X122117D01*
X121517Y68290D02*
Y69490D01*
X248019Y88533D02*
X249219D01*
X248619Y87933D02*
Y89133D01*
X249121Y37292D02*
X250321D01*
X249721Y36692D02*
Y37892D01*
X212200Y34563D02*
X213400D01*
X212800Y33963D02*
Y35163D01*
X226500Y39200D02*
X227700D01*
X227100Y38600D02*
Y39800D01*
X217441Y29557D02*
X218640D01*
X218040Y28958D02*
Y30158D01*
X249400Y50988D02*
X250600D01*
X250000Y50388D02*
Y51588D01*
X223130Y47888D02*
X224330D01*
X223730Y47287D02*
Y48487D01*
X223130Y42687D02*
X224330D01*
X223730Y42088D02*
Y43288D01*
X236919Y50987D02*
X238119D01*
X237519Y50388D02*
Y51587D01*
X231300Y45300D02*
X232500D01*
X231900Y44700D02*
Y45900D01*
X249120Y41793D02*
X250320D01*
X249720Y41192D02*
Y42393D01*
X231553Y40210D02*
X232753D01*
X232153Y39610D02*
Y40810D01*
X249121Y46292D02*
X250321D01*
X249721Y45692D02*
Y46892D01*
X208735Y34563D02*
X209935D01*
X209335Y33963D02*
Y35163D01*
X209889Y81052D02*
X211089D01*
X210489Y80452D02*
Y81652D01*
X206168Y69288D02*
X207368D01*
X206768Y68687D02*
Y69888D01*
X206215Y57291D02*
X207415D01*
X206815Y56691D02*
Y57891D01*
X205868Y41491D02*
X207068D01*
X206468Y40891D02*
Y42091D01*
X206168Y53391D02*
X207368D01*
X206768Y52791D02*
Y53991D01*
X205868Y45349D02*
X207068D01*
X206468Y44749D02*
Y45949D01*
X205909Y49391D02*
X207109D01*
X206509Y48791D02*
Y49991D01*
X247197Y14587D02*
X248396D01*
X247797Y13987D02*
Y15187D01*
X231594Y55699D02*
X232794D01*
X232194Y55099D02*
Y56299D01*
X223406Y55741D02*
X224606D01*
X224006Y55141D02*
Y56341D01*
X210226Y16412D02*
X211426D01*
X210826Y15812D02*
Y17012D01*
X210226Y20153D02*
X211426D01*
X210826Y19553D02*
Y20753D01*
X249221Y54978D02*
X250421D01*
X249821Y54378D02*
Y55578D01*
X211551Y29431D02*
X212751D01*
X212151Y28831D02*
Y30031D01*
X222868Y17570D02*
X224068D01*
X223468Y16970D02*
Y18170D01*
X239860Y21345D02*
X241060D01*
X240460Y20745D02*
Y21945D01*
X222868Y27170D02*
X224068D01*
X223468Y26570D02*
Y27770D01*
X248019Y24729D02*
X249219D01*
X248619Y24129D02*
Y25329D01*
X244074Y21345D02*
X245274D01*
X244674Y20745D02*
Y21945D01*
X231987Y19850D02*
X233187D01*
X232587Y19250D02*
Y20450D01*
X239860Y85814D02*
X241060D01*
X240460Y85214D02*
Y86414D01*
X249121Y81052D02*
X250321D01*
X249721Y80452D02*
Y81652D01*
X232204Y83192D02*
X233403D01*
X232804Y82592D02*
Y83792D01*
X227959Y92800D02*
X229159D01*
X228559Y92200D02*
Y93400D01*
X227959Y83170D02*
X229159D01*
X228559Y82570D02*
Y83770D01*
X218368Y69090D02*
X219568D01*
X218968Y68490D02*
Y69690D01*
X225185Y65446D02*
X226385D01*
X225785Y64846D02*
Y66046D01*
X236317Y69090D02*
X237517D01*
X236917Y68490D02*
Y69690D01*
X222539Y76970D02*
X223739D01*
X223139Y76370D02*
Y77570D01*
X222501Y86892D02*
X223701D01*
X223101Y86292D02*
Y87492D01*
X209889Y84792D02*
X211089D01*
X210489Y84192D02*
Y85392D01*
X246319Y71570D02*
X247519D01*
X246919Y70970D02*
Y72170D01*
X249221Y92800D02*
X250421D01*
X249821Y92200D02*
Y93400D01*
X199352Y92800D02*
X200552D01*
X199952Y92200D02*
Y93400D01*
X269076Y29570D02*
X270276D01*
X269676Y28970D02*
Y30170D01*
X274965Y29431D02*
X276165D01*
X275565Y28831D02*
Y30031D01*
X208735Y93900D02*
X209935D01*
X209335Y93300D02*
Y94500D01*
X194110Y92090D02*
X195310D01*
X194710Y91490D02*
Y92690D01*
X189200Y93900D02*
X190400D01*
X189800Y93300D02*
Y94500D01*
X182197Y80288D02*
X183397D01*
X182797Y79689D02*
Y80888D01*
X152180Y88251D02*
X153380D01*
X152780Y87651D02*
Y88851D01*
X130468Y90631D02*
X131668D01*
X131068Y90031D02*
Y91231D01*
X170295Y101953D02*
X171495D01*
X170895Y101353D02*
Y102553D01*
X159900Y101900D02*
X161100D01*
X160500Y101300D02*
Y102500D01*
X58900Y69410D02*
X60100D01*
X59500Y68810D02*
Y70010D01*
X51497Y64607D02*
X52697D01*
X52097Y64007D02*
Y65207D01*
X31010Y17813D02*
X32210D01*
X31610Y17213D02*
Y18413D01*
X58900Y17700D02*
X60100D01*
X59500Y17100D02*
Y18300D01*
X71680Y28837D02*
X72879D01*
X72280Y28237D02*
Y29437D01*
X19562Y20510D02*
X20762D01*
X20162Y19910D02*
Y21110D01*
X37575Y64698D02*
X38775D01*
X38175Y64098D02*
Y65298D01*
X30713Y52041D02*
X31913D01*
X31313Y51441D02*
Y52641D01*
X19566Y27924D02*
X20766D01*
X20166Y27325D02*
Y28525D01*
X23031Y20231D02*
X24231D01*
X23631Y19631D02*
Y20831D01*
X23108Y27924D02*
X24308D01*
X23708Y27325D02*
Y28525D01*
X7835Y20788D02*
X9035D01*
X8435Y20188D02*
Y21388D01*
X44400Y13453D02*
X45600D01*
X45000Y12853D02*
Y14052D01*
X40800Y90344D02*
X42000D01*
X41400Y89744D02*
Y90944D01*
X60996Y90319D02*
X62196D01*
X61596Y89719D02*
Y90919D01*
X5866Y90513D02*
X7066D01*
X6466Y89913D02*
Y91113D01*
X28276Y69621D02*
X29476D01*
X28876Y69021D02*
Y70221D01*
X7835Y69621D02*
X9035D01*
X8435Y69021D02*
Y70221D01*
X5866Y73921D02*
X7066D01*
X6466Y73321D02*
Y74521D01*
X28276Y78289D02*
X29476D01*
X28876Y77689D02*
Y78889D01*
X33656Y75180D02*
X34856D01*
X34256Y74580D02*
Y75780D01*
X33656Y89964D02*
X34856D01*
X34256Y89364D02*
Y90564D01*
X28276Y89419D02*
X29476D01*
X28876Y88819D02*
Y90019D01*
X39543Y69664D02*
X40743D01*
X40143Y69064D02*
Y70263D01*
X60064Y49663D02*
X61264D01*
X60664Y49064D02*
Y50264D01*
X79837Y56565D02*
X81037D01*
X80437Y55966D02*
Y57165D01*
X79219Y64732D02*
X80418D01*
X79818Y64132D02*
Y65332D01*
X71680Y59663D02*
X72879D01*
X72280Y59064D02*
Y60264D01*
X79219Y51565D02*
X80418D01*
X79818Y50965D02*
Y52166D01*
X25764Y63565D02*
X26964D01*
X26364Y62966D02*
Y64166D01*
X30764Y56565D02*
X31964D01*
X31364Y55966D02*
Y57165D01*
X30764Y61066D02*
X31964D01*
X31364Y60466D02*
Y61665D01*
X116153Y40010D02*
X117353D01*
X116753Y39410D02*
Y40610D01*
X116153Y40010D02*
X117353D01*
X116753Y39410D02*
Y40610D01*
X179210Y50788D02*
X180410D01*
X179810Y50187D02*
Y51388D01*
X168910Y38856D02*
X170110D01*
X169510Y38256D02*
Y39456D01*
X152517Y19953D02*
X153717D01*
X153117Y19353D02*
Y20553D01*
X152517Y16213D02*
X153717D01*
X153117Y15612D02*
Y16813D01*
X173844Y40010D02*
X175044D01*
X174444Y39410D02*
Y40610D01*
X173591Y45100D02*
X174791D01*
X174191Y44500D02*
Y45700D01*
X148459Y69087D02*
X149659D01*
X149059Y68488D02*
Y69687D01*
X165421Y47688D02*
X166621D01*
X166021Y47087D02*
Y48287D01*
X188610Y71370D02*
X189810D01*
X189210Y70770D02*
Y71970D01*
X148159Y41291D02*
X149359D01*
X148759Y40691D02*
Y41891D01*
X165421Y42487D02*
X166621D01*
X166021Y41888D02*
Y43088D01*
X174278Y19650D02*
X175478D01*
X174878Y19050D02*
Y20250D01*
X165697Y55541D02*
X166897D01*
X166297Y54941D02*
Y56141D01*
X173886Y55499D02*
X175085D01*
X174486Y54899D02*
Y56099D01*
X152180Y84592D02*
X153380D01*
X152780Y83992D02*
Y85192D01*
X152180Y80852D02*
X153380D01*
X152780Y80252D02*
Y81452D01*
X190310Y24529D02*
X191510D01*
X190910Y23929D02*
Y25129D01*
X191411Y41592D02*
X192611D01*
X192011Y40993D02*
Y42193D01*
X148159Y45149D02*
X149359D01*
X148759Y44549D02*
Y45749D01*
X191412Y46092D02*
X192612D01*
X192012Y45492D02*
Y46692D01*
X191512Y55091D02*
X192712D01*
X192112Y54491D02*
Y55691D01*
X191412Y37092D02*
X192612D01*
X192012Y36492D02*
Y37692D01*
X148459Y53191D02*
X149659D01*
X149059Y52591D02*
Y53791D01*
X90468Y41291D02*
X91668D01*
X91068Y40691D02*
Y41891D01*
X107730Y42487D02*
X108930D01*
X108330Y41888D02*
Y43088D01*
X148506Y57091D02*
X149706D01*
X149106Y56491D02*
Y57691D01*
X191412Y80852D02*
X192612D01*
X192012Y80252D02*
Y81452D01*
X165158Y17370D02*
X166358D01*
X165759Y16770D02*
Y17970D01*
X165158Y26970D02*
X166358D01*
X165759Y26370D02*
Y27570D01*
X154491Y34363D02*
X155691D01*
X155091Y33763D02*
Y34963D01*
X151026Y34363D02*
X152226D01*
X151626Y33763D02*
Y34963D01*
X186365Y21145D02*
X187565D01*
X186965Y20545D02*
Y21745D01*
X189487Y14387D02*
X190687D01*
X190087Y13787D02*
Y14987D01*
X182151Y21145D02*
X183351D01*
X182751Y20545D02*
Y21745D01*
X148200Y49191D02*
X149400D01*
X148800Y48591D02*
Y49791D01*
X164791Y86692D02*
X165991D01*
X165391Y86092D02*
Y87292D01*
X164830Y76770D02*
X166030D01*
X165430Y76170D02*
Y77370D01*
X191691Y50788D02*
X192891D01*
X192291Y50188D02*
Y51388D01*
X178607Y68890D02*
X179807D01*
X179207Y68290D02*
Y69490D01*
X167475Y65246D02*
X168675D01*
X168076Y64646D02*
Y65846D01*
X160659Y68890D02*
X161859D01*
X161259Y68290D02*
Y69490D01*
X170250Y82970D02*
X171450D01*
X170850Y82370D02*
Y83570D01*
X170250Y92600D02*
X171450D01*
X170850Y92000D02*
Y93200D01*
X174495Y82992D02*
X175695D01*
X175095Y82392D02*
Y83592D01*
X267751Y19940D02*
X268951D01*
X268351Y19340D02*
Y20540D01*
X267751Y16200D02*
X268951D01*
X268351Y15600D02*
Y16800D01*
X289078Y39998D02*
X290278D01*
X289678Y39398D02*
Y40598D01*
X288825Y45088D02*
X290025D01*
X289425Y44488D02*
Y45687D01*
X263693Y69075D02*
X264893D01*
X264293Y68475D02*
Y69675D01*
X294444Y50775D02*
X295644D01*
X295044Y50175D02*
Y51375D01*
X280655Y47675D02*
X281855D01*
X281255Y47075D02*
Y48275D01*
X303844Y71358D02*
X305044D01*
X304444Y70758D02*
Y71958D01*
X263393Y41278D02*
X264593D01*
X263993Y40678D02*
Y41878D01*
X280655Y42475D02*
X281855D01*
X281255Y41875D02*
Y43075D01*
X289512Y19637D02*
X290712D01*
X290112Y19037D02*
Y20237D01*
X289120Y55486D02*
X290319D01*
X289720Y54886D02*
Y56086D01*
X306646Y37080D02*
X307846D01*
X307246Y36480D02*
Y37680D01*
X267414Y84580D02*
X268614D01*
X268014Y83980D02*
Y85180D01*
X267414Y80840D02*
X268614D01*
X268014Y80240D02*
Y81440D01*
X297385Y85602D02*
X298585D01*
X297985Y85002D02*
Y86202D01*
X305544Y24516D02*
X306744D01*
X306144Y23916D02*
Y25116D01*
X306645Y41580D02*
X307845D01*
X307245Y40980D02*
Y42180D01*
X263393Y45136D02*
X264593D01*
X263993Y44537D02*
Y45737D01*
X306646Y46079D02*
X307846D01*
X307246Y45479D02*
Y46679D01*
X306746Y55078D02*
X307946D01*
X307346Y54478D02*
Y55678D01*
X263693Y53178D02*
X264893D01*
X264293Y52578D02*
Y53778D01*
X263740Y57078D02*
X264940D01*
X264340Y56478D02*
Y57678D01*
X306646Y80840D02*
X307846D01*
X307246Y80240D02*
Y81440D01*
X280393Y17358D02*
X281592D01*
X280993Y16758D02*
Y17958D01*
X280393Y26957D02*
X281592D01*
X280993Y26357D02*
Y27558D01*
X269725Y34350D02*
X270925D01*
X270325Y33751D02*
Y34951D01*
X266260Y34351D02*
X267460D01*
X266860Y33751D02*
Y34951D01*
X301599Y21133D02*
X302799D01*
X302199Y20533D02*
Y21733D01*
X304721Y14375D02*
X305921D01*
X305321Y13775D02*
Y14975D01*
X297385Y21133D02*
X298585D01*
X297985Y20533D02*
Y21733D01*
X263434Y49178D02*
X264634D01*
X264034Y48578D02*
Y49778D01*
X280025Y86680D02*
X281225D01*
X280625Y86080D02*
Y87280D01*
X280064Y76758D02*
X281264D01*
X280664Y76158D02*
Y77358D01*
X306925Y50775D02*
X308124D01*
X307524Y50175D02*
Y51376D01*
X275893Y68877D02*
X277093D01*
X276493Y68277D02*
Y69477D01*
X285484Y82958D02*
X286684D01*
X286084Y82358D02*
Y83558D01*
X285484Y92588D02*
X286684D01*
X286084Y91988D02*
Y93187D01*
X289728Y82980D02*
X290929D01*
X290329Y82380D02*
Y83580D01*
X111219Y38302D02*
X112419D01*
X111819Y37702D02*
Y38902D01*
X133821Y55091D02*
X135021D01*
X134421Y54491D02*
Y55691D01*
X121519Y50788D02*
X122719D01*
X122119Y50187D02*
Y51388D01*
X115900Y45100D02*
X117100D01*
X116500Y44500D02*
Y45700D01*
X116153Y40010D02*
X117353D01*
X116753Y39410D02*
Y40610D01*
X133721Y46092D02*
X134921D01*
X134321Y45492D02*
Y46692D01*
X112559Y92600D02*
X113760D01*
X113160Y92000D02*
Y93200D01*
X124460Y85614D02*
X125660D01*
X125060Y85014D02*
Y86214D01*
X109785Y65246D02*
X110985D01*
X110385Y64646D02*
Y65846D01*
X112559Y82970D02*
X113760D01*
X113160Y82370D02*
Y83570D01*
X116804Y82992D02*
X118003D01*
X117403Y82392D02*
Y83592D01*
X130919Y71370D02*
X132119D01*
X131519Y70770D02*
Y71970D01*
X133721Y80852D02*
X134921D01*
X134321Y80252D02*
Y81452D01*
X90509Y49191D02*
X91709D01*
X91109Y48591D02*
Y49791D01*
X107100Y86692D02*
X108300D01*
X107701Y86092D02*
Y87292D01*
X107139Y76770D02*
X108339D01*
X107739Y76170D02*
Y77370D01*
X107730Y47688D02*
X108930D01*
X108330Y47087D02*
Y48287D01*
X94489Y84592D02*
X95689D01*
X95089Y83992D02*
Y85192D01*
X94489Y80852D02*
X95689D01*
X95089Y80252D02*
Y81452D01*
X90468Y45149D02*
X91668D01*
X91068Y44549D02*
Y45749D01*
X90768Y53191D02*
X91968D01*
X91368Y52591D02*
Y53791D01*
X90815Y57091D02*
X92015D01*
X91415Y56491D02*
Y57691D01*
X107468Y17370D02*
X108668D01*
X108068Y16770D02*
Y17970D01*
X107468Y26970D02*
X108668D01*
X108068Y26370D02*
Y27570D01*
X96800Y34363D02*
X98000D01*
X97400Y33763D02*
Y34963D01*
X93335Y34363D02*
X94535D01*
X93935Y33763D02*
Y34963D01*
X108006Y55541D02*
X109206D01*
X108606Y54941D02*
Y56141D01*
X116195Y55499D02*
X117395D01*
X116795Y54899D02*
Y56099D01*
X128674Y21145D02*
X129874D01*
X129274Y20545D02*
Y21745D01*
X131797Y14387D02*
X132997D01*
X132397Y13787D02*
Y14987D01*
X124460Y21145D02*
X125660D01*
X125060Y20545D02*
Y21745D01*
X133721Y37092D02*
X134921D01*
X134321Y36492D02*
Y37692D01*
X132619Y24529D02*
X133819D01*
X133219Y23929D02*
Y25129D01*
X133720Y41592D02*
X134920D01*
X134320Y40993D02*
Y42193D01*
X134000Y50788D02*
X135200D01*
X134600Y50188D02*
Y51388D01*
X94827Y16213D02*
X96026D01*
X95426Y15612D02*
Y16813D01*
X94827Y19953D02*
X96026D01*
X95426Y19353D02*
Y20553D01*
X116587Y19650D02*
X117787D01*
X117187Y19050D02*
Y20250D01*
M02*
