M48
;Layer_Color=9474304
;FILE_FORMAT=2:4
INCH,TZ
;TYPE=PLATED
T01F00S00C0.0140
T02F00S00C0.0354
%
T01
X8770Y1390
X8172Y1998
X10272Y2187
X11379Y2038
X11335Y2511
X11315Y1583
X12387Y1774
X12937Y1804
X12970Y2327
X13654Y2305
X14630Y1673
X15291Y2172
X16439Y2038
X16471Y2543
X16215Y1520
X17520Y1760
X17997Y1804
X18058Y2308
X18713Y2305
X19690Y1673
X20471Y2125
X21482Y2092
X21435Y2505
X21418Y1543
X22552Y1760
X23040Y1795
X23106Y2302
X23757Y2296
X24733Y1664
X25404Y2065
X25196Y2512
X26471Y2502
X26515Y1969
X26452Y1543
X27547Y1795
X28073
X28125Y2293
X28790Y2296
X29767Y1664
X29516Y2987
X29437Y3513
X29044Y3200
X28140Y2836
X27691Y2902
X27355Y3054
Y3484
X27332Y3968
X26789Y4846
X26934Y5516
X26537
X26139
X25764Y6368
X25199Y6551
X24906Y6150
X24856Y7160
X25723Y7259
X26456Y7626
X26942Y7900
X26907Y8468
X26942Y8909
X28068Y9022
X28065Y7942
X28477Y7480
X29046Y7524
X28884Y8346
X29405Y8326
X29894Y8311
X29890Y7160
X29940Y6150
Y4508
Y3981
X30117Y2941
X26419Y3190
X24991Y2941
X24516Y2990
X24403Y3513
X23973Y3200
X23106Y2836
X22658Y2902
X22322Y3054
Y3484
X22298Y3968
X21756Y4846
X21901Y5516
X21502Y5521
X21103Y5523
X20576Y6250
X20648Y6776
X20689Y7259
X19813Y7170
X20249Y6586
X19863Y6159
Y4517
Y3990
X19360Y3522
X19432Y2981
X19902Y2828
X21386Y3190
X20576Y4608
X22778Y5523
X22552Y7503
X23441Y7482
X23973Y7524
X23851Y8346
X24365Y8318
X24861Y8311
X25717Y8468
Y8931
X24298Y9080
X23034Y9022
X23032Y7942
X21873Y7900
X21859Y8439
X21867Y8926
X20688Y8931
X20684Y8468
X19818Y8320
X19208Y8347
X19255Y9183
X21422Y7626
X27585Y7503
X27812Y5523
X25479Y4665
X24906Y4508
Y3981
X29332Y9174
X18808Y8347
X18910Y7498
X18393Y7496
X17989Y7951
X17514Y7507
X16869Y7909
X16889Y8398
X16942Y8886
X17991Y9022
X15665Y8921
X15641Y8477
X14758Y8320
X14201Y8398
X13748
X14195Y9183
X12931Y9031
X12929Y7951
X13340Y7512
X12449
X11790Y7892
X11768Y8426
X11806Y8918
X10581Y8935
Y8477
X10586Y7268
Y6894
X11319Y7635
X11406Y5523
X11000
X11813
X11653Y4855
X12195Y3977
X12219Y3493
Y3063
X12555Y2911
X13003Y2845
X13912Y3210
X14300Y3522
X14404Y2977
X14846Y2773
X14803Y3990
Y4517
X15518Y4570
X15798Y5532
X16319Y5531
X16891Y5521
X16712Y4855
X17255Y3977
X17279Y3493
Y3063
X17615Y2911
X18063Y2845
X18964Y3204
X16343Y3199
X17735Y5532
X15524Y6212
X15528Y6775
X15646Y7268
X14753Y7170
X15125Y6557
X14803Y6159
X12675Y5532
X11283Y3199
X9989Y3498
Y2815
X8920Y3178
X8546Y2992
X8172Y3222
X16379Y7635
T02
X500Y800
X1500
X2500
X3500
X4500
X5500
X6500
X7500
X8500
X9500
X10500
X11500
X12500
X13500
X14500
X15500
X16500
X17500
X18500
X19500
X20500
X21500
X22500
X23500
X24500
X25500
X26500
X27500
X28500
X29500
X30500
X31510
Y9800
X30510
X29510
X28510
X27510
X26510
X25510
X24510
X23510
X22510
X21510
X20510
X19510
X18510
X17510
X16510
X15510
X14510
X13510
X12510
X11510
X10510
X9510
X8510
X7510
X6510
X5510
X4510
X3510
X2510
X1510
X500
M30
