G04*
G04 #@! TF.GenerationSoftware,Altium Limited,Altium Designer,24.10.1 (45)*
G04*
G04 Layer_Physical_Order=3*
G04 Layer_Color=16440176*
%FSLAX25Y25*%
%MOIN*%
G70*
G04*
G04 #@! TF.SameCoordinates,14948A98-C654-4A88-B0D0-9DEE250FE6C4*
G04*
G04*
G04 #@! TF.FilePolarity,Positive*
G04*
G01*
G75*
%ADD11C,0.01000*%
%ADD52C,0.02500*%
%ADD53C,0.05906*%
%ADD54C,0.02200*%
G36*
X318161Y101894D02*
X317661Y101662D01*
X316817Y102149D01*
X315685Y102453D01*
X314512D01*
X313380Y102149D01*
X312364Y101563D01*
X311535Y100734D01*
X310949Y99719D01*
X310646Y98586D01*
Y97414D01*
X310949Y96281D01*
X311535Y95266D01*
X312364Y94437D01*
X313380Y93851D01*
X314512Y93547D01*
X315685D01*
X316817Y93851D01*
X317661Y94338D01*
X318161Y94106D01*
Y11894D01*
X317661Y11662D01*
X316817Y12149D01*
X315685Y12453D01*
X314512D01*
X313380Y12149D01*
X312364Y11563D01*
X311535Y10734D01*
X310949Y9719D01*
X310646Y8586D01*
Y7414D01*
X310949Y6281D01*
X311535Y5266D01*
X312364Y4437D01*
X313380Y3851D01*
X314512Y3547D01*
X315685D01*
X316817Y3851D01*
X317661Y4338D01*
X318161Y4106D01*
Y2332D01*
X2039D01*
Y3990D01*
X2539Y4279D01*
X3281Y3851D01*
X4414Y3547D01*
X5586D01*
X6719Y3851D01*
X7734Y4437D01*
X8563Y5266D01*
X9149Y6281D01*
X9453Y7414D01*
Y8586D01*
X9149Y9719D01*
X8563Y10734D01*
X7734Y11563D01*
X6719Y12149D01*
X5586Y12453D01*
X4414D01*
X3281Y12149D01*
X2539Y11721D01*
X2039Y12009D01*
Y93990D01*
X2539Y94279D01*
X3281Y93851D01*
X3357Y93830D01*
Y91328D01*
X3532Y90450D01*
X4029Y89705D01*
X4844Y88891D01*
X4844Y88891D01*
X10277Y83458D01*
Y74707D01*
X6813Y71243D01*
X6315Y70499D01*
X6141Y69621D01*
X6315Y68743D01*
X6813Y67999D01*
X7557Y67501D01*
X8435Y67327D01*
X9313Y67501D01*
X10057Y67999D01*
X14193Y72135D01*
X14690Y72879D01*
X14865Y73757D01*
Y84408D01*
X14690Y85286D01*
X14193Y86031D01*
X8088Y92135D01*
X8088Y92135D01*
X7946Y92278D01*
Y94648D01*
X8563Y95266D01*
X9149Y96281D01*
X9453Y97414D01*
Y98586D01*
X9149Y99719D01*
X8563Y100734D01*
X7734Y101563D01*
X6719Y102149D01*
X5586Y102453D01*
X4414D01*
X3281Y102149D01*
X2539Y101721D01*
X2039Y102009D01*
Y103961D01*
X159988D01*
X160087Y103461D01*
X159594Y103256D01*
X159144Y102806D01*
X158900Y102218D01*
Y101582D01*
X159144Y100994D01*
X159594Y100544D01*
X159916Y100410D01*
X160144Y100257D01*
X160562Y100174D01*
X160830Y99752D01*
X160848Y99710D01*
X160547Y98586D01*
Y97414D01*
X160851Y96281D01*
X161437Y95266D01*
X162266Y94437D01*
X163281Y93851D01*
X164414Y93547D01*
X165586D01*
X166719Y93851D01*
X167734Y94437D01*
X168563Y95266D01*
X169149Y96281D01*
X169453Y97414D01*
Y98586D01*
X169149Y99719D01*
X168563Y100734D01*
X167734Y101563D01*
X166719Y102149D01*
X165586Y102453D01*
X164414D01*
X163281Y102149D01*
X163111Y102051D01*
X162411Y102752D01*
X161915Y103083D01*
X161496Y103167D01*
X161406Y103256D01*
X160913Y103461D01*
X161012Y103961D01*
X170255D01*
X170354Y103461D01*
X169988Y103309D01*
X169538Y102859D01*
X169295Y102271D01*
Y101635D01*
X169538Y101046D01*
X169988Y100596D01*
X170289Y100472D01*
X170921Y99840D01*
X170851Y99719D01*
X170547Y98586D01*
Y97414D01*
X170851Y96281D01*
X171437Y95266D01*
X172266Y94437D01*
X173281Y93851D01*
X174414Y93547D01*
X175586D01*
X176719Y93851D01*
X177734Y94437D01*
X178563Y95266D01*
X179149Y96281D01*
X179453Y97414D01*
Y98586D01*
X179149Y99719D01*
X178563Y100734D01*
X177734Y101563D01*
X176719Y102149D01*
X175586Y102453D01*
X174414D01*
X173281Y102149D01*
X173063Y102023D01*
X172268Y102819D01*
X172251Y102859D01*
X171801Y103309D01*
X171435Y103461D01*
X171534Y103961D01*
X199469D01*
X199660Y103499D01*
X198871Y102709D01*
X198539Y102213D01*
X198423Y101628D01*
Y101528D01*
X197961Y101336D01*
X197734Y101563D01*
X196719Y102149D01*
X195586Y102453D01*
X194414D01*
X193281Y102149D01*
X192266Y101563D01*
X191437Y100734D01*
X190851Y99719D01*
X190547Y98586D01*
Y97414D01*
X190851Y96281D01*
X191437Y95266D01*
X192266Y94437D01*
X193281Y93851D01*
X193326Y93839D01*
Y92928D01*
X193110Y92408D01*
Y91772D01*
X193354Y91184D01*
X193804Y90733D01*
X194392Y90490D01*
X195028D01*
X195616Y90733D01*
X196067Y91184D01*
X196246Y91616D01*
X196268Y91650D01*
X196276Y91689D01*
X196310Y91772D01*
Y91861D01*
X196384Y92235D01*
Y93761D01*
X196719Y93851D01*
X197734Y94437D01*
X197961Y94664D01*
X198423Y94472D01*
Y93289D01*
X198352Y93118D01*
Y92482D01*
X198596Y91894D01*
X199046Y91444D01*
X199634Y91200D01*
X200270D01*
X200858Y91444D01*
X201309Y91894D01*
X201552Y92482D01*
Y93118D01*
X201482Y93289D01*
Y94568D01*
X201943Y94759D01*
X202266Y94437D01*
X203281Y93851D01*
X204414Y93547D01*
X205586D01*
X206719Y93851D01*
X206963Y93992D01*
X208136Y92819D01*
X208190Y92783D01*
X208429Y92544D01*
X209017Y92300D01*
X209654D01*
X210242Y92544D01*
X210692Y92994D01*
X210935Y93582D01*
Y94218D01*
X210692Y94806D01*
X210242Y95256D01*
X209870Y95410D01*
X209094Y96186D01*
X209149Y96281D01*
X209453Y97414D01*
Y98586D01*
X209149Y99719D01*
X208563Y100734D01*
X208126Y101171D01*
X208333Y101671D01*
X210266D01*
X211351Y100586D01*
X210851Y99719D01*
X210547Y98586D01*
Y97414D01*
X210851Y96281D01*
X211437Y95266D01*
X212266Y94437D01*
X213281Y93851D01*
X214414Y93547D01*
X215586D01*
X216719Y93851D01*
X217734Y94437D01*
X218563Y95266D01*
X219149Y96281D01*
X219453Y97414D01*
Y98586D01*
X219149Y99719D01*
X218563Y100734D01*
X217734Y101563D01*
X216719Y102149D01*
X215586Y102453D01*
X214414D01*
X213938Y102325D01*
X212764Y103499D01*
X212955Y103961D01*
X228145D01*
X228336Y103499D01*
X226888Y102051D01*
X226719Y102149D01*
X225586Y102453D01*
X224414D01*
X223281Y102149D01*
X222266Y101563D01*
X221437Y100734D01*
X220851Y99719D01*
X220547Y98586D01*
Y97414D01*
X220851Y96281D01*
X221437Y95266D01*
X222266Y94437D01*
X223281Y93851D01*
X224414Y93547D01*
X225586D01*
X226719Y93851D01*
X227734Y94437D01*
X228563Y95266D01*
X229149Y96281D01*
X229453Y97414D01*
Y98586D01*
X229149Y99719D01*
X229051Y99888D01*
X230834Y101671D01*
X231666D01*
X231873Y101171D01*
X231437Y100734D01*
X230851Y99719D01*
X230547Y98586D01*
Y97414D01*
X230851Y96281D01*
X231437Y95266D01*
X232266Y94437D01*
X233281Y93851D01*
X234414Y93547D01*
X235586D01*
X236719Y93851D01*
X237734Y94437D01*
X238262Y94965D01*
X238762Y94757D01*
Y93900D01*
X238878Y93315D01*
X239210Y92819D01*
X240310Y91719D01*
X240806Y91387D01*
X241391Y91271D01*
X249332D01*
X249503Y91200D01*
X250139D01*
X250727Y91444D01*
X251177Y91894D01*
X251421Y92482D01*
Y93118D01*
X251177Y93706D01*
X250727Y94156D01*
X250139Y94400D01*
X249503D01*
X249332Y94329D01*
X248334D01*
X248127Y94829D01*
X248563Y95266D01*
X249149Y96281D01*
X249453Y97414D01*
Y98586D01*
X249149Y99719D01*
X248563Y100734D01*
X247734Y101563D01*
X246719Y102149D01*
X245586Y102453D01*
X244414D01*
X243281Y102149D01*
X242266Y101563D01*
X241738Y101742D01*
X241704Y101914D01*
X241373Y102410D01*
X240284Y103499D01*
X240475Y103961D01*
X318161D01*
Y101894D01*
D02*
G37*
%LPC*%
G36*
X305586Y102453D02*
X304414D01*
X303281Y102149D01*
X302266Y101563D01*
X301437Y100734D01*
X300851Y99719D01*
X300547Y98586D01*
Y97414D01*
X300851Y96281D01*
X301437Y95266D01*
X302266Y94437D01*
X303281Y93851D01*
X304414Y93547D01*
X305586D01*
X306719Y93851D01*
X307734Y94437D01*
X308563Y95266D01*
X309149Y96281D01*
X309453Y97414D01*
Y98586D01*
X309149Y99719D01*
X308563Y100734D01*
X307734Y101563D01*
X306719Y102149D01*
X305586Y102453D01*
D02*
G37*
G36*
X295586D02*
X294414D01*
X293281Y102149D01*
X292266Y101563D01*
X291437Y100734D01*
X290851Y99719D01*
X290547Y98586D01*
Y97414D01*
X290851Y96281D01*
X291437Y95266D01*
X292266Y94437D01*
X293281Y93851D01*
X294414Y93547D01*
X295586D01*
X296719Y93851D01*
X297734Y94437D01*
X298563Y95266D01*
X299149Y96281D01*
X299453Y97414D01*
Y98586D01*
X299149Y99719D01*
X298563Y100734D01*
X297734Y101563D01*
X296719Y102149D01*
X295586Y102453D01*
D02*
G37*
G36*
X285586D02*
X284414D01*
X283281Y102149D01*
X282266Y101563D01*
X281437Y100734D01*
X280851Y99719D01*
X280547Y98586D01*
Y97414D01*
X280851Y96281D01*
X281437Y95266D01*
X282266Y94437D01*
X283281Y93851D01*
X284414Y93547D01*
X285586D01*
X286719Y93851D01*
X287734Y94437D01*
X288563Y95266D01*
X289149Y96281D01*
X289453Y97414D01*
Y98586D01*
X289149Y99719D01*
X288563Y100734D01*
X287734Y101563D01*
X286719Y102149D01*
X285586Y102453D01*
D02*
G37*
G36*
X275586D02*
X274414D01*
X273281Y102149D01*
X272266Y101563D01*
X271437Y100734D01*
X270851Y99719D01*
X270547Y98586D01*
Y97414D01*
X270851Y96281D01*
X271437Y95266D01*
X272266Y94437D01*
X273281Y93851D01*
X274414Y93547D01*
X275586D01*
X276719Y93851D01*
X277734Y94437D01*
X278563Y95266D01*
X279149Y96281D01*
X279453Y97414D01*
Y98586D01*
X279149Y99719D01*
X278563Y100734D01*
X277734Y101563D01*
X276719Y102149D01*
X275586Y102453D01*
D02*
G37*
G36*
X265586D02*
X264414D01*
X263281Y102149D01*
X262266Y101563D01*
X261437Y100734D01*
X260851Y99719D01*
X260547Y98586D01*
Y97414D01*
X260851Y96281D01*
X261437Y95266D01*
X262266Y94437D01*
X263281Y93851D01*
X264414Y93547D01*
X265586D01*
X266719Y93851D01*
X267734Y94437D01*
X268563Y95266D01*
X269149Y96281D01*
X269453Y97414D01*
Y98586D01*
X269149Y99719D01*
X268563Y100734D01*
X267734Y101563D01*
X266719Y102149D01*
X265586Y102453D01*
D02*
G37*
G36*
X255586D02*
X254414D01*
X253281Y102149D01*
X252266Y101563D01*
X251437Y100734D01*
X250851Y99719D01*
X250547Y98586D01*
Y97414D01*
X250851Y96281D01*
X251437Y95266D01*
X252266Y94437D01*
X253281Y93851D01*
X254414Y93547D01*
X255586D01*
X256719Y93851D01*
X257734Y94437D01*
X258563Y95266D01*
X259149Y96281D01*
X259453Y97414D01*
Y98586D01*
X259149Y99719D01*
X258563Y100734D01*
X257734Y101563D01*
X256719Y102149D01*
X255586Y102453D01*
D02*
G37*
G36*
X155586D02*
X154414D01*
X153281Y102149D01*
X152266Y101563D01*
X151437Y100734D01*
X150851Y99719D01*
X150547Y98586D01*
Y97414D01*
X150851Y96281D01*
X151437Y95266D01*
X152266Y94437D01*
X153281Y93851D01*
X154414Y93547D01*
X155586D01*
X156719Y93851D01*
X157734Y94437D01*
X158563Y95266D01*
X159149Y96281D01*
X159453Y97414D01*
Y98586D01*
X159149Y99719D01*
X158563Y100734D01*
X157734Y101563D01*
X156719Y102149D01*
X155586Y102453D01*
D02*
G37*
G36*
X145586D02*
X144414D01*
X143281Y102149D01*
X142266Y101563D01*
X141437Y100734D01*
X140851Y99719D01*
X140547Y98586D01*
Y97414D01*
X140851Y96281D01*
X141437Y95266D01*
X142266Y94437D01*
X143281Y93851D01*
X144414Y93547D01*
X145586D01*
X146719Y93851D01*
X147734Y94437D01*
X148563Y95266D01*
X149149Y96281D01*
X149453Y97414D01*
Y98586D01*
X149149Y99719D01*
X148563Y100734D01*
X147734Y101563D01*
X146719Y102149D01*
X145586Y102453D01*
D02*
G37*
G36*
X135586D02*
X134414D01*
X133281Y102149D01*
X132266Y101563D01*
X131437Y100734D01*
X130851Y99719D01*
X130547Y98586D01*
Y97414D01*
X130851Y96281D01*
X131437Y95266D01*
X132266Y94437D01*
X133281Y93851D01*
X134414Y93547D01*
X135586D01*
X136719Y93851D01*
X137734Y94437D01*
X138563Y95266D01*
X139149Y96281D01*
X139453Y97414D01*
Y98586D01*
X139149Y99719D01*
X138563Y100734D01*
X137734Y101563D01*
X136719Y102149D01*
X135586Y102453D01*
D02*
G37*
G36*
X125586D02*
X124414D01*
X123281Y102149D01*
X122266Y101563D01*
X121437Y100734D01*
X120851Y99719D01*
X120547Y98586D01*
Y97414D01*
X120851Y96281D01*
X121437Y95266D01*
X122266Y94437D01*
X123281Y93851D01*
X124414Y93547D01*
X125586D01*
X126719Y93851D01*
X127734Y94437D01*
X128563Y95266D01*
X129149Y96281D01*
X129453Y97414D01*
Y98586D01*
X129149Y99719D01*
X128563Y100734D01*
X127734Y101563D01*
X126719Y102149D01*
X125586Y102453D01*
D02*
G37*
G36*
X115586D02*
X114414D01*
X113281Y102149D01*
X112266Y101563D01*
X111437Y100734D01*
X110851Y99719D01*
X110547Y98586D01*
Y97414D01*
X110851Y96281D01*
X111437Y95266D01*
X112266Y94437D01*
X113281Y93851D01*
X114414Y93547D01*
X115586D01*
X116719Y93851D01*
X117734Y94437D01*
X118563Y95266D01*
X119149Y96281D01*
X119453Y97414D01*
Y98586D01*
X119149Y99719D01*
X118563Y100734D01*
X117734Y101563D01*
X116719Y102149D01*
X115586Y102453D01*
D02*
G37*
G36*
X105586D02*
X104414D01*
X103281Y102149D01*
X102266Y101563D01*
X101437Y100734D01*
X100851Y99719D01*
X100547Y98586D01*
Y97414D01*
X100851Y96281D01*
X101437Y95266D01*
X102266Y94437D01*
X103281Y93851D01*
X104414Y93547D01*
X105586D01*
X106719Y93851D01*
X107734Y94437D01*
X108563Y95266D01*
X109149Y96281D01*
X109453Y97414D01*
Y98586D01*
X109149Y99719D01*
X108563Y100734D01*
X107734Y101563D01*
X106719Y102149D01*
X105586Y102453D01*
D02*
G37*
G36*
X95586D02*
X94414D01*
X93281Y102149D01*
X92266Y101563D01*
X91437Y100734D01*
X90851Y99719D01*
X90547Y98586D01*
Y97414D01*
X90851Y96281D01*
X91437Y95266D01*
X92266Y94437D01*
X93281Y93851D01*
X94414Y93547D01*
X95586D01*
X96719Y93851D01*
X97734Y94437D01*
X98563Y95266D01*
X99149Y96281D01*
X99453Y97414D01*
Y98586D01*
X99149Y99719D01*
X98563Y100734D01*
X97734Y101563D01*
X96719Y102149D01*
X95586Y102453D01*
D02*
G37*
G36*
X85586D02*
X84414D01*
X83281Y102149D01*
X82266Y101563D01*
X81437Y100734D01*
X80851Y99719D01*
X80547Y98586D01*
Y97414D01*
X80851Y96281D01*
X81437Y95266D01*
X82266Y94437D01*
X83281Y93851D01*
X84414Y93547D01*
X85586D01*
X86719Y93851D01*
X87734Y94437D01*
X88563Y95266D01*
X89149Y96281D01*
X89453Y97414D01*
Y98586D01*
X89149Y99719D01*
X88563Y100734D01*
X87734Y101563D01*
X86719Y102149D01*
X85586Y102453D01*
D02*
G37*
G36*
X75586D02*
X74414D01*
X73281Y102149D01*
X72266Y101563D01*
X71437Y100734D01*
X70851Y99719D01*
X70547Y98586D01*
Y97414D01*
X70851Y96281D01*
X71437Y95266D01*
X72266Y94437D01*
X73281Y93851D01*
X74414Y93547D01*
X75586D01*
X76719Y93851D01*
X77734Y94437D01*
X78563Y95266D01*
X79149Y96281D01*
X79453Y97414D01*
Y98586D01*
X79149Y99719D01*
X78563Y100734D01*
X77734Y101563D01*
X76719Y102149D01*
X75586Y102453D01*
D02*
G37*
G36*
X65586D02*
X64414D01*
X63281Y102149D01*
X62266Y101563D01*
X61437Y100734D01*
X60851Y99719D01*
X60547Y98586D01*
Y97414D01*
X60851Y96281D01*
X61437Y95266D01*
X62266Y94437D01*
X63281Y93851D01*
X64414Y93547D01*
X65586D01*
X66719Y93851D01*
X67734Y94437D01*
X68563Y95266D01*
X69149Y96281D01*
X69453Y97414D01*
Y98586D01*
X69149Y99719D01*
X68563Y100734D01*
X67734Y101563D01*
X66719Y102149D01*
X65586Y102453D01*
D02*
G37*
G36*
X55586D02*
X54414D01*
X53281Y102149D01*
X52266Y101563D01*
X51437Y100734D01*
X50851Y99719D01*
X50547Y98586D01*
Y97414D01*
X50851Y96281D01*
X51437Y95266D01*
X52266Y94437D01*
X53281Y93851D01*
X54414Y93547D01*
X55586D01*
X56719Y93851D01*
X57734Y94437D01*
X58563Y95266D01*
X59149Y96281D01*
X59453Y97414D01*
Y98586D01*
X59149Y99719D01*
X58563Y100734D01*
X57734Y101563D01*
X56719Y102149D01*
X55586Y102453D01*
D02*
G37*
G36*
X45586D02*
X44414D01*
X43281Y102149D01*
X42266Y101563D01*
X41437Y100734D01*
X40851Y99719D01*
X40547Y98586D01*
Y97414D01*
X40851Y96281D01*
X41437Y95266D01*
X42266Y94437D01*
X43281Y93851D01*
X44414Y93547D01*
X45586D01*
X46719Y93851D01*
X47734Y94437D01*
X48563Y95266D01*
X49149Y96281D01*
X49453Y97414D01*
Y98586D01*
X49149Y99719D01*
X48563Y100734D01*
X47734Y101563D01*
X46719Y102149D01*
X45586Y102453D01*
D02*
G37*
G36*
X35586D02*
X34414D01*
X33281Y102149D01*
X32266Y101563D01*
X31437Y100734D01*
X30851Y99719D01*
X30547Y98586D01*
Y97414D01*
X30851Y96281D01*
X31437Y95266D01*
X32266Y94437D01*
X33281Y93851D01*
X34414Y93547D01*
X35586D01*
X36719Y93851D01*
X37734Y94437D01*
X38563Y95266D01*
X39149Y96281D01*
X39453Y97414D01*
Y98586D01*
X39149Y99719D01*
X38563Y100734D01*
X37734Y101563D01*
X36719Y102149D01*
X35586Y102453D01*
D02*
G37*
G36*
X25586D02*
X24414D01*
X23281Y102149D01*
X22266Y101563D01*
X21437Y100734D01*
X20851Y99719D01*
X20547Y98586D01*
Y97414D01*
X20851Y96281D01*
X21437Y95266D01*
X22266Y94437D01*
X23281Y93851D01*
X24414Y93547D01*
X25586D01*
X26719Y93851D01*
X27734Y94437D01*
X28563Y95266D01*
X29149Y96281D01*
X29453Y97414D01*
Y98586D01*
X29149Y99719D01*
X28563Y100734D01*
X27734Y101563D01*
X26719Y102149D01*
X25586Y102453D01*
D02*
G37*
G36*
X15586D02*
X14414D01*
X13281Y102149D01*
X12266Y101563D01*
X11437Y100734D01*
X10851Y99719D01*
X10547Y98586D01*
Y97414D01*
X10851Y96281D01*
X11437Y95266D01*
X12266Y94437D01*
X13281Y93851D01*
X14414Y93547D01*
X15586D01*
X16719Y93851D01*
X17734Y94437D01*
X18563Y95266D01*
X19149Y96281D01*
X19453Y97414D01*
Y98586D01*
X19149Y99719D01*
X18563Y100734D01*
X17734Y101563D01*
X16719Y102149D01*
X15586Y102453D01*
D02*
G37*
G36*
X185586D02*
X184414D01*
X183281Y102149D01*
X182266Y101563D01*
X181437Y100734D01*
X180851Y99719D01*
X180547Y98586D01*
Y97414D01*
X180851Y96281D01*
X181437Y95266D01*
X182266Y94437D01*
X183281Y93851D01*
X184414Y93547D01*
X185586D01*
X186719Y93851D01*
X187332Y94205D01*
X188373Y93164D01*
X188444Y92994D01*
X188894Y92544D01*
X189482Y92300D01*
X190118D01*
X190706Y92544D01*
X191156Y92994D01*
X191400Y93582D01*
Y94218D01*
X191156Y94806D01*
X190706Y95256D01*
X190536Y95327D01*
X189241Y96622D01*
X189453Y97414D01*
Y98586D01*
X189149Y99719D01*
X188563Y100734D01*
X187734Y101563D01*
X186719Y102149D01*
X185586Y102453D01*
D02*
G37*
G36*
X131386Y92231D02*
X130750D01*
X130162Y91987D01*
X129712Y91537D01*
X129468Y90949D01*
Y90313D01*
X129712Y89725D01*
X130162Y89275D01*
X130750Y89031D01*
X131386D01*
X131974Y89275D01*
X132425Y89725D01*
X132668Y90313D01*
Y90949D01*
X132425Y91537D01*
X131974Y91987D01*
X131386Y92231D01*
D02*
G37*
G36*
X61914Y91919D02*
X61278D01*
X60690Y91675D01*
X60240Y91225D01*
X59996Y90637D01*
Y90001D01*
X60240Y89413D01*
X60690Y88963D01*
X61278Y88719D01*
X61914D01*
X62502Y88963D01*
X62953Y89413D01*
X63196Y90001D01*
Y90637D01*
X62953Y91225D01*
X62502Y91675D01*
X61914Y91919D01*
D02*
G37*
G36*
X248938Y90133D02*
X248301D01*
X247713Y89889D01*
X247263Y89439D01*
X247019Y88851D01*
Y88214D01*
X247263Y87626D01*
X247713Y87176D01*
X248301Y86933D01*
X248938D01*
X249526Y87176D01*
X249976Y87626D01*
X250219Y88214D01*
Y88851D01*
X249976Y89439D01*
X249526Y89889D01*
X248938Y90133D01*
D02*
G37*
G36*
X240779Y87414D02*
X240142D01*
X239554Y87171D01*
X239104Y86721D01*
X238860Y86132D01*
Y85496D01*
X239104Y84908D01*
X239554Y84458D01*
X240142Y84214D01*
X240779D01*
X241367Y84458D01*
X241817Y84908D01*
X242060Y85496D01*
Y86132D01*
X241817Y86721D01*
X241367Y87171D01*
X240779Y87414D01*
D02*
G37*
G36*
X125379Y87214D02*
X124742D01*
X124154Y86971D01*
X123704Y86520D01*
X123460Y85932D01*
Y85296D01*
X123704Y84708D01*
X124154Y84258D01*
X124742Y84014D01*
X125379D01*
X125967Y84258D01*
X126417Y84708D01*
X126660Y85296D01*
Y85932D01*
X126417Y86520D01*
X125967Y86971D01*
X125379Y87214D01*
D02*
G37*
G36*
X298303Y87202D02*
X297667D01*
X297079Y86958D01*
X296629Y86508D01*
X296385Y85920D01*
Y85283D01*
X296629Y84695D01*
X297079Y84245D01*
X297667Y84002D01*
X298303D01*
X298891Y84245D01*
X299342Y84695D01*
X299585Y85283D01*
Y85920D01*
X299342Y86508D01*
X298891Y86958D01*
X298303Y87202D01*
D02*
G37*
G36*
X210807Y86392D02*
X210171D01*
X209583Y86149D01*
X209133Y85699D01*
X208889Y85111D01*
Y84474D01*
X209133Y83886D01*
X209583Y83436D01*
X210171Y83192D01*
X210807D01*
X211396Y83436D01*
X211846Y83886D01*
X212089Y84474D01*
Y85111D01*
X211846Y85699D01*
X211396Y86149D01*
X210807Y86392D01*
D02*
G37*
G36*
X153098Y89851D02*
X152462D01*
X151874Y89607D01*
X151424Y89157D01*
X151180Y88569D01*
Y87933D01*
X151424Y87345D01*
X151874Y86895D01*
X152412Y86672D01*
X152438Y86422D01*
X152412Y86172D01*
X151874Y85949D01*
X151424Y85499D01*
X151180Y84911D01*
Y84274D01*
X151424Y83686D01*
X151874Y83236D01*
X152462Y82992D01*
X153098D01*
X153686Y83236D01*
X154136Y83686D01*
X154380Y84274D01*
Y84911D01*
X154136Y85499D01*
X153686Y85949D01*
X153148Y86172D01*
X153122Y86422D01*
X153148Y86672D01*
X153686Y86895D01*
X154136Y87345D01*
X154380Y87933D01*
Y88569D01*
X154136Y89157D01*
X153686Y89607D01*
X153098Y89851D01*
D02*
G37*
G36*
X95407Y86192D02*
X94771D01*
X94183Y85949D01*
X93733Y85499D01*
X93489Y84911D01*
Y84274D01*
X93733Y83686D01*
X94183Y83236D01*
X94771Y82992D01*
X95407D01*
X95995Y83236D01*
X96446Y83686D01*
X96689Y84274D01*
Y84911D01*
X96446Y85499D01*
X95995Y85949D01*
X95407Y86192D01*
D02*
G37*
G36*
X268332Y86180D02*
X267696D01*
X267108Y85936D01*
X266657Y85486D01*
X266414Y84898D01*
Y84262D01*
X266657Y83674D01*
X267108Y83223D01*
X267696Y82980D01*
X268332D01*
X268920Y83223D01*
X269370Y83674D01*
X269614Y84262D01*
Y84898D01*
X269370Y85486D01*
X268920Y85936D01*
X268332Y86180D01*
D02*
G37*
G36*
X233122Y84792D02*
X232485D01*
X231897Y84549D01*
X231447Y84099D01*
X231204Y83510D01*
Y82874D01*
X231447Y82286D01*
X231897Y81836D01*
X232485Y81592D01*
X233122D01*
X233710Y81836D01*
X234160Y82286D01*
X234403Y82874D01*
Y83510D01*
X234160Y84099D01*
X233710Y84549D01*
X233122Y84792D01*
D02*
G37*
G36*
X228878Y84770D02*
X228241D01*
X227653Y84527D01*
X227203Y84076D01*
X226959Y83488D01*
Y82852D01*
X227203Y82264D01*
X227653Y81814D01*
X228241Y81570D01*
X228878D01*
X229466Y81814D01*
X229916Y82264D01*
X230159Y82852D01*
Y83488D01*
X229916Y84076D01*
X229466Y84527D01*
X228878Y84770D01*
D02*
G37*
G36*
X175413Y84592D02*
X174776D01*
X174188Y84349D01*
X173738Y83899D01*
X173495Y83310D01*
Y82674D01*
X173738Y82086D01*
X174188Y81636D01*
X174776Y81392D01*
X175413D01*
X176001Y81636D01*
X176451Y82086D01*
X176695Y82674D01*
Y83310D01*
X176451Y83899D01*
X176001Y84349D01*
X175413Y84592D01*
D02*
G37*
G36*
X117722D02*
X117085D01*
X116497Y84349D01*
X116047Y83899D01*
X115804Y83310D01*
Y82674D01*
X116047Y82086D01*
X116497Y81636D01*
X117085Y81392D01*
X117722D01*
X118310Y81636D01*
X118760Y82086D01*
X119003Y82674D01*
Y83310D01*
X118760Y83899D01*
X118310Y84349D01*
X117722Y84592D01*
D02*
G37*
G36*
X290647Y84580D02*
X290010D01*
X289422Y84336D01*
X288972Y83886D01*
X288728Y83298D01*
Y82661D01*
X288972Y82073D01*
X289422Y81623D01*
X290010Y81380D01*
X290647D01*
X291235Y81623D01*
X291685Y82073D01*
X291929Y82661D01*
Y83298D01*
X291685Y83886D01*
X291235Y84336D01*
X290647Y84580D01*
D02*
G37*
G36*
X171169Y84570D02*
X170532D01*
X169944Y84327D01*
X169494Y83877D01*
X169250Y83288D01*
Y82652D01*
X169494Y82064D01*
X169944Y81614D01*
X170532Y81370D01*
X171169D01*
X171757Y81614D01*
X172207Y82064D01*
X172450Y82652D01*
Y83288D01*
X172207Y83877D01*
X171757Y84327D01*
X171169Y84570D01*
D02*
G37*
G36*
X113478D02*
X112841D01*
X112253Y84327D01*
X111803Y83877D01*
X111559Y83288D01*
Y82652D01*
X111803Y82064D01*
X112253Y81614D01*
X112841Y81370D01*
X113478D01*
X114066Y81614D01*
X114516Y82064D01*
X114760Y82652D01*
Y83288D01*
X114516Y83877D01*
X114066Y84327D01*
X113478Y84570D01*
D02*
G37*
G36*
X286403Y84558D02*
X285766D01*
X285178Y84314D01*
X284728Y83864D01*
X284484Y83276D01*
Y82639D01*
X284728Y82051D01*
X285178Y81601D01*
X285766Y81358D01*
X286403D01*
X286991Y81601D01*
X287441Y82051D01*
X287684Y82639D01*
Y83276D01*
X287441Y83864D01*
X286991Y84314D01*
X286403Y84558D01*
D02*
G37*
G36*
X250039Y82652D02*
X249403D01*
X248815Y82409D01*
X248364Y81959D01*
X248121Y81370D01*
Y80734D01*
X248364Y80146D01*
X248815Y79696D01*
X249403Y79452D01*
X250039D01*
X250627Y79696D01*
X251077Y80146D01*
X251321Y80734D01*
Y81370D01*
X251077Y81959D01*
X250627Y82409D01*
X250039Y82652D01*
D02*
G37*
G36*
X210807D02*
X210171D01*
X209583Y82409D01*
X209133Y81959D01*
X208889Y81370D01*
Y80734D01*
X209133Y80146D01*
X209583Y79696D01*
X210171Y79452D01*
X210807D01*
X211396Y79696D01*
X211846Y80146D01*
X212089Y80734D01*
Y81370D01*
X211846Y81959D01*
X211396Y82409D01*
X210807Y82652D01*
D02*
G37*
G36*
X192330Y82452D02*
X191693D01*
X191105Y82209D01*
X190655Y81758D01*
X190412Y81170D01*
Y80534D01*
X190655Y79946D01*
X191105Y79496D01*
X191693Y79252D01*
X192330D01*
X192918Y79496D01*
X193368Y79946D01*
X193612Y80534D01*
Y81170D01*
X193368Y81758D01*
X192918Y82209D01*
X192330Y82452D01*
D02*
G37*
G36*
X153098D02*
X152462D01*
X151874Y82209D01*
X151424Y81758D01*
X151180Y81170D01*
Y80534D01*
X151424Y79946D01*
X151874Y79496D01*
X152462Y79252D01*
X153098D01*
X153686Y79496D01*
X154136Y79946D01*
X154380Y80534D01*
Y81170D01*
X154136Y81758D01*
X153686Y82209D01*
X153098Y82452D01*
D02*
G37*
G36*
X134639D02*
X134003D01*
X133415Y82209D01*
X132965Y81758D01*
X132721Y81170D01*
Y80534D01*
X132965Y79946D01*
X133415Y79496D01*
X134003Y79252D01*
X134639D01*
X135227Y79496D01*
X135677Y79946D01*
X135921Y80534D01*
Y81170D01*
X135677Y81758D01*
X135227Y82209D01*
X134639Y82452D01*
D02*
G37*
G36*
X95407D02*
X94771D01*
X94183Y82209D01*
X93733Y81758D01*
X93489Y81170D01*
Y80534D01*
X93733Y79946D01*
X94183Y79496D01*
X94771Y79252D01*
X95407D01*
X95995Y79496D01*
X96446Y79946D01*
X96689Y80534D01*
Y81170D01*
X96446Y81758D01*
X95995Y82209D01*
X95407Y82452D01*
D02*
G37*
G36*
X307564Y82440D02*
X306927D01*
X306339Y82196D01*
X305889Y81746D01*
X305646Y81158D01*
Y80522D01*
X305889Y79933D01*
X306339Y79483D01*
X306927Y79240D01*
X307564D01*
X308152Y79483D01*
X308602Y79933D01*
X308846Y80522D01*
Y81158D01*
X308602Y81746D01*
X308152Y82196D01*
X307564Y82440D01*
D02*
G37*
G36*
X268332D02*
X267696D01*
X267108Y82196D01*
X266657Y81746D01*
X266414Y81158D01*
Y80522D01*
X266657Y79933D01*
X267108Y79483D01*
X267696Y79240D01*
X268332D01*
X268920Y79483D01*
X269370Y79933D01*
X269614Y80522D01*
Y81158D01*
X269370Y81746D01*
X268920Y82196D01*
X268332Y82440D01*
D02*
G37*
G36*
X183116Y81889D02*
X182479D01*
X181891Y81645D01*
X181441Y81195D01*
X181197Y80607D01*
Y79970D01*
X181441Y79382D01*
X181891Y78932D01*
X182479Y78689D01*
X183116D01*
X183704Y78932D01*
X184154Y79382D01*
X184397Y79970D01*
Y80607D01*
X184154Y81195D01*
X183704Y81645D01*
X183116Y81889D01*
D02*
G37*
G36*
X29195Y79889D02*
X28558D01*
X27970Y79646D01*
X27520Y79196D01*
X27276Y78608D01*
Y77971D01*
X27520Y77383D01*
X27970Y76933D01*
X28558Y76689D01*
X29195D01*
X29783Y76933D01*
X30233Y77383D01*
X30476Y77971D01*
Y78608D01*
X30233Y79196D01*
X29783Y79646D01*
X29195Y79889D01*
D02*
G37*
G36*
X223457Y78570D02*
X222821D01*
X222233Y78327D01*
X221782Y77877D01*
X221539Y77288D01*
Y76652D01*
X221782Y76064D01*
X222233Y75614D01*
X222821Y75370D01*
X223457D01*
X224045Y75614D01*
X224495Y76064D01*
X224739Y76652D01*
Y77288D01*
X224495Y77877D01*
X224045Y78327D01*
X223457Y78570D01*
D02*
G37*
G36*
X165748Y78370D02*
X165112D01*
X164524Y78127D01*
X164074Y77676D01*
X163830Y77088D01*
Y76452D01*
X164074Y75864D01*
X164524Y75414D01*
X165112Y75170D01*
X165748D01*
X166336Y75414D01*
X166786Y75864D01*
X167030Y76452D01*
Y77088D01*
X166786Y77676D01*
X166336Y78127D01*
X165748Y78370D01*
D02*
G37*
G36*
X108057D02*
X107421D01*
X106833Y78127D01*
X106383Y77676D01*
X106139Y77088D01*
Y76452D01*
X106383Y75864D01*
X106833Y75414D01*
X107421Y75170D01*
X108057D01*
X108645Y75414D01*
X109095Y75864D01*
X109339Y76452D01*
Y77088D01*
X109095Y77676D01*
X108645Y78127D01*
X108057Y78370D01*
D02*
G37*
G36*
X280982Y78358D02*
X280346D01*
X279758Y78114D01*
X279308Y77664D01*
X279064Y77076D01*
Y76439D01*
X279308Y75851D01*
X279758Y75401D01*
X280346Y75158D01*
X280982D01*
X281570Y75401D01*
X282020Y75851D01*
X282264Y76439D01*
Y77076D01*
X282020Y77664D01*
X281570Y78114D01*
X280982Y78358D01*
D02*
G37*
G36*
X34574Y76780D02*
X33938D01*
X33350Y76536D01*
X32899Y76086D01*
X32656Y75498D01*
Y74862D01*
X32899Y74274D01*
X33350Y73823D01*
X33938Y73580D01*
X34574D01*
X35162Y73823D01*
X35612Y74274D01*
X35856Y74862D01*
Y75498D01*
X35612Y76086D01*
X35162Y76536D01*
X34574Y76780D01*
D02*
G37*
G36*
X6784Y75521D02*
X6148D01*
X5560Y75277D01*
X5110Y74827D01*
X4866Y74239D01*
Y73602D01*
X5110Y73014D01*
X5560Y72564D01*
X6148Y72321D01*
X6784D01*
X7373Y72564D01*
X7823Y73014D01*
X8066Y73602D01*
Y74239D01*
X7823Y74827D01*
X7373Y75277D01*
X6784Y75521D01*
D02*
G37*
G36*
X247238Y73170D02*
X246601D01*
X246013Y72927D01*
X245563Y72477D01*
X245319Y71888D01*
Y71252D01*
X245563Y70664D01*
X246013Y70214D01*
X246601Y69970D01*
X247238D01*
X247826Y70214D01*
X248276Y70664D01*
X248519Y71252D01*
Y71888D01*
X248276Y72477D01*
X247826Y72927D01*
X247238Y73170D01*
D02*
G37*
G36*
X189528Y72970D02*
X188892D01*
X188304Y72727D01*
X187854Y72277D01*
X187610Y71688D01*
Y71052D01*
X187854Y70464D01*
X188304Y70014D01*
X188892Y69770D01*
X189528D01*
X190117Y70014D01*
X190567Y70464D01*
X190810Y71052D01*
Y71688D01*
X190567Y72277D01*
X190117Y72727D01*
X189528Y72970D01*
D02*
G37*
G36*
X131838D02*
X131201D01*
X130613Y72727D01*
X130163Y72277D01*
X129919Y71688D01*
Y71052D01*
X130163Y70464D01*
X130613Y70014D01*
X131201Y69770D01*
X131838D01*
X132426Y70014D01*
X132876Y70464D01*
X133119Y71052D01*
Y71688D01*
X132876Y72277D01*
X132426Y72727D01*
X131838Y72970D01*
D02*
G37*
G36*
X304762Y72958D02*
X304126D01*
X303538Y72714D01*
X303088Y72264D01*
X302844Y71676D01*
Y71039D01*
X303088Y70451D01*
X303538Y70001D01*
X304126Y69758D01*
X304762D01*
X305350Y70001D01*
X305801Y70451D01*
X306044Y71039D01*
Y71676D01*
X305801Y72264D01*
X305350Y72714D01*
X304762Y72958D01*
D02*
G37*
G36*
X40462Y71263D02*
X39825D01*
X39237Y71020D01*
X38787Y70570D01*
X38543Y69982D01*
Y69345D01*
X38787Y68757D01*
X39237Y68307D01*
X39825Y68063D01*
X40462D01*
X41050Y68307D01*
X41500Y68757D01*
X41743Y69345D01*
Y69982D01*
X41500Y70570D01*
X41050Y71020D01*
X40462Y71263D01*
D02*
G37*
G36*
X59818Y71010D02*
X59182D01*
X58594Y70766D01*
X58144Y70316D01*
X57900Y69728D01*
Y69091D01*
X58144Y68503D01*
X58594Y68053D01*
X59182Y67810D01*
X59818D01*
X60406Y68053D01*
X60856Y68503D01*
X61100Y69091D01*
Y69728D01*
X60856Y70316D01*
X60406Y70766D01*
X59818Y71010D01*
D02*
G37*
G36*
X207086Y70888D02*
X206450D01*
X205862Y70644D01*
X205412Y70194D01*
X205168Y69606D01*
Y68969D01*
X205412Y68381D01*
X205862Y67931D01*
X206450Y67687D01*
X207086D01*
X207675Y67931D01*
X208125Y68381D01*
X208368Y68969D01*
Y69606D01*
X208125Y70194D01*
X207675Y70644D01*
X207086Y70888D01*
D02*
G37*
G36*
X237235Y70690D02*
X236598D01*
X236010Y70446D01*
X235560Y69996D01*
X235317Y69408D01*
Y68771D01*
X235560Y68183D01*
X236010Y67733D01*
X236598Y67490D01*
X237235D01*
X237823Y67733D01*
X238273Y68183D01*
X238517Y68771D01*
Y69408D01*
X238273Y69996D01*
X237823Y70446D01*
X237235Y70690D01*
D02*
G37*
G36*
X219286D02*
X218650D01*
X218062Y70446D01*
X217612Y69996D01*
X217368Y69408D01*
Y68771D01*
X217612Y68183D01*
X218062Y67733D01*
X218650Y67490D01*
X219286D01*
X219875Y67733D01*
X220325Y68183D01*
X220568Y68771D01*
Y69408D01*
X220325Y69996D01*
X219875Y70446D01*
X219286Y70690D01*
D02*
G37*
G36*
X149377Y70688D02*
X148741D01*
X148153Y70444D01*
X147703Y69994D01*
X147459Y69406D01*
Y68769D01*
X147703Y68181D01*
X148153Y67731D01*
X148741Y67488D01*
X149377D01*
X149966Y67731D01*
X150416Y68181D01*
X150659Y68769D01*
Y69406D01*
X150416Y69994D01*
X149966Y70444D01*
X149377Y70688D01*
D02*
G37*
G36*
X91686D02*
X91050D01*
X90462Y70444D01*
X90012Y69994D01*
X89768Y69406D01*
Y68769D01*
X90012Y68181D01*
X90462Y67731D01*
X91050Y67488D01*
X91686D01*
X92274Y67731D01*
X92725Y68181D01*
X92968Y68769D01*
Y69406D01*
X92725Y69994D01*
X92274Y70444D01*
X91686Y70688D01*
D02*
G37*
G36*
X264611Y70675D02*
X263975D01*
X263387Y70431D01*
X262937Y69981D01*
X262693Y69393D01*
Y68757D01*
X262937Y68169D01*
X263387Y67718D01*
X263975Y67475D01*
X264611D01*
X265199Y67718D01*
X265650Y68169D01*
X265893Y68757D01*
Y69393D01*
X265650Y69981D01*
X265199Y70431D01*
X264611Y70675D01*
D02*
G37*
G36*
X179526Y70490D02*
X178889D01*
X178301Y70246D01*
X177851Y69796D01*
X177607Y69208D01*
Y68572D01*
X177851Y67983D01*
X178301Y67533D01*
X178889Y67290D01*
X179526D01*
X180114Y67533D01*
X180564Y67983D01*
X180807Y68572D01*
Y69208D01*
X180564Y69796D01*
X180114Y70246D01*
X179526Y70490D01*
D02*
G37*
G36*
X161577D02*
X160941D01*
X160353Y70246D01*
X159903Y69796D01*
X159659Y69208D01*
Y68572D01*
X159903Y67983D01*
X160353Y67533D01*
X160941Y67290D01*
X161577D01*
X162165Y67533D01*
X162616Y67983D01*
X162859Y68572D01*
Y69208D01*
X162616Y69796D01*
X162165Y70246D01*
X161577Y70490D01*
D02*
G37*
G36*
X121835D02*
X121198D01*
X120610Y70246D01*
X120160Y69796D01*
X119917Y69208D01*
Y68572D01*
X120160Y67983D01*
X120610Y67533D01*
X121198Y67290D01*
X121835D01*
X122423Y67533D01*
X122873Y67983D01*
X123117Y68572D01*
Y69208D01*
X122873Y69796D01*
X122423Y70246D01*
X121835Y70490D01*
D02*
G37*
G36*
X103886D02*
X103250D01*
X102662Y70246D01*
X102212Y69796D01*
X101968Y69208D01*
Y68572D01*
X102212Y67983D01*
X102662Y67533D01*
X103250Y67290D01*
X103886D01*
X104474Y67533D01*
X104925Y67983D01*
X105168Y68572D01*
Y69208D01*
X104925Y69796D01*
X104474Y70246D01*
X103886Y70490D01*
D02*
G37*
G36*
X294760Y70477D02*
X294123D01*
X293535Y70234D01*
X293085Y69784D01*
X292841Y69196D01*
Y68559D01*
X293085Y67971D01*
X293535Y67521D01*
X294123Y67277D01*
X294760D01*
X295348Y67521D01*
X295798Y67971D01*
X296041Y68559D01*
Y69196D01*
X295798Y69784D01*
X295348Y70234D01*
X294760Y70477D01*
D02*
G37*
G36*
X276811D02*
X276175D01*
X275587Y70234D01*
X275137Y69784D01*
X274893Y69196D01*
Y68559D01*
X275137Y67971D01*
X275587Y67521D01*
X276175Y67277D01*
X276811D01*
X277399Y67521D01*
X277850Y67971D01*
X278093Y68559D01*
Y69196D01*
X277850Y69784D01*
X277399Y70234D01*
X276811Y70477D01*
D02*
G37*
G36*
X80137Y66332D02*
X79500D01*
X78912Y66089D01*
X78462Y65639D01*
X78219Y65051D01*
Y64414D01*
X78462Y63826D01*
X78912Y63376D01*
X79500Y63132D01*
X80137D01*
X80725Y63376D01*
X81175Y63826D01*
X81419Y64414D01*
Y65051D01*
X81175Y65639D01*
X80725Y66089D01*
X80137Y66332D01*
D02*
G37*
G36*
X52416Y66207D02*
X51779D01*
X51191Y65964D01*
X50741Y65513D01*
X50497Y64925D01*
Y64289D01*
X50741Y63701D01*
X51191Y63251D01*
X51779Y63007D01*
X52416D01*
X53004Y63251D01*
X53454Y63701D01*
X53697Y64289D01*
Y64925D01*
X53454Y65513D01*
X53004Y65964D01*
X52416Y66207D01*
D02*
G37*
G36*
X26682Y65166D02*
X26046D01*
X25458Y64922D01*
X25008Y64472D01*
X24764Y63884D01*
Y63247D01*
X25008Y62659D01*
X25458Y62209D01*
X26046Y61966D01*
X26682D01*
X27270Y62209D01*
X27721Y62659D01*
X27964Y63247D01*
Y63884D01*
X27721Y64472D01*
X27270Y64922D01*
X26682Y65166D01*
D02*
G37*
G36*
X31682Y62665D02*
X31046D01*
X30458Y62422D01*
X30008Y61972D01*
X29764Y61384D01*
Y60747D01*
X30008Y60159D01*
X30458Y59709D01*
X31046Y59465D01*
X31682D01*
X32271Y59709D01*
X32721Y60159D01*
X32964Y60747D01*
Y61384D01*
X32721Y61972D01*
X32271Y62422D01*
X31682Y62665D01*
D02*
G37*
G36*
X72598Y61264D02*
X71961D01*
X71373Y61020D01*
X70923Y60570D01*
X70679Y59982D01*
Y59345D01*
X70923Y58757D01*
X71373Y58307D01*
X71961Y58064D01*
X72598D01*
X73186Y58307D01*
X73636Y58757D01*
X73879Y59345D01*
Y59982D01*
X73636Y60570D01*
X73186Y61020D01*
X72598Y61264D01*
D02*
G37*
G36*
X207134Y58891D02*
X206497D01*
X205909Y58647D01*
X205459Y58197D01*
X205215Y57609D01*
Y56972D01*
X205459Y56384D01*
X205909Y55934D01*
X206497Y55691D01*
X207134D01*
X207722Y55934D01*
X208172Y56384D01*
X208415Y56972D01*
Y57609D01*
X208172Y58197D01*
X207722Y58647D01*
X207134Y58891D01*
D02*
G37*
G36*
X149425Y58691D02*
X148788D01*
X148200Y58447D01*
X147750Y57997D01*
X147506Y57409D01*
Y56773D01*
X147750Y56184D01*
X148200Y55734D01*
X148788Y55491D01*
X149425D01*
X150013Y55734D01*
X150463Y56184D01*
X150706Y56773D01*
Y57409D01*
X150463Y57997D01*
X150013Y58447D01*
X149425Y58691D01*
D02*
G37*
G36*
X91734D02*
X91097D01*
X90509Y58447D01*
X90059Y57997D01*
X89815Y57409D01*
Y56773D01*
X90059Y56184D01*
X90509Y55734D01*
X91097Y55491D01*
X91734D01*
X92322Y55734D01*
X92772Y56184D01*
X93015Y56773D01*
Y57409D01*
X92772Y57997D01*
X92322Y58447D01*
X91734Y58691D01*
D02*
G37*
G36*
X264659Y58678D02*
X264022D01*
X263434Y58435D01*
X262984Y57985D01*
X262740Y57396D01*
Y56760D01*
X262984Y56172D01*
X263434Y55722D01*
X264022Y55478D01*
X264659D01*
X265247Y55722D01*
X265697Y56172D01*
X265940Y56760D01*
Y57396D01*
X265697Y57985D01*
X265247Y58435D01*
X264659Y58678D01*
D02*
G37*
G36*
X80756Y58166D02*
X80119D01*
X79531Y57922D01*
X79081Y57472D01*
X78837Y56884D01*
Y56247D01*
X79081Y55659D01*
X79531Y55209D01*
X80119Y54966D01*
X80756D01*
X81344Y55209D01*
X81794Y55659D01*
X82037Y56247D01*
Y56884D01*
X81794Y57472D01*
X81344Y57922D01*
X80756Y58166D01*
D02*
G37*
G36*
X31682D02*
X31046D01*
X30458Y57922D01*
X30008Y57472D01*
X29764Y56884D01*
Y56247D01*
X30008Y55659D01*
X30458Y55209D01*
X31046Y54966D01*
X31682D01*
X32271Y55209D01*
X32721Y55659D01*
X32964Y56247D01*
Y56884D01*
X32721Y57472D01*
X32271Y57922D01*
X31682Y58166D01*
D02*
G37*
G36*
X224325Y57341D02*
X223688D01*
X223100Y57097D01*
X222650Y56647D01*
X222406Y56059D01*
Y55423D01*
X222650Y54834D01*
X223100Y54384D01*
X223688Y54141D01*
X224325D01*
X224913Y54384D01*
X225363Y54834D01*
X225606Y55423D01*
Y56059D01*
X225363Y56647D01*
X224913Y57097D01*
X224325Y57341D01*
D02*
G37*
G36*
X232513Y57299D02*
X231876D01*
X231288Y57055D01*
X230838Y56605D01*
X230594Y56017D01*
Y55381D01*
X230838Y54793D01*
X231288Y54343D01*
X231876Y54099D01*
X232513D01*
X233101Y54343D01*
X233551Y54793D01*
X233794Y55381D01*
Y56017D01*
X233551Y56605D01*
X233101Y57055D01*
X232513Y57299D01*
D02*
G37*
G36*
X166616Y57141D02*
X165979D01*
X165391Y56897D01*
X164941Y56447D01*
X164697Y55859D01*
Y55222D01*
X164941Y54634D01*
X165391Y54184D01*
X165979Y53941D01*
X166616D01*
X167204Y54184D01*
X167654Y54634D01*
X167897Y55222D01*
Y55859D01*
X167654Y56447D01*
X167204Y56897D01*
X166616Y57141D01*
D02*
G37*
G36*
X108925D02*
X108288D01*
X107700Y56897D01*
X107250Y56447D01*
X107006Y55859D01*
Y55222D01*
X107250Y54634D01*
X107700Y54184D01*
X108288Y53941D01*
X108925D01*
X109513Y54184D01*
X109963Y54634D01*
X110206Y55222D01*
Y55859D01*
X109963Y56447D01*
X109513Y56897D01*
X108925Y57141D01*
D02*
G37*
G36*
X281850Y57128D02*
X281213D01*
X280625Y56885D01*
X280175Y56435D01*
X279931Y55847D01*
Y55210D01*
X280175Y54622D01*
X280625Y54172D01*
X281213Y53928D01*
X281850D01*
X282438Y54172D01*
X282888Y54622D01*
X283131Y55210D01*
Y55847D01*
X282888Y56435D01*
X282438Y56885D01*
X281850Y57128D01*
D02*
G37*
G36*
X174804Y57099D02*
X174167D01*
X173579Y56855D01*
X173129Y56405D01*
X172886Y55817D01*
Y55181D01*
X173129Y54593D01*
X173579Y54142D01*
X174167Y53899D01*
X174804D01*
X175392Y54142D01*
X175842Y54593D01*
X176085Y55181D01*
Y55817D01*
X175842Y56405D01*
X175392Y56855D01*
X174804Y57099D01*
D02*
G37*
G36*
X117113D02*
X116476D01*
X115888Y56855D01*
X115438Y56405D01*
X115195Y55817D01*
Y55181D01*
X115438Y54593D01*
X115888Y54142D01*
X116476Y53899D01*
X117113D01*
X117701Y54142D01*
X118151Y54593D01*
X118395Y55181D01*
Y55817D01*
X118151Y56405D01*
X117701Y56855D01*
X117113Y57099D01*
D02*
G37*
G36*
X290038Y57086D02*
X289401D01*
X288813Y56843D01*
X288363Y56393D01*
X288120Y55805D01*
Y55168D01*
X288363Y54580D01*
X288813Y54130D01*
X289401Y53886D01*
X290038D01*
X290626Y54130D01*
X291076Y54580D01*
X291319Y55168D01*
Y55805D01*
X291076Y56393D01*
X290626Y56843D01*
X290038Y57086D01*
D02*
G37*
G36*
X192430Y56691D02*
X191794D01*
X191205Y56447D01*
X190755Y55997D01*
X190512Y55409D01*
Y54773D01*
X190755Y54184D01*
X191205Y53734D01*
X191794Y53491D01*
X192430D01*
X193018Y53734D01*
X193468Y54184D01*
X193712Y54773D01*
Y55409D01*
X193468Y55997D01*
X193018Y56447D01*
X192430Y56691D01*
D02*
G37*
G36*
X134739D02*
X134103D01*
X133515Y56447D01*
X133064Y55997D01*
X132821Y55409D01*
Y54773D01*
X133064Y54184D01*
X133515Y53734D01*
X134103Y53491D01*
X134739D01*
X135327Y53734D01*
X135777Y54184D01*
X136021Y54773D01*
Y55409D01*
X135777Y55997D01*
X135327Y56447D01*
X134739Y56691D01*
D02*
G37*
G36*
X307664Y56678D02*
X307028D01*
X306439Y56435D01*
X305989Y55984D01*
X305746Y55396D01*
Y54760D01*
X305989Y54172D01*
X306439Y53722D01*
X307028Y53478D01*
X307664D01*
X308252Y53722D01*
X308702Y54172D01*
X308946Y54760D01*
Y55396D01*
X308702Y55984D01*
X308252Y56435D01*
X307664Y56678D01*
D02*
G37*
G36*
X250139Y56578D02*
X249503D01*
X248915Y56335D01*
X248464Y55884D01*
X248221Y55296D01*
Y54660D01*
X248464Y54072D01*
X248915Y53622D01*
X249503Y53378D01*
X250139D01*
X250727Y53622D01*
X251177Y54072D01*
X251421Y54660D01*
Y55296D01*
X251177Y55884D01*
X250727Y56335D01*
X250139Y56578D01*
D02*
G37*
G36*
X207086Y54991D02*
X206450D01*
X205862Y54747D01*
X205412Y54297D01*
X205168Y53709D01*
Y53073D01*
X205412Y52484D01*
X205862Y52034D01*
X206450Y51791D01*
X207086D01*
X207675Y52034D01*
X208125Y52484D01*
X208368Y53073D01*
Y53709D01*
X208125Y54297D01*
X207675Y54747D01*
X207086Y54991D01*
D02*
G37*
G36*
X149377Y54791D02*
X148741D01*
X148153Y54547D01*
X147703Y54097D01*
X147459Y53509D01*
Y52873D01*
X147703Y52284D01*
X148153Y51834D01*
X148741Y51591D01*
X149377D01*
X149966Y51834D01*
X150416Y52284D01*
X150659Y52873D01*
Y53509D01*
X150416Y54097D01*
X149966Y54547D01*
X149377Y54791D01*
D02*
G37*
G36*
X91686D02*
X91050D01*
X90462Y54547D01*
X90012Y54097D01*
X89768Y53509D01*
Y52873D01*
X90012Y52284D01*
X90462Y51834D01*
X91050Y51591D01*
X91686D01*
X92274Y51834D01*
X92725Y52284D01*
X92968Y52873D01*
Y53509D01*
X92725Y54097D01*
X92274Y54547D01*
X91686Y54791D01*
D02*
G37*
G36*
X264611Y54778D02*
X263975D01*
X263387Y54535D01*
X262937Y54084D01*
X262693Y53496D01*
Y52860D01*
X262937Y52272D01*
X263387Y51822D01*
X263975Y51578D01*
X264611D01*
X265199Y51822D01*
X265650Y52272D01*
X265893Y52860D01*
Y53496D01*
X265650Y54084D01*
X265199Y54535D01*
X264611Y54778D01*
D02*
G37*
G36*
X31632Y53641D02*
X30995D01*
X30407Y53398D01*
X29957Y52948D01*
X29713Y52360D01*
Y51723D01*
X29957Y51135D01*
X30407Y50685D01*
X30995Y50441D01*
X31632D01*
X32220Y50685D01*
X32670Y51135D01*
X32913Y51723D01*
Y52360D01*
X32670Y52948D01*
X32220Y53398D01*
X31632Y53641D01*
D02*
G37*
G36*
X80137Y53166D02*
X79500D01*
X78912Y52922D01*
X78462Y52472D01*
X78219Y51884D01*
Y51247D01*
X78462Y50659D01*
X78912Y50209D01*
X79500Y49966D01*
X80137D01*
X80725Y50209D01*
X81175Y50659D01*
X81419Y51247D01*
Y51884D01*
X81175Y52472D01*
X80725Y52922D01*
X80137Y53166D01*
D02*
G37*
G36*
X250318Y52588D02*
X249681D01*
X249093Y52344D01*
X248643Y51894D01*
X248400Y51306D01*
Y50670D01*
X248643Y50082D01*
X249093Y49632D01*
X249681Y49388D01*
X250318D01*
X250906Y49632D01*
X251356Y50082D01*
X251600Y50670D01*
Y51306D01*
X251356Y51894D01*
X250906Y52344D01*
X250318Y52588D01*
D02*
G37*
G36*
X237838Y52587D02*
X237201D01*
X236613Y52344D01*
X236163Y51894D01*
X235919Y51306D01*
Y50669D01*
X236163Y50081D01*
X236613Y49631D01*
X237201Y49387D01*
X237838D01*
X238426Y49631D01*
X238876Y50081D01*
X239119Y50669D01*
Y51306D01*
X238876Y51894D01*
X238426Y52344D01*
X237838Y52587D01*
D02*
G37*
G36*
X192609Y52388D02*
X191972D01*
X191384Y52144D01*
X190934Y51694D01*
X190691Y51106D01*
Y50470D01*
X190934Y49882D01*
X191384Y49431D01*
X191972Y49188D01*
X192609D01*
X193197Y49431D01*
X193647Y49882D01*
X193891Y50470D01*
Y51106D01*
X193647Y51694D01*
X193197Y52144D01*
X192609Y52388D01*
D02*
G37*
G36*
X134918D02*
X134282D01*
X133693Y52144D01*
X133243Y51694D01*
X133000Y51106D01*
Y50470D01*
X133243Y49882D01*
X133693Y49431D01*
X134282Y49188D01*
X134918D01*
X135506Y49431D01*
X135956Y49882D01*
X136200Y50470D01*
Y51106D01*
X135956Y51694D01*
X135506Y52144D01*
X134918Y52388D01*
D02*
G37*
G36*
X180128Y52387D02*
X179492D01*
X178904Y52144D01*
X178454Y51694D01*
X178210Y51106D01*
Y50469D01*
X178454Y49881D01*
X178904Y49431D01*
X179492Y49187D01*
X180128D01*
X180717Y49431D01*
X181167Y49881D01*
X181410Y50469D01*
Y51106D01*
X181167Y51694D01*
X180717Y52144D01*
X180128Y52387D01*
D02*
G37*
G36*
X122438D02*
X121801D01*
X121213Y52144D01*
X120763Y51694D01*
X120519Y51106D01*
Y50469D01*
X120763Y49881D01*
X121213Y49431D01*
X121801Y49187D01*
X122438D01*
X123026Y49431D01*
X123476Y49881D01*
X123719Y50469D01*
Y51106D01*
X123476Y51694D01*
X123026Y52144D01*
X122438Y52387D01*
D02*
G37*
G36*
X307843Y52376D02*
X307206D01*
X306618Y52132D01*
X306168Y51682D01*
X305925Y51094D01*
Y50457D01*
X306168Y49869D01*
X306618Y49419D01*
X307206Y49176D01*
X307843D01*
X308431Y49419D01*
X308881Y49869D01*
X309124Y50457D01*
Y51094D01*
X308881Y51682D01*
X308431Y52132D01*
X307843Y52376D01*
D02*
G37*
G36*
X295362Y52375D02*
X294726D01*
X294138Y52132D01*
X293688Y51682D01*
X293444Y51093D01*
Y50457D01*
X293688Y49869D01*
X294138Y49419D01*
X294726Y49175D01*
X295362D01*
X295951Y49419D01*
X296401Y49869D01*
X296644Y50457D01*
Y51093D01*
X296401Y51682D01*
X295951Y52132D01*
X295362Y52375D01*
D02*
G37*
G36*
X60982Y51263D02*
X60346D01*
X59758Y51020D01*
X59308Y50570D01*
X59064Y49982D01*
Y49345D01*
X59308Y48757D01*
X59758Y48307D01*
X60346Y48063D01*
X60982D01*
X61571Y48307D01*
X62021Y48757D01*
X62264Y49345D01*
Y49982D01*
X62021Y50570D01*
X61571Y51020D01*
X60982Y51263D01*
D02*
G37*
G36*
X206827Y50991D02*
X206191D01*
X205603Y50747D01*
X205153Y50297D01*
X204909Y49709D01*
Y49073D01*
X205153Y48484D01*
X205603Y48034D01*
X206191Y47791D01*
X206827D01*
X207416Y48034D01*
X207866Y48484D01*
X208109Y49073D01*
Y49709D01*
X207866Y50297D01*
X207416Y50747D01*
X206827Y50991D01*
D02*
G37*
G36*
X149118Y50791D02*
X148482D01*
X147894Y50547D01*
X147443Y50097D01*
X147200Y49509D01*
Y48873D01*
X147443Y48284D01*
X147894Y47834D01*
X148482Y47591D01*
X149118D01*
X149706Y47834D01*
X150156Y48284D01*
X150400Y48873D01*
Y49509D01*
X150156Y50097D01*
X149706Y50547D01*
X149118Y50791D01*
D02*
G37*
G36*
X91427D02*
X90791D01*
X90203Y50547D01*
X89753Y50097D01*
X89509Y49509D01*
Y48873D01*
X89753Y48284D01*
X90203Y47834D01*
X90791Y47591D01*
X91427D01*
X92015Y47834D01*
X92466Y48284D01*
X92709Y48873D01*
Y49509D01*
X92466Y50097D01*
X92015Y50547D01*
X91427Y50791D01*
D02*
G37*
G36*
X264352Y50778D02*
X263716D01*
X263128Y50535D01*
X262678Y50085D01*
X262434Y49496D01*
Y48860D01*
X262678Y48272D01*
X263128Y47822D01*
X263716Y47578D01*
X264352D01*
X264940Y47822D01*
X265390Y48272D01*
X265634Y48860D01*
Y49496D01*
X265390Y50085D01*
X264940Y50535D01*
X264352Y50778D01*
D02*
G37*
G36*
X224048Y49488D02*
X223412D01*
X222824Y49244D01*
X222374Y48794D01*
X222130Y48206D01*
Y47569D01*
X222374Y46981D01*
X222824Y46531D01*
X223412Y46288D01*
X224048D01*
X224636Y46531D01*
X225086Y46981D01*
X225330Y47569D01*
Y48206D01*
X225086Y48794D01*
X224636Y49244D01*
X224048Y49488D01*
D02*
G37*
G36*
X166339Y49288D02*
X165702D01*
X165114Y49044D01*
X164664Y48594D01*
X164421Y48006D01*
Y47369D01*
X164664Y46781D01*
X165114Y46331D01*
X165702Y46088D01*
X166339D01*
X166927Y46331D01*
X167377Y46781D01*
X167621Y47369D01*
Y48006D01*
X167377Y48594D01*
X166927Y49044D01*
X166339Y49288D01*
D02*
G37*
G36*
X108648D02*
X108012D01*
X107424Y49044D01*
X106974Y48594D01*
X106730Y48006D01*
Y47369D01*
X106974Y46781D01*
X107424Y46331D01*
X108012Y46088D01*
X108648D01*
X109236Y46331D01*
X109686Y46781D01*
X109930Y47369D01*
Y48006D01*
X109686Y48594D01*
X109236Y49044D01*
X108648Y49288D01*
D02*
G37*
G36*
X281573Y49275D02*
X280937D01*
X280348Y49031D01*
X279898Y48581D01*
X279655Y47993D01*
Y47357D01*
X279898Y46769D01*
X280348Y46319D01*
X280937Y46075D01*
X281573D01*
X282161Y46319D01*
X282611Y46769D01*
X282855Y47357D01*
Y47993D01*
X282611Y48581D01*
X282161Y49031D01*
X281573Y49275D01*
D02*
G37*
G36*
X250039Y47892D02*
X249403D01*
X248815Y47648D01*
X248364Y47198D01*
X248121Y46610D01*
Y45973D01*
X248364Y45385D01*
X248815Y44935D01*
X249403Y44692D01*
X250039D01*
X250627Y44935D01*
X251077Y45385D01*
X251321Y45973D01*
Y46610D01*
X251077Y47198D01*
X250627Y47648D01*
X250039Y47892D01*
D02*
G37*
G36*
X192330Y47692D02*
X191693D01*
X191105Y47448D01*
X190655Y46998D01*
X190412Y46410D01*
Y45773D01*
X190655Y45185D01*
X191105Y44735D01*
X191693Y44492D01*
X192330D01*
X192918Y44735D01*
X193368Y45185D01*
X193612Y45773D01*
Y46410D01*
X193368Y46998D01*
X192918Y47448D01*
X192330Y47692D01*
D02*
G37*
G36*
X134639D02*
X134003D01*
X133415Y47448D01*
X132965Y46998D01*
X132721Y46410D01*
Y45773D01*
X132965Y45185D01*
X133415Y44735D01*
X134003Y44492D01*
X134639D01*
X135227Y44735D01*
X135677Y45185D01*
X135921Y45773D01*
Y46410D01*
X135677Y46998D01*
X135227Y47448D01*
X134639Y47692D01*
D02*
G37*
G36*
X307564Y47679D02*
X306927D01*
X306339Y47436D01*
X305889Y46986D01*
X305646Y46397D01*
Y45761D01*
X305889Y45173D01*
X306339Y44723D01*
X306927Y44479D01*
X307564D01*
X308152Y44723D01*
X308602Y45173D01*
X308846Y45761D01*
Y46397D01*
X308602Y46986D01*
X308152Y47436D01*
X307564Y47679D01*
D02*
G37*
G36*
X206786Y46949D02*
X206150D01*
X205562Y46706D01*
X205112Y46255D01*
X204868Y45667D01*
Y45031D01*
X205112Y44443D01*
X205562Y43993D01*
X206150Y43749D01*
X206786D01*
X207375Y43993D01*
X207825Y44443D01*
X208068Y45031D01*
Y45667D01*
X207825Y46255D01*
X207375Y46706D01*
X206786Y46949D01*
D02*
G37*
G36*
X232218Y46900D02*
X231582D01*
X230994Y46656D01*
X230543Y46206D01*
X230300Y45618D01*
Y44982D01*
X230543Y44394D01*
X230994Y43944D01*
X231582Y43700D01*
X232218D01*
X232806Y43944D01*
X233256Y44394D01*
X233500Y44982D01*
Y45618D01*
X233256Y46206D01*
X232806Y46656D01*
X232218Y46900D01*
D02*
G37*
G36*
X149077Y46749D02*
X148441D01*
X147853Y46506D01*
X147403Y46055D01*
X147159Y45467D01*
Y44831D01*
X147403Y44243D01*
X147853Y43793D01*
X148441Y43549D01*
X149077D01*
X149665Y43793D01*
X150116Y44243D01*
X150359Y44831D01*
Y45467D01*
X150116Y46055D01*
X149665Y46506D01*
X149077Y46749D01*
D02*
G37*
G36*
X91386D02*
X90750D01*
X90162Y46506D01*
X89712Y46055D01*
X89468Y45467D01*
Y44831D01*
X89712Y44243D01*
X90162Y43793D01*
X90750Y43549D01*
X91386D01*
X91975Y43793D01*
X92425Y44243D01*
X92668Y44831D01*
Y45467D01*
X92425Y46055D01*
X91975Y46506D01*
X91386Y46749D01*
D02*
G37*
G36*
X264311Y46736D02*
X263675D01*
X263087Y46493D01*
X262637Y46043D01*
X262393Y45455D01*
Y44818D01*
X262637Y44230D01*
X263087Y43780D01*
X263675Y43536D01*
X264311D01*
X264899Y43780D01*
X265350Y44230D01*
X265593Y44818D01*
Y45455D01*
X265350Y46043D01*
X264899Y46493D01*
X264311Y46736D01*
D02*
G37*
G36*
X174509Y46700D02*
X173873D01*
X173285Y46456D01*
X172835Y46006D01*
X172591Y45418D01*
Y44782D01*
X172835Y44194D01*
X173285Y43744D01*
X173873Y43500D01*
X174509D01*
X175097Y43744D01*
X175547Y44194D01*
X175791Y44782D01*
Y45418D01*
X175547Y46006D01*
X175097Y46456D01*
X174509Y46700D01*
D02*
G37*
G36*
X116818D02*
X116182D01*
X115594Y46456D01*
X115144Y46006D01*
X114900Y45418D01*
Y44782D01*
X115144Y44194D01*
X115594Y43744D01*
X116182Y43500D01*
X116818D01*
X117406Y43744D01*
X117856Y44194D01*
X118100Y44782D01*
Y45418D01*
X117856Y46006D01*
X117406Y46456D01*
X116818Y46700D01*
D02*
G37*
G36*
X289743Y46687D02*
X289107D01*
X288519Y46444D01*
X288069Y45994D01*
X287825Y45406D01*
Y44769D01*
X288069Y44181D01*
X288519Y43731D01*
X289107Y43488D01*
X289743D01*
X290331Y43731D01*
X290781Y44181D01*
X291025Y44769D01*
Y45406D01*
X290781Y45994D01*
X290331Y46444D01*
X289743Y46687D01*
D02*
G37*
G36*
X224048Y44287D02*
X223412D01*
X222824Y44044D01*
X222374Y43594D01*
X222130Y43006D01*
Y42369D01*
X222374Y41781D01*
X222824Y41331D01*
X223412Y41087D01*
X224048D01*
X224636Y41331D01*
X225086Y41781D01*
X225330Y42369D01*
Y43006D01*
X225086Y43594D01*
X224636Y44044D01*
X224048Y44287D01*
D02*
G37*
G36*
X166339Y44087D02*
X165702D01*
X165114Y43844D01*
X164664Y43394D01*
X164421Y42806D01*
Y42169D01*
X164664Y41581D01*
X165114Y41131D01*
X165702Y40887D01*
X166339D01*
X166927Y41131D01*
X167377Y41581D01*
X167621Y42169D01*
Y42806D01*
X167377Y43394D01*
X166927Y43844D01*
X166339Y44087D01*
D02*
G37*
G36*
X108648D02*
X108012D01*
X107424Y43844D01*
X106974Y43394D01*
X106730Y42806D01*
Y42169D01*
X106974Y41581D01*
X107424Y41131D01*
X108012Y40887D01*
X108648D01*
X109236Y41131D01*
X109686Y41581D01*
X109930Y42169D01*
Y42806D01*
X109686Y43394D01*
X109236Y43844D01*
X108648Y44087D01*
D02*
G37*
G36*
X281573Y44075D02*
X280937D01*
X280348Y43831D01*
X279898Y43381D01*
X279655Y42793D01*
Y42157D01*
X279898Y41569D01*
X280348Y41118D01*
X280937Y40875D01*
X281573D01*
X282161Y41118D01*
X282611Y41569D01*
X282855Y42157D01*
Y42793D01*
X282611Y43381D01*
X282161Y43831D01*
X281573Y44075D01*
D02*
G37*
G36*
X250039Y43393D02*
X249402D01*
X248814Y43149D01*
X248364Y42699D01*
X248120Y42111D01*
Y41474D01*
X248364Y40886D01*
X248814Y40436D01*
X249402Y40192D01*
X250039D01*
X250627Y40436D01*
X251077Y40886D01*
X251320Y41474D01*
Y42111D01*
X251077Y42699D01*
X250627Y43149D01*
X250039Y43393D01*
D02*
G37*
G36*
X192330Y43192D02*
X191693D01*
X191105Y42949D01*
X190655Y42499D01*
X190411Y41911D01*
Y41274D01*
X190655Y40686D01*
X191105Y40236D01*
X191693Y39992D01*
X192330D01*
X192918Y40236D01*
X193368Y40686D01*
X193611Y41274D01*
Y41911D01*
X193368Y42499D01*
X192918Y42949D01*
X192330Y43192D01*
D02*
G37*
G36*
X134639D02*
X134002D01*
X133414Y42949D01*
X132964Y42499D01*
X132720Y41911D01*
Y41274D01*
X132964Y40686D01*
X133414Y40236D01*
X134002Y39992D01*
X134639D01*
X135227Y40236D01*
X135677Y40686D01*
X135920Y41274D01*
Y41911D01*
X135677Y42499D01*
X135227Y42949D01*
X134639Y43192D01*
D02*
G37*
G36*
X307564Y43180D02*
X306927D01*
X306339Y42936D01*
X305889Y42486D01*
X305645Y41898D01*
Y41262D01*
X305889Y40674D01*
X306339Y40224D01*
X306927Y39980D01*
X307564D01*
X308152Y40224D01*
X308602Y40674D01*
X308845Y41262D01*
Y41898D01*
X308602Y42486D01*
X308152Y42936D01*
X307564Y43180D01*
D02*
G37*
G36*
X206786Y43091D02*
X206150D01*
X205562Y42847D01*
X205112Y42397D01*
X204868Y41809D01*
Y41173D01*
X205112Y40584D01*
X205562Y40134D01*
X206150Y39891D01*
X206786D01*
X207375Y40134D01*
X207825Y40584D01*
X208068Y41173D01*
Y41809D01*
X207825Y42397D01*
X207375Y42847D01*
X206786Y43091D01*
D02*
G37*
G36*
X149077Y42891D02*
X148441D01*
X147853Y42647D01*
X147403Y42197D01*
X147159Y41609D01*
Y40973D01*
X147403Y40384D01*
X147853Y39934D01*
X148441Y39691D01*
X149077D01*
X149665Y39934D01*
X150116Y40384D01*
X150359Y40973D01*
Y41609D01*
X150116Y42197D01*
X149665Y42647D01*
X149077Y42891D01*
D02*
G37*
G36*
X91386D02*
X90750D01*
X90162Y42647D01*
X89712Y42197D01*
X89468Y41609D01*
Y40973D01*
X89712Y40384D01*
X90162Y39934D01*
X90750Y39691D01*
X91386D01*
X91975Y39934D01*
X92425Y40384D01*
X92668Y40973D01*
Y41609D01*
X92425Y42197D01*
X91975Y42647D01*
X91386Y42891D01*
D02*
G37*
G36*
X264311Y42878D02*
X263675D01*
X263087Y42635D01*
X262637Y42184D01*
X262393Y41596D01*
Y40960D01*
X262637Y40372D01*
X263087Y39922D01*
X263675Y39678D01*
X264311D01*
X264899Y39922D01*
X265350Y40372D01*
X265593Y40960D01*
Y41596D01*
X265350Y42184D01*
X264899Y42635D01*
X264311Y42878D01*
D02*
G37*
G36*
X232471Y41810D02*
X231835D01*
X231246Y41567D01*
X230796Y41117D01*
X230553Y40529D01*
Y39892D01*
X230796Y39304D01*
X231246Y38854D01*
X231835Y38610D01*
X232471D01*
X233059Y38854D01*
X233509Y39304D01*
X233753Y39892D01*
Y40529D01*
X233509Y41117D01*
X233059Y41567D01*
X232471Y41810D01*
D02*
G37*
G36*
X174762Y41610D02*
X174126D01*
X173537Y41367D01*
X173087Y40917D01*
X172844Y40329D01*
Y39692D01*
X173087Y39104D01*
X173537Y38654D01*
X174126Y38410D01*
X174762D01*
X175350Y38654D01*
X175800Y39104D01*
X176044Y39692D01*
Y40329D01*
X175800Y40917D01*
X175350Y41367D01*
X174762Y41610D01*
D02*
G37*
G36*
X117071D02*
X116435D01*
X115846Y41367D01*
X115396Y40917D01*
X115153Y40329D01*
Y39692D01*
X115396Y39104D01*
X115846Y38654D01*
X116435Y38410D01*
X117071D01*
X117659Y38654D01*
X118109Y39104D01*
X118353Y39692D01*
Y40329D01*
X118109Y40917D01*
X117659Y41367D01*
X117071Y41610D01*
D02*
G37*
G36*
X289996Y41598D02*
X289359D01*
X288771Y41354D01*
X288321Y40904D01*
X288078Y40316D01*
Y39680D01*
X288321Y39092D01*
X288771Y38642D01*
X289359Y38398D01*
X289996D01*
X290584Y38642D01*
X291034Y39092D01*
X291278Y39680D01*
Y40316D01*
X291034Y40904D01*
X290584Y41354D01*
X289996Y41598D01*
D02*
G37*
G36*
X227418Y40800D02*
X226782D01*
X226194Y40556D01*
X225744Y40106D01*
X225500Y39518D01*
Y38882D01*
X225744Y38294D01*
X226194Y37843D01*
X226782Y37600D01*
X227418D01*
X228006Y37843D01*
X228456Y38294D01*
X228700Y38882D01*
Y39518D01*
X228456Y40106D01*
X228006Y40556D01*
X227418Y40800D01*
D02*
G37*
G36*
X169828Y40456D02*
X169192D01*
X168604Y40212D01*
X168154Y39762D01*
X167910Y39174D01*
Y38537D01*
X168154Y37949D01*
X168604Y37499D01*
X169192Y37256D01*
X169828D01*
X170416Y37499D01*
X170867Y37949D01*
X171110Y38537D01*
Y39174D01*
X170867Y39762D01*
X170416Y40212D01*
X169828Y40456D01*
D02*
G37*
G36*
X112138Y39902D02*
X111501D01*
X110913Y39659D01*
X110463Y39209D01*
X110219Y38621D01*
Y37984D01*
X110463Y37396D01*
X110913Y36946D01*
X111501Y36702D01*
X112138D01*
X112726Y36946D01*
X113176Y37396D01*
X113419Y37984D01*
Y38621D01*
X113176Y39209D01*
X112726Y39659D01*
X112138Y39902D01*
D02*
G37*
G36*
X250039Y38892D02*
X249403D01*
X248815Y38648D01*
X248364Y38198D01*
X248121Y37610D01*
Y36974D01*
X248364Y36386D01*
X248815Y35936D01*
X249403Y35692D01*
X250039D01*
X250627Y35936D01*
X251077Y36386D01*
X251321Y36974D01*
Y37610D01*
X251077Y38198D01*
X250627Y38648D01*
X250039Y38892D01*
D02*
G37*
G36*
X192330Y38692D02*
X191693D01*
X191105Y38448D01*
X190655Y37998D01*
X190412Y37410D01*
Y36774D01*
X190655Y36186D01*
X191105Y35735D01*
X191693Y35492D01*
X192330D01*
X192918Y35735D01*
X193368Y36186D01*
X193612Y36774D01*
Y37410D01*
X193368Y37998D01*
X192918Y38448D01*
X192330Y38692D01*
D02*
G37*
G36*
X134639D02*
X134003D01*
X133415Y38448D01*
X132965Y37998D01*
X132721Y37410D01*
Y36774D01*
X132965Y36186D01*
X133415Y35735D01*
X134003Y35492D01*
X134639D01*
X135227Y35735D01*
X135677Y36186D01*
X135921Y36774D01*
Y37410D01*
X135677Y37998D01*
X135227Y38448D01*
X134639Y38692D01*
D02*
G37*
G36*
X307564Y38680D02*
X306927D01*
X306339Y38436D01*
X305889Y37986D01*
X305646Y37398D01*
Y36761D01*
X305889Y36173D01*
X306339Y35723D01*
X306927Y35480D01*
X307564D01*
X308152Y35723D01*
X308602Y36173D01*
X308846Y36761D01*
Y37398D01*
X308602Y37986D01*
X308152Y38436D01*
X307564Y38680D01*
D02*
G37*
G36*
X209654Y36163D02*
X209017D01*
X208429Y35920D01*
X207979Y35470D01*
X207735Y34882D01*
Y34245D01*
X207979Y33657D01*
X208429Y33207D01*
X209017Y32963D01*
X209654D01*
X210242Y33207D01*
X210692Y33657D01*
X210935Y34245D01*
Y34882D01*
X210692Y35470D01*
X210242Y35920D01*
X209654Y36163D01*
D02*
G37*
G36*
X151945Y35963D02*
X151308D01*
X150720Y35720D01*
X150270Y35270D01*
X150026Y34682D01*
Y34045D01*
X150270Y33457D01*
X150720Y33007D01*
X151308Y32763D01*
X151945D01*
X152533Y33007D01*
X152983Y33457D01*
X153226Y34045D01*
Y34682D01*
X152983Y35270D01*
X152533Y35720D01*
X151945Y35963D01*
D02*
G37*
G36*
X94254D02*
X93617D01*
X93029Y35720D01*
X92579Y35270D01*
X92335Y34682D01*
Y34045D01*
X92579Y33457D01*
X93029Y33007D01*
X93617Y32763D01*
X94254D01*
X94842Y33007D01*
X95292Y33457D01*
X95535Y34045D01*
Y34682D01*
X95292Y35270D01*
X94842Y35720D01*
X94254Y35963D01*
D02*
G37*
G36*
X267179Y35951D02*
X266542D01*
X265954Y35707D01*
X265504Y35257D01*
X265260Y34669D01*
Y34033D01*
X265504Y33445D01*
X265954Y32994D01*
X266542Y32751D01*
X267179D01*
X267767Y32994D01*
X268217Y33445D01*
X268460Y34033D01*
Y34669D01*
X268217Y35257D01*
X267767Y35707D01*
X267179Y35951D01*
D02*
G37*
G36*
X24026Y29524D02*
X23390D01*
X22802Y29281D01*
X22352Y28831D01*
X22208Y28483D01*
X21667D01*
X21523Y28831D01*
X21072Y29281D01*
X20484Y29524D01*
X19848D01*
X19260Y29281D01*
X18810Y28831D01*
X18566Y28243D01*
Y27606D01*
X18810Y27018D01*
X19260Y26568D01*
X19848Y26324D01*
X20484D01*
X21072Y26568D01*
X21523Y27018D01*
X21667Y27366D01*
X22208D01*
X22352Y27018D01*
X22802Y26568D01*
X23390Y26324D01*
X24026D01*
X24615Y26568D01*
X25065Y27018D01*
X25308Y27606D01*
Y28243D01*
X25065Y28831D01*
X24615Y29281D01*
X24026Y29524D01*
D02*
G37*
G36*
X269994Y31170D02*
X269357D01*
X268769Y30927D01*
X268319Y30476D01*
X268076Y29888D01*
Y29252D01*
X268319Y28664D01*
X268769Y28214D01*
X269357Y27970D01*
X269994D01*
X270582Y28214D01*
X271032Y28664D01*
X271276Y29252D01*
Y29888D01*
X271032Y30476D01*
X270582Y30927D01*
X269994Y31170D01*
D02*
G37*
G36*
X218359Y31157D02*
X217722D01*
X217134Y30914D01*
X216684Y30464D01*
X216441Y29876D01*
Y29239D01*
X216684Y28651D01*
X217134Y28201D01*
X217722Y27957D01*
X218359D01*
X218947Y28201D01*
X219397Y28651D01*
X219640Y29239D01*
Y29876D01*
X219397Y30464D01*
X218947Y30914D01*
X218359Y31157D01*
D02*
G37*
G36*
X275884Y31031D02*
X275247D01*
X274659Y30787D01*
X274209Y30337D01*
X273965Y29749D01*
Y29113D01*
X274209Y28525D01*
X274659Y28074D01*
X275247Y27831D01*
X275884D01*
X276472Y28074D01*
X276922Y28525D01*
X277165Y29113D01*
Y29749D01*
X276922Y30337D01*
X276472Y30787D01*
X275884Y31031D01*
D02*
G37*
G36*
X212469D02*
X211832D01*
X211244Y30787D01*
X210794Y30337D01*
X210551Y29749D01*
Y29113D01*
X210794Y28525D01*
X211244Y28074D01*
X211832Y27831D01*
X212469D01*
X213057Y28074D01*
X213507Y28525D01*
X213751Y29113D01*
Y29749D01*
X213507Y30337D01*
X213057Y30787D01*
X212469Y31031D01*
D02*
G37*
G36*
X72598Y30437D02*
X71961D01*
X71373Y30193D01*
X70923Y29743D01*
X70679Y29155D01*
Y28519D01*
X70923Y27930D01*
X71373Y27480D01*
X71961Y27237D01*
X72598D01*
X73186Y27480D01*
X73636Y27930D01*
X73879Y28519D01*
Y29155D01*
X73636Y29743D01*
X73186Y30193D01*
X72598Y30437D01*
D02*
G37*
G36*
X223786Y28770D02*
X223149D01*
X222561Y28527D01*
X222111Y28076D01*
X221868Y27488D01*
Y26852D01*
X222111Y26264D01*
X222561Y25814D01*
X223149Y25570D01*
X223786D01*
X224374Y25814D01*
X224824Y26264D01*
X225068Y26852D01*
Y27488D01*
X224824Y28076D01*
X224374Y28527D01*
X223786Y28770D01*
D02*
G37*
G36*
X166077Y28570D02*
X165440D01*
X164852Y28327D01*
X164402Y27876D01*
X164158Y27288D01*
Y26652D01*
X164402Y26064D01*
X164852Y25614D01*
X165440Y25370D01*
X166077D01*
X166665Y25614D01*
X167115Y26064D01*
X167359Y26652D01*
Y27288D01*
X167115Y27876D01*
X166665Y28327D01*
X166077Y28570D01*
D02*
G37*
G36*
X108386D02*
X107749D01*
X107161Y28327D01*
X106711Y27876D01*
X106468Y27288D01*
Y26652D01*
X106711Y26064D01*
X107161Y25614D01*
X107749Y25370D01*
X108386D01*
X108974Y25614D01*
X109424Y26064D01*
X109668Y26652D01*
Y27288D01*
X109424Y27876D01*
X108974Y28327D01*
X108386Y28570D01*
D02*
G37*
G36*
X281311Y28558D02*
X280674D01*
X280086Y28314D01*
X279636Y27864D01*
X279393Y27276D01*
Y26639D01*
X279636Y26051D01*
X280086Y25601D01*
X280674Y25358D01*
X281311D01*
X281899Y25601D01*
X282349Y26051D01*
X282593Y26639D01*
Y27276D01*
X282349Y27864D01*
X281899Y28314D01*
X281311Y28558D01*
D02*
G37*
G36*
X248938Y26329D02*
X248301D01*
X247713Y26085D01*
X247263Y25635D01*
X247019Y25047D01*
Y24410D01*
X247263Y23822D01*
X247713Y23372D01*
X248301Y23129D01*
X248938D01*
X249526Y23372D01*
X249976Y23822D01*
X250219Y24410D01*
Y25047D01*
X249976Y25635D01*
X249526Y26085D01*
X248938Y26329D01*
D02*
G37*
G36*
X191228Y26129D02*
X190592D01*
X190004Y25885D01*
X189554Y25435D01*
X189310Y24847D01*
Y24210D01*
X189554Y23622D01*
X190004Y23172D01*
X190592Y22929D01*
X191228D01*
X191816Y23172D01*
X192267Y23622D01*
X192510Y24210D01*
Y24847D01*
X192267Y25435D01*
X191816Y25885D01*
X191228Y26129D01*
D02*
G37*
G36*
X133538D02*
X132901D01*
X132313Y25885D01*
X131863Y25435D01*
X131619Y24847D01*
Y24210D01*
X131863Y23622D01*
X132313Y23172D01*
X132901Y22929D01*
X133538D01*
X134126Y23172D01*
X134576Y23622D01*
X134819Y24210D01*
Y24847D01*
X134576Y25435D01*
X134126Y25885D01*
X133538Y26129D01*
D02*
G37*
G36*
X306462Y26116D02*
X305826D01*
X305238Y25872D01*
X304788Y25422D01*
X304544Y24834D01*
Y24198D01*
X304788Y23610D01*
X305238Y23159D01*
X305826Y22916D01*
X306462D01*
X307050Y23159D01*
X307501Y23610D01*
X307744Y24198D01*
Y24834D01*
X307501Y25422D01*
X307050Y25872D01*
X306462Y26116D01*
D02*
G37*
G36*
X244992Y22945D02*
X244356D01*
X243767Y22702D01*
X243317Y22252D01*
X243074Y21663D01*
Y21027D01*
X243317Y20439D01*
X243767Y19989D01*
X244356Y19745D01*
X244992D01*
X245580Y19989D01*
X246030Y20439D01*
X246274Y21027D01*
Y21663D01*
X246030Y22252D01*
X245580Y22702D01*
X244992Y22945D01*
D02*
G37*
G36*
X240779D02*
X240142D01*
X239554Y22702D01*
X239104Y22252D01*
X238860Y21663D01*
Y21027D01*
X239104Y20439D01*
X239554Y19989D01*
X240142Y19745D01*
X240779D01*
X241367Y19989D01*
X241817Y20439D01*
X242060Y21027D01*
Y21663D01*
X241817Y22252D01*
X241367Y22702D01*
X240779Y22945D01*
D02*
G37*
G36*
X187283Y22745D02*
X186646D01*
X186058Y22502D01*
X185608Y22051D01*
X185365Y21463D01*
Y20827D01*
X185608Y20239D01*
X186058Y19789D01*
X186646Y19545D01*
X187283D01*
X187871Y19789D01*
X188321Y20239D01*
X188565Y20827D01*
Y21463D01*
X188321Y22051D01*
X187871Y22502D01*
X187283Y22745D01*
D02*
G37*
G36*
X183069D02*
X182433D01*
X181845Y22502D01*
X181395Y22051D01*
X181151Y21463D01*
Y20827D01*
X181395Y20239D01*
X181845Y19789D01*
X182433Y19545D01*
X183069D01*
X183658Y19789D01*
X184108Y20239D01*
X184351Y20827D01*
Y21463D01*
X184108Y22051D01*
X183658Y22502D01*
X183069Y22745D01*
D02*
G37*
G36*
X129592D02*
X128955D01*
X128367Y22502D01*
X127917Y22051D01*
X127674Y21463D01*
Y20827D01*
X127917Y20239D01*
X128367Y19789D01*
X128955Y19545D01*
X129592D01*
X130180Y19789D01*
X130630Y20239D01*
X130874Y20827D01*
Y21463D01*
X130630Y22051D01*
X130180Y22502D01*
X129592Y22745D01*
D02*
G37*
G36*
X125379D02*
X124742D01*
X124154Y22502D01*
X123704Y22051D01*
X123460Y21463D01*
Y20827D01*
X123704Y20239D01*
X124154Y19789D01*
X124742Y19545D01*
X125379D01*
X125967Y19789D01*
X126417Y20239D01*
X126660Y20827D01*
Y21463D01*
X126417Y22051D01*
X125967Y22502D01*
X125379Y22745D01*
D02*
G37*
G36*
X302517Y22733D02*
X301881D01*
X301292Y22489D01*
X300842Y22039D01*
X300599Y21451D01*
Y20814D01*
X300842Y20226D01*
X301292Y19776D01*
X301881Y19533D01*
X302517D01*
X303105Y19776D01*
X303555Y20226D01*
X303799Y20814D01*
Y21451D01*
X303555Y22039D01*
X303105Y22489D01*
X302517Y22733D01*
D02*
G37*
G36*
X298303D02*
X297667D01*
X297079Y22489D01*
X296629Y22039D01*
X296385Y21451D01*
Y20814D01*
X296629Y20226D01*
X297079Y19776D01*
X297667Y19533D01*
X298303D01*
X298891Y19776D01*
X299342Y20226D01*
X299585Y20814D01*
Y21451D01*
X299342Y22039D01*
X298891Y22489D01*
X298303Y22733D01*
D02*
G37*
G36*
X8753Y22388D02*
X8116D01*
X7528Y22144D01*
X7078Y21694D01*
X6835Y21106D01*
Y20470D01*
X7078Y19882D01*
X7528Y19432D01*
X8116Y19188D01*
X8753D01*
X9341Y19432D01*
X9791Y19882D01*
X10035Y20470D01*
Y21106D01*
X9791Y21694D01*
X9341Y22144D01*
X8753Y22388D01*
D02*
G37*
G36*
X23949Y21831D02*
X23312D01*
X22724Y21588D01*
X22274Y21138D01*
X22031Y20550D01*
Y19913D01*
X22274Y19325D01*
X22724Y18875D01*
X23312Y18631D01*
X23949D01*
X24537Y18875D01*
X24987Y19325D01*
X25231Y19913D01*
Y20550D01*
X24987Y21138D01*
X24537Y21588D01*
X23949Y21831D01*
D02*
G37*
G36*
X211145Y21753D02*
X210508D01*
X209920Y21509D01*
X209470Y21059D01*
X209226Y20471D01*
Y19835D01*
X209470Y19246D01*
X209920Y18796D01*
X210508Y18553D01*
X211145D01*
X211733Y18796D01*
X212183Y19246D01*
X212426Y19835D01*
Y20471D01*
X212183Y21059D01*
X211733Y21509D01*
X211145Y21753D01*
D02*
G37*
G36*
X153436Y21553D02*
X152799D01*
X152211Y21309D01*
X151761Y20859D01*
X151517Y20271D01*
Y19635D01*
X151761Y19046D01*
X152211Y18596D01*
X152799Y18353D01*
X153436D01*
X154024Y18596D01*
X154474Y19046D01*
X154717Y19635D01*
Y20271D01*
X154474Y20859D01*
X154024Y21309D01*
X153436Y21553D01*
D02*
G37*
G36*
X95745D02*
X95108D01*
X94520Y21309D01*
X94070Y20859D01*
X93827Y20271D01*
Y19635D01*
X94070Y19046D01*
X94520Y18596D01*
X95108Y18353D01*
X95745D01*
X96333Y18596D01*
X96783Y19046D01*
X97026Y19635D01*
Y20271D01*
X96783Y20859D01*
X96333Y21309D01*
X95745Y21553D01*
D02*
G37*
G36*
X268670Y21540D02*
X268033D01*
X267445Y21297D01*
X266995Y20847D01*
X266751Y20259D01*
Y19622D01*
X266995Y19034D01*
X267445Y18584D01*
X268033Y18340D01*
X268670D01*
X269258Y18584D01*
X269708Y19034D01*
X269951Y19622D01*
Y20259D01*
X269708Y20847D01*
X269258Y21297D01*
X268670Y21540D01*
D02*
G37*
G36*
X232905Y21450D02*
X232269D01*
X231681Y21206D01*
X231230Y20756D01*
X230987Y20168D01*
Y19532D01*
X231230Y18943D01*
X231681Y18493D01*
X232269Y18250D01*
X232905D01*
X233493Y18493D01*
X233943Y18943D01*
X234187Y19532D01*
Y20168D01*
X233943Y20756D01*
X233493Y21206D01*
X232905Y21450D01*
D02*
G37*
G36*
X175196Y21250D02*
X174560D01*
X173972Y21006D01*
X173521Y20556D01*
X173278Y19968D01*
Y19331D01*
X173521Y18743D01*
X173972Y18293D01*
X174560Y18050D01*
X175196D01*
X175784Y18293D01*
X176234Y18743D01*
X176478Y19331D01*
Y19968D01*
X176234Y20556D01*
X175784Y21006D01*
X175196Y21250D01*
D02*
G37*
G36*
X117505D02*
X116869D01*
X116281Y21006D01*
X115831Y20556D01*
X115587Y19968D01*
Y19331D01*
X115831Y18743D01*
X116281Y18293D01*
X116869Y18050D01*
X117505D01*
X118093Y18293D01*
X118543Y18743D01*
X118787Y19331D01*
Y19968D01*
X118543Y20556D01*
X118093Y21006D01*
X117505Y21250D01*
D02*
G37*
G36*
X290430Y21237D02*
X289794D01*
X289206Y20994D01*
X288755Y20543D01*
X288512Y19955D01*
Y19319D01*
X288755Y18731D01*
X289206Y18281D01*
X289794Y18037D01*
X290430D01*
X291018Y18281D01*
X291468Y18731D01*
X291712Y19319D01*
Y19955D01*
X291468Y20543D01*
X291018Y20994D01*
X290430Y21237D01*
D02*
G37*
G36*
X31928Y19413D02*
X31292D01*
X30703Y19170D01*
X30253Y18720D01*
X30010Y18131D01*
Y17495D01*
X30253Y16907D01*
X30703Y16457D01*
X31292Y16213D01*
X31928D01*
X32516Y16457D01*
X32966Y16907D01*
X33210Y17495D01*
Y18131D01*
X32966Y18720D01*
X32516Y19170D01*
X31928Y19413D01*
D02*
G37*
G36*
X59818Y19300D02*
X59182D01*
X58594Y19056D01*
X58144Y18606D01*
X57900Y18018D01*
Y17382D01*
X58144Y16794D01*
X58594Y16344D01*
X59182Y16100D01*
X59818D01*
X60406Y16344D01*
X60856Y16794D01*
X61100Y17382D01*
Y18018D01*
X60856Y18606D01*
X60406Y19056D01*
X59818Y19300D01*
D02*
G37*
G36*
X211145Y18012D02*
X210508D01*
X209920Y17769D01*
X209470Y17319D01*
X209226Y16731D01*
Y16094D01*
X209470Y15506D01*
X209920Y15056D01*
X210508Y14812D01*
X211145D01*
X211733Y15056D01*
X212183Y15506D01*
X212426Y16094D01*
Y16731D01*
X212183Y17319D01*
X211733Y17769D01*
X211145Y18012D01*
D02*
G37*
G36*
X153436Y17812D02*
X152799D01*
X152211Y17569D01*
X151761Y17119D01*
X151517Y16531D01*
Y15894D01*
X151761Y15306D01*
X152211Y14856D01*
X152799Y14613D01*
X153436D01*
X154024Y14856D01*
X154474Y15306D01*
X154717Y15894D01*
Y16531D01*
X154474Y17119D01*
X154024Y17569D01*
X153436Y17812D01*
D02*
G37*
G36*
X95745D02*
X95108D01*
X94520Y17569D01*
X94070Y17119D01*
X93827Y16531D01*
Y15894D01*
X94070Y15306D01*
X94520Y14856D01*
X95108Y14613D01*
X95745D01*
X96333Y14856D01*
X96783Y15306D01*
X97026Y15894D01*
Y16531D01*
X96783Y17119D01*
X96333Y17569D01*
X95745Y17812D01*
D02*
G37*
G36*
X268670Y17800D02*
X268033D01*
X267445Y17557D01*
X266995Y17107D01*
X266751Y16518D01*
Y15882D01*
X266995Y15294D01*
X267445Y14844D01*
X268033Y14600D01*
X268670D01*
X269258Y14844D01*
X269708Y15294D01*
X269951Y15882D01*
Y16518D01*
X269708Y17107D01*
X269258Y17557D01*
X268670Y17800D01*
D02*
G37*
G36*
X305586Y12453D02*
X304414D01*
X303281Y12149D01*
X302266Y11563D01*
X301437Y10734D01*
X300851Y9719D01*
X300547Y8586D01*
Y7414D01*
X300851Y6281D01*
X301437Y5266D01*
X302266Y4437D01*
X303281Y3851D01*
X304414Y3547D01*
X305586D01*
X306719Y3851D01*
X307734Y4437D01*
X308563Y5266D01*
X309149Y6281D01*
X309453Y7414D01*
Y8586D01*
X309149Y9719D01*
X308563Y10734D01*
X307734Y11563D01*
X306719Y12149D01*
X305586Y12453D01*
D02*
G37*
G36*
X295586D02*
X294414D01*
X293281Y12149D01*
X292266Y11563D01*
X291437Y10734D01*
X290851Y9719D01*
X290547Y8586D01*
Y7414D01*
X290851Y6281D01*
X291437Y5266D01*
X292266Y4437D01*
X293281Y3851D01*
X294414Y3547D01*
X295586D01*
X296719Y3851D01*
X297734Y4437D01*
X298563Y5266D01*
X299149Y6281D01*
X299453Y7414D01*
Y8586D01*
X299149Y9719D01*
X298563Y10734D01*
X297734Y11563D01*
X296719Y12149D01*
X295586Y12453D01*
D02*
G37*
G36*
X285586D02*
X284414D01*
X283281Y12149D01*
X282266Y11563D01*
X281437Y10734D01*
X280851Y9719D01*
X280547Y8586D01*
Y7414D01*
X280851Y6281D01*
X281437Y5266D01*
X282266Y4437D01*
X283281Y3851D01*
X284414Y3547D01*
X285586D01*
X286719Y3851D01*
X287734Y4437D01*
X288563Y5266D01*
X289149Y6281D01*
X289453Y7414D01*
Y8586D01*
X289149Y9719D01*
X288563Y10734D01*
X287734Y11563D01*
X286719Y12149D01*
X285586Y12453D01*
D02*
G37*
G36*
X275586D02*
X274414D01*
X273281Y12149D01*
X272266Y11563D01*
X271437Y10734D01*
X270851Y9719D01*
X270547Y8586D01*
Y7414D01*
X270851Y6281D01*
X271437Y5266D01*
X272266Y4437D01*
X273281Y3851D01*
X274414Y3547D01*
X275586D01*
X276719Y3851D01*
X277734Y4437D01*
X278563Y5266D01*
X279149Y6281D01*
X279453Y7414D01*
Y8586D01*
X279149Y9719D01*
X278563Y10734D01*
X277734Y11563D01*
X276719Y12149D01*
X275586Y12453D01*
D02*
G37*
G36*
X265586D02*
X264414D01*
X263281Y12149D01*
X262266Y11563D01*
X261437Y10734D01*
X260851Y9719D01*
X260547Y8586D01*
Y7414D01*
X260851Y6281D01*
X261437Y5266D01*
X262266Y4437D01*
X263281Y3851D01*
X264414Y3547D01*
X265586D01*
X266719Y3851D01*
X267734Y4437D01*
X268563Y5266D01*
X269149Y6281D01*
X269453Y7414D01*
Y8586D01*
X269149Y9719D01*
X268563Y10734D01*
X267734Y11563D01*
X266719Y12149D01*
X265586Y12453D01*
D02*
G37*
G36*
X255586D02*
X254414D01*
X253281Y12149D01*
X252266Y11563D01*
X251437Y10734D01*
X250851Y9719D01*
X250547Y8586D01*
Y7414D01*
X250851Y6281D01*
X251437Y5266D01*
X252266Y4437D01*
X253281Y3851D01*
X254414Y3547D01*
X255586D01*
X256719Y3851D01*
X257734Y4437D01*
X258563Y5266D01*
X259149Y6281D01*
X259453Y7414D01*
Y8586D01*
X259149Y9719D01*
X258563Y10734D01*
X257734Y11563D01*
X256719Y12149D01*
X255586Y12453D01*
D02*
G37*
G36*
X245586D02*
X244414D01*
X243281Y12149D01*
X242266Y11563D01*
X241437Y10734D01*
X240851Y9719D01*
X240547Y8586D01*
Y7414D01*
X240851Y6281D01*
X241437Y5266D01*
X242266Y4437D01*
X243281Y3851D01*
X244414Y3547D01*
X245586D01*
X246719Y3851D01*
X247734Y4437D01*
X248563Y5266D01*
X249149Y6281D01*
X249453Y7414D01*
Y8586D01*
X249149Y9719D01*
X248563Y10734D01*
X247734Y11563D01*
X246719Y12149D01*
X245586Y12453D01*
D02*
G37*
G36*
X235586D02*
X234414D01*
X233281Y12149D01*
X232266Y11563D01*
X231437Y10734D01*
X230851Y9719D01*
X230547Y8586D01*
Y7414D01*
X230851Y6281D01*
X231437Y5266D01*
X232266Y4437D01*
X233281Y3851D01*
X234414Y3547D01*
X235586D01*
X236719Y3851D01*
X237734Y4437D01*
X238563Y5266D01*
X239149Y6281D01*
X239453Y7414D01*
Y8586D01*
X239149Y9719D01*
X238563Y10734D01*
X237734Y11563D01*
X236719Y12149D01*
X235586Y12453D01*
D02*
G37*
G36*
X225586D02*
X224414D01*
X223281Y12149D01*
X222266Y11563D01*
X221437Y10734D01*
X220851Y9719D01*
X220547Y8586D01*
Y7414D01*
X220851Y6281D01*
X221437Y5266D01*
X222266Y4437D01*
X223281Y3851D01*
X224414Y3547D01*
X225586D01*
X226719Y3851D01*
X227734Y4437D01*
X228563Y5266D01*
X229149Y6281D01*
X229453Y7414D01*
Y8586D01*
X229149Y9719D01*
X228563Y10734D01*
X227734Y11563D01*
X226719Y12149D01*
X225586Y12453D01*
D02*
G37*
G36*
X215586D02*
X214414D01*
X213281Y12149D01*
X212266Y11563D01*
X211437Y10734D01*
X210851Y9719D01*
X210547Y8586D01*
Y7414D01*
X210851Y6281D01*
X211437Y5266D01*
X212266Y4437D01*
X213281Y3851D01*
X214414Y3547D01*
X215586D01*
X216719Y3851D01*
X217734Y4437D01*
X218563Y5266D01*
X219149Y6281D01*
X219453Y7414D01*
Y8586D01*
X219149Y9719D01*
X218563Y10734D01*
X217734Y11563D01*
X216719Y12149D01*
X215586Y12453D01*
D02*
G37*
G36*
X205586D02*
X204414D01*
X203281Y12149D01*
X202266Y11563D01*
X201437Y10734D01*
X200851Y9719D01*
X200547Y8586D01*
Y7414D01*
X200851Y6281D01*
X201437Y5266D01*
X202266Y4437D01*
X203281Y3851D01*
X204414Y3547D01*
X205586D01*
X206719Y3851D01*
X207734Y4437D01*
X208563Y5266D01*
X209149Y6281D01*
X209453Y7414D01*
Y8586D01*
X209149Y9719D01*
X208563Y10734D01*
X207734Y11563D01*
X206719Y12149D01*
X205586Y12453D01*
D02*
G37*
G36*
X195586D02*
X194414D01*
X193281Y12149D01*
X192266Y11563D01*
X191437Y10734D01*
X190851Y9719D01*
X190547Y8586D01*
Y7414D01*
X190851Y6281D01*
X191437Y5266D01*
X192266Y4437D01*
X193281Y3851D01*
X194414Y3547D01*
X195586D01*
X196719Y3851D01*
X197734Y4437D01*
X198563Y5266D01*
X199149Y6281D01*
X199453Y7414D01*
Y8586D01*
X199149Y9719D01*
X198563Y10734D01*
X197734Y11563D01*
X196719Y12149D01*
X195586Y12453D01*
D02*
G37*
G36*
X185586D02*
X184414D01*
X183281Y12149D01*
X182266Y11563D01*
X181437Y10734D01*
X180851Y9719D01*
X180547Y8586D01*
Y7414D01*
X180851Y6281D01*
X181437Y5266D01*
X182266Y4437D01*
X183281Y3851D01*
X184414Y3547D01*
X185586D01*
X186719Y3851D01*
X187734Y4437D01*
X188563Y5266D01*
X189149Y6281D01*
X189453Y7414D01*
Y8586D01*
X189149Y9719D01*
X188563Y10734D01*
X187734Y11563D01*
X186719Y12149D01*
X185586Y12453D01*
D02*
G37*
G36*
X175586D02*
X174414D01*
X173281Y12149D01*
X172266Y11563D01*
X171437Y10734D01*
X170851Y9719D01*
X170547Y8586D01*
Y7414D01*
X170851Y6281D01*
X171437Y5266D01*
X172266Y4437D01*
X173281Y3851D01*
X174414Y3547D01*
X175586D01*
X176719Y3851D01*
X177734Y4437D01*
X178563Y5266D01*
X179149Y6281D01*
X179453Y7414D01*
Y8586D01*
X179149Y9719D01*
X178563Y10734D01*
X177734Y11563D01*
X176719Y12149D01*
X175586Y12453D01*
D02*
G37*
G36*
X165586D02*
X164414D01*
X163281Y12149D01*
X162266Y11563D01*
X161437Y10734D01*
X160851Y9719D01*
X160547Y8586D01*
Y7414D01*
X160851Y6281D01*
X161437Y5266D01*
X162266Y4437D01*
X163281Y3851D01*
X164414Y3547D01*
X165586D01*
X166719Y3851D01*
X167734Y4437D01*
X168563Y5266D01*
X169149Y6281D01*
X169453Y7414D01*
Y8586D01*
X169149Y9719D01*
X168563Y10734D01*
X167734Y11563D01*
X166719Y12149D01*
X165586Y12453D01*
D02*
G37*
G36*
X155586D02*
X154414D01*
X153281Y12149D01*
X152266Y11563D01*
X151437Y10734D01*
X150851Y9719D01*
X150547Y8586D01*
Y7414D01*
X150851Y6281D01*
X151437Y5266D01*
X152266Y4437D01*
X153281Y3851D01*
X154414Y3547D01*
X155586D01*
X156719Y3851D01*
X157734Y4437D01*
X158563Y5266D01*
X159149Y6281D01*
X159453Y7414D01*
Y8586D01*
X159149Y9719D01*
X158563Y10734D01*
X157734Y11563D01*
X156719Y12149D01*
X155586Y12453D01*
D02*
G37*
G36*
X145586D02*
X144414D01*
X143281Y12149D01*
X142266Y11563D01*
X141437Y10734D01*
X140851Y9719D01*
X140547Y8586D01*
Y7414D01*
X140851Y6281D01*
X141437Y5266D01*
X142266Y4437D01*
X143281Y3851D01*
X144414Y3547D01*
X145586D01*
X146719Y3851D01*
X147734Y4437D01*
X148563Y5266D01*
X149149Y6281D01*
X149453Y7414D01*
Y8586D01*
X149149Y9719D01*
X148563Y10734D01*
X147734Y11563D01*
X146719Y12149D01*
X145586Y12453D01*
D02*
G37*
G36*
X135586D02*
X134414D01*
X133281Y12149D01*
X132266Y11563D01*
X131437Y10734D01*
X130851Y9719D01*
X130547Y8586D01*
Y7414D01*
X130851Y6281D01*
X131437Y5266D01*
X132266Y4437D01*
X133281Y3851D01*
X134414Y3547D01*
X135586D01*
X136719Y3851D01*
X137734Y4437D01*
X138563Y5266D01*
X139149Y6281D01*
X139453Y7414D01*
Y8586D01*
X139149Y9719D01*
X138563Y10734D01*
X137734Y11563D01*
X136719Y12149D01*
X135586Y12453D01*
D02*
G37*
G36*
X125586D02*
X124414D01*
X123281Y12149D01*
X122266Y11563D01*
X121437Y10734D01*
X120851Y9719D01*
X120547Y8586D01*
Y7414D01*
X120851Y6281D01*
X121437Y5266D01*
X122266Y4437D01*
X123281Y3851D01*
X124414Y3547D01*
X125586D01*
X126719Y3851D01*
X127734Y4437D01*
X128563Y5266D01*
X129149Y6281D01*
X129453Y7414D01*
Y8586D01*
X129149Y9719D01*
X128563Y10734D01*
X127734Y11563D01*
X126719Y12149D01*
X125586Y12453D01*
D02*
G37*
G36*
X115586D02*
X114414D01*
X113281Y12149D01*
X112266Y11563D01*
X111437Y10734D01*
X110851Y9719D01*
X110547Y8586D01*
Y7414D01*
X110851Y6281D01*
X111437Y5266D01*
X112266Y4437D01*
X113281Y3851D01*
X114414Y3547D01*
X115586D01*
X116719Y3851D01*
X117734Y4437D01*
X118563Y5266D01*
X119149Y6281D01*
X119453Y7414D01*
Y8586D01*
X119149Y9719D01*
X118563Y10734D01*
X117734Y11563D01*
X116719Y12149D01*
X115586Y12453D01*
D02*
G37*
G36*
X105586D02*
X104414D01*
X103281Y12149D01*
X102266Y11563D01*
X101437Y10734D01*
X100851Y9719D01*
X100547Y8586D01*
Y7414D01*
X100851Y6281D01*
X101437Y5266D01*
X102266Y4437D01*
X103281Y3851D01*
X104414Y3547D01*
X105586D01*
X106719Y3851D01*
X107734Y4437D01*
X108563Y5266D01*
X109149Y6281D01*
X109453Y7414D01*
Y8586D01*
X109149Y9719D01*
X108563Y10734D01*
X107734Y11563D01*
X106719Y12149D01*
X105586Y12453D01*
D02*
G37*
G36*
X95586D02*
X94414D01*
X93281Y12149D01*
X92266Y11563D01*
X91437Y10734D01*
X90851Y9719D01*
X90547Y8586D01*
Y7414D01*
X90851Y6281D01*
X91437Y5266D01*
X92266Y4437D01*
X93281Y3851D01*
X94414Y3547D01*
X95586D01*
X96719Y3851D01*
X97734Y4437D01*
X98563Y5266D01*
X99149Y6281D01*
X99453Y7414D01*
Y8586D01*
X99149Y9719D01*
X98563Y10734D01*
X97734Y11563D01*
X96719Y12149D01*
X95586Y12453D01*
D02*
G37*
G36*
X85586D02*
X84414D01*
X83281Y12149D01*
X82266Y11563D01*
X81437Y10734D01*
X80851Y9719D01*
X80547Y8586D01*
Y7414D01*
X80851Y6281D01*
X81437Y5266D01*
X82266Y4437D01*
X83281Y3851D01*
X84414Y3547D01*
X85586D01*
X86719Y3851D01*
X87734Y4437D01*
X88563Y5266D01*
X89149Y6281D01*
X89453Y7414D01*
Y8586D01*
X89149Y9719D01*
X88563Y10734D01*
X87734Y11563D01*
X86719Y12149D01*
X85586Y12453D01*
D02*
G37*
G36*
X75586D02*
X74414D01*
X73281Y12149D01*
X72266Y11563D01*
X71437Y10734D01*
X70851Y9719D01*
X70547Y8586D01*
Y7414D01*
X70851Y6281D01*
X71437Y5266D01*
X72266Y4437D01*
X73281Y3851D01*
X74414Y3547D01*
X75586D01*
X76719Y3851D01*
X77734Y4437D01*
X78563Y5266D01*
X79149Y6281D01*
X79453Y7414D01*
Y8586D01*
X79149Y9719D01*
X78563Y10734D01*
X77734Y11563D01*
X76719Y12149D01*
X75586Y12453D01*
D02*
G37*
G36*
X65586D02*
X64414D01*
X63281Y12149D01*
X62266Y11563D01*
X61437Y10734D01*
X60851Y9719D01*
X60547Y8586D01*
Y7414D01*
X60851Y6281D01*
X61437Y5266D01*
X62266Y4437D01*
X63281Y3851D01*
X64414Y3547D01*
X65586D01*
X66719Y3851D01*
X67734Y4437D01*
X68563Y5266D01*
X69149Y6281D01*
X69453Y7414D01*
Y8586D01*
X69149Y9719D01*
X68563Y10734D01*
X67734Y11563D01*
X66719Y12149D01*
X65586Y12453D01*
D02*
G37*
G36*
X55586D02*
X54414D01*
X53281Y12149D01*
X52266Y11563D01*
X51437Y10734D01*
X50851Y9719D01*
X50547Y8586D01*
Y7414D01*
X50851Y6281D01*
X51437Y5266D01*
X52266Y4437D01*
X53281Y3851D01*
X54414Y3547D01*
X55586D01*
X56719Y3851D01*
X57734Y4437D01*
X58563Y5266D01*
X59149Y6281D01*
X59453Y7414D01*
Y8586D01*
X59149Y9719D01*
X58563Y10734D01*
X57734Y11563D01*
X56719Y12149D01*
X55586Y12453D01*
D02*
G37*
G36*
X45318Y15053D02*
X44682D01*
X44094Y14809D01*
X43644Y14359D01*
X43400Y13771D01*
Y13134D01*
X43471Y12964D01*
Y12200D01*
X43281Y12149D01*
X42266Y11563D01*
X41437Y10734D01*
X40851Y9719D01*
X40547Y8586D01*
Y7414D01*
X40851Y6281D01*
X41437Y5266D01*
X42266Y4437D01*
X43281Y3851D01*
X44414Y3547D01*
X45586D01*
X46719Y3851D01*
X47734Y4437D01*
X48563Y5266D01*
X49149Y6281D01*
X49453Y7414D01*
Y8586D01*
X49149Y9719D01*
X48563Y10734D01*
X47734Y11563D01*
X46719Y12149D01*
X46529Y12200D01*
Y12964D01*
X46600Y13134D01*
Y13771D01*
X46356Y14359D01*
X45906Y14809D01*
X45318Y15053D01*
D02*
G37*
G36*
X35586Y12453D02*
X34414D01*
X33281Y12149D01*
X32266Y11563D01*
X31437Y10734D01*
X30851Y9719D01*
X30547Y8586D01*
Y7414D01*
X30851Y6281D01*
X31437Y5266D01*
X32266Y4437D01*
X33281Y3851D01*
X34414Y3547D01*
X35586D01*
X36719Y3851D01*
X37734Y4437D01*
X38563Y5266D01*
X39149Y6281D01*
X39453Y7414D01*
Y8586D01*
X39149Y9719D01*
X38563Y10734D01*
X37734Y11563D01*
X36719Y12149D01*
X35586Y12453D01*
D02*
G37*
G36*
X25586D02*
X24414D01*
X23281Y12149D01*
X22266Y11563D01*
X21437Y10734D01*
X20851Y9719D01*
X20547Y8586D01*
Y7414D01*
X20851Y6281D01*
X21437Y5266D01*
X22266Y4437D01*
X23281Y3851D01*
X24414Y3547D01*
X25586D01*
X26719Y3851D01*
X27734Y4437D01*
X28563Y5266D01*
X29149Y6281D01*
X29453Y7414D01*
Y8586D01*
X29149Y9719D01*
X28563Y10734D01*
X27734Y11563D01*
X26719Y12149D01*
X25586Y12453D01*
D02*
G37*
G36*
X15586D02*
X14414D01*
X13281Y12149D01*
X12266Y11563D01*
X11437Y10734D01*
X10851Y9719D01*
X10547Y8586D01*
Y7414D01*
X10851Y6281D01*
X11437Y5266D01*
X12266Y4437D01*
X13281Y3851D01*
X14414Y3547D01*
X15586D01*
X16719Y3851D01*
X17734Y4437D01*
X18563Y5266D01*
X19149Y6281D01*
X19453Y7414D01*
Y8586D01*
X19149Y9719D01*
X18563Y10734D01*
X17734Y11563D01*
X16719Y12149D01*
X15586Y12453D01*
D02*
G37*
%LPD*%
D11*
X241391Y92800D02*
X249821D01*
X240291Y93900D02*
X241391Y92800D01*
X240291Y93900D02*
Y101329D01*
X238420Y103200D02*
X240291Y101329D01*
X230200Y103200D02*
X238420D01*
X225000Y98000D02*
X230200Y103200D01*
X199952Y92800D02*
Y101628D01*
X201524Y103200D01*
X210900D01*
X215000Y99100D01*
Y98000D02*
Y99100D01*
X205356Y97761D02*
Y98000D01*
Y97761D02*
X209218Y93900D01*
X209335D01*
X194855Y97855D02*
X195000Y98000D01*
X194710Y92090D02*
X194855Y92235D01*
Y97855D01*
X185000Y98000D02*
X185700D01*
X189800Y93900D01*
X170971Y101953D02*
X174924Y98000D01*
X161329Y101670D02*
X165000Y98000D01*
X160730Y101670D02*
X161329D01*
X160500Y101900D02*
X160730Y101670D01*
X45000Y8000D02*
Y13453D01*
D52*
X5000Y98000D02*
X5652Y97348D01*
Y91328D02*
Y97348D01*
Y91328D02*
X6466Y90513D01*
Y90513D02*
X12571Y84408D01*
Y73757D02*
Y84408D01*
X8435Y69621D02*
X12571Y73757D01*
D53*
X115000Y98000D02*
D03*
X105000D02*
D03*
X125000D02*
D03*
X85000D02*
D03*
X95000D02*
D03*
X155000D02*
D03*
X165000D02*
D03*
X135000D02*
D03*
X145000D02*
D03*
X25000D02*
D03*
X35000D02*
D03*
X5000D02*
D03*
X15000D02*
D03*
X65000D02*
D03*
X75000D02*
D03*
X45000D02*
D03*
X55000D02*
D03*
X265000D02*
D03*
X275000D02*
D03*
X255000D02*
D03*
X305000D02*
D03*
X315098D02*
D03*
X285000D02*
D03*
X295000D02*
D03*
X195000D02*
D03*
X205000D02*
D03*
X175000D02*
D03*
X185000D02*
D03*
X235000D02*
D03*
X245000D02*
D03*
X215000D02*
D03*
X225000D02*
D03*
X205000Y8000D02*
D03*
X215000D02*
D03*
X195000D02*
D03*
X235000D02*
D03*
X225000D02*
D03*
X165000D02*
D03*
X155000D02*
D03*
X185000D02*
D03*
X175000D02*
D03*
X295000D02*
D03*
X285000D02*
D03*
X315098D02*
D03*
X305000D02*
D03*
X255000D02*
D03*
X245000D02*
D03*
X275000D02*
D03*
X265000D02*
D03*
X55000D02*
D03*
X45000D02*
D03*
X65000D02*
D03*
X15000D02*
D03*
X5000D02*
D03*
X35000D02*
D03*
X25000D02*
D03*
X125000D02*
D03*
X115000D02*
D03*
X145000D02*
D03*
X135000D02*
D03*
X85000D02*
D03*
X75000D02*
D03*
X105000D02*
D03*
X95000D02*
D03*
D54*
X281531Y55528D02*
D03*
X283310Y65234D02*
D03*
X294441Y68877D02*
D03*
X91368Y69087D02*
D03*
X103568Y68890D02*
D03*
X121517D02*
D03*
X248619Y88533D02*
D03*
X249721Y37292D02*
D03*
X212800Y34563D02*
D03*
X227100Y39200D02*
D03*
X218040Y29557D02*
D03*
X250000Y50988D02*
D03*
X223730Y47888D02*
D03*
Y42687D02*
D03*
X237519Y50987D02*
D03*
X231900Y45300D02*
D03*
X249720Y41793D02*
D03*
X232153Y40210D02*
D03*
X249721Y46292D02*
D03*
X209335Y34563D02*
D03*
X210489Y81052D02*
D03*
X206768Y69288D02*
D03*
X206815Y57291D02*
D03*
X206468Y41491D02*
D03*
X206768Y53391D02*
D03*
X206468Y45349D02*
D03*
X206509Y49391D02*
D03*
X247797Y14587D02*
D03*
X232194Y55699D02*
D03*
X224006Y55741D02*
D03*
X210826Y16412D02*
D03*
Y20153D02*
D03*
X249821Y54978D02*
D03*
X212151Y29431D02*
D03*
X223468Y17570D02*
D03*
X240460Y21345D02*
D03*
X223468Y27170D02*
D03*
X248619Y24729D02*
D03*
X244674Y21345D02*
D03*
X232587Y19850D02*
D03*
X240460Y85814D02*
D03*
X249721Y81052D02*
D03*
X232804Y83192D02*
D03*
X228559Y92800D02*
D03*
Y83170D02*
D03*
X218968Y69090D02*
D03*
X225785Y65446D02*
D03*
X236917Y69090D02*
D03*
X223139Y76970D02*
D03*
X223101Y86892D02*
D03*
X210489Y84792D02*
D03*
X246919Y71570D02*
D03*
X249821Y92800D02*
D03*
X199952D02*
D03*
X269676Y29570D02*
D03*
X275565Y29431D02*
D03*
X209335Y93900D02*
D03*
X194710Y92090D02*
D03*
X189800Y93900D02*
D03*
X182797Y80288D02*
D03*
X152780Y88251D02*
D03*
X131068Y90631D02*
D03*
X170895Y101953D02*
D03*
X160500Y101900D02*
D03*
X59500Y69410D02*
D03*
X52097Y64607D02*
D03*
X31610Y17813D02*
D03*
X59500Y17700D02*
D03*
X72280Y28837D02*
D03*
X20162Y20510D02*
D03*
X38175Y64698D02*
D03*
X31313Y52041D02*
D03*
X20166Y27924D02*
D03*
X23631Y20231D02*
D03*
X23708Y27924D02*
D03*
X8435Y20788D02*
D03*
X45000Y13453D02*
D03*
X41400Y90344D02*
D03*
X61596Y90319D02*
D03*
X6466Y90513D02*
D03*
X28876Y69621D02*
D03*
X8435D02*
D03*
X6466Y73921D02*
D03*
X28876Y78289D02*
D03*
X34256Y75180D02*
D03*
Y89964D02*
D03*
X28876Y89419D02*
D03*
X40143Y69664D02*
D03*
X60664Y49663D02*
D03*
X80437Y56565D02*
D03*
X79818Y64732D02*
D03*
X72280Y59663D02*
D03*
X79818Y51565D02*
D03*
X26364Y63565D02*
D03*
X31364Y56565D02*
D03*
Y61066D02*
D03*
X116753Y40010D02*
D03*
D03*
X179810Y50788D02*
D03*
X169510Y38856D02*
D03*
X153117Y19953D02*
D03*
Y16213D02*
D03*
X174444Y40010D02*
D03*
X174191Y45100D02*
D03*
X149059Y69087D02*
D03*
X166021Y47688D02*
D03*
X189210Y71370D02*
D03*
X148759Y41291D02*
D03*
X166021Y42487D02*
D03*
X174878Y19650D02*
D03*
X166297Y55541D02*
D03*
X174486Y55499D02*
D03*
X152780Y84592D02*
D03*
Y80852D02*
D03*
X190910Y24529D02*
D03*
X192011Y41592D02*
D03*
X148759Y45149D02*
D03*
X192012Y46092D02*
D03*
X192112Y55091D02*
D03*
X192012Y37092D02*
D03*
X149059Y53191D02*
D03*
X91068Y41291D02*
D03*
X108330Y42487D02*
D03*
X149106Y57091D02*
D03*
X192012Y80852D02*
D03*
X165759Y17370D02*
D03*
Y26970D02*
D03*
X155091Y34363D02*
D03*
X151626Y34363D02*
D03*
X186965Y21145D02*
D03*
X190087Y14387D02*
D03*
X182751Y21145D02*
D03*
X148800Y49191D02*
D03*
X165391Y86692D02*
D03*
X165430Y76770D02*
D03*
X192291Y50788D02*
D03*
X179207Y68890D02*
D03*
X168076Y65246D02*
D03*
X161259Y68890D02*
D03*
X170850Y82970D02*
D03*
Y92600D02*
D03*
X175095Y82992D02*
D03*
X268351Y19940D02*
D03*
Y16200D02*
D03*
X289678Y39998D02*
D03*
X289425Y45088D02*
D03*
X264293Y69075D02*
D03*
X295044Y50775D02*
D03*
X281255Y47675D02*
D03*
X304444Y71358D02*
D03*
X263993Y41278D02*
D03*
X281255Y42475D02*
D03*
X290112Y19637D02*
D03*
X289720Y55486D02*
D03*
X307246Y37080D02*
D03*
X268014Y84580D02*
D03*
Y80840D02*
D03*
X297985Y85602D02*
D03*
X306144Y24516D02*
D03*
X307245Y41580D02*
D03*
X263993Y45136D02*
D03*
X307246Y46079D02*
D03*
X307346Y55078D02*
D03*
X264293Y53178D02*
D03*
X264340Y57078D02*
D03*
X307246Y80840D02*
D03*
X280993Y17358D02*
D03*
Y26957D02*
D03*
X270325Y34350D02*
D03*
X266860Y34351D02*
D03*
X302199Y21133D02*
D03*
X305321Y14375D02*
D03*
X297985Y21133D02*
D03*
X264034Y49178D02*
D03*
X280625Y86680D02*
D03*
X280664Y76758D02*
D03*
X307524Y50775D02*
D03*
X276493Y68877D02*
D03*
X286084Y82958D02*
D03*
Y92588D02*
D03*
X290329Y82980D02*
D03*
X111819Y38302D02*
D03*
X134421Y55091D02*
D03*
X122119Y50788D02*
D03*
X116500Y45100D02*
D03*
X116753Y40010D02*
D03*
X134321Y46092D02*
D03*
X113160Y92600D02*
D03*
X125060Y85614D02*
D03*
X110385Y65246D02*
D03*
X113160Y82970D02*
D03*
X117403Y82992D02*
D03*
X131519Y71370D02*
D03*
X134321Y80852D02*
D03*
X91109Y49191D02*
D03*
X107701Y86692D02*
D03*
X107739Y76770D02*
D03*
X108330Y47688D02*
D03*
X95089Y84592D02*
D03*
Y80852D02*
D03*
X91068Y45149D02*
D03*
X91368Y53191D02*
D03*
X91415Y57091D02*
D03*
X108068Y17370D02*
D03*
Y26970D02*
D03*
X97400Y34363D02*
D03*
X93935Y34363D02*
D03*
X108606Y55541D02*
D03*
X116795Y55499D02*
D03*
X129274Y21145D02*
D03*
X132397Y14387D02*
D03*
X125060Y21145D02*
D03*
X134321Y37092D02*
D03*
X133219Y24529D02*
D03*
X134320Y41592D02*
D03*
X134600Y50788D02*
D03*
X95426Y16213D02*
D03*
Y19953D02*
D03*
X117187Y19650D02*
D03*
M02*
