G04*
G04 #@! TF.GenerationSoftware,Altium Limited,Altium Designer,24.10.1 (45)*
G04*
G04 Layer_Physical_Order=2*
G04 Layer_Color=36540*
%FSLAX25Y25*%
%MOIN*%
G70*
G04*
G04 #@! TF.SameCoordinates,14948A98-C654-4A88-B0D0-9DEE250FE6C4*
G04*
G04*
G04 #@! TF.FilePolarity,Positive*
G04*
G01*
G75*
%ADD11C,0.01000*%
%ADD53C,0.05906*%
%ADD54C,0.02200*%
G36*
X318161Y101894D02*
X317661Y101662D01*
X316817Y102149D01*
X315685Y102453D01*
X314512D01*
X313380Y102149D01*
X312364Y101563D01*
X311535Y100734D01*
X310949Y99719D01*
X310646Y98586D01*
Y97414D01*
X310949Y96281D01*
X311535Y95266D01*
X312364Y94437D01*
X313380Y93851D01*
X314512Y93547D01*
X315685D01*
X316817Y93851D01*
X317661Y94338D01*
X318161Y94106D01*
Y11894D01*
X317661Y11662D01*
X316817Y12149D01*
X315685Y12453D01*
X314512D01*
X313380Y12149D01*
X312364Y11563D01*
X311535Y10734D01*
X310949Y9719D01*
X310646Y8586D01*
Y7414D01*
X310949Y6281D01*
X311535Y5266D01*
X312364Y4437D01*
X313380Y3851D01*
X314512Y3547D01*
X315685D01*
X316817Y3851D01*
X317661Y4338D01*
X318161Y4106D01*
Y2332D01*
X2039D01*
Y3990D01*
X2539Y4279D01*
X3281Y3851D01*
X4414Y3547D01*
X5586D01*
X6719Y3851D01*
X7734Y4437D01*
X8563Y5266D01*
X9149Y6281D01*
X9453Y7414D01*
Y8586D01*
X9149Y9719D01*
X8563Y10734D01*
X7734Y11563D01*
X6719Y12149D01*
X5586Y12453D01*
X4414D01*
X3281Y12149D01*
X2539Y11721D01*
X2039Y12009D01*
Y93990D01*
X2539Y94279D01*
X3281Y93851D01*
X4414Y93547D01*
X5586D01*
X6719Y93851D01*
X7734Y94437D01*
X8563Y95266D01*
X9149Y96281D01*
X9453Y97414D01*
Y98586D01*
X9149Y99719D01*
X8563Y100734D01*
X7734Y101563D01*
X6719Y102149D01*
X5586Y102453D01*
X4414D01*
X3281Y102149D01*
X2539Y101721D01*
X2039Y102009D01*
Y103961D01*
X159988D01*
X160087Y103461D01*
X159594Y103256D01*
X159144Y102806D01*
X158900Y102218D01*
Y101582D01*
X159144Y100994D01*
X159594Y100544D01*
X160182Y100300D01*
X160609D01*
X160923Y99843D01*
X160851Y99719D01*
X160547Y98586D01*
Y97414D01*
X160851Y96281D01*
X161437Y95266D01*
X162266Y94437D01*
X163281Y93851D01*
X164414Y93547D01*
X165586D01*
X166719Y93851D01*
X167734Y94437D01*
X168563Y95266D01*
X169149Y96281D01*
X169453Y97414D01*
Y98586D01*
X169149Y99719D01*
X168563Y100734D01*
X167734Y101563D01*
X166719Y102149D01*
X165586Y102453D01*
X164414D01*
X163281Y102149D01*
X162600Y101756D01*
X162100Y102045D01*
Y102218D01*
X161856Y102806D01*
X161406Y103256D01*
X160913Y103461D01*
X161012Y103961D01*
X170255D01*
X170354Y103461D01*
X169988Y103309D01*
X169538Y102859D01*
X169295Y102271D01*
Y101635D01*
X169538Y101046D01*
X169988Y100596D01*
X170576Y100353D01*
X170639D01*
X170928Y99853D01*
X170851Y99719D01*
X170547Y98586D01*
Y97414D01*
X170851Y96281D01*
X171437Y95266D01*
X172266Y94437D01*
X173281Y93851D01*
X174414Y93547D01*
X175586D01*
X176719Y93851D01*
X177734Y94437D01*
X178563Y95266D01*
X179149Y96281D01*
X179453Y97414D01*
Y98586D01*
X179149Y99719D01*
X178563Y100734D01*
X177734Y101563D01*
X176719Y102149D01*
X175586Y102453D01*
X174414D01*
X173281Y102149D01*
X172928Y101945D01*
X172495Y102195D01*
Y102271D01*
X172251Y102859D01*
X171801Y103309D01*
X171435Y103461D01*
X171534Y103961D01*
X318161D01*
Y101894D01*
D02*
G37*
%LPC*%
G36*
X25750Y102409D02*
Y98750D01*
X29409D01*
X29149Y99719D01*
X28563Y100734D01*
X27734Y101563D01*
X26719Y102149D01*
X25750Y102409D01*
D02*
G37*
G36*
X24250D02*
X23281Y102149D01*
X22266Y101563D01*
X21437Y100734D01*
X20851Y99719D01*
X20591Y98750D01*
X24250D01*
Y102409D01*
D02*
G37*
G36*
X245586Y102453D02*
X244414D01*
X243281Y102149D01*
X242266Y101563D01*
X241437Y100734D01*
X240851Y99719D01*
X240547Y98586D01*
Y97414D01*
X240851Y96281D01*
X240947Y96114D01*
X240547Y95807D01*
X239344Y97010D01*
X239453Y97414D01*
Y98586D01*
X239149Y99719D01*
X238563Y100734D01*
X237734Y101563D01*
X236719Y102149D01*
X235586Y102453D01*
X234414D01*
X233281Y102149D01*
X232266Y101563D01*
X231437Y100734D01*
X230851Y99719D01*
X230547Y98586D01*
Y97414D01*
X230851Y96281D01*
X231437Y95266D01*
X232266Y94437D01*
X233281Y93851D01*
X234414Y93547D01*
X235586D01*
X236719Y93851D01*
X237644Y94385D01*
X238963Y93066D01*
Y89579D01*
X239079Y88994D01*
X239411Y88498D01*
X240458Y87451D01*
X240954Y87120D01*
X241539Y87003D01*
X248131D01*
X248301Y86933D01*
X248938D01*
X249526Y87176D01*
X249976Y87626D01*
X250219Y88214D01*
Y88851D01*
X249976Y89439D01*
X249526Y89889D01*
X248938Y90133D01*
X248301D01*
X248131Y90062D01*
X242173D01*
X242021Y90213D01*
Y93699D01*
X241948Y94068D01*
X242008Y94138D01*
X242400Y94359D01*
X243281Y93851D01*
X244414Y93547D01*
X245586D01*
X246719Y93851D01*
X247734Y94437D01*
X248563Y95266D01*
X249149Y96281D01*
X249453Y97414D01*
Y98586D01*
X249149Y99719D01*
X248563Y100734D01*
X247734Y101563D01*
X246719Y102149D01*
X245586Y102453D01*
D02*
G37*
G36*
X29409Y97250D02*
X25750D01*
Y93591D01*
X26719Y93851D01*
X27734Y94437D01*
X28563Y95266D01*
X29149Y96281D01*
X29409Y97250D01*
D02*
G37*
G36*
X24250D02*
X20591D01*
X20851Y96281D01*
X21437Y95266D01*
X22266Y94437D01*
X23281Y93851D01*
X24250Y93591D01*
Y97250D01*
D02*
G37*
G36*
X305586Y102453D02*
X304414D01*
X303281Y102149D01*
X302266Y101563D01*
X301437Y100734D01*
X300851Y99719D01*
X300547Y98586D01*
Y97414D01*
X300851Y96281D01*
X301437Y95266D01*
X302266Y94437D01*
X303281Y93851D01*
X304414Y93547D01*
X305586D01*
X306719Y93851D01*
X307734Y94437D01*
X308563Y95266D01*
X309149Y96281D01*
X309453Y97414D01*
Y98586D01*
X309149Y99719D01*
X308563Y100734D01*
X307734Y101563D01*
X306719Y102149D01*
X305586Y102453D01*
D02*
G37*
G36*
X295586D02*
X294414D01*
X293281Y102149D01*
X292266Y101563D01*
X291437Y100734D01*
X290851Y99719D01*
X290547Y98586D01*
Y97414D01*
X290851Y96281D01*
X291437Y95266D01*
X292266Y94437D01*
X293281Y93851D01*
X294414Y93547D01*
X295586D01*
X296719Y93851D01*
X297734Y94437D01*
X298563Y95266D01*
X299149Y96281D01*
X299453Y97414D01*
Y98586D01*
X299149Y99719D01*
X298563Y100734D01*
X297734Y101563D01*
X296719Y102149D01*
X295586Y102453D01*
D02*
G37*
G36*
X275586D02*
X274414D01*
X273281Y102149D01*
X272266Y101563D01*
X271437Y100734D01*
X270851Y99719D01*
X270547Y98586D01*
Y97414D01*
X270851Y96281D01*
X271437Y95266D01*
X272266Y94437D01*
X273281Y93851D01*
X274414Y93547D01*
X275586D01*
X276719Y93851D01*
X277734Y94437D01*
X278563Y95266D01*
X279149Y96281D01*
X279453Y97414D01*
Y98586D01*
X279149Y99719D01*
X278563Y100734D01*
X277734Y101563D01*
X276719Y102149D01*
X275586Y102453D01*
D02*
G37*
G36*
X265586D02*
X264414D01*
X263281Y102149D01*
X262266Y101563D01*
X261437Y100734D01*
X260851Y99719D01*
X260547Y98586D01*
Y97414D01*
X260851Y96281D01*
X261437Y95266D01*
X262266Y94437D01*
X263281Y93851D01*
X264414Y93547D01*
X265586D01*
X266719Y93851D01*
X267734Y94437D01*
X268563Y95266D01*
X269149Y96281D01*
X269453Y97414D01*
Y98586D01*
X269149Y99719D01*
X268563Y100734D01*
X267734Y101563D01*
X266719Y102149D01*
X265586Y102453D01*
D02*
G37*
G36*
X255586D02*
X254414D01*
X253281Y102149D01*
X252266Y101563D01*
X251437Y100734D01*
X250851Y99719D01*
X250547Y98586D01*
Y97414D01*
X250851Y96281D01*
X251437Y95266D01*
X252266Y94437D01*
X253281Y93851D01*
X254414Y93547D01*
X255586D01*
X256719Y93851D01*
X257734Y94437D01*
X258563Y95266D01*
X259149Y96281D01*
X259453Y97414D01*
Y98586D01*
X259149Y99719D01*
X258563Y100734D01*
X257734Y101563D01*
X256719Y102149D01*
X255586Y102453D01*
D02*
G37*
G36*
X215586D02*
X214414D01*
X213281Y102149D01*
X212266Y101563D01*
X211437Y100734D01*
X210851Y99719D01*
X210547Y98586D01*
Y97414D01*
X210851Y96281D01*
X211437Y95266D01*
X212266Y94437D01*
X213281Y93851D01*
X214414Y93547D01*
X215586D01*
X216719Y93851D01*
X217734Y94437D01*
X218563Y95266D01*
X219149Y96281D01*
X219453Y97414D01*
Y98586D01*
X219149Y99719D01*
X218563Y100734D01*
X217734Y101563D01*
X216719Y102149D01*
X215586Y102453D01*
D02*
G37*
G36*
X155586D02*
X154414D01*
X153281Y102149D01*
X152266Y101563D01*
X151437Y100734D01*
X150851Y99719D01*
X150547Y98586D01*
Y97414D01*
X150851Y96281D01*
X151437Y95266D01*
X152266Y94437D01*
X153281Y93851D01*
X154414Y93547D01*
X155586D01*
X156719Y93851D01*
X157734Y94437D01*
X158563Y95266D01*
X159149Y96281D01*
X159453Y97414D01*
Y98586D01*
X159149Y99719D01*
X158563Y100734D01*
X157734Y101563D01*
X156719Y102149D01*
X155586Y102453D01*
D02*
G37*
G36*
X145586D02*
X144414D01*
X143281Y102149D01*
X142266Y101563D01*
X141437Y100734D01*
X140851Y99719D01*
X140547Y98586D01*
Y97414D01*
X140851Y96281D01*
X141437Y95266D01*
X142266Y94437D01*
X143281Y93851D01*
X144414Y93547D01*
X145586D01*
X146719Y93851D01*
X147734Y94437D01*
X148563Y95266D01*
X149149Y96281D01*
X149453Y97414D01*
Y98586D01*
X149149Y99719D01*
X148563Y100734D01*
X147734Y101563D01*
X146719Y102149D01*
X145586Y102453D01*
D02*
G37*
G36*
X135586D02*
X134414D01*
X133281Y102149D01*
X132266Y101563D01*
X131437Y100734D01*
X130851Y99719D01*
X130547Y98586D01*
Y97414D01*
X130851Y96281D01*
X131437Y95266D01*
X132266Y94437D01*
X133281Y93851D01*
X134414Y93547D01*
X135586D01*
X136719Y93851D01*
X137734Y94437D01*
X138563Y95266D01*
X139149Y96281D01*
X139453Y97414D01*
Y98586D01*
X139149Y99719D01*
X138563Y100734D01*
X137734Y101563D01*
X136719Y102149D01*
X135586Y102453D01*
D02*
G37*
G36*
X125586D02*
X124414D01*
X123281Y102149D01*
X122266Y101563D01*
X121437Y100734D01*
X120851Y99719D01*
X120547Y98586D01*
Y97414D01*
X120851Y96281D01*
X121437Y95266D01*
X122266Y94437D01*
X123281Y93851D01*
X124414Y93547D01*
X125586D01*
X126719Y93851D01*
X127734Y94437D01*
X128563Y95266D01*
X129149Y96281D01*
X129453Y97414D01*
Y98586D01*
X129149Y99719D01*
X128563Y100734D01*
X127734Y101563D01*
X126719Y102149D01*
X125586Y102453D01*
D02*
G37*
G36*
X105586D02*
X104414D01*
X103281Y102149D01*
X102266Y101563D01*
X101437Y100734D01*
X100851Y99719D01*
X100547Y98586D01*
Y97414D01*
X100851Y96281D01*
X101437Y95266D01*
X102266Y94437D01*
X103281Y93851D01*
X104414Y93547D01*
X105586D01*
X106719Y93851D01*
X107734Y94437D01*
X108563Y95266D01*
X109149Y96281D01*
X109453Y97414D01*
Y98586D01*
X109149Y99719D01*
X108563Y100734D01*
X107734Y101563D01*
X106719Y102149D01*
X105586Y102453D01*
D02*
G37*
G36*
X95586D02*
X94414D01*
X93281Y102149D01*
X92266Y101563D01*
X91437Y100734D01*
X90851Y99719D01*
X90547Y98586D01*
Y97414D01*
X90851Y96281D01*
X91437Y95266D01*
X92266Y94437D01*
X93281Y93851D01*
X94414Y93547D01*
X95586D01*
X96719Y93851D01*
X97734Y94437D01*
X98563Y95266D01*
X99149Y96281D01*
X99453Y97414D01*
Y98586D01*
X99149Y99719D01*
X98563Y100734D01*
X97734Y101563D01*
X96719Y102149D01*
X95586Y102453D01*
D02*
G37*
G36*
X85586D02*
X84414D01*
X83281Y102149D01*
X82266Y101563D01*
X81437Y100734D01*
X80851Y99719D01*
X80547Y98586D01*
Y97414D01*
X80851Y96281D01*
X81437Y95266D01*
X82266Y94437D01*
X83281Y93851D01*
X84414Y93547D01*
X85586D01*
X86719Y93851D01*
X87734Y94437D01*
X88563Y95266D01*
X89149Y96281D01*
X89453Y97414D01*
Y98586D01*
X89149Y99719D01*
X88563Y100734D01*
X87734Y101563D01*
X86719Y102149D01*
X85586Y102453D01*
D02*
G37*
G36*
X75586D02*
X74414D01*
X73281Y102149D01*
X72266Y101563D01*
X71437Y100734D01*
X70851Y99719D01*
X70547Y98586D01*
Y97414D01*
X70851Y96281D01*
X71437Y95266D01*
X72266Y94437D01*
X73281Y93851D01*
X74414Y93547D01*
X75586D01*
X76719Y93851D01*
X77734Y94437D01*
X78563Y95266D01*
X79149Y96281D01*
X79453Y97414D01*
Y98586D01*
X79149Y99719D01*
X78563Y100734D01*
X77734Y101563D01*
X76719Y102149D01*
X75586Y102453D01*
D02*
G37*
G36*
X65586D02*
X64414D01*
X63281Y102149D01*
X62266Y101563D01*
X61437Y100734D01*
X60851Y99719D01*
X60547Y98586D01*
Y97414D01*
X60851Y96281D01*
X61437Y95266D01*
X62266Y94437D01*
X63281Y93851D01*
X64414Y93547D01*
X65586D01*
X66719Y93851D01*
X67734Y94437D01*
X68563Y95266D01*
X69149Y96281D01*
X69453Y97414D01*
Y98586D01*
X69149Y99719D01*
X68563Y100734D01*
X67734Y101563D01*
X66719Y102149D01*
X65586Y102453D01*
D02*
G37*
G36*
X55586D02*
X54414D01*
X53281Y102149D01*
X52266Y101563D01*
X51437Y100734D01*
X50851Y99719D01*
X50547Y98586D01*
Y97414D01*
X50851Y96281D01*
X51437Y95266D01*
X52266Y94437D01*
X53281Y93851D01*
X54414Y93547D01*
X55586D01*
X56719Y93851D01*
X57734Y94437D01*
X58563Y95266D01*
X59149Y96281D01*
X59453Y97414D01*
Y98586D01*
X59149Y99719D01*
X58563Y100734D01*
X57734Y101563D01*
X56719Y102149D01*
X55586Y102453D01*
D02*
G37*
G36*
X45586D02*
X44414D01*
X43281Y102149D01*
X42266Y101563D01*
X41437Y100734D01*
X40851Y99719D01*
X40547Y98586D01*
Y97414D01*
X40851Y96281D01*
X41437Y95266D01*
X42266Y94437D01*
X43281Y93851D01*
X44414Y93547D01*
X45586D01*
X46719Y93851D01*
X47734Y94437D01*
X48563Y95266D01*
X49149Y96281D01*
X49453Y97414D01*
Y98586D01*
X49149Y99719D01*
X48563Y100734D01*
X47734Y101563D01*
X46719Y102149D01*
X45586Y102453D01*
D02*
G37*
G36*
X35586D02*
X34414D01*
X33281Y102149D01*
X32266Y101563D01*
X31437Y100734D01*
X30851Y99719D01*
X30547Y98586D01*
Y97414D01*
X30851Y96281D01*
X31437Y95266D01*
X32266Y94437D01*
X33281Y93851D01*
X34414Y93547D01*
X35586D01*
X36719Y93851D01*
X37734Y94437D01*
X38563Y95266D01*
X39149Y96281D01*
X39453Y97414D01*
Y98586D01*
X39149Y99719D01*
X38563Y100734D01*
X37734Y101563D01*
X36719Y102149D01*
X35586Y102453D01*
D02*
G37*
G36*
X15586D02*
X14414D01*
X13281Y102149D01*
X12266Y101563D01*
X11437Y100734D01*
X10851Y99719D01*
X10547Y98586D01*
Y97414D01*
X10851Y96281D01*
X11437Y95266D01*
X12266Y94437D01*
X13281Y93851D01*
X14414Y93547D01*
X15586D01*
X16719Y93851D01*
X17734Y94437D01*
X18563Y95266D01*
X19149Y96281D01*
X19453Y97414D01*
Y98586D01*
X19149Y99719D01*
X18563Y100734D01*
X17734Y101563D01*
X16719Y102149D01*
X15586Y102453D01*
D02*
G37*
G36*
X205586D02*
X204414D01*
X203281Y102149D01*
X202266Y101563D01*
X201437Y100734D01*
X200851Y99719D01*
X200547Y98586D01*
Y97414D01*
X200851Y96281D01*
X201437Y95266D01*
X202266Y94437D01*
X203281Y93851D01*
X204414Y93547D01*
X205586D01*
X206719Y93851D01*
X207235Y94149D01*
X207735Y93860D01*
Y93582D01*
X207979Y92994D01*
X208429Y92544D01*
X209017Y92300D01*
X209654D01*
X210242Y92544D01*
X210692Y92994D01*
X210935Y93582D01*
Y94218D01*
X210692Y94806D01*
X210242Y95256D01*
X209654Y95500D01*
X209276D01*
X208977Y95984D01*
X209149Y96281D01*
X209453Y97414D01*
Y98586D01*
X209149Y99719D01*
X208563Y100734D01*
X207734Y101563D01*
X206719Y102149D01*
X205586Y102453D01*
D02*
G37*
G36*
X185586D02*
X184414D01*
X183281Y102149D01*
X182266Y101563D01*
X181437Y100734D01*
X180851Y99719D01*
X180547Y98586D01*
Y97414D01*
X180851Y96281D01*
X181437Y95266D01*
X182266Y94437D01*
X183281Y93851D01*
X184414Y93547D01*
X185586D01*
X186719Y93851D01*
X187734Y94437D01*
X187760Y94463D01*
X188137Y94253D01*
X188200Y94196D01*
Y93582D01*
X188444Y92994D01*
X188894Y92544D01*
X189482Y92300D01*
X190118D01*
X190706Y92544D01*
X191156Y92994D01*
X191400Y93582D01*
Y94218D01*
X191156Y94806D01*
X190706Y95256D01*
X190118Y95500D01*
X189482D01*
X189211Y95388D01*
X188863Y95785D01*
X189149Y96281D01*
X189453Y97414D01*
Y98586D01*
X189149Y99719D01*
X188563Y100734D01*
X187734Y101563D01*
X186719Y102149D01*
X185586Y102453D01*
D02*
G37*
G36*
X250139Y94400D02*
X249503D01*
X248915Y94156D01*
X248464Y93706D01*
X248221Y93118D01*
Y92482D01*
X248464Y91894D01*
X248915Y91444D01*
X249503Y91200D01*
X250139D01*
X250727Y91444D01*
X251177Y91894D01*
X251421Y92482D01*
Y93118D01*
X251177Y93706D01*
X250727Y94156D01*
X250139Y94400D01*
D02*
G37*
G36*
X225586Y102453D02*
X224414D01*
X223281Y102149D01*
X222266Y101563D01*
X221437Y100734D01*
X220851Y99719D01*
X220547Y98586D01*
Y97414D01*
X220851Y96281D01*
X221437Y95266D01*
X222266Y94437D01*
X223281Y93851D01*
X224414Y93547D01*
X225586D01*
X226719Y93851D01*
X226723Y93853D01*
X227120Y93505D01*
X226959Y93118D01*
Y92482D01*
X227203Y91894D01*
X227653Y91444D01*
X228241Y91200D01*
X228878D01*
X229466Y91444D01*
X229916Y91894D01*
X230159Y92482D01*
Y93118D01*
X229916Y93706D01*
X229466Y94156D01*
X228878Y94400D01*
X228404D01*
X228166Y94869D01*
X228563Y95266D01*
X229149Y96281D01*
X229453Y97414D01*
Y98586D01*
X229149Y99719D01*
X228563Y100734D01*
X227734Y101563D01*
X226719Y102149D01*
X225586Y102453D01*
D02*
G37*
G36*
X200270Y94400D02*
X199634D01*
X199046Y94156D01*
X198596Y93706D01*
X198352Y93118D01*
Y92482D01*
X198596Y91894D01*
X199046Y91444D01*
X199634Y91200D01*
X200270D01*
X200858Y91444D01*
X201309Y91894D01*
X201552Y92482D01*
Y93118D01*
X201309Y93706D01*
X200858Y94156D01*
X200270Y94400D01*
D02*
G37*
G36*
X171169Y94200D02*
X170532D01*
X169944Y93956D01*
X169494Y93506D01*
X169250Y92918D01*
Y92282D01*
X169494Y91694D01*
X169944Y91243D01*
X170532Y91000D01*
X171169D01*
X171757Y91243D01*
X172207Y91694D01*
X172450Y92282D01*
Y92918D01*
X172207Y93506D01*
X171757Y93956D01*
X171169Y94200D01*
D02*
G37*
G36*
X115586Y102453D02*
X114414D01*
X113281Y102149D01*
X112266Y101563D01*
X111437Y100734D01*
X110851Y99719D01*
X110547Y98586D01*
Y97414D01*
X110851Y96281D01*
X111437Y95266D01*
X112219Y94484D01*
X112237Y94212D01*
X112197Y93900D01*
X111803Y93506D01*
X111559Y92918D01*
Y92282D01*
X111803Y91694D01*
X112253Y91243D01*
X112841Y91000D01*
X113478D01*
X114066Y91243D01*
X114516Y91694D01*
X114760Y92282D01*
Y92918D01*
X114706Y93047D01*
X115040Y93547D01*
X115586D01*
X116719Y93851D01*
X117734Y94437D01*
X118563Y95266D01*
X119149Y96281D01*
X119453Y97414D01*
Y98586D01*
X119149Y99719D01*
X118563Y100734D01*
X117734Y101563D01*
X116719Y102149D01*
X115586Y102453D01*
D02*
G37*
G36*
X285586D02*
X284414D01*
X283281Y102149D01*
X282266Y101563D01*
X281437Y100734D01*
X280851Y99719D01*
X280547Y98586D01*
Y97414D01*
X280851Y96281D01*
X281437Y95266D01*
X282266Y94437D01*
X283281Y93851D01*
X284229Y93597D01*
X284507Y93188D01*
X284543Y93047D01*
X284484Y92906D01*
Y92269D01*
X284728Y91681D01*
X285178Y91231D01*
X285766Y90987D01*
X286403D01*
X286991Y91231D01*
X287441Y91681D01*
X287684Y92269D01*
Y92906D01*
X287441Y93494D01*
X287316Y93618D01*
X287399Y94243D01*
X287734Y94437D01*
X288563Y95266D01*
X289149Y96281D01*
X289453Y97414D01*
Y98586D01*
X289149Y99719D01*
X288563Y100734D01*
X287734Y101563D01*
X286719Y102149D01*
X285586Y102453D01*
D02*
G37*
G36*
X195586D02*
X194414D01*
X193281Y102149D01*
X192266Y101563D01*
X191437Y100734D01*
X190851Y99719D01*
X190547Y98586D01*
Y97414D01*
X190851Y96281D01*
X191437Y95266D01*
X192266Y94437D01*
X193281Y93851D01*
X193458Y93803D01*
X193604Y93247D01*
X193354Y92996D01*
X193110Y92408D01*
Y91772D01*
X193354Y91184D01*
X193804Y90733D01*
X194392Y90490D01*
X195028D01*
X195616Y90733D01*
X196067Y91184D01*
X196310Y91772D01*
Y92408D01*
X196067Y92996D01*
X195939Y93124D01*
X196088Y93682D01*
X196719Y93851D01*
X197734Y94437D01*
X198563Y95266D01*
X199149Y96281D01*
X199453Y97414D01*
Y98586D01*
X199149Y99719D01*
X198563Y100734D01*
X197734Y101563D01*
X196719Y102149D01*
X195586Y102453D01*
D02*
G37*
G36*
X131386Y92231D02*
X130750D01*
X130162Y91987D01*
X129712Y91537D01*
X129468Y90949D01*
Y90313D01*
X129712Y89725D01*
X130162Y89275D01*
X130750Y89031D01*
X131386D01*
X131974Y89275D01*
X132425Y89725D01*
X132668Y90313D01*
Y90949D01*
X132425Y91537D01*
X131974Y91987D01*
X131386Y92231D01*
D02*
G37*
G36*
X6784Y92113D02*
X6148D01*
X5560Y91869D01*
X5110Y91419D01*
X4866Y90831D01*
Y90195D01*
X5110Y89607D01*
X5560Y89157D01*
X6148Y88913D01*
X6784D01*
X7373Y89157D01*
X7823Y89607D01*
X8066Y90195D01*
Y90831D01*
X7823Y91419D01*
X7373Y91869D01*
X6784Y92113D01*
D02*
G37*
G36*
X41718Y91944D02*
X41082D01*
X40494Y91701D01*
X40044Y91250D01*
X39800Y90662D01*
Y90026D01*
X40044Y89438D01*
X40494Y88988D01*
X41082Y88744D01*
X41718D01*
X42306Y88988D01*
X42756Y89438D01*
X43000Y90026D01*
Y90662D01*
X42756Y91250D01*
X42306Y91701D01*
X41718Y91944D01*
D02*
G37*
G36*
X34574Y91564D02*
X33938D01*
X33350Y91321D01*
X32899Y90870D01*
X32656Y90282D01*
Y89646D01*
X32899Y89058D01*
X33350Y88608D01*
X33938Y88364D01*
X34574D01*
X35162Y88608D01*
X35612Y89058D01*
X35856Y89646D01*
Y90282D01*
X35612Y90870D01*
X35162Y91321D01*
X34574Y91564D01*
D02*
G37*
G36*
X29195Y91019D02*
X28558D01*
X27970Y90775D01*
X27520Y90325D01*
X27276Y89737D01*
Y89101D01*
X27520Y88513D01*
X27970Y88063D01*
X28558Y87819D01*
X29195D01*
X29783Y88063D01*
X30233Y88513D01*
X30476Y89101D01*
Y89737D01*
X30233Y90325D01*
X29783Y90775D01*
X29195Y91019D01*
D02*
G37*
G36*
X153098Y89851D02*
X152462D01*
X151874Y89607D01*
X151424Y89157D01*
X151180Y88569D01*
Y87933D01*
X151424Y87345D01*
X151874Y86895D01*
X152462Y86651D01*
X153098D01*
X153686Y86895D01*
X154136Y87345D01*
X154380Y87933D01*
Y88569D01*
X154136Y89157D01*
X153686Y89607D01*
X153098Y89851D01*
D02*
G37*
G36*
X223419Y88492D02*
X222782D01*
X222194Y88249D01*
X221744Y87799D01*
X221501Y87211D01*
Y86574D01*
X221744Y85986D01*
X222194Y85536D01*
X222782Y85292D01*
X223419D01*
X224007Y85536D01*
X224457Y85986D01*
X224701Y86574D01*
Y87211D01*
X224457Y87799D01*
X224007Y88249D01*
X223419Y88492D01*
D02*
G37*
G36*
X165710Y88292D02*
X165073D01*
X164485Y88049D01*
X164035Y87599D01*
X163791Y87011D01*
Y86374D01*
X164035Y85786D01*
X164485Y85336D01*
X165073Y85092D01*
X165710D01*
X166298Y85336D01*
X166748Y85786D01*
X166991Y86374D01*
Y87011D01*
X166748Y87599D01*
X166298Y88049D01*
X165710Y88292D01*
D02*
G37*
G36*
X108019D02*
X107382D01*
X106794Y88049D01*
X106344Y87599D01*
X106100Y87011D01*
Y86374D01*
X106344Y85786D01*
X106794Y85336D01*
X107382Y85092D01*
X108019D01*
X108607Y85336D01*
X109057Y85786D01*
X109300Y86374D01*
Y87011D01*
X109057Y87599D01*
X108607Y88049D01*
X108019Y88292D01*
D02*
G37*
G36*
X280944Y88280D02*
X280307D01*
X279719Y88036D01*
X279269Y87586D01*
X279025Y86998D01*
Y86361D01*
X279269Y85773D01*
X279719Y85323D01*
X280307Y85080D01*
X280944D01*
X281532Y85323D01*
X281982Y85773D01*
X282225Y86361D01*
Y86998D01*
X281982Y87586D01*
X281532Y88036D01*
X280944Y88280D01*
D02*
G37*
G36*
X250039Y82652D02*
X249403D01*
X248815Y82409D01*
X248364Y81959D01*
X248121Y81370D01*
Y80734D01*
X248364Y80146D01*
X248815Y79696D01*
X249403Y79452D01*
X250039D01*
X250627Y79696D01*
X251077Y80146D01*
X251321Y80734D01*
Y81370D01*
X251077Y81959D01*
X250627Y82409D01*
X250039Y82652D01*
D02*
G37*
G36*
X192330Y82452D02*
X191693D01*
X191105Y82209D01*
X190655Y81758D01*
X190412Y81170D01*
Y80534D01*
X190655Y79946D01*
X191105Y79496D01*
X191693Y79252D01*
X192330D01*
X192918Y79496D01*
X193368Y79946D01*
X193612Y80534D01*
Y81170D01*
X193368Y81758D01*
X192918Y82209D01*
X192330Y82452D01*
D02*
G37*
G36*
X134639D02*
X134003D01*
X133415Y82209D01*
X132965Y81758D01*
X132721Y81170D01*
Y80534D01*
X132965Y79946D01*
X133415Y79496D01*
X134003Y79252D01*
X134639D01*
X135227Y79496D01*
X135677Y79946D01*
X135921Y80534D01*
Y81170D01*
X135677Y81758D01*
X135227Y82209D01*
X134639Y82452D01*
D02*
G37*
G36*
X307564Y82440D02*
X306927D01*
X306339Y82196D01*
X305889Y81746D01*
X305646Y81158D01*
Y80522D01*
X305889Y79933D01*
X306339Y79483D01*
X306927Y79240D01*
X307564D01*
X308152Y79483D01*
X308602Y79933D01*
X308846Y80522D01*
Y81158D01*
X308602Y81746D01*
X308152Y82196D01*
X307564Y82440D01*
D02*
G37*
G36*
X247238Y73170D02*
X246601D01*
X246013Y72927D01*
X245563Y72477D01*
X245319Y71888D01*
Y71252D01*
X245563Y70664D01*
X246013Y70214D01*
X246601Y69970D01*
X247238D01*
X247826Y70214D01*
X248276Y70664D01*
X248519Y71252D01*
Y71888D01*
X248276Y72477D01*
X247826Y72927D01*
X247238Y73170D01*
D02*
G37*
G36*
X189528Y72970D02*
X188892D01*
X188304Y72727D01*
X187854Y72277D01*
X187610Y71688D01*
Y71052D01*
X187854Y70464D01*
X188304Y70014D01*
X188892Y69770D01*
X189528D01*
X190117Y70014D01*
X190567Y70464D01*
X190810Y71052D01*
Y71688D01*
X190567Y72277D01*
X190117Y72727D01*
X189528Y72970D01*
D02*
G37*
G36*
X131838D02*
X131201D01*
X130613Y72727D01*
X130163Y72277D01*
X129919Y71688D01*
Y71052D01*
X130163Y70464D01*
X130613Y70014D01*
X131201Y69770D01*
X131838D01*
X132426Y70014D01*
X132876Y70464D01*
X133119Y71052D01*
Y71688D01*
X132876Y72277D01*
X132426Y72727D01*
X131838Y72970D01*
D02*
G37*
G36*
X304762Y72958D02*
X304126D01*
X303538Y72714D01*
X303088Y72264D01*
X302844Y71676D01*
Y71039D01*
X303088Y70451D01*
X303538Y70001D01*
X304126Y69758D01*
X304762D01*
X305350Y70001D01*
X305801Y70451D01*
X306044Y71039D01*
Y71676D01*
X305801Y72264D01*
X305350Y72714D01*
X304762Y72958D01*
D02*
G37*
G36*
X40462Y71263D02*
X39825D01*
X39237Y71020D01*
X38787Y70570D01*
X38543Y69982D01*
Y69345D01*
X38787Y68757D01*
X39237Y68307D01*
X39825Y68063D01*
X40462D01*
X41050Y68307D01*
X41500Y68757D01*
X41743Y69345D01*
Y69982D01*
X41500Y70570D01*
X41050Y71020D01*
X40462Y71263D01*
D02*
G37*
G36*
X29195Y71221D02*
X28558D01*
X27970Y70977D01*
X27520Y70527D01*
X27276Y69939D01*
Y69302D01*
X27520Y68714D01*
X27970Y68264D01*
X28558Y68021D01*
X29195D01*
X29783Y68264D01*
X30233Y68714D01*
X30476Y69302D01*
Y69939D01*
X30233Y70527D01*
X29783Y70977D01*
X29195Y71221D01*
D02*
G37*
G36*
X8753D02*
X8116D01*
X7528Y70977D01*
X7078Y70527D01*
X6835Y69939D01*
Y69302D01*
X7078Y68714D01*
X7528Y68264D01*
X8116Y68021D01*
X8753D01*
X9341Y68264D01*
X9791Y68714D01*
X10035Y69302D01*
Y69939D01*
X9791Y70527D01*
X9341Y70977D01*
X8753Y71221D01*
D02*
G37*
G36*
X59818Y71010D02*
X59182D01*
X58594Y70766D01*
X58144Y70316D01*
X57900Y69728D01*
Y69091D01*
X58144Y68503D01*
X58594Y68053D01*
X59182Y67810D01*
X59818D01*
X60406Y68053D01*
X60856Y68503D01*
X61100Y69091D01*
Y69728D01*
X60856Y70316D01*
X60406Y70766D01*
X59818Y71010D01*
D02*
G37*
G36*
X207086Y70888D02*
X206450D01*
X205862Y70644D01*
X205412Y70194D01*
X205168Y69606D01*
Y68969D01*
X205412Y68381D01*
X205862Y67931D01*
X206450Y67687D01*
X207086D01*
X207675Y67931D01*
X208125Y68381D01*
X208368Y68969D01*
Y69606D01*
X208125Y70194D01*
X207675Y70644D01*
X207086Y70888D01*
D02*
G37*
G36*
X149377Y70688D02*
X148741D01*
X148153Y70444D01*
X147703Y69994D01*
X147459Y69406D01*
Y68769D01*
X147703Y68181D01*
X148153Y67731D01*
X148741Y67488D01*
X149377D01*
X149966Y67731D01*
X150416Y68181D01*
X150659Y68769D01*
Y69406D01*
X150416Y69994D01*
X149966Y70444D01*
X149377Y70688D01*
D02*
G37*
G36*
X91686D02*
X91050D01*
X90462Y70444D01*
X90012Y69994D01*
X89768Y69406D01*
Y68769D01*
X90012Y68181D01*
X90462Y67731D01*
X91050Y67488D01*
X91686D01*
X92274Y67731D01*
X92725Y68181D01*
X92968Y68769D01*
Y69406D01*
X92725Y69994D01*
X92274Y70444D01*
X91686Y70688D01*
D02*
G37*
G36*
X264611Y70675D02*
X263975D01*
X263387Y70431D01*
X262937Y69981D01*
X262693Y69393D01*
Y68757D01*
X262937Y68169D01*
X263387Y67718D01*
X263975Y67475D01*
X264611D01*
X265199Y67718D01*
X265650Y68169D01*
X265893Y68757D01*
Y69393D01*
X265650Y69981D01*
X265199Y70431D01*
X264611Y70675D01*
D02*
G37*
G36*
X226103Y67046D02*
X225466D01*
X224878Y66802D01*
X224428Y66352D01*
X224185Y65764D01*
Y65128D01*
X224428Y64540D01*
X224878Y64090D01*
X225466Y63846D01*
X226103D01*
X226691Y64090D01*
X227141Y64540D01*
X227385Y65128D01*
Y65764D01*
X227141Y66352D01*
X226691Y66802D01*
X226103Y67046D01*
D02*
G37*
G36*
X168394Y66846D02*
X167757D01*
X167169Y66602D01*
X166719Y66152D01*
X166475Y65564D01*
Y64928D01*
X166719Y64340D01*
X167169Y63889D01*
X167757Y63646D01*
X168394D01*
X168982Y63889D01*
X169432Y64340D01*
X169676Y64928D01*
Y65564D01*
X169432Y66152D01*
X168982Y66602D01*
X168394Y66846D01*
D02*
G37*
G36*
X110703D02*
X110066D01*
X109478Y66602D01*
X109028Y66152D01*
X108785Y65564D01*
Y64928D01*
X109028Y64340D01*
X109478Y63889D01*
X110066Y63646D01*
X110703D01*
X111291Y63889D01*
X111741Y64340D01*
X111985Y64928D01*
Y65564D01*
X111741Y66152D01*
X111291Y66602D01*
X110703Y66846D01*
D02*
G37*
G36*
X283628Y66834D02*
X282991D01*
X282403Y66590D01*
X281953Y66140D01*
X281710Y65552D01*
Y64915D01*
X281953Y64327D01*
X282403Y63877D01*
X282991Y63634D01*
X283628D01*
X284216Y63877D01*
X284666Y64327D01*
X284910Y64915D01*
Y65552D01*
X284666Y66140D01*
X284216Y66590D01*
X283628Y66834D01*
D02*
G37*
G36*
X38493Y66298D02*
X37857D01*
X37269Y66054D01*
X36819Y65604D01*
X36575Y65016D01*
Y64380D01*
X36819Y63792D01*
X37269Y63341D01*
X37857Y63098D01*
X38493D01*
X39081Y63341D01*
X39532Y63792D01*
X39775Y64380D01*
Y65016D01*
X39532Y65604D01*
X39081Y66054D01*
X38493Y66298D01*
D02*
G37*
G36*
X52416Y66207D02*
X51779D01*
X51191Y65964D01*
X50741Y65513D01*
X50497Y64925D01*
Y64289D01*
X50741Y63701D01*
X51191Y63251D01*
X51779Y63007D01*
X52416D01*
X53004Y63251D01*
X53454Y63701D01*
X53697Y64289D01*
Y64925D01*
X53454Y65513D01*
X53004Y65964D01*
X52416Y66207D01*
D02*
G37*
G36*
X26682Y65166D02*
X26046D01*
X25458Y64922D01*
X25008Y64472D01*
X24764Y63884D01*
Y63247D01*
X25008Y62659D01*
X25458Y62209D01*
X26046Y61966D01*
X26682D01*
X27270Y62209D01*
X27721Y62659D01*
X27964Y63247D01*
Y63884D01*
X27721Y64472D01*
X27270Y64922D01*
X26682Y65166D01*
D02*
G37*
G36*
X207134Y58891D02*
X206497D01*
X205909Y58647D01*
X205459Y58197D01*
X205215Y57609D01*
Y56972D01*
X205459Y56384D01*
X205909Y55934D01*
X206497Y55691D01*
X207134D01*
X207722Y55934D01*
X208172Y56384D01*
X208415Y56972D01*
Y57609D01*
X208172Y58197D01*
X207722Y58647D01*
X207134Y58891D01*
D02*
G37*
G36*
X149425Y58691D02*
X148788D01*
X148200Y58447D01*
X147750Y57997D01*
X147506Y57409D01*
Y56773D01*
X147750Y56184D01*
X148200Y55734D01*
X148788Y55491D01*
X149425D01*
X150013Y55734D01*
X150463Y56184D01*
X150706Y56773D01*
Y57409D01*
X150463Y57997D01*
X150013Y58447D01*
X149425Y58691D01*
D02*
G37*
G36*
X91734D02*
X91097D01*
X90509Y58447D01*
X90059Y57997D01*
X89815Y57409D01*
Y56773D01*
X90059Y56184D01*
X90509Y55734D01*
X91097Y55491D01*
X91734D01*
X92322Y55734D01*
X92772Y56184D01*
X93015Y56773D01*
Y57409D01*
X92772Y57997D01*
X92322Y58447D01*
X91734Y58691D01*
D02*
G37*
G36*
X264659Y58678D02*
X264022D01*
X263434Y58435D01*
X262984Y57985D01*
X262740Y57396D01*
Y56760D01*
X262984Y56172D01*
X263434Y55722D01*
X264022Y55478D01*
X264659D01*
X265247Y55722D01*
X265697Y56172D01*
X265940Y56760D01*
Y57396D01*
X265697Y57985D01*
X265247Y58435D01*
X264659Y58678D01*
D02*
G37*
G36*
X80756Y58166D02*
X80119D01*
X79531Y57922D01*
X79081Y57472D01*
X78837Y56884D01*
Y56247D01*
X79081Y55659D01*
X79531Y55209D01*
X80119Y54966D01*
X80756D01*
X81344Y55209D01*
X81794Y55659D01*
X82037Y56247D01*
Y56884D01*
X81794Y57472D01*
X81344Y57922D01*
X80756Y58166D01*
D02*
G37*
G36*
X232513Y57299D02*
X231876D01*
X231288Y57055D01*
X230838Y56605D01*
X230594Y56017D01*
Y55381D01*
X230838Y54793D01*
X231288Y54343D01*
X231876Y54099D01*
X232513D01*
X233101Y54343D01*
X233551Y54793D01*
X233794Y55381D01*
Y56017D01*
X233551Y56605D01*
X233101Y57055D01*
X232513Y57299D01*
D02*
G37*
G36*
X174804Y57099D02*
X174167D01*
X173579Y56855D01*
X173129Y56405D01*
X172886Y55817D01*
Y55181D01*
X173129Y54593D01*
X173579Y54142D01*
X174167Y53899D01*
X174804D01*
X175392Y54142D01*
X175842Y54593D01*
X176085Y55181D01*
Y55817D01*
X175842Y56405D01*
X175392Y56855D01*
X174804Y57099D01*
D02*
G37*
G36*
X117113D02*
X116476D01*
X115888Y56855D01*
X115438Y56405D01*
X115195Y55817D01*
Y55181D01*
X115438Y54593D01*
X115888Y54142D01*
X116476Y53899D01*
X117113D01*
X117701Y54142D01*
X118151Y54593D01*
X118395Y55181D01*
Y55817D01*
X118151Y56405D01*
X117701Y56855D01*
X117113Y57099D01*
D02*
G37*
G36*
X290038Y57086D02*
X289401D01*
X288813Y56843D01*
X288363Y56393D01*
X288120Y55805D01*
Y55168D01*
X288363Y54580D01*
X288813Y54130D01*
X289401Y53886D01*
X290038D01*
X290626Y54130D01*
X291076Y54580D01*
X291319Y55168D01*
Y55805D01*
X291076Y56393D01*
X290626Y56843D01*
X290038Y57086D01*
D02*
G37*
G36*
X60982Y51263D02*
X60346D01*
X59758Y51020D01*
X59308Y50570D01*
X59064Y49982D01*
Y49345D01*
X59308Y48757D01*
X59758Y48307D01*
X60346Y48063D01*
X60982D01*
X61571Y48307D01*
X62021Y48757D01*
X62264Y49345D01*
Y49982D01*
X62021Y50570D01*
X61571Y51020D01*
X60982Y51263D01*
D02*
G37*
G36*
X224048Y49488D02*
X223412D01*
X222824Y49244D01*
X222374Y48794D01*
X222130Y48206D01*
Y47569D01*
X222374Y46981D01*
X222824Y46531D01*
X223412Y46288D01*
X224048D01*
X224636Y46531D01*
X225086Y46981D01*
X225330Y47569D01*
Y48206D01*
X225086Y48794D01*
X224636Y49244D01*
X224048Y49488D01*
D02*
G37*
G36*
X166339Y49288D02*
X165702D01*
X165114Y49044D01*
X164664Y48594D01*
X164421Y48006D01*
Y47369D01*
X164664Y46781D01*
X165114Y46331D01*
X165702Y46088D01*
X166339D01*
X166927Y46331D01*
X167377Y46781D01*
X167621Y47369D01*
Y48006D01*
X167377Y48594D01*
X166927Y49044D01*
X166339Y49288D01*
D02*
G37*
G36*
X108648D02*
X108012D01*
X107424Y49044D01*
X106974Y48594D01*
X106730Y48006D01*
Y47369D01*
X106974Y46781D01*
X107424Y46331D01*
X108012Y46088D01*
X108648D01*
X109236Y46331D01*
X109686Y46781D01*
X109930Y47369D01*
Y48006D01*
X109686Y48594D01*
X109236Y49044D01*
X108648Y49288D01*
D02*
G37*
G36*
X281573Y49275D02*
X280937D01*
X280348Y49031D01*
X279898Y48581D01*
X279655Y47993D01*
Y47357D01*
X279898Y46769D01*
X280348Y46319D01*
X280937Y46075D01*
X281573D01*
X282161Y46319D01*
X282611Y46769D01*
X282855Y47357D01*
Y47993D01*
X282611Y48581D01*
X282161Y49031D01*
X281573Y49275D01*
D02*
G37*
G36*
X232218Y46900D02*
X231582D01*
X230994Y46656D01*
X230543Y46206D01*
X230300Y45618D01*
Y44982D01*
X230543Y44394D01*
X230994Y43944D01*
X231582Y43700D01*
X232218D01*
X232806Y43944D01*
X233256Y44394D01*
X233500Y44982D01*
Y45618D01*
X233256Y46206D01*
X232806Y46656D01*
X232218Y46900D01*
D02*
G37*
G36*
X174509Y46700D02*
X173873D01*
X173285Y46456D01*
X172835Y46006D01*
X172591Y45418D01*
Y44782D01*
X172835Y44194D01*
X173285Y43744D01*
X173873Y43500D01*
X174509D01*
X175097Y43744D01*
X175547Y44194D01*
X175791Y44782D01*
Y45418D01*
X175547Y46006D01*
X175097Y46456D01*
X174509Y46700D01*
D02*
G37*
G36*
X116818D02*
X116182D01*
X115594Y46456D01*
X115144Y46006D01*
X114900Y45418D01*
Y44782D01*
X115144Y44194D01*
X115594Y43744D01*
X116182Y43500D01*
X116818D01*
X117406Y43744D01*
X117856Y44194D01*
X118100Y44782D01*
Y45418D01*
X117856Y46006D01*
X117406Y46456D01*
X116818Y46700D01*
D02*
G37*
G36*
X289743Y46687D02*
X289107D01*
X288519Y46444D01*
X288069Y45994D01*
X287825Y45406D01*
Y44769D01*
X288069Y44181D01*
X288519Y43731D01*
X289107Y43488D01*
X289743D01*
X290331Y43731D01*
X290781Y44181D01*
X291025Y44769D01*
Y45406D01*
X290781Y45994D01*
X290331Y46444D01*
X289743Y46687D01*
D02*
G37*
G36*
X224048Y44287D02*
X223412D01*
X222824Y44044D01*
X222374Y43594D01*
X222130Y43006D01*
Y42369D01*
X222374Y41781D01*
X222824Y41331D01*
X223412Y41087D01*
X224048D01*
X224636Y41331D01*
X225086Y41781D01*
X225330Y42369D01*
Y43006D01*
X225086Y43594D01*
X224636Y44044D01*
X224048Y44287D01*
D02*
G37*
G36*
X166339Y44087D02*
X165702D01*
X165114Y43844D01*
X164664Y43394D01*
X164421Y42806D01*
Y42169D01*
X164664Y41581D01*
X165114Y41131D01*
X165702Y40887D01*
X166339D01*
X166927Y41131D01*
X167377Y41581D01*
X167621Y42169D01*
Y42806D01*
X167377Y43394D01*
X166927Y43844D01*
X166339Y44087D01*
D02*
G37*
G36*
X108648D02*
X108012D01*
X107424Y43844D01*
X106974Y43394D01*
X106730Y42806D01*
Y42169D01*
X106974Y41581D01*
X107424Y41131D01*
X108012Y40887D01*
X108648D01*
X109236Y41131D01*
X109686Y41581D01*
X109930Y42169D01*
Y42806D01*
X109686Y43394D01*
X109236Y43844D01*
X108648Y44087D01*
D02*
G37*
G36*
X281573Y44075D02*
X280937D01*
X280348Y43831D01*
X279898Y43381D01*
X279655Y42793D01*
Y42157D01*
X279898Y41569D01*
X280348Y41118D01*
X280937Y40875D01*
X281573D01*
X282161Y41118D01*
X282611Y41569D01*
X282855Y42157D01*
Y42793D01*
X282611Y43381D01*
X282161Y43831D01*
X281573Y44075D01*
D02*
G37*
G36*
X250039Y43393D02*
X249402D01*
X248814Y43149D01*
X248364Y42699D01*
X248120Y42111D01*
Y41474D01*
X248364Y40886D01*
X248814Y40436D01*
X249402Y40192D01*
X250039D01*
X250627Y40436D01*
X251077Y40886D01*
X251320Y41474D01*
Y42111D01*
X251077Y42699D01*
X250627Y43149D01*
X250039Y43393D01*
D02*
G37*
G36*
X192330Y43192D02*
X191693D01*
X191105Y42949D01*
X190655Y42499D01*
X190411Y41911D01*
Y41274D01*
X190655Y40686D01*
X191105Y40236D01*
X191693Y39992D01*
X192330D01*
X192918Y40236D01*
X193368Y40686D01*
X193611Y41274D01*
Y41911D01*
X193368Y42499D01*
X192918Y42949D01*
X192330Y43192D01*
D02*
G37*
G36*
X134639D02*
X134002D01*
X133414Y42949D01*
X132964Y42499D01*
X132720Y41911D01*
Y41274D01*
X132964Y40686D01*
X133414Y40236D01*
X134002Y39992D01*
X134639D01*
X135227Y40236D01*
X135677Y40686D01*
X135920Y41274D01*
Y41911D01*
X135677Y42499D01*
X135227Y42949D01*
X134639Y43192D01*
D02*
G37*
G36*
X307564Y43180D02*
X306927D01*
X306339Y42936D01*
X305889Y42486D01*
X305645Y41898D01*
Y41262D01*
X305889Y40674D01*
X306339Y40224D01*
X306927Y39980D01*
X307564D01*
X308152Y40224D01*
X308602Y40674D01*
X308845Y41262D01*
Y41898D01*
X308602Y42486D01*
X308152Y42936D01*
X307564Y43180D01*
D02*
G37*
G36*
X206786Y43091D02*
X206150D01*
X205562Y42847D01*
X205112Y42397D01*
X204868Y41809D01*
Y41173D01*
X205112Y40584D01*
X205562Y40134D01*
X206150Y39891D01*
X206786D01*
X207375Y40134D01*
X207825Y40584D01*
X208068Y41173D01*
Y41809D01*
X207825Y42397D01*
X207375Y42847D01*
X206786Y43091D01*
D02*
G37*
G36*
X149077Y42891D02*
X148441D01*
X147853Y42647D01*
X147403Y42197D01*
X147159Y41609D01*
Y40973D01*
X147403Y40384D01*
X147853Y39934D01*
X148441Y39691D01*
X149077D01*
X149665Y39934D01*
X150116Y40384D01*
X150359Y40973D01*
Y41609D01*
X150116Y42197D01*
X149665Y42647D01*
X149077Y42891D01*
D02*
G37*
G36*
X91386D02*
X90750D01*
X90162Y42647D01*
X89712Y42197D01*
X89468Y41609D01*
Y40973D01*
X89712Y40384D01*
X90162Y39934D01*
X90750Y39691D01*
X91386D01*
X91975Y39934D01*
X92425Y40384D01*
X92668Y40973D01*
Y41609D01*
X92425Y42197D01*
X91975Y42647D01*
X91386Y42891D01*
D02*
G37*
G36*
X264311Y42878D02*
X263675D01*
X263087Y42635D01*
X262637Y42184D01*
X262393Y41596D01*
Y40960D01*
X262637Y40372D01*
X263087Y39922D01*
X263675Y39678D01*
X264311D01*
X264899Y39922D01*
X265350Y40372D01*
X265593Y40960D01*
Y41596D01*
X265350Y42184D01*
X264899Y42635D01*
X264311Y42878D01*
D02*
G37*
G36*
X232471Y41810D02*
X231835D01*
X231246Y41567D01*
X230796Y41117D01*
X230553Y40529D01*
Y39892D01*
X230796Y39304D01*
X231246Y38854D01*
X231835Y38610D01*
X232471D01*
X233059Y38854D01*
X233509Y39304D01*
X233753Y39892D01*
Y40529D01*
X233509Y41117D01*
X233059Y41567D01*
X232471Y41810D01*
D02*
G37*
G36*
X174762Y41610D02*
X174126D01*
X173537Y41367D01*
X173087Y40917D01*
X172844Y40329D01*
Y39692D01*
X173087Y39104D01*
X173537Y38654D01*
X174126Y38410D01*
X174762D01*
X175350Y38654D01*
X175800Y39104D01*
X176044Y39692D01*
Y40329D01*
X175800Y40917D01*
X175350Y41367D01*
X174762Y41610D01*
D02*
G37*
G36*
X117071D02*
X116435D01*
X115846Y41367D01*
X115396Y40917D01*
X115153Y40329D01*
Y39692D01*
X115396Y39104D01*
X115846Y38654D01*
X116435Y38410D01*
X117071D01*
X117659Y38654D01*
X118109Y39104D01*
X118353Y39692D01*
Y40329D01*
X118109Y40917D01*
X117659Y41367D01*
X117071Y41610D01*
D02*
G37*
G36*
X289996Y41598D02*
X289359D01*
X288771Y41354D01*
X288321Y40904D01*
X288078Y40316D01*
Y39680D01*
X288321Y39092D01*
X288771Y38642D01*
X289359Y38398D01*
X289996D01*
X290584Y38642D01*
X291034Y39092D01*
X291278Y39680D01*
Y40316D01*
X291034Y40904D01*
X290584Y41354D01*
X289996Y41598D01*
D02*
G37*
G36*
X227418Y40800D02*
X226782D01*
X226194Y40556D01*
X225744Y40106D01*
X225500Y39518D01*
Y38882D01*
X225744Y38294D01*
X226194Y37843D01*
X226782Y37600D01*
X227418D01*
X228006Y37843D01*
X228456Y38294D01*
X228700Y38882D01*
Y39518D01*
X228456Y40106D01*
X228006Y40556D01*
X227418Y40800D01*
D02*
G37*
G36*
X169828Y40456D02*
X169192D01*
X168604Y40212D01*
X168154Y39762D01*
X167910Y39174D01*
Y38537D01*
X168154Y37949D01*
X168604Y37499D01*
X169192Y37256D01*
X169828D01*
X170416Y37499D01*
X170867Y37949D01*
X171110Y38537D01*
Y39174D01*
X170867Y39762D01*
X170416Y40212D01*
X169828Y40456D01*
D02*
G37*
G36*
X112138Y39902D02*
X111501D01*
X110913Y39659D01*
X110463Y39209D01*
X110219Y38621D01*
Y37984D01*
X110463Y37396D01*
X110913Y36946D01*
X111501Y36702D01*
X112138D01*
X112726Y36946D01*
X113176Y37396D01*
X113419Y37984D01*
Y38621D01*
X113176Y39209D01*
X112726Y39659D01*
X112138Y39902D01*
D02*
G37*
G36*
X250039Y38892D02*
X249403D01*
X248815Y38648D01*
X248364Y38198D01*
X248121Y37610D01*
Y36974D01*
X248364Y36386D01*
X248815Y35936D01*
X249403Y35692D01*
X250039D01*
X250627Y35936D01*
X251077Y36386D01*
X251321Y36974D01*
Y37610D01*
X251077Y38198D01*
X250627Y38648D01*
X250039Y38892D01*
D02*
G37*
G36*
X192330Y38692D02*
X191693D01*
X191105Y38448D01*
X190655Y37998D01*
X190412Y37410D01*
Y36774D01*
X190655Y36186D01*
X191105Y35735D01*
X191693Y35492D01*
X192330D01*
X192918Y35735D01*
X193368Y36186D01*
X193612Y36774D01*
Y37410D01*
X193368Y37998D01*
X192918Y38448D01*
X192330Y38692D01*
D02*
G37*
G36*
X134639D02*
X134003D01*
X133415Y38448D01*
X132965Y37998D01*
X132721Y37410D01*
Y36774D01*
X132965Y36186D01*
X133415Y35735D01*
X134003Y35492D01*
X134639D01*
X135227Y35735D01*
X135677Y36186D01*
X135921Y36774D01*
Y37410D01*
X135677Y37998D01*
X135227Y38448D01*
X134639Y38692D01*
D02*
G37*
G36*
X307564Y38680D02*
X306927D01*
X306339Y38436D01*
X305889Y37986D01*
X305646Y37398D01*
Y36761D01*
X305889Y36173D01*
X306339Y35723D01*
X306927Y35480D01*
X307564D01*
X308152Y35723D01*
X308602Y36173D01*
X308846Y36761D01*
Y37398D01*
X308602Y37986D01*
X308152Y38436D01*
X307564Y38680D01*
D02*
G37*
G36*
X213118Y36163D02*
X212482D01*
X211894Y35919D01*
X211443Y35469D01*
X211200Y34881D01*
Y34245D01*
X211443Y33657D01*
X211894Y33206D01*
X212482Y32963D01*
X213118D01*
X213706Y33206D01*
X214156Y33657D01*
X214400Y34245D01*
Y34881D01*
X214156Y35469D01*
X213706Y35919D01*
X213118Y36163D01*
D02*
G37*
G36*
X155409Y35963D02*
X154773D01*
X154185Y35719D01*
X153735Y35269D01*
X153491Y34681D01*
Y34045D01*
X153735Y33457D01*
X154185Y33007D01*
X154773Y32763D01*
X155409D01*
X155997Y33007D01*
X156447Y33457D01*
X156691Y34045D01*
Y34681D01*
X156447Y35269D01*
X155997Y35719D01*
X155409Y35963D01*
D02*
G37*
G36*
X97718D02*
X97082D01*
X96494Y35719D01*
X96043Y35269D01*
X95800Y34681D01*
Y34045D01*
X96043Y33457D01*
X96494Y33007D01*
X97082Y32763D01*
X97718D01*
X98306Y33007D01*
X98756Y33457D01*
X99000Y34045D01*
Y34681D01*
X98756Y35269D01*
X98306Y35719D01*
X97718Y35963D01*
D02*
G37*
G36*
X270643Y35950D02*
X270007D01*
X269419Y35707D01*
X268969Y35257D01*
X268725Y34669D01*
Y34032D01*
X268969Y33444D01*
X269419Y32994D01*
X270007Y32750D01*
X270643D01*
X271231Y32994D01*
X271681Y33444D01*
X271925Y34032D01*
Y34669D01*
X271681Y35257D01*
X271231Y35707D01*
X270643Y35950D01*
D02*
G37*
G36*
X269994Y31170D02*
X269357D01*
X268769Y30927D01*
X268319Y30476D01*
X268076Y29888D01*
Y29252D01*
X268319Y28664D01*
X268769Y28214D01*
X269357Y27970D01*
X269994D01*
X270582Y28214D01*
X271032Y28664D01*
X271276Y29252D01*
Y29888D01*
X271032Y30476D01*
X270582Y30927D01*
X269994Y31170D01*
D02*
G37*
G36*
X218359Y31157D02*
X217722D01*
X217134Y30914D01*
X216684Y30464D01*
X216441Y29876D01*
Y29239D01*
X216684Y28651D01*
X217134Y28201D01*
X217722Y27957D01*
X218359D01*
X218947Y28201D01*
X219397Y28651D01*
X219640Y29239D01*
Y29876D01*
X219397Y30464D01*
X218947Y30914D01*
X218359Y31157D01*
D02*
G37*
G36*
X275884Y31031D02*
X275247D01*
X274659Y30787D01*
X274209Y30337D01*
X273965Y29749D01*
Y29113D01*
X274209Y28525D01*
X274659Y28074D01*
X275247Y27831D01*
X275884D01*
X276472Y28074D01*
X276922Y28525D01*
X277165Y29113D01*
Y29749D01*
X276922Y30337D01*
X276472Y30787D01*
X275884Y31031D01*
D02*
G37*
G36*
X212469D02*
X211832D01*
X211244Y30787D01*
X210794Y30337D01*
X210551Y29749D01*
Y29113D01*
X210794Y28525D01*
X211244Y28074D01*
X211832Y27831D01*
X212469D01*
X213057Y28074D01*
X213507Y28525D01*
X213751Y29113D01*
Y29749D01*
X213507Y30337D01*
X213057Y30787D01*
X212469Y31031D01*
D02*
G37*
G36*
X72598Y30437D02*
X71961D01*
X71373Y30193D01*
X70923Y29743D01*
X70679Y29155D01*
Y28519D01*
X70923Y27930D01*
X71373Y27480D01*
X71961Y27237D01*
X72598D01*
X73186Y27480D01*
X73636Y27930D01*
X73879Y28519D01*
Y29155D01*
X73636Y29743D01*
X73186Y30193D01*
X72598Y30437D01*
D02*
G37*
G36*
X20484Y29524D02*
X19848D01*
X19260Y29281D01*
X18810Y28831D01*
X18566Y28243D01*
Y27606D01*
X18810Y27018D01*
X19260Y26568D01*
X19848Y26324D01*
X20484D01*
X21072Y26568D01*
X21523Y27018D01*
X21766Y27606D01*
Y28243D01*
X21523Y28831D01*
X21072Y29281D01*
X20484Y29524D01*
D02*
G37*
G36*
X248938Y26329D02*
X248301D01*
X247713Y26085D01*
X247263Y25635D01*
X247019Y25047D01*
Y24410D01*
X247263Y23822D01*
X247713Y23372D01*
X248301Y23129D01*
X248938D01*
X249526Y23372D01*
X249976Y23822D01*
X250219Y24410D01*
Y25047D01*
X249976Y25635D01*
X249526Y26085D01*
X248938Y26329D01*
D02*
G37*
G36*
X191228Y26129D02*
X190592D01*
X190004Y25885D01*
X189554Y25435D01*
X189310Y24847D01*
Y24210D01*
X189554Y23622D01*
X190004Y23172D01*
X190592Y22929D01*
X191228D01*
X191816Y23172D01*
X192267Y23622D01*
X192510Y24210D01*
Y24847D01*
X192267Y25435D01*
X191816Y25885D01*
X191228Y26129D01*
D02*
G37*
G36*
X133538D02*
X132901D01*
X132313Y25885D01*
X131863Y25435D01*
X131619Y24847D01*
Y24210D01*
X131863Y23622D01*
X132313Y23172D01*
X132901Y22929D01*
X133538D01*
X134126Y23172D01*
X134576Y23622D01*
X134819Y24210D01*
Y24847D01*
X134576Y25435D01*
X134126Y25885D01*
X133538Y26129D01*
D02*
G37*
G36*
X306462Y26116D02*
X305826D01*
X305238Y25872D01*
X304788Y25422D01*
X304544Y24834D01*
Y24198D01*
X304788Y23610D01*
X305238Y23159D01*
X305826Y22916D01*
X306462D01*
X307050Y23159D01*
X307501Y23610D01*
X307744Y24198D01*
Y24834D01*
X307501Y25422D01*
X307050Y25872D01*
X306462Y26116D01*
D02*
G37*
G36*
X20480Y22110D02*
X19844D01*
X19256Y21866D01*
X18805Y21416D01*
X18562Y20828D01*
Y20192D01*
X18805Y19604D01*
X19256Y19153D01*
X19844Y18910D01*
X20480D01*
X21068Y19153D01*
X21518Y19604D01*
X21762Y20192D01*
Y20828D01*
X21518Y21416D01*
X21068Y21866D01*
X20480Y22110D01*
D02*
G37*
G36*
X31928Y19413D02*
X31292D01*
X30703Y19170D01*
X30253Y18720D01*
X30010Y18131D01*
Y17495D01*
X30253Y16907D01*
X30703Y16457D01*
X31292Y16213D01*
X31928D01*
X32516Y16457D01*
X32966Y16907D01*
X33210Y17495D01*
Y18131D01*
X32966Y18720D01*
X32516Y19170D01*
X31928Y19413D01*
D02*
G37*
G36*
X59818Y19300D02*
X59182D01*
X58594Y19056D01*
X58144Y18606D01*
X57900Y18018D01*
Y17382D01*
X58144Y16794D01*
X58594Y16344D01*
X59182Y16100D01*
X59818D01*
X60406Y16344D01*
X60856Y16794D01*
X61100Y17382D01*
Y18018D01*
X60856Y18606D01*
X60406Y19056D01*
X59818Y19300D01*
D02*
G37*
G36*
X223786Y19170D02*
X223149D01*
X222561Y18927D01*
X222111Y18476D01*
X221868Y17888D01*
Y17252D01*
X222111Y16664D01*
X222561Y16214D01*
X223149Y15970D01*
X223786D01*
X224374Y16214D01*
X224824Y16664D01*
X225068Y17252D01*
Y17888D01*
X224824Y18476D01*
X224374Y18927D01*
X223786Y19170D01*
D02*
G37*
G36*
X166077Y18970D02*
X165440D01*
X164852Y18727D01*
X164402Y18277D01*
X164158Y17688D01*
Y17052D01*
X164402Y16464D01*
X164852Y16014D01*
X165440Y15770D01*
X166077D01*
X166665Y16014D01*
X167115Y16464D01*
X167359Y17052D01*
Y17688D01*
X167115Y18277D01*
X166665Y18727D01*
X166077Y18970D01*
D02*
G37*
G36*
X108386D02*
X107749D01*
X107161Y18727D01*
X106711Y18277D01*
X106468Y17688D01*
Y17052D01*
X106711Y16464D01*
X107161Y16014D01*
X107749Y15770D01*
X108386D01*
X108974Y16014D01*
X109424Y16464D01*
X109668Y17052D01*
Y17688D01*
X109424Y18277D01*
X108974Y18727D01*
X108386Y18970D01*
D02*
G37*
G36*
X281311Y18958D02*
X280674D01*
X280086Y18714D01*
X279636Y18264D01*
X279393Y17676D01*
Y17039D01*
X279636Y16451D01*
X280086Y16001D01*
X280674Y15758D01*
X281311D01*
X281899Y16001D01*
X282349Y16451D01*
X282593Y17039D01*
Y17676D01*
X282349Y18264D01*
X281899Y18714D01*
X281311Y18958D01*
D02*
G37*
G36*
X248115Y16187D02*
X247478D01*
X246890Y15944D01*
X246440Y15494D01*
X246197Y14906D01*
Y14269D01*
X246440Y13681D01*
X246890Y13231D01*
X247478Y12987D01*
X248115D01*
X248703Y13231D01*
X249153Y13681D01*
X249396Y14269D01*
Y14906D01*
X249153Y15494D01*
X248703Y15944D01*
X248115Y16187D01*
D02*
G37*
G36*
X190406Y15987D02*
X189769D01*
X189181Y15744D01*
X188731Y15294D01*
X188487Y14706D01*
Y14069D01*
X188731Y13481D01*
X189181Y13031D01*
X189769Y12787D01*
X190406D01*
X190994Y13031D01*
X191444Y13481D01*
X191687Y14069D01*
Y14706D01*
X191444Y15294D01*
X190994Y15744D01*
X190406Y15987D01*
D02*
G37*
G36*
X132715D02*
X132078D01*
X131490Y15744D01*
X131040Y15294D01*
X130797Y14706D01*
Y14069D01*
X131040Y13481D01*
X131490Y13031D01*
X132078Y12787D01*
X132715D01*
X133303Y13031D01*
X133753Y13481D01*
X133997Y14069D01*
Y14706D01*
X133753Y15294D01*
X133303Y15744D01*
X132715Y15987D01*
D02*
G37*
G36*
X305640Y15975D02*
X305003D01*
X304415Y15731D01*
X303965Y15281D01*
X303721Y14693D01*
Y14056D01*
X303965Y13468D01*
X304415Y13018D01*
X304573Y12953D01*
X304474Y12453D01*
X304414D01*
X303281Y12149D01*
X302266Y11563D01*
X301437Y10734D01*
X300851Y9719D01*
X300547Y8586D01*
Y7414D01*
X300851Y6281D01*
X301437Y5266D01*
X302266Y4437D01*
X303281Y3851D01*
X304414Y3547D01*
X305586D01*
X306719Y3851D01*
X307734Y4437D01*
X308563Y5266D01*
X309149Y6281D01*
X309453Y7414D01*
Y8586D01*
X309149Y9719D01*
X308563Y10734D01*
X307734Y11563D01*
X306719Y12149D01*
X305940Y12358D01*
X305905Y12885D01*
X306228Y13018D01*
X306678Y13468D01*
X306921Y14056D01*
Y14693D01*
X306678Y15281D01*
X306228Y15731D01*
X305640Y15975D01*
D02*
G37*
G36*
X295586Y12453D02*
X294414D01*
X293281Y12149D01*
X292266Y11563D01*
X291437Y10734D01*
X290851Y9719D01*
X290547Y8586D01*
Y7414D01*
X290851Y6281D01*
X291437Y5266D01*
X292266Y4437D01*
X293281Y3851D01*
X294414Y3547D01*
X295586D01*
X296719Y3851D01*
X297734Y4437D01*
X298563Y5266D01*
X299149Y6281D01*
X299453Y7414D01*
Y8586D01*
X299149Y9719D01*
X298563Y10734D01*
X297734Y11563D01*
X296719Y12149D01*
X295586Y12453D01*
D02*
G37*
G36*
X285586D02*
X284414D01*
X283281Y12149D01*
X282266Y11563D01*
X281437Y10734D01*
X280851Y9719D01*
X280547Y8586D01*
Y7414D01*
X280851Y6281D01*
X281437Y5266D01*
X282266Y4437D01*
X283281Y3851D01*
X284414Y3547D01*
X285586D01*
X286719Y3851D01*
X287734Y4437D01*
X288563Y5266D01*
X289149Y6281D01*
X289453Y7414D01*
Y8586D01*
X289149Y9719D01*
X288563Y10734D01*
X287734Y11563D01*
X286719Y12149D01*
X285586Y12453D01*
D02*
G37*
G36*
X275586D02*
X274414D01*
X273281Y12149D01*
X272266Y11563D01*
X271437Y10734D01*
X270851Y9719D01*
X270547Y8586D01*
Y7414D01*
X270851Y6281D01*
X271437Y5266D01*
X272266Y4437D01*
X273281Y3851D01*
X274414Y3547D01*
X275586D01*
X276719Y3851D01*
X277734Y4437D01*
X278563Y5266D01*
X279149Y6281D01*
X279453Y7414D01*
Y8586D01*
X279149Y9719D01*
X278563Y10734D01*
X277734Y11563D01*
X276719Y12149D01*
X275586Y12453D01*
D02*
G37*
G36*
X265586D02*
X264414D01*
X263281Y12149D01*
X262266Y11563D01*
X261437Y10734D01*
X260851Y9719D01*
X260547Y8586D01*
Y7414D01*
X260851Y6281D01*
X261437Y5266D01*
X262266Y4437D01*
X263281Y3851D01*
X264414Y3547D01*
X265586D01*
X266719Y3851D01*
X267734Y4437D01*
X268563Y5266D01*
X269149Y6281D01*
X269453Y7414D01*
Y8586D01*
X269149Y9719D01*
X268563Y10734D01*
X267734Y11563D01*
X266719Y12149D01*
X265586Y12453D01*
D02*
G37*
G36*
X255586D02*
X254414D01*
X253281Y12149D01*
X252266Y11563D01*
X251437Y10734D01*
X250851Y9719D01*
X250547Y8586D01*
Y7414D01*
X250851Y6281D01*
X251437Y5266D01*
X252266Y4437D01*
X253281Y3851D01*
X254414Y3547D01*
X255586D01*
X256719Y3851D01*
X257734Y4437D01*
X258563Y5266D01*
X259149Y6281D01*
X259453Y7414D01*
Y8586D01*
X259149Y9719D01*
X258563Y10734D01*
X257734Y11563D01*
X256719Y12149D01*
X255586Y12453D01*
D02*
G37*
G36*
X245586D02*
X244414D01*
X243281Y12149D01*
X242266Y11563D01*
X241437Y10734D01*
X240851Y9719D01*
X240547Y8586D01*
Y7414D01*
X240851Y6281D01*
X241437Y5266D01*
X242266Y4437D01*
X243281Y3851D01*
X244414Y3547D01*
X245586D01*
X246719Y3851D01*
X247734Y4437D01*
X248563Y5266D01*
X249149Y6281D01*
X249453Y7414D01*
Y8586D01*
X249149Y9719D01*
X248563Y10734D01*
X247734Y11563D01*
X246719Y12149D01*
X245586Y12453D01*
D02*
G37*
G36*
X235586D02*
X234414D01*
X233281Y12149D01*
X232266Y11563D01*
X231437Y10734D01*
X230851Y9719D01*
X230547Y8586D01*
Y7414D01*
X230851Y6281D01*
X231437Y5266D01*
X232266Y4437D01*
X233281Y3851D01*
X234414Y3547D01*
X235586D01*
X236719Y3851D01*
X237734Y4437D01*
X238563Y5266D01*
X239149Y6281D01*
X239453Y7414D01*
Y8586D01*
X239149Y9719D01*
X238563Y10734D01*
X237734Y11563D01*
X236719Y12149D01*
X235586Y12453D01*
D02*
G37*
G36*
X225586D02*
X224414D01*
X223281Y12149D01*
X222266Y11563D01*
X221437Y10734D01*
X220851Y9719D01*
X220547Y8586D01*
Y7414D01*
X220851Y6281D01*
X221437Y5266D01*
X222266Y4437D01*
X223281Y3851D01*
X224414Y3547D01*
X225586D01*
X226719Y3851D01*
X227734Y4437D01*
X228563Y5266D01*
X229149Y6281D01*
X229453Y7414D01*
Y8586D01*
X229149Y9719D01*
X228563Y10734D01*
X227734Y11563D01*
X226719Y12149D01*
X225586Y12453D01*
D02*
G37*
G36*
X215586D02*
X214414D01*
X213281Y12149D01*
X212266Y11563D01*
X211437Y10734D01*
X210851Y9719D01*
X210547Y8586D01*
Y7414D01*
X210851Y6281D01*
X211437Y5266D01*
X212266Y4437D01*
X213281Y3851D01*
X214414Y3547D01*
X215586D01*
X216719Y3851D01*
X217734Y4437D01*
X218563Y5266D01*
X219149Y6281D01*
X219453Y7414D01*
Y8586D01*
X219149Y9719D01*
X218563Y10734D01*
X217734Y11563D01*
X216719Y12149D01*
X215586Y12453D01*
D02*
G37*
G36*
X205586D02*
X204414D01*
X203281Y12149D01*
X202266Y11563D01*
X201437Y10734D01*
X200851Y9719D01*
X200547Y8586D01*
Y7414D01*
X200851Y6281D01*
X201437Y5266D01*
X202266Y4437D01*
X203281Y3851D01*
X204414Y3547D01*
X205586D01*
X206719Y3851D01*
X207734Y4437D01*
X208563Y5266D01*
X209149Y6281D01*
X209453Y7414D01*
Y8586D01*
X209149Y9719D01*
X208563Y10734D01*
X207734Y11563D01*
X206719Y12149D01*
X205586Y12453D01*
D02*
G37*
G36*
X195586D02*
X194414D01*
X193281Y12149D01*
X192266Y11563D01*
X191437Y10734D01*
X190851Y9719D01*
X190547Y8586D01*
Y7414D01*
X190851Y6281D01*
X191437Y5266D01*
X192266Y4437D01*
X193281Y3851D01*
X194414Y3547D01*
X195586D01*
X196719Y3851D01*
X197734Y4437D01*
X198563Y5266D01*
X199149Y6281D01*
X199453Y7414D01*
Y8586D01*
X199149Y9719D01*
X198563Y10734D01*
X197734Y11563D01*
X196719Y12149D01*
X195586Y12453D01*
D02*
G37*
G36*
X185586D02*
X184414D01*
X183281Y12149D01*
X182266Y11563D01*
X181437Y10734D01*
X180851Y9719D01*
X180547Y8586D01*
Y7414D01*
X180851Y6281D01*
X181437Y5266D01*
X182266Y4437D01*
X183281Y3851D01*
X184414Y3547D01*
X185586D01*
X186719Y3851D01*
X187734Y4437D01*
X188563Y5266D01*
X189149Y6281D01*
X189453Y7414D01*
Y8586D01*
X189149Y9719D01*
X188563Y10734D01*
X187734Y11563D01*
X186719Y12149D01*
X185586Y12453D01*
D02*
G37*
G36*
X175586D02*
X174414D01*
X173281Y12149D01*
X172266Y11563D01*
X171437Y10734D01*
X170851Y9719D01*
X170547Y8586D01*
Y7414D01*
X170851Y6281D01*
X171437Y5266D01*
X172266Y4437D01*
X173281Y3851D01*
X174414Y3547D01*
X175586D01*
X176719Y3851D01*
X177734Y4437D01*
X178563Y5266D01*
X179149Y6281D01*
X179453Y7414D01*
Y8586D01*
X179149Y9719D01*
X178563Y10734D01*
X177734Y11563D01*
X176719Y12149D01*
X175586Y12453D01*
D02*
G37*
G36*
X165586D02*
X164414D01*
X163281Y12149D01*
X162266Y11563D01*
X161437Y10734D01*
X160851Y9719D01*
X160547Y8586D01*
Y7414D01*
X160851Y6281D01*
X161437Y5266D01*
X162266Y4437D01*
X163281Y3851D01*
X164414Y3547D01*
X165586D01*
X166719Y3851D01*
X167734Y4437D01*
X168563Y5266D01*
X169149Y6281D01*
X169453Y7414D01*
Y8586D01*
X169149Y9719D01*
X168563Y10734D01*
X167734Y11563D01*
X166719Y12149D01*
X165586Y12453D01*
D02*
G37*
G36*
X155586D02*
X154414D01*
X153281Y12149D01*
X152266Y11563D01*
X151437Y10734D01*
X150851Y9719D01*
X150547Y8586D01*
Y7414D01*
X150851Y6281D01*
X151437Y5266D01*
X152266Y4437D01*
X153281Y3851D01*
X154414Y3547D01*
X155586D01*
X156719Y3851D01*
X157734Y4437D01*
X158563Y5266D01*
X159149Y6281D01*
X159453Y7414D01*
Y8586D01*
X159149Y9719D01*
X158563Y10734D01*
X157734Y11563D01*
X156719Y12149D01*
X155586Y12453D01*
D02*
G37*
G36*
X145586D02*
X144414D01*
X143281Y12149D01*
X142266Y11563D01*
X141437Y10734D01*
X140851Y9719D01*
X140547Y8586D01*
Y7414D01*
X140851Y6281D01*
X141437Y5266D01*
X142266Y4437D01*
X143281Y3851D01*
X144414Y3547D01*
X145586D01*
X146719Y3851D01*
X147734Y4437D01*
X148563Y5266D01*
X149149Y6281D01*
X149453Y7414D01*
Y8586D01*
X149149Y9719D01*
X148563Y10734D01*
X147734Y11563D01*
X146719Y12149D01*
X145586Y12453D01*
D02*
G37*
G36*
X135586D02*
X134414D01*
X133281Y12149D01*
X132266Y11563D01*
X131437Y10734D01*
X130851Y9719D01*
X130547Y8586D01*
Y7414D01*
X130851Y6281D01*
X131437Y5266D01*
X132266Y4437D01*
X133281Y3851D01*
X134414Y3547D01*
X135586D01*
X136719Y3851D01*
X137734Y4437D01*
X138563Y5266D01*
X139149Y6281D01*
X139453Y7414D01*
Y8586D01*
X139149Y9719D01*
X138563Y10734D01*
X137734Y11563D01*
X136719Y12149D01*
X135586Y12453D01*
D02*
G37*
G36*
X125586D02*
X124414D01*
X123281Y12149D01*
X122266Y11563D01*
X121437Y10734D01*
X120851Y9719D01*
X120547Y8586D01*
Y7414D01*
X120851Y6281D01*
X121437Y5266D01*
X122266Y4437D01*
X123281Y3851D01*
X124414Y3547D01*
X125586D01*
X126719Y3851D01*
X127734Y4437D01*
X128563Y5266D01*
X129149Y6281D01*
X129453Y7414D01*
Y8586D01*
X129149Y9719D01*
X128563Y10734D01*
X127734Y11563D01*
X126719Y12149D01*
X125586Y12453D01*
D02*
G37*
G36*
X115586D02*
X114414D01*
X113281Y12149D01*
X112266Y11563D01*
X111437Y10734D01*
X110851Y9719D01*
X110547Y8586D01*
Y7414D01*
X110851Y6281D01*
X111437Y5266D01*
X112266Y4437D01*
X113281Y3851D01*
X114414Y3547D01*
X115586D01*
X116719Y3851D01*
X117734Y4437D01*
X118563Y5266D01*
X119149Y6281D01*
X119453Y7414D01*
Y8586D01*
X119149Y9719D01*
X118563Y10734D01*
X117734Y11563D01*
X116719Y12149D01*
X115586Y12453D01*
D02*
G37*
G36*
X105586D02*
X104414D01*
X103281Y12149D01*
X102266Y11563D01*
X101437Y10734D01*
X100851Y9719D01*
X100547Y8586D01*
Y7414D01*
X100851Y6281D01*
X101437Y5266D01*
X102266Y4437D01*
X103281Y3851D01*
X104414Y3547D01*
X105586D01*
X106719Y3851D01*
X107734Y4437D01*
X108563Y5266D01*
X109149Y6281D01*
X109453Y7414D01*
Y8586D01*
X109149Y9719D01*
X108563Y10734D01*
X107734Y11563D01*
X106719Y12149D01*
X105586Y12453D01*
D02*
G37*
G36*
X95586D02*
X94414D01*
X93281Y12149D01*
X92266Y11563D01*
X91437Y10734D01*
X90851Y9719D01*
X90547Y8586D01*
Y7414D01*
X90851Y6281D01*
X91437Y5266D01*
X92266Y4437D01*
X93281Y3851D01*
X94414Y3547D01*
X95586D01*
X96719Y3851D01*
X97734Y4437D01*
X98563Y5266D01*
X99149Y6281D01*
X99453Y7414D01*
Y8586D01*
X99149Y9719D01*
X98563Y10734D01*
X97734Y11563D01*
X96719Y12149D01*
X95586Y12453D01*
D02*
G37*
G36*
X85586D02*
X84414D01*
X83281Y12149D01*
X82266Y11563D01*
X81437Y10734D01*
X80851Y9719D01*
X80547Y8586D01*
Y7414D01*
X80851Y6281D01*
X81437Y5266D01*
X82266Y4437D01*
X83281Y3851D01*
X84414Y3547D01*
X85586D01*
X86719Y3851D01*
X87734Y4437D01*
X88563Y5266D01*
X89149Y6281D01*
X89453Y7414D01*
Y8586D01*
X89149Y9719D01*
X88563Y10734D01*
X87734Y11563D01*
X86719Y12149D01*
X85586Y12453D01*
D02*
G37*
G36*
X75586D02*
X74414D01*
X73281Y12149D01*
X72266Y11563D01*
X71437Y10734D01*
X70851Y9719D01*
X70547Y8586D01*
Y7414D01*
X70851Y6281D01*
X71437Y5266D01*
X72266Y4437D01*
X73281Y3851D01*
X74414Y3547D01*
X75586D01*
X76719Y3851D01*
X77734Y4437D01*
X78563Y5266D01*
X79149Y6281D01*
X79453Y7414D01*
Y8586D01*
X79149Y9719D01*
X78563Y10734D01*
X77734Y11563D01*
X76719Y12149D01*
X75586Y12453D01*
D02*
G37*
G36*
X65586D02*
X64414D01*
X63281Y12149D01*
X62266Y11563D01*
X61437Y10734D01*
X60851Y9719D01*
X60547Y8586D01*
Y7414D01*
X60851Y6281D01*
X61437Y5266D01*
X62266Y4437D01*
X63281Y3851D01*
X64414Y3547D01*
X65586D01*
X66719Y3851D01*
X67734Y4437D01*
X68563Y5266D01*
X69149Y6281D01*
X69453Y7414D01*
Y8586D01*
X69149Y9719D01*
X68563Y10734D01*
X67734Y11563D01*
X66719Y12149D01*
X65586Y12453D01*
D02*
G37*
G36*
X55586D02*
X54414D01*
X53281Y12149D01*
X52266Y11563D01*
X51437Y10734D01*
X50851Y9719D01*
X50547Y8586D01*
Y7414D01*
X50851Y6281D01*
X51437Y5266D01*
X52266Y4437D01*
X53281Y3851D01*
X54414Y3547D01*
X55586D01*
X56719Y3851D01*
X57734Y4437D01*
X58563Y5266D01*
X59149Y6281D01*
X59453Y7414D01*
Y8586D01*
X59149Y9719D01*
X58563Y10734D01*
X57734Y11563D01*
X56719Y12149D01*
X55586Y12453D01*
D02*
G37*
G36*
X45318Y15053D02*
X44682D01*
X44094Y14809D01*
X43644Y14359D01*
X43400Y13771D01*
Y13134D01*
X43562Y12742D01*
X43365Y12172D01*
X43281Y12149D01*
X42266Y11563D01*
X41437Y10734D01*
X40851Y9719D01*
X40547Y8586D01*
Y7414D01*
X40851Y6281D01*
X41437Y5266D01*
X42266Y4437D01*
X43281Y3851D01*
X44414Y3547D01*
X45586D01*
X46719Y3851D01*
X47734Y4437D01*
X48563Y5266D01*
X49149Y6281D01*
X49453Y7414D01*
Y8586D01*
X49149Y9719D01*
X48563Y10734D01*
X47734Y11563D01*
X46719Y12149D01*
X46635Y12172D01*
X46437Y12742D01*
X46600Y13134D01*
Y13771D01*
X46356Y14359D01*
X45906Y14809D01*
X45318Y15053D01*
D02*
G37*
G36*
X35586Y12453D02*
X34414D01*
X33281Y12149D01*
X32266Y11563D01*
X31437Y10734D01*
X30851Y9719D01*
X30547Y8586D01*
Y7414D01*
X30851Y6281D01*
X31437Y5266D01*
X32266Y4437D01*
X33281Y3851D01*
X34414Y3547D01*
X35586D01*
X36719Y3851D01*
X37734Y4437D01*
X38563Y5266D01*
X39149Y6281D01*
X39453Y7414D01*
Y8586D01*
X39149Y9719D01*
X38563Y10734D01*
X37734Y11563D01*
X36719Y12149D01*
X35586Y12453D01*
D02*
G37*
G36*
X25586D02*
X24414D01*
X23281Y12149D01*
X22266Y11563D01*
X21437Y10734D01*
X20851Y9719D01*
X20547Y8586D01*
Y7414D01*
X20851Y6281D01*
X21437Y5266D01*
X22266Y4437D01*
X23281Y3851D01*
X24414Y3547D01*
X25586D01*
X26719Y3851D01*
X27734Y4437D01*
X28563Y5266D01*
X29149Y6281D01*
X29453Y7414D01*
Y8586D01*
X29149Y9719D01*
X28563Y10734D01*
X27734Y11563D01*
X26719Y12149D01*
X25586Y12453D01*
D02*
G37*
G36*
X15586D02*
X14414D01*
X13281Y12149D01*
X12266Y11563D01*
X11437Y10734D01*
X10851Y9719D01*
X10547Y8586D01*
Y7414D01*
X10851Y6281D01*
X11437Y5266D01*
X12266Y4437D01*
X13281Y3851D01*
X14414Y3547D01*
X15586D01*
X16719Y3851D01*
X17734Y4437D01*
X18563Y5266D01*
X19149Y6281D01*
X19453Y7414D01*
Y8586D01*
X19149Y9719D01*
X18563Y10734D01*
X17734Y11563D01*
X16719Y12149D01*
X15586Y12453D01*
D02*
G37*
%LPD*%
D11*
X235000Y98000D02*
X236191D01*
X240492Y89579D02*
Y93699D01*
X236191Y98000D02*
X240492Y93699D01*
Y89579D02*
X241539Y88533D01*
X248619D01*
D53*
X115000Y98000D02*
D03*
X105000D02*
D03*
X125000D02*
D03*
X85000D02*
D03*
X95000D02*
D03*
X155000D02*
D03*
X165000D02*
D03*
X135000D02*
D03*
X145000D02*
D03*
X25000D02*
D03*
X35000D02*
D03*
X5000D02*
D03*
X15000D02*
D03*
X65000D02*
D03*
X75000D02*
D03*
X45000D02*
D03*
X55000D02*
D03*
X265000D02*
D03*
X275000D02*
D03*
X255000D02*
D03*
X305000D02*
D03*
X315098D02*
D03*
X285000D02*
D03*
X295000D02*
D03*
X195000D02*
D03*
X205000D02*
D03*
X175000D02*
D03*
X185000D02*
D03*
X235000D02*
D03*
X245000D02*
D03*
X215000D02*
D03*
X225000D02*
D03*
X205000Y8000D02*
D03*
X215000D02*
D03*
X195000D02*
D03*
X235000D02*
D03*
X225000D02*
D03*
X165000D02*
D03*
X155000D02*
D03*
X185000D02*
D03*
X175000D02*
D03*
X295000D02*
D03*
X285000D02*
D03*
X315098D02*
D03*
X305000D02*
D03*
X255000D02*
D03*
X245000D02*
D03*
X275000D02*
D03*
X265000D02*
D03*
X55000D02*
D03*
X45000D02*
D03*
X65000D02*
D03*
X15000D02*
D03*
X5000D02*
D03*
X35000D02*
D03*
X25000D02*
D03*
X125000D02*
D03*
X115000D02*
D03*
X145000D02*
D03*
X135000D02*
D03*
X85000D02*
D03*
X75000D02*
D03*
X105000D02*
D03*
X95000D02*
D03*
D54*
X281531Y55528D02*
D03*
X283310Y65234D02*
D03*
X294441Y68877D02*
D03*
X91368Y69087D02*
D03*
X103568Y68890D02*
D03*
X121517D02*
D03*
X248619Y88533D02*
D03*
X249721Y37292D02*
D03*
X212800Y34563D02*
D03*
X227100Y39200D02*
D03*
X218040Y29557D02*
D03*
X250000Y50988D02*
D03*
X223730Y47888D02*
D03*
Y42687D02*
D03*
X237519Y50987D02*
D03*
X231900Y45300D02*
D03*
X249720Y41793D02*
D03*
X232153Y40210D02*
D03*
X249721Y46292D02*
D03*
X209335Y34563D02*
D03*
X210489Y81052D02*
D03*
X206768Y69288D02*
D03*
X206815Y57291D02*
D03*
X206468Y41491D02*
D03*
X206768Y53391D02*
D03*
X206468Y45349D02*
D03*
X206509Y49391D02*
D03*
X247797Y14587D02*
D03*
X232194Y55699D02*
D03*
X224006Y55741D02*
D03*
X210826Y16412D02*
D03*
Y20153D02*
D03*
X249821Y54978D02*
D03*
X212151Y29431D02*
D03*
X223468Y17570D02*
D03*
X240460Y21345D02*
D03*
X223468Y27170D02*
D03*
X248619Y24729D02*
D03*
X244674Y21345D02*
D03*
X232587Y19850D02*
D03*
X240460Y85814D02*
D03*
X249721Y81052D02*
D03*
X232804Y83192D02*
D03*
X228559Y92800D02*
D03*
Y83170D02*
D03*
X218968Y69090D02*
D03*
X225785Y65446D02*
D03*
X236917Y69090D02*
D03*
X223139Y76970D02*
D03*
X223101Y86892D02*
D03*
X210489Y84792D02*
D03*
X246919Y71570D02*
D03*
X249821Y92800D02*
D03*
X199952D02*
D03*
X269676Y29570D02*
D03*
X275565Y29431D02*
D03*
X209335Y93900D02*
D03*
X194710Y92090D02*
D03*
X189800Y93900D02*
D03*
X182797Y80288D02*
D03*
X152780Y88251D02*
D03*
X131068Y90631D02*
D03*
X170895Y101953D02*
D03*
X160500Y101900D02*
D03*
X59500Y69410D02*
D03*
X52097Y64607D02*
D03*
X31610Y17813D02*
D03*
X59500Y17700D02*
D03*
X72280Y28837D02*
D03*
X20162Y20510D02*
D03*
X38175Y64698D02*
D03*
X31313Y52041D02*
D03*
X20166Y27924D02*
D03*
X23631Y20231D02*
D03*
X23708Y27924D02*
D03*
X8435Y20788D02*
D03*
X45000Y13453D02*
D03*
X41400Y90344D02*
D03*
X61596Y90319D02*
D03*
X6466Y90513D02*
D03*
X28876Y69621D02*
D03*
X8435D02*
D03*
X6466Y73921D02*
D03*
X28876Y78289D02*
D03*
X34256Y75180D02*
D03*
Y89964D02*
D03*
X28876Y89419D02*
D03*
X40143Y69664D02*
D03*
X60664Y49663D02*
D03*
X80437Y56565D02*
D03*
X79818Y64732D02*
D03*
X72280Y59663D02*
D03*
X79818Y51565D02*
D03*
X26364Y63565D02*
D03*
X31364Y56565D02*
D03*
Y61066D02*
D03*
X116753Y40010D02*
D03*
D03*
X179810Y50788D02*
D03*
X169510Y38856D02*
D03*
X153117Y19953D02*
D03*
Y16213D02*
D03*
X174444Y40010D02*
D03*
X174191Y45100D02*
D03*
X149059Y69087D02*
D03*
X166021Y47688D02*
D03*
X189210Y71370D02*
D03*
X148759Y41291D02*
D03*
X166021Y42487D02*
D03*
X174878Y19650D02*
D03*
X166297Y55541D02*
D03*
X174486Y55499D02*
D03*
X152780Y84592D02*
D03*
Y80852D02*
D03*
X190910Y24529D02*
D03*
X192011Y41592D02*
D03*
X148759Y45149D02*
D03*
X192012Y46092D02*
D03*
X192112Y55091D02*
D03*
X192012Y37092D02*
D03*
X149059Y53191D02*
D03*
X91068Y41291D02*
D03*
X108330Y42487D02*
D03*
X149106Y57091D02*
D03*
X192012Y80852D02*
D03*
X165759Y17370D02*
D03*
Y26970D02*
D03*
X155091Y34363D02*
D03*
X151626Y34363D02*
D03*
X186965Y21145D02*
D03*
X190087Y14387D02*
D03*
X182751Y21145D02*
D03*
X148800Y49191D02*
D03*
X165391Y86692D02*
D03*
X165430Y76770D02*
D03*
X192291Y50788D02*
D03*
X179207Y68890D02*
D03*
X168076Y65246D02*
D03*
X161259Y68890D02*
D03*
X170850Y82970D02*
D03*
Y92600D02*
D03*
X175095Y82992D02*
D03*
X268351Y19940D02*
D03*
Y16200D02*
D03*
X289678Y39998D02*
D03*
X289425Y45088D02*
D03*
X264293Y69075D02*
D03*
X295044Y50775D02*
D03*
X281255Y47675D02*
D03*
X304444Y71358D02*
D03*
X263993Y41278D02*
D03*
X281255Y42475D02*
D03*
X290112Y19637D02*
D03*
X289720Y55486D02*
D03*
X307246Y37080D02*
D03*
X268014Y84580D02*
D03*
Y80840D02*
D03*
X297985Y85602D02*
D03*
X306144Y24516D02*
D03*
X307245Y41580D02*
D03*
X263993Y45136D02*
D03*
X307246Y46079D02*
D03*
X307346Y55078D02*
D03*
X264293Y53178D02*
D03*
X264340Y57078D02*
D03*
X307246Y80840D02*
D03*
X280993Y17358D02*
D03*
Y26957D02*
D03*
X270325Y34350D02*
D03*
X266860Y34351D02*
D03*
X302199Y21133D02*
D03*
X305321Y14375D02*
D03*
X297985Y21133D02*
D03*
X264034Y49178D02*
D03*
X280625Y86680D02*
D03*
X280664Y76758D02*
D03*
X307524Y50775D02*
D03*
X276493Y68877D02*
D03*
X286084Y82958D02*
D03*
Y92588D02*
D03*
X290329Y82980D02*
D03*
X111819Y38302D02*
D03*
X134421Y55091D02*
D03*
X122119Y50788D02*
D03*
X116500Y45100D02*
D03*
X116753Y40010D02*
D03*
X134321Y46092D02*
D03*
X113160Y92600D02*
D03*
X125060Y85614D02*
D03*
X110385Y65246D02*
D03*
X113160Y82970D02*
D03*
X117403Y82992D02*
D03*
X131519Y71370D02*
D03*
X134321Y80852D02*
D03*
X91109Y49191D02*
D03*
X107701Y86692D02*
D03*
X107739Y76770D02*
D03*
X108330Y47688D02*
D03*
X95089Y84592D02*
D03*
Y80852D02*
D03*
X91068Y45149D02*
D03*
X91368Y53191D02*
D03*
X91415Y57091D02*
D03*
X108068Y17370D02*
D03*
Y26970D02*
D03*
X97400Y34363D02*
D03*
X93935Y34363D02*
D03*
X108606Y55541D02*
D03*
X116795Y55499D02*
D03*
X129274Y21145D02*
D03*
X132397Y14387D02*
D03*
X125060Y21145D02*
D03*
X134321Y37092D02*
D03*
X133219Y24529D02*
D03*
X134320Y41592D02*
D03*
X134600Y50788D02*
D03*
X95426Y16213D02*
D03*
Y19953D02*
D03*
X117187Y19650D02*
D03*
M02*
