G04*
G04 #@! TF.GenerationSoftware,Altium Limited,Altium Designer,24.10.1 (45)*
G04*
G04 Layer_Color=16711935*
%FSLAX23Y23*%
%MOIN*%
G70*
G04*
G04 #@! TF.SameCoordinates,89824495-C2C7-4CD1-879C-0EC033C6576A*
G04*
G04*
G04 #@! TF.FilePolarity,Negative*
G04*
G01*
G75*
%ADD34R,0.077X0.053*%
%ADD47R,0.067X0.067*%
%ADD48C,0.067*%
%ADD49C,0.022*%
%ADD54C,0.050*%
D34*
X350Y215D02*
D03*
Y325D02*
D03*
X512Y215D02*
D03*
Y325D02*
D03*
X675Y215D02*
D03*
Y325D02*
D03*
D47*
X50Y80D02*
D03*
Y980D02*
D03*
D48*
X150Y80D02*
D03*
X250D02*
D03*
X350D02*
D03*
X450D02*
D03*
X550D02*
D03*
X650D02*
D03*
X750D02*
D03*
X850D02*
D03*
X950D02*
D03*
X1050D02*
D03*
X1150D02*
D03*
X1250D02*
D03*
X1350D02*
D03*
X1450D02*
D03*
X1550D02*
D03*
X1650D02*
D03*
X1750D02*
D03*
X1850D02*
D03*
X1950D02*
D03*
X2050D02*
D03*
X2150D02*
D03*
X2250D02*
D03*
X2350D02*
D03*
X2450D02*
D03*
X2550D02*
D03*
X2650D02*
D03*
X2750D02*
D03*
X2850D02*
D03*
X2950D02*
D03*
X3050D02*
D03*
X3150D02*
D03*
Y980D02*
D03*
X3050D02*
D03*
X2950D02*
D03*
X2850D02*
D03*
X2750D02*
D03*
X2650D02*
D03*
X2550D02*
D03*
X2450D02*
D03*
X2350D02*
D03*
X2250D02*
D03*
X2150D02*
D03*
X2050D02*
D03*
X1950D02*
D03*
X1850D02*
D03*
X1750D02*
D03*
X1650D02*
D03*
X1550D02*
D03*
X1450D02*
D03*
X1350D02*
D03*
X1250D02*
D03*
X1150D02*
D03*
X1050D02*
D03*
X950D02*
D03*
X850D02*
D03*
X750D02*
D03*
X650D02*
D03*
X550D02*
D03*
X450D02*
D03*
X350D02*
D03*
X250D02*
D03*
X150D02*
D03*
D49*
X1650Y905D02*
D03*
X1088Y932D02*
D03*
X1950Y920D02*
D03*
X2178Y924D02*
D03*
X2195Y726D02*
D03*
X2422Y924D02*
D03*
X2805D02*
D03*
X2374D02*
D03*
D54*
X736Y170D02*
D03*
X2645Y565D02*
D03*
X2461Y564D02*
D03*
X3154Y618D02*
D03*
X3105Y576D02*
D03*
X180Y627D02*
D03*
X526Y148D02*
D03*
X818Y169D02*
D03*
X1966Y430D02*
D03*
X1295Y477D02*
D03*
X1693Y557D02*
D03*
X1617Y448D02*
D03*
X1295Y894D02*
D03*
X1109Y862D02*
D03*
X2556Y877D02*
D03*
X3083D02*
D03*
X2645Y161D02*
D03*
X2454D02*
D03*
X2854Y210D02*
D03*
X2262Y200D02*
D03*
X1390Y169D02*
D03*
M02*
