M48
;Layer_Color=9474304
;FILE_FORMAT=2:4
INCH,TZ
;TYPE=PLATED
T01F00S00C0.0120
T02F00S00C0.0354
%
T01
X4145Y1288
X5790Y2167
X7350Y2150
X8180Y2184
X8694Y2168
X10736Y2165
X12039
X13421Y2074
X13240Y2580
X14358Y2078
X15730Y2590
X16286Y1215
X16736
X17033Y1836
X23035Y2095
Y2475
X24072Y1597
X25055Y2004
X26019
X26997Y1597
X28035Y2095
Y2475
Y2855
X27732Y3815
X27150Y3496
X28005Y4484
X28016Y4860
X28005Y5555
X28455
X28705Y6178
X29490Y7264
X29275Y7655
X28705Y8253
X27401Y8255
X27105Y7829
Y7066
X27405Y7255
X27150Y6558
X26997Y5953
X26019Y5004
X25055
X24072Y5890
X23917Y6558
X23905Y7301
Y7834
X24925Y7578
X24915Y7066
X25070Y8346
X26007Y8350
X24221Y9243
X23737
X23160Y9205
X22705
X22408Y8584
X21780Y9243
X20500Y9116
X19500Y9205
X19569Y7655
Y6645
X20377Y6509
X22408Y6502
X21955Y7257
X23035Y4860
Y4484
Y4095
X22985Y3705
Y3255
X23905Y3255
X22408Y2855
X19871Y2765
Y3775
X28585Y4095
X28046Y9243
X30799Y8255
X31540Y8090
Y7104
X17033Y7565
X16456Y7165
Y6715
Y6315
X16451Y5916
X16456Y5576
X16170Y4484
X15511Y3865
X15540Y3350
X15770Y3100
X15520Y2840
X17036Y3906
X14356Y5416
X13456Y5410
X12443Y4466
X12278Y3865
X12036Y3165
X13240Y3350
X11436Y4865
X10986
X10645Y4242
X10005Y3165
X7901Y3316
X8726Y5440
X8927Y5870
X9570Y6226
Y6720
Y7190
X10055Y5860
X10856Y6325
X11436Y5936
X11425Y5560
X11709Y6605
X12336Y6916
X11406Y7565
Y7945
Y8325
X10878Y9323
X13330Y8939
X13456Y8416
X14356
X16406Y8325
Y7945
X16500Y9047
X17500
X15536Y7165
X6750Y7450
X6370Y9120
X4260Y9140
X3791Y8966
Y7466
X4441Y6940
X4691Y7190
Y5940
X5491Y6440
X3099Y7111
X3152Y7801
Y8866
X702Y9025
X699Y7289
X1099Y7111
X1800Y6268
X2450Y5370
X3077Y5002
X3100Y5751
X2700Y3809
X1400
X350Y5000
Y5370
T02
X500Y800
X1500
X2500
X3500
X4500
X5500
X6500
X7500
X8500
X9500
X10500
X11500
X12500
X13500
X14500
X15500
X16500
X17500
X18500
X19500
X20500
X21500
X22500
X23500
X24500
X25500
X26500
X27500
X28500
X29500
X30500
X31500
Y9800
X30500
X29500
X28500
X27500
X26500
X25500
X24500
X23500
X22500
X21500
X20500
X19500
X18500
X17500
X16500
X15500
X14500
X13500
X12500
X11500
X10500
X9500
X8500
X7500
X6500
X5500
X4500
X3500
X2500
X1500
X500
M30
