G04*
G04 #@! TF.GenerationSoftware,Altium Limited,Altium Designer,24.10.1 (45)*
G04*
G04 Layer_Physical_Order=2*
G04 Layer_Color=36540*
%FSLAX23Y23*%
%MOIN*%
G70*
G04*
G04 #@! TF.SameCoordinates,D213B5B1-1682-4A20-B498-33B6BD820803*
G04*
G04*
G04 #@! TF.FilePolarity,Positive*
G04*
G01*
G75*
%ADD51R,0.059X0.059*%
%ADD52C,0.059*%
%ADD53C,0.022*%
G36*
X3180Y1020D02*
X3175Y1017D01*
X3167Y1021D01*
X3156Y1025D01*
X3144D01*
X3133Y1021D01*
X3123Y1016D01*
X3114Y1007D01*
X3109Y997D01*
X3105Y986D01*
Y974D01*
X3109Y963D01*
X3114Y953D01*
X3123Y944D01*
X3133Y939D01*
X3144Y935D01*
X3156D01*
X3167Y939D01*
X3175Y943D01*
X3180Y940D01*
Y120D01*
X3175Y117D01*
X3167Y121D01*
X3156Y125D01*
X3144D01*
X3133Y121D01*
X3123Y116D01*
X3114Y107D01*
X3109Y97D01*
X3105Y86D01*
Y74D01*
X3109Y63D01*
X3114Y53D01*
X3123Y44D01*
X3133Y39D01*
X3144Y35D01*
X3156D01*
X3167Y39D01*
X3175Y43D01*
X3180Y40D01*
Y20D01*
X20D01*
Y35D01*
X95D01*
Y125D01*
X20D01*
Y485D01*
X25Y487D01*
X26Y486D01*
X32Y484D01*
X38D01*
X44Y486D01*
X49Y491D01*
X51Y497D01*
Y503D01*
X49Y509D01*
X44Y514D01*
X38Y516D01*
X32D01*
X26Y514D01*
X25Y513D01*
X20Y515D01*
Y935D01*
X95D01*
Y1025D01*
X20D01*
Y1040D01*
X3180D01*
Y1020D01*
D02*
G37*
%LPC*%
G36*
X257Y1024D02*
Y988D01*
X294D01*
X291Y997D01*
X286Y1007D01*
X277Y1016D01*
X267Y1021D01*
X257Y1024D01*
D02*
G37*
G36*
X242Y1024D02*
X233Y1021D01*
X223Y1016D01*
X214Y1007D01*
X209Y997D01*
X206Y988D01*
X242D01*
Y1024D01*
D02*
G37*
G36*
Y973D02*
X206D01*
X209Y963D01*
X214Y953D01*
X223Y944D01*
X233Y939D01*
X242Y936D01*
Y973D01*
D02*
G37*
G36*
X294D02*
X257D01*
Y936D01*
X267Y939D01*
X277Y944D01*
X286Y953D01*
X291Y963D01*
X294Y973D01*
D02*
G37*
G36*
X3056Y1025D02*
X3044D01*
X3033Y1021D01*
X3023Y1016D01*
X3014Y1007D01*
X3009Y997D01*
X3005Y986D01*
Y974D01*
X3009Y963D01*
X3014Y953D01*
X3023Y944D01*
X3033Y939D01*
X3044Y935D01*
X3056D01*
X3067Y939D01*
X3077Y944D01*
X3086Y953D01*
X3091Y963D01*
X3095Y974D01*
Y986D01*
X3091Y997D01*
X3086Y1007D01*
X3077Y1016D01*
X3067Y1021D01*
X3056Y1025D01*
D02*
G37*
G36*
X2956D02*
X2944D01*
X2933Y1021D01*
X2923Y1016D01*
X2914Y1007D01*
X2909Y997D01*
X2905Y986D01*
Y974D01*
X2909Y963D01*
X2914Y953D01*
X2923Y944D01*
X2933Y939D01*
X2944Y935D01*
X2956D01*
X2967Y939D01*
X2977Y944D01*
X2986Y953D01*
X2991Y963D01*
X2995Y974D01*
Y986D01*
X2991Y997D01*
X2986Y1007D01*
X2977Y1016D01*
X2967Y1021D01*
X2956Y1025D01*
D02*
G37*
G36*
X2856D02*
X2844D01*
X2833Y1021D01*
X2823Y1016D01*
X2814Y1007D01*
X2809Y997D01*
X2805Y986D01*
Y974D01*
X2809Y963D01*
X2814Y953D01*
X2823Y944D01*
X2833Y939D01*
X2844Y935D01*
X2856D01*
X2867Y939D01*
X2877Y944D01*
X2886Y953D01*
X2891Y963D01*
X2895Y974D01*
Y986D01*
X2891Y997D01*
X2886Y1007D01*
X2877Y1016D01*
X2867Y1021D01*
X2856Y1025D01*
D02*
G37*
G36*
X2756D02*
X2744D01*
X2733Y1021D01*
X2723Y1016D01*
X2714Y1007D01*
X2709Y997D01*
X2705Y986D01*
Y974D01*
X2709Y963D01*
X2714Y953D01*
X2723Y944D01*
X2733Y939D01*
X2744Y935D01*
X2756D01*
X2767Y939D01*
X2777Y944D01*
X2786Y953D01*
X2791Y963D01*
X2795Y974D01*
Y986D01*
X2791Y997D01*
X2786Y1007D01*
X2777Y1016D01*
X2767Y1021D01*
X2756Y1025D01*
D02*
G37*
G36*
X2656D02*
X2644D01*
X2633Y1021D01*
X2623Y1016D01*
X2614Y1007D01*
X2609Y997D01*
X2605Y986D01*
Y974D01*
X2609Y963D01*
X2614Y953D01*
X2623Y944D01*
X2633Y939D01*
X2644Y935D01*
X2656D01*
X2667Y939D01*
X2677Y944D01*
X2686Y953D01*
X2691Y963D01*
X2695Y974D01*
Y986D01*
X2691Y997D01*
X2686Y1007D01*
X2677Y1016D01*
X2667Y1021D01*
X2656Y1025D01*
D02*
G37*
G36*
X2556D02*
X2544D01*
X2533Y1021D01*
X2523Y1016D01*
X2514Y1007D01*
X2509Y997D01*
X2505Y986D01*
Y974D01*
X2509Y963D01*
X2514Y953D01*
X2523Y944D01*
X2533Y939D01*
X2544Y935D01*
X2556D01*
X2567Y939D01*
X2577Y944D01*
X2586Y953D01*
X2591Y963D01*
X2595Y974D01*
Y986D01*
X2591Y997D01*
X2586Y1007D01*
X2577Y1016D01*
X2567Y1021D01*
X2556Y1025D01*
D02*
G37*
G36*
X2456D02*
X2444D01*
X2433Y1021D01*
X2423Y1016D01*
X2414Y1007D01*
X2409Y997D01*
X2405Y986D01*
Y974D01*
X2409Y963D01*
X2414Y953D01*
X2422Y945D01*
X2421Y942D01*
X2420Y940D01*
X2419D01*
X2413Y938D01*
X2409Y933D01*
X2406Y927D01*
Y921D01*
X2409Y915D01*
X2413Y911D01*
X2419Y908D01*
X2425D01*
X2431Y911D01*
X2436Y915D01*
X2438Y921D01*
Y927D01*
X2436Y932D01*
X2437Y935D01*
X2439Y937D01*
X2444Y935D01*
X2456D01*
X2467Y939D01*
X2477Y944D01*
X2486Y953D01*
X2491Y963D01*
X2495Y974D01*
Y986D01*
X2491Y997D01*
X2486Y1007D01*
X2477Y1016D01*
X2467Y1021D01*
X2456Y1025D01*
D02*
G37*
G36*
X2256D02*
X2244D01*
X2233Y1021D01*
X2223Y1016D01*
X2214Y1007D01*
X2209Y997D01*
X2205Y986D01*
Y974D01*
X2209Y963D01*
X2214Y953D01*
X2223Y944D01*
X2233Y939D01*
X2244Y935D01*
X2256D01*
X2267Y939D01*
X2277Y944D01*
X2286Y953D01*
X2291Y963D01*
X2295Y974D01*
Y986D01*
X2291Y997D01*
X2286Y1007D01*
X2277Y1016D01*
X2267Y1021D01*
X2256Y1025D01*
D02*
G37*
G36*
X2056D02*
X2044D01*
X2033Y1021D01*
X2023Y1016D01*
X2014Y1007D01*
X2009Y997D01*
X2005Y986D01*
Y974D01*
X2009Y963D01*
X2014Y953D01*
X2023Y944D01*
X2033Y939D01*
X2044Y935D01*
X2056D01*
X2067Y939D01*
X2077Y944D01*
X2086Y953D01*
X2091Y963D01*
X2095Y974D01*
Y986D01*
X2091Y997D01*
X2086Y1007D01*
X2077Y1016D01*
X2067Y1021D01*
X2056Y1025D01*
D02*
G37*
G36*
X1856D02*
X1844D01*
X1833Y1021D01*
X1823Y1016D01*
X1814Y1007D01*
X1809Y997D01*
X1805Y986D01*
Y974D01*
X1809Y963D01*
X1814Y953D01*
X1823Y944D01*
X1833Y939D01*
X1844Y935D01*
X1856D01*
X1867Y939D01*
X1877Y944D01*
X1886Y953D01*
X1891Y963D01*
X1895Y974D01*
Y986D01*
X1891Y997D01*
X1886Y1007D01*
X1877Y1016D01*
X1867Y1021D01*
X1856Y1025D01*
D02*
G37*
G36*
X1756D02*
X1744D01*
X1733Y1021D01*
X1723Y1016D01*
X1714Y1007D01*
X1709Y997D01*
X1705Y986D01*
Y974D01*
X1709Y963D01*
X1714Y953D01*
X1723Y944D01*
X1733Y939D01*
X1744Y935D01*
X1756D01*
X1767Y939D01*
X1777Y944D01*
X1786Y953D01*
X1791Y963D01*
X1795Y974D01*
Y986D01*
X1791Y997D01*
X1786Y1007D01*
X1777Y1016D01*
X1767Y1021D01*
X1756Y1025D01*
D02*
G37*
G36*
X1656D02*
X1644D01*
X1633Y1021D01*
X1623Y1016D01*
X1614Y1007D01*
X1609Y997D01*
X1605Y986D01*
Y974D01*
X1609Y963D01*
X1614Y953D01*
X1623Y944D01*
X1633Y939D01*
X1644Y935D01*
X1656D01*
X1667Y939D01*
X1677Y944D01*
X1686Y953D01*
X1691Y963D01*
X1695Y974D01*
Y986D01*
X1691Y997D01*
X1686Y1007D01*
X1677Y1016D01*
X1667Y1021D01*
X1656Y1025D01*
D02*
G37*
G36*
X1556D02*
X1544D01*
X1533Y1021D01*
X1523Y1016D01*
X1514Y1007D01*
X1509Y997D01*
X1505Y986D01*
Y974D01*
X1509Y963D01*
X1514Y953D01*
X1523Y944D01*
X1533Y939D01*
X1544Y935D01*
X1556D01*
X1567Y939D01*
X1577Y944D01*
X1586Y953D01*
X1591Y963D01*
X1595Y974D01*
Y986D01*
X1591Y997D01*
X1586Y1007D01*
X1577Y1016D01*
X1567Y1021D01*
X1556Y1025D01*
D02*
G37*
G36*
X1456D02*
X1444D01*
X1433Y1021D01*
X1423Y1016D01*
X1414Y1007D01*
X1409Y997D01*
X1405Y986D01*
Y974D01*
X1409Y963D01*
X1414Y953D01*
X1423Y944D01*
X1433Y939D01*
X1444Y935D01*
X1456D01*
X1467Y939D01*
X1477Y944D01*
X1486Y953D01*
X1491Y963D01*
X1495Y974D01*
Y986D01*
X1491Y997D01*
X1486Y1007D01*
X1477Y1016D01*
X1467Y1021D01*
X1456Y1025D01*
D02*
G37*
G36*
X1356D02*
X1344D01*
X1333Y1021D01*
X1323Y1016D01*
X1314Y1007D01*
X1309Y997D01*
X1305Y986D01*
Y974D01*
X1309Y963D01*
X1314Y953D01*
X1323Y944D01*
X1333Y939D01*
X1344Y935D01*
X1356D01*
X1367Y939D01*
X1377Y944D01*
X1386Y953D01*
X1391Y963D01*
X1395Y974D01*
Y986D01*
X1391Y997D01*
X1386Y1007D01*
X1377Y1016D01*
X1367Y1021D01*
X1356Y1025D01*
D02*
G37*
G36*
X1256D02*
X1244D01*
X1233Y1021D01*
X1223Y1016D01*
X1214Y1007D01*
X1209Y997D01*
X1205Y986D01*
Y974D01*
X1209Y963D01*
X1214Y953D01*
X1223Y944D01*
X1233Y939D01*
X1244Y935D01*
X1256D01*
X1267Y939D01*
X1277Y944D01*
X1286Y953D01*
X1291Y963D01*
X1295Y974D01*
Y986D01*
X1291Y997D01*
X1286Y1007D01*
X1277Y1016D01*
X1267Y1021D01*
X1256Y1025D01*
D02*
G37*
G36*
X1156D02*
X1144D01*
X1133Y1021D01*
X1123Y1016D01*
X1114Y1007D01*
X1109Y997D01*
X1105Y986D01*
Y974D01*
X1109Y963D01*
X1114Y953D01*
X1123Y944D01*
X1133Y939D01*
X1144Y935D01*
X1156D01*
X1167Y939D01*
X1177Y944D01*
X1186Y953D01*
X1191Y963D01*
X1195Y974D01*
Y986D01*
X1191Y997D01*
X1186Y1007D01*
X1177Y1016D01*
X1167Y1021D01*
X1156Y1025D01*
D02*
G37*
G36*
X956D02*
X944D01*
X933Y1021D01*
X923Y1016D01*
X914Y1007D01*
X909Y997D01*
X905Y986D01*
Y974D01*
X909Y963D01*
X914Y953D01*
X923Y944D01*
X933Y939D01*
X944Y935D01*
X956D01*
X967Y939D01*
X977Y944D01*
X986Y953D01*
X991Y963D01*
X995Y974D01*
Y986D01*
X991Y997D01*
X986Y1007D01*
X977Y1016D01*
X967Y1021D01*
X956Y1025D01*
D02*
G37*
G36*
X856D02*
X844D01*
X833Y1021D01*
X823Y1016D01*
X814Y1007D01*
X809Y997D01*
X805Y986D01*
Y974D01*
X809Y963D01*
X814Y953D01*
X823Y944D01*
X833Y939D01*
X844Y935D01*
X856D01*
X867Y939D01*
X877Y944D01*
X886Y953D01*
X891Y963D01*
X895Y974D01*
Y986D01*
X891Y997D01*
X886Y1007D01*
X877Y1016D01*
X867Y1021D01*
X856Y1025D01*
D02*
G37*
G36*
X756D02*
X744D01*
X733Y1021D01*
X723Y1016D01*
X714Y1007D01*
X709Y997D01*
X705Y986D01*
Y974D01*
X709Y963D01*
X714Y953D01*
X723Y944D01*
X733Y939D01*
X744Y935D01*
X756D01*
X767Y939D01*
X777Y944D01*
X786Y953D01*
X791Y963D01*
X795Y974D01*
Y986D01*
X791Y997D01*
X786Y1007D01*
X777Y1016D01*
X767Y1021D01*
X756Y1025D01*
D02*
G37*
G36*
X656D02*
X644D01*
X633Y1021D01*
X623Y1016D01*
X614Y1007D01*
X609Y997D01*
X605Y986D01*
Y974D01*
X609Y963D01*
X614Y953D01*
X623Y944D01*
X633Y939D01*
X644Y935D01*
X656D01*
X667Y939D01*
X677Y944D01*
X686Y953D01*
X691Y963D01*
X695Y974D01*
Y986D01*
X691Y997D01*
X686Y1007D01*
X677Y1016D01*
X667Y1021D01*
X656Y1025D01*
D02*
G37*
G36*
X556D02*
X544D01*
X533Y1021D01*
X523Y1016D01*
X514Y1007D01*
X509Y997D01*
X505Y986D01*
Y974D01*
X509Y963D01*
X514Y953D01*
X523Y944D01*
X533Y939D01*
X544Y935D01*
X556D01*
X567Y939D01*
X577Y944D01*
X586Y953D01*
X591Y963D01*
X595Y974D01*
Y986D01*
X591Y997D01*
X586Y1007D01*
X577Y1016D01*
X567Y1021D01*
X556Y1025D01*
D02*
G37*
G36*
X456D02*
X444D01*
X433Y1021D01*
X423Y1016D01*
X414Y1007D01*
X409Y997D01*
X405Y986D01*
Y974D01*
X409Y963D01*
X414Y953D01*
X423Y944D01*
X433Y939D01*
X444Y935D01*
X456D01*
X467Y939D01*
X477Y944D01*
X486Y953D01*
X491Y963D01*
X495Y974D01*
Y986D01*
X491Y997D01*
X486Y1007D01*
X477Y1016D01*
X467Y1021D01*
X456Y1025D01*
D02*
G37*
G36*
X356D02*
X344D01*
X333Y1021D01*
X323Y1016D01*
X314Y1007D01*
X309Y997D01*
X305Y986D01*
Y974D01*
X309Y963D01*
X314Y953D01*
X323Y944D01*
X333Y939D01*
X344Y935D01*
X356D01*
X367Y939D01*
X377Y944D01*
X386Y953D01*
X391Y963D01*
X395Y974D01*
Y986D01*
X391Y997D01*
X386Y1007D01*
X377Y1016D01*
X367Y1021D01*
X356Y1025D01*
D02*
G37*
G36*
X156D02*
X144D01*
X133Y1021D01*
X123Y1016D01*
X114Y1007D01*
X109Y997D01*
X105Y986D01*
Y974D01*
X109Y963D01*
X114Y953D01*
X123Y944D01*
X133Y939D01*
X144Y935D01*
X156D01*
X167Y939D01*
X177Y944D01*
X186Y953D01*
X191Y963D01*
X195Y974D01*
Y986D01*
X191Y997D01*
X186Y1007D01*
X177Y1016D01*
X167Y1021D01*
X156Y1025D01*
D02*
G37*
G36*
X1056D02*
X1044D01*
X1033Y1021D01*
X1023Y1016D01*
X1014Y1007D01*
X1009Y997D01*
X1005Y986D01*
Y974D01*
X1009Y963D01*
X1014Y953D01*
X1023Y944D01*
X1033Y939D01*
X1044Y935D01*
X1056D01*
X1067Y939D01*
X1068Y939D01*
X1072Y935D01*
Y929D01*
X1074Y923D01*
X1079Y919D01*
X1085Y916D01*
X1091D01*
X1097Y919D01*
X1101Y923D01*
X1104Y929D01*
Y935D01*
X1101Y941D01*
X1097Y946D01*
X1091Y948D01*
X1088D01*
X1087Y951D01*
X1086Y953D01*
X1091Y963D01*
X1095Y974D01*
Y986D01*
X1091Y997D01*
X1086Y1007D01*
X1077Y1016D01*
X1067Y1021D01*
X1056Y1025D01*
D02*
G37*
G36*
X2808Y940D02*
X2801D01*
X2796Y938D01*
X2791Y933D01*
X2789Y927D01*
Y921D01*
X2791Y915D01*
X2796Y911D01*
X2801Y908D01*
X2808D01*
X2814Y911D01*
X2818Y915D01*
X2821Y921D01*
Y927D01*
X2818Y933D01*
X2814Y938D01*
X2808Y940D01*
D02*
G37*
G36*
X2356Y1025D02*
X2344D01*
X2333Y1021D01*
X2323Y1016D01*
X2314Y1007D01*
X2309Y997D01*
X2305Y986D01*
Y974D01*
X2309Y963D01*
X2314Y953D01*
X2323Y944D01*
X2333Y939D01*
X2344Y935D01*
X2356D01*
X2359Y931D01*
X2358Y927D01*
Y921D01*
X2360Y915D01*
X2365Y911D01*
X2371Y908D01*
X2377D01*
X2383Y911D01*
X2387Y915D01*
X2390Y921D01*
Y927D01*
X2387Y933D01*
X2383Y938D01*
X2379Y939D01*
X2378Y942D01*
X2378Y945D01*
X2386Y953D01*
X2391Y963D01*
X2395Y974D01*
Y986D01*
X2391Y997D01*
X2386Y1007D01*
X2377Y1016D01*
X2367Y1021D01*
X2356Y1025D01*
D02*
G37*
G36*
X2156D02*
X2144D01*
X2133Y1021D01*
X2123Y1016D01*
X2114Y1007D01*
X2109Y997D01*
X2105Y986D01*
Y974D01*
X2109Y963D01*
X2114Y953D01*
X2123Y944D01*
X2133Y939D01*
X2144Y935D01*
X2156D01*
X2161Y937D01*
X2163Y935D01*
X2164Y932D01*
X2162Y927D01*
Y921D01*
X2164Y915D01*
X2169Y911D01*
X2175Y908D01*
X2181D01*
X2187Y911D01*
X2192Y915D01*
X2194Y921D01*
Y927D01*
X2192Y933D01*
X2187Y938D01*
X2181Y940D01*
X2180D01*
X2179Y942D01*
X2178Y945D01*
X2186Y953D01*
X2191Y963D01*
X2195Y974D01*
Y986D01*
X2191Y997D01*
X2186Y1007D01*
X2177Y1016D01*
X2167Y1021D01*
X2156Y1025D01*
D02*
G37*
G36*
X1956D02*
X1944D01*
X1933Y1021D01*
X1923Y1016D01*
X1914Y1007D01*
X1909Y997D01*
X1905Y986D01*
Y974D01*
X1909Y963D01*
X1914Y953D01*
X1923Y944D01*
X1933Y939D01*
X1937Y937D01*
X1939Y932D01*
X1936Y930D01*
X1934Y924D01*
Y917D01*
X1936Y911D01*
X1941Y907D01*
X1947Y904D01*
X1953D01*
X1959Y907D01*
X1964Y911D01*
X1966Y917D01*
Y924D01*
X1964Y930D01*
X1961Y932D01*
X1963Y937D01*
X1967Y939D01*
X1977Y944D01*
X1986Y953D01*
X1991Y963D01*
X1995Y974D01*
Y986D01*
X1991Y997D01*
X1986Y1007D01*
X1977Y1016D01*
X1967Y1021D01*
X1956Y1025D01*
D02*
G37*
G36*
X429Y930D02*
X423D01*
X417Y928D01*
X412Y923D01*
X410Y917D01*
Y911D01*
X412Y905D01*
X417Y900D01*
X423Y898D01*
X429D01*
X435Y900D01*
X440Y905D01*
X442Y911D01*
Y917D01*
X440Y923D01*
X435Y928D01*
X429Y930D01*
D02*
G37*
G36*
X2053Y928D02*
X2047D01*
X2041Y925D01*
X2036Y921D01*
X2034Y915D01*
Y908D01*
X2036Y903D01*
X2041Y898D01*
X2047Y896D01*
X2053D01*
X2059Y898D01*
X2064Y903D01*
X2066Y908D01*
Y915D01*
X2064Y921D01*
X2059Y925D01*
X2053Y928D01*
D02*
G37*
G36*
X1753Y921D02*
X1747D01*
X1741Y918D01*
X1736Y914D01*
X1734Y908D01*
Y902D01*
X1736Y896D01*
X1741Y891D01*
X1747Y889D01*
X1753D01*
X1759Y891D01*
X1764Y896D01*
X1766Y902D01*
Y908D01*
X1764Y914D01*
X1759Y918D01*
X1753Y921D01*
D02*
G37*
G36*
X1653D02*
X1647D01*
X1641Y918D01*
X1636Y914D01*
X1634Y908D01*
Y902D01*
X1636Y896D01*
X1641Y891D01*
X1647Y889D01*
X1653D01*
X1659Y891D01*
X1664Y896D01*
X1666Y902D01*
Y908D01*
X1664Y914D01*
X1659Y918D01*
X1653Y921D01*
D02*
G37*
G36*
X73Y918D02*
X67D01*
X61Y916D01*
X57Y912D01*
X54Y906D01*
Y899D01*
X57Y893D01*
X61Y889D01*
X67Y886D01*
X73D01*
X79Y889D01*
X84Y893D01*
X86Y899D01*
Y906D01*
X84Y912D01*
X79Y916D01*
X73Y918D01*
D02*
G37*
G36*
X382Y913D02*
X376D01*
X370Y910D01*
X366Y906D01*
X363Y900D01*
Y893D01*
X366Y888D01*
X370Y883D01*
X376Y881D01*
X382D01*
X388Y883D01*
X393Y888D01*
X395Y893D01*
Y900D01*
X393Y906D01*
X388Y910D01*
X382Y913D01*
D02*
G37*
G36*
X1336Y910D02*
X1330D01*
X1324Y907D01*
X1319Y903D01*
X1317Y897D01*
Y891D01*
X1319Y885D01*
X1324Y880D01*
X1330Y878D01*
X1336D01*
X1342Y880D01*
X1347Y885D01*
X1349Y891D01*
Y897D01*
X1347Y903D01*
X1342Y907D01*
X1336Y910D01*
D02*
G37*
G36*
X318Y903D02*
X312D01*
X306Y900D01*
X302Y896D01*
X299Y890D01*
Y883D01*
X302Y878D01*
X306Y873D01*
X312Y871D01*
X318D01*
X324Y873D01*
X329Y878D01*
X331Y883D01*
Y890D01*
X329Y896D01*
X324Y900D01*
X318Y903D01*
D02*
G37*
G36*
X2244Y874D02*
X2238D01*
X2232Y872D01*
X2227Y867D01*
X2225Y862D01*
Y855D01*
X2227Y849D01*
X2232Y845D01*
X2238Y842D01*
X2244D01*
X2250Y845D01*
X2254Y849D01*
X2257Y855D01*
Y862D01*
X2254Y867D01*
X2250Y872D01*
X2244Y874D01*
D02*
G37*
G36*
X1439Y858D02*
X1432D01*
X1427Y855D01*
X1422Y851D01*
X1420Y845D01*
Y838D01*
X1422Y832D01*
X1427Y828D01*
X1432Y826D01*
X1439D01*
X1445Y828D01*
X1449Y832D01*
X1452Y838D01*
Y845D01*
X1449Y851D01*
X1445Y855D01*
X1439Y858D01*
D02*
G37*
G36*
X1349D02*
X1342D01*
X1337Y855D01*
X1332Y851D01*
X1330Y845D01*
Y838D01*
X1332Y832D01*
X1337Y828D01*
X1342Y826D01*
X1349D01*
X1355Y828D01*
X1359Y832D01*
X1362Y838D01*
Y845D01*
X1359Y851D01*
X1355Y855D01*
X1349Y858D01*
D02*
G37*
G36*
X2604Y851D02*
X2597D01*
X2592Y849D01*
X2587Y844D01*
X2585Y838D01*
Y832D01*
X2587Y826D01*
X2592Y821D01*
X2597Y819D01*
X2604D01*
X2610Y821D01*
X2614Y826D01*
X2617Y832D01*
Y838D01*
X2614Y844D01*
X2610Y849D01*
X2604Y851D01*
D02*
G37*
G36*
X2510Y851D02*
X2504D01*
X2498Y848D01*
X2493Y844D01*
X2491Y838D01*
Y831D01*
X2493Y826D01*
X2498Y821D01*
X2504Y819D01*
X2510D01*
X2516Y821D01*
X2521Y826D01*
X2523Y831D01*
Y838D01*
X2521Y844D01*
X2516Y848D01*
X2510Y851D01*
D02*
G37*
G36*
X1644Y849D02*
X1637D01*
X1632Y846D01*
X1627Y842D01*
X1625Y836D01*
Y829D01*
X1627Y823D01*
X1632Y819D01*
X1637Y817D01*
X1644D01*
X1650Y819D01*
X1654Y823D01*
X1657Y829D01*
Y836D01*
X1654Y842D01*
X1650Y846D01*
X1644Y849D01*
D02*
G37*
G36*
X1144D02*
X1137D01*
X1132Y846D01*
X1127Y842D01*
X1125Y836D01*
Y829D01*
X1127Y823D01*
X1132Y819D01*
X1137Y817D01*
X1144D01*
X1150Y819D01*
X1154Y823D01*
X1157Y829D01*
Y836D01*
X1154Y842D01*
X1150Y846D01*
X1144Y849D01*
D02*
G37*
G36*
X3083Y841D02*
X3077D01*
X3071Y839D01*
X3066Y835D01*
X3064Y829D01*
Y822D01*
X3066Y816D01*
X3071Y812D01*
X3077Y809D01*
X3083D01*
X3089Y812D01*
X3093Y816D01*
X3096Y822D01*
Y829D01*
X3093Y835D01*
X3089Y839D01*
X3083Y841D01*
D02*
G37*
G36*
X3157Y825D02*
X3151D01*
X3145Y823D01*
X3140Y818D01*
X3138Y812D01*
Y806D01*
X3140Y800D01*
X3145Y795D01*
X3151Y793D01*
X3157D01*
X3163Y795D01*
X3168Y800D01*
X3170Y806D01*
Y812D01*
X3168Y818D01*
X3163Y823D01*
X3157Y825D01*
D02*
G37*
G36*
X2931Y781D02*
X2924D01*
X2918Y779D01*
X2914Y775D01*
X2911Y769D01*
Y762D01*
X2914Y756D01*
X2918Y752D01*
X2924Y749D01*
X2931D01*
X2937Y752D01*
X2941Y756D01*
X2943Y762D01*
Y769D01*
X2941Y775D01*
X2937Y779D01*
X2931Y781D01*
D02*
G37*
G36*
X1960D02*
X1954D01*
X1948Y779D01*
X1943Y775D01*
X1941Y769D01*
Y762D01*
X1943Y756D01*
X1948Y752D01*
X1954Y749D01*
X1960D01*
X1966Y752D01*
X1970Y756D01*
X1973Y762D01*
Y769D01*
X1970Y775D01*
X1966Y779D01*
X1960Y781D01*
D02*
G37*
G36*
X1144Y773D02*
X1137D01*
X1132Y770D01*
X1127Y766D01*
X1125Y760D01*
Y753D01*
X1127Y747D01*
X1132Y743D01*
X1137Y741D01*
X1144D01*
X1150Y743D01*
X1154Y747D01*
X1157Y753D01*
Y760D01*
X1154Y766D01*
X1150Y770D01*
X1144Y773D01*
D02*
G37*
G36*
X1706Y773D02*
X1700D01*
X1694Y770D01*
X1690Y766D01*
X1687Y760D01*
Y753D01*
X1690Y747D01*
X1694Y743D01*
X1700Y741D01*
X1706D01*
X1712Y743D01*
X1717Y747D01*
X1719Y753D01*
Y760D01*
X1717Y766D01*
X1712Y770D01*
X1706Y773D01*
D02*
G37*
G36*
X678Y761D02*
X672D01*
X666Y759D01*
X661Y754D01*
X659Y748D01*
Y742D01*
X661Y736D01*
X666Y731D01*
X672Y729D01*
X678D01*
X684Y731D01*
X689Y736D01*
X691Y742D01*
Y748D01*
X689Y754D01*
X684Y759D01*
X678Y761D01*
D02*
G37*
G36*
X2952Y742D02*
X2946D01*
X2940Y740D01*
X2935Y735D01*
X2933Y730D01*
Y723D01*
X2935Y717D01*
X2940Y713D01*
X2946Y710D01*
X2952D01*
X2958Y713D01*
X2963Y717D01*
X2965Y723D01*
Y730D01*
X2963Y735D01*
X2958Y740D01*
X2952Y742D01*
D02*
G37*
G36*
X2199Y742D02*
X2192D01*
X2186Y739D01*
X2182Y735D01*
X2179Y729D01*
Y723D01*
X2182Y717D01*
X2186Y712D01*
X2192Y710D01*
X2199D01*
X2205Y712D01*
X2209Y717D01*
X2211Y723D01*
Y729D01*
X2209Y735D01*
X2205Y739D01*
X2199Y742D01*
D02*
G37*
G36*
X2744Y741D02*
X2737D01*
X2731Y739D01*
X2727Y735D01*
X2724Y729D01*
Y722D01*
X2727Y716D01*
X2731Y712D01*
X2737Y709D01*
X2744D01*
X2750Y712D01*
X2754Y716D01*
X2756Y722D01*
Y729D01*
X2754Y735D01*
X2750Y739D01*
X2744Y741D01*
D02*
G37*
G36*
X1557Y733D02*
X1550D01*
X1545Y730D01*
X1540Y726D01*
X1538Y720D01*
Y713D01*
X1540Y707D01*
X1545Y703D01*
X1550Y701D01*
X1557D01*
X1563Y703D01*
X1567Y707D01*
X1570Y713D01*
Y720D01*
X1567Y726D01*
X1563Y730D01*
X1557Y733D01*
D02*
G37*
G36*
X313Y727D02*
X307D01*
X301Y725D01*
X296Y720D01*
X294Y714D01*
Y708D01*
X296Y702D01*
X301Y697D01*
X307Y695D01*
X313D01*
X319Y697D01*
X323Y702D01*
X326Y708D01*
Y714D01*
X323Y720D01*
X319Y725D01*
X313Y727D01*
D02*
G37*
G36*
X113D02*
X107D01*
X101Y725D01*
X96Y720D01*
X94Y714D01*
Y708D01*
X96Y702D01*
X101Y697D01*
X107Y695D01*
X113D01*
X119Y697D01*
X123Y702D01*
X126Y708D01*
Y714D01*
X123Y720D01*
X119Y725D01*
X113Y727D01*
D02*
G37*
G36*
X3157Y726D02*
X3151D01*
X3145Y724D01*
X3140Y719D01*
X3138Y714D01*
Y707D01*
X3140Y701D01*
X3145Y697D01*
X3151Y694D01*
X3157D01*
X3163Y697D01*
X3168Y701D01*
X3170Y707D01*
Y714D01*
X3168Y719D01*
X3163Y724D01*
X3157Y726D01*
D02*
G37*
G36*
X447Y710D02*
X441D01*
X435Y708D01*
X431Y703D01*
X428Y697D01*
Y691D01*
X431Y685D01*
X435Y680D01*
X441Y678D01*
X447D01*
X453Y680D01*
X458Y685D01*
X460Y691D01*
Y697D01*
X458Y703D01*
X453Y708D01*
X447Y710D01*
D02*
G37*
G36*
X1960Y680D02*
X1954D01*
X1948Y678D01*
X1943Y674D01*
X1941Y668D01*
Y661D01*
X1943Y655D01*
X1948Y651D01*
X1954Y648D01*
X1960D01*
X1966Y651D01*
X1970Y655D01*
X1973Y661D01*
Y668D01*
X1970Y674D01*
X1966Y678D01*
X1960Y680D01*
D02*
G37*
G36*
X1174Y677D02*
X1168D01*
X1162Y674D01*
X1157Y670D01*
X1155Y664D01*
Y657D01*
X1157Y651D01*
X1162Y647D01*
X1168Y645D01*
X1174D01*
X1180Y647D01*
X1184Y651D01*
X1187Y657D01*
Y664D01*
X1184Y670D01*
X1180Y674D01*
X1174Y677D01*
D02*
G37*
G36*
X2718Y672D02*
X2712D01*
X2706Y669D01*
X2701Y665D01*
X2699Y659D01*
Y653D01*
X2701Y647D01*
X2706Y642D01*
X2712Y640D01*
X2718D01*
X2724Y642D01*
X2729Y647D01*
X2731Y653D01*
Y659D01*
X2729Y665D01*
X2724Y669D01*
X2718Y672D01*
D02*
G37*
G36*
X2395Y672D02*
X2389D01*
X2383Y669D01*
X2378Y665D01*
X2376Y659D01*
Y653D01*
X2378Y647D01*
X2383Y642D01*
X2389Y640D01*
X2395D01*
X2401Y642D01*
X2405Y647D01*
X2408Y653D01*
Y659D01*
X2405Y665D01*
X2401Y669D01*
X2395Y672D01*
D02*
G37*
G36*
X2041Y667D02*
X2035D01*
X2029Y664D01*
X2024Y660D01*
X2022Y654D01*
Y648D01*
X2024Y642D01*
X2029Y637D01*
X2035Y635D01*
X2041D01*
X2047Y637D01*
X2051Y642D01*
X2054Y648D01*
Y654D01*
X2051Y660D01*
X2047Y664D01*
X2041Y667D01*
D02*
G37*
G36*
X1089Y649D02*
X1082D01*
X1077Y646D01*
X1072Y642D01*
X1070Y636D01*
Y629D01*
X1072Y623D01*
X1077Y619D01*
X1082Y617D01*
X1089D01*
X1095Y619D01*
X1099Y623D01*
X1102Y629D01*
Y636D01*
X1099Y642D01*
X1095Y646D01*
X1089Y649D01*
D02*
G37*
G36*
X1649Y648D02*
X1642D01*
X1637Y645D01*
X1632Y641D01*
X1630Y635D01*
Y628D01*
X1632Y622D01*
X1637Y618D01*
X1642Y616D01*
X1649D01*
X1655Y618D01*
X1659Y622D01*
X1662Y628D01*
Y635D01*
X1659Y641D01*
X1655Y645D01*
X1649Y648D01*
D02*
G37*
G36*
X183Y643D02*
X177D01*
X171Y640D01*
X166Y636D01*
X164Y630D01*
Y624D01*
X166Y618D01*
X171Y613D01*
X177Y611D01*
X183D01*
X189Y613D01*
X194Y618D01*
X196Y624D01*
Y630D01*
X194Y636D01*
X189Y640D01*
X183Y643D01*
D02*
G37*
G36*
X2874Y634D02*
X2867D01*
X2861Y631D01*
X2857Y627D01*
X2854Y621D01*
Y615D01*
X2857Y609D01*
X2861Y604D01*
X2867Y602D01*
X2874D01*
X2880Y604D01*
X2884Y609D01*
X2886Y615D01*
Y621D01*
X2884Y627D01*
X2880Y631D01*
X2874Y634D01*
D02*
G37*
G36*
X2703Y611D02*
X2697D01*
X2691Y609D01*
X2686Y604D01*
X2684Y599D01*
Y592D01*
X2686Y586D01*
X2691Y582D01*
X2697Y579D01*
X2703D01*
X2709Y582D01*
X2713Y586D01*
X2716Y592D01*
Y599D01*
X2713Y604D01*
X2709Y609D01*
X2703Y611D01*
D02*
G37*
G36*
X2410Y605D02*
X2404D01*
X2398Y603D01*
X2394Y598D01*
X2391Y592D01*
Y586D01*
X2394Y580D01*
X2398Y575D01*
X2404Y573D01*
X2410D01*
X2416Y575D01*
X2421Y580D01*
X2423Y586D01*
Y592D01*
X2421Y598D01*
X2416Y603D01*
X2410Y605D01*
D02*
G37*
G36*
X896Y603D02*
X889D01*
X884Y601D01*
X879Y596D01*
X877Y590D01*
Y584D01*
X879Y578D01*
X884Y573D01*
X889Y571D01*
X896D01*
X902Y573D01*
X906Y578D01*
X909Y584D01*
Y590D01*
X906Y596D01*
X902Y601D01*
X896Y603D01*
D02*
G37*
G36*
X1009Y602D02*
X1002D01*
X996Y600D01*
X992Y595D01*
X989Y589D01*
Y583D01*
X992Y577D01*
X996Y572D01*
X1002Y570D01*
X1009D01*
X1015Y572D01*
X1019Y577D01*
X1021Y583D01*
Y589D01*
X1019Y595D01*
X1015Y600D01*
X1009Y602D01*
D02*
G37*
G36*
X1649Y574D02*
X1642D01*
X1637Y571D01*
X1632Y567D01*
X1630Y561D01*
Y554D01*
X1632Y549D01*
X1637Y544D01*
X1642Y542D01*
X1649D01*
X1655Y544D01*
X1659Y549D01*
X1662Y554D01*
Y561D01*
X1659Y567D01*
X1655Y571D01*
X1649Y574D01*
D02*
G37*
G36*
X1146Y572D02*
X1139D01*
X1133Y570D01*
X1129Y565D01*
X1127Y559D01*
Y553D01*
X1129Y547D01*
X1133Y542D01*
X1139Y540D01*
X1146D01*
X1152Y542D01*
X1156Y547D01*
X1158Y553D01*
Y559D01*
X1156Y565D01*
X1152Y570D01*
X1146Y572D01*
D02*
G37*
G36*
X876Y560D02*
X869D01*
X864Y558D01*
X859Y553D01*
X857Y547D01*
Y541D01*
X859Y535D01*
X864Y530D01*
X869Y528D01*
X876D01*
X882Y530D01*
X886Y535D01*
X889Y541D01*
Y547D01*
X886Y553D01*
X882Y558D01*
X876Y560D01*
D02*
G37*
G36*
X1439Y558D02*
X1432D01*
X1427Y555D01*
X1422Y551D01*
X1420Y545D01*
Y538D01*
X1422Y532D01*
X1427Y528D01*
X1432Y526D01*
X1439D01*
X1445Y528D01*
X1449Y532D01*
X1452Y538D01*
Y545D01*
X1449Y551D01*
X1445Y555D01*
X1439Y558D01*
D02*
G37*
G36*
X1349Y557D02*
X1342D01*
X1337Y555D01*
X1332Y550D01*
X1330Y544D01*
Y538D01*
X1332Y532D01*
X1337Y527D01*
X1342Y525D01*
X1349D01*
X1355Y527D01*
X1359Y532D01*
X1362Y538D01*
Y544D01*
X1359Y550D01*
X1355Y555D01*
X1349Y557D01*
D02*
G37*
G36*
X248Y553D02*
X242D01*
X236Y551D01*
X231Y546D01*
X229Y540D01*
Y534D01*
X231Y528D01*
X236Y523D01*
X242Y521D01*
X248D01*
X254Y523D01*
X259Y528D01*
X261Y534D01*
Y540D01*
X259Y546D01*
X254Y551D01*
X248Y553D01*
D02*
G37*
G36*
X2605Y516D02*
X2599D01*
X2593Y514D01*
X2588Y510D01*
X2586Y504D01*
Y497D01*
X2588Y491D01*
X2593Y487D01*
X2599Y484D01*
X2605D01*
X2611Y487D01*
X2615Y491D01*
X2618Y497D01*
Y504D01*
X2615Y510D01*
X2611Y514D01*
X2605Y516D01*
D02*
G37*
G36*
X2509D02*
X2502D01*
X2496Y514D01*
X2492Y510D01*
X2489Y504D01*
Y497D01*
X2492Y491D01*
X2496Y487D01*
X2502Y484D01*
X2509D01*
X2515Y487D01*
X2519Y491D01*
X2521Y497D01*
Y504D01*
X2519Y510D01*
X2515Y514D01*
X2509Y516D01*
D02*
G37*
G36*
X2805Y502D02*
X2798D01*
X2793Y500D01*
X2788Y495D01*
X2786Y489D01*
Y483D01*
X2788Y477D01*
X2793Y472D01*
X2798Y470D01*
X2805D01*
X2811Y472D01*
X2815Y477D01*
X2818Y483D01*
Y489D01*
X2815Y495D01*
X2811Y500D01*
X2805Y502D01*
D02*
G37*
G36*
X2307D02*
X2300D01*
X2294Y500D01*
X2290Y495D01*
X2287Y489D01*
Y483D01*
X2290Y477D01*
X2294Y472D01*
X2300Y470D01*
X2307D01*
X2313Y472D01*
X2317Y477D01*
X2319Y483D01*
Y489D01*
X2317Y495D01*
X2313Y500D01*
X2307Y502D01*
D02*
G37*
G36*
X1620Y464D02*
X1614D01*
X1608Y462D01*
X1603Y458D01*
X1601Y452D01*
Y445D01*
X1603Y439D01*
X1608Y435D01*
X1614Y432D01*
X1620D01*
X1626Y435D01*
X1631Y439D01*
X1633Y445D01*
Y452D01*
X1631Y458D01*
X1626Y462D01*
X1620Y464D01*
D02*
G37*
G36*
X1248Y463D02*
X1241D01*
X1235Y460D01*
X1231Y456D01*
X1228Y450D01*
Y443D01*
X1231Y438D01*
X1235Y433D01*
X1241Y431D01*
X1248D01*
X1253Y433D01*
X1258Y438D01*
X1260Y443D01*
Y450D01*
X1258Y456D01*
X1253Y460D01*
X1248Y463D01*
D02*
G37*
G36*
X1068Y440D02*
X1061D01*
X1055Y438D01*
X1051Y433D01*
X1049Y427D01*
Y421D01*
X1051Y415D01*
X1055Y411D01*
X1061Y408D01*
X1068D01*
X1074Y411D01*
X1078Y415D01*
X1081Y421D01*
Y427D01*
X1078Y433D01*
X1074Y438D01*
X1068Y440D01*
D02*
G37*
G36*
X2862Y425D02*
X2855D01*
X2849Y423D01*
X2845Y419D01*
X2842Y413D01*
Y406D01*
X2845Y400D01*
X2849Y396D01*
X2855Y393D01*
X2862D01*
X2868Y396D01*
X2872Y400D01*
X2874Y406D01*
Y413D01*
X2872Y419D01*
X2868Y423D01*
X2862Y425D01*
D02*
G37*
G36*
X2307D02*
X2300D01*
X2294Y423D01*
X2290Y419D01*
X2287Y413D01*
Y406D01*
X2290Y400D01*
X2294Y396D01*
X2300Y393D01*
X2307D01*
X2313Y396D01*
X2317Y400D01*
X2319Y406D01*
Y413D01*
X2317Y419D01*
X2313Y423D01*
X2307Y425D01*
D02*
G37*
G36*
X1554Y403D02*
X1548D01*
X1542Y400D01*
X1538Y396D01*
X1535Y390D01*
Y383D01*
X1538Y377D01*
X1542Y373D01*
X1548Y371D01*
X1554D01*
X1560Y373D01*
X1565Y377D01*
X1567Y383D01*
Y390D01*
X1565Y396D01*
X1560Y400D01*
X1554Y403D01*
D02*
G37*
G36*
X1231Y403D02*
X1225D01*
X1219Y400D01*
X1214Y396D01*
X1212Y390D01*
Y383D01*
X1214Y377D01*
X1219Y373D01*
X1225Y371D01*
X1231D01*
X1237Y373D01*
X1241Y377D01*
X1244Y383D01*
Y390D01*
X1241Y396D01*
X1237Y400D01*
X1231Y403D01*
D02*
G37*
G36*
X2776Y397D02*
X2770D01*
X2764Y395D01*
X2760Y391D01*
X2757Y385D01*
Y378D01*
X2760Y372D01*
X2764Y368D01*
X2770Y365D01*
X2776D01*
X2782Y368D01*
X2787Y372D01*
X2789Y378D01*
Y385D01*
X2787Y391D01*
X2782Y395D01*
X2776Y397D01*
D02*
G37*
G36*
X1990Y394D02*
X1984D01*
X1978Y391D01*
X1974Y387D01*
X1971Y381D01*
Y374D01*
X1974Y368D01*
X1978Y364D01*
X1984Y362D01*
X1990D01*
X1996Y364D01*
X2001Y368D01*
X2003Y374D01*
Y381D01*
X2001Y387D01*
X1996Y391D01*
X1990Y394D01*
D02*
G37*
G36*
X793Y348D02*
X787D01*
X781Y345D01*
X776Y341D01*
X774Y335D01*
Y328D01*
X776Y323D01*
X781Y318D01*
X787Y316D01*
X793D01*
X799Y318D01*
X804Y323D01*
X806Y328D01*
Y335D01*
X804Y341D01*
X799Y345D01*
X793Y348D01*
D02*
G37*
G36*
X2394Y341D02*
X2387D01*
X2381Y339D01*
X2377Y335D01*
X2374Y329D01*
Y322D01*
X2377Y316D01*
X2381Y312D01*
X2387Y309D01*
X2394D01*
X2400Y312D01*
X2404Y316D01*
X2406Y322D01*
Y329D01*
X2404Y335D01*
X2400Y339D01*
X2394Y341D01*
D02*
G37*
G36*
X1207Y333D02*
X1200D01*
X1195Y330D01*
X1190Y326D01*
X1188Y320D01*
Y313D01*
X1190Y307D01*
X1195Y303D01*
X1200Y301D01*
X1207D01*
X1213Y303D01*
X1217Y307D01*
X1220Y313D01*
Y320D01*
X1217Y326D01*
X1213Y330D01*
X1207Y333D01*
D02*
G37*
G36*
X1004D02*
X997D01*
X991Y330D01*
X987Y326D01*
X984Y320D01*
Y313D01*
X987Y307D01*
X991Y303D01*
X997Y301D01*
X1004D01*
X1010Y303D01*
X1014Y307D01*
X1016Y313D01*
Y320D01*
X1014Y326D01*
X1010Y330D01*
X1004Y333D01*
D02*
G37*
G36*
X2244Y301D02*
X2238D01*
X2232Y299D01*
X2227Y295D01*
X2225Y289D01*
Y282D01*
X2227Y276D01*
X2232Y272D01*
X2238Y269D01*
X2244D01*
X2250Y272D01*
X2254Y276D01*
X2257Y282D01*
Y289D01*
X2254Y295D01*
X2250Y299D01*
X2244Y301D01*
D02*
G37*
G36*
X2807Y301D02*
X2800D01*
X2794Y299D01*
X2790Y295D01*
X2787Y289D01*
Y282D01*
X2790Y276D01*
X2794Y272D01*
X2800Y269D01*
X2807D01*
X2813Y272D01*
X2817Y276D01*
X2819Y282D01*
Y289D01*
X2817Y295D01*
X2813Y299D01*
X2807Y301D01*
D02*
G37*
G36*
X1990Y293D02*
X1984D01*
X1978Y290D01*
X1974Y286D01*
X1971Y280D01*
Y273D01*
X1974Y267D01*
X1978Y263D01*
X1984Y261D01*
X1990D01*
X1996Y263D01*
X2001Y267D01*
X2003Y273D01*
Y280D01*
X2001Y286D01*
X1996Y290D01*
X1990Y293D01*
D02*
G37*
G36*
X821Y234D02*
X815D01*
X809Y232D01*
X804Y227D01*
X802Y222D01*
Y215D01*
X804Y209D01*
X809Y205D01*
X815Y202D01*
X821D01*
X827Y205D01*
X832Y209D01*
X834Y215D01*
Y222D01*
X832Y227D01*
X827Y232D01*
X821Y234D01*
D02*
G37*
G36*
X873Y233D02*
X866D01*
X860Y230D01*
X856Y226D01*
X853Y220D01*
Y214D01*
X856Y208D01*
X860Y203D01*
X866Y201D01*
X873D01*
X878Y203D01*
X883Y208D01*
X885Y214D01*
Y220D01*
X883Y226D01*
X878Y230D01*
X873Y233D01*
D02*
G37*
G36*
X582Y233D02*
X576D01*
X570Y230D01*
X565Y226D01*
X563Y220D01*
Y214D01*
X565Y208D01*
X570Y203D01*
X576Y201D01*
X582D01*
X588Y203D01*
X593Y208D01*
X595Y214D01*
Y220D01*
X593Y226D01*
X588Y230D01*
X582Y233D01*
D02*
G37*
G36*
X738Y231D02*
X732D01*
X726Y229D01*
X721Y224D01*
X719Y218D01*
Y212D01*
X721Y206D01*
X726Y201D01*
X732Y199D01*
X738D01*
X744Y201D01*
X749Y206D01*
X751Y212D01*
Y218D01*
X749Y224D01*
X744Y229D01*
X738Y231D01*
D02*
G37*
G36*
X2807Y225D02*
X2800D01*
X2794Y223D01*
X2790Y219D01*
X2787Y213D01*
Y206D01*
X2790Y200D01*
X2794Y196D01*
X2800Y193D01*
X2807D01*
X2813Y196D01*
X2817Y200D01*
X2819Y206D01*
Y213D01*
X2817Y219D01*
X2813Y223D01*
X2807Y225D01*
D02*
G37*
G36*
X2307D02*
X2300D01*
X2294Y223D01*
X2290Y219D01*
X2287Y213D01*
Y206D01*
X2290Y200D01*
X2294Y196D01*
X2300Y193D01*
X2307D01*
X2313Y196D01*
X2317Y200D01*
X2319Y206D01*
Y213D01*
X2317Y219D01*
X2313Y223D01*
X2307Y225D01*
D02*
G37*
G36*
X1439Y224D02*
X1433D01*
X1427Y221D01*
X1422Y217D01*
X1420Y211D01*
Y205D01*
X1422Y199D01*
X1427Y194D01*
X1433Y192D01*
X1439D01*
X1445Y194D01*
X1449Y199D01*
X1452Y205D01*
Y211D01*
X1449Y217D01*
X1445Y221D01*
X1439Y224D01*
D02*
G37*
G36*
X1345Y223D02*
X1339D01*
X1333Y221D01*
X1329Y216D01*
X1326Y211D01*
Y204D01*
X1329Y198D01*
X1333Y194D01*
X1339Y191D01*
X1345D01*
X1351Y194D01*
X1356Y198D01*
X1358Y204D01*
Y211D01*
X1356Y216D01*
X1351Y221D01*
X1345Y223D01*
D02*
G37*
G36*
X2605Y216D02*
X2599D01*
X2593Y214D01*
X2588Y210D01*
X2586Y204D01*
Y197D01*
X2588Y191D01*
X2593Y187D01*
X2599Y184D01*
X2605D01*
X2611Y187D01*
X2615Y191D01*
X2618Y197D01*
Y204D01*
X2615Y210D01*
X2611Y214D01*
X2605Y216D01*
D02*
G37*
G36*
X2509D02*
X2502D01*
X2496Y214D01*
X2492Y210D01*
X2489Y204D01*
Y197D01*
X2492Y191D01*
X2496Y187D01*
X2502Y184D01*
X2509D01*
X2515Y187D01*
X2519Y191D01*
X2521Y197D01*
Y204D01*
X2519Y210D01*
X2515Y214D01*
X2509Y216D01*
D02*
G37*
G36*
X1706Y200D02*
X1700D01*
X1694Y197D01*
X1690Y193D01*
X1687Y187D01*
Y180D01*
X1690Y175D01*
X1694Y170D01*
X1700Y168D01*
X1706D01*
X1712Y170D01*
X1717Y175D01*
X1719Y180D01*
Y187D01*
X1717Y193D01*
X1712Y197D01*
X1706Y200D01*
D02*
G37*
G36*
X2703Y176D02*
X2697D01*
X2691Y173D01*
X2686Y169D01*
X2684Y163D01*
Y157D01*
X2686Y151D01*
X2691Y146D01*
X2697Y144D01*
X2703D01*
X2709Y146D01*
X2713Y151D01*
X2716Y157D01*
Y163D01*
X2713Y169D01*
X2709Y173D01*
X2703Y176D01*
D02*
G37*
G36*
X2410D02*
X2404D01*
X2398Y173D01*
X2394Y169D01*
X2391Y163D01*
Y157D01*
X2394Y151D01*
X2398Y146D01*
X2404Y144D01*
X2410D01*
X2416Y146D01*
X2421Y151D01*
X2423Y157D01*
Y163D01*
X2421Y169D01*
X2416Y173D01*
X2410Y176D01*
D02*
G37*
G36*
X3056Y125D02*
X3044D01*
X3033Y121D01*
X3023Y116D01*
X3014Y107D01*
X3009Y97D01*
X3005Y86D01*
Y74D01*
X3009Y63D01*
X3014Y53D01*
X3023Y44D01*
X3033Y39D01*
X3044Y35D01*
X3056D01*
X3067Y39D01*
X3077Y44D01*
X3086Y53D01*
X3091Y63D01*
X3095Y74D01*
Y86D01*
X3091Y97D01*
X3086Y107D01*
X3077Y116D01*
X3067Y121D01*
X3056Y125D01*
D02*
G37*
G36*
X2956D02*
X2944D01*
X2933Y121D01*
X2923Y116D01*
X2914Y107D01*
X2909Y97D01*
X2905Y86D01*
Y74D01*
X2909Y63D01*
X2914Y53D01*
X2923Y44D01*
X2933Y39D01*
X2944Y35D01*
X2956D01*
X2967Y39D01*
X2977Y44D01*
X2986Y53D01*
X2991Y63D01*
X2995Y74D01*
Y86D01*
X2991Y97D01*
X2986Y107D01*
X2977Y116D01*
X2967Y121D01*
X2956Y125D01*
D02*
G37*
G36*
X2856D02*
X2844D01*
X2833Y121D01*
X2823Y116D01*
X2814Y107D01*
X2809Y97D01*
X2805Y86D01*
Y74D01*
X2809Y63D01*
X2814Y53D01*
X2823Y44D01*
X2833Y39D01*
X2844Y35D01*
X2856D01*
X2867Y39D01*
X2877Y44D01*
X2886Y53D01*
X2891Y63D01*
X2895Y74D01*
Y86D01*
X2891Y97D01*
X2886Y107D01*
X2877Y116D01*
X2867Y121D01*
X2856Y125D01*
D02*
G37*
G36*
X2756D02*
X2744D01*
X2733Y121D01*
X2723Y116D01*
X2714Y107D01*
X2709Y97D01*
X2705Y86D01*
Y74D01*
X2709Y63D01*
X2714Y53D01*
X2723Y44D01*
X2733Y39D01*
X2744Y35D01*
X2756D01*
X2767Y39D01*
X2777Y44D01*
X2786Y53D01*
X2791Y63D01*
X2795Y74D01*
Y86D01*
X2791Y97D01*
X2786Y107D01*
X2777Y116D01*
X2767Y121D01*
X2756Y125D01*
D02*
G37*
G36*
X2656D02*
X2644D01*
X2633Y121D01*
X2623Y116D01*
X2614Y107D01*
X2609Y97D01*
X2605Y86D01*
Y74D01*
X2609Y63D01*
X2614Y53D01*
X2623Y44D01*
X2633Y39D01*
X2644Y35D01*
X2656D01*
X2667Y39D01*
X2677Y44D01*
X2686Y53D01*
X2691Y63D01*
X2695Y74D01*
Y86D01*
X2691Y97D01*
X2686Y107D01*
X2677Y116D01*
X2667Y121D01*
X2656Y125D01*
D02*
G37*
G36*
X2556D02*
X2544D01*
X2533Y121D01*
X2523Y116D01*
X2514Y107D01*
X2509Y97D01*
X2505Y86D01*
Y74D01*
X2509Y63D01*
X2514Y53D01*
X2523Y44D01*
X2533Y39D01*
X2544Y35D01*
X2556D01*
X2567Y39D01*
X2577Y44D01*
X2586Y53D01*
X2591Y63D01*
X2595Y74D01*
Y86D01*
X2591Y97D01*
X2586Y107D01*
X2577Y116D01*
X2567Y121D01*
X2556Y125D01*
D02*
G37*
G36*
X2456D02*
X2444D01*
X2433Y121D01*
X2423Y116D01*
X2414Y107D01*
X2409Y97D01*
X2405Y86D01*
Y74D01*
X2409Y63D01*
X2414Y53D01*
X2423Y44D01*
X2433Y39D01*
X2444Y35D01*
X2456D01*
X2467Y39D01*
X2477Y44D01*
X2486Y53D01*
X2491Y63D01*
X2495Y74D01*
Y86D01*
X2491Y97D01*
X2486Y107D01*
X2477Y116D01*
X2467Y121D01*
X2456Y125D01*
D02*
G37*
G36*
X2356D02*
X2344D01*
X2333Y121D01*
X2323Y116D01*
X2314Y107D01*
X2309Y97D01*
X2305Y86D01*
Y74D01*
X2309Y63D01*
X2314Y53D01*
X2323Y44D01*
X2333Y39D01*
X2344Y35D01*
X2356D01*
X2367Y39D01*
X2377Y44D01*
X2386Y53D01*
X2391Y63D01*
X2395Y74D01*
Y86D01*
X2391Y97D01*
X2386Y107D01*
X2377Y116D01*
X2367Y121D01*
X2356Y125D01*
D02*
G37*
G36*
X2256D02*
X2244D01*
X2233Y121D01*
X2223Y116D01*
X2214Y107D01*
X2209Y97D01*
X2205Y86D01*
Y74D01*
X2209Y63D01*
X2214Y53D01*
X2223Y44D01*
X2233Y39D01*
X2244Y35D01*
X2256D01*
X2267Y39D01*
X2277Y44D01*
X2286Y53D01*
X2291Y63D01*
X2295Y74D01*
Y86D01*
X2291Y97D01*
X2286Y107D01*
X2277Y116D01*
X2267Y121D01*
X2256Y125D01*
D02*
G37*
G36*
X2156D02*
X2144D01*
X2133Y121D01*
X2123Y116D01*
X2114Y107D01*
X2109Y97D01*
X2105Y86D01*
Y74D01*
X2109Y63D01*
X2114Y53D01*
X2123Y44D01*
X2133Y39D01*
X2144Y35D01*
X2156D01*
X2167Y39D01*
X2177Y44D01*
X2186Y53D01*
X2191Y63D01*
X2195Y74D01*
Y86D01*
X2191Y97D01*
X2186Y107D01*
X2177Y116D01*
X2167Y121D01*
X2156Y125D01*
D02*
G37*
G36*
X2056D02*
X2044D01*
X2033Y121D01*
X2023Y116D01*
X2014Y107D01*
X2009Y97D01*
X2005Y86D01*
Y74D01*
X2009Y63D01*
X2014Y53D01*
X2023Y44D01*
X2033Y39D01*
X2044Y35D01*
X2056D01*
X2067Y39D01*
X2077Y44D01*
X2086Y53D01*
X2091Y63D01*
X2095Y74D01*
Y86D01*
X2091Y97D01*
X2086Y107D01*
X2077Y116D01*
X2067Y121D01*
X2056Y125D01*
D02*
G37*
G36*
X1956D02*
X1944D01*
X1933Y121D01*
X1923Y116D01*
X1914Y107D01*
X1909Y97D01*
X1905Y86D01*
Y74D01*
X1909Y63D01*
X1914Y53D01*
X1923Y44D01*
X1933Y39D01*
X1944Y35D01*
X1956D01*
X1967Y39D01*
X1977Y44D01*
X1986Y53D01*
X1991Y63D01*
X1995Y74D01*
Y86D01*
X1991Y97D01*
X1986Y107D01*
X1977Y116D01*
X1967Y121D01*
X1956Y125D01*
D02*
G37*
G36*
X1856D02*
X1844D01*
X1833Y121D01*
X1823Y116D01*
X1814Y107D01*
X1809Y97D01*
X1805Y86D01*
Y74D01*
X1809Y63D01*
X1814Y53D01*
X1823Y44D01*
X1833Y39D01*
X1844Y35D01*
X1856D01*
X1867Y39D01*
X1877Y44D01*
X1886Y53D01*
X1891Y63D01*
X1895Y74D01*
Y86D01*
X1891Y97D01*
X1886Y107D01*
X1877Y116D01*
X1867Y121D01*
X1856Y125D01*
D02*
G37*
G36*
X1756D02*
X1744D01*
X1733Y121D01*
X1723Y116D01*
X1714Y107D01*
X1709Y97D01*
X1705Y86D01*
Y74D01*
X1709Y63D01*
X1714Y53D01*
X1723Y44D01*
X1733Y39D01*
X1744Y35D01*
X1756D01*
X1767Y39D01*
X1777Y44D01*
X1786Y53D01*
X1791Y63D01*
X1795Y74D01*
Y86D01*
X1791Y97D01*
X1786Y107D01*
X1777Y116D01*
X1767Y121D01*
X1756Y125D01*
D02*
G37*
G36*
X1656D02*
X1644D01*
X1633Y121D01*
X1623Y116D01*
X1614Y107D01*
X1609Y97D01*
X1605Y86D01*
Y74D01*
X1609Y63D01*
X1614Y53D01*
X1623Y44D01*
X1633Y39D01*
X1644Y35D01*
X1656D01*
X1667Y39D01*
X1677Y44D01*
X1686Y53D01*
X1691Y63D01*
X1695Y74D01*
Y86D01*
X1691Y97D01*
X1686Y107D01*
X1677Y116D01*
X1667Y121D01*
X1656Y125D01*
D02*
G37*
G36*
X1556D02*
X1544D01*
X1533Y121D01*
X1523Y116D01*
X1514Y107D01*
X1509Y97D01*
X1505Y86D01*
Y74D01*
X1509Y63D01*
X1514Y53D01*
X1523Y44D01*
X1533Y39D01*
X1544Y35D01*
X1556D01*
X1567Y39D01*
X1577Y44D01*
X1586Y53D01*
X1591Y63D01*
X1595Y74D01*
Y86D01*
X1591Y97D01*
X1586Y107D01*
X1577Y116D01*
X1567Y121D01*
X1556Y125D01*
D02*
G37*
G36*
X1456D02*
X1444D01*
X1433Y121D01*
X1423Y116D01*
X1414Y107D01*
X1409Y97D01*
X1405Y86D01*
Y74D01*
X1409Y63D01*
X1414Y53D01*
X1423Y44D01*
X1433Y39D01*
X1444Y35D01*
X1456D01*
X1467Y39D01*
X1477Y44D01*
X1486Y53D01*
X1491Y63D01*
X1495Y74D01*
Y86D01*
X1491Y97D01*
X1486Y107D01*
X1477Y116D01*
X1467Y121D01*
X1456Y125D01*
D02*
G37*
G36*
X1356D02*
X1344D01*
X1333Y121D01*
X1323Y116D01*
X1314Y107D01*
X1309Y97D01*
X1305Y86D01*
Y74D01*
X1309Y63D01*
X1314Y53D01*
X1323Y44D01*
X1333Y39D01*
X1344Y35D01*
X1356D01*
X1367Y39D01*
X1377Y44D01*
X1386Y53D01*
X1391Y63D01*
X1395Y74D01*
Y86D01*
X1391Y97D01*
X1386Y107D01*
X1377Y116D01*
X1367Y121D01*
X1356Y125D01*
D02*
G37*
G36*
X1256D02*
X1244D01*
X1233Y121D01*
X1223Y116D01*
X1214Y107D01*
X1209Y97D01*
X1205Y86D01*
Y74D01*
X1209Y63D01*
X1214Y53D01*
X1223Y44D01*
X1233Y39D01*
X1244Y35D01*
X1256D01*
X1267Y39D01*
X1277Y44D01*
X1286Y53D01*
X1291Y63D01*
X1295Y74D01*
Y86D01*
X1291Y97D01*
X1286Y107D01*
X1277Y116D01*
X1267Y121D01*
X1256Y125D01*
D02*
G37*
G36*
X1156D02*
X1144D01*
X1133Y121D01*
X1123Y116D01*
X1114Y107D01*
X1109Y97D01*
X1105Y86D01*
Y74D01*
X1109Y63D01*
X1114Y53D01*
X1123Y44D01*
X1133Y39D01*
X1144Y35D01*
X1156D01*
X1167Y39D01*
X1177Y44D01*
X1186Y53D01*
X1191Y63D01*
X1195Y74D01*
Y86D01*
X1191Y97D01*
X1186Y107D01*
X1177Y116D01*
X1167Y121D01*
X1156Y125D01*
D02*
G37*
G36*
X1056D02*
X1044D01*
X1033Y121D01*
X1023Y116D01*
X1014Y107D01*
X1009Y97D01*
X1005Y86D01*
Y74D01*
X1009Y63D01*
X1014Y53D01*
X1023Y44D01*
X1033Y39D01*
X1044Y35D01*
X1056D01*
X1067Y39D01*
X1077Y44D01*
X1086Y53D01*
X1091Y63D01*
X1095Y74D01*
Y86D01*
X1091Y97D01*
X1086Y107D01*
X1077Y116D01*
X1067Y121D01*
X1056Y125D01*
D02*
G37*
G36*
X956D02*
X944D01*
X933Y121D01*
X923Y116D01*
X914Y107D01*
X909Y97D01*
X905Y86D01*
Y74D01*
X909Y63D01*
X914Y53D01*
X923Y44D01*
X933Y39D01*
X944Y35D01*
X956D01*
X967Y39D01*
X977Y44D01*
X986Y53D01*
X991Y63D01*
X995Y74D01*
Y86D01*
X991Y97D01*
X986Y107D01*
X977Y116D01*
X967Y121D01*
X956Y125D01*
D02*
G37*
G36*
X856D02*
X844D01*
X833Y121D01*
X823Y116D01*
X814Y107D01*
X809Y97D01*
X805Y86D01*
Y74D01*
X809Y63D01*
X814Y53D01*
X823Y44D01*
X833Y39D01*
X844Y35D01*
X856D01*
X867Y39D01*
X877Y44D01*
X886Y53D01*
X891Y63D01*
X895Y74D01*
Y86D01*
X891Y97D01*
X886Y107D01*
X877Y116D01*
X867Y121D01*
X856Y125D01*
D02*
G37*
G36*
X756D02*
X744D01*
X733Y121D01*
X723Y116D01*
X714Y107D01*
X709Y97D01*
X705Y86D01*
Y74D01*
X709Y63D01*
X714Y53D01*
X723Y44D01*
X733Y39D01*
X744Y35D01*
X756D01*
X767Y39D01*
X777Y44D01*
X786Y53D01*
X791Y63D01*
X795Y74D01*
Y86D01*
X791Y97D01*
X786Y107D01*
X777Y116D01*
X767Y121D01*
X756Y125D01*
D02*
G37*
G36*
X656D02*
X644D01*
X633Y121D01*
X623Y116D01*
X614Y107D01*
X609Y97D01*
X605Y86D01*
Y74D01*
X609Y63D01*
X614Y53D01*
X623Y44D01*
X633Y39D01*
X644Y35D01*
X656D01*
X667Y39D01*
X677Y44D01*
X686Y53D01*
X691Y63D01*
X695Y74D01*
Y86D01*
X691Y97D01*
X686Y107D01*
X677Y116D01*
X667Y121D01*
X656Y125D01*
D02*
G37*
G36*
X556D02*
X544D01*
X533Y121D01*
X523Y116D01*
X514Y107D01*
X509Y97D01*
X505Y86D01*
Y74D01*
X509Y63D01*
X514Y53D01*
X523Y44D01*
X533Y39D01*
X544Y35D01*
X556D01*
X567Y39D01*
X577Y44D01*
X586Y53D01*
X591Y63D01*
X595Y74D01*
Y86D01*
X591Y97D01*
X586Y107D01*
X577Y116D01*
X567Y121D01*
X556Y125D01*
D02*
G37*
G36*
X418Y145D02*
X411D01*
X405Y142D01*
X401Y138D01*
X398Y132D01*
Y126D01*
X401Y120D01*
X405Y115D01*
X411Y113D01*
X413D01*
X415Y108D01*
X414Y107D01*
X409Y97D01*
X405Y86D01*
Y74D01*
X409Y63D01*
X414Y53D01*
X423Y44D01*
X433Y39D01*
X444Y35D01*
X456D01*
X467Y39D01*
X477Y44D01*
X486Y53D01*
X491Y63D01*
X495Y74D01*
Y86D01*
X491Y97D01*
X486Y107D01*
X477Y116D01*
X467Y121D01*
X456Y125D01*
X444D01*
X434Y122D01*
X431Y125D01*
X430Y126D01*
Y132D01*
X428Y138D01*
X424Y142D01*
X418Y145D01*
D02*
G37*
G36*
X356Y125D02*
X344D01*
X333Y121D01*
X323Y116D01*
X314Y107D01*
X309Y97D01*
X305Y86D01*
Y74D01*
X309Y63D01*
X314Y53D01*
X323Y44D01*
X333Y39D01*
X344Y35D01*
X356D01*
X367Y39D01*
X377Y44D01*
X386Y53D01*
X391Y63D01*
X395Y74D01*
Y86D01*
X391Y97D01*
X386Y107D01*
X377Y116D01*
X367Y121D01*
X356Y125D01*
D02*
G37*
G36*
X256D02*
X244D01*
X233Y121D01*
X223Y116D01*
X214Y107D01*
X209Y97D01*
X205Y86D01*
Y74D01*
X209Y63D01*
X214Y53D01*
X223Y44D01*
X233Y39D01*
X244Y35D01*
X256D01*
X267Y39D01*
X277Y44D01*
X286Y53D01*
X291Y63D01*
X295Y74D01*
Y86D01*
X291Y97D01*
X286Y107D01*
X277Y116D01*
X267Y121D01*
X256Y125D01*
D02*
G37*
G36*
X156D02*
X144D01*
X133Y121D01*
X123Y116D01*
X114Y107D01*
X109Y97D01*
X105Y86D01*
Y74D01*
X109Y63D01*
X114Y53D01*
X123Y44D01*
X133Y39D01*
X144Y35D01*
X156D01*
X167Y39D01*
X177Y44D01*
X186Y53D01*
X191Y63D01*
X195Y74D01*
Y86D01*
X191Y97D01*
X186Y107D01*
X177Y116D01*
X167Y121D01*
X156Y125D01*
D02*
G37*
%LPD*%
D51*
X50Y80D02*
D03*
Y980D02*
D03*
D52*
X150Y80D02*
D03*
X250D02*
D03*
X350D02*
D03*
X450D02*
D03*
X550D02*
D03*
X650D02*
D03*
X750D02*
D03*
X850D02*
D03*
X950D02*
D03*
X1050D02*
D03*
X1150D02*
D03*
X1250D02*
D03*
X1350D02*
D03*
X1450D02*
D03*
X1550D02*
D03*
X1650D02*
D03*
X1750D02*
D03*
X1850D02*
D03*
X1950D02*
D03*
X2050D02*
D03*
X2150D02*
D03*
X2250D02*
D03*
X2350D02*
D03*
X2450D02*
D03*
X2550D02*
D03*
X2650D02*
D03*
X2750D02*
D03*
X2850D02*
D03*
X2950D02*
D03*
X3050D02*
D03*
X3150D02*
D03*
Y980D02*
D03*
X3050D02*
D03*
X2950D02*
D03*
X2850D02*
D03*
X2750D02*
D03*
X2650D02*
D03*
X2550D02*
D03*
X2450D02*
D03*
X2350D02*
D03*
X2250D02*
D03*
X2150D02*
D03*
X2050D02*
D03*
X1950D02*
D03*
X1850D02*
D03*
X1750D02*
D03*
X1650D02*
D03*
X1550D02*
D03*
X1450D02*
D03*
X1350D02*
D03*
X1250D02*
D03*
X1150D02*
D03*
X1050D02*
D03*
X950D02*
D03*
X850D02*
D03*
X750D02*
D03*
X650D02*
D03*
X550D02*
D03*
X450D02*
D03*
X350D02*
D03*
X250D02*
D03*
X150D02*
D03*
D53*
X2715Y656D02*
D03*
X2507Y835D02*
D03*
X2740Y825D02*
D03*
X2710Y783D02*
D03*
X2740Y725D02*
D03*
X2710Y707D02*
D03*
X2491Y707D02*
D03*
X1333Y894D02*
D03*
X1650Y905D02*
D03*
X1088Y932D02*
D03*
X1950Y920D02*
D03*
X2178Y924D02*
D03*
X2195Y726D02*
D03*
X2422Y924D02*
D03*
X2805D02*
D03*
X2374D02*
D03*
X414Y129D02*
D03*
X2050Y912D02*
D03*
X2270Y920D02*
D03*
X2316D02*
D03*
X426Y914D02*
D03*
X637Y912D02*
D03*
X2038Y651D02*
D03*
X1244Y447D02*
D03*
X2700Y160D02*
D03*
X2407D02*
D03*
X2700Y595D02*
D03*
X2407Y589D02*
D03*
X1346Y541D02*
D03*
X180Y627D02*
D03*
X1617Y448D02*
D03*
X869Y217D02*
D03*
X1000Y317D02*
D03*
X1324Y258D02*
D03*
X2492Y758D02*
D03*
X3080Y825D02*
D03*
X2803Y247D02*
D03*
X2715Y350D02*
D03*
X735Y215D02*
D03*
X579Y217D02*
D03*
X2927Y765D02*
D03*
X2390Y783D02*
D03*
X1750Y905D02*
D03*
X1346Y842D02*
D03*
X1436Y542D02*
D03*
Y842D02*
D03*
X1436Y208D02*
D03*
X1646Y558D02*
D03*
X1645Y592D02*
D03*
X1646Y632D02*
D03*
X2390Y730D02*
D03*
X1065Y424D02*
D03*
X1324Y335D02*
D03*
X1552Y284D02*
D03*
X1577Y310D02*
D03*
X1554Y335D02*
D03*
X1573Y259D02*
D03*
X2949Y726D02*
D03*
X2241Y650D02*
D03*
X2870Y825D02*
D03*
X2601Y835D02*
D03*
X2392Y656D02*
D03*
X1551Y387D02*
D03*
X1228Y387D02*
D03*
X1342Y207D02*
D03*
X1005Y586D02*
D03*
X873Y544D02*
D03*
X1957Y765D02*
D03*
X2241Y858D02*
D03*
X1957Y664D02*
D03*
X2845Y555D02*
D03*
X2858Y409D02*
D03*
X3154Y809D02*
D03*
Y710D02*
D03*
X2870Y618D02*
D03*
X2803Y209D02*
D03*
X2303D02*
D03*
X2241Y285D02*
D03*
X2298Y370D02*
D03*
X2303Y409D02*
D03*
Y486D02*
D03*
Y448D02*
D03*
X2298Y325D02*
D03*
X2303Y247D02*
D03*
X1987Y378D02*
D03*
X2803Y285D02*
D03*
X1987Y277D02*
D03*
X2390Y325D02*
D03*
X2802Y486D02*
D03*
X2602Y500D02*
D03*
X2800Y555D02*
D03*
X2773Y381D02*
D03*
X2800Y448D02*
D03*
X2505Y200D02*
D03*
Y500D02*
D03*
X2602Y200D02*
D03*
X1099Y487D02*
D03*
X893Y587D02*
D03*
X957Y623D02*
D03*
X1646Y672D02*
D03*
X1171Y661D02*
D03*
X1144Y594D02*
D03*
X1086Y633D02*
D03*
X1703Y184D02*
D03*
X1204Y317D02*
D03*
X1204Y217D02*
D03*
X1144Y487D02*
D03*
X1143Y556D02*
D03*
X790Y332D02*
D03*
X1074Y217D02*
D03*
X818Y218D02*
D03*
X1703Y757D02*
D03*
X1646Y717D02*
D03*
X1141Y757D02*
D03*
Y833D02*
D03*
Y795D02*
D03*
X1704Y391D02*
D03*
X1674Y122D02*
D03*
X1641Y833D02*
D03*
Y795D02*
D03*
X1629Y122D02*
D03*
X957Y672D02*
D03*
Y719D02*
D03*
X1554Y717D02*
D03*
X1234Y692D02*
D03*
X35Y537D02*
D03*
X310Y711D02*
D03*
X110D02*
D03*
X315Y780D02*
D03*
X70Y729D02*
D03*
X379Y747D02*
D03*
X315Y887D02*
D03*
X379Y897D02*
D03*
X70Y902D02*
D03*
X35Y500D02*
D03*
X444Y694D02*
D03*
X469Y594D02*
D03*
Y719D02*
D03*
X675Y745D02*
D03*
X549Y644D02*
D03*
X270Y381D02*
D03*
X140D02*
D03*
X310Y575D02*
D03*
X245Y537D02*
D03*
X308Y500D02*
D03*
M02*
