G04*
G04 #@! TF.GenerationSoftware,Altium Limited,Altium Designer,24.10.1 (45)*
G04*
G04 Layer_Color=32896*
%FSLAX23Y23*%
%MOIN*%
G70*
G04*
G04 #@! TF.SameCoordinates,D213B5B1-1682-4A20-B498-33B6BD820803*
G04*
G04*
G04 #@! TF.FilePolarity,Positive*
G04*
G01*
G75*
%ADD12C,0.010*%
%ADD14C,0.008*%
D12*
X758Y219D02*
X728D01*
Y234D01*
X733Y239D01*
X738D01*
X743Y234D01*
Y219D01*
Y234D01*
X748Y239D01*
X753D01*
X758Y234D01*
Y219D01*
Y249D02*
X733D01*
X728Y254D01*
Y264D01*
X733Y269D01*
X758D01*
Y299D02*
Y279D01*
X743D01*
Y289D01*
Y279D01*
X728D01*
X758Y329D02*
Y309D01*
X743D01*
Y319D01*
Y309D01*
X728D01*
X598Y251D02*
X568D01*
Y271D01*
Y281D02*
X598D01*
Y296D01*
X593Y301D01*
X583D01*
X578Y296D01*
Y281D01*
X428Y216D02*
X433Y211D01*
Y201D01*
X428Y196D01*
X423D01*
X418Y201D01*
Y211D01*
X413Y216D01*
X408D01*
X403Y211D01*
Y201D01*
X408Y196D01*
X433Y226D02*
Y236D01*
Y231D01*
X403D01*
Y226D01*
Y236D01*
X428Y271D02*
X433Y266D01*
Y256D01*
X428Y251D01*
X408D01*
X403Y256D01*
Y266D01*
X408Y271D01*
X418D01*
Y261D01*
X433Y281D02*
Y291D01*
Y286D01*
X403D01*
Y281D01*
Y291D01*
Y306D02*
X433D01*
X403Y326D01*
X433D01*
X2517Y891D02*
X2497D01*
X2507D01*
Y861D01*
X2487D02*
Y891D01*
X2472D01*
X2467Y886D01*
Y876D01*
X2472Y871D01*
X2487D01*
X2457Y856D02*
X2437D01*
X2427Y891D02*
X2407D01*
X2417D01*
Y861D01*
X2397D02*
Y881D01*
X2387Y891D01*
X2377Y881D01*
Y861D01*
Y876D01*
X2397D01*
X2367Y861D02*
Y891D01*
X2352D01*
X2347Y886D01*
Y876D01*
X2352Y871D01*
X2367D01*
X2337Y856D02*
X2317D01*
X2307Y861D02*
X2297D01*
X2302D01*
Y891D01*
X2307Y886D01*
X882Y436D02*
X862D01*
X872D01*
Y406D01*
X852D02*
Y436D01*
X837D01*
X832Y431D01*
Y421D01*
X837Y416D01*
X852D01*
X822Y401D02*
X802D01*
X772Y431D02*
X777Y436D01*
X787D01*
X792Y431D01*
Y426D01*
X787Y421D01*
X777D01*
X772Y416D01*
Y411D01*
X777Y406D01*
X787D01*
X792Y411D01*
X762Y436D02*
X752D01*
X757D01*
Y406D01*
X762D01*
X752D01*
X717Y431D02*
X722Y436D01*
X732D01*
X737Y431D01*
Y411D01*
X732Y406D01*
X722D01*
X717Y411D01*
Y421D01*
X727D01*
X707Y436D02*
Y406D01*
X692D01*
X687Y411D01*
Y416D01*
X692Y421D01*
X707D01*
X692D01*
X687Y426D01*
Y431D01*
X692Y436D01*
X707D01*
X677D02*
Y411D01*
X672Y406D01*
X662D01*
X657Y411D01*
Y436D01*
X627D02*
X647D01*
Y421D01*
X637D01*
X647D01*
Y406D01*
X597Y436D02*
X617D01*
Y421D01*
X607D01*
X617D01*
Y406D01*
X587D02*
X577D01*
X582D01*
Y436D01*
X587Y431D01*
X3058Y591D02*
X3038D01*
X3048D01*
Y562D01*
X3028D02*
Y591D01*
X3013D01*
X3008Y586D01*
Y576D01*
X3013Y572D01*
X3028D01*
X2998Y557D02*
X2978D01*
X2948Y586D02*
X2953Y591D01*
X2963D01*
X2968Y586D01*
Y581D01*
X2963Y576D01*
X2953D01*
X2948Y572D01*
Y567D01*
X2953Y562D01*
X2963D01*
X2968Y567D01*
X2938Y591D02*
X2928D01*
X2933D01*
Y562D01*
X2938D01*
X2928D01*
X2894Y586D02*
X2899Y591D01*
X2909D01*
X2914Y586D01*
Y567D01*
X2909Y562D01*
X2899D01*
X2894Y567D01*
Y576D01*
X2904D01*
X2884Y586D02*
X2879Y591D01*
X2869D01*
X2864Y586D01*
Y581D01*
X2869Y576D01*
X2874D01*
X2869D01*
X2864Y572D01*
Y567D01*
X2869Y562D01*
X2879D01*
X2884Y567D01*
X2854Y557D02*
X2834D01*
X2804Y586D02*
X2809Y591D01*
X2819D01*
X2824Y586D01*
Y581D01*
X2819Y576D01*
X2809D01*
X2804Y572D01*
Y567D01*
X2809Y562D01*
X2819D01*
X2824Y567D01*
X2774Y562D02*
X2794D01*
X2774Y581D01*
Y586D01*
X2779Y591D01*
X2789D01*
X2794Y586D01*
X1140Y184D02*
X1120D01*
X1130D01*
Y154D01*
X1110D02*
Y184D01*
X1095D01*
X1090Y179D01*
Y169D01*
X1095Y164D01*
X1110D01*
X1080Y149D02*
X1060D01*
X1030Y179D02*
X1035Y184D01*
X1045D01*
X1050Y179D01*
Y174D01*
X1045Y169D01*
X1035D01*
X1030Y164D01*
Y159D01*
X1035Y154D01*
X1045D01*
X1050Y159D01*
X1020Y184D02*
X1010D01*
X1015D01*
Y154D01*
X1020D01*
X1010D01*
X975Y179D02*
X980Y184D01*
X990D01*
X995Y179D01*
Y159D01*
X990Y154D01*
X980D01*
X975Y159D01*
Y169D01*
X985D01*
X965Y179D02*
X960Y184D01*
X950D01*
X945Y179D01*
Y174D01*
X950Y169D01*
X955D01*
X950D01*
X945Y164D01*
Y159D01*
X950Y154D01*
X960D01*
X965Y159D01*
X935Y149D02*
X915D01*
X885Y179D02*
X890Y184D01*
X900D01*
X905Y179D01*
Y174D01*
X900Y169D01*
X890D01*
X885Y164D01*
Y159D01*
X890Y154D01*
X900D01*
X905Y159D01*
X875Y154D02*
X865D01*
X870D01*
Y184D01*
X875Y179D01*
X3168Y718D02*
X3148D01*
X3158D01*
Y689D01*
X3138D02*
Y718D01*
X3123D01*
X3118Y713D01*
Y703D01*
X3123Y699D01*
X3138D01*
X3108Y684D02*
X3088D01*
X3058Y713D02*
X3063Y718D01*
X3073D01*
X3078Y713D01*
Y708D01*
X3073Y703D01*
X3063D01*
X3058Y699D01*
Y694D01*
X3063Y689D01*
X3073D01*
X3078Y694D01*
X3048Y718D02*
X3038D01*
X3043D01*
Y689D01*
X3048D01*
X3038D01*
X3004Y713D02*
X3009Y718D01*
X3019D01*
X3024Y713D01*
Y694D01*
X3019Y689D01*
X3009D01*
X3004Y694D01*
Y703D01*
X3014D01*
X2974Y689D02*
X2994D01*
X2974Y708D01*
Y713D01*
X2979Y718D01*
X2989D01*
X2994Y713D01*
X2964Y684D02*
X2944D01*
X2914Y713D02*
X2919Y718D01*
X2929D01*
X2934Y713D01*
Y708D01*
X2929Y703D01*
X2919D01*
X2914Y699D01*
Y694D01*
X2919Y689D01*
X2929D01*
X2934Y694D01*
X2884Y689D02*
X2904D01*
X2884Y708D01*
Y713D01*
X2889Y718D01*
X2899D01*
X2904Y713D01*
X1830Y632D02*
X1810D01*
X1820D01*
Y603D01*
X1800D02*
Y632D01*
X1785D01*
X1780Y627D01*
Y617D01*
X1785Y613D01*
X1800D01*
X1770Y598D02*
X1750D01*
X1720Y627D02*
X1725Y632D01*
X1735D01*
X1740Y627D01*
Y622D01*
X1735Y617D01*
X1725D01*
X1720Y613D01*
Y608D01*
X1725Y603D01*
X1735D01*
X1740Y608D01*
X1710Y632D02*
X1700D01*
X1705D01*
Y603D01*
X1710D01*
X1700D01*
X1666Y627D02*
X1671Y632D01*
X1681D01*
X1686Y627D01*
Y608D01*
X1681Y603D01*
X1671D01*
X1666Y608D01*
Y617D01*
X1676D01*
X1636Y603D02*
X1656D01*
X1636Y622D01*
Y627D01*
X1641Y632D01*
X1651D01*
X1656Y627D01*
X1626Y598D02*
X1606D01*
X1576Y627D02*
X1581Y632D01*
X1591D01*
X1596Y627D01*
Y622D01*
X1591Y617D01*
X1581D01*
X1576Y613D01*
Y608D01*
X1581Y603D01*
X1591D01*
X1596Y608D01*
X1566Y603D02*
X1556D01*
X1561D01*
Y632D01*
X1566Y627D01*
X2399Y276D02*
X2379D01*
X2389D01*
Y247D01*
X2369D02*
Y276D01*
X2354D01*
X2349Y271D01*
Y261D01*
X2354Y257D01*
X2369D01*
X2339Y242D02*
X2319D01*
X2289Y271D02*
X2294Y276D01*
X2304D01*
X2309Y271D01*
Y266D01*
X2304Y261D01*
X2294D01*
X2289Y257D01*
Y252D01*
X2294Y247D01*
X2304D01*
X2309Y252D01*
X2279Y276D02*
X2269D01*
X2274D01*
Y247D01*
X2279D01*
X2269D01*
X2234Y271D02*
X2239Y276D01*
X2249D01*
X2254Y271D01*
Y252D01*
X2249Y247D01*
X2239D01*
X2234Y252D01*
Y261D01*
X2244D01*
X2224Y247D02*
X2214D01*
X2219D01*
Y276D01*
X2224Y271D01*
X2199Y242D02*
X2179D01*
X2149Y271D02*
X2154Y276D01*
X2164D01*
X2169Y271D01*
Y266D01*
X2164Y261D01*
X2154D01*
X2149Y257D01*
Y252D01*
X2154Y247D01*
X2164D01*
X2169Y252D01*
X2119Y247D02*
X2139D01*
X2119Y266D01*
Y271D01*
X2124Y276D01*
X2134D01*
X2139Y271D01*
X2101Y508D02*
X2081D01*
X2091D01*
Y479D01*
X2071D02*
Y508D01*
X2056D01*
X2051Y503D01*
Y493D01*
X2056Y489D01*
X2071D01*
X2041Y474D02*
X2021D01*
X1991Y503D02*
X1996Y508D01*
X2006D01*
X2011Y503D01*
Y498D01*
X2006Y493D01*
X1996D01*
X1991Y489D01*
Y484D01*
X1996Y479D01*
X2006D01*
X2011Y484D01*
X1981Y508D02*
X1971D01*
X1976D01*
Y479D01*
X1981D01*
X1971D01*
X1936Y503D02*
X1941Y508D01*
X1951D01*
X1956Y503D01*
Y484D01*
X1951Y479D01*
X1941D01*
X1936Y484D01*
Y493D01*
X1946D01*
X1926Y479D02*
X1916D01*
X1921D01*
Y508D01*
X1926Y503D01*
X1901Y474D02*
X1881D01*
X1851Y503D02*
X1856Y508D01*
X1866D01*
X1871Y503D01*
Y498D01*
X1866Y493D01*
X1856D01*
X1851Y489D01*
Y484D01*
X1856Y479D01*
X1866D01*
X1871Y484D01*
X1841Y479D02*
X1831D01*
X1836D01*
Y508D01*
X1841Y503D01*
X3031Y161D02*
X3011D01*
X3021D01*
Y131D01*
X3001D02*
Y161D01*
X2986D01*
X2981Y156D01*
Y146D01*
X2986Y141D01*
X3001D01*
X2971Y126D02*
X2951D01*
X2921Y156D02*
X2926Y161D01*
X2936D01*
X2941Y156D01*
Y151D01*
X2936Y146D01*
X2926D01*
X2921Y141D01*
Y136D01*
X2926Y131D01*
X2936D01*
X2941Y136D01*
X2911Y161D02*
Y131D01*
Y146D01*
X2891D01*
Y161D01*
Y131D01*
X2881Y161D02*
X2871D01*
X2876D01*
Y131D01*
X2881D01*
X2871D01*
X2836Y161D02*
X2856D01*
Y146D01*
X2846D01*
X2856D01*
Y131D01*
X2826Y161D02*
X2806D01*
X2816D01*
Y131D01*
X2781D02*
Y161D01*
X2796Y146D01*
X2776D01*
X2766Y126D02*
X2746D01*
X2716Y156D02*
X2721Y161D01*
X2731D01*
X2736Y156D01*
Y151D01*
X2731Y146D01*
X2721D01*
X2716Y141D01*
Y136D01*
X2721Y131D01*
X2731D01*
X2736Y136D01*
X2686Y131D02*
X2706D01*
X2686Y151D01*
Y156D01*
X2691Y161D01*
X2701D01*
X2706Y156D01*
X1679Y912D02*
X1659D01*
X1669D01*
Y882D01*
X1649D02*
Y912D01*
X1634D01*
X1629Y907D01*
Y897D01*
X1634Y892D01*
X1649D01*
X1619Y877D02*
X1599D01*
X1569Y907D02*
X1574Y912D01*
X1584D01*
X1589Y907D01*
Y902D01*
X1584Y897D01*
X1574D01*
X1569Y892D01*
Y887D01*
X1574Y882D01*
X1584D01*
X1589Y887D01*
X1559Y912D02*
Y882D01*
Y897D01*
X1539D01*
Y912D01*
Y882D01*
X1529Y912D02*
X1519D01*
X1524D01*
Y882D01*
X1529D01*
X1519D01*
X1484Y912D02*
X1504D01*
Y897D01*
X1494D01*
X1504D01*
Y882D01*
X1474Y912D02*
X1454D01*
X1464D01*
Y882D01*
X1429D02*
Y912D01*
X1444Y897D01*
X1424D01*
X1414Y877D02*
X1394D01*
X1364Y907D02*
X1369Y912D01*
X1379D01*
X1384Y907D01*
Y902D01*
X1379Y897D01*
X1369D01*
X1364Y892D01*
Y887D01*
X1369Y882D01*
X1379D01*
X1384Y887D01*
X1354Y882D02*
X1344D01*
X1349D01*
Y912D01*
X1354Y907D01*
X2818Y518D02*
X2798D01*
X2808D01*
Y488D01*
X2788D02*
Y518D01*
X2773D01*
X2768Y513D01*
Y503D01*
X2773Y498D01*
X2788D01*
X2758Y483D02*
X2738D01*
X2708Y513D02*
X2713Y518D01*
X2723D01*
X2728Y513D01*
Y508D01*
X2723Y503D01*
X2713D01*
X2708Y498D01*
Y493D01*
X2713Y488D01*
X2723D01*
X2728Y493D01*
X2698Y518D02*
Y488D01*
Y503D01*
X2678D01*
Y518D01*
Y488D01*
X2668Y518D02*
X2658D01*
X2663D01*
Y488D01*
X2668D01*
X2658D01*
X2623Y518D02*
X2643D01*
Y503D01*
X2633D01*
X2643D01*
Y488D01*
X2613Y518D02*
X2593D01*
X2603D01*
Y488D01*
X2583Y513D02*
X2578Y518D01*
X2568D01*
X2563Y513D01*
Y508D01*
X2568Y503D01*
X2573D01*
X2568D01*
X2563Y498D01*
Y493D01*
X2568Y488D01*
X2578D01*
X2583Y493D01*
X2553Y483D02*
X2533D01*
X2503Y513D02*
X2508Y518D01*
X2518D01*
X2523Y513D01*
Y508D01*
X2518Y503D01*
X2508D01*
X2503Y498D01*
Y493D01*
X2508Y488D01*
X2518D01*
X2523Y493D01*
X2473Y488D02*
X2493D01*
X2473Y508D01*
Y513D01*
X2478Y518D01*
X2488D01*
X2493Y513D01*
X1462Y551D02*
X1442D01*
X1452D01*
Y522D01*
X1432D02*
Y551D01*
X1417D01*
X1412Y546D01*
Y536D01*
X1417Y532D01*
X1432D01*
X1402Y517D02*
X1382D01*
X1352Y546D02*
X1357Y551D01*
X1367D01*
X1372Y546D01*
Y541D01*
X1367Y536D01*
X1357D01*
X1352Y532D01*
Y527D01*
X1357Y522D01*
X1367D01*
X1372Y527D01*
X1342Y551D02*
Y522D01*
Y536D01*
X1322D01*
Y551D01*
Y522D01*
X1312Y551D02*
X1302D01*
X1307D01*
Y522D01*
X1312D01*
X1302D01*
X1268Y551D02*
X1288D01*
Y536D01*
X1278D01*
X1288D01*
Y522D01*
X1258Y551D02*
X1238D01*
X1248D01*
Y522D01*
X1228Y546D02*
X1223Y551D01*
X1213D01*
X1208Y546D01*
Y541D01*
X1213Y536D01*
X1218D01*
X1213D01*
X1208Y532D01*
Y527D01*
X1213Y522D01*
X1223D01*
X1228Y527D01*
X1198Y517D02*
X1178D01*
X1148Y546D02*
X1153Y551D01*
X1163D01*
X1168Y546D01*
Y541D01*
X1163Y536D01*
X1153D01*
X1148Y532D01*
Y527D01*
X1153Y522D01*
X1163D01*
X1168Y527D01*
X1138Y522D02*
X1128D01*
X1133D01*
Y551D01*
X1138Y546D01*
X2417Y582D02*
X2397D01*
X2407D01*
Y552D01*
X2387D02*
Y582D01*
X2372D01*
X2367Y577D01*
Y567D01*
X2372Y562D01*
X2387D01*
X2357Y547D02*
X2337D01*
X2307Y577D02*
X2312Y582D01*
X2322D01*
X2327Y577D01*
Y572D01*
X2322Y567D01*
X2312D01*
X2307Y562D01*
Y557D01*
X2312Y552D01*
X2322D01*
X2327Y557D01*
X2297Y582D02*
Y552D01*
Y567D01*
X2277D01*
Y582D01*
Y552D01*
X2267Y582D02*
X2257D01*
X2262D01*
Y552D01*
X2267D01*
X2257D01*
X2222Y582D02*
X2242D01*
Y567D01*
X2232D01*
X2242D01*
Y552D01*
X2212Y582D02*
X2192D01*
X2202D01*
Y552D01*
X2162D02*
X2182D01*
X2162Y572D01*
Y577D01*
X2167Y582D01*
X2177D01*
X2182Y577D01*
X2152Y547D02*
X2132D01*
X2102Y577D02*
X2107Y582D01*
X2117D01*
X2122Y577D01*
Y572D01*
X2117Y567D01*
X2107D01*
X2102Y562D01*
Y557D01*
X2107Y552D01*
X2117D01*
X2122Y557D01*
X2072Y552D02*
X2092D01*
X2072Y572D01*
Y577D01*
X2077Y582D01*
X2087D01*
X2092Y577D01*
X2419Y161D02*
X2399D01*
X2409D01*
Y132D01*
X2389D02*
Y161D01*
X2374D01*
X2369Y156D01*
Y146D01*
X2374Y142D01*
X2389D01*
X2359Y127D02*
X2339D01*
X2309Y156D02*
X2314Y161D01*
X2324D01*
X2329Y156D01*
Y151D01*
X2324Y146D01*
X2314D01*
X2309Y142D01*
Y137D01*
X2314Y132D01*
X2324D01*
X2329Y137D01*
X2299Y161D02*
Y132D01*
Y146D01*
X2279D01*
Y161D01*
Y132D01*
X2269Y161D02*
X2259D01*
X2264D01*
Y132D01*
X2269D01*
X2259D01*
X2224Y161D02*
X2244D01*
Y146D01*
X2234D01*
X2244D01*
Y132D01*
X2214Y161D02*
X2194D01*
X2204D01*
Y132D01*
X2184D02*
X2174D01*
X2179D01*
Y161D01*
X2184Y156D01*
X2159Y127D02*
X2139D01*
X2109Y156D02*
X2114Y161D01*
X2124D01*
X2129Y156D01*
Y151D01*
X2124Y146D01*
X2114D01*
X2109Y142D01*
Y137D01*
X2114Y132D01*
X2124D01*
X2129Y137D01*
X2079Y132D02*
X2099D01*
X2079Y151D01*
Y156D01*
X2084Y161D01*
X2094D01*
X2099Y156D01*
X474Y159D02*
X454D01*
X464D01*
Y130D01*
X444D02*
Y159D01*
X429D01*
X424Y154D01*
Y144D01*
X429Y140D01*
X444D01*
X414Y125D02*
X394D01*
X384Y159D02*
Y130D01*
X364D01*
X354D02*
Y159D01*
X340D01*
X335Y154D01*
Y144D01*
X340Y140D01*
X354D01*
X305Y154D02*
X310Y159D01*
X320D01*
X325Y154D01*
Y149D01*
X320Y144D01*
X310D01*
X305Y140D01*
Y135D01*
X310Y130D01*
X320D01*
X325Y135D01*
X295Y159D02*
X285D01*
X290D01*
Y130D01*
X295D01*
X285D01*
X250Y154D02*
X255Y159D01*
X265D01*
X270Y154D01*
Y135D01*
X265Y130D01*
X255D01*
X250Y135D01*
Y144D01*
X260D01*
X240Y130D02*
X230D01*
X235D01*
Y159D01*
X240Y154D01*
X3033Y894D02*
X3013D01*
X3023D01*
Y864D01*
X3003D02*
Y894D01*
X2988D01*
X2983Y889D01*
Y879D01*
X2988Y874D01*
X3003D01*
X2973Y859D02*
X2953D01*
X2943Y894D02*
X2923D01*
X2933D01*
Y864D01*
X2913D02*
Y884D01*
X2903Y894D01*
X2893Y884D01*
Y864D01*
Y879D01*
X2913D01*
X2883Y864D02*
Y894D01*
X2868D01*
X2863Y889D01*
Y879D01*
X2868Y874D01*
X2883D01*
X2853Y859D02*
X2833D01*
X2808Y864D02*
Y894D01*
X2823Y879D01*
X2803D01*
X1605Y259D02*
X1585D01*
X1595D01*
Y229D01*
X1575D02*
Y259D01*
X1560D01*
X1555Y254D01*
Y244D01*
X1560Y239D01*
X1575D01*
X1545Y224D02*
X1525D01*
X1515Y259D02*
X1495D01*
X1505D01*
Y229D01*
X1485D02*
Y249D01*
X1475Y259D01*
X1465Y249D01*
Y229D01*
Y244D01*
X1485D01*
X1455Y229D02*
Y259D01*
X1440D01*
X1435Y254D01*
Y244D01*
X1440Y239D01*
X1455D01*
X1425Y224D02*
X1405D01*
X1395Y254D02*
X1390Y259D01*
X1380D01*
X1375Y254D01*
Y249D01*
X1380Y244D01*
X1385D01*
X1380D01*
X1375Y239D01*
Y234D01*
X1380Y229D01*
X1390D01*
X1395Y234D01*
X296Y701D02*
X276D01*
X286D01*
Y672D01*
X266D02*
Y701D01*
X251D01*
X246Y696D01*
Y686D01*
X251Y682D01*
X266D01*
X236Y667D02*
X216D01*
X206Y701D02*
X186D01*
X196D01*
Y672D01*
X176D02*
Y691D01*
X166Y701D01*
X156Y691D01*
Y672D01*
Y686D01*
X176D01*
X146Y672D02*
Y701D01*
X131D01*
X126Y696D01*
Y686D01*
X131Y682D01*
X146D01*
X116Y667D02*
X96D01*
X66Y672D02*
X86D01*
X66Y691D01*
Y696D01*
X71Y701D01*
X81D01*
X86Y696D01*
X2998Y283D02*
X2978D01*
X2988D01*
Y254D01*
X2968D02*
Y283D01*
X2953D01*
X2948Y278D01*
Y268D01*
X2953Y264D01*
X2968D01*
X2938Y249D02*
X2918D01*
X2888Y278D02*
X2893Y283D01*
X2903D01*
X2908Y278D01*
Y273D01*
X2903Y268D01*
X2893D01*
X2888Y264D01*
Y259D01*
X2893Y254D01*
X2903D01*
X2908Y259D01*
X2878Y283D02*
X2868D01*
X2873D01*
Y254D01*
X2878D01*
X2868D01*
X2834Y278D02*
X2839Y283D01*
X2849D01*
X2854Y278D01*
Y259D01*
X2849Y254D01*
X2839D01*
X2834Y259D01*
Y268D01*
X2844D01*
X2809Y254D02*
Y283D01*
X2824Y268D01*
X2804D01*
X2794Y249D02*
X2774D01*
X2744Y278D02*
X2749Y283D01*
X2759D01*
X2764Y278D01*
Y273D01*
X2759Y268D01*
X2749D01*
X2744Y264D01*
Y259D01*
X2749Y254D01*
X2759D01*
X2764Y259D01*
X2714Y254D02*
X2734D01*
X2714Y273D01*
Y278D01*
X2719Y283D01*
X2729D01*
X2734Y278D01*
X1062Y877D02*
X1042D01*
X1052D01*
Y848D01*
X1032D02*
Y877D01*
X1017D01*
X1012Y872D01*
Y862D01*
X1017Y858D01*
X1032D01*
X1002Y843D02*
X982D01*
X952Y872D02*
X957Y877D01*
X967D01*
X972Y872D01*
Y867D01*
X967Y862D01*
X957D01*
X952Y858D01*
Y853D01*
X957Y848D01*
X967D01*
X972Y853D01*
X942Y877D02*
X932D01*
X937D01*
Y848D01*
X942D01*
X932D01*
X898Y872D02*
X903Y877D01*
X913D01*
X918Y872D01*
Y853D01*
X913Y848D01*
X903D01*
X898Y853D01*
Y862D01*
X908D01*
X873Y848D02*
Y877D01*
X888Y862D01*
X868D01*
X858Y843D02*
X838D01*
X808Y872D02*
X813Y877D01*
X823D01*
X828Y872D01*
Y867D01*
X823Y862D01*
X813D01*
X808Y858D01*
Y853D01*
X813Y848D01*
X823D01*
X828Y853D01*
X798Y848D02*
X788D01*
X793D01*
Y877D01*
X798Y872D01*
X1783Y408D02*
X1763D01*
X1773D01*
Y379D01*
X1753D02*
Y408D01*
X1738D01*
X1733Y403D01*
Y393D01*
X1738Y389D01*
X1753D01*
X1723Y374D02*
X1703D01*
X1673Y403D02*
X1678Y408D01*
X1688D01*
X1693Y403D01*
Y398D01*
X1688Y393D01*
X1678D01*
X1673Y389D01*
Y384D01*
X1678Y379D01*
X1688D01*
X1693Y384D01*
X1663Y408D02*
Y379D01*
Y393D01*
X1643D01*
Y408D01*
Y379D01*
X1633Y408D02*
X1623D01*
X1628D01*
Y379D01*
X1633D01*
X1623D01*
X1589Y408D02*
X1609D01*
Y393D01*
X1599D01*
X1609D01*
Y379D01*
X1579Y408D02*
X1559D01*
X1569D01*
Y379D01*
X1529D02*
X1549D01*
X1529Y398D01*
Y403D01*
X1534Y408D01*
X1544D01*
X1549Y403D01*
X1519Y374D02*
X1499D01*
X1469Y403D02*
X1474Y408D01*
X1484D01*
X1489Y403D01*
Y398D01*
X1484Y393D01*
X1474D01*
X1469Y389D01*
Y384D01*
X1474Y379D01*
X1484D01*
X1489Y384D01*
X1459Y379D02*
X1449D01*
X1454D01*
Y408D01*
X1459Y403D01*
D14*
X381Y253D02*
Y288D01*
X319Y253D02*
Y288D01*
X543Y253D02*
Y288D01*
X482Y253D02*
Y288D01*
X706Y253D02*
Y288D01*
X644Y253D02*
Y288D01*
M02*
