G04*
G04 #@! TF.GenerationSoftware,Altium Limited,Altium Designer,24.10.1 (45)*
G04*
G04 Layer_Color=128*
%FSLAX23Y23*%
%MOIN*%
G70*
G04*
G04 #@! TF.SameCoordinates,D213B5B1-1682-4A20-B498-33B6BD820803*
G04*
G04*
G04 #@! TF.FilePolarity,Positive*
G04*
G01*
G75*
%ADD63C,0.005*%
D63*
X32Y80D02*
X68D01*
X50Y62D02*
Y98D01*
X132Y80D02*
X168D01*
X150Y62D02*
Y98D01*
X232Y80D02*
X268D01*
X250Y62D02*
Y98D01*
X332Y80D02*
X368D01*
X350Y62D02*
Y98D01*
X432Y80D02*
X468D01*
X450Y62D02*
Y98D01*
X532Y80D02*
X568D01*
X550Y62D02*
Y98D01*
X632Y80D02*
X668D01*
X650Y62D02*
Y98D01*
X732Y80D02*
X768D01*
X750Y62D02*
Y98D01*
X832Y80D02*
X868D01*
X850Y62D02*
Y98D01*
X932Y80D02*
X968D01*
X950Y62D02*
Y98D01*
X1032Y80D02*
X1068D01*
X1050Y62D02*
Y98D01*
X1132Y80D02*
X1168D01*
X1150Y62D02*
Y98D01*
X1232Y80D02*
X1268D01*
X1250Y62D02*
Y98D01*
X1332Y80D02*
X1368D01*
X1350Y62D02*
Y98D01*
X1432Y80D02*
X1468D01*
X1450Y62D02*
Y98D01*
X1532Y80D02*
X1568D01*
X1550Y62D02*
Y98D01*
X1632Y80D02*
X1668D01*
X1650Y62D02*
Y98D01*
X1732Y80D02*
X1768D01*
X1750Y62D02*
Y98D01*
X1832Y80D02*
X1868D01*
X1850Y62D02*
Y98D01*
X1932Y80D02*
X1968D01*
X1950Y62D02*
Y98D01*
X2032Y80D02*
X2068D01*
X2050Y62D02*
Y98D01*
X2132Y80D02*
X2168D01*
X2150Y62D02*
Y98D01*
X2232Y80D02*
X2268D01*
X2250Y62D02*
Y98D01*
X2332Y80D02*
X2368D01*
X2350Y62D02*
Y98D01*
X2432Y80D02*
X2468D01*
X2450Y62D02*
Y98D01*
X2532Y80D02*
X2568D01*
X2550Y62D02*
Y98D01*
X2632Y80D02*
X2668D01*
X2650Y62D02*
Y98D01*
X2732Y80D02*
X2768D01*
X2750Y62D02*
Y98D01*
X2832Y80D02*
X2868D01*
X2850Y62D02*
Y98D01*
X2932Y80D02*
X2968D01*
X2950Y62D02*
Y98D01*
X3032Y80D02*
X3068D01*
X3050Y62D02*
Y98D01*
X3132Y80D02*
X3168D01*
X3150Y62D02*
Y98D01*
X3132Y980D02*
X3168D01*
X3150Y962D02*
Y998D01*
X3032Y980D02*
X3068D01*
X3050Y962D02*
Y998D01*
X2932Y980D02*
X2968D01*
X2950Y962D02*
Y998D01*
X2832Y980D02*
X2868D01*
X2850Y962D02*
Y998D01*
X2732Y980D02*
X2768D01*
X2750Y962D02*
Y998D01*
X2632Y980D02*
X2668D01*
X2650Y962D02*
Y998D01*
X2532Y980D02*
X2568D01*
X2550Y962D02*
Y998D01*
X2432Y980D02*
X2468D01*
X2450Y962D02*
Y998D01*
X2332Y980D02*
X2368D01*
X2350Y962D02*
Y998D01*
X2232Y980D02*
X2268D01*
X2250Y962D02*
Y998D01*
X2132Y980D02*
X2168D01*
X2150Y962D02*
Y998D01*
X2032Y980D02*
X2068D01*
X2050Y962D02*
Y998D01*
X1932Y980D02*
X1968D01*
X1950Y962D02*
Y998D01*
X1832Y980D02*
X1868D01*
X1850Y962D02*
Y998D01*
X1732Y980D02*
X1768D01*
X1750Y962D02*
Y998D01*
X1632Y980D02*
X1668D01*
X1650Y962D02*
Y998D01*
X1532Y980D02*
X1568D01*
X1550Y962D02*
Y998D01*
X1432Y980D02*
X1468D01*
X1450Y962D02*
Y998D01*
X1332Y980D02*
X1368D01*
X1350Y962D02*
Y998D01*
X1232Y980D02*
X1268D01*
X1250Y962D02*
Y998D01*
X1132Y980D02*
X1168D01*
X1150Y962D02*
Y998D01*
X1032Y980D02*
X1068D01*
X1050Y962D02*
Y998D01*
X932Y980D02*
X968D01*
X950Y962D02*
Y998D01*
X832Y980D02*
X868D01*
X850Y962D02*
Y998D01*
X732Y980D02*
X768D01*
X750Y962D02*
Y998D01*
X632Y980D02*
X668D01*
X650Y962D02*
Y998D01*
X532Y980D02*
X568D01*
X550Y962D02*
Y998D01*
X432Y980D02*
X468D01*
X450Y962D02*
Y998D01*
X332Y980D02*
X368D01*
X350Y962D02*
Y998D01*
X232Y980D02*
X268D01*
X250Y962D02*
Y998D01*
X132Y980D02*
X168D01*
X150Y962D02*
Y998D01*
X32Y980D02*
X68D01*
X50Y962D02*
Y998D01*
X2709Y656D02*
X2721D01*
X2715Y650D02*
Y662D01*
X2501Y835D02*
X2513D01*
X2507Y829D02*
Y841D01*
X2734Y825D02*
X2746D01*
X2740Y819D02*
Y831D01*
X2704Y783D02*
X2716D01*
X2710Y777D02*
Y789D01*
X2734Y725D02*
X2746D01*
X2740Y719D02*
Y731D01*
X2704Y707D02*
X2716D01*
X2710Y701D02*
Y713D01*
X2485Y707D02*
X2497D01*
X2491Y701D02*
Y713D01*
X1327Y894D02*
X1339D01*
X1333Y888D02*
Y900D01*
X1644Y905D02*
X1656D01*
X1650Y899D02*
Y911D01*
X1082Y932D02*
X1094D01*
X1088Y926D02*
Y938D01*
X1944Y920D02*
X1956D01*
X1950Y914D02*
Y926D01*
X2172Y924D02*
X2184D01*
X2178Y918D02*
Y930D01*
X2189Y726D02*
X2201D01*
X2195Y720D02*
Y732D01*
X2416Y924D02*
X2428D01*
X2422Y918D02*
Y930D01*
X2799Y924D02*
X2811D01*
X2805Y918D02*
Y930D01*
X2368Y924D02*
X2380D01*
X2374Y918D02*
Y930D01*
X408Y129D02*
X420D01*
X414Y123D02*
Y135D01*
X2044Y912D02*
X2056D01*
X2050Y906D02*
Y918D01*
X2264Y920D02*
X2276D01*
X2270Y914D02*
Y926D01*
X2310Y920D02*
X2322D01*
X2316Y914D02*
Y926D01*
X420Y914D02*
X432D01*
X426Y908D02*
Y920D01*
X631Y912D02*
X643D01*
X637Y906D02*
Y918D01*
X2032Y651D02*
X2044D01*
X2038Y645D02*
Y657D01*
X1238Y447D02*
X1250D01*
X1244Y441D02*
Y453D01*
X2694Y160D02*
X2706D01*
X2700Y154D02*
Y166D01*
X2401Y160D02*
X2413D01*
X2407Y154D02*
Y166D01*
X2694Y595D02*
X2706D01*
X2700Y589D02*
Y601D01*
X2401Y589D02*
X2413D01*
X2407Y583D02*
Y595D01*
X1340Y541D02*
X1352D01*
X1346Y535D02*
Y547D01*
X174Y627D02*
X186D01*
X180Y621D02*
Y633D01*
X1611Y448D02*
X1623D01*
X1617Y442D02*
Y454D01*
X863Y217D02*
X875D01*
X869Y211D02*
Y223D01*
X994Y317D02*
X1006D01*
X1000Y311D02*
Y323D01*
X1318Y258D02*
X1330D01*
X1324Y252D02*
Y264D01*
X2486Y758D02*
X2498D01*
X2492Y752D02*
Y764D01*
X3074Y825D02*
X3086D01*
X3080Y819D02*
Y831D01*
X2797Y247D02*
X2809D01*
X2803Y241D02*
Y253D01*
X2709Y350D02*
X2721D01*
X2715Y344D02*
Y356D01*
X729Y215D02*
X741D01*
X735Y209D02*
Y221D01*
X573Y217D02*
X585D01*
X579Y211D02*
Y223D01*
X2921Y765D02*
X2933D01*
X2927Y759D02*
Y771D01*
X2384Y783D02*
X2396D01*
X2390Y777D02*
Y789D01*
X1744Y905D02*
X1756D01*
X1750Y899D02*
Y911D01*
X1340Y842D02*
X1352D01*
X1346Y836D02*
Y848D01*
X1430Y542D02*
X1442D01*
X1436Y536D02*
Y548D01*
X1430Y842D02*
X1442D01*
X1436Y836D02*
Y848D01*
X1430Y208D02*
X1442D01*
X1436Y202D02*
Y214D01*
X1640Y558D02*
X1652D01*
X1646Y552D02*
Y564D01*
X1639Y592D02*
X1651D01*
X1645Y586D02*
Y598D01*
X1640Y632D02*
X1652D01*
X1646Y626D02*
Y638D01*
X2384Y730D02*
X2396D01*
X2390Y724D02*
Y736D01*
X1059Y424D02*
X1071D01*
X1065Y418D02*
Y430D01*
X1318Y335D02*
X1330D01*
X1324Y329D02*
Y341D01*
X1546Y284D02*
X1558D01*
X1552Y278D02*
Y290D01*
X1571Y310D02*
X1583D01*
X1577Y304D02*
Y316D01*
X1548Y335D02*
X1560D01*
X1554Y329D02*
Y341D01*
X1567Y259D02*
X1579D01*
X1573Y253D02*
Y265D01*
X2943Y726D02*
X2955D01*
X2949Y720D02*
Y732D01*
X2235Y650D02*
X2247D01*
X2241Y644D02*
Y656D01*
X2864Y825D02*
X2876D01*
X2870Y819D02*
Y831D01*
X2595Y835D02*
X2607D01*
X2601Y829D02*
Y841D01*
X2386Y656D02*
X2398D01*
X2392Y650D02*
Y662D01*
X1545Y387D02*
X1557D01*
X1551Y381D02*
Y393D01*
X1222Y387D02*
X1234D01*
X1228Y381D02*
Y393D01*
X1336Y207D02*
X1348D01*
X1342Y201D02*
Y213D01*
X999Y586D02*
X1011D01*
X1005Y580D02*
Y592D01*
X867Y544D02*
X879D01*
X873Y538D02*
Y550D01*
X1951Y765D02*
X1963D01*
X1957Y759D02*
Y771D01*
X2235Y858D02*
X2247D01*
X2241Y852D02*
Y864D01*
X1951Y664D02*
X1963D01*
X1957Y658D02*
Y670D01*
X2839Y555D02*
X2851D01*
X2845Y549D02*
Y561D01*
X2852Y409D02*
X2864D01*
X2858Y403D02*
Y415D01*
X3148Y809D02*
X3160D01*
X3154Y803D02*
Y815D01*
X3148Y710D02*
X3160D01*
X3154Y704D02*
Y716D01*
X2864Y618D02*
X2876D01*
X2870Y612D02*
Y624D01*
X2797Y209D02*
X2809D01*
X2803Y203D02*
Y215D01*
X2297Y209D02*
X2309D01*
X2303Y203D02*
Y215D01*
X2235Y285D02*
X2247D01*
X2241Y279D02*
Y291D01*
X2292Y370D02*
X2304D01*
X2298Y364D02*
Y376D01*
X2297Y409D02*
X2309D01*
X2303Y403D02*
Y415D01*
X2297Y486D02*
X2309D01*
X2303Y480D02*
Y492D01*
X2297Y448D02*
X2309D01*
X2303Y442D02*
Y454D01*
X2292Y325D02*
X2304D01*
X2298Y319D02*
Y331D01*
X2297Y247D02*
X2309D01*
X2303Y241D02*
Y253D01*
X1981Y378D02*
X1993D01*
X1987Y372D02*
Y384D01*
X2797Y285D02*
X2809D01*
X2803Y279D02*
Y291D01*
X1981Y277D02*
X1993D01*
X1987Y271D02*
Y283D01*
X2384Y325D02*
X2396D01*
X2390Y319D02*
Y331D01*
X2796Y486D02*
X2808D01*
X2802Y480D02*
Y492D01*
X2596Y500D02*
X2608D01*
X2602Y494D02*
Y506D01*
X2794Y555D02*
X2806D01*
X2800Y549D02*
Y561D01*
X2767Y381D02*
X2779D01*
X2773Y375D02*
Y387D01*
X2794Y448D02*
X2806D01*
X2800Y442D02*
Y454D01*
X2499Y200D02*
X2511D01*
X2505Y194D02*
Y206D01*
X2499Y500D02*
X2511D01*
X2505Y494D02*
Y506D01*
X2596Y200D02*
X2608D01*
X2602Y194D02*
Y206D01*
X1093Y487D02*
X1105D01*
X1099Y481D02*
Y493D01*
X887Y587D02*
X899D01*
X893Y581D02*
Y593D01*
X951Y623D02*
X963D01*
X957Y617D02*
Y629D01*
X1640Y672D02*
X1652D01*
X1646Y666D02*
Y678D01*
X1165Y661D02*
X1177D01*
X1171Y655D02*
Y667D01*
X1138Y594D02*
X1150D01*
X1144Y588D02*
Y600D01*
X1080Y633D02*
X1092D01*
X1086Y627D02*
Y639D01*
X1697Y184D02*
X1709D01*
X1703Y178D02*
Y190D01*
X1198Y317D02*
X1210D01*
X1204Y311D02*
Y323D01*
X1198Y217D02*
X1210D01*
X1204Y211D02*
Y223D01*
X1138Y487D02*
X1150D01*
X1144Y481D02*
Y493D01*
X1137Y556D02*
X1148D01*
X1143Y550D02*
Y562D01*
X784Y332D02*
X796D01*
X790Y326D02*
Y338D01*
X1068Y217D02*
X1080D01*
X1074Y211D02*
Y223D01*
X812Y218D02*
X824D01*
X818Y212D02*
Y224D01*
X1697Y757D02*
X1709D01*
X1703Y751D02*
Y763D01*
X1640Y717D02*
X1652D01*
X1646Y711D02*
Y723D01*
X1135Y757D02*
X1147D01*
X1141Y751D02*
Y763D01*
X1135Y833D02*
X1147D01*
X1141Y827D02*
Y839D01*
X1135Y795D02*
X1147D01*
X1141Y789D02*
Y801D01*
X1698Y391D02*
X1710D01*
X1704Y385D02*
Y397D01*
X1668Y122D02*
X1680D01*
X1674Y116D02*
Y128D01*
X1635Y833D02*
X1647D01*
X1641Y827D02*
Y839D01*
X1635Y795D02*
X1647D01*
X1641Y789D02*
Y801D01*
X1623Y122D02*
X1635D01*
X1629Y116D02*
Y128D01*
X951Y672D02*
X963D01*
X957Y666D02*
Y678D01*
X951Y719D02*
X963D01*
X957Y713D02*
Y725D01*
X1548Y717D02*
X1560D01*
X1554Y711D02*
Y723D01*
X1228Y692D02*
X1240D01*
X1234Y686D02*
Y698D01*
X29Y537D02*
X41D01*
X35Y531D02*
Y543D01*
X304Y711D02*
X316D01*
X310Y705D02*
Y717D01*
X104Y711D02*
X116D01*
X110Y705D02*
Y717D01*
X309Y780D02*
X321D01*
X315Y774D02*
Y786D01*
X64Y729D02*
X76D01*
X70Y723D02*
Y735D01*
X373Y747D02*
X385D01*
X379Y741D02*
Y753D01*
X309Y887D02*
X321D01*
X315Y881D02*
Y893D01*
X373Y897D02*
X385D01*
X379Y891D02*
Y903D01*
X64Y902D02*
X76D01*
X70Y896D02*
Y908D01*
X29Y500D02*
X41D01*
X35Y494D02*
Y506D01*
X438Y694D02*
X450D01*
X444Y688D02*
Y700D01*
X463Y594D02*
X475D01*
X469Y588D02*
Y600D01*
X463Y719D02*
X475D01*
X469Y713D02*
Y725D01*
X669Y745D02*
X681D01*
X675Y739D02*
Y751D01*
X543Y644D02*
X555D01*
X549Y638D02*
Y650D01*
X264Y381D02*
X276D01*
X270Y375D02*
Y387D01*
X134Y381D02*
X146D01*
X140Y375D02*
Y387D01*
X304Y575D02*
X316D01*
X310Y569D02*
Y581D01*
X239Y537D02*
X251D01*
X245Y531D02*
Y543D01*
X302Y500D02*
X314D01*
X308Y494D02*
Y506D01*
M02*
