G04*
G04 #@! TF.GenerationSoftware,Altium Limited,Altium Designer,24.10.1 (45)*
G04*
G04 Layer_Color=2752767*
%FSLAX23Y23*%
%MOIN*%
G70*
G04*
G04 #@! TF.SameCoordinates,D213B5B1-1682-4A20-B498-33B6BD820803*
G04*
G04*
G04 #@! TF.FilePolarity,Positive*
G04*
G01*
G75*
%ADD62C,0.007*%
%ADD63C,0.005*%
D62*
X70Y80D02*
G03*
X70Y80I-20J0D01*
G01*
X170D02*
G03*
X170Y80I-20J0D01*
G01*
X270D02*
G03*
X270Y80I-20J0D01*
G01*
X370D02*
G03*
X370Y80I-20J0D01*
G01*
X470D02*
G03*
X470Y80I-20J0D01*
G01*
X570D02*
G03*
X570Y80I-20J0D01*
G01*
X670D02*
G03*
X670Y80I-20J0D01*
G01*
X770D02*
G03*
X770Y80I-20J0D01*
G01*
X870D02*
G03*
X870Y80I-20J0D01*
G01*
X970D02*
G03*
X970Y80I-20J0D01*
G01*
X1070D02*
G03*
X1070Y80I-20J0D01*
G01*
X1170D02*
G03*
X1170Y80I-20J0D01*
G01*
X1270D02*
G03*
X1270Y80I-20J0D01*
G01*
X1370D02*
G03*
X1370Y80I-20J0D01*
G01*
X1470D02*
G03*
X1470Y80I-20J0D01*
G01*
X1570D02*
G03*
X1570Y80I-20J0D01*
G01*
X1670D02*
G03*
X1670Y80I-20J0D01*
G01*
X1770D02*
G03*
X1770Y80I-20J0D01*
G01*
X1870D02*
G03*
X1870Y80I-20J0D01*
G01*
X1970D02*
G03*
X1970Y80I-20J0D01*
G01*
X2070D02*
G03*
X2070Y80I-20J0D01*
G01*
X2170D02*
G03*
X2170Y80I-20J0D01*
G01*
X2270D02*
G03*
X2270Y80I-20J0D01*
G01*
X2370D02*
G03*
X2370Y80I-20J0D01*
G01*
X2470D02*
G03*
X2470Y80I-20J0D01*
G01*
X2570D02*
G03*
X2570Y80I-20J0D01*
G01*
X2670D02*
G03*
X2670Y80I-20J0D01*
G01*
X2770D02*
G03*
X2770Y80I-20J0D01*
G01*
X2870D02*
G03*
X2870Y80I-20J0D01*
G01*
X2970D02*
G03*
X2970Y80I-20J0D01*
G01*
X3070D02*
G03*
X3070Y80I-20J0D01*
G01*
X3170D02*
G03*
X3170Y80I-20J0D01*
G01*
Y980D02*
G03*
X3170Y980I-20J0D01*
G01*
X3070D02*
G03*
X3070Y980I-20J0D01*
G01*
X2970D02*
G03*
X2970Y980I-20J0D01*
G01*
X2870D02*
G03*
X2870Y980I-20J0D01*
G01*
X2770D02*
G03*
X2770Y980I-20J0D01*
G01*
X2670D02*
G03*
X2670Y980I-20J0D01*
G01*
X2570D02*
G03*
X2570Y980I-20J0D01*
G01*
X2470D02*
G03*
X2470Y980I-20J0D01*
G01*
X2370D02*
G03*
X2370Y980I-20J0D01*
G01*
X2270D02*
G03*
X2270Y980I-20J0D01*
G01*
X2170D02*
G03*
X2170Y980I-20J0D01*
G01*
X2070D02*
G03*
X2070Y980I-20J0D01*
G01*
X1970D02*
G03*
X1970Y980I-20J0D01*
G01*
X1870D02*
G03*
X1870Y980I-20J0D01*
G01*
X1770D02*
G03*
X1770Y980I-20J0D01*
G01*
X1670D02*
G03*
X1670Y980I-20J0D01*
G01*
X1570D02*
G03*
X1570Y980I-20J0D01*
G01*
X1470D02*
G03*
X1470Y980I-20J0D01*
G01*
X1370D02*
G03*
X1370Y980I-20J0D01*
G01*
X1270D02*
G03*
X1270Y980I-20J0D01*
G01*
X1170D02*
G03*
X1170Y980I-20J0D01*
G01*
X1070D02*
G03*
X1070Y980I-20J0D01*
G01*
X970D02*
G03*
X970Y980I-20J0D01*
G01*
X870D02*
G03*
X870Y980I-20J0D01*
G01*
X770D02*
G03*
X770Y980I-20J0D01*
G01*
X670D02*
G03*
X670Y980I-20J0D01*
G01*
X570D02*
G03*
X570Y980I-20J0D01*
G01*
X470D02*
G03*
X470Y980I-20J0D01*
G01*
X370D02*
G03*
X370Y980I-20J0D01*
G01*
X270D02*
G03*
X270Y980I-20J0D01*
G01*
X170D02*
G03*
X170Y980I-20J0D01*
G01*
X70D02*
G03*
X70Y980I-20J0D01*
G01*
D63*
X2715Y636D02*
X2725Y646D01*
X2735D01*
X2725Y656D01*
X2735Y666D01*
X2725D01*
X2715Y676D01*
X2705Y666D01*
X2695D01*
X2705Y656D01*
X2695Y646D01*
X2705D01*
X2715Y636D01*
X2507Y815D02*
X2517Y825D01*
X2527D01*
X2517Y835D01*
X2527Y845D01*
X2517D01*
X2507Y855D01*
X2497Y845D01*
X2487D01*
X2497Y835D01*
X2487Y825D01*
X2497D01*
X2507Y815D01*
X2740Y805D02*
X2750Y815D01*
X2760D01*
X2750Y825D01*
X2760Y835D01*
X2750D01*
X2740Y845D01*
X2730Y835D01*
X2720D01*
X2730Y825D01*
X2720Y815D01*
X2730D01*
X2740Y805D01*
X2710Y763D02*
X2720Y773D01*
X2730D01*
X2720Y783D01*
X2730Y793D01*
X2720D01*
X2710Y803D01*
X2700Y793D01*
X2690D01*
X2700Y783D01*
X2690Y773D01*
X2700D01*
X2710Y763D01*
X2740Y705D02*
X2750Y715D01*
X2760D01*
X2750Y725D01*
X2760Y735D01*
X2750D01*
X2740Y745D01*
X2730Y735D01*
X2720D01*
X2730Y725D01*
X2720Y715D01*
X2730D01*
X2740Y705D01*
X2710Y687D02*
X2720Y697D01*
X2730D01*
X2720Y707D01*
X2730Y717D01*
X2720D01*
X2710Y727D01*
X2700Y717D01*
X2690D01*
X2700Y707D01*
X2690Y697D01*
X2700D01*
X2710Y687D01*
X2491Y687D02*
X2501Y697D01*
X2511D01*
X2501Y707D01*
X2511Y717D01*
X2501D01*
X2491Y727D01*
X2481Y717D01*
X2471D01*
X2481Y707D01*
X2471Y697D01*
X2481D01*
X2491Y687D01*
X1333Y874D02*
X1343Y884D01*
X1353D01*
X1343Y894D01*
X1353Y904D01*
X1343D01*
X1333Y914D01*
X1323Y904D01*
X1313D01*
X1323Y894D01*
X1313Y884D01*
X1323D01*
X1333Y874D01*
X1650Y885D02*
X1660Y895D01*
X1670D01*
X1660Y905D01*
X1670Y915D01*
X1660D01*
X1650Y925D01*
X1640Y915D01*
X1630D01*
X1640Y905D01*
X1630Y895D01*
X1640D01*
X1650Y885D01*
X1088Y912D02*
X1098Y922D01*
X1108D01*
X1098Y932D01*
X1108Y942D01*
X1098D01*
X1088Y952D01*
X1078Y942D01*
X1068D01*
X1078Y932D01*
X1068Y922D01*
X1078D01*
X1088Y912D01*
X1950Y900D02*
X1960Y910D01*
X1970D01*
X1960Y920D01*
X1970Y930D01*
X1960D01*
X1950Y940D01*
X1940Y930D01*
X1930D01*
X1940Y920D01*
X1930Y910D01*
X1940D01*
X1950Y900D01*
X2178Y904D02*
X2188Y914D01*
X2198D01*
X2188Y924D01*
X2198Y934D01*
X2188D01*
X2178Y944D01*
X2168Y934D01*
X2158D01*
X2168Y924D01*
X2158Y914D01*
X2168D01*
X2178Y904D01*
X2195Y706D02*
X2205Y716D01*
X2215D01*
X2205Y726D01*
X2215Y736D01*
X2205D01*
X2195Y746D01*
X2185Y736D01*
X2175D01*
X2185Y726D01*
X2175Y716D01*
X2185D01*
X2195Y706D01*
X2422Y904D02*
X2432Y914D01*
X2442D01*
X2432Y924D01*
X2442Y934D01*
X2432D01*
X2422Y944D01*
X2412Y934D01*
X2402D01*
X2412Y924D01*
X2402Y914D01*
X2412D01*
X2422Y904D01*
X2805D02*
X2815Y914D01*
X2825D01*
X2815Y924D01*
X2825Y934D01*
X2815D01*
X2805Y944D01*
X2795Y934D01*
X2785D01*
X2795Y924D01*
X2785Y914D01*
X2795D01*
X2805Y904D01*
X2374D02*
X2384Y914D01*
X2394D01*
X2384Y924D01*
X2394Y934D01*
X2384D01*
X2374Y944D01*
X2364Y934D01*
X2354D01*
X2364Y924D01*
X2354Y914D01*
X2364D01*
X2374Y904D01*
X414Y109D02*
X424Y119D01*
X434D01*
X424Y129D01*
X434Y139D01*
X424D01*
X414Y149D01*
X404Y139D01*
X394D01*
X404Y129D01*
X394Y119D01*
X404D01*
X414Y109D01*
X2050Y892D02*
X2060Y902D01*
X2070D01*
X2060Y912D01*
X2070Y922D01*
X2060D01*
X2050Y932D01*
X2040Y922D01*
X2030D01*
X2040Y912D01*
X2030Y902D01*
X2040D01*
X2050Y892D01*
X2270Y900D02*
X2280Y910D01*
X2290D01*
X2280Y920D01*
X2290Y930D01*
X2280D01*
X2270Y940D01*
X2260Y930D01*
X2250D01*
X2260Y920D01*
X2250Y910D01*
X2260D01*
X2270Y900D01*
X2316D02*
X2326Y910D01*
X2336D01*
X2326Y920D01*
X2336Y930D01*
X2326D01*
X2316Y940D01*
X2306Y930D01*
X2296D01*
X2306Y920D01*
X2296Y910D01*
X2306D01*
X2316Y900D01*
X426Y894D02*
X436Y904D01*
X446D01*
X436Y914D01*
X446Y924D01*
X436D01*
X426Y934D01*
X416Y924D01*
X406D01*
X416Y914D01*
X406Y904D01*
X416D01*
X426Y894D01*
X637Y892D02*
X647Y902D01*
X657D01*
X647Y912D01*
X657Y922D01*
X647D01*
X637Y932D01*
X627Y922D01*
X617D01*
X627Y912D01*
X617Y902D01*
X627D01*
X637Y892D01*
X2038Y631D02*
X2048Y641D01*
X2058D01*
X2048Y651D01*
X2058Y661D01*
X2048D01*
X2038Y671D01*
X2028Y661D01*
X2018D01*
X2028Y651D01*
X2018Y641D01*
X2028D01*
X2038Y631D01*
X1244Y427D02*
X1254Y437D01*
X1264D01*
X1254Y447D01*
X1264Y457D01*
X1254D01*
X1244Y467D01*
X1234Y457D01*
X1224D01*
X1234Y447D01*
X1224Y437D01*
X1234D01*
X1244Y427D01*
X2700Y140D02*
X2710Y150D01*
X2720D01*
X2710Y160D01*
X2720Y170D01*
X2710D01*
X2700Y180D01*
X2690Y170D01*
X2680D01*
X2690Y160D01*
X2680Y150D01*
X2690D01*
X2700Y140D01*
X2407D02*
X2417Y150D01*
X2427D01*
X2417Y160D01*
X2427Y170D01*
X2417D01*
X2407Y180D01*
X2397Y170D01*
X2387D01*
X2397Y160D01*
X2387Y150D01*
X2397D01*
X2407Y140D01*
X2700Y575D02*
X2710Y585D01*
X2720D01*
X2710Y595D01*
X2720Y605D01*
X2710D01*
X2700Y615D01*
X2690Y605D01*
X2680D01*
X2690Y595D01*
X2680Y585D01*
X2690D01*
X2700Y575D01*
X2407Y569D02*
X2417Y579D01*
X2427D01*
X2417Y589D01*
X2427Y599D01*
X2417D01*
X2407Y609D01*
X2397Y599D01*
X2387D01*
X2397Y589D01*
X2387Y579D01*
X2397D01*
X2407Y569D01*
X1346Y521D02*
X1356Y531D01*
X1366D01*
X1356Y541D01*
X1366Y551D01*
X1356D01*
X1346Y561D01*
X1336Y551D01*
X1326D01*
X1336Y541D01*
X1326Y531D01*
X1336D01*
X1346Y521D01*
X180Y607D02*
X190Y617D01*
X200D01*
X190Y627D01*
X200Y637D01*
X190D01*
X180Y647D01*
X170Y637D01*
X160D01*
X170Y627D01*
X160Y617D01*
X170D01*
X180Y607D01*
X1617Y428D02*
X1627Y438D01*
X1637D01*
X1627Y448D01*
X1637Y458D01*
X1627D01*
X1617Y468D01*
X1607Y458D01*
X1597D01*
X1607Y448D01*
X1597Y438D01*
X1607D01*
X1617Y428D01*
X869Y197D02*
X879Y207D01*
X889D01*
X879Y217D01*
X889Y227D01*
X879D01*
X869Y237D01*
X859Y227D01*
X849D01*
X859Y217D01*
X849Y207D01*
X859D01*
X869Y197D01*
X1000Y297D02*
X1010Y307D01*
X1020D01*
X1010Y317D01*
X1020Y327D01*
X1010D01*
X1000Y337D01*
X990Y327D01*
X980D01*
X990Y317D01*
X980Y307D01*
X990D01*
X1000Y297D01*
X1324Y238D02*
X1334Y248D01*
X1344D01*
X1334Y258D01*
X1344Y268D01*
X1334D01*
X1324Y278D01*
X1314Y268D01*
X1304D01*
X1314Y258D01*
X1304Y248D01*
X1314D01*
X1324Y238D01*
X2492Y738D02*
X2502Y748D01*
X2512D01*
X2502Y758D01*
X2512Y768D01*
X2502D01*
X2492Y778D01*
X2482Y768D01*
X2472D01*
X2482Y758D01*
X2472Y748D01*
X2482D01*
X2492Y738D01*
X3080Y805D02*
X3090Y815D01*
X3100D01*
X3090Y825D01*
X3100Y835D01*
X3090D01*
X3080Y845D01*
X3070Y835D01*
X3060D01*
X3070Y825D01*
X3060Y815D01*
X3070D01*
X3080Y805D01*
X2803Y227D02*
X2813Y237D01*
X2823D01*
X2813Y247D01*
X2823Y257D01*
X2813D01*
X2803Y267D01*
X2793Y257D01*
X2783D01*
X2793Y247D01*
X2783Y237D01*
X2793D01*
X2803Y227D01*
X2715Y330D02*
X2725Y340D01*
X2735D01*
X2725Y350D01*
X2735Y360D01*
X2725D01*
X2715Y370D01*
X2705Y360D01*
X2695D01*
X2705Y350D01*
X2695Y340D01*
X2705D01*
X2715Y330D01*
X735Y195D02*
X745Y205D01*
X755D01*
X745Y215D01*
X755Y225D01*
X745D01*
X735Y235D01*
X725Y225D01*
X715D01*
X725Y215D01*
X715Y205D01*
X725D01*
X735Y195D01*
X579Y197D02*
X589Y207D01*
X599D01*
X589Y217D01*
X599Y227D01*
X589D01*
X579Y237D01*
X569Y227D01*
X559D01*
X569Y217D01*
X559Y207D01*
X569D01*
X579Y197D01*
X2927Y745D02*
X2937Y755D01*
X2947D01*
X2937Y765D01*
X2947Y775D01*
X2937D01*
X2927Y785D01*
X2917Y775D01*
X2907D01*
X2917Y765D01*
X2907Y755D01*
X2917D01*
X2927Y745D01*
X2390Y763D02*
X2400Y773D01*
X2410D01*
X2400Y783D01*
X2410Y793D01*
X2400D01*
X2390Y803D01*
X2380Y793D01*
X2370D01*
X2380Y783D01*
X2370Y773D01*
X2380D01*
X2390Y763D01*
X1750Y885D02*
X1760Y895D01*
X1770D01*
X1760Y905D01*
X1770Y915D01*
X1760D01*
X1750Y925D01*
X1740Y915D01*
X1730D01*
X1740Y905D01*
X1730Y895D01*
X1740D01*
X1750Y885D01*
X1346Y822D02*
X1356Y832D01*
X1366D01*
X1356Y842D01*
X1366Y852D01*
X1356D01*
X1346Y862D01*
X1336Y852D01*
X1326D01*
X1336Y842D01*
X1326Y832D01*
X1336D01*
X1346Y822D01*
X1436Y522D02*
X1446Y532D01*
X1456D01*
X1446Y542D01*
X1456Y552D01*
X1446D01*
X1436Y562D01*
X1426Y552D01*
X1416D01*
X1426Y542D01*
X1416Y532D01*
X1426D01*
X1436Y522D01*
Y822D02*
X1446Y832D01*
X1456D01*
X1446Y842D01*
X1456Y852D01*
X1446D01*
X1436Y862D01*
X1426Y852D01*
X1416D01*
X1426Y842D01*
X1416Y832D01*
X1426D01*
X1436Y822D01*
X1436Y188D02*
X1446Y198D01*
X1456D01*
X1446Y208D01*
X1456Y218D01*
X1446D01*
X1436Y228D01*
X1426Y218D01*
X1416D01*
X1426Y208D01*
X1416Y198D01*
X1426D01*
X1436Y188D01*
X1646Y538D02*
X1656Y548D01*
X1666D01*
X1656Y558D01*
X1666Y568D01*
X1656D01*
X1646Y578D01*
X1636Y568D01*
X1626D01*
X1636Y558D01*
X1626Y548D01*
X1636D01*
X1646Y538D01*
X1645Y572D02*
X1655Y582D01*
X1665D01*
X1655Y592D01*
X1665Y602D01*
X1655D01*
X1645Y612D01*
X1635Y602D01*
X1625D01*
X1635Y592D01*
X1625Y582D01*
X1635D01*
X1645Y572D01*
X1646Y612D02*
X1656Y622D01*
X1666D01*
X1656Y632D01*
X1666Y642D01*
X1656D01*
X1646Y652D01*
X1636Y642D01*
X1626D01*
X1636Y632D01*
X1626Y622D01*
X1636D01*
X1646Y612D01*
X2390Y710D02*
X2400Y720D01*
X2410D01*
X2400Y730D01*
X2410Y740D01*
X2400D01*
X2390Y750D01*
X2380Y740D01*
X2370D01*
X2380Y730D01*
X2370Y720D01*
X2380D01*
X2390Y710D01*
X1065Y404D02*
X1075Y414D01*
X1085D01*
X1075Y424D01*
X1085Y434D01*
X1075D01*
X1065Y444D01*
X1055Y434D01*
X1045D01*
X1055Y424D01*
X1045Y414D01*
X1055D01*
X1065Y404D01*
X1324Y315D02*
X1334Y325D01*
X1344D01*
X1334Y335D01*
X1344Y345D01*
X1334D01*
X1324Y355D01*
X1314Y345D01*
X1304D01*
X1314Y335D01*
X1304Y325D01*
X1314D01*
X1324Y315D01*
X1552Y264D02*
X1562Y274D01*
X1572D01*
X1562Y284D01*
X1572Y294D01*
X1562D01*
X1552Y304D01*
X1542Y294D01*
X1532D01*
X1542Y284D01*
X1532Y274D01*
X1542D01*
X1552Y264D01*
X1577Y290D02*
X1587Y300D01*
X1597D01*
X1587Y310D01*
X1597Y320D01*
X1587D01*
X1577Y330D01*
X1567Y320D01*
X1557D01*
X1567Y310D01*
X1557Y300D01*
X1567D01*
X1577Y290D01*
X1554Y315D02*
X1564Y325D01*
X1574D01*
X1564Y335D01*
X1574Y345D01*
X1564D01*
X1554Y355D01*
X1544Y345D01*
X1534D01*
X1544Y335D01*
X1534Y325D01*
X1544D01*
X1554Y315D01*
X1573Y239D02*
X1583Y249D01*
X1593D01*
X1583Y259D01*
X1593Y269D01*
X1583D01*
X1573Y279D01*
X1563Y269D01*
X1553D01*
X1563Y259D01*
X1553Y249D01*
X1563D01*
X1573Y239D01*
X2949Y706D02*
X2959Y716D01*
X2969D01*
X2959Y726D01*
X2969Y736D01*
X2959D01*
X2949Y746D01*
X2939Y736D01*
X2929D01*
X2939Y726D01*
X2929Y716D01*
X2939D01*
X2949Y706D01*
X2241Y630D02*
X2251Y640D01*
X2261D01*
X2251Y650D01*
X2261Y660D01*
X2251D01*
X2241Y670D01*
X2231Y660D01*
X2221D01*
X2231Y650D01*
X2221Y640D01*
X2231D01*
X2241Y630D01*
X2870Y805D02*
X2880Y815D01*
X2890D01*
X2880Y825D01*
X2890Y835D01*
X2880D01*
X2870Y845D01*
X2860Y835D01*
X2850D01*
X2860Y825D01*
X2850Y815D01*
X2860D01*
X2870Y805D01*
X2601Y815D02*
X2611Y825D01*
X2621D01*
X2611Y835D01*
X2621Y845D01*
X2611D01*
X2601Y855D01*
X2591Y845D01*
X2581D01*
X2591Y835D01*
X2581Y825D01*
X2591D01*
X2601Y815D01*
X2392Y636D02*
X2402Y646D01*
X2412D01*
X2402Y656D01*
X2412Y666D01*
X2402D01*
X2392Y676D01*
X2382Y666D01*
X2372D01*
X2382Y656D01*
X2372Y646D01*
X2382D01*
X2392Y636D01*
X1551Y367D02*
X1561Y377D01*
X1571D01*
X1561Y387D01*
X1571Y397D01*
X1561D01*
X1551Y407D01*
X1541Y397D01*
X1531D01*
X1541Y387D01*
X1531Y377D01*
X1541D01*
X1551Y367D01*
X1228Y367D02*
X1238Y377D01*
X1248D01*
X1238Y387D01*
X1248Y397D01*
X1238D01*
X1228Y407D01*
X1218Y397D01*
X1208D01*
X1218Y387D01*
X1208Y377D01*
X1218D01*
X1228Y367D01*
X1342Y187D02*
X1352Y197D01*
X1362D01*
X1352Y207D01*
X1362Y217D01*
X1352D01*
X1342Y227D01*
X1332Y217D01*
X1322D01*
X1332Y207D01*
X1322Y197D01*
X1332D01*
X1342Y187D01*
X1005Y566D02*
X1015Y576D01*
X1025D01*
X1015Y586D01*
X1025Y596D01*
X1015D01*
X1005Y606D01*
X995Y596D01*
X985D01*
X995Y586D01*
X985Y576D01*
X995D01*
X1005Y566D01*
X873Y524D02*
X883Y534D01*
X893D01*
X883Y544D01*
X893Y554D01*
X883D01*
X873Y564D01*
X863Y554D01*
X853D01*
X863Y544D01*
X853Y534D01*
X863D01*
X873Y524D01*
X1957Y745D02*
X1967Y755D01*
X1977D01*
X1967Y765D01*
X1977Y775D01*
X1967D01*
X1957Y785D01*
X1947Y775D01*
X1937D01*
X1947Y765D01*
X1937Y755D01*
X1947D01*
X1957Y745D01*
X2241Y838D02*
X2251Y848D01*
X2261D01*
X2251Y858D01*
X2261Y868D01*
X2251D01*
X2241Y878D01*
X2231Y868D01*
X2221D01*
X2231Y858D01*
X2221Y848D01*
X2231D01*
X2241Y838D01*
X1957Y644D02*
X1967Y654D01*
X1977D01*
X1967Y664D01*
X1977Y674D01*
X1967D01*
X1957Y684D01*
X1947Y674D01*
X1937D01*
X1947Y664D01*
X1937Y654D01*
X1947D01*
X1957Y644D01*
X2845Y535D02*
X2855Y545D01*
X2865D01*
X2855Y555D01*
X2865Y565D01*
X2855D01*
X2845Y575D01*
X2835Y565D01*
X2825D01*
X2835Y555D01*
X2825Y545D01*
X2835D01*
X2845Y535D01*
X2858Y389D02*
X2868Y399D01*
X2878D01*
X2868Y409D01*
X2878Y419D01*
X2868D01*
X2858Y429D01*
X2848Y419D01*
X2838D01*
X2848Y409D01*
X2838Y399D01*
X2848D01*
X2858Y389D01*
X3154Y789D02*
X3164Y799D01*
X3174D01*
X3164Y809D01*
X3174Y819D01*
X3164D01*
X3154Y829D01*
X3144Y819D01*
X3134D01*
X3144Y809D01*
X3134Y799D01*
X3144D01*
X3154Y789D01*
Y690D02*
X3164Y700D01*
X3174D01*
X3164Y710D01*
X3174Y720D01*
X3164D01*
X3154Y730D01*
X3144Y720D01*
X3134D01*
X3144Y710D01*
X3134Y700D01*
X3144D01*
X3154Y690D01*
X2870Y598D02*
X2880Y608D01*
X2890D01*
X2880Y618D01*
X2890Y628D01*
X2880D01*
X2870Y638D01*
X2860Y628D01*
X2850D01*
X2860Y618D01*
X2850Y608D01*
X2860D01*
X2870Y598D01*
X2803Y189D02*
X2813Y199D01*
X2823D01*
X2813Y209D01*
X2823Y219D01*
X2813D01*
X2803Y229D01*
X2793Y219D01*
X2783D01*
X2793Y209D01*
X2783Y199D01*
X2793D01*
X2803Y189D01*
X2303D02*
X2313Y199D01*
X2323D01*
X2313Y209D01*
X2323Y219D01*
X2313D01*
X2303Y229D01*
X2293Y219D01*
X2283D01*
X2293Y209D01*
X2283Y199D01*
X2293D01*
X2303Y189D01*
X2241Y265D02*
X2251Y275D01*
X2261D01*
X2251Y285D01*
X2261Y295D01*
X2251D01*
X2241Y305D01*
X2231Y295D01*
X2221D01*
X2231Y285D01*
X2221Y275D01*
X2231D01*
X2241Y265D01*
X2298Y350D02*
X2308Y360D01*
X2318D01*
X2308Y370D01*
X2318Y380D01*
X2308D01*
X2298Y390D01*
X2288Y380D01*
X2278D01*
X2288Y370D01*
X2278Y360D01*
X2288D01*
X2298Y350D01*
X2303Y389D02*
X2313Y399D01*
X2323D01*
X2313Y409D01*
X2323Y419D01*
X2313D01*
X2303Y429D01*
X2293Y419D01*
X2283D01*
X2293Y409D01*
X2283Y399D01*
X2293D01*
X2303Y389D01*
Y466D02*
X2313Y476D01*
X2323D01*
X2313Y486D01*
X2323Y496D01*
X2313D01*
X2303Y506D01*
X2293Y496D01*
X2283D01*
X2293Y486D01*
X2283Y476D01*
X2293D01*
X2303Y466D01*
Y428D02*
X2313Y438D01*
X2323D01*
X2313Y448D01*
X2323Y458D01*
X2313D01*
X2303Y468D01*
X2293Y458D01*
X2283D01*
X2293Y448D01*
X2283Y438D01*
X2293D01*
X2303Y428D01*
X2298Y305D02*
X2308Y315D01*
X2318D01*
X2308Y325D01*
X2318Y335D01*
X2308D01*
X2298Y345D01*
X2288Y335D01*
X2278D01*
X2288Y325D01*
X2278Y315D01*
X2288D01*
X2298Y305D01*
X2303Y227D02*
X2313Y237D01*
X2323D01*
X2313Y247D01*
X2323Y257D01*
X2313D01*
X2303Y267D01*
X2293Y257D01*
X2283D01*
X2293Y247D01*
X2283Y237D01*
X2293D01*
X2303Y227D01*
X1987Y358D02*
X1997Y368D01*
X2007D01*
X1997Y378D01*
X2007Y388D01*
X1997D01*
X1987Y398D01*
X1977Y388D01*
X1967D01*
X1977Y378D01*
X1967Y368D01*
X1977D01*
X1987Y358D01*
X2803Y265D02*
X2813Y275D01*
X2823D01*
X2813Y285D01*
X2823Y295D01*
X2813D01*
X2803Y305D01*
X2793Y295D01*
X2783D01*
X2793Y285D01*
X2783Y275D01*
X2793D01*
X2803Y265D01*
X1987Y257D02*
X1997Y267D01*
X2007D01*
X1997Y277D01*
X2007Y287D01*
X1997D01*
X1987Y297D01*
X1977Y287D01*
X1967D01*
X1977Y277D01*
X1967Y267D01*
X1977D01*
X1987Y257D01*
X2390Y305D02*
X2400Y315D01*
X2410D01*
X2400Y325D01*
X2410Y335D01*
X2400D01*
X2390Y345D01*
X2380Y335D01*
X2370D01*
X2380Y325D01*
X2370Y315D01*
X2380D01*
X2390Y305D01*
X2802Y466D02*
X2812Y476D01*
X2822D01*
X2812Y486D01*
X2822Y496D01*
X2812D01*
X2802Y506D01*
X2792Y496D01*
X2782D01*
X2792Y486D01*
X2782Y476D01*
X2792D01*
X2802Y466D01*
X2602Y480D02*
X2612Y490D01*
X2622D01*
X2612Y500D01*
X2622Y510D01*
X2612D01*
X2602Y520D01*
X2592Y510D01*
X2582D01*
X2592Y500D01*
X2582Y490D01*
X2592D01*
X2602Y480D01*
X2800Y535D02*
X2810Y545D01*
X2820D01*
X2810Y555D01*
X2820Y565D01*
X2810D01*
X2800Y575D01*
X2790Y565D01*
X2780D01*
X2790Y555D01*
X2780Y545D01*
X2790D01*
X2800Y535D01*
X2773Y361D02*
X2783Y371D01*
X2793D01*
X2783Y381D01*
X2793Y391D01*
X2783D01*
X2773Y401D01*
X2763Y391D01*
X2753D01*
X2763Y381D01*
X2753Y371D01*
X2763D01*
X2773Y361D01*
X2800Y428D02*
X2810Y438D01*
X2820D01*
X2810Y448D01*
X2820Y458D01*
X2810D01*
X2800Y468D01*
X2790Y458D01*
X2780D01*
X2790Y448D01*
X2780Y438D01*
X2790D01*
X2800Y428D01*
X2505Y180D02*
X2515Y190D01*
X2525D01*
X2515Y200D01*
X2525Y210D01*
X2515D01*
X2505Y220D01*
X2495Y210D01*
X2485D01*
X2495Y200D01*
X2485Y190D01*
X2495D01*
X2505Y180D01*
Y480D02*
X2515Y490D01*
X2525D01*
X2515Y500D01*
X2525Y510D01*
X2515D01*
X2505Y520D01*
X2495Y510D01*
X2485D01*
X2495Y500D01*
X2485Y490D01*
X2495D01*
X2505Y480D01*
X2602Y180D02*
X2612Y190D01*
X2622D01*
X2612Y200D01*
X2622Y210D01*
X2612D01*
X2602Y220D01*
X2592Y210D01*
X2582D01*
X2592Y200D01*
X2582Y190D01*
X2592D01*
X2602Y180D01*
X1099Y467D02*
X1109Y477D01*
X1119D01*
X1109Y487D01*
X1119Y497D01*
X1109D01*
X1099Y507D01*
X1089Y497D01*
X1079D01*
X1089Y487D01*
X1079Y477D01*
X1089D01*
X1099Y467D01*
X893Y567D02*
X903Y577D01*
X913D01*
X903Y587D01*
X913Y597D01*
X903D01*
X893Y607D01*
X883Y597D01*
X873D01*
X883Y587D01*
X873Y577D01*
X883D01*
X893Y567D01*
X957Y603D02*
X967Y613D01*
X977D01*
X967Y623D01*
X977Y633D01*
X967D01*
X957Y643D01*
X947Y633D01*
X937D01*
X947Y623D01*
X937Y613D01*
X947D01*
X957Y603D01*
X1646Y652D02*
X1656Y662D01*
X1666D01*
X1656Y672D01*
X1666Y682D01*
X1656D01*
X1646Y692D01*
X1636Y682D01*
X1626D01*
X1636Y672D01*
X1626Y662D01*
X1636D01*
X1646Y652D01*
X1171Y641D02*
X1181Y651D01*
X1191D01*
X1181Y661D01*
X1191Y671D01*
X1181D01*
X1171Y681D01*
X1161Y671D01*
X1151D01*
X1161Y661D01*
X1151Y651D01*
X1161D01*
X1171Y641D01*
X1144Y574D02*
X1154Y584D01*
X1164D01*
X1154Y594D01*
X1164Y604D01*
X1154D01*
X1144Y614D01*
X1134Y604D01*
X1124D01*
X1134Y594D01*
X1124Y584D01*
X1134D01*
X1144Y574D01*
X1086Y613D02*
X1096Y623D01*
X1106D01*
X1096Y633D01*
X1106Y643D01*
X1096D01*
X1086Y653D01*
X1076Y643D01*
X1066D01*
X1076Y633D01*
X1066Y623D01*
X1076D01*
X1086Y613D01*
X1703Y164D02*
X1713Y174D01*
X1723D01*
X1713Y184D01*
X1723Y194D01*
X1713D01*
X1703Y204D01*
X1693Y194D01*
X1683D01*
X1693Y184D01*
X1683Y174D01*
X1693D01*
X1703Y164D01*
X1204Y297D02*
X1214Y307D01*
X1224D01*
X1214Y317D01*
X1224Y327D01*
X1214D01*
X1204Y337D01*
X1194Y327D01*
X1184D01*
X1194Y317D01*
X1184Y307D01*
X1194D01*
X1204Y297D01*
X1204Y197D02*
X1214Y207D01*
X1224D01*
X1214Y217D01*
X1224Y227D01*
X1214D01*
X1204Y237D01*
X1194Y227D01*
X1184D01*
X1194Y217D01*
X1184Y207D01*
X1194D01*
X1204Y197D01*
X1144Y467D02*
X1154Y477D01*
X1164D01*
X1154Y487D01*
X1164Y497D01*
X1154D01*
X1144Y507D01*
X1134Y497D01*
X1124D01*
X1134Y487D01*
X1124Y477D01*
X1134D01*
X1144Y467D01*
X1143Y536D02*
X1153Y546D01*
X1163D01*
X1153Y556D01*
X1163Y566D01*
X1153D01*
X1143Y576D01*
X1133Y566D01*
X1122D01*
X1133Y556D01*
X1122Y546D01*
X1133D01*
X1143Y536D01*
X790Y312D02*
X800Y322D01*
X810D01*
X800Y332D01*
X810Y342D01*
X800D01*
X790Y352D01*
X780Y342D01*
X770D01*
X780Y332D01*
X770Y322D01*
X780D01*
X790Y312D01*
X1074Y197D02*
X1084Y207D01*
X1094D01*
X1084Y217D01*
X1094Y227D01*
X1084D01*
X1074Y237D01*
X1064Y227D01*
X1054D01*
X1064Y217D01*
X1054Y207D01*
X1064D01*
X1074Y197D01*
X818Y198D02*
X828Y208D01*
X838D01*
X828Y218D01*
X838Y228D01*
X828D01*
X818Y238D01*
X808Y228D01*
X798D01*
X808Y218D01*
X798Y208D01*
X808D01*
X818Y198D01*
X1703Y737D02*
X1713Y747D01*
X1723D01*
X1713Y757D01*
X1723Y767D01*
X1713D01*
X1703Y777D01*
X1693Y767D01*
X1683D01*
X1693Y757D01*
X1683Y747D01*
X1693D01*
X1703Y737D01*
X1646Y697D02*
X1656Y707D01*
X1666D01*
X1656Y717D01*
X1666Y727D01*
X1656D01*
X1646Y737D01*
X1636Y727D01*
X1626D01*
X1636Y717D01*
X1626Y707D01*
X1636D01*
X1646Y697D01*
X1141Y737D02*
X1151Y747D01*
X1161D01*
X1151Y757D01*
X1161Y767D01*
X1151D01*
X1141Y777D01*
X1131Y767D01*
X1121D01*
X1131Y757D01*
X1121Y747D01*
X1131D01*
X1141Y737D01*
Y813D02*
X1151Y823D01*
X1161D01*
X1151Y833D01*
X1161Y843D01*
X1151D01*
X1141Y853D01*
X1131Y843D01*
X1121D01*
X1131Y833D01*
X1121Y823D01*
X1131D01*
X1141Y813D01*
Y775D02*
X1151Y785D01*
X1161D01*
X1151Y795D01*
X1161Y805D01*
X1151D01*
X1141Y815D01*
X1131Y805D01*
X1121D01*
X1131Y795D01*
X1121Y785D01*
X1131D01*
X1141Y775D01*
X1704Y371D02*
X1714Y381D01*
X1724D01*
X1714Y391D01*
X1724Y401D01*
X1714D01*
X1704Y411D01*
X1694Y401D01*
X1684D01*
X1694Y391D01*
X1684Y381D01*
X1694D01*
X1704Y371D01*
X1674Y102D02*
X1684Y112D01*
X1694D01*
X1684Y122D01*
X1694Y132D01*
X1684D01*
X1674Y142D01*
X1664Y132D01*
X1654D01*
X1664Y122D01*
X1654Y112D01*
X1664D01*
X1674Y102D01*
X1641Y813D02*
X1651Y823D01*
X1661D01*
X1651Y833D01*
X1661Y843D01*
X1651D01*
X1641Y853D01*
X1631Y843D01*
X1621D01*
X1631Y833D01*
X1621Y823D01*
X1631D01*
X1641Y813D01*
Y775D02*
X1651Y785D01*
X1661D01*
X1651Y795D01*
X1661Y805D01*
X1651D01*
X1641Y815D01*
X1631Y805D01*
X1621D01*
X1631Y795D01*
X1621Y785D01*
X1631D01*
X1641Y775D01*
X1629Y102D02*
X1639Y112D01*
X1649D01*
X1639Y122D01*
X1649Y132D01*
X1639D01*
X1629Y142D01*
X1619Y132D01*
X1609D01*
X1619Y122D01*
X1609Y112D01*
X1619D01*
X1629Y102D01*
X957Y652D02*
X967Y662D01*
X977D01*
X967Y672D01*
X977Y682D01*
X967D01*
X957Y692D01*
X947Y682D01*
X937D01*
X947Y672D01*
X937Y662D01*
X947D01*
X957Y652D01*
Y699D02*
X967Y709D01*
X977D01*
X967Y719D01*
X977Y729D01*
X967D01*
X957Y739D01*
X947Y729D01*
X937D01*
X947Y719D01*
X937Y709D01*
X947D01*
X957Y699D01*
X1554Y697D02*
X1564Y707D01*
X1574D01*
X1564Y717D01*
X1574Y727D01*
X1564D01*
X1554Y737D01*
X1544Y727D01*
X1534D01*
X1544Y717D01*
X1534Y707D01*
X1544D01*
X1554Y697D01*
X1234Y672D02*
X1244Y682D01*
X1254D01*
X1244Y692D01*
X1254Y702D01*
X1244D01*
X1234Y712D01*
X1224Y702D01*
X1214D01*
X1224Y692D01*
X1214Y682D01*
X1224D01*
X1234Y672D01*
X35Y517D02*
X45Y527D01*
X55D01*
X45Y537D01*
X55Y547D01*
X45D01*
X35Y557D01*
X25Y547D01*
X15D01*
X25Y537D01*
X15Y527D01*
X25D01*
X35Y517D01*
X310Y691D02*
X320Y701D01*
X330D01*
X320Y711D01*
X330Y721D01*
X320D01*
X310Y731D01*
X300Y721D01*
X290D01*
X300Y711D01*
X290Y701D01*
X300D01*
X310Y691D01*
X110D02*
X120Y701D01*
X130D01*
X120Y711D01*
X130Y721D01*
X120D01*
X110Y731D01*
X100Y721D01*
X90D01*
X100Y711D01*
X90Y701D01*
X100D01*
X110Y691D01*
X315Y760D02*
X325Y770D01*
X335D01*
X325Y780D01*
X335Y790D01*
X325D01*
X315Y800D01*
X305Y790D01*
X295D01*
X305Y780D01*
X295Y770D01*
X305D01*
X315Y760D01*
X70Y709D02*
X80Y719D01*
X90D01*
X80Y729D01*
X90Y739D01*
X80D01*
X70Y749D01*
X60Y739D01*
X50D01*
X60Y729D01*
X50Y719D01*
X60D01*
X70Y709D01*
X379Y727D02*
X389Y737D01*
X399D01*
X389Y747D01*
X399Y757D01*
X389D01*
X379Y767D01*
X369Y757D01*
X359D01*
X369Y747D01*
X359Y737D01*
X369D01*
X379Y727D01*
X315Y867D02*
X325Y877D01*
X335D01*
X325Y887D01*
X335Y897D01*
X325D01*
X315Y907D01*
X305Y897D01*
X295D01*
X305Y887D01*
X295Y877D01*
X305D01*
X315Y867D01*
X379Y877D02*
X389Y887D01*
X399D01*
X389Y897D01*
X399Y907D01*
X389D01*
X379Y917D01*
X369Y907D01*
X359D01*
X369Y897D01*
X359Y887D01*
X369D01*
X379Y877D01*
X70Y882D02*
X80Y892D01*
X90D01*
X80Y902D01*
X90Y912D01*
X80D01*
X70Y922D01*
X60Y912D01*
X50D01*
X60Y902D01*
X50Y892D01*
X60D01*
X70Y882D01*
X35Y480D02*
X45Y490D01*
X55D01*
X45Y500D01*
X55Y510D01*
X45D01*
X35Y520D01*
X25Y510D01*
X15D01*
X25Y500D01*
X15Y490D01*
X25D01*
X35Y480D01*
X444Y674D02*
X454Y684D01*
X464D01*
X454Y694D01*
X464Y704D01*
X454D01*
X444Y714D01*
X434Y704D01*
X424D01*
X434Y694D01*
X424Y684D01*
X434D01*
X444Y674D01*
X469Y574D02*
X479Y584D01*
X489D01*
X479Y594D01*
X489Y604D01*
X479D01*
X469Y614D01*
X459Y604D01*
X449D01*
X459Y594D01*
X449Y584D01*
X459D01*
X469Y574D01*
Y699D02*
X479Y709D01*
X489D01*
X479Y719D01*
X489Y729D01*
X479D01*
X469Y739D01*
X459Y729D01*
X449D01*
X459Y719D01*
X449Y709D01*
X459D01*
X469Y699D01*
X675Y725D02*
X685Y735D01*
X695D01*
X685Y745D01*
X695Y755D01*
X685D01*
X675Y765D01*
X665Y755D01*
X655D01*
X665Y745D01*
X655Y735D01*
X665D01*
X675Y725D01*
X549Y624D02*
X559Y634D01*
X569D01*
X559Y644D01*
X569Y654D01*
X559D01*
X549Y664D01*
X539Y654D01*
X529D01*
X539Y644D01*
X529Y634D01*
X539D01*
X549Y624D01*
X270Y361D02*
X280Y371D01*
X290D01*
X280Y381D01*
X290Y391D01*
X280D01*
X270Y401D01*
X260Y391D01*
X250D01*
X260Y381D01*
X250Y371D01*
X260D01*
X270Y361D01*
X140D02*
X150Y371D01*
X160D01*
X150Y381D01*
X160Y391D01*
X150D01*
X140Y401D01*
X130Y391D01*
X120D01*
X130Y381D01*
X120Y371D01*
X130D01*
X140Y361D01*
X310Y555D02*
X320Y565D01*
X330D01*
X320Y575D01*
X330Y585D01*
X320D01*
X310Y595D01*
X300Y585D01*
X290D01*
X300Y575D01*
X290Y565D01*
X300D01*
X310Y555D01*
X245Y517D02*
X255Y527D01*
X265D01*
X255Y537D01*
X265Y547D01*
X255D01*
X245Y557D01*
X235Y547D01*
X225D01*
X235Y537D01*
X225Y527D01*
X235D01*
X245Y517D01*
X308Y480D02*
X318Y490D01*
X328D01*
X318Y500D01*
X328Y510D01*
X318D01*
X308Y520D01*
X298Y510D01*
X288D01*
X298Y500D01*
X288Y490D01*
X298D01*
X308Y480D01*
M02*
