G04*
G04 #@! TF.GenerationSoftware,Altium Limited,Altium Designer,24.10.1 (45)*
G04*
G04 Layer_Physical_Order=4*
G04 Layer_Color=16711680*
%FSLAX25Y25*%
%MOIN*%
G70*
G04*
G04 #@! TF.SameCoordinates,03E2E392-DBF2-472E-9E2B-85BB54492463*
G04*
G04*
G04 #@! TF.FilePolarity,Positive*
G04*
G01*
G75*
%ADD11C,0.01000*%
%ADD51C,0.02200*%
%ADD54C,0.05906*%
G04:AMPARAMS|DCode=55|XSize=59.06mil|YSize=59.06mil|CornerRadius=14.76mil|HoleSize=0mil|Usage=FLASHONLY|Rotation=0.000|XOffset=0mil|YOffset=0mil|HoleType=Round|Shape=RoundedRectangle|*
%AMROUNDEDRECTD55*
21,1,0.05906,0.02953,0,0,0.0*
21,1,0.02953,0.05906,0,0,0.0*
1,1,0.02953,0.01476,-0.01476*
1,1,0.02953,-0.01476,-0.01476*
1,1,0.02953,-0.01476,0.01476*
1,1,0.02953,0.01476,0.01476*
%
%ADD55ROUNDEDRECTD55*%
G36*
X318161Y101894D02*
X317661Y101662D01*
X316817Y102149D01*
X315685Y102453D01*
X314512D01*
X313380Y102149D01*
X312364Y101563D01*
X311535Y100734D01*
X310949Y99719D01*
X310646Y98586D01*
Y97414D01*
X310949Y96281D01*
X311535Y95266D01*
X312364Y94437D01*
X313380Y93851D01*
X314512Y93547D01*
X315685D01*
X316817Y93851D01*
X317661Y94338D01*
X318161Y94106D01*
Y42065D01*
X317661Y41914D01*
X317426Y42266D01*
X317030Y42661D01*
X316534Y42993D01*
X315949Y43109D01*
X307734D01*
X307564Y43180D01*
X306927D01*
X306339Y42936D01*
X305889Y42486D01*
X305645Y41898D01*
Y41262D01*
X305889Y40674D01*
X306339Y40224D01*
X306927Y39980D01*
X307564D01*
X307734Y40051D01*
X314815D01*
Y26308D01*
X314553Y26045D01*
X306633D01*
X306462Y26116D01*
X305826D01*
X305238Y25872D01*
X304788Y25422D01*
X304544Y24834D01*
Y24198D01*
X304788Y23610D01*
X304844Y23553D01*
Y23065D01*
X304692Y22867D01*
X304342Y22021D01*
X304222Y21113D01*
Y18161D01*
X304342Y17253D01*
X304692Y16408D01*
X304704Y16392D01*
X304541Y15783D01*
X304415Y15731D01*
X303965Y15281D01*
X303721Y14693D01*
Y14056D01*
X303965Y13468D01*
X304415Y13018D01*
X304573Y12953D01*
X304474Y12453D01*
X304414D01*
X303281Y12149D01*
X302266Y11563D01*
X301437Y10734D01*
X300851Y9719D01*
X300547Y8586D01*
Y7414D01*
X300851Y6281D01*
X301437Y5266D01*
X302266Y4437D01*
X303281Y3851D01*
X304414Y3547D01*
X305586D01*
X306719Y3851D01*
X307734Y4437D01*
X308563Y5266D01*
X309149Y6281D01*
X309453Y7414D01*
Y8586D01*
X309149Y9719D01*
X308563Y10734D01*
X307734Y11563D01*
X306719Y12149D01*
X305940Y12358D01*
X305905Y12885D01*
X306228Y13018D01*
X306678Y13468D01*
X306921Y14056D01*
Y14256D01*
X307420Y14695D01*
X307729Y14654D01*
X310682D01*
X311589Y14774D01*
X312435Y15124D01*
X313161Y15681D01*
X313718Y16408D01*
X314068Y17253D01*
X314188Y18161D01*
Y21113D01*
X314068Y22021D01*
X313876Y22487D01*
X314210Y22987D01*
X315186D01*
X315186Y22987D01*
X315186Y22987D01*
X315477Y23044D01*
X315771Y23103D01*
X315772Y23103D01*
X315772Y23103D01*
X316052Y23291D01*
X316268Y23435D01*
X316268Y23435D01*
X316268Y23435D01*
X317426Y24593D01*
X317590Y24840D01*
X317661Y24945D01*
X318161Y24793D01*
Y11894D01*
X317661Y11662D01*
X316817Y12149D01*
X315685Y12453D01*
X314512D01*
X313380Y12149D01*
X312364Y11563D01*
X311535Y10734D01*
X310949Y9719D01*
X310646Y8586D01*
Y7414D01*
X310949Y6281D01*
X311535Y5266D01*
X312364Y4437D01*
X313380Y3851D01*
X314512Y3547D01*
X315685D01*
X316817Y3851D01*
X317661Y4338D01*
X318161Y4106D01*
Y2332D01*
X2039D01*
Y3990D01*
X2539Y4279D01*
X3281Y3851D01*
X4414Y3547D01*
X5586D01*
X6719Y3851D01*
X7734Y4437D01*
X8563Y5266D01*
X9149Y6281D01*
X9453Y7414D01*
Y8586D01*
X9149Y9719D01*
X8563Y10734D01*
X7734Y11563D01*
X6719Y12149D01*
X5586Y12453D01*
X4414D01*
X3281Y12149D01*
X2539Y11721D01*
X2039Y12009D01*
Y93990D01*
X2539Y94279D01*
X3281Y93851D01*
X4414Y93547D01*
X5586D01*
X6719Y93851D01*
X7734Y94437D01*
X8563Y95266D01*
X9149Y96281D01*
X9453Y97414D01*
Y98586D01*
X9149Y99719D01*
X8563Y100734D01*
X7734Y101563D01*
X6719Y102149D01*
X5586Y102453D01*
X4414D01*
X3281Y102149D01*
X2539Y101721D01*
X2039Y102009D01*
Y103961D01*
X318161D01*
Y101894D01*
D02*
G37*
%LPC*%
G36*
X25750Y102409D02*
Y98750D01*
X29409D01*
X29149Y99719D01*
X28563Y100734D01*
X27734Y101563D01*
X26719Y102149D01*
X25750Y102409D01*
D02*
G37*
G36*
X24250D02*
X23281Y102149D01*
X22266Y101563D01*
X21437Y100734D01*
X20851Y99719D01*
X20591Y98750D01*
X24250D01*
Y102409D01*
D02*
G37*
G36*
X29409Y97250D02*
X25750D01*
Y93591D01*
X26719Y93851D01*
X27734Y94437D01*
X28563Y95266D01*
X29149Y96281D01*
X29409Y97250D01*
D02*
G37*
G36*
X24250D02*
X20591D01*
X20851Y96281D01*
X21437Y95266D01*
X22266Y94437D01*
X23281Y93851D01*
X24250Y93591D01*
Y97250D01*
D02*
G37*
G36*
X305586Y102453D02*
X304414D01*
X303281Y102149D01*
X302266Y101563D01*
X301437Y100734D01*
X300851Y99719D01*
X300547Y98586D01*
Y97414D01*
X300851Y96281D01*
X301437Y95266D01*
X302266Y94437D01*
X303281Y93851D01*
X304414Y93547D01*
X305586D01*
X306719Y93851D01*
X307734Y94437D01*
X308563Y95266D01*
X309149Y96281D01*
X309453Y97414D01*
Y98586D01*
X309149Y99719D01*
X308563Y100734D01*
X307734Y101563D01*
X306719Y102149D01*
X305586Y102453D01*
D02*
G37*
G36*
X295586D02*
X294414D01*
X293281Y102149D01*
X292266Y101563D01*
X291437Y100734D01*
X290851Y99719D01*
X290547Y98586D01*
Y97414D01*
X290851Y96281D01*
X291437Y95266D01*
X292266Y94437D01*
X293281Y93851D01*
X294414Y93547D01*
X295586D01*
X296719Y93851D01*
X297734Y94437D01*
X298563Y95266D01*
X299149Y96281D01*
X299453Y97414D01*
Y98586D01*
X299149Y99719D01*
X298563Y100734D01*
X297734Y101563D01*
X296719Y102149D01*
X295586Y102453D01*
D02*
G37*
G36*
X275586D02*
X274414D01*
X273281Y102149D01*
X272266Y101563D01*
X271437Y100734D01*
X270851Y99719D01*
X270547Y98586D01*
Y97414D01*
X270851Y96281D01*
X271437Y95266D01*
X272266Y94437D01*
X273281Y93851D01*
X274414Y93547D01*
X275586D01*
X276719Y93851D01*
X277734Y94437D01*
X278563Y95266D01*
X279149Y96281D01*
X279453Y97414D01*
Y98586D01*
X279149Y99719D01*
X278563Y100734D01*
X277734Y101563D01*
X276719Y102149D01*
X275586Y102453D01*
D02*
G37*
G36*
X265586D02*
X264414D01*
X263281Y102149D01*
X262266Y101563D01*
X261437Y100734D01*
X260851Y99719D01*
X260547Y98586D01*
Y97414D01*
X260851Y96281D01*
X261437Y95266D01*
X262266Y94437D01*
X263281Y93851D01*
X264414Y93547D01*
X265586D01*
X266719Y93851D01*
X267734Y94437D01*
X268563Y95266D01*
X269149Y96281D01*
X269453Y97414D01*
Y98586D01*
X269149Y99719D01*
X268563Y100734D01*
X267734Y101563D01*
X266719Y102149D01*
X265586Y102453D01*
D02*
G37*
G36*
X255586D02*
X254414D01*
X253281Y102149D01*
X252266Y101563D01*
X251437Y100734D01*
X250851Y99719D01*
X250547Y98586D01*
Y97414D01*
X250851Y96281D01*
X251437Y95266D01*
X252266Y94437D01*
X253281Y93851D01*
X254414Y93547D01*
X255586D01*
X256719Y93851D01*
X257734Y94437D01*
X258563Y95266D01*
X259149Y96281D01*
X259453Y97414D01*
Y98586D01*
X259149Y99719D01*
X258563Y100734D01*
X257734Y101563D01*
X256719Y102149D01*
X255586Y102453D01*
D02*
G37*
G36*
X245586D02*
X244414D01*
X243281Y102149D01*
X242266Y101563D01*
X241437Y100734D01*
X240851Y99719D01*
X240547Y98586D01*
Y97414D01*
X240851Y96281D01*
X241437Y95266D01*
X242266Y94437D01*
X243281Y93851D01*
X244414Y93547D01*
X245586D01*
X246719Y93851D01*
X247734Y94437D01*
X248563Y95266D01*
X249149Y96281D01*
X249453Y97414D01*
Y98586D01*
X249149Y99719D01*
X248563Y100734D01*
X247734Y101563D01*
X246719Y102149D01*
X245586Y102453D01*
D02*
G37*
G36*
X235586D02*
X234414D01*
X233281Y102149D01*
X232266Y101563D01*
X231437Y100734D01*
X230851Y99719D01*
X230547Y98586D01*
Y97414D01*
X230851Y96281D01*
X231437Y95266D01*
X232266Y94437D01*
X233281Y93851D01*
X234414Y93547D01*
X235586D01*
X236719Y93851D01*
X237734Y94437D01*
X238563Y95266D01*
X239149Y96281D01*
X239453Y97414D01*
Y98586D01*
X239149Y99719D01*
X238563Y100734D01*
X237734Y101563D01*
X236719Y102149D01*
X235586Y102453D01*
D02*
G37*
G36*
X215586D02*
X214414D01*
X213281Y102149D01*
X212266Y101563D01*
X211437Y100734D01*
X210851Y99719D01*
X210547Y98586D01*
Y97414D01*
X210851Y96281D01*
X211437Y95266D01*
X212266Y94437D01*
X213281Y93851D01*
X214414Y93547D01*
X215586D01*
X216719Y93851D01*
X217734Y94437D01*
X218563Y95266D01*
X219149Y96281D01*
X219453Y97414D01*
Y98586D01*
X219149Y99719D01*
X218563Y100734D01*
X217734Y101563D01*
X216719Y102149D01*
X215586Y102453D01*
D02*
G37*
G36*
X175586D02*
X174414D01*
X173281Y102149D01*
X172266Y101563D01*
X171437Y100734D01*
X170851Y99719D01*
X170547Y98586D01*
Y97414D01*
X170851Y96281D01*
X171437Y95266D01*
X172266Y94437D01*
X173281Y93851D01*
X174414Y93547D01*
X175586D01*
X176719Y93851D01*
X177734Y94437D01*
X178563Y95266D01*
X179149Y96281D01*
X179453Y97414D01*
Y98586D01*
X179149Y99719D01*
X178563Y100734D01*
X177734Y101563D01*
X176719Y102149D01*
X175586Y102453D01*
D02*
G37*
G36*
X155586D02*
X154414D01*
X153281Y102149D01*
X152266Y101563D01*
X151437Y100734D01*
X150851Y99719D01*
X150547Y98586D01*
Y97414D01*
X150851Y96281D01*
X151437Y95266D01*
X152266Y94437D01*
X153281Y93851D01*
X154414Y93547D01*
X155586D01*
X156719Y93851D01*
X157734Y94437D01*
X158563Y95266D01*
X159149Y96281D01*
X159453Y97414D01*
Y98586D01*
X159149Y99719D01*
X158563Y100734D01*
X157734Y101563D01*
X156719Y102149D01*
X155586Y102453D01*
D02*
G37*
G36*
X135586D02*
X134414D01*
X133281Y102149D01*
X132266Y101563D01*
X131437Y100734D01*
X130851Y99719D01*
X130547Y98586D01*
Y97414D01*
X130851Y96281D01*
X131437Y95266D01*
X132266Y94437D01*
X133281Y93851D01*
X134414Y93547D01*
X135586D01*
X136719Y93851D01*
X137734Y94437D01*
X138563Y95266D01*
X139149Y96281D01*
X139453Y97414D01*
Y98586D01*
X139149Y99719D01*
X138563Y100734D01*
X137734Y101563D01*
X136719Y102149D01*
X135586Y102453D01*
D02*
G37*
G36*
X125586D02*
X124414D01*
X123281Y102149D01*
X122266Y101563D01*
X121437Y100734D01*
X120851Y99719D01*
X120547Y98586D01*
Y97414D01*
X120851Y96281D01*
X121437Y95266D01*
X122266Y94437D01*
X123281Y93851D01*
X124414Y93547D01*
X125586D01*
X126719Y93851D01*
X127734Y94437D01*
X128563Y95266D01*
X129149Y96281D01*
X129453Y97414D01*
Y98586D01*
X129149Y99719D01*
X128563Y100734D01*
X127734Y101563D01*
X126719Y102149D01*
X125586Y102453D01*
D02*
G37*
G36*
X105586D02*
X104414D01*
X103281Y102149D01*
X102266Y101563D01*
X101437Y100734D01*
X100851Y99719D01*
X100547Y98586D01*
Y97414D01*
X100851Y96281D01*
X101437Y95266D01*
X102266Y94437D01*
X103281Y93851D01*
X104414Y93547D01*
X105586D01*
X106719Y93851D01*
X107734Y94437D01*
X108563Y95266D01*
X109149Y96281D01*
X109453Y97414D01*
Y98586D01*
X109149Y99719D01*
X108563Y100734D01*
X107734Y101563D01*
X106719Y102149D01*
X105586Y102453D01*
D02*
G37*
G36*
X95586D02*
X94414D01*
X93281Y102149D01*
X92266Y101563D01*
X91437Y100734D01*
X90851Y99719D01*
X90547Y98586D01*
Y97414D01*
X90851Y96281D01*
X91437Y95266D01*
X92266Y94437D01*
X93281Y93851D01*
X94414Y93547D01*
X95586D01*
X96719Y93851D01*
X97734Y94437D01*
X98563Y95266D01*
X99149Y96281D01*
X99453Y97414D01*
Y98586D01*
X99149Y99719D01*
X98563Y100734D01*
X97734Y101563D01*
X96719Y102149D01*
X95586Y102453D01*
D02*
G37*
G36*
X85586D02*
X84414D01*
X83281Y102149D01*
X82266Y101563D01*
X81437Y100734D01*
X80851Y99719D01*
X80547Y98586D01*
Y97414D01*
X80851Y96281D01*
X81437Y95266D01*
X82266Y94437D01*
X83281Y93851D01*
X84414Y93547D01*
X85586D01*
X86719Y93851D01*
X87734Y94437D01*
X88563Y95266D01*
X89149Y96281D01*
X89453Y97414D01*
Y98586D01*
X89149Y99719D01*
X88563Y100734D01*
X87734Y101563D01*
X86719Y102149D01*
X85586Y102453D01*
D02*
G37*
G36*
X75586D02*
X74414D01*
X73281Y102149D01*
X72266Y101563D01*
X71437Y100734D01*
X70851Y99719D01*
X70547Y98586D01*
Y97414D01*
X70851Y96281D01*
X71437Y95266D01*
X72266Y94437D01*
X73281Y93851D01*
X74414Y93547D01*
X75586D01*
X76719Y93851D01*
X77734Y94437D01*
X78563Y95266D01*
X79149Y96281D01*
X79453Y97414D01*
Y98586D01*
X79149Y99719D01*
X78563Y100734D01*
X77734Y101563D01*
X76719Y102149D01*
X75586Y102453D01*
D02*
G37*
G36*
X65586D02*
X64414D01*
X63281Y102149D01*
X62266Y101563D01*
X61437Y100734D01*
X60851Y99719D01*
X60547Y98586D01*
Y97414D01*
X60851Y96281D01*
X61437Y95266D01*
X62266Y94437D01*
X63281Y93851D01*
X64414Y93547D01*
X65586D01*
X66719Y93851D01*
X67734Y94437D01*
X68563Y95266D01*
X69149Y96281D01*
X69453Y97414D01*
Y98586D01*
X69149Y99719D01*
X68563Y100734D01*
X67734Y101563D01*
X66719Y102149D01*
X65586Y102453D01*
D02*
G37*
G36*
X55586D02*
X54414D01*
X53281Y102149D01*
X52266Y101563D01*
X51437Y100734D01*
X50851Y99719D01*
X50547Y98586D01*
Y97414D01*
X50851Y96281D01*
X51437Y95266D01*
X52266Y94437D01*
X53281Y93851D01*
X54414Y93547D01*
X55586D01*
X56719Y93851D01*
X57734Y94437D01*
X58563Y95266D01*
X59149Y96281D01*
X59453Y97414D01*
Y98586D01*
X59149Y99719D01*
X58563Y100734D01*
X57734Y101563D01*
X56719Y102149D01*
X55586Y102453D01*
D02*
G37*
G36*
X45586D02*
X44414D01*
X43281Y102149D01*
X42266Y101563D01*
X41437Y100734D01*
X40851Y99719D01*
X40547Y98586D01*
Y97414D01*
X40851Y96281D01*
X41437Y95266D01*
X42266Y94437D01*
X43281Y93851D01*
X44414Y93547D01*
X45586D01*
X46719Y93851D01*
X47734Y94437D01*
X48563Y95266D01*
X49149Y96281D01*
X49453Y97414D01*
Y98586D01*
X49149Y99719D01*
X48563Y100734D01*
X47734Y101563D01*
X46719Y102149D01*
X45586Y102453D01*
D02*
G37*
G36*
X35586D02*
X34414D01*
X33281Y102149D01*
X32266Y101563D01*
X31437Y100734D01*
X30851Y99719D01*
X30547Y98586D01*
Y97414D01*
X30851Y96281D01*
X31437Y95266D01*
X32266Y94437D01*
X33281Y93851D01*
X34414Y93547D01*
X35586D01*
X36719Y93851D01*
X37734Y94437D01*
X38563Y95266D01*
X39149Y96281D01*
X39453Y97414D01*
Y98586D01*
X39149Y99719D01*
X38563Y100734D01*
X37734Y101563D01*
X36719Y102149D01*
X35586Y102453D01*
D02*
G37*
G36*
X15586D02*
X14414D01*
X13281Y102149D01*
X12266Y101563D01*
X11437Y100734D01*
X10851Y99719D01*
X10547Y98586D01*
Y97414D01*
X10851Y96281D01*
X11437Y95266D01*
X12266Y94437D01*
X13281Y93851D01*
X14414Y93547D01*
X15586D01*
X16719Y93851D01*
X17734Y94437D01*
X18563Y95266D01*
X19149Y96281D01*
X19453Y97414D01*
Y98586D01*
X19149Y99719D01*
X18563Y100734D01*
X17734Y101563D01*
X16719Y102149D01*
X15586Y102453D01*
D02*
G37*
G36*
X205586D02*
X204414D01*
X203281Y102149D01*
X202266Y101563D01*
X201437Y100734D01*
X200851Y99719D01*
X200547Y98586D01*
Y97414D01*
X200851Y96281D01*
X201437Y95266D01*
X202266Y94437D01*
X203281Y93851D01*
X204414Y93547D01*
X205586D01*
X206719Y93851D01*
X207235Y94149D01*
X207735Y93860D01*
Y93582D01*
X207979Y92994D01*
X208429Y92544D01*
X209017Y92300D01*
X209654D01*
X210242Y92544D01*
X210692Y92994D01*
X210935Y93582D01*
Y94218D01*
X210692Y94806D01*
X210242Y95256D01*
X209654Y95500D01*
X209276D01*
X208977Y95984D01*
X209149Y96281D01*
X209453Y97414D01*
Y98586D01*
X209149Y99719D01*
X208563Y100734D01*
X207734Y101563D01*
X206719Y102149D01*
X205586Y102453D01*
D02*
G37*
G36*
X185586D02*
X184414D01*
X183281Y102149D01*
X182266Y101563D01*
X181437Y100734D01*
X180851Y99719D01*
X180547Y98586D01*
Y97414D01*
X180851Y96281D01*
X181437Y95266D01*
X182266Y94437D01*
X183281Y93851D01*
X184414Y93547D01*
X185586D01*
X186719Y93851D01*
X187734Y94437D01*
X187760Y94463D01*
X188137Y94253D01*
X188200Y94196D01*
Y93582D01*
X188444Y92994D01*
X188894Y92544D01*
X189482Y92300D01*
X190118D01*
X190706Y92544D01*
X191156Y92994D01*
X191400Y93582D01*
Y94218D01*
X191156Y94806D01*
X190706Y95256D01*
X190118Y95500D01*
X189482D01*
X189211Y95388D01*
X188863Y95785D01*
X189149Y96281D01*
X189453Y97414D01*
Y98586D01*
X189149Y99719D01*
X188563Y100734D01*
X187734Y101563D01*
X186719Y102149D01*
X185586Y102453D01*
D02*
G37*
G36*
X250139Y94400D02*
X249503D01*
X248915Y94156D01*
X248464Y93706D01*
X248221Y93118D01*
Y92482D01*
X248464Y91894D01*
X248915Y91444D01*
X249503Y91200D01*
X250139D01*
X250727Y91444D01*
X251177Y91894D01*
X251421Y92482D01*
Y93118D01*
X251177Y93706D01*
X250727Y94156D01*
X250139Y94400D01*
D02*
G37*
G36*
X225586Y102453D02*
X224414D01*
X223281Y102149D01*
X222266Y101563D01*
X221437Y100734D01*
X220851Y99719D01*
X220547Y98586D01*
Y97414D01*
X220851Y96281D01*
X221437Y95266D01*
X222266Y94437D01*
X223281Y93851D01*
X224414Y93547D01*
X225586D01*
X226719Y93851D01*
X226723Y93853D01*
X227120Y93505D01*
X226959Y93118D01*
Y92482D01*
X227203Y91894D01*
X227653Y91444D01*
X228241Y91200D01*
X228878D01*
X229466Y91444D01*
X229916Y91894D01*
X230159Y92482D01*
Y93118D01*
X229916Y93706D01*
X229466Y94156D01*
X228878Y94400D01*
X228404D01*
X228166Y94869D01*
X228563Y95266D01*
X229149Y96281D01*
X229453Y97414D01*
Y98586D01*
X229149Y99719D01*
X228563Y100734D01*
X227734Y101563D01*
X226719Y102149D01*
X225586Y102453D01*
D02*
G37*
G36*
X200270Y94400D02*
X199634D01*
X199046Y94156D01*
X198596Y93706D01*
X198352Y93118D01*
Y92482D01*
X198596Y91894D01*
X199046Y91444D01*
X199634Y91200D01*
X200270D01*
X200858Y91444D01*
X201309Y91894D01*
X201552Y92482D01*
Y93118D01*
X201309Y93706D01*
X200858Y94156D01*
X200270Y94400D01*
D02*
G37*
G36*
X171169Y94200D02*
X170532D01*
X169944Y93956D01*
X169494Y93506D01*
X169250Y92918D01*
Y92282D01*
X169494Y91694D01*
X169944Y91243D01*
X170532Y91000D01*
X171169D01*
X171757Y91243D01*
X172207Y91694D01*
X172450Y92282D01*
Y92918D01*
X172207Y93506D01*
X171757Y93956D01*
X171169Y94200D01*
D02*
G37*
G36*
X115586Y102453D02*
X114414D01*
X113281Y102149D01*
X112266Y101563D01*
X111437Y100734D01*
X110851Y99719D01*
X110547Y98586D01*
Y97414D01*
X110851Y96281D01*
X111437Y95266D01*
X112219Y94484D01*
X112237Y94212D01*
X112197Y93900D01*
X111803Y93506D01*
X111559Y92918D01*
Y92282D01*
X111803Y91694D01*
X112253Y91243D01*
X112841Y91000D01*
X113478D01*
X114066Y91243D01*
X114516Y91694D01*
X114760Y92282D01*
Y92918D01*
X114706Y93047D01*
X115040Y93547D01*
X115586D01*
X116719Y93851D01*
X117734Y94437D01*
X118563Y95266D01*
X119149Y96281D01*
X119453Y97414D01*
Y98586D01*
X119149Y99719D01*
X118563Y100734D01*
X117734Y101563D01*
X116719Y102149D01*
X115586Y102453D01*
D02*
G37*
G36*
X285586D02*
X284414D01*
X283281Y102149D01*
X282266Y101563D01*
X281437Y100734D01*
X280851Y99719D01*
X280547Y98586D01*
Y97414D01*
X280851Y96281D01*
X281437Y95266D01*
X282266Y94437D01*
X283281Y93851D01*
X284229Y93597D01*
X284507Y93188D01*
X284543Y93047D01*
X284484Y92906D01*
Y92269D01*
X284728Y91681D01*
X285178Y91231D01*
X285766Y90987D01*
X286403D01*
X286991Y91231D01*
X287441Y91681D01*
X287684Y92269D01*
Y92906D01*
X287441Y93494D01*
X287316Y93618D01*
X287399Y94243D01*
X287734Y94437D01*
X288563Y95266D01*
X289149Y96281D01*
X289453Y97414D01*
Y98586D01*
X289149Y99719D01*
X288563Y100734D01*
X287734Y101563D01*
X286719Y102149D01*
X285586Y102453D01*
D02*
G37*
G36*
X195586D02*
X194414D01*
X193281Y102149D01*
X192266Y101563D01*
X191437Y100734D01*
X190851Y99719D01*
X190547Y98586D01*
Y97414D01*
X190851Y96281D01*
X191437Y95266D01*
X192266Y94437D01*
X193281Y93851D01*
X193458Y93803D01*
X193604Y93247D01*
X193354Y92996D01*
X193110Y92408D01*
Y91772D01*
X193354Y91184D01*
X193804Y90733D01*
X194392Y90490D01*
X195028D01*
X195616Y90733D01*
X196067Y91184D01*
X196310Y91772D01*
Y92408D01*
X196067Y92996D01*
X195939Y93124D01*
X196088Y93682D01*
X196719Y93851D01*
X197734Y94437D01*
X198563Y95266D01*
X199149Y96281D01*
X199453Y97414D01*
Y98586D01*
X199149Y99719D01*
X198563Y100734D01*
X197734Y101563D01*
X196719Y102149D01*
X195586Y102453D01*
D02*
G37*
G36*
X145586D02*
X144414D01*
X143281Y102149D01*
X142266Y101563D01*
X141437Y100734D01*
X140851Y99719D01*
X140547Y98586D01*
Y97414D01*
X140851Y96281D01*
X141437Y95266D01*
X142266Y94437D01*
X142765Y94149D01*
X142728Y93593D01*
X142375Y93446D01*
X141925Y92996D01*
X141681Y92408D01*
Y91772D01*
X141925Y91184D01*
X142375Y90733D01*
X142963Y90490D01*
X143599D01*
X144188Y90733D01*
X144638Y91184D01*
X144881Y91772D01*
Y92408D01*
X144638Y92996D01*
X144587Y93047D01*
X144794Y93547D01*
X145586D01*
X146719Y93851D01*
X147734Y94437D01*
X148563Y95266D01*
X149149Y96281D01*
X149453Y97414D01*
Y98586D01*
X149149Y99719D01*
X148563Y100734D01*
X147734Y101563D01*
X146719Y102149D01*
X145586Y102453D01*
D02*
G37*
G36*
X165586D02*
X164414D01*
X163281Y102149D01*
X162266Y101563D01*
X161437Y100734D01*
X160851Y99719D01*
X160547Y98586D01*
Y97414D01*
X160851Y96281D01*
X161437Y95266D01*
X162266Y94437D01*
X163281Y93851D01*
X164414Y93547D01*
X164611D01*
X164818Y93047D01*
X164664Y92894D01*
X164421Y92306D01*
Y91669D01*
X164664Y91081D01*
X165114Y90631D01*
X165702Y90387D01*
X166339D01*
X166927Y90631D01*
X167377Y91081D01*
X167621Y91669D01*
Y92306D01*
X167377Y92894D01*
X166927Y93344D01*
X166856Y93373D01*
X166812Y93527D01*
X166840Y93921D01*
X167734Y94437D01*
X168563Y95266D01*
X169149Y96281D01*
X169453Y97414D01*
Y98586D01*
X169149Y99719D01*
X168563Y100734D01*
X167734Y101563D01*
X166719Y102149D01*
X165586Y102453D01*
D02*
G37*
G36*
X6784Y92113D02*
X6148D01*
X5560Y91869D01*
X5110Y91419D01*
X4866Y90831D01*
Y90195D01*
X5110Y89607D01*
X5560Y89157D01*
X6148Y88913D01*
X6784D01*
X7373Y89157D01*
X7823Y89607D01*
X8066Y90195D01*
Y90831D01*
X7823Y91419D01*
X7373Y91869D01*
X6784Y92113D01*
D02*
G37*
G36*
X41718Y91944D02*
X41082D01*
X40494Y91701D01*
X40044Y91250D01*
X39800Y90662D01*
Y90026D01*
X40044Y89438D01*
X40494Y88988D01*
X41082Y88744D01*
X41718D01*
X42306Y88988D01*
X42756Y89438D01*
X43000Y90026D01*
Y90662D01*
X42756Y91250D01*
X42306Y91701D01*
X41718Y91944D01*
D02*
G37*
G36*
X34574Y91564D02*
X33938D01*
X33350Y91321D01*
X32899Y90870D01*
X32656Y90282D01*
Y89646D01*
X32899Y89058D01*
X33350Y88608D01*
X33938Y88364D01*
X34574D01*
X35162Y88608D01*
X35612Y89058D01*
X35856Y89646D01*
Y90282D01*
X35612Y90870D01*
X35162Y91321D01*
X34574Y91564D01*
D02*
G37*
G36*
X29195Y91019D02*
X28558D01*
X27970Y90775D01*
X27520Y90325D01*
X27276Y89737D01*
Y89101D01*
X27520Y88513D01*
X27970Y88063D01*
X28558Y87819D01*
X29195D01*
X29783Y88063D01*
X30233Y88513D01*
X30476Y89101D01*
Y89737D01*
X30233Y90325D01*
X29783Y90775D01*
X29195Y91019D01*
D02*
G37*
G36*
X248938Y90133D02*
X248301D01*
X247713Y89889D01*
X247263Y89439D01*
X247019Y88851D01*
Y88214D01*
X247263Y87626D01*
X247713Y87176D01*
X248301Y86933D01*
X248938D01*
X249526Y87176D01*
X249976Y87626D01*
X250219Y88214D01*
Y88851D01*
X249976Y89439D01*
X249526Y89889D01*
X248938Y90133D01*
D02*
G37*
G36*
X131386Y92231D02*
X130750D01*
X130162Y91987D01*
X129712Y91537D01*
X129468Y90949D01*
Y90313D01*
X129712Y89725D01*
X130162Y89275D01*
X130332Y89204D01*
X132367Y87169D01*
X132863Y86838D01*
X133448Y86722D01*
X152291D01*
X152462Y86651D01*
X153098D01*
X153686Y86895D01*
X154136Y87345D01*
X154380Y87933D01*
Y88569D01*
X154136Y89157D01*
X153686Y89607D01*
X153098Y89851D01*
X152462D01*
X152291Y89780D01*
X134082D01*
X132495Y91367D01*
X132425Y91537D01*
X131974Y91987D01*
X131386Y92231D01*
D02*
G37*
G36*
X223419Y88492D02*
X222782D01*
X222194Y88249D01*
X221744Y87799D01*
X221501Y87211D01*
Y86574D01*
X221744Y85986D01*
X222194Y85536D01*
X222782Y85292D01*
X223419D01*
X224007Y85536D01*
X224457Y85986D01*
X224701Y86574D01*
Y87211D01*
X224457Y87799D01*
X224007Y88249D01*
X223419Y88492D01*
D02*
G37*
G36*
X165710Y88292D02*
X165073D01*
X164485Y88049D01*
X164035Y87599D01*
X163791Y87011D01*
Y86374D01*
X164035Y85786D01*
X164485Y85336D01*
X165073Y85092D01*
X165710D01*
X166298Y85336D01*
X166748Y85786D01*
X166991Y86374D01*
Y87011D01*
X166748Y87599D01*
X166298Y88049D01*
X165710Y88292D01*
D02*
G37*
G36*
X108019D02*
X107382D01*
X106794Y88049D01*
X106344Y87599D01*
X106100Y87011D01*
Y86374D01*
X106344Y85786D01*
X106794Y85336D01*
X107382Y85092D01*
X108019D01*
X108607Y85336D01*
X109057Y85786D01*
X109300Y86374D01*
Y87011D01*
X109057Y87599D01*
X108607Y88049D01*
X108019Y88292D01*
D02*
G37*
G36*
X280944Y88280D02*
X280307D01*
X279719Y88036D01*
X279269Y87586D01*
X279025Y86998D01*
Y86361D01*
X279269Y85773D01*
X279719Y85323D01*
X280307Y85080D01*
X280944D01*
X281532Y85323D01*
X281982Y85773D01*
X282225Y86361D01*
Y86998D01*
X281982Y87586D01*
X281532Y88036D01*
X280944Y88280D01*
D02*
G37*
G36*
X40462Y71263D02*
X39825D01*
X39655Y71193D01*
X37602D01*
X37017Y71077D01*
X36521Y70745D01*
X30871Y65095D01*
X26853D01*
X26682Y65166D01*
X26046D01*
X25875Y65095D01*
X23190D01*
X22604Y64978D01*
X22108Y64647D01*
X20740Y63279D01*
X20409Y62783D01*
X20292Y62197D01*
Y38813D01*
X20409Y38228D01*
X20740Y37732D01*
X30081Y28391D01*
Y18302D01*
X30010Y18131D01*
Y17495D01*
X30253Y16907D01*
X30703Y16457D01*
X31292Y16213D01*
X31928D01*
X32516Y16457D01*
X32966Y16907D01*
X33210Y17495D01*
Y18131D01*
X33139Y18302D01*
Y29025D01*
X33023Y29610D01*
X32691Y30106D01*
X23351Y39446D01*
Y61564D01*
X23823Y62036D01*
X25875D01*
X26046Y61966D01*
X26682D01*
X26853Y62036D01*
X31504D01*
X32089Y62152D01*
X32585Y62484D01*
X38236Y68134D01*
X39655D01*
X39825Y68063D01*
X40462D01*
X41050Y68307D01*
X41500Y68757D01*
X41743Y69345D01*
Y69982D01*
X41500Y70570D01*
X41050Y71020D01*
X40462Y71263D01*
D02*
G37*
G36*
X29195Y71221D02*
X28558D01*
X27970Y70977D01*
X27520Y70527D01*
X27276Y69939D01*
Y69302D01*
X27520Y68714D01*
X27970Y68264D01*
X28558Y68021D01*
X29195D01*
X29783Y68264D01*
X30233Y68714D01*
X30476Y69302D01*
Y69939D01*
X30233Y70527D01*
X29783Y70977D01*
X29195Y71221D01*
D02*
G37*
G36*
X8753D02*
X8116D01*
X7528Y70977D01*
X7078Y70527D01*
X6835Y69939D01*
Y69302D01*
X7078Y68714D01*
X7528Y68264D01*
X8116Y68021D01*
X8753D01*
X9341Y68264D01*
X9791Y68714D01*
X10035Y69302D01*
Y69939D01*
X9791Y70527D01*
X9341Y70977D01*
X8753Y71221D01*
D02*
G37*
G36*
X250039Y82652D02*
X249403D01*
X248815Y82409D01*
X248364Y81959D01*
X248294Y81788D01*
X240607Y74101D01*
X202686D01*
X202100Y73985D01*
X201604Y73653D01*
X201019Y73067D01*
X200687Y72571D01*
X200571Y71986D01*
Y59920D01*
X200687Y59335D01*
X200764Y59220D01*
X200496Y58720D01*
X190660D01*
X190075Y58604D01*
X189579Y58272D01*
X186709Y55403D01*
X186378Y54907D01*
X186262Y54322D01*
Y50333D01*
X179945Y44017D01*
X176015D01*
X175681Y44517D01*
X175791Y44782D01*
Y45418D01*
X175581Y45925D01*
Y46844D01*
X175514Y47180D01*
X175714Y47661D01*
X175833Y48569D01*
Y51521D01*
X175714Y52429D01*
X175363Y53275D01*
X175115Y53598D01*
X175244Y54081D01*
X175392Y54142D01*
X175842Y54593D01*
X176085Y55181D01*
Y55817D01*
X175842Y56405D01*
X175392Y56855D01*
X174804Y57099D01*
X174167D01*
X173794Y56944D01*
X173510Y57368D01*
X185983Y69841D01*
X188721D01*
X188892Y69770D01*
X189528D01*
X189532Y69768D01*
X189547Y69655D01*
X189897Y68809D01*
X190454Y68083D01*
X191181Y67526D01*
X192026Y67176D01*
X192934Y67056D01*
X195887D01*
X196794Y67176D01*
X197640Y67526D01*
X198366Y68083D01*
X198923Y68809D01*
X199273Y69655D01*
X199393Y70562D01*
Y73515D01*
X199273Y74423D01*
X198923Y75268D01*
X198366Y75994D01*
X197640Y76552D01*
X196794Y76902D01*
X195887Y77021D01*
X192934D01*
X192026Y76902D01*
X191181Y76552D01*
X190454Y75994D01*
X189897Y75268D01*
X189547Y74423D01*
X189427Y73515D01*
Y73127D01*
X188855Y73013D01*
X188685Y72900D01*
X186875D01*
X186684Y73361D01*
X192748Y79425D01*
X192918Y79496D01*
X193368Y79946D01*
X193612Y80534D01*
Y81170D01*
X193368Y81758D01*
X192918Y82209D01*
X192330Y82452D01*
X191693D01*
X191105Y82209D01*
X190655Y81758D01*
X190585Y81588D01*
X182898Y73901D01*
X143205D01*
X142620Y73785D01*
X142202Y73505D01*
X142099Y73507D01*
X141957Y73550D01*
X141676Y73712D01*
X141583Y74423D01*
X141232Y75268D01*
X140675Y75994D01*
X139949Y76552D01*
X139103Y76902D01*
X138196Y77021D01*
X135243D01*
X134335Y76902D01*
X133490Y76552D01*
X132764Y75994D01*
X132206Y75268D01*
X131856Y74423D01*
X131737Y73515D01*
Y73127D01*
X131164Y73013D01*
X130994Y72900D01*
X129184D01*
X128993Y73361D01*
X135057Y79425D01*
X135227Y79496D01*
X135677Y79946D01*
X135921Y80534D01*
Y81170D01*
X135677Y81758D01*
X135227Y82209D01*
X134639Y82452D01*
X134003D01*
X133415Y82209D01*
X132965Y81758D01*
X132894Y81588D01*
X124812Y73506D01*
X85705D01*
X85120Y73389D01*
X84624Y73058D01*
X84038Y72472D01*
X83706Y71976D01*
X83590Y71391D01*
Y61300D01*
X83706Y60715D01*
X84038Y60219D01*
X86909Y57348D01*
X84433Y54872D01*
X84102Y54375D01*
X83985Y53790D01*
Y42706D01*
X71544Y30264D01*
X71373Y30193D01*
X70923Y29743D01*
X70679Y29155D01*
Y28519D01*
X70923Y27930D01*
X71373Y27480D01*
X71961Y27237D01*
X72598D01*
X73186Y27480D01*
X73636Y27930D01*
X73707Y28101D01*
X86596Y40990D01*
X86928Y41487D01*
X87044Y42072D01*
Y53157D01*
X89449Y55561D01*
X90927D01*
X91097Y55491D01*
X91734D01*
X92322Y55734D01*
X92772Y56184D01*
X93015Y56773D01*
Y57409D01*
X92772Y57997D01*
X92322Y58447D01*
X91734Y58691D01*
X91097D01*
X90927Y58620D01*
X89941D01*
X89897Y58686D01*
X86649Y61934D01*
Y70447D01*
X89758D01*
X89909Y70177D01*
X89992Y69947D01*
X89768Y69406D01*
Y68769D01*
X90012Y68181D01*
X90462Y67731D01*
X90632Y67660D01*
X93085Y65208D01*
X93581Y64877D01*
X94166Y64760D01*
X101891D01*
X102039Y64613D01*
Y46092D01*
X102155Y45506D01*
X102487Y45010D01*
X103018Y44479D01*
X102827Y44017D01*
X92590D01*
X92005Y43900D01*
X91508Y43569D01*
X90830Y42891D01*
X90750D01*
X90162Y42647D01*
X89712Y42197D01*
X89468Y41609D01*
Y40973D01*
X89712Y40384D01*
X89712Y40384D01*
Y34753D01*
X89031Y34663D01*
X88186Y34313D01*
X87460Y33756D01*
X86902Y33029D01*
X86552Y32184D01*
X86433Y31276D01*
Y28324D01*
X86552Y27416D01*
X86902Y26570D01*
X87460Y25844D01*
X88186Y25287D01*
X89031Y24937D01*
X89939Y24817D01*
X92892D01*
X93799Y24937D01*
X94645Y25287D01*
X95371Y25844D01*
X95928Y26570D01*
X96279Y27416D01*
X96398Y28324D01*
Y31276D01*
X96279Y32184D01*
X96045Y32748D01*
X96469Y33031D01*
X96494Y33007D01*
X97082Y32763D01*
X97718D01*
X98306Y33007D01*
X98756Y33457D01*
X99000Y34045D01*
Y34681D01*
X98756Y35269D01*
X98306Y35719D01*
X97718Y35963D01*
X97082D01*
X96494Y35719D01*
X96043Y35269D01*
X95800Y34681D01*
Y34045D01*
X95824Y33987D01*
X95387Y33735D01*
X95371Y33756D01*
X94645Y34313D01*
X93799Y34663D01*
X92892Y34783D01*
X92771D01*
Y40506D01*
X93223Y40958D01*
X107841D01*
X108012Y40887D01*
X108648D01*
X108819Y40958D01*
X114872D01*
X115206Y40458D01*
X115153Y40329D01*
Y39692D01*
X115396Y39104D01*
X115172Y38621D01*
X113663D01*
X113246Y39038D01*
X113176Y39209D01*
X112726Y39659D01*
X112138Y39902D01*
X111501D01*
X110913Y39659D01*
X110463Y39209D01*
X110219Y38621D01*
Y37984D01*
X110463Y37396D01*
X110913Y36946D01*
X111083Y36875D01*
X111948Y36011D01*
X112444Y35679D01*
X113030Y35563D01*
X133832D01*
X134003Y35492D01*
X134639D01*
X135227Y35735D01*
X135677Y36186D01*
X135921Y36774D01*
Y37410D01*
X135677Y37998D01*
X135227Y38448D01*
X134639Y38692D01*
X134003D01*
X133832Y38621D01*
X118334D01*
X118109Y39104D01*
X118353Y39692D01*
Y40329D01*
X118299Y40458D01*
X118633Y40958D01*
X122888D01*
X123473Y41075D01*
X123969Y41406D01*
X131181Y48619D01*
X131513Y49115D01*
X131629Y49700D01*
Y53688D01*
X133603Y55661D01*
X148376D01*
X148788Y55491D01*
X149425D01*
X150013Y55734D01*
X150463Y56184D01*
X150706Y56773D01*
Y57409D01*
X150463Y57997D01*
X150013Y58447D01*
X149425Y58691D01*
X149154D01*
X149006Y58720D01*
X147554D01*
X144340Y61934D01*
Y70842D01*
X147898D01*
X147915Y70815D01*
X148051Y70342D01*
X147703Y69994D01*
X147459Y69406D01*
Y68769D01*
X147703Y68181D01*
X148153Y67731D01*
X148323Y67660D01*
X150775Y65208D01*
X151271Y64877D01*
X151271Y64877D01*
X151271Y64877D01*
X151857Y64760D01*
X159582D01*
X159730Y64613D01*
Y46092D01*
X159846Y45506D01*
X160178Y45010D01*
X160709Y44479D01*
X160518Y44017D01*
X150280D01*
X149695Y43900D01*
X149199Y43569D01*
X148521Y42891D01*
X148441D01*
X147853Y42647D01*
X147403Y42197D01*
X147159Y41609D01*
Y40973D01*
X147403Y40384D01*
X147403Y40384D01*
Y34753D01*
X146722Y34663D01*
X145877Y34313D01*
X145449Y33985D01*
X144949Y34231D01*
Y41197D01*
X144832Y41782D01*
X144501Y42279D01*
X144105Y42674D01*
X143609Y43005D01*
X143024Y43122D01*
X134809D01*
X134639Y43192D01*
X134002D01*
X133414Y42949D01*
X132964Y42499D01*
X132720Y41911D01*
Y41274D01*
X132964Y40686D01*
X133414Y40236D01*
X134002Y39992D01*
X134639D01*
X134809Y40063D01*
X141890D01*
Y26320D01*
X141628Y26058D01*
X133708D01*
X133538Y26129D01*
X132901D01*
X132313Y25885D01*
X131863Y25435D01*
X131619Y24847D01*
Y24210D01*
X131863Y23622D01*
X131920Y23566D01*
Y23078D01*
X131767Y22879D01*
X131417Y22034D01*
X131298Y21126D01*
Y18173D01*
X131417Y17266D01*
X131767Y16420D01*
X131779Y16405D01*
X131616Y15796D01*
X131490Y15744D01*
X131040Y15294D01*
X130797Y14706D01*
Y14069D01*
X131040Y13481D01*
X131490Y13031D01*
X132078Y12787D01*
X132715D01*
X133303Y13031D01*
X133753Y13481D01*
X133997Y14069D01*
Y14269D01*
X134496Y14708D01*
X134804Y14667D01*
X137757D01*
X138664Y14786D01*
X139510Y15137D01*
X140236Y15694D01*
X140793Y16420D01*
X141144Y17266D01*
X141263Y18173D01*
Y21126D01*
X141144Y22034D01*
X140951Y22499D01*
X141285Y22999D01*
X142261D01*
X142552Y23057D01*
X142846Y23115D01*
X142846Y23116D01*
X142846Y23116D01*
X143060Y23258D01*
X143342Y23447D01*
X144501Y24605D01*
X144501Y24605D01*
X144501Y24605D01*
X144645Y24821D01*
X144832Y25101D01*
X144832Y25101D01*
X144832Y25101D01*
X144894Y25411D01*
X145431Y25629D01*
X145431Y25629D01*
X145877Y25287D01*
X146722Y24937D01*
X147630Y24817D01*
X150583D01*
X151490Y24937D01*
X152336Y25287D01*
X153062Y25844D01*
X153619Y26570D01*
X153970Y27416D01*
X154089Y28324D01*
Y31276D01*
X153970Y32184D01*
X153736Y32748D01*
X154160Y33031D01*
X154185Y33007D01*
X154773Y32763D01*
X155409D01*
X155997Y33007D01*
X156447Y33457D01*
X156691Y34045D01*
Y34681D01*
X156447Y35269D01*
X155997Y35719D01*
X155409Y35963D01*
X154773D01*
X154185Y35719D01*
X153735Y35269D01*
X153491Y34681D01*
Y34045D01*
X153515Y33987D01*
X153078Y33735D01*
X153062Y33756D01*
X152336Y34313D01*
X151490Y34663D01*
X150583Y34783D01*
X150462D01*
Y40506D01*
X150914Y40958D01*
X165532D01*
X165702Y40887D01*
X166339D01*
X166509Y40958D01*
X172563D01*
X172897Y40458D01*
X172844Y40329D01*
Y39692D01*
X173087Y39104D01*
X172863Y38621D01*
X171907D01*
X170937Y39592D01*
X170867Y39762D01*
X170416Y40212D01*
X169828Y40456D01*
X169192D01*
X168604Y40212D01*
X168154Y39762D01*
X167910Y39174D01*
Y38537D01*
X168154Y37949D01*
X168604Y37499D01*
X168774Y37429D01*
X170193Y36011D01*
X170689Y35679D01*
X171274Y35563D01*
X191523D01*
X191693Y35492D01*
X192330D01*
X192918Y35735D01*
X193368Y36186D01*
X193612Y36774D01*
Y37410D01*
X193368Y37998D01*
X192918Y38448D01*
X192330Y38692D01*
X191693D01*
X191523Y38621D01*
X176025D01*
X175800Y39104D01*
X176044Y39692D01*
Y40329D01*
X175990Y40458D01*
X176324Y40958D01*
X180578D01*
X181164Y41075D01*
X181660Y41406D01*
X188872Y48619D01*
X189204Y49115D01*
X189320Y49700D01*
Y53688D01*
X191294Y55661D01*
X204197D01*
X204700Y55761D01*
X206327D01*
X206497Y55691D01*
X207134D01*
X207722Y55934D01*
X208172Y56384D01*
X208415Y56972D01*
Y57609D01*
X208172Y58197D01*
X207722Y58647D01*
X207134Y58891D01*
X206497D01*
X206327Y58820D01*
X205341D01*
X205297Y58886D01*
X203629Y60553D01*
Y71042D01*
X205607D01*
X205624Y71015D01*
X205760Y70542D01*
X205412Y70194D01*
X205168Y69606D01*
Y68969D01*
X205412Y68381D01*
X205862Y67931D01*
X206032Y67861D01*
X208485Y65408D01*
X208981Y65077D01*
X209566Y64960D01*
X217291D01*
X217439Y64812D01*
Y46292D01*
X217555Y45706D01*
X217887Y45210D01*
X218418Y44679D01*
X218227Y44217D01*
X207990D01*
X207404Y44100D01*
X206908Y43769D01*
X206230Y43091D01*
X206150D01*
X205562Y42847D01*
X205112Y42397D01*
X204868Y41809D01*
Y41173D01*
X205112Y40584D01*
X205112Y40584D01*
Y34953D01*
X204432Y34863D01*
X203586Y34513D01*
X203139Y34170D01*
X202640Y34417D01*
Y41197D01*
X202523Y41782D01*
X202192Y42279D01*
X201796Y42674D01*
X201300Y43005D01*
X200715Y43122D01*
X192500D01*
X192330Y43192D01*
X191693D01*
X191105Y42949D01*
X190655Y42499D01*
X190411Y41911D01*
Y41274D01*
X190655Y40686D01*
X191105Y40236D01*
X191693Y39992D01*
X192330D01*
X192500Y40063D01*
X199581D01*
Y26320D01*
X199319Y26058D01*
X191399D01*
X191228Y26129D01*
X190592D01*
X190004Y25885D01*
X189554Y25435D01*
X189310Y24847D01*
Y24210D01*
X189554Y23622D01*
X189610Y23566D01*
Y23078D01*
X189458Y22879D01*
X189108Y22034D01*
X188988Y21126D01*
Y18173D01*
X189108Y17266D01*
X189458Y16420D01*
X189470Y16405D01*
X189307Y15796D01*
X189181Y15744D01*
X188731Y15294D01*
X188487Y14706D01*
Y14069D01*
X188731Y13481D01*
X189181Y13031D01*
X189769Y12787D01*
X190406D01*
X190994Y13031D01*
X191444Y13481D01*
X191687Y14069D01*
Y14269D01*
X192186Y14708D01*
X192495Y14667D01*
X195448D01*
X196355Y14786D01*
X197201Y15137D01*
X197927Y15694D01*
X198484Y16420D01*
X198834Y17266D01*
X198954Y18173D01*
Y21126D01*
X198834Y22034D01*
X198642Y22499D01*
X198976Y22999D01*
X199952D01*
X200537Y23116D01*
X201034Y23447D01*
X202192Y24605D01*
X202523Y25101D01*
X202622Y25596D01*
X202866Y25751D01*
X203139Y25829D01*
X203586Y25487D01*
X204432Y25137D01*
X205339Y25017D01*
X208292D01*
X209199Y25137D01*
X210045Y25487D01*
X210771Y26044D01*
X211328Y26770D01*
X211679Y27616D01*
X211697Y27753D01*
X211832Y27831D01*
X212469D01*
X212792Y27965D01*
X217705D01*
X217722Y27957D01*
X218359D01*
X218947Y28201D01*
X219397Y28651D01*
X219640Y29239D01*
Y29876D01*
X219397Y30464D01*
X218947Y30914D01*
X218359Y31157D01*
X217722D01*
X217399Y31024D01*
X212487D01*
X212469Y31031D01*
X211832D01*
X211798Y31465D01*
Y31476D01*
X211679Y32384D01*
X211445Y32948D01*
X211869Y33231D01*
X211894Y33206D01*
X212482Y32963D01*
X213118D01*
X213706Y33206D01*
X214156Y33657D01*
X214400Y34245D01*
Y34881D01*
X214156Y35469D01*
X213706Y35919D01*
X213118Y36163D01*
X212482D01*
X211894Y35919D01*
X211443Y35469D01*
X211200Y34881D01*
Y34245D01*
X211224Y34187D01*
X210787Y33935D01*
X210771Y33956D01*
X210045Y34513D01*
X209199Y34863D01*
X208292Y34983D01*
X208171D01*
Y40706D01*
X208623Y41158D01*
X223241D01*
X223412Y41087D01*
X224048D01*
X224219Y41158D01*
X226340D01*
X226439Y40658D01*
X226194Y40556D01*
X225744Y40106D01*
X225500Y39518D01*
Y38882D01*
X225744Y38294D01*
X226194Y37843D01*
X226364Y37773D01*
X227926Y36211D01*
X228423Y35879D01*
X229008Y35763D01*
X249232D01*
X249403Y35692D01*
X250039D01*
X250627Y35936D01*
X251077Y36386D01*
X251321Y36974D01*
Y37610D01*
X251077Y38198D01*
X250627Y38648D01*
X250039Y38892D01*
X249403D01*
X249232Y38821D01*
X233734D01*
X233509Y39304D01*
X233753Y39892D01*
Y40529D01*
X233699Y40658D01*
X234033Y41158D01*
X238288D01*
X238873Y41275D01*
X239369Y41606D01*
X246581Y48818D01*
X246913Y49315D01*
X247029Y49900D01*
Y53888D01*
X248690Y55549D01*
X263852D01*
X264022Y55478D01*
X264659D01*
X265247Y55722D01*
X265697Y56172D01*
X265940Y56760D01*
Y57396D01*
X265697Y57985D01*
X265247Y58435D01*
X264659Y58678D01*
X264022D01*
X263852Y58608D01*
X261895D01*
X259574Y60929D01*
Y70830D01*
X263132D01*
X263150Y70802D01*
X263285Y70330D01*
X262937Y69981D01*
X262693Y69393D01*
Y68757D01*
X262937Y68169D01*
X263387Y67718D01*
X263557Y67648D01*
X266009Y65196D01*
X266506Y64864D01*
X267091Y64748D01*
X274816D01*
X274964Y64600D01*
Y46079D01*
X275020Y45798D01*
X275080Y45494D01*
X275080Y45494D01*
X275080Y45494D01*
X275239Y45256D01*
X275412Y44998D01*
X275943Y44466D01*
X275752Y44004D01*
X265515D01*
X264929Y43888D01*
X264433Y43556D01*
X263755Y42878D01*
X263675D01*
X263087Y42635D01*
X262637Y42184D01*
X262393Y41596D01*
Y40960D01*
X262637Y40372D01*
X262637Y40371D01*
Y34740D01*
X261957Y34651D01*
X261111Y34301D01*
X260849Y34100D01*
X260349Y34346D01*
Y41397D01*
X260232Y41982D01*
X259901Y42479D01*
X259505Y42874D01*
X259009Y43205D01*
X258424Y43322D01*
X250209D01*
X250039Y43393D01*
X249402D01*
X248814Y43149D01*
X248364Y42699D01*
X248120Y42111D01*
Y41474D01*
X248364Y40886D01*
X248814Y40436D01*
X249402Y40192D01*
X250039D01*
X250209Y40263D01*
X257290D01*
Y26520D01*
X257028Y26258D01*
X249108D01*
X248938Y26329D01*
X248301D01*
X247713Y26085D01*
X247263Y25635D01*
X247019Y25047D01*
Y24410D01*
X247263Y23822D01*
X247320Y23766D01*
Y23278D01*
X247167Y23079D01*
X246817Y22234D01*
X246698Y21326D01*
Y18373D01*
X246817Y17466D01*
X247167Y16620D01*
X247179Y16605D01*
X247016Y15996D01*
X246890Y15944D01*
X246440Y15494D01*
X246197Y14906D01*
Y14269D01*
X246440Y13681D01*
X246890Y13231D01*
X247478Y12987D01*
X248115D01*
X248703Y13231D01*
X249153Y13681D01*
X249396Y14269D01*
Y14469D01*
X249896Y14908D01*
X250204Y14867D01*
X253157D01*
X254064Y14987D01*
X254910Y15337D01*
X255636Y15894D01*
X256193Y16620D01*
X256544Y17466D01*
X256663Y18373D01*
Y21326D01*
X256544Y22234D01*
X256351Y22699D01*
X256685Y23199D01*
X257661D01*
X257952Y23257D01*
X258246Y23315D01*
X258246Y23316D01*
X258246Y23316D01*
X258460Y23458D01*
X258742Y23647D01*
X259901Y24805D01*
X259901Y24805D01*
X259901Y24805D01*
X260045Y25021D01*
X260232Y25301D01*
X260232Y25301D01*
X260232Y25301D01*
X260235Y25316D01*
X260760Y25527D01*
X260786Y25523D01*
X261111Y25275D01*
X261957Y24924D01*
X262864Y24805D01*
X265817D01*
X266724Y24924D01*
X267570Y25275D01*
X268296Y25832D01*
X268853Y26558D01*
X269204Y27404D01*
X269272Y27921D01*
X269357Y27970D01*
X269994D01*
X269997Y27971D01*
X274909D01*
X275247Y27831D01*
X275884D01*
X276472Y28074D01*
X276922Y28525D01*
X277165Y29113D01*
Y29749D01*
X276922Y30337D01*
X276472Y30787D01*
X275884Y31031D01*
X275247D01*
X275245Y31030D01*
X270333D01*
X269994Y31170D01*
X269357D01*
X269275Y31632D01*
X269204Y32171D01*
X268970Y32736D01*
X269394Y33019D01*
X269419Y32994D01*
X270007Y32750D01*
X270643D01*
X271231Y32994D01*
X271681Y33444D01*
X271925Y34032D01*
Y34669D01*
X271681Y35257D01*
X271231Y35707D01*
X270643Y35950D01*
X270007D01*
X269419Y35707D01*
X268969Y35257D01*
X268725Y34669D01*
Y34032D01*
X268749Y33975D01*
X268312Y33722D01*
X268296Y33743D01*
X267570Y34301D01*
X266724Y34651D01*
X265817Y34770D01*
X265696D01*
Y40494D01*
X266148Y40946D01*
X280766D01*
X280937Y40875D01*
X281573D01*
X282161Y41118D01*
X282611Y41569D01*
X282855Y42157D01*
Y42793D01*
X282750Y43045D01*
X283084Y43546D01*
X288967D01*
X289107Y43488D01*
X289743D01*
X290331Y43731D01*
X290415Y43815D01*
X290915Y43608D01*
Y41677D01*
X290415Y41425D01*
X289996Y41598D01*
X289359D01*
X288771Y41354D01*
X288321Y40904D01*
X288078Y40316D01*
Y39680D01*
X288321Y39092D01*
X288771Y38642D01*
X289359Y38398D01*
X289996D01*
X290440Y38582D01*
X290883Y38428D01*
X290997Y38347D01*
X291031Y38173D01*
X291363Y37676D01*
X293041Y35998D01*
X293537Y35667D01*
X294122Y35550D01*
X306757D01*
X306927Y35480D01*
X307564D01*
X308152Y35723D01*
X308602Y36173D01*
X308846Y36761D01*
Y37398D01*
X308602Y37986D01*
X308152Y38436D01*
X307564Y38680D01*
X306927D01*
X306757Y38609D01*
X294756D01*
X293973Y39391D01*
Y52762D01*
X293857Y53347D01*
X293526Y53843D01*
X291147Y56222D01*
X291076Y56393D01*
X290626Y56843D01*
X290038Y57086D01*
X289401D01*
X289028Y56932D01*
X288744Y57355D01*
X301217Y69828D01*
X303955D01*
X304126Y69758D01*
X304762D01*
X304766Y69756D01*
X304781Y69643D01*
X305131Y68797D01*
X305688Y68071D01*
X306415Y67513D01*
X307260Y67163D01*
X308168Y67044D01*
X311121D01*
X312028Y67163D01*
X312874Y67513D01*
X313600Y68071D01*
X314157Y68797D01*
X314507Y69643D01*
X314627Y70550D01*
Y73503D01*
X314507Y74410D01*
X314157Y75256D01*
X313600Y75982D01*
X312874Y76539D01*
X312028Y76890D01*
X311121Y77009D01*
X308168D01*
X307260Y76890D01*
X306415Y76539D01*
X305688Y75982D01*
X305131Y75256D01*
X304781Y74410D01*
X304661Y73503D01*
Y73114D01*
X304088Y73000D01*
X303919Y72887D01*
X302109D01*
X301918Y73349D01*
X307982Y79413D01*
X308152Y79483D01*
X308602Y79933D01*
X308846Y80522D01*
Y81158D01*
X308602Y81746D01*
X308152Y82196D01*
X307564Y82440D01*
X306927D01*
X306339Y82196D01*
X305889Y81746D01*
X305819Y81576D01*
X298132Y73889D01*
X258630D01*
X258045Y73772D01*
X257602Y73477D01*
X257238Y73570D01*
X257102Y73626D01*
Y73715D01*
X256983Y74623D01*
X256632Y75468D01*
X256075Y76195D01*
X255349Y76752D01*
X254503Y77102D01*
X253596Y77222D01*
X250643D01*
X249735Y77102D01*
X248890Y76752D01*
X248164Y76195D01*
X247606Y75468D01*
X247256Y74623D01*
X247137Y73715D01*
Y73327D01*
X246564Y73213D01*
X246394Y73099D01*
X244584D01*
X244393Y73562D01*
X250457Y79625D01*
X250627Y79696D01*
X251077Y80146D01*
X251321Y80734D01*
Y81370D01*
X251077Y81959D01*
X250627Y82409D01*
X250039Y82652D01*
D02*
G37*
G36*
X38493Y66298D02*
X37857D01*
X37269Y66054D01*
X36819Y65604D01*
X36575Y65016D01*
Y64380D01*
X36819Y63792D01*
X37269Y63341D01*
X37857Y63098D01*
X38493D01*
X39081Y63341D01*
X39532Y63792D01*
X39775Y64380D01*
Y65016D01*
X39532Y65604D01*
X39081Y66054D01*
X38493Y66298D01*
D02*
G37*
G36*
X59818Y71010D02*
X59182D01*
X58594Y70766D01*
X58144Y70316D01*
X57900Y69728D01*
Y69091D01*
X57971Y68921D01*
Y54458D01*
X56873Y53361D01*
X56541Y52865D01*
X56425Y52279D01*
Y26642D01*
X56541Y26057D01*
X56873Y25561D01*
X57971Y24463D01*
Y18189D01*
X57900Y18018D01*
Y17382D01*
X58144Y16794D01*
X58594Y16344D01*
X59182Y16100D01*
X59818D01*
X60406Y16344D01*
X60856Y16794D01*
X61100Y17382D01*
Y18018D01*
X61029Y18189D01*
Y25097D01*
X60913Y25682D01*
X60581Y26178D01*
X59484Y27276D01*
Y47928D01*
X59984Y48213D01*
X60346Y48063D01*
X60982D01*
X61571Y48307D01*
X62021Y48757D01*
X62091Y48928D01*
X68200Y55036D01*
X79949D01*
X80119Y54966D01*
X80756D01*
X81344Y55209D01*
X81794Y55659D01*
X82037Y56247D01*
Y56884D01*
X81794Y57472D01*
X81344Y57922D01*
X80756Y58166D01*
X80119D01*
X79949Y58095D01*
X67566D01*
X66981Y57978D01*
X66485Y57647D01*
X60204Y51367D01*
X59689Y51559D01*
X59669Y51832D01*
X60581Y52744D01*
X60913Y53240D01*
X61029Y53825D01*
Y68921D01*
X61100Y69091D01*
Y69728D01*
X60856Y70316D01*
X60406Y70766D01*
X59818Y71010D01*
D02*
G37*
G36*
X20484Y29524D02*
X19848D01*
X19260Y29281D01*
X18810Y28831D01*
X18566Y28243D01*
Y27606D01*
X18810Y27018D01*
X19260Y26568D01*
X19848Y26324D01*
X20484D01*
X21072Y26568D01*
X21523Y27018D01*
X21766Y27606D01*
Y28243D01*
X21523Y28831D01*
X21072Y29281D01*
X20484Y29524D01*
D02*
G37*
G36*
X20480Y22110D02*
X19844D01*
X19256Y21866D01*
X18805Y21416D01*
X18562Y20828D01*
Y20192D01*
X18805Y19604D01*
X19256Y19153D01*
X19844Y18910D01*
X20480D01*
X21068Y19153D01*
X21518Y19604D01*
X21762Y20192D01*
Y20828D01*
X21518Y21416D01*
X21068Y21866D01*
X20480Y22110D01*
D02*
G37*
G36*
X223786Y19170D02*
X223149D01*
X222561Y18927D01*
X222111Y18476D01*
X221868Y17888D01*
Y17252D01*
X222111Y16664D01*
X222561Y16214D01*
X223149Y15970D01*
X223786D01*
X224374Y16214D01*
X224824Y16664D01*
X225068Y17252D01*
Y17888D01*
X224824Y18476D01*
X224374Y18927D01*
X223786Y19170D01*
D02*
G37*
G36*
X166077Y18970D02*
X165440D01*
X164852Y18727D01*
X164402Y18277D01*
X164158Y17688D01*
Y17052D01*
X164402Y16464D01*
X164852Y16014D01*
X165440Y15770D01*
X166077D01*
X166665Y16014D01*
X167115Y16464D01*
X167359Y17052D01*
Y17688D01*
X167115Y18277D01*
X166665Y18727D01*
X166077Y18970D01*
D02*
G37*
G36*
X108386D02*
X107749D01*
X107161Y18727D01*
X106711Y18277D01*
X106468Y17688D01*
Y17052D01*
X106711Y16464D01*
X107161Y16014D01*
X107749Y15770D01*
X108386D01*
X108974Y16014D01*
X109424Y16464D01*
X109668Y17052D01*
Y17688D01*
X109424Y18277D01*
X108974Y18727D01*
X108386Y18970D01*
D02*
G37*
G36*
X281311Y18958D02*
X280674D01*
X280086Y18714D01*
X279636Y18264D01*
X279393Y17676D01*
Y17039D01*
X279636Y16451D01*
X280086Y16001D01*
X280674Y15758D01*
X281311D01*
X281899Y16001D01*
X282349Y16451D01*
X282593Y17039D01*
Y17676D01*
X282349Y18264D01*
X281899Y18714D01*
X281311Y18958D01*
D02*
G37*
G36*
X295586Y12453D02*
X294414D01*
X293281Y12149D01*
X292266Y11563D01*
X291437Y10734D01*
X290851Y9719D01*
X290547Y8586D01*
Y7414D01*
X290851Y6281D01*
X291437Y5266D01*
X292266Y4437D01*
X293281Y3851D01*
X294414Y3547D01*
X295586D01*
X296719Y3851D01*
X297734Y4437D01*
X298563Y5266D01*
X299149Y6281D01*
X299453Y7414D01*
Y8586D01*
X299149Y9719D01*
X298563Y10734D01*
X297734Y11563D01*
X296719Y12149D01*
X295586Y12453D01*
D02*
G37*
G36*
X285586D02*
X284414D01*
X283281Y12149D01*
X282266Y11563D01*
X281437Y10734D01*
X280851Y9719D01*
X280547Y8586D01*
Y7414D01*
X280851Y6281D01*
X281437Y5266D01*
X282266Y4437D01*
X283281Y3851D01*
X284414Y3547D01*
X285586D01*
X286719Y3851D01*
X287734Y4437D01*
X288563Y5266D01*
X289149Y6281D01*
X289453Y7414D01*
Y8586D01*
X289149Y9719D01*
X288563Y10734D01*
X287734Y11563D01*
X286719Y12149D01*
X285586Y12453D01*
D02*
G37*
G36*
X275586D02*
X274414D01*
X273281Y12149D01*
X272266Y11563D01*
X271437Y10734D01*
X270851Y9719D01*
X270547Y8586D01*
Y7414D01*
X270851Y6281D01*
X271437Y5266D01*
X272266Y4437D01*
X273281Y3851D01*
X274414Y3547D01*
X275586D01*
X276719Y3851D01*
X277734Y4437D01*
X278563Y5266D01*
X279149Y6281D01*
X279453Y7414D01*
Y8586D01*
X279149Y9719D01*
X278563Y10734D01*
X277734Y11563D01*
X276719Y12149D01*
X275586Y12453D01*
D02*
G37*
G36*
X265586D02*
X264414D01*
X263281Y12149D01*
X262266Y11563D01*
X261437Y10734D01*
X260851Y9719D01*
X260547Y8586D01*
Y7414D01*
X260851Y6281D01*
X261437Y5266D01*
X262266Y4437D01*
X263281Y3851D01*
X264414Y3547D01*
X265586D01*
X266719Y3851D01*
X267734Y4437D01*
X268563Y5266D01*
X269149Y6281D01*
X269453Y7414D01*
Y8586D01*
X269149Y9719D01*
X268563Y10734D01*
X267734Y11563D01*
X266719Y12149D01*
X265586Y12453D01*
D02*
G37*
G36*
X255586D02*
X254414D01*
X253281Y12149D01*
X252266Y11563D01*
X251437Y10734D01*
X250851Y9719D01*
X250547Y8586D01*
Y7414D01*
X250851Y6281D01*
X251437Y5266D01*
X252266Y4437D01*
X253281Y3851D01*
X254414Y3547D01*
X255586D01*
X256719Y3851D01*
X257734Y4437D01*
X258563Y5266D01*
X259149Y6281D01*
X259453Y7414D01*
Y8586D01*
X259149Y9719D01*
X258563Y10734D01*
X257734Y11563D01*
X256719Y12149D01*
X255586Y12453D01*
D02*
G37*
G36*
X245586D02*
X244414D01*
X243281Y12149D01*
X242266Y11563D01*
X241437Y10734D01*
X240851Y9719D01*
X240547Y8586D01*
Y7414D01*
X240851Y6281D01*
X241437Y5266D01*
X242266Y4437D01*
X243281Y3851D01*
X244414Y3547D01*
X245586D01*
X246719Y3851D01*
X247734Y4437D01*
X248563Y5266D01*
X249149Y6281D01*
X249453Y7414D01*
Y8586D01*
X249149Y9719D01*
X248563Y10734D01*
X247734Y11563D01*
X246719Y12149D01*
X245586Y12453D01*
D02*
G37*
G36*
X235586D02*
X234414D01*
X233281Y12149D01*
X232266Y11563D01*
X231437Y10734D01*
X230851Y9719D01*
X230547Y8586D01*
Y7414D01*
X230851Y6281D01*
X231437Y5266D01*
X232266Y4437D01*
X233281Y3851D01*
X234414Y3547D01*
X235586D01*
X236719Y3851D01*
X237734Y4437D01*
X238563Y5266D01*
X239149Y6281D01*
X239453Y7414D01*
Y8586D01*
X239149Y9719D01*
X238563Y10734D01*
X237734Y11563D01*
X236719Y12149D01*
X235586Y12453D01*
D02*
G37*
G36*
X225586D02*
X224414D01*
X223281Y12149D01*
X222266Y11563D01*
X221437Y10734D01*
X220851Y9719D01*
X220547Y8586D01*
Y7414D01*
X220851Y6281D01*
X221437Y5266D01*
X222266Y4437D01*
X223281Y3851D01*
X224414Y3547D01*
X225586D01*
X226719Y3851D01*
X227734Y4437D01*
X228563Y5266D01*
X229149Y6281D01*
X229453Y7414D01*
Y8586D01*
X229149Y9719D01*
X228563Y10734D01*
X227734Y11563D01*
X226719Y12149D01*
X225586Y12453D01*
D02*
G37*
G36*
X215586D02*
X214414D01*
X213281Y12149D01*
X212266Y11563D01*
X211437Y10734D01*
X210851Y9719D01*
X210547Y8586D01*
Y7414D01*
X210851Y6281D01*
X211437Y5266D01*
X212266Y4437D01*
X213281Y3851D01*
X214414Y3547D01*
X215586D01*
X216719Y3851D01*
X217734Y4437D01*
X218563Y5266D01*
X219149Y6281D01*
X219453Y7414D01*
Y8586D01*
X219149Y9719D01*
X218563Y10734D01*
X217734Y11563D01*
X216719Y12149D01*
X215586Y12453D01*
D02*
G37*
G36*
X205586D02*
X204414D01*
X203281Y12149D01*
X202266Y11563D01*
X201437Y10734D01*
X200851Y9719D01*
X200547Y8586D01*
Y7414D01*
X200851Y6281D01*
X201437Y5266D01*
X202266Y4437D01*
X203281Y3851D01*
X204414Y3547D01*
X205586D01*
X206719Y3851D01*
X207734Y4437D01*
X208563Y5266D01*
X209149Y6281D01*
X209453Y7414D01*
Y8586D01*
X209149Y9719D01*
X208563Y10734D01*
X207734Y11563D01*
X206719Y12149D01*
X205586Y12453D01*
D02*
G37*
G36*
X195586D02*
X194414D01*
X193281Y12149D01*
X192266Y11563D01*
X191437Y10734D01*
X190851Y9719D01*
X190547Y8586D01*
Y7414D01*
X190851Y6281D01*
X191437Y5266D01*
X192266Y4437D01*
X193281Y3851D01*
X194414Y3547D01*
X195586D01*
X196719Y3851D01*
X197734Y4437D01*
X198563Y5266D01*
X199149Y6281D01*
X199453Y7414D01*
Y8586D01*
X199149Y9719D01*
X198563Y10734D01*
X197734Y11563D01*
X196719Y12149D01*
X195586Y12453D01*
D02*
G37*
G36*
X185586D02*
X184414D01*
X183281Y12149D01*
X182266Y11563D01*
X181437Y10734D01*
X180851Y9719D01*
X180547Y8586D01*
Y7414D01*
X180851Y6281D01*
X181437Y5266D01*
X182266Y4437D01*
X183281Y3851D01*
X184414Y3547D01*
X185586D01*
X186719Y3851D01*
X187734Y4437D01*
X188563Y5266D01*
X189149Y6281D01*
X189453Y7414D01*
Y8586D01*
X189149Y9719D01*
X188563Y10734D01*
X187734Y11563D01*
X186719Y12149D01*
X185586Y12453D01*
D02*
G37*
G36*
X175586D02*
X174414D01*
X173281Y12149D01*
X172266Y11563D01*
X171437Y10734D01*
X170851Y9719D01*
X170547Y8586D01*
Y7414D01*
X170851Y6281D01*
X171437Y5266D01*
X172266Y4437D01*
X173281Y3851D01*
X174414Y3547D01*
X175586D01*
X176719Y3851D01*
X177734Y4437D01*
X178563Y5266D01*
X179149Y6281D01*
X179453Y7414D01*
Y8586D01*
X179149Y9719D01*
X178563Y10734D01*
X177734Y11563D01*
X176719Y12149D01*
X175586Y12453D01*
D02*
G37*
G36*
X165586D02*
X164414D01*
X163281Y12149D01*
X162266Y11563D01*
X161437Y10734D01*
X160851Y9719D01*
X160547Y8586D01*
Y7414D01*
X160851Y6281D01*
X161437Y5266D01*
X162266Y4437D01*
X163281Y3851D01*
X164414Y3547D01*
X165586D01*
X166719Y3851D01*
X167734Y4437D01*
X168563Y5266D01*
X169149Y6281D01*
X169453Y7414D01*
Y8586D01*
X169149Y9719D01*
X168563Y10734D01*
X167734Y11563D01*
X166719Y12149D01*
X165586Y12453D01*
D02*
G37*
G36*
X155586D02*
X154414D01*
X153281Y12149D01*
X152266Y11563D01*
X151437Y10734D01*
X150851Y9719D01*
X150547Y8586D01*
Y7414D01*
X150851Y6281D01*
X151437Y5266D01*
X152266Y4437D01*
X153281Y3851D01*
X154414Y3547D01*
X155586D01*
X156719Y3851D01*
X157734Y4437D01*
X158563Y5266D01*
X159149Y6281D01*
X159453Y7414D01*
Y8586D01*
X159149Y9719D01*
X158563Y10734D01*
X157734Y11563D01*
X156719Y12149D01*
X155586Y12453D01*
D02*
G37*
G36*
X145586D02*
X144414D01*
X143281Y12149D01*
X142266Y11563D01*
X141437Y10734D01*
X140851Y9719D01*
X140547Y8586D01*
Y7414D01*
X140851Y6281D01*
X141437Y5266D01*
X142266Y4437D01*
X143281Y3851D01*
X144414Y3547D01*
X145586D01*
X146719Y3851D01*
X147734Y4437D01*
X148563Y5266D01*
X149149Y6281D01*
X149453Y7414D01*
Y8586D01*
X149149Y9719D01*
X148563Y10734D01*
X147734Y11563D01*
X146719Y12149D01*
X145586Y12453D01*
D02*
G37*
G36*
X135586D02*
X134414D01*
X133281Y12149D01*
X132266Y11563D01*
X131437Y10734D01*
X130851Y9719D01*
X130547Y8586D01*
Y7414D01*
X130851Y6281D01*
X131437Y5266D01*
X132266Y4437D01*
X133281Y3851D01*
X134414Y3547D01*
X135586D01*
X136719Y3851D01*
X137734Y4437D01*
X138563Y5266D01*
X139149Y6281D01*
X139453Y7414D01*
Y8586D01*
X139149Y9719D01*
X138563Y10734D01*
X137734Y11563D01*
X136719Y12149D01*
X135586Y12453D01*
D02*
G37*
G36*
X125586D02*
X124414D01*
X123281Y12149D01*
X122266Y11563D01*
X121437Y10734D01*
X120851Y9719D01*
X120547Y8586D01*
Y7414D01*
X120851Y6281D01*
X121437Y5266D01*
X122266Y4437D01*
X123281Y3851D01*
X124414Y3547D01*
X125586D01*
X126719Y3851D01*
X127734Y4437D01*
X128563Y5266D01*
X129149Y6281D01*
X129453Y7414D01*
Y8586D01*
X129149Y9719D01*
X128563Y10734D01*
X127734Y11563D01*
X126719Y12149D01*
X125586Y12453D01*
D02*
G37*
G36*
X115586D02*
X114414D01*
X113281Y12149D01*
X112266Y11563D01*
X111437Y10734D01*
X110851Y9719D01*
X110547Y8586D01*
Y7414D01*
X110851Y6281D01*
X111437Y5266D01*
X112266Y4437D01*
X113281Y3851D01*
X114414Y3547D01*
X115586D01*
X116719Y3851D01*
X117734Y4437D01*
X118563Y5266D01*
X119149Y6281D01*
X119453Y7414D01*
Y8586D01*
X119149Y9719D01*
X118563Y10734D01*
X117734Y11563D01*
X116719Y12149D01*
X115586Y12453D01*
D02*
G37*
G36*
X105586D02*
X104414D01*
X103281Y12149D01*
X102266Y11563D01*
X101437Y10734D01*
X100851Y9719D01*
X100547Y8586D01*
Y7414D01*
X100851Y6281D01*
X101437Y5266D01*
X102266Y4437D01*
X103281Y3851D01*
X104414Y3547D01*
X105586D01*
X106719Y3851D01*
X107734Y4437D01*
X108563Y5266D01*
X109149Y6281D01*
X109453Y7414D01*
Y8586D01*
X109149Y9719D01*
X108563Y10734D01*
X107734Y11563D01*
X106719Y12149D01*
X105586Y12453D01*
D02*
G37*
G36*
X95586D02*
X94414D01*
X93281Y12149D01*
X92266Y11563D01*
X91437Y10734D01*
X90851Y9719D01*
X90547Y8586D01*
Y7414D01*
X90851Y6281D01*
X91437Y5266D01*
X92266Y4437D01*
X93281Y3851D01*
X94414Y3547D01*
X95586D01*
X96719Y3851D01*
X97734Y4437D01*
X98563Y5266D01*
X99149Y6281D01*
X99453Y7414D01*
Y8586D01*
X99149Y9719D01*
X98563Y10734D01*
X97734Y11563D01*
X96719Y12149D01*
X95586Y12453D01*
D02*
G37*
G36*
X85586D02*
X84414D01*
X83281Y12149D01*
X82266Y11563D01*
X81437Y10734D01*
X80851Y9719D01*
X80547Y8586D01*
Y7414D01*
X80851Y6281D01*
X81437Y5266D01*
X82266Y4437D01*
X83281Y3851D01*
X84414Y3547D01*
X85586D01*
X86719Y3851D01*
X87734Y4437D01*
X88563Y5266D01*
X89149Y6281D01*
X89453Y7414D01*
Y8586D01*
X89149Y9719D01*
X88563Y10734D01*
X87734Y11563D01*
X86719Y12149D01*
X85586Y12453D01*
D02*
G37*
G36*
X75586D02*
X74414D01*
X73281Y12149D01*
X72266Y11563D01*
X71437Y10734D01*
X70851Y9719D01*
X70547Y8586D01*
Y7414D01*
X70851Y6281D01*
X71437Y5266D01*
X72266Y4437D01*
X73281Y3851D01*
X74414Y3547D01*
X75586D01*
X76719Y3851D01*
X77734Y4437D01*
X78563Y5266D01*
X79149Y6281D01*
X79453Y7414D01*
Y8586D01*
X79149Y9719D01*
X78563Y10734D01*
X77734Y11563D01*
X76719Y12149D01*
X75586Y12453D01*
D02*
G37*
G36*
X65586D02*
X64414D01*
X63281Y12149D01*
X62266Y11563D01*
X61437Y10734D01*
X60851Y9719D01*
X60547Y8586D01*
Y7414D01*
X60851Y6281D01*
X61437Y5266D01*
X62266Y4437D01*
X63281Y3851D01*
X64414Y3547D01*
X65586D01*
X66719Y3851D01*
X67734Y4437D01*
X68563Y5266D01*
X69149Y6281D01*
X69453Y7414D01*
Y8586D01*
X69149Y9719D01*
X68563Y10734D01*
X67734Y11563D01*
X66719Y12149D01*
X65586Y12453D01*
D02*
G37*
G36*
X55586D02*
X54414D01*
X53281Y12149D01*
X52266Y11563D01*
X51437Y10734D01*
X50851Y9719D01*
X50547Y8586D01*
Y7414D01*
X50851Y6281D01*
X51437Y5266D01*
X52266Y4437D01*
X53281Y3851D01*
X54414Y3547D01*
X55586D01*
X56719Y3851D01*
X57734Y4437D01*
X58563Y5266D01*
X59149Y6281D01*
X59453Y7414D01*
Y8586D01*
X59149Y9719D01*
X58563Y10734D01*
X57734Y11563D01*
X56719Y12149D01*
X55586Y12453D01*
D02*
G37*
G36*
X52416Y66207D02*
X51779D01*
X51191Y65964D01*
X50741Y65513D01*
X50497Y64925D01*
Y64289D01*
X50568Y64118D01*
Y39067D01*
X43918Y32417D01*
X43587Y31921D01*
X43471Y31336D01*
Y13941D01*
X43400Y13771D01*
Y13134D01*
X43562Y12742D01*
X43365Y12172D01*
X43281Y12149D01*
X42266Y11563D01*
X41437Y10734D01*
X40851Y9719D01*
X40547Y8586D01*
Y7414D01*
X40851Y6281D01*
X41437Y5266D01*
X42266Y4437D01*
X43281Y3851D01*
X44414Y3547D01*
X45586D01*
X46719Y3851D01*
X47734Y4437D01*
X48563Y5266D01*
X49149Y6281D01*
X49453Y7414D01*
Y8586D01*
X49149Y9719D01*
X48563Y10734D01*
X47734Y11563D01*
X46719Y12149D01*
X46635Y12172D01*
X46437Y12742D01*
X46600Y13134D01*
Y13771D01*
X46529Y13941D01*
Y30702D01*
X53179Y37352D01*
X53510Y37848D01*
X53627Y38433D01*
Y64118D01*
X53697Y64289D01*
Y64925D01*
X53454Y65513D01*
X53004Y65964D01*
X52416Y66207D01*
D02*
G37*
G36*
X35586Y12453D02*
X34414D01*
X33281Y12149D01*
X32266Y11563D01*
X31437Y10734D01*
X30851Y9719D01*
X30547Y8586D01*
Y7414D01*
X30851Y6281D01*
X31437Y5266D01*
X32266Y4437D01*
X33281Y3851D01*
X34414Y3547D01*
X35586D01*
X36719Y3851D01*
X37734Y4437D01*
X38563Y5266D01*
X39149Y6281D01*
X39453Y7414D01*
Y8586D01*
X39149Y9719D01*
X38563Y10734D01*
X37734Y11563D01*
X36719Y12149D01*
X35586Y12453D01*
D02*
G37*
G36*
X25586D02*
X24414D01*
X23281Y12149D01*
X22266Y11563D01*
X21437Y10734D01*
X20851Y9719D01*
X20547Y8586D01*
Y7414D01*
X20851Y6281D01*
X21437Y5266D01*
X22266Y4437D01*
X23281Y3851D01*
X24414Y3547D01*
X25586D01*
X26719Y3851D01*
X27734Y4437D01*
X28563Y5266D01*
X29149Y6281D01*
X29453Y7414D01*
Y8586D01*
X29149Y9719D01*
X28563Y10734D01*
X27734Y11563D01*
X26719Y12149D01*
X25586Y12453D01*
D02*
G37*
G36*
X15586D02*
X14414D01*
X13281Y12149D01*
X12266Y11563D01*
X11437Y10734D01*
X10851Y9719D01*
X10547Y8586D01*
Y7414D01*
X10851Y6281D01*
X11437Y5266D01*
X12266Y4437D01*
X13281Y3851D01*
X14414Y3547D01*
X15586D01*
X16719Y3851D01*
X17734Y4437D01*
X18563Y5266D01*
X19149Y6281D01*
X19453Y7414D01*
Y8586D01*
X19149Y9719D01*
X18563Y10734D01*
X17734Y11563D01*
X16719Y12149D01*
X15586Y12453D01*
D02*
G37*
%LPD*%
G36*
X239906Y70580D02*
X224703Y55378D01*
X222649Y53323D01*
X222317Y52827D01*
X222201Y52241D01*
Y48376D01*
X222130Y48206D01*
Y47569D01*
X222235Y47317D01*
X221900Y46817D01*
X220606D01*
X220497Y46925D01*
Y65446D01*
X220381Y66031D01*
X220050Y66527D01*
X219006Y67571D01*
X218510Y67903D01*
X217924Y68019D01*
X210199D01*
X208195Y70023D01*
X208125Y70194D01*
X207776Y70542D01*
X207912Y71015D01*
X207929Y71042D01*
X239715D01*
X239906Y70580D01*
D02*
G37*
G36*
X182197Y70380D02*
X166994Y55178D01*
X166994Y55178D01*
X164939Y53123D01*
X164608Y52627D01*
X164491Y52041D01*
Y48176D01*
X164421Y48006D01*
Y47369D01*
X164525Y47117D01*
X164191Y46617D01*
X162897D01*
X162788Y46725D01*
Y65246D01*
X162672Y65831D01*
X162341Y66327D01*
X161297Y67371D01*
X160801Y67703D01*
X160215Y67819D01*
X152490D01*
X150486Y69823D01*
X150416Y69994D01*
X150067Y70342D01*
X150203Y70815D01*
X150220Y70842D01*
X182006D01*
X182197Y70380D01*
D02*
G37*
G36*
X124111Y69985D02*
X109303Y55178D01*
X107248Y53123D01*
X106917Y52627D01*
X106801Y52041D01*
Y48176D01*
X106730Y48006D01*
Y47369D01*
X106834Y47117D01*
X106500Y46617D01*
X105206D01*
X105097Y46725D01*
Y65246D01*
X104981Y65831D01*
X104650Y66327D01*
X103606Y67371D01*
X103110Y67703D01*
X102524Y67819D01*
X94799D01*
X92795Y69823D01*
X92744Y69947D01*
X92827Y70177D01*
X92979Y70447D01*
X123919D01*
X124111Y69985D01*
D02*
G37*
G36*
X297431Y70368D02*
X282228Y55165D01*
X280173Y53110D01*
X279842Y52614D01*
X279725Y52029D01*
Y48164D01*
X279655Y47993D01*
Y47357D01*
X279759Y47104D01*
X279425Y46604D01*
X278131D01*
X278023Y46713D01*
Y65234D01*
X278023Y65234D01*
X278023Y65234D01*
X277969Y65505D01*
X277906Y65819D01*
X277906Y65819D01*
X277906Y65819D01*
X277739Y66068D01*
X277575Y66315D01*
X277574Y66315D01*
X277574Y66315D01*
X276531Y67359D01*
X276225Y67563D01*
X276034Y67690D01*
X276034Y67690D01*
X276034Y67690D01*
X275722Y67752D01*
X275449Y67807D01*
X267724D01*
X265720Y69811D01*
X265650Y69981D01*
X265301Y70330D01*
X265436Y70802D01*
X265454Y70830D01*
X297240D01*
X297431Y70368D01*
D02*
G37*
G36*
X246601Y69970D02*
X247238D01*
X247241Y69968D01*
X247256Y69855D01*
X247606Y69009D01*
X248164Y68283D01*
X248890Y67726D01*
X249735Y67375D01*
X250643Y67256D01*
X253596D01*
X254503Y67375D01*
X255349Y67726D01*
X256015Y68237D01*
X256515Y68121D01*
Y60295D01*
X256631Y59710D01*
X256963Y59214D01*
X257107Y59070D01*
X256916Y58608D01*
X248057D01*
X247739Y58544D01*
X247471Y58491D01*
X247471Y58491D01*
X247471Y58491D01*
X247222Y58324D01*
X246975Y58160D01*
X244419Y55603D01*
X244419Y55603D01*
X244419Y55603D01*
X244287Y55406D01*
X244087Y55107D01*
X244087Y55107D01*
X244087Y55107D01*
X243971Y54522D01*
X243971Y54522D01*
X243971Y54522D01*
Y50533D01*
X237654Y44217D01*
X233724D01*
X233390Y44717D01*
X233500Y44982D01*
Y45618D01*
X233290Y46125D01*
Y47044D01*
X233223Y47380D01*
X233423Y47861D01*
X233542Y48769D01*
Y51722D01*
X233423Y52629D01*
X233072Y53475D01*
X232824Y53799D01*
X232954Y54282D01*
X233101Y54343D01*
X233551Y54793D01*
X233794Y55381D01*
Y56017D01*
X233551Y56605D01*
X233101Y57055D01*
X232513Y57299D01*
X231876D01*
X231503Y57144D01*
X231220Y57568D01*
X243692Y70041D01*
X246431D01*
X246601Y69970D01*
D02*
G37*
G36*
X131201Y69770D02*
X131838D01*
X131841Y69768D01*
X131856Y69655D01*
X132206Y68809D01*
X132764Y68083D01*
X133490Y67526D01*
X134335Y67176D01*
X135243Y67056D01*
X138196D01*
X139103Y67176D01*
X139949Y67526D01*
X140675Y68083D01*
X140781Y68221D01*
X141281Y68051D01*
Y61300D01*
X141397Y60715D01*
X141397Y60715D01*
X141729Y60219D01*
X142766Y59182D01*
X142575Y58720D01*
X132969D01*
X132384Y58604D01*
X131888Y58272D01*
X129018Y55403D01*
X128687Y54907D01*
X128571Y54322D01*
Y50333D01*
X122254Y44017D01*
X118324D01*
X117990Y44517D01*
X118100Y44782D01*
Y45418D01*
X117890Y45925D01*
Y46844D01*
X117823Y47180D01*
X118023Y47661D01*
X118142Y48569D01*
Y51521D01*
X118023Y52429D01*
X117673Y53275D01*
X117424Y53598D01*
X117553Y54081D01*
X117701Y54142D01*
X118151Y54593D01*
X118395Y55181D01*
Y55817D01*
X118151Y56405D01*
X117701Y56855D01*
X117113Y57099D01*
X116476D01*
X116103Y56944D01*
X115820Y57368D01*
X128292Y69841D01*
X131031D01*
X131201Y69770D01*
D02*
G37*
%LPC*%
G36*
X226103Y67046D02*
X225466D01*
X224878Y66802D01*
X224428Y66352D01*
X224185Y65764D01*
Y65128D01*
X224428Y64540D01*
X224878Y64090D01*
X225466Y63846D01*
X226103D01*
X226691Y64090D01*
X227141Y64540D01*
X227385Y65128D01*
Y65764D01*
X227141Y66352D01*
X226691Y66802D01*
X226103Y67046D01*
D02*
G37*
G36*
X168394Y66846D02*
X167757D01*
X167169Y66602D01*
X166719Y66152D01*
X166475Y65564D01*
Y64928D01*
X166719Y64340D01*
X167169Y63889D01*
X167757Y63646D01*
X168394D01*
X168982Y63889D01*
X169432Y64340D01*
X169676Y64928D01*
Y65564D01*
X169432Y66152D01*
X168982Y66602D01*
X168394Y66846D01*
D02*
G37*
G36*
X110703D02*
X110066D01*
X109478Y66602D01*
X109028Y66152D01*
X108785Y65564D01*
Y64928D01*
X109028Y64340D01*
X109478Y63889D01*
X110066Y63646D01*
X110703D01*
X111291Y63889D01*
X111741Y64340D01*
X111985Y64928D01*
Y65564D01*
X111741Y66152D01*
X111291Y66602D01*
X110703Y66846D01*
D02*
G37*
G36*
X283628Y66834D02*
X282991D01*
X282403Y66590D01*
X281953Y66140D01*
X281710Y65552D01*
Y64915D01*
X281953Y64327D01*
X282403Y63877D01*
X282991Y63634D01*
X283628D01*
X284216Y63877D01*
X284666Y64327D01*
X284910Y64915D01*
Y65552D01*
X284666Y66140D01*
X284216Y66590D01*
X283628Y66834D01*
D02*
G37*
%LPD*%
D11*
X298765Y72359D02*
X307246Y80840D01*
X281255Y47675D02*
Y52029D01*
X300584Y71358D02*
X304444D01*
X283310Y54084D02*
X300584Y71358D01*
X258630Y72359D02*
X298765D01*
X258044Y71774D02*
X258630Y72359D01*
X281255Y52029D02*
X283310Y54084D01*
X85705Y71976D02*
X125445D01*
X134321Y80852D01*
X85119Y61300D02*
Y71391D01*
X85705Y71976D01*
X94166Y66290D02*
X102524D01*
X91368Y69087D02*
X94166Y66290D01*
X206768Y69288D02*
X209566Y66490D01*
X217924D01*
X218968Y65446D01*
Y46292D02*
Y65446D01*
Y46292D02*
X219972Y45287D01*
X207990Y42687D02*
X223730D01*
X202100Y59920D02*
X204215Y57805D01*
X247149Y71800D02*
X251680D01*
X238288Y42687D02*
X245500Y49900D01*
X246919Y71570D02*
X247149Y71800D01*
X243059Y71570D02*
X246919D01*
X225785Y54296D02*
X243059Y71570D01*
X231761Y45252D02*
X231809Y45300D01*
X231900D01*
X228559Y50245D02*
X231761Y47044D01*
X231725Y45287D02*
X231761Y45252D01*
X258044Y60295D02*
Y71774D01*
X199952Y24529D02*
X201110Y25686D01*
X245500Y54522D02*
X248057Y57078D01*
X245500Y49900D02*
Y54522D01*
X219972Y45287D02*
X231725D01*
X223730Y42687D02*
X238288D01*
X223730Y47888D02*
Y52241D01*
X231761Y45252D02*
Y47044D01*
X223730Y52241D02*
X225785Y54296D01*
X227100Y39200D02*
X229008Y37292D01*
X249720Y41793D02*
X258424D01*
X229008Y37292D02*
X249721D01*
X217977Y29494D02*
X218040Y29557D01*
X212151Y29431D02*
X212214Y29494D01*
X217977D01*
X206793Y41491D02*
X207990Y42687D01*
X248849Y23210D02*
X251680Y20378D01*
X248619Y24729D02*
X248849Y24499D01*
X248619Y24729D02*
X257661D01*
X258819Y25886D01*
X251680Y19850D02*
Y20378D01*
X248849Y23210D02*
Y24499D01*
X258819Y25886D02*
Y41397D01*
X258424Y41793D02*
X258819Y41397D01*
X206468Y41491D02*
X206642Y41317D01*
Y30174D02*
X206815Y30000D01*
X206642Y30174D02*
Y41317D01*
X200715Y41592D02*
X201110Y41197D01*
Y25686D02*
Y41197D01*
X206468Y41491D02*
X206793D01*
X204611Y57291D02*
X206815D01*
X204215Y57686D02*
X204611Y57291D01*
X204215Y57686D02*
Y57805D01*
X202100Y71986D02*
X202686Y72572D01*
X202100Y59920D02*
Y71986D01*
X202686Y72572D02*
X241241D01*
X251680Y71800D02*
X252119Y72239D01*
X241241Y72572D02*
X249721Y81052D01*
X269745Y29500D02*
X275496D01*
X269676Y29570D02*
X269745Y29500D01*
X275496D02*
X275565Y29431D01*
X131068Y90631D02*
X133448Y88251D01*
X152780D01*
X59500Y17700D02*
Y25097D01*
X57954Y26642D02*
Y52279D01*
Y26642D02*
X59500Y25097D01*
X57954Y52279D02*
X59500Y53825D01*
Y69410D01*
X45000Y13453D02*
Y31336D01*
X52097Y38433D01*
Y64607D01*
X21822Y62197D02*
X23190Y63565D01*
X21822Y38813D02*
Y62197D01*
Y38813D02*
X31610Y29025D01*
Y17813D02*
Y29025D01*
X23190Y63565D02*
X26364D01*
X31504D01*
X88815Y57091D02*
X89211D01*
X85515Y53790D02*
X88815Y57091D01*
X85515Y42072D02*
Y53790D01*
X89211Y57091D02*
X91415D01*
X72280Y28837D02*
X85515Y42072D01*
X37602Y69664D02*
X40143D01*
X31504Y63565D02*
X37602Y69664D01*
X60664Y49663D02*
X67566Y56565D01*
X80437D01*
X289286Y45039D02*
Y46832D01*
X174051Y45052D02*
Y46844D01*
X132969Y57191D02*
X146506D01*
X146802D01*
X116361Y45052D02*
Y46844D01*
X169510Y38856D02*
X171274Y37092D01*
X192012D01*
X261261Y57078D02*
X264340D01*
X248057D02*
X261261D01*
X258044Y60295D02*
X261261Y57078D01*
X190660Y57191D02*
X204197D01*
X187791Y49700D02*
Y54322D01*
X190660Y57191D01*
X180578Y42487D02*
X187791Y49700D01*
X166021Y42487D02*
X180578D01*
X162263Y45088D02*
X174016D01*
X161259Y46092D02*
Y65246D01*
Y46092D02*
X162263Y45088D01*
X174016D02*
X174051Y45052D01*
X170850Y50045D02*
X174051Y46844D01*
X149059Y69087D02*
X151857Y66290D01*
X160215D02*
X161259Y65246D01*
X151857Y66290D02*
X160215D01*
X174100Y45100D02*
X174191D01*
X174051Y45052D02*
X174100Y45100D01*
X166021Y47688D02*
Y52041D01*
X168076Y54096D01*
X185350Y71370D01*
X189210D01*
X189440Y71600D01*
X193971D01*
X194410Y72039D01*
X148933Y29974D02*
Y41117D01*
Y29974D02*
X149106Y29800D01*
X148759Y41291D02*
X148933Y41117D01*
X149084Y41291D02*
X150280Y42487D01*
X148759Y41291D02*
X149084D01*
X150280Y42487D02*
X166021D01*
X191140Y23009D02*
X193971Y20178D01*
X190910Y24529D02*
X191140Y24299D01*
Y23009D02*
Y24299D01*
X193971Y19650D02*
Y20178D01*
X190910Y24529D02*
X199952D01*
X192011Y41592D02*
X200715D01*
X91242Y29974D02*
Y41117D01*
Y29974D02*
X91415Y29800D01*
X91068Y41291D02*
X91242Y41117D01*
X91068Y41291D02*
X91393D01*
X92590Y42487D01*
X108330D01*
X122888D01*
X130100Y49700D01*
Y54322D02*
X132969Y57191D01*
X130100Y49700D02*
Y54322D01*
X146802Y57191D02*
X149006D01*
X146506Y57486D02*
X146802Y57191D01*
X149006D02*
X149106Y57091D01*
X142810Y61300D02*
X146506Y57604D01*
Y57486D02*
Y57604D01*
X142810Y71976D02*
X143205Y72372D01*
X142810Y61300D02*
Y71976D01*
X143205Y72372D02*
X183531D01*
X192012Y80852D01*
X277497Y45075D02*
X289250D01*
X276493Y46079D02*
Y65234D01*
Y46079D02*
X277497Y45075D01*
X289250D02*
X289286Y45039D01*
X286084Y50033D02*
X289286Y46832D01*
X264293Y69075D02*
X267091Y66277D01*
X275449D02*
X276493Y65234D01*
X267091Y66277D02*
X275449D01*
X289334Y45088D02*
X289425D01*
X289286Y45039D02*
X289334Y45088D01*
X304444Y71358D02*
X304674Y71587D01*
X309205D01*
X309644Y72026D01*
X264167Y29961D02*
X264340Y29787D01*
X264167Y29961D02*
Y41105D01*
X263993Y41278D02*
X264318D01*
X263993D02*
X264167Y41105D01*
X264318Y41278D02*
X265515Y42475D01*
X281255D01*
X292444Y38758D02*
Y52762D01*
X289720Y55486D02*
X292444Y52762D01*
X294122Y37080D02*
X307246D01*
X292444Y38758D02*
X294122Y37080D01*
X306374Y22997D02*
X309205Y20166D01*
X306144Y24516D02*
X306374Y24286D01*
Y22997D02*
Y24286D01*
X309205Y19637D02*
Y20166D01*
X315186Y24516D02*
X316344Y25674D01*
X306144Y24516D02*
X315186D01*
X316344Y25674D02*
Y41185D01*
X307245Y41580D02*
X315949D01*
X316344Y41185D01*
X111819Y38302D02*
X113030Y37092D01*
X134321D01*
X104572Y45088D02*
X116325D01*
X116361Y45052D01*
X116409Y45100D02*
X116500D01*
X116361Y45052D02*
X116409Y45100D01*
X143024Y41592D02*
X143419Y41197D01*
Y25686D02*
Y41197D01*
X142261Y24529D02*
X143419Y25686D01*
X103568Y46092D02*
Y65246D01*
X102524Y66290D02*
X103568Y65246D01*
X108330Y52041D02*
X110385Y54096D01*
X127659Y71370D02*
X131519D01*
X131749Y71600D01*
X136280D01*
X136719Y72039D01*
X110385Y54096D02*
X127659Y71370D01*
X113160Y50045D02*
X116361Y46844D01*
X103568Y46092D02*
X104572Y45088D01*
X108330Y47688D02*
Y52041D01*
X134320Y41592D02*
X143024D01*
X88815Y57486D02*
X89211Y57091D01*
X88815Y57486D02*
Y57604D01*
X85119Y61300D02*
X88815Y57604D01*
X133449Y23009D02*
Y24299D01*
X133219Y24529D02*
X133449Y24299D01*
X136280Y19650D02*
Y20178D01*
X133449Y23009D02*
X136280Y20178D01*
X133219Y24529D02*
X142261D01*
D51*
X166021Y91987D02*
D03*
X143281Y92090D02*
D03*
X125060Y85614D02*
D03*
X281531Y55528D02*
D03*
X283310Y65234D02*
D03*
X294441Y68877D02*
D03*
X91368Y69087D02*
D03*
X103568Y68890D02*
D03*
X121517D02*
D03*
X248619Y88533D02*
D03*
X249721Y37292D02*
D03*
X212800Y34563D02*
D03*
X227100Y39200D02*
D03*
X218040Y29557D02*
D03*
X250000Y50988D02*
D03*
X223730Y47888D02*
D03*
Y42687D02*
D03*
X237519Y50987D02*
D03*
X231900Y45300D02*
D03*
X249720Y41793D02*
D03*
X232153Y40210D02*
D03*
X249721Y46292D02*
D03*
X209335Y34563D02*
D03*
X210489Y81052D02*
D03*
X206768Y69288D02*
D03*
X206815Y57291D02*
D03*
X206468Y41491D02*
D03*
X206768Y53391D02*
D03*
X206468Y45349D02*
D03*
X206509Y49391D02*
D03*
X247797Y14587D02*
D03*
X232194Y55699D02*
D03*
X224006Y55741D02*
D03*
X210826Y16412D02*
D03*
Y20153D02*
D03*
X249821Y54978D02*
D03*
X212151Y29431D02*
D03*
X223468Y17570D02*
D03*
X240460Y21345D02*
D03*
X223468Y27170D02*
D03*
X248619Y24729D02*
D03*
X244674Y21345D02*
D03*
X232587Y19850D02*
D03*
X240460Y85814D02*
D03*
X249721Y81052D02*
D03*
X232804Y83192D02*
D03*
X228559Y92800D02*
D03*
Y83170D02*
D03*
X218968Y69090D02*
D03*
X225785Y65446D02*
D03*
X236917Y69090D02*
D03*
X223139Y76970D02*
D03*
X223101Y86892D02*
D03*
X210489Y84792D02*
D03*
X246919Y71570D02*
D03*
X249821Y92800D02*
D03*
X199952D02*
D03*
X269676Y29570D02*
D03*
X275565Y29431D02*
D03*
X209335Y93900D02*
D03*
X194710Y92090D02*
D03*
X189800Y93900D02*
D03*
X182797Y80288D02*
D03*
X152780Y88251D02*
D03*
X131068Y90631D02*
D03*
X59500Y69410D02*
D03*
X52097Y64607D02*
D03*
X31610Y17813D02*
D03*
X59500Y17700D02*
D03*
X72280Y28837D02*
D03*
X20162Y20510D02*
D03*
X38175Y64698D02*
D03*
X31313Y52041D02*
D03*
X20166Y27924D02*
D03*
X23631Y20231D02*
D03*
X23708Y27924D02*
D03*
X8435Y20788D02*
D03*
X45000Y13453D02*
D03*
X41400Y90344D02*
D03*
X61596Y90319D02*
D03*
X6466Y90513D02*
D03*
X28876Y69621D02*
D03*
X8435D02*
D03*
X6466Y73921D02*
D03*
X28876Y78289D02*
D03*
X34256Y75180D02*
D03*
Y89964D02*
D03*
X28876Y89419D02*
D03*
X40143Y69664D02*
D03*
X60664Y49663D02*
D03*
X80437Y56565D02*
D03*
X79818Y64732D02*
D03*
X72280Y59663D02*
D03*
X79818Y51565D02*
D03*
X26364Y63565D02*
D03*
X31364Y56565D02*
D03*
Y61066D02*
D03*
X116753Y40010D02*
D03*
D03*
X179810Y50788D02*
D03*
X169510Y38856D02*
D03*
X153117Y19953D02*
D03*
Y16213D02*
D03*
X174444Y40010D02*
D03*
X174191Y45100D02*
D03*
X149059Y69087D02*
D03*
X166021Y47688D02*
D03*
X189210Y71370D02*
D03*
X148759Y41291D02*
D03*
X166021Y42487D02*
D03*
X174878Y19650D02*
D03*
X166297Y55541D02*
D03*
X174486Y55499D02*
D03*
X152780Y84592D02*
D03*
Y80852D02*
D03*
X190910Y24529D02*
D03*
X192011Y41592D02*
D03*
X148759Y45149D02*
D03*
X192012Y46092D02*
D03*
X192112Y55091D02*
D03*
X192012Y37092D02*
D03*
X149059Y53191D02*
D03*
X91068Y41291D02*
D03*
X108330Y42487D02*
D03*
X149106Y57091D02*
D03*
X192012Y80852D02*
D03*
X165759Y17370D02*
D03*
Y26970D02*
D03*
X155091Y34363D02*
D03*
X151626Y34363D02*
D03*
X186965Y21145D02*
D03*
X190087Y14387D02*
D03*
X182751Y21145D02*
D03*
X148800Y49191D02*
D03*
X165391Y86692D02*
D03*
X165430Y76770D02*
D03*
X192291Y50788D02*
D03*
X179207Y68890D02*
D03*
X168076Y65246D02*
D03*
X161259Y68890D02*
D03*
X170850Y82970D02*
D03*
Y92600D02*
D03*
X175095Y82992D02*
D03*
X268351Y19940D02*
D03*
Y16200D02*
D03*
X289678Y39998D02*
D03*
X289425Y45088D02*
D03*
X264293Y69075D02*
D03*
X295044Y50775D02*
D03*
X281255Y47675D02*
D03*
X304444Y71358D02*
D03*
X263993Y41278D02*
D03*
X281255Y42475D02*
D03*
X290112Y19637D02*
D03*
X289720Y55486D02*
D03*
X307246Y37080D02*
D03*
X268014Y84580D02*
D03*
Y80840D02*
D03*
X297985Y85602D02*
D03*
X306144Y24516D02*
D03*
X307245Y41580D02*
D03*
X263993Y45136D02*
D03*
X307246Y46079D02*
D03*
X307346Y55078D02*
D03*
X264293Y53178D02*
D03*
X264340Y57078D02*
D03*
X307246Y80840D02*
D03*
X280993Y17358D02*
D03*
Y26957D02*
D03*
X270325Y34350D02*
D03*
X266860Y34351D02*
D03*
X302199Y21133D02*
D03*
X305321Y14375D02*
D03*
X297985Y21133D02*
D03*
X264034Y49178D02*
D03*
X280625Y86680D02*
D03*
X280664Y76758D02*
D03*
X307524Y50775D02*
D03*
X276493Y68877D02*
D03*
X286084Y82958D02*
D03*
Y92588D02*
D03*
X290329Y82980D02*
D03*
X111819Y38302D02*
D03*
X134421Y55091D02*
D03*
X122119Y50788D02*
D03*
X116500Y45100D02*
D03*
X116753Y40010D02*
D03*
X134321Y46092D02*
D03*
X113160Y92600D02*
D03*
X110385Y65246D02*
D03*
X113160Y82970D02*
D03*
X117403Y82992D02*
D03*
X131519Y71370D02*
D03*
X134321Y80852D02*
D03*
X91109Y49191D02*
D03*
X107701Y86692D02*
D03*
X107739Y76770D02*
D03*
X108330Y47688D02*
D03*
X95089Y84592D02*
D03*
Y80852D02*
D03*
X91068Y45149D02*
D03*
X91368Y53191D02*
D03*
X91415Y57091D02*
D03*
X108068Y17370D02*
D03*
Y26970D02*
D03*
X97400Y34363D02*
D03*
X93935Y34363D02*
D03*
X108606Y55541D02*
D03*
X116795Y55499D02*
D03*
X129274Y21145D02*
D03*
X132397Y14387D02*
D03*
X125060Y21145D02*
D03*
X134321Y37092D02*
D03*
X133219Y24529D02*
D03*
X134320Y41592D02*
D03*
X134600Y50788D02*
D03*
X95426Y16213D02*
D03*
Y19953D02*
D03*
X117187Y19650D02*
D03*
D54*
X115000Y98000D02*
D03*
X105000D02*
D03*
X125000D02*
D03*
X85000D02*
D03*
X95000D02*
D03*
X155000D02*
D03*
X165000D02*
D03*
X135000D02*
D03*
X145000D02*
D03*
X25000D02*
D03*
X35000D02*
D03*
X5000D02*
D03*
X15000D02*
D03*
X65000D02*
D03*
X75000D02*
D03*
X45000D02*
D03*
X55000D02*
D03*
X265000D02*
D03*
X275000D02*
D03*
X255000D02*
D03*
X305000D02*
D03*
X315098D02*
D03*
X285000D02*
D03*
X295000D02*
D03*
X195000D02*
D03*
X205000D02*
D03*
X175000D02*
D03*
X185000D02*
D03*
X235000D02*
D03*
X245000D02*
D03*
X215000D02*
D03*
X225000D02*
D03*
X205000Y8000D02*
D03*
X215000D02*
D03*
X195000D02*
D03*
X235000D02*
D03*
X225000D02*
D03*
X165000D02*
D03*
X155000D02*
D03*
X185000D02*
D03*
X175000D02*
D03*
X295000D02*
D03*
X285000D02*
D03*
X315098D02*
D03*
X305000D02*
D03*
X255000D02*
D03*
X245000D02*
D03*
X275000D02*
D03*
X265000D02*
D03*
X55000D02*
D03*
X45000D02*
D03*
X65000D02*
D03*
X15000D02*
D03*
X5000D02*
D03*
X35000D02*
D03*
X25000D02*
D03*
X125000D02*
D03*
X115000D02*
D03*
X145000D02*
D03*
X135000D02*
D03*
X85000D02*
D03*
X75000D02*
D03*
X105000D02*
D03*
X95000D02*
D03*
D55*
X252119Y72239D02*
D03*
X228559Y50245D02*
D03*
X206815Y30000D02*
D03*
X251680Y19850D02*
D03*
X309644Y72026D02*
D03*
X286084Y50033D02*
D03*
X264340Y29787D02*
D03*
X309205Y19637D02*
D03*
X194410Y72039D02*
D03*
X170850Y50045D02*
D03*
X149106Y29800D02*
D03*
X193971Y19650D02*
D03*
X136719Y72039D02*
D03*
X113160Y50045D02*
D03*
X91415Y29800D02*
D03*
X136280Y19650D02*
D03*
M02*
