G04*
G04 #@! TF.GenerationSoftware,Altium Limited,Altium Designer,24.10.1 (45)*
G04*
G04 Layer_Color=32768*
%FSLAX25Y25*%
%MOIN*%
G70*
G04*
G04 #@! TF.SameCoordinates,03E2E392-DBF2-472E-9E2B-85BB54492463*
G04*
G04*
G04 #@! TF.FilePolarity,Positive*
G04*
G01*
G75*
%ADD12C,0.00600*%
%ADD57C,0.00394*%
%ADD60C,0.00200*%
%ADD61C,0.00197*%
G36*
X243494Y89885D02*
Y89540D01*
X242608D01*
Y89885D01*
Y91204D01*
X243494D01*
Y89885D01*
D02*
G37*
G36*
X238376D02*
Y89540D01*
X237490D01*
Y89885D01*
Y91204D01*
X238376D01*
Y89885D01*
D02*
G37*
G36*
X185785Y89685D02*
Y89340D01*
X184899D01*
Y89685D01*
Y91004D01*
X185785D01*
Y89685D01*
D02*
G37*
G36*
X180667D02*
Y89340D01*
X179781D01*
Y89685D01*
Y91004D01*
X180667D01*
Y89685D01*
D02*
G37*
G36*
X128094D02*
Y89340D01*
X127208D01*
Y89685D01*
Y91004D01*
X128094D01*
Y89685D01*
D02*
G37*
G36*
X122976D02*
Y89340D01*
X122090D01*
Y89685D01*
Y91004D01*
X122976D01*
Y89685D01*
D02*
G37*
G36*
X301019Y89672D02*
Y89328D01*
X300133D01*
Y89672D01*
Y90991D01*
X301019D01*
Y89672D01*
D02*
G37*
G36*
X295901D02*
Y89328D01*
X295015D01*
Y89672D01*
Y90991D01*
X295901D01*
Y89672D01*
D02*
G37*
G36*
X51288Y92006D02*
Y91908D01*
Y91810D01*
X51150Y91672D01*
X51052D01*
Y88758D01*
X49871D01*
Y91908D01*
X50816D01*
Y92006D01*
X50954Y92144D01*
X51150D01*
X51288Y92006D01*
D02*
G37*
G36*
X45934Y88731D02*
X44753D01*
Y91880D01*
X45934D01*
Y88731D01*
D02*
G37*
G36*
X243494Y84117D02*
Y82837D01*
X242608D01*
Y84117D01*
Y84501D01*
X243494D01*
Y84117D01*
D02*
G37*
G36*
X240935D02*
Y82837D01*
X240049D01*
Y84117D01*
Y84501D01*
X240935D01*
Y84117D01*
D02*
G37*
G36*
X238376D02*
Y82837D01*
X237490D01*
Y84117D01*
Y84501D01*
X238376D01*
Y84117D01*
D02*
G37*
G36*
X185785Y83917D02*
Y82637D01*
X184899D01*
Y83917D01*
Y84301D01*
X185785D01*
Y83917D01*
D02*
G37*
G36*
X183226D02*
Y82637D01*
X182340D01*
Y83917D01*
Y84301D01*
X183226D01*
Y83917D01*
D02*
G37*
G36*
X180667D02*
Y82637D01*
X179781D01*
Y83917D01*
Y84301D01*
X180667D01*
Y83917D01*
D02*
G37*
G36*
X128094D02*
Y82637D01*
X127208D01*
Y83917D01*
Y84301D01*
X128094D01*
Y83917D01*
D02*
G37*
G36*
X125535D02*
Y82637D01*
X124649D01*
Y83917D01*
Y84301D01*
X125535D01*
Y83917D01*
D02*
G37*
G36*
X122976D02*
Y82637D01*
X122090D01*
Y83917D01*
Y84301D01*
X122976D01*
Y83917D01*
D02*
G37*
G36*
X301019Y83904D02*
Y82625D01*
X300133D01*
Y83904D01*
Y84288D01*
X301019D01*
Y83904D01*
D02*
G37*
G36*
X298460D02*
Y82625D01*
X297574D01*
Y83904D01*
Y84288D01*
X298460D01*
Y83904D01*
D02*
G37*
G36*
X295901D02*
Y82625D01*
X295015D01*
Y83904D01*
Y84288D01*
X295901D01*
Y83904D01*
D02*
G37*
G36*
X236595Y82935D02*
Y82837D01*
Y82740D01*
X236456Y82601D01*
X236260D01*
X236122Y82740D01*
Y82837D01*
Y82935D01*
X236260Y83074D01*
X236456D01*
X236595Y82935D01*
D02*
G37*
G36*
X178885Y82735D02*
Y82637D01*
Y82540D01*
X178747Y82401D01*
X178551D01*
X178413Y82540D01*
Y82637D01*
Y82735D01*
X178551Y82874D01*
X178747D01*
X178885Y82735D01*
D02*
G37*
G36*
X121195D02*
Y82637D01*
Y82540D01*
X121056Y82401D01*
X120860D01*
X120722Y82540D01*
Y82637D01*
Y82735D01*
X120860Y82874D01*
X121056D01*
X121195Y82735D01*
D02*
G37*
G36*
X294119Y82723D02*
Y82625D01*
Y82527D01*
X293981Y82389D01*
X293785D01*
X293647Y82527D01*
Y82625D01*
Y82723D01*
X293785Y82861D01*
X293981D01*
X294119Y82723D01*
D02*
G37*
G36*
X216789Y90631D02*
X220617D01*
Y78954D01*
X216789D01*
Y77792D01*
X207889D01*
Y78954D01*
X204061D01*
Y90631D01*
X207889D01*
Y91792D01*
X216789D01*
Y90631D01*
D02*
G37*
G36*
X159080Y90431D02*
X162908D01*
Y78754D01*
X159080D01*
Y77592D01*
X150180D01*
Y78754D01*
X146352D01*
Y90431D01*
X150180D01*
Y91592D01*
X159080D01*
Y90431D01*
D02*
G37*
G36*
X101389D02*
X105217D01*
Y78754D01*
X101389D01*
Y77592D01*
X92489D01*
Y78754D01*
X88661D01*
Y90431D01*
X92489D01*
Y91592D01*
X101389D01*
Y90431D01*
D02*
G37*
G36*
X274314Y90418D02*
X278142D01*
Y78741D01*
X274314D01*
Y77580D01*
X265414D01*
Y78741D01*
X261586D01*
Y90418D01*
X265414D01*
Y91580D01*
X274314D01*
Y90418D01*
D02*
G37*
G36*
X44212Y76789D02*
Y76594D01*
X44074Y76455D01*
X43878D01*
X43740Y76594D01*
Y76789D01*
X43878Y76928D01*
X44074D01*
X44212Y76789D01*
D02*
G37*
G36*
X67598Y73856D02*
X63425D01*
Y75471D01*
X67598D01*
Y73856D01*
D02*
G37*
G36*
X48149D02*
X43976D01*
Y75471D01*
X48149D01*
Y73856D01*
D02*
G37*
G36*
X67598Y68856D02*
X63425D01*
Y70471D01*
X67598D01*
Y68856D01*
D02*
G37*
G36*
X48149D02*
X43976D01*
Y70471D01*
X48149D01*
Y68856D01*
D02*
G37*
G36*
X67598Y63856D02*
X63425D01*
Y65471D01*
X67598D01*
Y63856D01*
D02*
G37*
G36*
X48149D02*
X43976D01*
Y65471D01*
X48149D01*
Y63856D01*
D02*
G37*
G36*
X67598Y58856D02*
X63425D01*
Y60471D01*
X67598D01*
Y58856D01*
D02*
G37*
G36*
X48149D02*
X43976D01*
Y60471D01*
X48149D01*
Y58856D01*
D02*
G37*
G36*
X67598Y53856D02*
X63425D01*
Y55471D01*
X67598D01*
Y53856D01*
D02*
G37*
G36*
X48149D02*
X43976D01*
Y55471D01*
X48149D01*
Y53856D01*
D02*
G37*
G36*
X240506Y52479D02*
X215806D01*
Y66679D01*
X240506D01*
Y52479D01*
D02*
G37*
G36*
X182797Y52279D02*
X158097D01*
Y66479D01*
X182797D01*
Y52279D01*
D02*
G37*
G36*
X125106D02*
X100406D01*
Y66479D01*
X125106D01*
Y52279D01*
D02*
G37*
G36*
X298031Y52267D02*
X273331D01*
Y66467D01*
X298031D01*
Y52267D01*
D02*
G37*
G36*
X67598Y48856D02*
X63425D01*
Y50471D01*
X67598D01*
Y48856D01*
D02*
G37*
G36*
X48149D02*
X43976D01*
Y50471D01*
X48149D01*
Y48856D01*
D02*
G37*
G36*
X67598Y43856D02*
X63425D01*
Y45471D01*
X67598D01*
Y43856D01*
D02*
G37*
G36*
X48149D02*
X43976D01*
Y45471D01*
X48149D01*
Y43856D01*
D02*
G37*
G36*
X234836Y49788D02*
X240447D01*
Y38310D01*
X234836D01*
Y37149D01*
X221036D01*
Y38310D01*
X215425D01*
Y49788D01*
X221036D01*
Y50949D01*
X234836D01*
Y49788D01*
D02*
G37*
G36*
X177127Y49588D02*
X182738D01*
Y38110D01*
X177127D01*
Y36949D01*
X163327D01*
Y38110D01*
X157715D01*
Y49588D01*
X163327D01*
Y50749D01*
X177127D01*
Y49588D01*
D02*
G37*
G36*
X119441D02*
X125053D01*
Y38110D01*
X119441D01*
Y36949D01*
X105641D01*
Y38110D01*
X100030D01*
Y49588D01*
X105641D01*
Y50749D01*
X119441D01*
Y49588D01*
D02*
G37*
G36*
X292361Y49575D02*
X297972D01*
Y38098D01*
X292361D01*
Y36936D01*
X278561D01*
Y38098D01*
X272950D01*
Y49575D01*
X278561D01*
Y50736D01*
X292361D01*
Y49575D01*
D02*
G37*
G36*
X4619Y26590D02*
Y26492D01*
Y26395D01*
X4481Y26256D01*
X4285D01*
X4147Y26395D01*
Y26492D01*
Y26590D01*
X4285Y26728D01*
X4481D01*
X4619Y26590D01*
D02*
G37*
G36*
X6784Y23741D02*
X4383D01*
Y25315D01*
X6784D01*
Y23741D01*
D02*
G37*
G36*
X15406Y23733D02*
X13005D01*
Y25308D01*
X15406D01*
Y23733D01*
D02*
G37*
G36*
X236916Y22916D02*
Y22818D01*
Y22720D01*
X236778Y22582D01*
X236582D01*
X236444Y22720D01*
Y22818D01*
Y22916D01*
X236582Y23054D01*
X236778D01*
X236916Y22916D01*
D02*
G37*
G36*
X179207Y22716D02*
Y22618D01*
Y22520D01*
X179069Y22382D01*
X178873D01*
X178735Y22520D01*
Y22618D01*
Y22716D01*
X178873Y22854D01*
X179069D01*
X179207Y22716D01*
D02*
G37*
G36*
X121516D02*
Y22618D01*
Y22520D01*
X121378Y22382D01*
X121182D01*
X121044Y22520D01*
Y22618D01*
Y22716D01*
X121182Y22854D01*
X121378D01*
X121516Y22716D01*
D02*
G37*
G36*
X294441Y22703D02*
Y22605D01*
Y22508D01*
X294303Y22369D01*
X294107D01*
X293969Y22508D01*
Y22605D01*
Y22703D01*
X294107Y22841D01*
X294303D01*
X294441Y22703D01*
D02*
G37*
G36*
X235548Y21499D02*
Y21154D01*
X234662D01*
Y21499D01*
Y22818D01*
X235548D01*
Y21499D01*
D02*
G37*
G36*
X232989D02*
Y21154D01*
X232103D01*
Y21499D01*
Y22818D01*
X232989D01*
Y21499D01*
D02*
G37*
G36*
X230430D02*
Y21154D01*
X229544D01*
Y21499D01*
Y22818D01*
X230430D01*
Y21499D01*
D02*
G37*
G36*
X177839Y21299D02*
Y20954D01*
X176953D01*
Y21299D01*
Y22618D01*
X177839D01*
Y21299D01*
D02*
G37*
G36*
X175280D02*
Y20954D01*
X174394D01*
Y21299D01*
Y22618D01*
X175280D01*
Y21299D01*
D02*
G37*
G36*
X172721D02*
Y20954D01*
X171835D01*
Y21299D01*
Y22618D01*
X172721D01*
Y21299D01*
D02*
G37*
G36*
X120148D02*
Y20954D01*
X119262D01*
Y21299D01*
Y22618D01*
X120148D01*
Y21299D01*
D02*
G37*
G36*
X117589D02*
Y20954D01*
X116703D01*
Y21299D01*
Y22618D01*
X117589D01*
Y21299D01*
D02*
G37*
G36*
X115030D02*
Y20954D01*
X114144D01*
Y21299D01*
Y22618D01*
X115030D01*
Y21299D01*
D02*
G37*
G36*
X293073Y21286D02*
Y20942D01*
X292187D01*
Y21286D01*
Y22605D01*
X293073D01*
Y21286D01*
D02*
G37*
G36*
X290514D02*
Y20942D01*
X289628D01*
Y21286D01*
Y22605D01*
X290514D01*
Y21286D01*
D02*
G37*
G36*
X287955D02*
Y20942D01*
X287069D01*
Y21286D01*
Y22605D01*
X287955D01*
Y21286D01*
D02*
G37*
G36*
X6784Y20000D02*
X4383D01*
Y21575D01*
X6784D01*
Y20000D01*
D02*
G37*
G36*
X15406Y16252D02*
X13005D01*
Y17827D01*
X15406D01*
Y16252D01*
D02*
G37*
G36*
X6784D02*
X4383D01*
Y17827D01*
X6784D01*
Y16252D01*
D02*
G37*
G36*
X235548Y15731D02*
Y14452D01*
X234662D01*
Y15731D01*
Y16115D01*
X235548D01*
Y15731D01*
D02*
G37*
G36*
X230430D02*
Y14452D01*
X229544D01*
Y15731D01*
Y16115D01*
X230430D01*
Y15731D01*
D02*
G37*
G36*
X177839Y15531D02*
Y14252D01*
X176953D01*
Y15531D01*
Y15915D01*
X177839D01*
Y15531D01*
D02*
G37*
G36*
X172721D02*
Y14252D01*
X171835D01*
Y15531D01*
Y15915D01*
X172721D01*
Y15531D01*
D02*
G37*
G36*
X120148D02*
Y14252D01*
X119262D01*
Y15531D01*
Y15915D01*
X120148D01*
Y15531D01*
D02*
G37*
G36*
X115030D02*
Y14252D01*
X114144D01*
Y15531D01*
Y15915D01*
X115030D01*
Y15531D01*
D02*
G37*
G36*
X293073Y15519D02*
Y14239D01*
X292187D01*
Y15519D01*
Y15902D01*
X293073D01*
Y15519D01*
D02*
G37*
G36*
X287955D02*
Y14239D01*
X287069D01*
Y15519D01*
Y15902D01*
X287955D01*
Y15519D01*
D02*
G37*
G36*
X216989Y25991D02*
X220817D01*
Y14314D01*
X216989D01*
Y13153D01*
X208089D01*
Y14314D01*
X204261D01*
Y25991D01*
X208089D01*
Y27153D01*
X216989D01*
Y25991D01*
D02*
G37*
G36*
X159280Y25791D02*
X163108D01*
Y14114D01*
X159280D01*
Y12953D01*
X150380D01*
Y14114D01*
X146552D01*
Y25791D01*
X150380D01*
Y26953D01*
X159280D01*
Y25791D01*
D02*
G37*
G36*
X101589D02*
X105417D01*
Y14114D01*
X101589D01*
Y12953D01*
X92689D01*
Y14114D01*
X88861D01*
Y25791D01*
X92689D01*
Y26953D01*
X101589D01*
Y25791D01*
D02*
G37*
G36*
X274514Y25779D02*
X278342D01*
Y14102D01*
X274514D01*
Y12940D01*
X265614D01*
Y14102D01*
X261786D01*
Y25779D01*
X265614D01*
Y26940D01*
X274514D01*
Y25779D01*
D02*
G37*
D12*
X88661Y78754D02*
X92489D01*
Y77592D02*
Y78754D01*
Y77592D02*
X101389D01*
Y78754D01*
X105217D01*
Y90431D01*
X101389D02*
X105217D01*
X101389D02*
Y91592D01*
X92489D02*
X101389D01*
X92489Y90431D02*
Y91592D01*
X88661Y90431D02*
X92489D01*
X88661Y78754D02*
Y90431D01*
X100406Y52279D02*
X125106D01*
Y66479D01*
X100406D02*
X125106D01*
X100406Y52279D02*
Y66479D01*
X119441Y49588D02*
Y50749D01*
X105641D02*
X119441D01*
X105641Y49588D02*
Y50749D01*
Y36949D02*
Y38110D01*
Y36949D02*
X119441D01*
Y38110D01*
Y49588D02*
X125053D01*
X100030D02*
X105641D01*
X100030Y38110D02*
Y49588D01*
Y38110D02*
X105641D01*
X119441D02*
X125053D01*
Y49588D01*
X177127D02*
Y50749D01*
X163327D02*
X177127D01*
X163327Y49588D02*
Y50749D01*
Y36949D02*
Y38110D01*
Y36949D02*
X177127D01*
Y38110D01*
Y49588D02*
X182738D01*
X157716D02*
X163327D01*
X157716Y38110D02*
Y49588D01*
Y38110D02*
X163327D01*
X177127D02*
X182738D01*
Y49588D01*
X234836Y49788D02*
Y50949D01*
X221036D02*
X234836D01*
X221036Y49788D02*
Y50949D01*
Y37149D02*
Y38310D01*
Y37149D02*
X234836D01*
Y38310D01*
Y49788D02*
X240447D01*
X215424D02*
X221036D01*
X215424Y38310D02*
Y49788D01*
Y38310D02*
X221036D01*
X234836D02*
X240447D01*
Y49788D01*
X297972Y38098D02*
Y49575D01*
X292361Y38098D02*
X297972D01*
X272950D02*
X278561D01*
X272950D02*
Y49575D01*
X278561D01*
X292361D02*
X297972D01*
X292361Y36936D02*
Y38098D01*
X278561Y36936D02*
X292361D01*
X278561D02*
Y38098D01*
Y49575D02*
Y50736D01*
X292361D01*
Y49575D02*
Y50736D01*
X204261Y14314D02*
Y25991D01*
X208089D01*
Y27153D01*
X216989D01*
Y25991D02*
Y27153D01*
Y25991D02*
X220817D01*
Y14314D02*
Y25991D01*
X216989Y14314D02*
X220817D01*
X216989Y13152D02*
Y14314D01*
X208089Y13152D02*
X216989D01*
X208089D02*
Y14314D01*
X204261D02*
X208089D01*
X215806Y52479D02*
Y66679D01*
X240506D01*
Y52479D02*
Y66679D01*
X215806Y52479D02*
X240506D01*
X204061Y78954D02*
Y90631D01*
X207889D01*
Y91792D01*
X216789D01*
Y90631D02*
Y91792D01*
Y90631D02*
X220617D01*
Y78954D02*
Y90631D01*
X216789Y78954D02*
X220617D01*
X216789Y77792D02*
Y78954D01*
X207889Y77792D02*
X216789D01*
X207889D02*
Y78954D01*
X204061D02*
X207889D01*
X146352Y78754D02*
Y90431D01*
X150180D01*
Y91592D01*
X159080D01*
Y90431D02*
Y91592D01*
Y90431D02*
X162908D01*
Y78754D02*
Y90431D01*
X159080Y78754D02*
X162908D01*
X159080Y77592D02*
Y78754D01*
X150180Y77592D02*
X159080D01*
X150180D02*
Y78754D01*
X146352D02*
X150180D01*
X261786Y14102D02*
X265614D01*
Y12940D02*
Y14102D01*
Y12940D02*
X274514D01*
Y14102D01*
X278342D01*
Y25779D01*
X274514D02*
X278342D01*
X274514D02*
Y26940D01*
X265614D02*
X274514D01*
X265614Y25779D02*
Y26940D01*
X261786Y25779D02*
X265614D01*
X261786Y14102D02*
Y25779D01*
X273331Y52267D02*
X298031D01*
Y66467D01*
X273331D02*
X298031D01*
X273331Y52267D02*
Y66467D01*
X261586Y78741D02*
X265414D01*
Y77580D02*
Y78741D01*
Y77580D02*
X274314D01*
Y78741D01*
X278142D01*
Y90419D01*
X274314D02*
X278142D01*
X274314D02*
Y91580D01*
X265414D02*
X274314D01*
X265414Y90419D02*
Y91580D01*
X261586Y90419D02*
X265414D01*
X261586Y78741D02*
Y90419D01*
X146552Y14114D02*
X150380D01*
Y12953D02*
Y14114D01*
Y12953D02*
X159280D01*
Y14114D01*
X163108D01*
Y25791D01*
X159280D02*
X163108D01*
X159280D02*
Y26953D01*
X150380D02*
X159280D01*
X150380Y25791D02*
Y26953D01*
X146552Y25791D02*
X150380D01*
X146552Y14114D02*
Y25791D01*
X158097Y52279D02*
X182797D01*
Y66479D01*
X158097D02*
X182797D01*
X158097Y52279D02*
Y66479D01*
X88861Y14114D02*
Y25791D01*
X92689D01*
Y26953D01*
X101589D01*
Y25791D02*
Y26953D01*
Y25791D02*
X105417D01*
Y14114D02*
Y25791D01*
X101589Y14114D02*
X105417D01*
X101589Y12953D02*
Y14114D01*
X92689Y12953D02*
X101589D01*
X92689D02*
Y14114D01*
X88861D02*
X92689D01*
D57*
X211068Y44266D02*
Y46431D01*
X209986Y45348D02*
X212151D01*
X245168Y45209D02*
Y47375D01*
X244085Y46292D02*
X246251D01*
X231948Y28870D02*
X235491D01*
X233719Y27099D02*
Y30642D01*
X211068Y40407D02*
Y42572D01*
X209986Y41490D02*
X212151D01*
X245168Y40710D02*
Y42875D01*
X244085Y41793D02*
X246251D01*
X244270Y28916D02*
X247813D01*
X246041Y27144D02*
Y30687D01*
X245268Y54209D02*
Y56374D01*
X244186Y55291D02*
X246351D01*
X245168Y36210D02*
Y38375D01*
X244086Y37293D02*
X246251D01*
X211368Y52307D02*
Y54473D01*
X210286Y53390D02*
X212451D01*
X211368Y56207D02*
Y58372D01*
X210286Y57290D02*
X212451D01*
X245168Y58708D02*
Y60873D01*
X244086Y59791D02*
X246251D01*
X211368Y60007D02*
Y62172D01*
X210286Y61090D02*
X212451D01*
X245168Y63208D02*
Y65373D01*
X244086Y64290D02*
X246251D01*
X245268Y67707D02*
Y69872D01*
X244186Y68790D02*
X246351D01*
X211368Y64407D02*
Y66573D01*
X210286Y65490D02*
X212451D01*
X211368Y68204D02*
Y70369D01*
X210286Y69287D02*
X212451D01*
X232948Y76870D02*
X236491D01*
X234719Y75099D02*
Y78642D01*
X244696Y76870D02*
X248240D01*
X246468Y75099D02*
Y78642D01*
X223468Y21360D02*
Y23525D01*
X222385Y22442D02*
X224550D01*
X209986Y37490D02*
X212151D01*
X211068Y36407D02*
Y38573D01*
X244674Y15237D02*
Y17402D01*
X243591Y16320D02*
X245757D01*
X240474Y15237D02*
Y17402D01*
X239391Y16320D02*
X241557D01*
X210086Y49390D02*
X212251D01*
X211168Y48307D02*
Y50473D01*
X223139Y80938D02*
Y83104D01*
X222056Y82021D02*
X224221D01*
X244286Y50988D02*
X246451D01*
X245368Y49906D02*
Y52071D01*
X231202Y69090D02*
X233367D01*
X232285Y68007D02*
Y70172D01*
X228604Y86993D02*
Y89158D01*
X227521Y88076D02*
X229686D01*
X232804Y86993D02*
Y89158D01*
X231721Y88076D02*
X233886D01*
X222886Y69090D02*
X225051D01*
X223968Y68007D02*
Y70173D01*
X34464Y44994D02*
Y48537D01*
X32693Y46766D02*
X36236D01*
X36128Y23325D02*
X40065D01*
X38096Y21357D02*
Y25293D01*
X50129Y23325D02*
X54066D01*
X52097Y21357D02*
Y25293D01*
X27784Y83421D02*
X29949D01*
X28866Y82338D02*
Y84503D01*
X55789Y90319D02*
X57954D01*
X56872Y89236D02*
Y91402D01*
X18766Y67652D02*
Y71589D01*
X16798Y69621D02*
X20735D01*
X24692Y56565D02*
X28236D01*
X26464Y54794D02*
Y58337D01*
X36364Y55483D02*
Y57648D01*
X35282Y56565D02*
X37447D01*
X55764Y36194D02*
Y39737D01*
X53992Y37966D02*
X57536D01*
X36364Y59983D02*
Y62148D01*
X35282Y61066D02*
X37447D01*
X76964Y44694D02*
Y48237D01*
X75192Y46466D02*
X78736D01*
X76964Y56983D02*
Y59148D01*
X75881Y58065D02*
X78047D01*
X73685Y69664D02*
X75850D01*
X74767Y68581D02*
Y70746D01*
X74964Y63581D02*
Y65746D01*
X73882Y64663D02*
X76047D01*
X74964Y73581D02*
Y75746D01*
X73882Y74664D02*
X76047D01*
X64130Y23325D02*
X68067D01*
X66098Y21357D02*
Y25293D01*
X4498Y81921D02*
X8435D01*
X6466Y79952D02*
Y83889D01*
X32495Y82221D02*
X36038D01*
X34266Y80449D02*
Y83992D01*
X36364Y50983D02*
Y53148D01*
X35282Y52065D02*
X37447D01*
X36364Y40283D02*
Y42448D01*
X35282Y41366D02*
X37447D01*
X74964Y50483D02*
Y52648D01*
X73882Y51565D02*
X76047D01*
X74964Y40083D02*
Y42248D01*
X73882Y41166D02*
X76047D01*
X20816Y17040D02*
X22981D01*
X21898Y15958D02*
Y18123D01*
X20816Y24529D02*
X22981D01*
X21898Y23446D02*
Y25611D01*
X268593Y36195D02*
Y38360D01*
X267510Y37277D02*
X269676D01*
X301116Y16107D02*
X303281D01*
X302199Y15024D02*
Y17190D01*
X296916Y16107D02*
X299081D01*
X297999Y15024D02*
Y17190D01*
X268693Y48094D02*
Y50260D01*
X267610Y49177D02*
X269776D01*
X279581Y81808D02*
X281747D01*
X280664Y80726D02*
Y82891D01*
X302893Y49693D02*
Y51859D01*
X301810Y50776D02*
X303976D01*
X289810Y67795D02*
Y69960D01*
X288727Y68877D02*
X290893D01*
X281493Y67795D02*
Y69960D01*
X280410Y68877D02*
X282576D01*
X285046Y87863D02*
X287211D01*
X286128Y86781D02*
Y88946D01*
X289246Y87863D02*
X291411D01*
X290329Y86781D02*
Y88946D01*
X186376Y41592D02*
X188542D01*
X187459Y40510D02*
Y42675D01*
X188332Y26944D02*
Y30487D01*
X186560Y28716D02*
X190104D01*
X186476Y55091D02*
X188642D01*
X187559Y54009D02*
Y56174D01*
X186376Y37093D02*
X188542D01*
X187459Y36010D02*
Y38175D01*
X152576Y53190D02*
X154742D01*
X153659Y52107D02*
Y54273D01*
X152576Y57090D02*
X154742D01*
X153659Y56007D02*
Y58172D01*
X186376Y59591D02*
X188542D01*
X187459Y58508D02*
Y60673D01*
X152576Y60890D02*
X154742D01*
X153659Y59807D02*
Y61972D01*
X186376Y64090D02*
X188542D01*
X187459Y63008D02*
Y65173D01*
X186476Y68590D02*
X188642D01*
X187559Y67507D02*
Y69672D01*
X152576Y65290D02*
X154742D01*
X153659Y64207D02*
Y66373D01*
X152576Y69086D02*
X154742D01*
X153659Y68004D02*
Y70169D01*
X177010Y74899D02*
Y78442D01*
X175239Y76670D02*
X178782D01*
X188759Y74899D02*
Y78442D01*
X186987Y76670D02*
X190531D01*
X164676Y22242D02*
X166841D01*
X165759Y21159D02*
Y23325D01*
X153359Y36207D02*
Y38373D01*
X152276Y37290D02*
X154442D01*
X185882Y16120D02*
X188047D01*
X186965Y15037D02*
Y17202D01*
X181682Y16120D02*
X183847D01*
X182765Y15037D02*
Y17202D01*
X153459Y48107D02*
Y50273D01*
X152376Y49190D02*
X154542D01*
X164347Y81821D02*
X166513D01*
X165430Y80738D02*
Y82903D01*
X187659Y49706D02*
Y51871D01*
X186576Y50788D02*
X188742D01*
X174576Y67807D02*
Y69972D01*
X173493Y68890D02*
X175659D01*
X166259Y67807D02*
Y69973D01*
X165176Y68890D02*
X167342D01*
X169812Y87875D02*
X171977D01*
X170895Y86793D02*
Y88958D01*
X174012Y87875D02*
X176177D01*
X175095Y86793D02*
Y88958D01*
X267510Y45136D02*
X269676D01*
X268593Y44053D02*
Y46218D01*
X301610Y46080D02*
X303776D01*
X302693Y44997D02*
Y47162D01*
X291244Y26886D02*
Y30429D01*
X289473Y28658D02*
X293016D01*
X267510Y41277D02*
X269676D01*
X268593Y40194D02*
Y42360D01*
X301610Y41580D02*
X303776D01*
X302693Y40497D02*
Y42663D01*
X303566Y26932D02*
Y30475D01*
X301795Y28703D02*
X305338D01*
X301710Y55079D02*
X303876D01*
X302793Y53996D02*
Y56161D01*
X301610Y37080D02*
X303776D01*
X302693Y35998D02*
Y38163D01*
X267810Y53177D02*
X269976D01*
X268893Y52095D02*
Y54260D01*
X267810Y57077D02*
X269976D01*
X268893Y55995D02*
Y58160D01*
X301610Y59578D02*
X303776D01*
X302693Y58496D02*
Y60661D01*
X267810Y60877D02*
X269976D01*
X268893Y59795D02*
Y61960D01*
X301610Y64078D02*
X303776D01*
X302693Y62995D02*
Y65160D01*
X301710Y68577D02*
X303876D01*
X302793Y67495D02*
Y69660D01*
X267810Y65277D02*
X269976D01*
X268893Y64195D02*
Y66360D01*
X267810Y69074D02*
X269976D01*
X268893Y67992D02*
Y70157D01*
X292244Y74886D02*
Y78429D01*
X290473Y76658D02*
X294016D01*
X152276Y45148D02*
X154442D01*
X153359Y44066D02*
Y46231D01*
X186376Y46092D02*
X188542D01*
X187459Y45009D02*
Y47175D01*
X176010Y26899D02*
Y30442D01*
X174239Y28670D02*
X177782D01*
X152276Y41290D02*
X154442D01*
X153359Y40207D02*
Y42372D01*
X125074Y15037D02*
Y17202D01*
X123991Y16120D02*
X126156D01*
X95668Y44066D02*
Y46231D01*
X94586Y45148D02*
X96751D01*
X129768Y45009D02*
Y47175D01*
X128685Y46092D02*
X130851D01*
X116548Y28670D02*
X120091D01*
X118319Y26899D02*
Y30442D01*
X95668Y40207D02*
Y42372D01*
X94586Y41290D02*
X96751D01*
X129768Y40510D02*
Y42675D01*
X128685Y41592D02*
X130851D01*
X128870Y28716D02*
X132413D01*
X130641Y26944D02*
Y30487D01*
X129868Y54009D02*
Y56174D01*
X128786Y55091D02*
X130951D01*
X129768Y36010D02*
Y38175D01*
X128685Y37093D02*
X130851D01*
X95968Y52107D02*
Y54273D01*
X94886Y53190D02*
X97051D01*
X95968Y56007D02*
Y58172D01*
X94886Y57090D02*
X97051D01*
X129768Y58508D02*
Y60673D01*
X128685Y59591D02*
X130851D01*
X95968Y59807D02*
Y61972D01*
X94886Y60890D02*
X97051D01*
X129768Y63008D02*
Y65173D01*
X128685Y64090D02*
X130851D01*
X129868Y67507D02*
Y69672D01*
X128786Y68590D02*
X130951D01*
X95968Y64207D02*
Y66373D01*
X94886Y65290D02*
X97051D01*
X95968Y68004D02*
Y70169D01*
X94886Y69086D02*
X97051D01*
X117548Y76670D02*
X121091D01*
X119319Y74899D02*
Y78442D01*
X129297Y76670D02*
X132840D01*
X131068Y74899D02*
Y78442D01*
X108068Y21159D02*
Y23325D01*
X106985Y22242D02*
X109150D01*
X94586Y37290D02*
X96751D01*
X95668Y36207D02*
Y38373D01*
X129274Y15037D02*
Y17202D01*
X128191Y16120D02*
X130357D01*
X94686Y49190D02*
X96851D01*
X95768Y48107D02*
Y50273D01*
X107739Y80738D02*
Y82903D01*
X106656Y81821D02*
X108822D01*
X128885Y50788D02*
X131051D01*
X129968Y49706D02*
Y51871D01*
X115802Y68890D02*
X117968D01*
X116885Y67807D02*
Y69972D01*
X113204Y86793D02*
Y88958D01*
X112121Y87875D02*
X114286D01*
X117403Y86793D02*
Y88958D01*
X116321Y87875D02*
X118486D01*
X107485Y68890D02*
X109651D01*
X108568Y67807D02*
Y69973D01*
X303993Y74886D02*
Y78429D01*
X302221Y76658D02*
X305765D01*
X279910Y22230D02*
X282075D01*
X280993Y21147D02*
Y23312D01*
D60*
X48110Y76691D02*
X63464D01*
Y42636D02*
Y76691D01*
X48110Y42636D02*
X63464D01*
X48110D02*
Y76691D01*
X63464D01*
Y42636D02*
Y76691D01*
X48110Y42636D02*
X63464D01*
X48110D02*
Y76691D01*
X120958Y84262D02*
X129226D01*
Y89380D01*
X120958D02*
X129226D01*
X120958Y84262D02*
Y89380D01*
X236680Y16076D02*
Y21194D01*
X228412Y16076D02*
X236680D01*
X228412D02*
Y21194D01*
X236680D01*
X236358Y84461D02*
Y89579D01*
X244626D01*
Y84461D02*
Y89579D01*
X236358Y84461D02*
X244626D01*
X44753Y91894D02*
X51052D01*
X44753Y88745D02*
Y91894D01*
Y88745D02*
X51052D01*
Y91894D01*
X6745Y26493D02*
X13044D01*
Y15075D02*
Y26493D01*
X6745Y15075D02*
X13044D01*
X6745D02*
Y26493D01*
X121280Y15876D02*
Y20994D01*
X113012Y15876D02*
X121280D01*
X113012D02*
Y20994D01*
X121280D01*
X285937Y20981D02*
X294205D01*
X285937Y15863D02*
Y20981D01*
Y15863D02*
X294205D01*
Y20981D01*
X293883Y84249D02*
X302151D01*
Y89367D01*
X293883D02*
X302151D01*
X293883Y84249D02*
Y89367D01*
X170703Y20994D02*
X178971D01*
X170703Y15876D02*
Y20994D01*
Y15876D02*
X178971D01*
Y20994D01*
X178649Y84262D02*
X186917D01*
Y89380D01*
X178649D02*
X186917D01*
X178649Y84262D02*
Y89380D01*
D61*
X207525Y47120D02*
X214612D01*
X207525Y43576D02*
X214612D01*
X207525D02*
Y47120D01*
X214612Y43576D02*
Y47120D01*
X241625Y44520D02*
X248711D01*
X241625Y48064D02*
X248711D01*
Y44520D02*
Y48064D01*
X241625Y44520D02*
Y48064D01*
X239428Y26114D02*
Y31626D01*
X228011Y26114D02*
Y31626D01*
Y26114D02*
X239428D01*
X228011Y31626D02*
X239428D01*
X207525Y43261D02*
X214612D01*
X207525Y39718D02*
X214612D01*
X207525D02*
Y43261D01*
X214612Y39718D02*
Y43261D01*
X241625Y40021D02*
X248711D01*
X241625Y43564D02*
X248711D01*
Y40021D02*
Y43564D01*
X241625Y40021D02*
Y43564D01*
X251750Y26160D02*
Y31672D01*
X240333Y26160D02*
Y31672D01*
Y26160D02*
X251750D01*
X240333Y31672D02*
X251750D01*
X241725Y57063D02*
X248812D01*
X241725Y53520D02*
X248812D01*
X241725D02*
Y57063D01*
X248812Y53520D02*
Y57063D01*
X241625Y39065D02*
X248711D01*
X241625Y35521D02*
X248711D01*
X241625D02*
Y39065D01*
X248711Y35521D02*
Y39065D01*
X207825Y51618D02*
X214912D01*
X207825Y55161D02*
X214912D01*
Y51618D02*
Y55161D01*
X207825Y51618D02*
Y55161D01*
Y59061D02*
X214912D01*
X207825Y55518D02*
X214912D01*
X207825D02*
Y59061D01*
X214912Y55518D02*
Y59061D01*
X241625Y58019D02*
X248711D01*
X241625Y61562D02*
X248711D01*
Y58019D02*
Y61562D01*
X241625Y58019D02*
Y61562D01*
X207825Y62861D02*
X214912D01*
X207825Y59318D02*
X214912D01*
X207825D02*
Y62861D01*
X214912Y59318D02*
Y62861D01*
X241625Y62519D02*
X248711D01*
X241625Y66062D02*
X248711D01*
Y62519D02*
Y66062D01*
X241625Y62519D02*
Y66062D01*
X241725Y67018D02*
X248812D01*
X241725Y70561D02*
X248812D01*
Y67018D02*
Y70561D01*
X241725Y67018D02*
Y70561D01*
X207825Y63718D02*
X214912D01*
X207825Y67261D02*
X214912D01*
Y63718D02*
Y67261D01*
X207825Y63718D02*
Y67261D01*
Y67515D02*
X214912D01*
X207825Y71058D02*
X214912D01*
Y67515D02*
Y71058D01*
X207825Y67515D02*
Y71058D01*
X240428Y74114D02*
Y79626D01*
X229011Y74114D02*
Y79626D01*
Y74114D02*
X240428D01*
X229011Y79626D02*
X240428D01*
X252177Y74114D02*
Y79626D01*
X240759Y74114D02*
Y79626D01*
Y74114D02*
X252177D01*
X240759Y79626D02*
X252177D01*
X221499Y18702D02*
X225436D01*
X221499Y26182D02*
X225436D01*
X221499Y18702D02*
Y26182D01*
X225436Y18702D02*
Y26182D01*
X214808Y35521D02*
Y39458D01*
X207328Y35521D02*
Y39458D01*
Y35521D02*
X214808D01*
X207328Y39458D02*
X214808D01*
X242705Y20060D02*
X246642D01*
X242705Y12579D02*
X246642D01*
Y20060D01*
X242705Y12579D02*
Y20060D01*
X238505Y12579D02*
X242442D01*
X238505Y20060D02*
X242442D01*
X238505Y12579D02*
Y20060D01*
X242442Y12579D02*
Y20060D01*
X214908Y47421D02*
Y51358D01*
X207428Y47421D02*
Y51358D01*
Y47421D02*
X214908D01*
X207428Y51358D02*
X214908D01*
X221171Y85761D02*
X225108D01*
X221171Y78281D02*
X225108D01*
Y85761D01*
X221171Y78281D02*
Y85761D01*
X241628Y49020D02*
Y52957D01*
X249108Y49020D02*
Y52957D01*
X241628D02*
X249108D01*
X241628Y49020D02*
X249108D01*
X228545Y67121D02*
Y71058D01*
X236025Y67121D02*
Y71058D01*
X228545D02*
X236025D01*
X228545Y67121D02*
X236025D01*
X226635Y84336D02*
X230572D01*
X226635Y91816D02*
X230572D01*
X226635Y84336D02*
Y91816D01*
X230572Y84336D02*
Y91816D01*
X230835D02*
X234772D01*
X230835Y84336D02*
X234772D01*
Y91816D01*
X230835Y84336D02*
Y91816D01*
X227708Y67121D02*
Y71058D01*
X220228Y67121D02*
Y71058D01*
Y67121D02*
X227708D01*
X220228Y71058D02*
X227708D01*
X28756Y44010D02*
X40173D01*
X28756Y49521D02*
X40173D01*
Y44010D02*
Y49521D01*
X28756Y44010D02*
Y49521D01*
X42624Y14467D02*
Y32183D01*
X33569Y14467D02*
Y32183D01*
X42624D01*
X33569Y14467D02*
X42624D01*
X56625D02*
Y32183D01*
X47570Y14467D02*
Y32183D01*
X56625D01*
X47570Y14467D02*
X56625D01*
X26898Y79681D02*
Y87161D01*
X30835Y79681D02*
Y87161D01*
X26898Y79681D02*
X30835D01*
X26898Y87161D02*
X30835D01*
X53328Y88547D02*
Y92091D01*
X60415Y88547D02*
Y92091D01*
X53328D02*
X60415D01*
X53328Y88547D02*
X60415D01*
X9908Y65093D02*
X27624D01*
X9908Y74148D02*
X27624D01*
Y65093D02*
Y74148D01*
X9908Y65093D02*
Y74148D01*
X23708Y50857D02*
Y62274D01*
X29220Y50857D02*
Y62274D01*
X23708Y50857D02*
X29220D01*
X23708Y62274D02*
X29220D01*
X32624Y58534D02*
X40104D01*
X32624Y54597D02*
X40104D01*
X32624D02*
Y58534D01*
X40104Y54597D02*
Y58534D01*
X50055Y40721D02*
X61473D01*
X50055Y35210D02*
X61473D01*
X50055D02*
Y40721D01*
X61473Y35210D02*
Y40721D01*
X32624Y59097D02*
X40104D01*
X32624Y63034D02*
X40104D01*
Y59097D02*
Y63034D01*
X32624Y59097D02*
Y63034D01*
X71255Y43710D02*
X82673D01*
X71255Y49221D02*
X82673D01*
Y43710D02*
Y49221D01*
X71255Y43710D02*
Y49221D01*
X75192Y61609D02*
X78736D01*
X75192Y54522D02*
X78736D01*
Y61609D01*
X75192Y54522D02*
Y61609D01*
X71224Y67892D02*
Y71435D01*
X78311Y67892D02*
Y71435D01*
X71224D02*
X78311D01*
X71224Y67892D02*
X78311D01*
X71224Y62695D02*
X78704D01*
X71224Y66632D02*
X78704D01*
Y62695D02*
Y66632D01*
X71224Y62695D02*
Y66632D01*
X71224Y76632D02*
X78704D01*
X71224Y72695D02*
X78704D01*
X71224D02*
Y76632D01*
X78704Y72695D02*
Y76632D01*
X70626Y14467D02*
Y32183D01*
X61570Y14467D02*
Y32183D01*
X70626D01*
X61570Y14467D02*
X70626D01*
X10403Y75228D02*
Y88614D01*
X2529Y75228D02*
Y88614D01*
X10403D01*
X2529Y75228D02*
X10403D01*
X37219Y76315D02*
Y88126D01*
X31313Y76315D02*
Y88126D01*
X37219D01*
X31313Y76315D02*
X37219D01*
X32624Y50097D02*
X40104D01*
X32624Y54034D02*
X40104D01*
Y50097D02*
Y54034D01*
X32624Y50097D02*
Y54034D01*
X32624Y43334D02*
X40104D01*
X32624Y39397D02*
X40104D01*
X32624D02*
Y43334D01*
X40104Y39397D02*
Y43334D01*
X71224Y53534D02*
X78704D01*
X71224Y49597D02*
X78704D01*
X71224D02*
Y53534D01*
X78704Y49597D02*
Y53534D01*
X71224Y39197D02*
X78704D01*
X71224Y43134D02*
X78704D01*
Y39197D02*
Y43134D01*
X71224Y39197D02*
Y43134D01*
X18158Y15072D02*
Y19009D01*
X25638Y15072D02*
Y19009D01*
X18158D02*
X25638D01*
X18158Y15072D02*
X25638D01*
X18158Y22560D02*
Y26497D01*
X25638Y22560D02*
Y26497D01*
X18158D02*
X25638D01*
X18158Y22560D02*
X25638D01*
X264853Y39246D02*
X272333D01*
X264853Y35309D02*
X272333D01*
X264853D02*
Y39246D01*
X272333Y35309D02*
Y39246D01*
X300230Y12367D02*
Y19847D01*
X304167Y12367D02*
Y19847D01*
X300230Y12367D02*
X304167D01*
X300230Y19847D02*
X304167D01*
X299967Y12367D02*
Y19847D01*
X296030Y12367D02*
Y19847D01*
X299967D01*
X296030Y12367D02*
X299967D01*
X264953Y51146D02*
X272433D01*
X264953Y47209D02*
X272433D01*
X264953D02*
Y51146D01*
X272433Y47209D02*
Y51146D01*
X278695Y78068D02*
Y85549D01*
X282632Y78068D02*
Y85549D01*
X278695Y78068D02*
X282632D01*
X278695Y85549D02*
X282632D01*
X299153Y48807D02*
X306633D01*
X299153Y52744D02*
X306633D01*
Y48807D02*
Y52744D01*
X299153Y48807D02*
Y52744D01*
X286070Y66909D02*
X293550D01*
X286070Y70846D02*
X293550D01*
Y66909D02*
Y70846D01*
X286070Y66909D02*
Y70846D01*
X277753D02*
X285233D01*
X277753Y66909D02*
X285233D01*
X277753D02*
Y70846D01*
X285233Y66909D02*
Y70846D01*
X288097Y84123D02*
Y91603D01*
X284160Y84123D02*
Y91603D01*
X288097D01*
X284160Y84123D02*
X288097D01*
X288360D02*
Y91603D01*
X292297Y84123D02*
Y91603D01*
X288360Y84123D02*
X292297D01*
X288360Y91603D02*
X292297D01*
X183916Y39821D02*
Y43364D01*
X191002Y39821D02*
Y43364D01*
X183916D02*
X191002D01*
X183916Y39821D02*
X191002D01*
X182624Y31472D02*
X194041D01*
X182624Y25960D02*
X194041D01*
X182624D02*
Y31472D01*
X194041Y25960D02*
Y31472D01*
X191102Y53320D02*
Y56863D01*
X184016Y53320D02*
Y56863D01*
Y53320D02*
X191102D01*
X184016Y56863D02*
X191102D01*
X191002Y35321D02*
Y38865D01*
X183916Y35321D02*
Y38865D01*
Y35321D02*
X191002D01*
X183916Y38865D02*
X191002D01*
X150116Y51418D02*
Y54961D01*
X157202Y51418D02*
Y54961D01*
X150116D02*
X157202D01*
X150116Y51418D02*
X157202D01*
Y55318D02*
Y58861D01*
X150116Y55318D02*
Y58861D01*
Y55318D02*
X157202D01*
X150116Y58861D02*
X157202D01*
X183916Y57819D02*
Y61362D01*
X191002Y57819D02*
Y61362D01*
X183916D02*
X191002D01*
X183916Y57819D02*
X191002D01*
X157202Y59118D02*
Y62661D01*
X150116Y59118D02*
Y62661D01*
Y59118D02*
X157202D01*
X150116Y62661D02*
X157202D01*
X183916Y62319D02*
Y65862D01*
X191002Y62319D02*
Y65862D01*
X183916D02*
X191002D01*
X183916Y62319D02*
X191002D01*
X184016Y66818D02*
Y70361D01*
X191102Y66818D02*
Y70361D01*
X184016D02*
X191102D01*
X184016Y66818D02*
X191102D01*
X150116Y63518D02*
Y67061D01*
X157202Y63518D02*
Y67061D01*
X150116D02*
X157202D01*
X150116Y63518D02*
X157202D01*
X150116Y67315D02*
Y70858D01*
X157202Y67315D02*
Y70858D01*
X150116D02*
X157202D01*
X150116Y67315D02*
X157202D01*
X171301Y79426D02*
X182719D01*
X171301Y73914D02*
X182719D01*
X171301D02*
Y79426D01*
X182719Y73914D02*
Y79426D01*
X183050Y79426D02*
X194468D01*
X183050Y73914D02*
X194468D01*
X183050D02*
Y79426D01*
X194468Y73914D02*
Y79426D01*
X167727Y18502D02*
Y25982D01*
X163790Y18502D02*
Y25982D01*
X167727D01*
X163790Y18502D02*
X167727D01*
X149619Y39258D02*
X157099D01*
X149619Y35321D02*
X157099D01*
X149619D02*
Y39258D01*
X157099Y35321D02*
Y39258D01*
X184996Y12379D02*
Y19860D01*
X188933Y12379D02*
Y19860D01*
X184996Y12379D02*
X188933D01*
X184996Y19860D02*
X188933D01*
X184733Y12379D02*
Y19860D01*
X180796Y12379D02*
Y19860D01*
X184733D01*
X180796Y12379D02*
X184733D01*
X149719Y51158D02*
X157199D01*
X149719Y47221D02*
X157199D01*
X149719D02*
Y51158D01*
X157199Y47221D02*
Y51158D01*
X163461Y78081D02*
Y85561D01*
X167398Y78081D02*
Y85561D01*
X163461Y78081D02*
X167398D01*
X163461Y85561D02*
X167398D01*
X183919Y48820D02*
X191399D01*
X183919Y52757D02*
X191399D01*
Y48820D02*
Y52757D01*
X183919Y48820D02*
Y52757D01*
X170836Y66921D02*
X178316D01*
X170836Y70858D02*
X178316D01*
Y66921D02*
Y70858D01*
X170836Y66921D02*
Y70858D01*
X162519D02*
X169999D01*
X162519Y66921D02*
X169999D01*
X162519D02*
Y70858D01*
X169999Y66921D02*
Y70858D01*
X172863Y84136D02*
Y91616D01*
X168926Y84136D02*
Y91616D01*
X172863D01*
X168926Y84136D02*
X172863D01*
X173126D02*
Y91616D01*
X177063Y84136D02*
Y91616D01*
X173126Y84136D02*
X177063D01*
X173126Y91616D02*
X177063D01*
X272136Y43364D02*
Y46907D01*
X265050Y43364D02*
Y46907D01*
Y43364D02*
X272136D01*
X265050Y46907D02*
X272136D01*
X299150Y44308D02*
Y47851D01*
X306236Y44308D02*
Y47851D01*
X299150D02*
X306236D01*
X299150Y44308D02*
X306236D01*
X285536Y31413D02*
X296953D01*
X285536Y25902D02*
X296953D01*
X285536D02*
Y31413D01*
X296953Y25902D02*
Y31413D01*
X272136Y39505D02*
Y43049D01*
X265050Y39505D02*
Y43049D01*
Y39505D02*
X272136D01*
X265050Y43049D02*
X272136D01*
X299150Y39808D02*
Y43352D01*
X306236Y39808D02*
Y43352D01*
X299150D02*
X306236D01*
X299150Y39808D02*
X306236D01*
X297857Y31459D02*
X309275D01*
X297857Y25948D02*
X309275D01*
X297857D02*
Y31459D01*
X309275Y25948D02*
Y31459D01*
X306336Y53307D02*
Y56850D01*
X299250Y53307D02*
Y56850D01*
Y53307D02*
X306336D01*
X299250Y56850D02*
X306336D01*
X306236Y35309D02*
Y38852D01*
X299150Y35309D02*
Y38852D01*
Y35309D02*
X306236D01*
X299150Y38852D02*
X306236D01*
X265350Y51406D02*
Y54949D01*
X272436Y51406D02*
Y54949D01*
X265350D02*
X272436D01*
X265350Y51406D02*
X272436D01*
Y55306D02*
Y58849D01*
X265350Y55306D02*
Y58849D01*
Y55306D02*
X272436D01*
X265350Y58849D02*
X272436D01*
X299150Y57807D02*
Y61350D01*
X306236Y57807D02*
Y61350D01*
X299150D02*
X306236D01*
X299150Y57807D02*
X306236D01*
X272436Y59106D02*
Y62649D01*
X265350Y59106D02*
Y62649D01*
Y59106D02*
X272436D01*
X265350Y62649D02*
X272436D01*
X299150Y62306D02*
Y65849D01*
X306236Y62306D02*
Y65849D01*
X299150D02*
X306236D01*
X299150Y62306D02*
X306236D01*
X299250Y66806D02*
Y70349D01*
X306336Y66806D02*
Y70349D01*
X299250D02*
X306336D01*
X299250Y66806D02*
X306336D01*
X265350Y63506D02*
Y67049D01*
X272436Y63506D02*
Y67049D01*
X265350D02*
X272436D01*
X265350Y63506D02*
X272436D01*
X265350Y67303D02*
Y70846D01*
X272436Y67303D02*
Y70846D01*
X265350D02*
X272436D01*
X265350Y67303D02*
X272436D01*
X286536Y79413D02*
X297953D01*
X286536Y73902D02*
X297953D01*
X286536D02*
Y79413D01*
X297953Y73902D02*
Y79413D01*
X156902Y43376D02*
Y46920D01*
X149816Y43376D02*
Y46920D01*
Y43376D02*
X156902D01*
X149816Y46920D02*
X156902D01*
X183916Y44320D02*
Y47864D01*
X191002Y44320D02*
Y47864D01*
X183916D02*
X191002D01*
X183916Y44320D02*
X191002D01*
X170301Y31426D02*
X181719D01*
X170301Y25914D02*
X181719D01*
X170301D02*
Y31426D01*
X181719Y25914D02*
Y31426D01*
X156902Y39518D02*
Y43061D01*
X149816Y39518D02*
Y43061D01*
Y39518D02*
X156902D01*
X149816Y43061D02*
X156902D01*
X123105Y12379D02*
X127042D01*
X123105Y19860D02*
X127042D01*
X123105Y12379D02*
Y19860D01*
X127042Y12379D02*
Y19860D01*
X92125Y46920D02*
X99212D01*
X92125Y43376D02*
X99212D01*
X92125D02*
Y46920D01*
X99212Y43376D02*
Y46920D01*
X126225Y44320D02*
X133311D01*
X126225Y47864D02*
X133311D01*
Y44320D02*
Y47864D01*
X126225Y44320D02*
Y47864D01*
X124028Y25914D02*
Y31426D01*
X112610Y25914D02*
Y31426D01*
Y25914D02*
X124028D01*
X112610Y31426D02*
X124028D01*
X92125Y43061D02*
X99212D01*
X92125Y39518D02*
X99212D01*
X92125D02*
Y43061D01*
X99212Y39518D02*
Y43061D01*
X126225Y39821D02*
X133311D01*
X126225Y43364D02*
X133311D01*
Y39821D02*
Y43364D01*
X126225Y39821D02*
Y43364D01*
X136350Y25960D02*
Y31472D01*
X124933Y25960D02*
Y31472D01*
Y25960D02*
X136350D01*
X124933Y31472D02*
X136350D01*
X126325Y56863D02*
X133412D01*
X126325Y53320D02*
X133412D01*
X126325D02*
Y56863D01*
X133412Y53320D02*
Y56863D01*
X126225Y38865D02*
X133312D01*
X126225Y35321D02*
X133312D01*
X126225D02*
Y38865D01*
X133312Y35321D02*
Y38865D01*
X92425Y51418D02*
X99511D01*
X92425Y54961D02*
X99511D01*
Y51418D02*
Y54961D01*
X92425Y51418D02*
Y54961D01*
Y58861D02*
X99511D01*
X92425Y55318D02*
X99511D01*
X92425D02*
Y58861D01*
X99511Y55318D02*
Y58861D01*
X126225Y57819D02*
X133312D01*
X126225Y61362D02*
X133312D01*
Y57819D02*
Y61362D01*
X126225Y57819D02*
Y61362D01*
X92425Y62661D02*
X99511D01*
X92425Y59118D02*
X99511D01*
X92425D02*
Y62661D01*
X99511Y59118D02*
Y62661D01*
X126225Y62319D02*
X133312D01*
X126225Y65862D02*
X133312D01*
Y62319D02*
Y65862D01*
X126225Y62319D02*
Y65862D01*
X126325Y66818D02*
X133412D01*
X126325Y70361D02*
X133412D01*
Y66818D02*
Y70361D01*
X126325Y66818D02*
Y70361D01*
X92425Y63518D02*
X99511D01*
X92425Y67061D02*
X99511D01*
Y63518D02*
Y67061D01*
X92425Y63518D02*
Y67061D01*
Y67315D02*
X99511D01*
X92425Y70858D02*
X99511D01*
Y67315D02*
Y70858D01*
X92425Y67315D02*
Y70858D01*
X125028Y73914D02*
Y79426D01*
X113610Y73914D02*
Y79426D01*
Y73914D02*
X125028D01*
X113610Y79426D02*
X125028D01*
X136777Y73914D02*
Y79426D01*
X125359Y73914D02*
Y79426D01*
Y73914D02*
X136777D01*
X125359Y79426D02*
X136777D01*
X106099Y18502D02*
X110036D01*
X106099Y25982D02*
X110036D01*
X106099Y18502D02*
Y25982D01*
X110036Y18502D02*
Y25982D01*
X99408Y35321D02*
Y39258D01*
X91928Y35321D02*
Y39258D01*
Y35321D02*
X99408D01*
X91928Y39258D02*
X99408D01*
X127305Y19860D02*
X131242D01*
X127305Y12379D02*
X131242D01*
Y19860D01*
X127305Y12379D02*
Y19860D01*
X99508Y47221D02*
Y51158D01*
X92028Y47221D02*
Y51158D01*
Y47221D02*
X99508D01*
X92028Y51158D02*
X99508D01*
X105771Y85561D02*
X109707D01*
X105771Y78081D02*
X109707D01*
Y85561D01*
X105771Y78081D02*
Y85561D01*
X126228Y48820D02*
Y52757D01*
X133708Y48820D02*
Y52757D01*
X126228D02*
X133708D01*
X126228Y48820D02*
X133708D01*
X113145Y66921D02*
Y70858D01*
X120625Y66921D02*
Y70858D01*
X113145D02*
X120625D01*
X113145Y66921D02*
X120625D01*
X111235Y84136D02*
X115172D01*
X111235Y91616D02*
X115172D01*
X111235Y84136D02*
Y91616D01*
X115172Y84136D02*
Y91616D01*
X115435D02*
X119372D01*
X115435Y84136D02*
X119372D01*
Y91616D01*
X115435Y84136D02*
Y91616D01*
X112308Y66921D02*
Y70858D01*
X104828Y66921D02*
Y70858D01*
Y66921D02*
X112308D01*
X104828Y70858D02*
X112308D01*
X298284Y79413D02*
X309702D01*
X298284Y73902D02*
X309702D01*
X298284D02*
Y79413D01*
X309702Y73902D02*
Y79413D01*
X282961Y18489D02*
Y25970D01*
X279024Y18489D02*
Y25970D01*
X282961D01*
X279024Y18489D02*
X282961D01*
M02*
