G04*
G04 #@! TF.GenerationSoftware,Altium Limited,Altium Designer,24.10.1 (45)*
G04*
G04 Layer_Color=16711935*
%FSLAX23Y23*%
%MOIN*%
G70*
G04*
G04 #@! TF.SameCoordinates,D213B5B1-1682-4A20-B498-33B6BD820803*
G04*
G04*
G04 #@! TF.FilePolarity,Positive*
G04*
G01*
G75*
%ADD14C,0.008*%
%ADD15C,0.003*%
%ADD57C,0.004*%
%ADD58C,0.000*%
%ADD59C,0.001*%
G36*
X247Y846D02*
X245D01*
Y861D01*
X245Y861D01*
X244Y861D01*
X244Y861D01*
X244Y861D01*
X244Y861D01*
X243Y860D01*
X243Y860D01*
X242Y860D01*
X242D01*
X242Y860D01*
X242Y860D01*
X242Y860D01*
X242Y860D01*
X242Y859D01*
X241Y859D01*
X241Y859D01*
X241Y859D01*
X240Y859D01*
X240Y859D01*
Y861D01*
X240Y861D01*
X240Y861D01*
X240Y861D01*
X240Y861D01*
X240Y861D01*
X241Y861D01*
X241Y861D01*
X241Y861D01*
X242Y862D01*
X242Y862D01*
X243Y863D01*
X243Y863D01*
X243Y863D01*
X243Y863D01*
X243Y863D01*
X244Y863D01*
X244Y863D01*
X244Y864D01*
X244Y864D01*
X244Y864D01*
X245Y865D01*
X245Y865D01*
X245Y866D01*
X247D01*
Y846D01*
D02*
G37*
G36*
X229Y866D02*
X229D01*
X229Y866D01*
X229Y865D01*
X230Y865D01*
X231Y865D01*
X231Y865D01*
X232Y865D01*
X232D01*
X232Y865D01*
X232Y865D01*
X232Y865D01*
X232Y865D01*
X232Y865D01*
X233Y864D01*
X233Y864D01*
X233Y864D01*
X234Y863D01*
Y863D01*
X234Y863D01*
X234Y863D01*
X234Y863D01*
X234Y863D01*
X234Y863D01*
X234Y862D01*
X234Y862D01*
X234Y862D01*
X235Y861D01*
X235Y861D01*
Y861D01*
Y861D01*
Y861D01*
Y860D01*
X235Y860D01*
X234Y860D01*
X234Y860D01*
X234Y859D01*
X234Y859D01*
X234Y858D01*
Y858D01*
X234Y858D01*
X234Y858D01*
X234Y858D01*
X234Y858D01*
X233Y858D01*
X233Y857D01*
X233Y857D01*
X232Y857D01*
X232Y857D01*
X232D01*
X232Y857D01*
X232Y857D01*
X232Y856D01*
X232Y856D01*
X232Y856D01*
X233Y856D01*
X233Y856D01*
X234Y856D01*
X234Y855D01*
X235Y855D01*
X235Y855D01*
X235Y855D01*
X235Y855D01*
X235Y855D01*
X235Y855D01*
X235Y854D01*
X235Y854D01*
X235Y854D01*
X235Y854D01*
X235Y853D01*
X235Y853D01*
X235Y852D01*
Y852D01*
Y852D01*
Y852D01*
Y852D01*
Y852D01*
X235Y852D01*
Y851D01*
X235Y851D01*
X235Y851D01*
X235Y850D01*
X235Y850D01*
X235Y849D01*
Y849D01*
X235Y849D01*
X235Y849D01*
X235Y849D01*
X235Y849D01*
X235Y849D01*
X234Y848D01*
X234Y848D01*
X234Y848D01*
X234Y848D01*
X233Y848D01*
X233Y848D01*
X233Y847D01*
X233Y847D01*
X233Y847D01*
X232Y847D01*
X232Y847D01*
X231Y847D01*
X231D01*
X231Y847D01*
X231D01*
X231Y847D01*
X231Y847D01*
X231Y847D01*
X231Y847D01*
X231Y847D01*
X230Y847D01*
X230Y846D01*
X230Y846D01*
X229Y846D01*
X228Y846D01*
X221D01*
Y866D01*
X229D01*
X229Y866D01*
D02*
G37*
G36*
X218Y863D02*
X207D01*
Y857D01*
X216D01*
Y855D01*
X207D01*
Y846D01*
X205D01*
Y866D01*
X218D01*
Y863D01*
D02*
G37*
%LPC*%
G36*
X228D02*
X224D01*
Y858D01*
X228D01*
X228Y858D01*
X229D01*
X229Y858D01*
X229Y858D01*
X230Y858D01*
X230Y858D01*
X230Y858D01*
X230D01*
X230Y858D01*
X230Y858D01*
X230Y858D01*
X231Y858D01*
X231Y858D01*
X231Y858D01*
X231Y858D01*
X232Y859D01*
X232Y859D01*
X232Y859D01*
X232Y859D01*
X232Y859D01*
X232Y859D01*
X232Y860D01*
X232Y860D01*
X232Y860D01*
Y860D01*
Y860D01*
Y861D01*
X232Y861D01*
X232Y861D01*
X232Y861D01*
X232Y861D01*
X232Y862D01*
X232Y862D01*
X232Y862D01*
X232Y862D01*
X231Y862D01*
X231Y862D01*
X231Y863D01*
X231Y863D01*
X231Y863D01*
X230Y863D01*
X230Y863D01*
X230D01*
X230Y863D01*
X230Y863D01*
X230Y863D01*
X230Y863D01*
X230Y863D01*
X229Y863D01*
X229Y863D01*
X229Y863D01*
X229Y863D01*
X228Y863D01*
X228D01*
X228Y863D01*
D02*
G37*
G36*
X228Y855D02*
X224D01*
Y849D01*
X229D01*
X229Y849D01*
X229D01*
X230Y849D01*
X230Y849D01*
X230Y849D01*
X230D01*
X230Y849D01*
X230Y849D01*
X231Y849D01*
X231Y849D01*
X231Y849D01*
X231Y849D01*
X232Y849D01*
X232Y849D01*
X232Y849D01*
X232Y849D01*
X232Y850D01*
X232Y850D01*
X232Y850D01*
X232Y850D01*
X232Y850D01*
X233Y850D01*
X233Y850D01*
X233Y851D01*
X233Y851D01*
X233Y851D01*
X233Y851D01*
X233Y852D01*
X233Y852D01*
Y852D01*
Y852D01*
Y852D01*
Y852D01*
X233Y852D01*
X233Y853D01*
X233Y853D01*
X233Y853D01*
X233Y853D01*
X232Y854D01*
X232Y854D01*
X232Y854D01*
X232Y854D01*
X232Y854D01*
X232Y854D01*
X231Y855D01*
X231Y855D01*
X231Y855D01*
X231D01*
X231Y855D01*
X231Y855D01*
X231Y855D01*
X230Y855D01*
X230Y855D01*
X230Y855D01*
X230Y855D01*
X230Y855D01*
X230Y855D01*
X229Y855D01*
X229Y855D01*
X229Y855D01*
X228Y855D01*
D02*
G37*
%LPD*%
D14*
X129Y887D02*
X281D01*
Y806D02*
Y887D01*
X129Y806D02*
X281D01*
X129D02*
Y887D01*
D15*
X2468Y847D02*
X2488Y827D01*
X2468D02*
X2488Y847D01*
X2468Y837D02*
X2488D01*
X2478Y827D02*
Y847D01*
X1476Y195D02*
X1456Y215D01*
X1476D02*
X1456Y195D01*
X1476Y205D02*
X1456D01*
X1466Y215D02*
Y195D01*
D57*
X565Y902D02*
Y924D01*
X609Y902D02*
Y924D01*
X565D02*
X609D01*
X565Y902D02*
X609D01*
X3060Y159D02*
Y287D01*
X3129Y159D02*
Y287D01*
X3060Y159D02*
X3129D01*
X3060Y287D02*
X3129D01*
X2778Y237D02*
Y258D01*
X2735Y237D02*
Y258D01*
Y237D02*
X2778D01*
X2735Y258D02*
X2778D01*
X2778Y199D02*
Y220D01*
X2735Y199D02*
Y220D01*
Y199D02*
X2778D01*
X2735Y220D02*
X2778D01*
X2372Y199D02*
Y220D01*
X2329Y199D02*
Y220D01*
Y199D02*
X2372D01*
X2329Y220D02*
X2372D01*
X2329Y237D02*
Y258D01*
X2372Y237D02*
Y258D01*
X2329D02*
X2372D01*
X2329Y237D02*
X2372D01*
X2738Y119D02*
Y140D01*
X2695Y119D02*
Y140D01*
Y119D02*
X2738D01*
X2695Y140D02*
X2738D01*
X2412Y119D02*
Y140D01*
X2369Y119D02*
Y140D01*
Y119D02*
X2412D01*
X2369Y140D02*
X2412D01*
X2736Y275D02*
Y296D01*
X2779Y275D02*
Y296D01*
X2736D02*
X2779D01*
X2736Y275D02*
X2779D01*
X2329Y275D02*
Y296D01*
X2372Y275D02*
Y296D01*
X2329D02*
X2372D01*
X2329Y275D02*
X2372D01*
X2735Y400D02*
Y421D01*
X2778Y400D02*
Y421D01*
X2735D02*
X2778D01*
X2735Y400D02*
X2778D01*
X2327D02*
Y421D01*
X2370Y400D02*
Y421D01*
X2327D02*
X2370D01*
X2327Y400D02*
X2370D01*
X2738Y555D02*
Y576D01*
X2695Y555D02*
Y576D01*
Y555D02*
X2738D01*
X2695Y576D02*
X2738D01*
X2412Y554D02*
Y575D01*
X2369Y554D02*
Y575D01*
Y554D02*
X2412D01*
X2369Y575D02*
X2412D01*
X2778Y475D02*
Y497D01*
X2735Y475D02*
Y497D01*
Y475D02*
X2778D01*
X2735Y497D02*
X2778D01*
X2372Y475D02*
Y497D01*
X2329Y475D02*
Y497D01*
Y475D02*
X2372D01*
X2329Y497D02*
X2372D01*
X2735Y438D02*
Y459D01*
X2778Y438D02*
Y459D01*
X2735D02*
X2778D01*
X2735Y438D02*
X2778D01*
X2372Y438D02*
Y459D01*
X2329Y438D02*
Y459D01*
Y438D02*
X2372D01*
X2329Y459D02*
X2372D01*
X2937Y913D02*
X3004D01*
X2937Y878D02*
X3004D01*
X2937D02*
Y913D01*
X3004Y878D02*
Y913D01*
X2107Y563D02*
X2174D01*
X2107Y598D02*
X2174D01*
Y563D02*
Y598D01*
X2107Y563D02*
Y598D01*
X3092Y793D02*
X3159D01*
X3092Y758D02*
X3159D01*
X3092D02*
Y793D01*
X3159Y758D02*
Y793D01*
X1952Y683D02*
X2019D01*
X1952Y718D02*
X2019D01*
Y683D02*
Y718D01*
X1952Y683D02*
Y718D01*
X3092Y693D02*
X3159D01*
X3092Y658D02*
X3159D01*
X3092D02*
Y693D01*
X3159Y658D02*
Y693D01*
X1952Y783D02*
X2019D01*
X1952Y818D02*
X2019D01*
Y783D02*
Y818D01*
X1952Y783D02*
Y818D01*
X2937Y623D02*
X3004D01*
X2937Y588D02*
X3004D01*
X2937D02*
Y623D01*
X3004Y588D02*
Y623D01*
X2107Y850D02*
X2174D01*
X2107Y885D02*
X2174D01*
Y850D02*
Y885D01*
X2107Y850D02*
Y885D01*
X2736Y180D02*
X2777D01*
X2736Y159D02*
X2777D01*
X2736D02*
Y180D01*
X2777Y159D02*
Y180D01*
X2330D02*
X2371D01*
X2330Y159D02*
X2371D01*
X2330D02*
Y180D01*
X2371Y159D02*
Y180D01*
X2325Y315D02*
X2366D01*
X2325Y336D02*
X2366D01*
Y315D02*
Y336D01*
X2325Y315D02*
Y336D01*
X2325Y381D02*
X2366D01*
X2325Y360D02*
X2366D01*
X2325D02*
Y381D01*
X2366Y360D02*
Y381D01*
X2736Y537D02*
X2777D01*
X2736Y515D02*
X2777D01*
X2736D02*
Y537D01*
X2777Y515D02*
Y537D01*
X2330D02*
X2371D01*
X2330Y515D02*
X2371D01*
X2330D02*
Y537D01*
X2371Y515D02*
Y537D01*
X2856Y580D02*
Y621D01*
X2835Y580D02*
Y621D01*
X2856D01*
X2835Y580D02*
X2856D01*
X2790D02*
Y621D01*
X2811Y580D02*
Y621D01*
X2790Y580D02*
X2811D01*
X2790Y621D02*
X2811D01*
X2326Y855D02*
Y896D01*
X2305Y855D02*
Y896D01*
X2326D01*
X2305Y855D02*
X2326D01*
X2751Y755D02*
Y796D01*
X2730Y755D02*
Y796D01*
X2751D01*
X2730Y755D02*
X2751D01*
X2260Y855D02*
Y896D01*
X2281Y855D02*
Y896D01*
X2260Y855D02*
X2281D01*
X2260Y896D02*
X2281D01*
X940Y129D02*
Y164D01*
X1007Y129D02*
Y164D01*
X940D02*
X1007D01*
X940Y129D02*
X1007D01*
X1837Y444D02*
Y479D01*
X1770Y444D02*
Y479D01*
Y444D02*
X1837D01*
X1770Y479D02*
X1837D01*
X785Y249D02*
Y284D01*
X852Y249D02*
Y284D01*
X785D02*
X852D01*
X785Y249D02*
X852D01*
X1992Y324D02*
Y359D01*
X1925Y324D02*
Y359D01*
Y324D02*
X1992D01*
X1925Y359D02*
X1992D01*
X785Y349D02*
Y384D01*
X852Y349D02*
Y384D01*
X785D02*
X852D01*
X785Y349D02*
X852D01*
X1992Y224D02*
Y259D01*
X1925Y224D02*
Y259D01*
Y224D02*
X1992D01*
X1925Y259D02*
X1992D01*
X940Y419D02*
Y454D01*
X1007Y419D02*
Y454D01*
X940D02*
X1007D01*
X940Y419D02*
X1007D01*
X1837Y157D02*
Y192D01*
X1770Y157D02*
Y192D01*
Y157D02*
X1837D01*
X1770Y192D02*
X1837D01*
X1166Y784D02*
X1209D01*
X1166Y805D02*
X1209D01*
Y784D02*
Y805D01*
X1166Y784D02*
Y805D01*
X1572Y822D02*
X1615D01*
X1572Y843D02*
X1615D01*
Y822D02*
Y843D01*
X1572Y822D02*
Y843D01*
X1166Y822D02*
X1209D01*
X1166Y843D02*
X1209D01*
Y822D02*
Y843D01*
X1166Y822D02*
Y843D01*
X1572Y805D02*
X1615D01*
X1572Y784D02*
X1615D01*
X1572D02*
Y805D01*
X1615Y784D02*
Y805D01*
X1247Y883D02*
X1291D01*
X1247Y905D02*
X1291D01*
Y883D02*
Y905D01*
X1247Y883D02*
Y905D01*
X1488Y883D02*
X1532D01*
X1488Y905D02*
X1532D01*
Y883D02*
Y905D01*
X1488Y883D02*
Y905D01*
X1165Y767D02*
X1208D01*
X1165Y746D02*
X1208D01*
X1165D02*
Y767D01*
X1208Y746D02*
Y767D01*
X1572Y767D02*
X1615D01*
X1572Y746D02*
X1615D01*
X1572D02*
Y767D01*
X1615Y746D02*
Y767D01*
X1166Y642D02*
X1209D01*
X1166Y621D02*
X1209D01*
X1166D02*
Y642D01*
X1209Y621D02*
Y642D01*
X1574D02*
X1617D01*
X1574Y621D02*
X1617D01*
X1574D02*
Y642D01*
X1617Y621D02*
Y642D01*
X1166Y545D02*
X1209D01*
X1166Y567D02*
X1209D01*
Y545D02*
Y567D01*
X1166Y545D02*
Y567D01*
X1572Y545D02*
X1615D01*
X1572Y567D02*
X1615D01*
Y545D02*
Y567D01*
X1572Y545D02*
Y567D01*
X1206Y466D02*
X1249D01*
X1206Y487D02*
X1249D01*
Y466D02*
Y487D01*
X1206Y466D02*
Y487D01*
X1532Y467D02*
X1575D01*
X1532Y488D02*
X1575D01*
Y467D02*
Y488D01*
X1532Y467D02*
Y488D01*
X1166Y604D02*
X1209D01*
X1166Y583D02*
X1209D01*
X1166D02*
Y604D01*
X1209Y583D02*
Y604D01*
X1572Y583D02*
X1615D01*
X1572Y604D02*
X1615D01*
Y583D02*
Y604D01*
X1572Y583D02*
Y604D01*
X1167Y862D02*
Y883D01*
X1208Y862D02*
Y883D01*
X1167D02*
X1208D01*
X1167Y862D02*
X1208D01*
X1573D02*
Y883D01*
X1614Y862D02*
Y883D01*
X1573D02*
X1614D01*
X1573Y862D02*
X1614D01*
X1619Y706D02*
Y727D01*
X1578Y706D02*
Y727D01*
Y706D02*
X1619D01*
X1578Y727D02*
X1619D01*
X1578Y661D02*
Y682D01*
X1619Y661D02*
Y682D01*
X1578D02*
X1619D01*
X1578Y661D02*
X1619D01*
X1167Y505D02*
Y527D01*
X1208Y505D02*
Y527D01*
X1167D02*
X1208D01*
X1167Y505D02*
X1208D01*
X1573D02*
Y527D01*
X1614Y505D02*
Y527D01*
X1573D02*
X1614D01*
X1573Y505D02*
X1614D01*
X1193Y287D02*
X1214D01*
X1193Y246D02*
X1214D01*
Y287D01*
X1193Y246D02*
Y287D01*
X1088Y462D02*
X1109D01*
X1088Y421D02*
X1109D01*
Y462D01*
X1088Y421D02*
Y462D01*
X1663Y146D02*
X1684D01*
X1663Y187D02*
X1684D01*
X1663Y146D02*
Y187D01*
X1684Y146D02*
Y187D01*
X1618D02*
X1639D01*
X1618Y146D02*
X1639D01*
Y187D01*
X1618Y146D02*
Y187D01*
X1133Y421D02*
X1154D01*
X1133Y462D02*
X1154D01*
X1133Y421D02*
Y462D01*
X1154Y421D02*
Y462D01*
X239Y564D02*
Y586D01*
X281Y564D02*
Y586D01*
X239D02*
X281D01*
X239Y564D02*
X281D01*
X931Y659D02*
Y680D01*
X889Y659D02*
Y680D01*
Y659D02*
X931D01*
X889Y680D02*
X931D01*
Y708D02*
Y730D01*
X889Y708D02*
Y730D01*
Y708D02*
X931D01*
X889Y730D02*
X931D01*
X493Y557D02*
X537D01*
X493Y536D02*
X537D01*
X493D02*
Y557D01*
X537Y536D02*
Y557D01*
X494Y488D02*
Y510D01*
X536Y488D02*
Y510D01*
X494D02*
X536D01*
X494Y488D02*
X536D01*
X497Y708D02*
Y730D01*
X538Y708D02*
Y730D01*
X497D02*
X538D01*
X497Y708D02*
X538D01*
X889Y609D02*
Y631D01*
X931Y609D02*
Y631D01*
X889D02*
X931D01*
X889Y609D02*
X931D01*
X531Y759D02*
Y794D01*
X464Y759D02*
Y794D01*
Y759D02*
X531D01*
X464Y794D02*
X531D01*
X889Y823D02*
Y845D01*
X931Y823D02*
Y845D01*
X889D02*
X931D01*
X889Y823D02*
X931D01*
X962Y759D02*
Y794D01*
X895Y759D02*
Y794D01*
Y759D02*
X962D01*
X895Y794D02*
X962D01*
X987Y621D02*
X1023D01*
X987Y687D02*
X1023D01*
X987Y621D02*
Y687D01*
X1023Y621D02*
Y687D01*
X146Y677D02*
Y746D01*
X274Y677D02*
Y746D01*
X146D02*
X274D01*
X146Y677D02*
X274D01*
X42Y771D02*
X99D01*
X42Y857D02*
X99D01*
X42Y771D02*
Y857D01*
X99Y771D02*
Y857D01*
X361Y783D02*
X397D01*
X361Y850D02*
X397D01*
X361Y783D02*
Y850D01*
X397Y783D02*
Y850D01*
X304Y850D02*
X326D01*
X304Y808D02*
X326D01*
Y850D01*
X304Y808D02*
Y850D01*
X411Y330D02*
X479D01*
X411Y202D02*
X479D01*
Y330D01*
X411Y202D02*
Y330D01*
X46Y202D02*
X114D01*
X46Y330D02*
X114D01*
X46Y202D02*
Y330D01*
X114Y202D02*
Y330D01*
X196Y176D02*
X324D01*
X196Y245D02*
X324D01*
Y176D02*
Y245D01*
X196Y176D02*
Y245D01*
X239Y489D02*
X281D01*
X239Y511D02*
X281D01*
Y489D02*
Y511D01*
X239Y489D02*
Y511D01*
X682Y841D02*
X748D01*
X682Y877D02*
X748D01*
Y841D02*
Y877D01*
X682Y841D02*
Y877D01*
X292Y306D02*
X358D01*
X292Y341D02*
X358D01*
Y306D02*
Y341D01*
X292Y306D02*
Y341D01*
X162Y306D02*
X228D01*
X162Y341D02*
X228D01*
Y306D02*
Y341D01*
X162Y306D02*
Y341D01*
X174Y370D02*
X216D01*
X174Y392D02*
X216D01*
Y370D02*
Y392D01*
X174Y370D02*
Y392D01*
X304Y370D02*
X346D01*
X304Y392D02*
X346D01*
Y370D02*
Y392D01*
X304Y370D02*
Y392D01*
X494Y605D02*
X536D01*
X494Y583D02*
X536D01*
X494D02*
Y605D01*
X536Y583D02*
Y605D01*
X433Y622D02*
X455D01*
X433Y665D02*
X455D01*
X433Y622D02*
Y665D01*
X455Y622D02*
Y665D01*
X497Y845D02*
X538D01*
X497Y823D02*
X538D01*
X497D02*
Y845D01*
X538Y823D02*
Y845D01*
D58*
X2542Y875D02*
G03*
X2566Y875I12J0D01*
G01*
X2927Y652D02*
G03*
X2903Y652I-12J0D01*
G01*
X2183Y824D02*
G03*
X2207Y824I12J0D01*
G01*
X1402Y167D02*
G03*
X1378Y167I-12J0D01*
G01*
X1017Y390D02*
G03*
X1041Y390I12J0D01*
G01*
X1761Y218D02*
G03*
X1737Y218I-12J0D01*
G01*
D59*
X2466Y854D02*
Y866D01*
X2428D02*
X2466D01*
X2428Y854D02*
Y866D01*
Y854D02*
X2466D01*
Y829D02*
Y841D01*
X2428D02*
X2466D01*
X2428Y829D02*
Y841D01*
Y829D02*
X2466D01*
Y803D02*
Y815D01*
X2428D02*
X2466D01*
X2428Y803D02*
Y815D01*
Y803D02*
X2466D01*
Y777D02*
Y789D01*
X2428D02*
X2466D01*
X2428Y777D02*
Y789D01*
Y777D02*
X2466D01*
Y752D02*
Y764D01*
X2428D02*
X2466D01*
X2428Y752D02*
Y764D01*
Y752D02*
X2466D01*
Y726D02*
Y738D01*
X2428D02*
X2466D01*
X2428Y726D02*
Y738D01*
Y726D02*
X2466D01*
Y701D02*
Y713D01*
X2428D02*
X2466D01*
X2428Y701D02*
Y713D01*
Y701D02*
X2466D01*
Y675D02*
Y687D01*
X2428D02*
X2466D01*
X2428Y675D02*
Y687D01*
Y675D02*
X2466D01*
Y649D02*
Y661D01*
X2428D02*
X2466D01*
X2428Y649D02*
Y661D01*
Y649D02*
X2466D01*
Y624D02*
Y636D01*
X2428D02*
X2466D01*
X2428Y624D02*
Y636D01*
Y624D02*
X2466D01*
X2643Y624D02*
Y636D01*
Y624D02*
X2680D01*
Y636D01*
X2643D02*
X2680D01*
X2643Y649D02*
Y661D01*
Y649D02*
X2680D01*
Y661D01*
X2643D02*
X2680D01*
X2643Y675D02*
Y687D01*
Y675D02*
X2680D01*
Y687D01*
X2643D02*
X2680D01*
X2643Y701D02*
Y713D01*
Y701D02*
X2680D01*
Y713D01*
X2643D02*
X2680D01*
X2643Y726D02*
Y738D01*
Y726D02*
X2680D01*
Y738D01*
X2643D02*
X2680D01*
X2643Y752D02*
Y764D01*
Y752D02*
X2680D01*
Y764D01*
X2643D02*
X2680D01*
X2643Y777D02*
Y789D01*
Y777D02*
X2680D01*
Y789D01*
X2643D02*
X2680D01*
X2643Y803D02*
Y815D01*
Y803D02*
X2680D01*
Y815D01*
X2643D02*
X2680D01*
X2643Y829D02*
Y841D01*
Y829D02*
X2680D01*
Y841D01*
X2643D02*
X2680D01*
X2643Y854D02*
Y866D01*
Y854D02*
X2680D01*
Y866D01*
X2643D02*
X2680D01*
X2466Y615D02*
X2643D01*
Y875D01*
X2466D02*
X2643D01*
X2466Y615D02*
Y875D01*
X2994Y652D02*
Y849D01*
X2837Y652D02*
X2994D01*
X2837D02*
Y849D01*
X2994D01*
X2793Y665D02*
X2837D01*
X2793D02*
Y685D01*
X2837D01*
Y665D02*
Y685D01*
X2793Y715D02*
X2837D01*
X2793D02*
Y735D01*
X2837D01*
Y715D02*
Y735D01*
X2793Y765D02*
X2837D01*
X2793D02*
Y785D01*
X2837D01*
Y765D02*
Y785D01*
X2793Y815D02*
X2837D01*
X2793D02*
Y835D01*
X2837D01*
Y815D02*
Y835D01*
X2994D02*
X3037D01*
Y815D02*
Y835D01*
X2994Y815D02*
X3037D01*
X2994D02*
Y835D01*
Y785D02*
X3037D01*
Y765D02*
Y785D01*
X2994Y765D02*
X3037D01*
X2994D02*
Y785D01*
Y735D02*
X3037D01*
Y715D02*
Y735D01*
X2994Y715D02*
X3037D01*
X2994D02*
Y735D01*
Y685D02*
X3037D01*
Y665D02*
Y685D01*
X2994Y665D02*
X3037D01*
X2994D02*
Y685D01*
X2117Y627D02*
Y824D01*
X2274D01*
Y627D02*
Y824D01*
X2117Y627D02*
X2274D01*
Y811D02*
X2317D01*
Y791D02*
Y811D01*
X2274Y791D02*
X2317D01*
X2274D02*
Y811D01*
Y761D02*
X2317D01*
Y741D02*
Y761D01*
X2274Y741D02*
X2317D01*
X2274D02*
Y761D01*
Y711D02*
X2317D01*
Y691D02*
Y711D01*
X2274Y691D02*
X2317D01*
X2274D02*
Y711D01*
Y661D02*
X2317D01*
Y641D02*
Y661D01*
X2274Y641D02*
X2317D01*
X2274D02*
Y661D01*
X2073Y641D02*
X2117D01*
X2073D02*
Y661D01*
X2117D01*
Y641D02*
Y661D01*
X2073Y691D02*
X2117D01*
X2073D02*
Y711D01*
X2117D01*
Y691D02*
Y711D01*
X2073Y741D02*
X2117D01*
X2073D02*
Y761D01*
X2117D01*
Y741D02*
Y761D01*
X2073Y791D02*
X2117D01*
X2073D02*
Y811D01*
X2117D01*
Y791D02*
Y811D01*
X1478Y176D02*
Y188D01*
Y176D02*
X1516D01*
Y188D01*
X1478D02*
X1516D01*
X1478Y201D02*
Y213D01*
Y201D02*
X1516D01*
Y213D01*
X1478D02*
X1516D01*
X1478Y227D02*
Y239D01*
Y227D02*
X1516D01*
Y239D01*
X1478D02*
X1516D01*
X1478Y253D02*
Y265D01*
Y253D02*
X1516D01*
Y265D01*
X1478D02*
X1516D01*
X1478Y278D02*
Y290D01*
Y278D02*
X1516D01*
Y290D01*
X1478D02*
X1516D01*
X1478Y304D02*
Y316D01*
Y304D02*
X1516D01*
Y316D01*
X1478D02*
X1516D01*
X1478Y329D02*
Y341D01*
Y329D02*
X1516D01*
Y341D01*
X1478D02*
X1516D01*
X1478Y355D02*
Y367D01*
Y355D02*
X1516D01*
Y367D01*
X1478D02*
X1516D01*
X1478Y381D02*
Y393D01*
Y381D02*
X1516D01*
Y393D01*
X1478D02*
X1516D01*
X1478Y406D02*
Y418D01*
Y406D02*
X1516D01*
Y418D01*
X1478D02*
X1516D01*
X1301Y406D02*
Y418D01*
X1264D02*
X1301D01*
X1264Y406D02*
Y418D01*
Y406D02*
X1301D01*
Y381D02*
Y393D01*
X1264D02*
X1301D01*
X1264Y381D02*
Y393D01*
Y381D02*
X1301D01*
Y355D02*
Y367D01*
X1264D02*
X1301D01*
X1264Y355D02*
Y367D01*
Y355D02*
X1301D01*
Y329D02*
Y341D01*
X1264D02*
X1301D01*
X1264Y329D02*
Y341D01*
Y329D02*
X1301D01*
Y304D02*
Y316D01*
X1264D02*
X1301D01*
X1264Y304D02*
Y316D01*
Y304D02*
X1301D01*
Y278D02*
Y290D01*
X1264D02*
X1301D01*
X1264Y278D02*
Y290D01*
Y278D02*
X1301D01*
Y253D02*
Y265D01*
X1264D02*
X1301D01*
X1264Y253D02*
Y265D01*
Y253D02*
X1301D01*
Y227D02*
Y239D01*
X1264D02*
X1301D01*
X1264Y227D02*
Y239D01*
Y227D02*
X1301D01*
Y201D02*
Y213D01*
X1264D02*
X1301D01*
X1264Y201D02*
Y213D01*
Y201D02*
X1301D01*
Y176D02*
Y188D01*
X1264D02*
X1301D01*
X1264Y176D02*
Y188D01*
Y176D02*
X1301D01*
Y427D02*
X1478D01*
X1301Y167D02*
Y427D01*
Y167D02*
X1478D01*
Y427D01*
X950Y357D02*
Y377D01*
X907D02*
X950D01*
X907Y357D02*
Y377D01*
Y357D02*
X950D01*
Y307D02*
Y327D01*
X907D02*
X950D01*
X907Y307D02*
Y327D01*
Y307D02*
X950D01*
Y257D02*
Y277D01*
X907D02*
X950D01*
X907Y257D02*
Y277D01*
Y257D02*
X950D01*
Y207D02*
Y227D01*
X907D02*
X950D01*
X907Y207D02*
Y227D01*
Y207D02*
X950D01*
X1107D02*
Y227D01*
Y207D02*
X1151D01*
Y227D01*
X1107D02*
X1151D01*
X1107Y257D02*
Y277D01*
Y257D02*
X1151D01*
Y277D01*
X1107D02*
X1151D01*
X1107Y307D02*
Y327D01*
Y307D02*
X1151D01*
Y327D01*
X1107D02*
X1151D01*
X1107Y357D02*
Y377D01*
Y357D02*
X1151D01*
Y377D01*
X1107D02*
X1151D01*
X950Y193D02*
X1107D01*
Y390D01*
X950D02*
X1107D01*
X950Y193D02*
Y390D01*
X1827Y231D02*
Y251D01*
Y231D02*
X1871D01*
Y251D01*
X1827D02*
X1871D01*
X1827Y281D02*
Y301D01*
Y281D02*
X1871D01*
Y301D01*
X1827D02*
X1871D01*
X1827Y331D02*
Y351D01*
Y331D02*
X1871D01*
Y351D01*
X1827D02*
X1871D01*
X1827Y381D02*
Y401D01*
Y381D02*
X1871D01*
Y401D01*
X1827D02*
X1871D01*
X1670Y381D02*
Y401D01*
X1627D02*
X1670D01*
X1627Y381D02*
Y401D01*
Y381D02*
X1670D01*
Y331D02*
Y351D01*
X1627D02*
X1670D01*
X1627Y331D02*
Y351D01*
Y331D02*
X1670D01*
Y281D02*
Y301D01*
X1627D02*
X1670D01*
X1627Y281D02*
Y301D01*
Y281D02*
X1670D01*
Y231D02*
Y251D01*
X1627D02*
X1670D01*
X1627Y231D02*
Y251D01*
Y231D02*
X1670D01*
Y415D02*
X1827D01*
X1670Y218D02*
Y415D01*
Y218D02*
X1827D01*
Y415D01*
M02*
