G04*
G04 #@! TF.GenerationSoftware,Altium Limited,Altium Designer,24.10.1 (45)*
G04*
G04 Layer_Physical_Order=1*
G04 Layer_Color=255*
%FSLAX23Y23*%
%MOIN*%
G70*
G04*
G04 #@! TF.SameCoordinates,D213B5B1-1682-4A20-B498-33B6BD820803*
G04*
G04*
G04 #@! TF.FilePolarity,Positive*
G04*
G01*
G75*
%ADD12C,0.010*%
%ADD16R,0.058X0.014*%
%ADD17R,0.026X0.022*%
%ADD18R,0.031X0.031*%
%ADD19R,0.069X0.045*%
%ADD20R,0.080X0.023*%
%ADD21R,0.078X0.022*%
%ADD22R,0.037X0.035*%
%ADD23R,0.026X0.024*%
%ADD24R,0.024X0.026*%
%ADD25R,0.043X0.028*%
%ADD26R,0.035X0.037*%
%ADD27R,0.045X0.069*%
%ADD28R,0.057X0.049*%
%ADD29R,0.037X0.039*%
%ADD30R,0.051X0.042*%
%ADD31R,0.022X0.026*%
%ADD49C,0.008*%
%ADD50C,0.025*%
%ADD51R,0.059X0.059*%
%ADD52C,0.059*%
%ADD53C,0.022*%
G36*
X3180Y1020D02*
X3175Y1017D01*
X3167Y1021D01*
X3156Y1025D01*
X3144D01*
X3133Y1021D01*
X3123Y1016D01*
X3114Y1007D01*
X3109Y997D01*
X3105Y986D01*
Y974D01*
X3109Y963D01*
X3114Y953D01*
X3123Y944D01*
X3133Y939D01*
X3144Y935D01*
X3156D01*
X3167Y939D01*
X3175Y943D01*
X3180Y940D01*
Y813D01*
X3170D01*
X3168Y818D01*
X3163Y823D01*
X3157Y825D01*
X3151D01*
X3145Y823D01*
X3140Y818D01*
X3138Y813D01*
X3066D01*
Y818D01*
X3012D01*
Y825D01*
X3005D01*
Y851D01*
X2986D01*
X2984Y856D01*
X2985Y858D01*
X3038D01*
Y931D01*
X3038D01*
X3038Y933D01*
X3041Y936D01*
X3044Y935D01*
X3056D01*
X3067Y939D01*
X3077Y944D01*
X3086Y953D01*
X3091Y963D01*
X3095Y974D01*
Y986D01*
X3091Y997D01*
X3086Y1007D01*
X3077Y1016D01*
X3067Y1021D01*
X3056Y1025D01*
X3044D01*
X3033Y1021D01*
X3023Y1016D01*
X3014Y1007D01*
X3009Y997D01*
X3005Y986D01*
Y974D01*
X3009Y963D01*
X3014Y953D01*
X3023Y944D01*
X3033Y939D01*
X3033Y938D01*
X3033Y934D01*
D01*
Y934D01*
X3033D01*
X3033Y933D01*
X3033Y933D01*
X3033Y933D01*
X3033Y933D01*
X2967D01*
X2966Y938D01*
X2967Y939D01*
X2977Y944D01*
X2986Y953D01*
X2991Y963D01*
X2995Y974D01*
Y986D01*
X2991Y997D01*
X2986Y1007D01*
X2977Y1016D01*
X2967Y1021D01*
X2956Y1025D01*
X2944D01*
X2933Y1021D01*
X2923Y1016D01*
X2914Y1007D01*
X2909Y997D01*
X2905Y986D01*
Y974D01*
X2909Y963D01*
X2914Y953D01*
X2923Y944D01*
X2933Y939D01*
X2934Y938D01*
X2933Y933D01*
X2903D01*
Y910D01*
X2820D01*
X2818Y915D01*
X2818Y915D01*
X2821Y921D01*
Y927D01*
X2818Y933D01*
X2814Y938D01*
X2808Y940D01*
X2801D01*
X2797Y939D01*
X2777D01*
X2776Y943D01*
X2777Y944D01*
X2786Y953D01*
X2791Y963D01*
X2795Y974D01*
Y986D01*
X2791Y997D01*
X2786Y1007D01*
X2777Y1016D01*
X2767Y1021D01*
X2756Y1025D01*
X2744D01*
X2733Y1021D01*
X2723Y1016D01*
X2714Y1007D01*
X2709Y997D01*
X2705Y986D01*
Y974D01*
X2709Y963D01*
X2714Y953D01*
X2723Y944D01*
X2724Y943D01*
X2723Y939D01*
X2677D01*
X2676Y943D01*
X2677Y944D01*
X2686Y953D01*
X2691Y963D01*
X2695Y974D01*
Y986D01*
X2691Y997D01*
X2686Y1007D01*
X2677Y1016D01*
X2667Y1021D01*
X2656Y1025D01*
X2644D01*
X2633Y1021D01*
X2623Y1016D01*
X2614Y1007D01*
X2609Y997D01*
X2605Y986D01*
Y974D01*
X2609Y963D01*
X2614Y953D01*
X2623Y944D01*
X2624Y943D01*
X2623Y939D01*
X2577D01*
X2576Y943D01*
X2577Y944D01*
X2586Y953D01*
X2591Y963D01*
X2595Y974D01*
Y986D01*
X2591Y997D01*
X2586Y1007D01*
X2577Y1016D01*
X2567Y1021D01*
X2556Y1025D01*
X2544D01*
X2533Y1021D01*
X2523Y1016D01*
X2514Y1007D01*
X2509Y997D01*
X2505Y986D01*
Y974D01*
X2509Y963D01*
X2514Y953D01*
X2523Y944D01*
X2524Y943D01*
X2523Y939D01*
X2477D01*
X2476Y943D01*
X2477Y944D01*
X2486Y953D01*
X2491Y963D01*
X2495Y974D01*
Y986D01*
X2491Y997D01*
X2486Y1007D01*
X2477Y1016D01*
X2467Y1021D01*
X2456Y1025D01*
X2444D01*
X2433Y1021D01*
X2423Y1016D01*
X2414Y1007D01*
X2409Y997D01*
X2405Y986D01*
Y974D01*
X2409Y963D01*
X2414Y953D01*
X2422Y945D01*
X2421Y942D01*
X2420Y940D01*
X2419D01*
X2413Y938D01*
X2409Y933D01*
X2408Y931D01*
X2402Y930D01*
X2399Y933D01*
X2394Y936D01*
X2389Y937D01*
X2389Y937D01*
X2383D01*
X2383Y938D01*
X2379Y939D01*
X2378Y942D01*
X2378Y945D01*
X2386Y953D01*
X2391Y963D01*
X2395Y974D01*
Y986D01*
X2391Y997D01*
X2386Y1007D01*
X2377Y1016D01*
X2367Y1021D01*
X2356Y1025D01*
X2344D01*
X2333Y1021D01*
X2323Y1016D01*
X2314Y1007D01*
X2309Y997D01*
X2305Y986D01*
Y974D01*
X2309Y963D01*
X2314Y953D01*
X2323Y944D01*
X2333Y939D01*
X2344Y935D01*
X2356D01*
X2359Y931D01*
X2358Y927D01*
Y921D01*
X2360Y915D01*
X2365Y911D01*
X2371Y908D01*
X2377D01*
X2378Y909D01*
X2383D01*
X2400Y892D01*
X2398Y887D01*
X2394D01*
Y874D01*
X2369D01*
X2369Y874D01*
X2364Y873D01*
X2359Y870D01*
X2359Y870D01*
X2353Y864D01*
X2348Y866D01*
Y926D01*
X2339D01*
X2338Y927D01*
X2338Y927D01*
X2338Y927D01*
X2335Y929D01*
X2332Y931D01*
X2331Y931D01*
X2331Y931D01*
X2327Y932D01*
X2327Y932D01*
X2325Y934D01*
X2319Y936D01*
X2313D01*
X2307Y934D01*
X2306Y933D01*
X2305Y933D01*
X2302Y932D01*
X2301Y932D01*
X2301Y932D01*
X2298Y930D01*
X2295Y928D01*
X2292Y928D01*
X2289Y929D01*
X2286Y931D01*
X2286Y932D01*
X2285Y932D01*
X2282Y932D01*
X2281Y932D01*
X2280Y934D01*
X2274Y936D01*
X2272Y941D01*
X2277Y944D01*
X2286Y953D01*
X2291Y963D01*
X2295Y974D01*
Y986D01*
X2291Y997D01*
X2286Y1007D01*
X2277Y1016D01*
X2267Y1021D01*
X2256Y1025D01*
X2244D01*
X2233Y1021D01*
X2223Y1016D01*
X2214Y1007D01*
X2209Y997D01*
X2205Y986D01*
Y974D01*
X2209Y963D01*
X2214Y953D01*
X2223Y944D01*
X2233Y939D01*
X2244Y935D01*
X2252D01*
X2254Y930D01*
X2252Y929D01*
X2249Y928D01*
X2249Y927D01*
X2248Y927D01*
X2248Y926D01*
X2238D01*
Y883D01*
X2237Y883D01*
X2234Y881D01*
X2234Y880D01*
X2234Y880D01*
X2232Y877D01*
X2230Y874D01*
X2230Y874D01*
X2230Y873D01*
X2229Y870D01*
X2229Y869D01*
X2227Y867D01*
X2225Y863D01*
X2220Y864D01*
X2220Y867D01*
X2216Y871D01*
X2216Y871D01*
X2211Y877D01*
X2208Y879D01*
Y905D01*
X2186D01*
X2185Y910D01*
X2187Y911D01*
X2192Y915D01*
X2194Y921D01*
Y927D01*
X2192Y933D01*
X2187Y938D01*
X2181Y940D01*
X2180D01*
X2179Y942D01*
X2178Y945D01*
X2186Y953D01*
X2191Y963D01*
X2195Y974D01*
Y986D01*
X2191Y997D01*
X2186Y1007D01*
X2177Y1016D01*
X2167Y1021D01*
X2156Y1025D01*
X2144D01*
X2133Y1021D01*
X2123Y1016D01*
X2114Y1007D01*
X2109Y997D01*
X2105Y986D01*
Y974D01*
X2109Y963D01*
X2114Y953D01*
X2123Y944D01*
X2133Y939D01*
X2144Y935D01*
X2156D01*
X2161Y937D01*
X2163Y935D01*
X2164Y932D01*
X2162Y927D01*
Y921D01*
X2164Y915D01*
X2167Y913D01*
X2165Y907D01*
X2165Y907D01*
X2150Y922D01*
X2146Y925D01*
X2140Y926D01*
X2140Y926D01*
X2057D01*
X2053Y928D01*
X2047D01*
X2041Y925D01*
X2036Y921D01*
X2034Y915D01*
Y908D01*
X2036Y903D01*
X2041Y898D01*
X2047Y896D01*
X2053D01*
X2057Y897D01*
X2073D01*
Y832D01*
X2053D01*
Y838D01*
X1918D01*
Y763D01*
X1941D01*
Y762D01*
X1943Y756D01*
X1948Y752D01*
X1954Y749D01*
X1960D01*
X1966Y752D01*
X1970Y756D01*
X1973Y762D01*
Y763D01*
X2044D01*
Y758D01*
X2152D01*
Y770D01*
X2157D01*
Y830D01*
X2192D01*
Y762D01*
X2192Y762D01*
X2193Y757D01*
X2196Y752D01*
X2203Y745D01*
X2200Y741D01*
X2199Y742D01*
X2192D01*
X2186Y739D01*
X2182Y735D01*
X2179Y729D01*
Y723D01*
X2182Y717D01*
X2186Y712D01*
X2191Y710D01*
X2198Y703D01*
Y698D01*
X2196Y696D01*
X2193Y691D01*
X2192Y685D01*
X2192Y685D01*
Y618D01*
X2173D01*
X2170Y622D01*
X2170Y623D01*
X2170Y623D01*
Y692D01*
X2170Y692D01*
X2169Y698D01*
X2166Y703D01*
X2166Y703D01*
X2157Y711D01*
Y732D01*
X2152D01*
Y743D01*
X2044D01*
Y738D01*
X1918D01*
Y663D01*
X1941D01*
Y661D01*
X1943Y655D01*
X1948Y651D01*
X1954Y648D01*
X1960D01*
X1966Y651D01*
X1970Y655D01*
X1973Y661D01*
Y663D01*
X2044D01*
Y658D01*
X2046D01*
X2046Y659D01*
X2046Y658D01*
X2098D01*
Y651D01*
X2106D01*
Y625D01*
X2126D01*
X2129Y620D01*
X2128Y618D01*
X2073D01*
Y543D01*
X2208D01*
Y568D01*
X2211Y570D01*
X2216Y576D01*
X2216Y576D01*
X2220Y581D01*
X2221Y586D01*
X2221Y586D01*
Y644D01*
X2226Y645D01*
X2227Y641D01*
X2232Y637D01*
X2233Y636D01*
Y620D01*
X2351D01*
X2351Y620D01*
X2356Y618D01*
X2358Y617D01*
X2364Y616D01*
X2394D01*
Y603D01*
X2394Y603D01*
X2394D01*
X2394Y598D01*
X2394Y598D01*
X2392Y595D01*
X2341D01*
Y558D01*
X2300D01*
Y502D01*
X2294Y500D01*
X2290Y495D01*
X2287Y489D01*
Y483D01*
X2290Y477D01*
X2294Y472D01*
X2300Y470D01*
X2301D01*
Y464D01*
X2300D01*
X2294Y462D01*
X2290Y458D01*
X2287Y452D01*
Y445D01*
X2290Y439D01*
X2294Y435D01*
X2299Y433D01*
Y425D01*
X2294Y423D01*
X2290Y419D01*
X2287Y413D01*
Y406D01*
X2290Y400D01*
X2294Y396D01*
X2295Y396D01*
Y386D01*
X2289Y384D01*
X2285Y380D01*
X2282Y374D01*
Y367D01*
X2285Y361D01*
X2289Y357D01*
X2295Y355D01*
Y341D01*
X2289Y339D01*
X2285Y335D01*
X2282Y329D01*
Y322D01*
X2285Y316D01*
X2289Y312D01*
X2295Y310D01*
Y300D01*
X2248D01*
X2244Y301D01*
X2238D01*
X2232Y299D01*
X2227Y295D01*
X2225Y289D01*
Y282D01*
X2227Y276D01*
X2232Y272D01*
X2238Y269D01*
X2244D01*
X2248Y271D01*
X2301D01*
Y263D01*
X2300D01*
X2294Y261D01*
X2290Y257D01*
X2287Y251D01*
Y244D01*
X2290Y238D01*
X2294Y234D01*
X2300Y231D01*
X2301D01*
Y225D01*
X2300D01*
X2294Y223D01*
X2290Y219D01*
X2287Y213D01*
Y206D01*
X2290Y200D01*
X2294Y196D01*
X2300Y194D01*
Y137D01*
X2341D01*
Y124D01*
X2333Y121D01*
X2323Y116D01*
X2314Y107D01*
X2309Y97D01*
X2305Y86D01*
Y74D01*
X2309Y63D01*
X2314Y53D01*
X2323Y44D01*
X2333Y39D01*
X2344Y35D01*
X2356D01*
X2367Y39D01*
X2377Y44D01*
X2386Y53D01*
X2391Y63D01*
X2395Y74D01*
Y86D01*
X2392Y94D01*
X2396Y99D01*
X2404D01*
X2408Y94D01*
X2405Y86D01*
Y74D01*
X2409Y63D01*
X2414Y53D01*
X2423Y44D01*
X2433Y39D01*
X2444Y35D01*
X2456D01*
X2467Y39D01*
X2477Y44D01*
X2486Y53D01*
X2491Y63D01*
X2495Y74D01*
Y86D01*
X2491Y97D01*
X2486Y107D01*
X2482Y111D01*
X2484Y115D01*
X2515D01*
X2516Y114D01*
X2518Y111D01*
X2514Y107D01*
X2509Y97D01*
X2505Y86D01*
Y74D01*
X2509Y63D01*
X2514Y53D01*
X2523Y44D01*
X2533Y39D01*
X2544Y35D01*
X2556D01*
X2567Y39D01*
X2577Y44D01*
X2586Y53D01*
X2591Y63D01*
X2595Y74D01*
Y86D01*
X2591Y97D01*
X2586Y107D01*
X2577Y116D01*
X2567Y121D01*
X2556Y125D01*
X2544D01*
X2535Y122D01*
X2533Y127D01*
X2550Y143D01*
X2550Y143D01*
X2550Y145D01*
X2555Y145D01*
X2556Y145D01*
X2557Y143D01*
X2581Y119D01*
X2581Y119D01*
X2586Y116D01*
X2591Y115D01*
X2616D01*
X2618Y111D01*
X2614Y107D01*
X2609Y97D01*
X2605Y86D01*
Y74D01*
X2609Y63D01*
X2614Y53D01*
X2623Y44D01*
X2633Y39D01*
X2644Y35D01*
X2656D01*
X2667Y39D01*
X2677Y44D01*
X2686Y53D01*
X2691Y63D01*
X2695Y74D01*
Y86D01*
X2692Y94D01*
X2696Y99D01*
X2704D01*
X2708Y94D01*
X2705Y86D01*
Y74D01*
X2709Y63D01*
X2714Y53D01*
X2723Y44D01*
X2733Y39D01*
X2744Y35D01*
X2756D01*
X2767Y39D01*
X2777Y44D01*
X2786Y53D01*
X2791Y63D01*
X2795Y74D01*
Y86D01*
X2791Y97D01*
X2786Y107D01*
X2777Y116D01*
X2767Y121D01*
X2766Y122D01*
Y137D01*
X2807D01*
Y185D01*
X2807Y185D01*
X2810Y187D01*
X2810Y188D01*
X2810Y188D01*
X2812Y191D01*
X2814Y194D01*
X2815Y194D01*
X2815Y194D01*
X2815Y198D01*
X2815Y199D01*
X2817Y200D01*
X2819Y206D01*
Y213D01*
X2817Y219D01*
X2815Y220D01*
X2815Y221D01*
X2815Y224D01*
X2815Y225D01*
X2814Y225D01*
X2812Y228D01*
X2812Y228D01*
X2812Y229D01*
X2814Y232D01*
X2815Y232D01*
X2815Y232D01*
X2815Y236D01*
X2815Y237D01*
X2817Y238D01*
X2819Y244D01*
Y251D01*
X2817Y257D01*
X2815Y258D01*
X2815Y259D01*
X2815Y262D01*
X2815Y263D01*
X2814Y263D01*
X2812Y266D01*
X2812Y266D01*
X2812Y267D01*
X2814Y270D01*
X2815Y270D01*
X2815Y270D01*
X2815Y274D01*
X2815Y275D01*
X2817Y276D01*
X2819Y282D01*
Y289D01*
X2817Y295D01*
X2815Y296D01*
X2815Y297D01*
X2815Y300D01*
X2815Y301D01*
X2814Y301D01*
X2812Y304D01*
X2810Y307D01*
X2810Y307D01*
X2810Y308D01*
X2807Y310D01*
Y316D01*
X2717D01*
Y325D01*
X2718Y325D01*
X2721Y327D01*
X2721Y327D01*
X2721Y328D01*
X2723Y331D01*
X2725Y334D01*
X2725Y334D01*
X2726Y334D01*
X2726Y338D01*
X2727Y338D01*
X2729Y341D01*
X2731Y346D01*
Y353D01*
X2729Y359D01*
X2727Y360D01*
X2727Y360D01*
X2727Y364D01*
X2727Y364D01*
X2727Y365D01*
X2725Y368D01*
X2723Y371D01*
X2723Y371D01*
X2722Y371D01*
X2719Y374D01*
X2718Y375D01*
X2719Y380D01*
X2748D01*
X2749Y378D01*
X2751Y375D01*
X2751Y375D01*
X2751Y375D01*
X2755Y373D01*
X2758Y370D01*
X2758Y370D01*
X2758Y370D01*
X2762Y370D01*
X2763Y370D01*
X2764Y368D01*
X2770Y365D01*
X2776D01*
X2782Y368D01*
X2784Y370D01*
X2785Y370D01*
X2788Y370D01*
X2788Y370D01*
X2789Y370D01*
X2792Y373D01*
X2795Y375D01*
X2795Y375D01*
X2795Y375D01*
X2797Y378D01*
X2799Y380D01*
X2806D01*
Y396D01*
X2824D01*
X2824Y396D01*
X2826Y392D01*
X2826Y392D01*
X2827Y392D01*
X2830Y390D01*
X2833Y388D01*
X2833Y387D01*
X2833Y387D01*
X2837Y387D01*
X2838Y386D01*
X2839Y386D01*
X2842Y384D01*
X2842Y384D01*
X2842Y383D01*
X2846Y383D01*
X2849Y382D01*
X2850Y382D01*
X2850Y382D01*
X2854Y382D01*
X2857Y383D01*
X2857Y383D01*
X2858Y383D01*
X2861Y385D01*
X2864Y387D01*
X2864Y387D01*
X2864Y387D01*
X2867Y391D01*
X2869Y393D01*
X2869Y394D01*
X2869Y394D01*
X2870Y398D01*
X2870Y398D01*
X2872Y400D01*
X2874Y406D01*
Y413D01*
X2872Y419D01*
X2871Y420D01*
X2871Y420D01*
X2870Y424D01*
X2870Y424D01*
X2870Y424D01*
X2868Y428D01*
X2866Y431D01*
X2866Y431D01*
X2866Y431D01*
X2863Y433D01*
X2860Y436D01*
X2860Y436D01*
X2860Y436D01*
X2856Y437D01*
X2852Y438D01*
X2852Y438D01*
X2852Y438D01*
X2848Y437D01*
X2845Y437D01*
X2844Y437D01*
X2844Y437D01*
X2841Y435D01*
X2839Y434D01*
X2838Y434D01*
X2835Y433D01*
X2834Y433D01*
X2833Y433D01*
X2831Y431D01*
X2828Y429D01*
X2828Y428D01*
X2827Y428D01*
X2825Y425D01*
X2825Y424D01*
X2812D01*
X2809Y429D01*
X2809Y430D01*
X2811Y433D01*
X2812Y433D01*
X2812Y434D01*
X2812Y437D01*
X2812Y438D01*
X2814Y439D01*
X2816Y445D01*
Y452D01*
X2814Y458D01*
X2812Y459D01*
X2812Y460D01*
X2812Y463D01*
X2812Y463D01*
X2811Y464D01*
X2810Y466D01*
X2810Y467D01*
X2813Y470D01*
X2813Y471D01*
X2813Y471D01*
X2813Y475D01*
X2814Y475D01*
X2815Y477D01*
X2818Y483D01*
Y489D01*
X2815Y495D01*
X2814Y497D01*
X2813Y497D01*
X2813Y501D01*
X2813Y501D01*
X2813Y502D01*
X2810Y505D01*
X2809Y508D01*
X2808Y508D01*
X2808Y508D01*
X2807Y509D01*
Y541D01*
X2810Y542D01*
X2811Y544D01*
X2812Y544D01*
X2815Y544D01*
X2816Y544D01*
X2816Y544D01*
X2819Y546D01*
X2822Y548D01*
X2824D01*
X2827Y546D01*
X2830Y544D01*
X2830Y544D01*
X2831Y544D01*
X2834Y544D01*
X2835Y544D01*
X2836Y542D01*
X2842Y539D01*
X2849D01*
X2855Y542D01*
X2856Y544D01*
X2857Y544D01*
X2860Y544D01*
X2861Y544D01*
X2861Y544D01*
X2864Y546D01*
X2867Y548D01*
X2867Y549D01*
X2868Y549D01*
X2868Y550D01*
X2878D01*
Y596D01*
X2879Y599D01*
X2881Y602D01*
X2882Y603D01*
X2882Y603D01*
X2882Y606D01*
X2882Y607D01*
X2884Y609D01*
X2885Y611D01*
X2890Y611D01*
X2890Y611D01*
X2891Y606D01*
X2894Y601D01*
X2900Y595D01*
X2900Y595D01*
X2903Y593D01*
Y568D01*
X3038D01*
Y643D01*
X3042Y644D01*
X3058D01*
Y638D01*
X3180D01*
Y120D01*
X3175Y117D01*
X3167Y121D01*
X3156Y125D01*
X3154D01*
X3149Y125D01*
X3149Y130D01*
Y210D01*
X3040D01*
Y129D01*
X3040Y125D01*
X3036Y122D01*
X3033Y121D01*
X3023Y116D01*
X3014Y107D01*
X3009Y97D01*
X3005Y86D01*
Y74D01*
X3009Y63D01*
X3014Y53D01*
X3023Y44D01*
X3033Y39D01*
X3044Y35D01*
X3056D01*
X3067Y39D01*
X3077Y44D01*
X3086Y53D01*
X3091Y63D01*
X3095Y74D01*
Y86D01*
X3091Y97D01*
X3086Y107D01*
X3077Y116D01*
X3069Y120D01*
X3071Y125D01*
X3129D01*
X3131Y120D01*
X3123Y116D01*
X3114Y107D01*
X3109Y97D01*
X3105Y86D01*
Y74D01*
X3109Y63D01*
X3114Y53D01*
X3123Y44D01*
X3133Y39D01*
X3144Y35D01*
X3156D01*
X3167Y39D01*
X3175Y43D01*
X3180Y40D01*
Y20D01*
X20D01*
Y35D01*
X95D01*
Y109D01*
X95Y109D01*
X110D01*
X112Y104D01*
X109Y97D01*
X105Y86D01*
Y74D01*
X109Y63D01*
X114Y53D01*
X123Y44D01*
X133Y39D01*
X144Y35D01*
X156D01*
X167Y39D01*
X177Y44D01*
X186Y53D01*
X191Y63D01*
X195Y74D01*
Y86D01*
X191Y97D01*
X188Y104D01*
X190Y109D01*
X210D01*
X212Y104D01*
X209Y97D01*
X205Y86D01*
Y74D01*
X209Y63D01*
X214Y53D01*
X223Y44D01*
X233Y39D01*
X244Y35D01*
X256D01*
X267Y39D01*
X277Y44D01*
X286Y53D01*
X291Y63D01*
X295Y74D01*
Y86D01*
X291Y97D01*
X288Y104D01*
X290Y109D01*
X310D01*
X312Y104D01*
X309Y97D01*
X305Y86D01*
Y74D01*
X309Y63D01*
X314Y53D01*
X323Y44D01*
X333Y39D01*
X344Y35D01*
X356D01*
X367Y39D01*
X377Y44D01*
X386Y53D01*
X391Y63D01*
X395Y74D01*
Y86D01*
X391Y97D01*
X388Y104D01*
X390Y109D01*
X403D01*
X406Y108D01*
X409Y107D01*
X411Y102D01*
X409Y97D01*
X405Y86D01*
Y74D01*
X409Y63D01*
X414Y53D01*
X423Y44D01*
X433Y39D01*
X444Y35D01*
X456D01*
X467Y39D01*
X477Y44D01*
X486Y53D01*
X491Y63D01*
X495Y74D01*
Y86D01*
X491Y97D01*
X486Y107D01*
X477Y116D01*
X467Y121D01*
X456Y125D01*
X444D01*
X441Y124D01*
X437Y127D01*
X437Y129D01*
X436Y138D01*
X431Y145D01*
X427Y148D01*
X420Y153D01*
X411Y155D01*
X362D01*
X358Y156D01*
X358Y160D01*
Y188D01*
X391D01*
Y168D01*
X479D01*
X496Y151D01*
X496Y151D01*
X501Y148D01*
X506Y147D01*
X506Y147D01*
X635D01*
X635Y147D01*
X641Y148D01*
X645Y151D01*
X697Y202D01*
X697Y202D01*
X700Y207D01*
X701Y212D01*
X701Y212D01*
Y533D01*
X748Y580D01*
X757D01*
Y563D01*
Y508D01*
X755Y507D01*
X750Y504D01*
X750Y504D01*
X725Y479D01*
X722Y475D01*
X721Y469D01*
X721Y469D01*
Y222D01*
X719Y218D01*
Y212D01*
X721Y206D01*
X726Y201D01*
X732Y199D01*
X738D01*
X744Y201D01*
X749Y206D01*
X751Y212D01*
Y218D01*
X749Y222D01*
Y225D01*
X751Y229D01*
X779D01*
X780Y227D01*
X796Y211D01*
X796Y211D01*
X800Y208D01*
X806Y207D01*
X806Y207D01*
X807D01*
X809Y205D01*
X815Y202D01*
X821D01*
X827Y205D01*
X832Y209D01*
X834Y215D01*
Y222D01*
X833Y224D01*
X836Y229D01*
X878D01*
Y224D01*
X878Y224D01*
X932D01*
Y217D01*
X939D01*
Y191D01*
X958D01*
X960Y186D01*
X960Y184D01*
X906D01*
Y109D01*
X909D01*
X912Y104D01*
X909Y97D01*
X905Y86D01*
Y74D01*
X909Y63D01*
X914Y53D01*
X923Y44D01*
X933Y39D01*
X944Y35D01*
X956D01*
X967Y39D01*
X977Y44D01*
X986Y53D01*
X991Y63D01*
X995Y74D01*
Y86D01*
X991Y97D01*
X988Y104D01*
X991Y109D01*
X1009D01*
X1012Y104D01*
X1009Y97D01*
X1005Y86D01*
Y74D01*
X1009Y63D01*
X1014Y53D01*
X1023Y44D01*
X1033Y39D01*
X1044Y35D01*
X1056D01*
X1067Y39D01*
X1077Y44D01*
X1086Y53D01*
X1091Y63D01*
X1095Y74D01*
Y86D01*
X1091Y97D01*
X1086Y107D01*
X1077Y116D01*
X1067Y121D01*
X1056Y125D01*
X1044D01*
X1041Y127D01*
Y135D01*
X1044Y136D01*
X1050Y142D01*
X1050Y142D01*
X1053Y147D01*
X1054Y152D01*
X1054Y152D01*
Y210D01*
X1059Y211D01*
X1060Y207D01*
X1065Y203D01*
X1067Y202D01*
Y186D01*
X1163D01*
X1166Y181D01*
X1175Y172D01*
X1175Y172D01*
X1180Y169D01*
X1185Y168D01*
X1230D01*
Y155D01*
X1328D01*
Y168D01*
X1345D01*
X1345Y168D01*
X1350Y169D01*
X1355Y172D01*
X1389Y206D01*
X1423Y172D01*
X1423Y172D01*
X1428Y169D01*
X1433Y168D01*
X1433Y168D01*
X1452D01*
Y155D01*
X1550D01*
Y168D01*
X1575D01*
X1575Y168D01*
X1580Y169D01*
X1585Y172D01*
X1592Y179D01*
X1596Y177D01*
Y151D01*
Y116D01*
X1614D01*
X1615Y112D01*
X1617Y110D01*
X1614Y107D01*
X1609Y97D01*
X1605Y86D01*
Y74D01*
X1609Y63D01*
X1614Y53D01*
X1623Y44D01*
X1633Y39D01*
X1644Y35D01*
X1656D01*
X1667Y39D01*
X1677Y44D01*
X1686Y53D01*
X1691Y63D01*
X1695Y74D01*
Y86D01*
X1691Y97D01*
X1686Y107D01*
X1684Y109D01*
X1687Y112D01*
X1689Y116D01*
X1706D01*
Y168D01*
X1706D01*
X1712Y170D01*
X1717Y175D01*
X1719Y179D01*
X1724Y178D01*
X1725Y175D01*
X1728Y171D01*
X1734Y165D01*
X1734Y165D01*
X1736Y163D01*
Y137D01*
X1871D01*
Y210D01*
X1891D01*
Y204D01*
X2026D01*
Y279D01*
X2003D01*
Y280D01*
X2001Y286D01*
X1996Y290D01*
X1990Y293D01*
X1984D01*
X1978Y290D01*
X1974Y286D01*
X1971Y280D01*
Y279D01*
X1900D01*
Y284D01*
X1846D01*
X1792D01*
Y272D01*
X1787D01*
Y212D01*
X1752D01*
Y280D01*
X1752Y280D01*
X1751Y285D01*
X1748Y290D01*
X1736Y301D01*
X1732Y304D01*
X1726Y306D01*
X1726Y306D01*
X1711D01*
Y327D01*
X1722D01*
X1722Y327D01*
X1728Y328D01*
X1733Y331D01*
X1748Y346D01*
X1748Y346D01*
X1751Y351D01*
X1752Y357D01*
X1752Y357D01*
Y424D01*
X1771D01*
X1775Y420D01*
X1774Y419D01*
X1774Y419D01*
Y350D01*
X1774Y350D01*
X1775Y344D01*
X1779Y339D01*
X1787Y331D01*
Y310D01*
X1792D01*
Y299D01*
X1846D01*
X1900D01*
Y304D01*
X2026D01*
Y379D01*
X2003D01*
Y381D01*
X2001Y387D01*
X1996Y391D01*
X1990Y394D01*
X1984D01*
X1978Y391D01*
X1974Y387D01*
X1971Y381D01*
Y379D01*
X1900D01*
Y384D01*
X1846D01*
Y391D01*
X1838D01*
Y417D01*
X1818D01*
X1815Y422D01*
X1816Y424D01*
X1871D01*
Y499D01*
X1763D01*
Y583D01*
X1842Y662D01*
X1842Y662D01*
X1845Y667D01*
X1846Y673D01*
X1846Y673D01*
Y823D01*
X1845Y828D01*
X1842Y833D01*
X1842Y833D01*
X1765Y910D01*
X1764Y914D01*
X1762Y916D01*
X1764Y921D01*
X1883D01*
X1893Y911D01*
X1893Y911D01*
X1898Y908D01*
X1903Y907D01*
X1942D01*
X1947Y904D01*
X1953D01*
X1959Y907D01*
X1964Y911D01*
X1966Y917D01*
Y924D01*
X1964Y930D01*
X1961Y932D01*
X1963Y937D01*
X1967Y939D01*
X1977Y944D01*
X1986Y953D01*
X1991Y963D01*
X1995Y974D01*
Y986D01*
X1991Y997D01*
X1986Y1007D01*
X1977Y1016D01*
X1967Y1021D01*
X1956Y1025D01*
X1944D01*
X1933Y1021D01*
X1923Y1016D01*
X1914Y1007D01*
X1909Y997D01*
X1905Y986D01*
Y974D01*
X1909Y963D01*
X1914Y953D01*
X1923Y944D01*
X1930Y940D01*
X1929Y935D01*
X1909D01*
X1899Y945D01*
X1895Y948D01*
X1889Y949D01*
X1889Y949D01*
X1889D01*
X1887Y954D01*
X1891Y963D01*
X1895Y974D01*
Y986D01*
X1891Y997D01*
X1886Y1007D01*
X1877Y1016D01*
X1867Y1021D01*
X1856Y1025D01*
X1844D01*
X1833Y1021D01*
X1823Y1016D01*
X1814Y1007D01*
X1809Y997D01*
X1805Y986D01*
Y974D01*
X1809Y963D01*
X1813Y954D01*
X1811Y949D01*
X1789D01*
X1787Y954D01*
X1791Y963D01*
X1795Y974D01*
Y986D01*
X1791Y997D01*
X1786Y1007D01*
X1777Y1016D01*
X1767Y1021D01*
X1756Y1025D01*
X1744D01*
X1733Y1021D01*
X1723Y1016D01*
X1714Y1007D01*
X1709Y997D01*
X1705Y986D01*
Y974D01*
X1709Y963D01*
X1713Y954D01*
X1711Y949D01*
X1689D01*
X1687Y954D01*
X1691Y963D01*
X1695Y974D01*
Y986D01*
X1691Y997D01*
X1686Y1007D01*
X1677Y1016D01*
X1667Y1021D01*
X1656Y1025D01*
X1644D01*
X1633Y1021D01*
X1623Y1016D01*
X1614Y1007D01*
X1609Y997D01*
X1605Y986D01*
Y974D01*
X1609Y963D01*
X1613Y954D01*
X1611Y949D01*
X1589D01*
X1587Y954D01*
X1591Y963D01*
X1595Y974D01*
Y986D01*
X1591Y997D01*
X1586Y1007D01*
X1577Y1016D01*
X1567Y1021D01*
X1556Y1025D01*
X1544D01*
X1533Y1021D01*
X1523Y1016D01*
X1514Y1007D01*
X1509Y997D01*
X1505Y986D01*
Y974D01*
X1509Y963D01*
X1513Y954D01*
X1511Y949D01*
X1489D01*
X1487Y954D01*
X1491Y963D01*
X1495Y974D01*
Y986D01*
X1491Y997D01*
X1486Y1007D01*
X1477Y1016D01*
X1467Y1021D01*
X1456Y1025D01*
X1444D01*
X1433Y1021D01*
X1423Y1016D01*
X1414Y1007D01*
X1409Y997D01*
X1405Y986D01*
Y974D01*
X1409Y963D01*
X1414Y954D01*
X1412Y950D01*
X1411Y949D01*
X1409Y948D01*
X1404Y945D01*
X1404Y945D01*
X1374Y915D01*
X1371Y910D01*
X1371Y910D01*
X1366Y907D01*
X1360Y908D01*
X1360Y908D01*
X1340D01*
X1336Y910D01*
X1330D01*
X1326Y908D01*
X1319D01*
Y925D01*
X1219D01*
Y906D01*
X1218Y905D01*
X1137D01*
Y857D01*
X1137Y857D01*
X1134Y855D01*
X1134Y854D01*
X1134Y854D01*
X1132Y851D01*
X1130Y848D01*
X1130Y848D01*
X1129Y848D01*
X1129Y844D01*
X1129Y843D01*
X1127Y842D01*
X1125Y836D01*
Y829D01*
X1127Y823D01*
X1129Y822D01*
X1129Y821D01*
X1129Y818D01*
X1130Y817D01*
X1130Y817D01*
X1132Y814D01*
X1132Y814D01*
X1132Y813D01*
X1130Y810D01*
X1130Y810D01*
X1129Y809D01*
X1129Y806D01*
X1129Y805D01*
X1127Y804D01*
X1125Y798D01*
Y791D01*
X1127Y785D01*
X1129Y784D01*
X1129Y783D01*
X1129Y780D01*
X1130Y779D01*
X1130Y779D01*
X1132Y776D01*
X1132Y776D01*
X1132Y775D01*
X1130Y772D01*
X1130Y772D01*
X1129Y772D01*
X1129Y768D01*
X1129Y767D01*
X1127Y766D01*
X1125Y760D01*
Y753D01*
X1127Y747D01*
X1129Y746D01*
X1129Y745D01*
X1129Y742D01*
X1130Y741D01*
X1130Y741D01*
X1132Y738D01*
X1134Y735D01*
X1134Y735D01*
X1134Y734D01*
X1137Y732D01*
Y726D01*
X1227D01*
Y714D01*
X1227Y714D01*
X1227Y713D01*
X1226Y713D01*
X1225Y710D01*
X1223Y707D01*
X1223Y707D01*
X1222Y706D01*
X1222Y703D01*
X1222Y702D01*
X1220Y701D01*
X1218Y695D01*
Y688D01*
X1220Y682D01*
X1222Y681D01*
X1222Y680D01*
X1222Y677D01*
X1223Y677D01*
X1223Y676D01*
X1225Y673D01*
X1226Y670D01*
X1227Y670D01*
X1227Y669D01*
X1227Y669D01*
Y662D01*
X1196D01*
X1195Y664D01*
X1193Y667D01*
X1193Y667D01*
X1193Y667D01*
X1189Y669D01*
X1186Y672D01*
X1186Y672D01*
X1186Y672D01*
X1182Y672D01*
X1182Y672D01*
X1180Y674D01*
X1174Y677D01*
X1168D01*
X1162Y674D01*
X1160Y672D01*
X1160Y672D01*
X1156Y672D01*
X1156Y672D01*
X1155Y672D01*
X1152Y669D01*
X1149Y667D01*
X1149Y667D01*
X1149Y667D01*
X1147Y664D01*
X1146Y662D01*
X1138D01*
Y646D01*
X1120D01*
X1120Y646D01*
X1118Y650D01*
X1118Y650D01*
X1118Y650D01*
X1114Y652D01*
X1111Y654D01*
X1111Y655D01*
X1111Y655D01*
X1107Y655D01*
X1106Y656D01*
X1105Y656D01*
X1102Y658D01*
X1102Y658D01*
X1102Y659D01*
X1098Y659D01*
X1095Y660D01*
X1094Y660D01*
X1094Y660D01*
X1091Y660D01*
X1087Y659D01*
X1087Y659D01*
X1086Y659D01*
X1083Y657D01*
X1080Y655D01*
X1080Y655D01*
X1080Y655D01*
X1078Y651D01*
X1075Y649D01*
X1075Y648D01*
X1075Y648D01*
X1075Y646D01*
X1070Y647D01*
Y894D01*
X1092Y917D01*
X1097Y919D01*
X1101Y923D01*
X1104Y929D01*
Y935D01*
X1101Y941D01*
X1097Y946D01*
X1091Y948D01*
X1088D01*
X1087Y951D01*
X1086Y953D01*
X1091Y963D01*
X1095Y974D01*
Y986D01*
X1091Y997D01*
X1086Y1007D01*
X1077Y1016D01*
X1067Y1021D01*
X1056Y1025D01*
X1044D01*
X1033Y1021D01*
X1023Y1016D01*
X1014Y1007D01*
X1009Y997D01*
X1005Y986D01*
Y974D01*
X1009Y963D01*
X1014Y953D01*
X1023Y944D01*
X1033Y939D01*
X1044Y935D01*
X1056D01*
X1066Y938D01*
X1068Y936D01*
X1069Y934D01*
X1045Y910D01*
X1042Y906D01*
X1041Y900D01*
X1041Y900D01*
Y721D01*
X1019D01*
Y757D01*
X1018Y762D01*
X1015Y767D01*
X1015Y767D01*
X996Y786D01*
Y814D01*
X968D01*
X967Y815D01*
X967Y815D01*
X960Y822D01*
Y866D01*
X860D01*
Y848D01*
X832D01*
X827Y847D01*
X827Y847D01*
X805Y869D01*
X800Y872D01*
X795Y873D01*
X795Y873D01*
X782D01*
Y897D01*
X651D01*
X649Y902D01*
X651Y903D01*
X653Y909D01*
Y915D01*
X651Y921D01*
X646Y926D01*
X640Y928D01*
X637D01*
Y933D01*
X640Y936D01*
X644Y935D01*
X656D01*
X667Y939D01*
X677Y944D01*
X686Y953D01*
X691Y963D01*
X695Y974D01*
Y986D01*
X691Y997D01*
X686Y1007D01*
X677Y1016D01*
X667Y1021D01*
X656Y1025D01*
X644D01*
X633Y1021D01*
X623Y1016D01*
X614Y1007D01*
X609Y997D01*
X605Y986D01*
Y974D01*
X609Y963D01*
X614Y953D01*
X618Y949D01*
X616Y944D01*
X584D01*
X582Y949D01*
X586Y953D01*
X591Y963D01*
X595Y974D01*
Y986D01*
X591Y997D01*
X586Y1007D01*
X577Y1016D01*
X567Y1021D01*
X556Y1025D01*
X544D01*
X533Y1021D01*
X523Y1016D01*
X514Y1007D01*
X509Y997D01*
X505Y986D01*
Y974D01*
X509Y963D01*
X513Y955D01*
X511Y950D01*
X489D01*
X487Y955D01*
X491Y963D01*
X495Y974D01*
Y986D01*
X491Y997D01*
X486Y1007D01*
X477Y1016D01*
X467Y1021D01*
X456Y1025D01*
X444D01*
X433Y1021D01*
X423Y1016D01*
X414Y1007D01*
X409Y997D01*
X405Y986D01*
Y974D01*
X409Y963D01*
X414Y953D01*
X423Y944D01*
X423Y944D01*
Y930D01*
X423D01*
X417Y928D01*
X412Y923D01*
X410Y917D01*
Y911D01*
X412Y905D01*
X417Y900D01*
X423Y898D01*
X423D01*
Y878D01*
X495D01*
Y878D01*
X554D01*
Y882D01*
X637D01*
Y896D01*
X640D01*
X643Y897D01*
X648Y894D01*
Y873D01*
X505D01*
X499Y872D01*
X495Y869D01*
X495Y869D01*
X492Y866D01*
X467D01*
Y841D01*
X459Y833D01*
X456Y829D01*
X455Y823D01*
X455Y823D01*
Y814D01*
X430D01*
Y739D01*
X463D01*
X464Y734D01*
X460Y733D01*
X456Y728D01*
X453Y722D01*
Y716D01*
X455Y712D01*
X451Y709D01*
X447Y710D01*
X441D01*
X435Y708D01*
X431Y703D01*
X428Y697D01*
Y693D01*
X413D01*
Y627D01*
Y594D01*
X430D01*
Y572D01*
X430Y572D01*
X431Y566D01*
X434Y562D01*
X459Y537D01*
X459Y537D01*
X461Y535D01*
X465Y531D01*
Y467D01*
X544D01*
X565Y447D01*
Y224D01*
X563Y220D01*
Y214D01*
X565Y208D01*
X570Y203D01*
X576Y201D01*
X582D01*
X588Y203D01*
X593Y208D01*
X595Y214D01*
Y220D01*
X593Y224D01*
Y453D01*
X593Y453D01*
X592Y458D01*
X592Y458D01*
X595Y463D01*
X671D01*
X672Y458D01*
Y218D01*
X629Y176D01*
X512D01*
X499Y188D01*
Y253D01*
X391D01*
Y234D01*
X358D01*
Y265D01*
X272D01*
Y160D01*
X272Y156D01*
X268Y155D01*
X252D01*
X248Y156D01*
Y265D01*
X162D01*
Y234D01*
X134D01*
Y253D01*
X26D01*
Y168D01*
X57D01*
Y147D01*
X59Y138D01*
X64Y130D01*
X65Y129D01*
X63Y125D01*
X20D01*
Y477D01*
X25Y480D01*
X26Y479D01*
X35Y477D01*
X36D01*
Y466D01*
X120D01*
Y504D01*
Y541D01*
Y609D01*
X36D01*
Y560D01*
X35D01*
X27Y559D01*
X25Y557D01*
X20Y560D01*
Y732D01*
X22Y737D01*
X25Y737D01*
X47D01*
Y729D01*
X49Y720D01*
X54Y713D01*
X61Y708D01*
X70Y706D01*
X79Y708D01*
X82Y710D01*
X88Y708D01*
X89Y702D01*
X94Y695D01*
X101Y690D01*
X110Y688D01*
X112D01*
Y657D01*
X197D01*
Y766D01*
X119D01*
Y793D01*
X120Y797D01*
X283D01*
Y779D01*
X292D01*
X294Y771D01*
X295Y770D01*
X292Y766D01*
X222D01*
Y657D01*
X308D01*
Y688D01*
X310D01*
X319Y690D01*
X326Y695D01*
X331Y702D01*
X333Y711D01*
X331Y720D01*
X326Y727D01*
X319Y732D01*
X310Y734D01*
X308D01*
Y755D01*
X312Y758D01*
X315Y757D01*
X324Y759D01*
X331Y764D01*
X335Y770D01*
X340Y769D01*
Y747D01*
X356D01*
Y747D01*
X358Y738D01*
X363Y730D01*
X370Y725D01*
X379Y724D01*
X388Y725D01*
X395Y730D01*
X400Y738D01*
X402Y747D01*
Y747D01*
X418D01*
Y806D01*
Y886D01*
X402D01*
Y897D01*
X400Y905D01*
X395Y913D01*
X388Y918D01*
X379Y920D01*
X370Y918D01*
X363Y913D01*
X358Y905D01*
X356Y897D01*
Y886D01*
X343D01*
X340Y886D01*
X338Y889D01*
X336Y895D01*
X331Y903D01*
X324Y908D01*
X315Y910D01*
X306Y908D01*
X299Y903D01*
X299Y902D01*
X295Y897D01*
X290Y897D01*
X290Y897D01*
X290Y897D01*
X120D01*
Y896D01*
X119Y891D01*
X93D01*
Y902D01*
X93Y902D01*
X91Y911D01*
X86Y919D01*
X79Y924D01*
X70Y925D01*
X61Y924D01*
X54Y919D01*
X54Y919D01*
X49Y911D01*
X47Y902D01*
Y891D01*
X22Y891D01*
X20Y896D01*
Y935D01*
X95D01*
Y1025D01*
X20D01*
Y1040D01*
X3180D01*
Y1020D01*
D02*
G37*
G36*
X1642Y919D02*
X1643Y918D01*
X1643Y917D01*
X1644Y917D01*
X1645Y917D01*
X1646Y916D01*
X1647Y916D01*
X1648Y916D01*
X1649Y916D01*
X1649Y916D01*
X1639Y905D01*
X1639Y906D01*
X1639Y907D01*
X1639Y908D01*
X1639Y909D01*
X1638Y910D01*
X1638Y911D01*
X1637Y911D01*
X1637Y912D01*
X1636Y913D01*
X1635Y914D01*
X1641Y919D01*
X1642Y919D01*
D02*
G37*
G36*
X2278Y912D02*
X2277Y911D01*
X2277Y911D01*
X2276Y910D01*
X2276Y909D01*
X2276Y908D01*
X2276Y907D01*
X2276Y906D01*
X2275Y905D01*
X2275Y904D01*
X2265D01*
X2265Y905D01*
X2265Y907D01*
X2265Y908D01*
X2265Y909D01*
X2264Y910D01*
X2264Y911D01*
X2264Y911D01*
X2263Y912D01*
X2263Y913D01*
X2278D01*
X2278Y912D01*
D02*
G37*
G36*
X2323Y912D02*
X2323Y912D01*
X2322Y911D01*
X2322Y911D01*
X2322Y910D01*
X2321Y909D01*
X2321Y908D01*
X2321Y907D01*
X2321Y906D01*
X2321Y905D01*
X2321Y904D01*
X2311Y904D01*
X2311Y905D01*
X2310Y907D01*
X2310Y908D01*
X2310Y909D01*
X2310Y910D01*
X2309Y911D01*
X2309Y912D01*
X2309Y912D01*
X2308Y913D01*
X2323Y912D01*
D02*
G37*
G36*
X2249Y865D02*
X2250Y865D01*
X2251Y864D01*
X2252Y864D01*
X2253Y863D01*
X2254Y863D01*
X2255Y863D01*
X2256Y863D01*
X2257Y862D01*
X2258Y862D01*
Y854D01*
X2257Y854D01*
X2256Y854D01*
X2255Y854D01*
X2254Y854D01*
X2253Y853D01*
X2252Y853D01*
X2251Y853D01*
X2250Y852D01*
X2249Y851D01*
X2249Y851D01*
Y866D01*
X2249Y865D01*
D02*
G37*
G36*
X1444Y849D02*
X1445Y848D01*
X1446Y847D01*
X1447Y847D01*
X1448Y846D01*
X1448Y846D01*
X1449Y846D01*
X1450Y846D01*
X1451Y846D01*
X1452Y846D01*
Y838D01*
X1451Y838D01*
X1450Y837D01*
X1449Y837D01*
X1448Y837D01*
X1448Y837D01*
X1447Y836D01*
X1446Y836D01*
X1445Y835D01*
X1444Y835D01*
X1443Y834D01*
Y849D01*
X1444Y849D01*
D02*
G37*
G36*
X1338Y834D02*
X1337Y835D01*
X1336Y835D01*
X1335Y836D01*
X1335Y836D01*
X1334Y837D01*
X1333Y837D01*
X1332Y837D01*
X1331Y837D01*
X1330Y838D01*
X1329Y838D01*
Y846D01*
X1330Y846D01*
X1331Y846D01*
X1332Y846D01*
X1333Y846D01*
X1334Y846D01*
X1335Y847D01*
X1335Y847D01*
X1336Y848D01*
X1337Y849D01*
X1338Y849D01*
Y834D01*
D02*
G37*
G36*
X1633Y825D02*
X1632Y826D01*
X1631Y826D01*
X1630Y827D01*
X1630Y827D01*
X1629Y828D01*
X1628Y828D01*
X1627Y828D01*
X1626Y828D01*
X1625Y828D01*
X1624Y829D01*
Y837D01*
X1625Y837D01*
X1626Y837D01*
X1627Y837D01*
X1628Y837D01*
X1629Y837D01*
X1630Y838D01*
X1630Y838D01*
X1631Y839D01*
X1632Y840D01*
X1633Y840D01*
Y825D01*
D02*
G37*
G36*
X1149Y840D02*
X1150Y839D01*
X1151Y838D01*
X1152Y838D01*
X1153Y837D01*
X1153Y837D01*
X1154Y837D01*
X1155Y837D01*
X1156Y837D01*
X1157Y837D01*
Y829D01*
X1156Y828D01*
X1155Y828D01*
X1154Y828D01*
X1153Y828D01*
X1153Y828D01*
X1152Y827D01*
X1151Y827D01*
X1150Y826D01*
X1149Y826D01*
X1148Y825D01*
Y840D01*
X1149Y840D01*
D02*
G37*
G36*
X2863Y818D02*
X2862Y818D01*
X2861Y819D01*
X2861Y819D01*
X2860Y819D01*
X2859Y820D01*
X2858Y820D01*
X2857Y820D01*
X2856Y820D01*
X2855Y820D01*
X2854Y820D01*
X2854Y830D01*
X2855Y830D01*
X2857Y831D01*
X2858Y831D01*
X2859Y831D01*
X2860Y831D01*
X2861Y832D01*
X2861Y832D01*
X2862Y833D01*
X2863Y833D01*
X2863Y818D01*
D02*
G37*
G36*
X2747Y817D02*
X2747Y817D01*
X2747Y816D01*
X2746Y815D01*
X2746Y814D01*
X2746Y813D01*
X2746Y812D01*
X2745Y811D01*
X2745Y810D01*
X2745Y809D01*
X2735Y809D01*
X2735Y810D01*
X2735Y812D01*
X2735Y813D01*
X2735Y814D01*
X2734Y815D01*
X2734Y816D01*
X2734Y816D01*
X2733Y817D01*
X2733Y817D01*
X2748Y818D01*
X2747Y817D01*
D02*
G37*
G36*
X1633Y787D02*
X1632Y787D01*
X1632Y788D01*
X1631Y788D01*
X1630Y789D01*
X1629Y789D01*
X1628Y789D01*
X1627Y789D01*
X1626Y789D01*
X1625Y790D01*
X1624Y790D01*
Y800D01*
X1625Y800D01*
X1627Y800D01*
X1628Y800D01*
X1629Y800D01*
X1630Y801D01*
X1631Y801D01*
X1632Y801D01*
X1632Y802D01*
X1633Y802D01*
Y787D01*
D02*
G37*
G36*
X1149Y802D02*
X1150Y801D01*
X1150Y801D01*
X1151Y801D01*
X1152Y800D01*
X1153Y800D01*
X1154Y800D01*
X1155Y800D01*
X1156Y800D01*
X1157Y800D01*
Y790D01*
X1156Y790D01*
X1154Y789D01*
X1153Y789D01*
X1152Y789D01*
X1151Y789D01*
X1150Y788D01*
X1150Y788D01*
X1149Y787D01*
X1148Y787D01*
Y802D01*
X1149Y802D01*
D02*
G37*
G36*
X2399Y791D02*
X2400Y790D01*
X2400Y790D01*
X2401Y789D01*
X2402Y789D01*
X2403Y789D01*
X2404Y789D01*
X2405Y789D01*
X2406Y788D01*
X2407Y788D01*
Y778D01*
X2406Y778D01*
X2404Y778D01*
X2403Y778D01*
X2402Y778D01*
X2401Y777D01*
X2400Y777D01*
X2400Y777D01*
X2399Y776D01*
X2398Y776D01*
Y791D01*
X2399Y791D01*
D02*
G37*
G36*
X2702Y775D02*
X2702Y776D01*
X2701Y776D01*
X2701Y777D01*
X2700Y777D01*
X2699Y777D01*
X2698Y778D01*
X2697Y778D01*
X2696Y778D01*
X2695Y778D01*
X2694Y778D01*
X2694Y788D01*
X2695Y788D01*
X2697Y788D01*
X2698Y789D01*
X2699Y789D01*
X2700Y789D01*
X2701Y789D01*
X2702Y790D01*
X2702Y790D01*
X2703Y791D01*
X2702Y775D01*
D02*
G37*
G36*
X2616Y839D02*
X2618Y839D01*
Y831D01*
X2616Y831D01*
Y823D01*
X2614Y822D01*
X2609Y819D01*
X2609Y819D01*
X2557Y767D01*
X2556Y766D01*
X2550D01*
X2550Y767D01*
X2550Y767D01*
X2497Y819D01*
X2493Y822D01*
X2492Y822D01*
Y830D01*
X2492Y830D01*
X2491Y831D01*
X2490Y831D01*
Y839D01*
X2491Y839D01*
X2492Y839D01*
X2492Y839D01*
Y881D01*
X2616D01*
Y839D01*
D02*
G37*
G36*
X2485Y750D02*
X2484Y751D01*
X2483Y751D01*
X2483Y752D01*
X2482Y752D01*
X2481Y752D01*
X2480Y752D01*
X2479Y753D01*
X2478Y753D01*
X2477Y753D01*
X2476Y753D01*
Y763D01*
X2477Y763D01*
X2479Y763D01*
X2480Y763D01*
X2481Y764D01*
X2482Y764D01*
X2483Y764D01*
X2483Y765D01*
X2484Y765D01*
X2485Y766D01*
Y750D01*
D02*
G37*
G36*
X1695Y749D02*
X1695Y750D01*
X1694Y750D01*
X1693Y751D01*
X1692Y751D01*
X1691Y752D01*
X1690Y752D01*
X1689Y752D01*
X1688Y752D01*
X1687Y752D01*
X1686Y753D01*
Y761D01*
X1687Y761D01*
X1688Y761D01*
X1689Y761D01*
X1690Y761D01*
X1691Y761D01*
X1692Y762D01*
X1693Y762D01*
X1694Y763D01*
X1695Y764D01*
X1695Y764D01*
Y749D01*
D02*
G37*
G36*
X1149Y764D02*
X1150Y763D01*
X1151Y762D01*
X1152Y762D01*
X1153Y761D01*
X1153Y761D01*
X1154Y761D01*
X1155Y761D01*
X1156Y761D01*
X1157Y761D01*
X1157Y753D01*
X1156Y752D01*
X1155Y752D01*
X1154Y752D01*
X1153Y752D01*
X1153Y752D01*
X1152Y751D01*
X1151Y751D01*
X1150Y750D01*
X1149Y750D01*
X1148Y749D01*
X1148Y764D01*
X1149Y764D01*
D02*
G37*
G36*
X667Y737D02*
X667Y738D01*
X666Y738D01*
X665Y739D01*
X664Y739D01*
X663Y740D01*
X662Y740D01*
X661Y740D01*
X660Y740D01*
X659Y740D01*
X658Y741D01*
X658Y749D01*
X659Y749D01*
X660Y749D01*
X661Y749D01*
X662Y749D01*
X663Y749D01*
X664Y750D01*
X665Y750D01*
X665Y751D01*
X666Y752D01*
X667Y752D01*
X667Y737D01*
D02*
G37*
G36*
X2745Y741D02*
X2745Y740D01*
X2745Y739D01*
X2745Y738D01*
X2745Y737D01*
X2746Y737D01*
X2746Y736D01*
X2747Y735D01*
X2747Y734D01*
X2748Y733D01*
X2733D01*
X2733Y734D01*
X2734Y735D01*
X2735Y736D01*
X2735Y737D01*
X2736Y737D01*
X2736Y738D01*
X2736Y739D01*
X2736Y740D01*
X2736Y741D01*
X2736Y742D01*
X2744D01*
X2745Y741D01*
D02*
G37*
G36*
X2398Y738D02*
X2399Y738D01*
X2399Y737D01*
X2400Y737D01*
X2401Y737D01*
X2402Y737D01*
X2403Y736D01*
X2404Y736D01*
X2406Y736D01*
X2407Y726D01*
X2406Y726D01*
X2405Y726D01*
X2404Y726D01*
X2403Y726D01*
X2402Y725D01*
X2402Y725D01*
X2401Y725D01*
X2400Y724D01*
X2400Y724D01*
X2399Y723D01*
X2398Y739D01*
X2398Y738D01*
D02*
G37*
G36*
X949Y711D02*
X949Y712D01*
X948Y712D01*
X947Y713D01*
X947Y713D01*
X946Y713D01*
X945Y714D01*
X944Y714D01*
X943Y714D01*
X942Y714D01*
X941Y714D01*
Y724D01*
X942Y724D01*
X944Y724D01*
X945Y724D01*
X946Y725D01*
X947Y725D01*
X947Y725D01*
X948Y726D01*
X949Y726D01*
X949Y727D01*
Y711D01*
D02*
G37*
G36*
X1562Y724D02*
X1563Y723D01*
X1564Y722D01*
X1565Y722D01*
X1566Y721D01*
X1566Y721D01*
X1567Y721D01*
X1568Y721D01*
X1569Y721D01*
X1570Y721D01*
Y713D01*
X1569Y712D01*
X1568Y712D01*
X1567Y712D01*
X1566Y712D01*
X1566Y712D01*
X1565Y711D01*
X1564Y711D01*
X1563Y710D01*
X1562Y710D01*
X1561Y709D01*
Y724D01*
X1562Y724D01*
D02*
G37*
G36*
X1638Y709D02*
X1637Y709D01*
X1637Y710D01*
X1636Y710D01*
X1635Y711D01*
X1634Y711D01*
X1633Y711D01*
X1632Y711D01*
X1631Y711D01*
X1630Y712D01*
X1629Y712D01*
Y722D01*
X1630Y722D01*
X1632Y722D01*
X1633Y722D01*
X1634Y722D01*
X1635Y723D01*
X1636Y723D01*
X1637Y723D01*
X1637Y724D01*
X1638Y724D01*
Y709D01*
D02*
G37*
G36*
X2484Y699D02*
X2483Y699D01*
X2482Y700D01*
X2482Y700D01*
X2481Y701D01*
X2480Y701D01*
X2479Y701D01*
X2478Y701D01*
X2477Y702D01*
X2476Y702D01*
X2475Y702D01*
Y712D01*
X2476Y712D01*
X2478Y712D01*
X2479Y712D01*
X2480Y712D01*
X2481Y713D01*
X2482Y713D01*
X2482Y713D01*
X2483Y714D01*
X2484Y714D01*
Y699D01*
D02*
G37*
G36*
X2703Y699D02*
X2702Y699D01*
X2701Y700D01*
X2701Y700D01*
X2700Y701D01*
X2699Y701D01*
X2698Y701D01*
X2697Y701D01*
X2696Y702D01*
X2695Y702D01*
X2694Y702D01*
Y712D01*
X2695Y712D01*
X2697Y712D01*
X2698Y712D01*
X2699Y712D01*
X2700Y713D01*
X2701Y713D01*
X2701Y713D01*
X2702Y714D01*
X2703Y714D01*
Y699D01*
D02*
G37*
G36*
X3161Y702D02*
X3160Y701D01*
X3160Y700D01*
X3159Y699D01*
X3159Y698D01*
X3159Y698D01*
X3158Y697D01*
X3158Y696D01*
X3158Y695D01*
X3158Y694D01*
X3150D01*
X3150Y695D01*
X3150Y696D01*
X3150Y697D01*
X3149Y698D01*
X3149Y698D01*
X3149Y699D01*
X3148Y700D01*
X3148Y701D01*
X3147Y702D01*
X3146Y703D01*
X3162D01*
X3161Y702D01*
D02*
G37*
G36*
X1242Y699D02*
X1243Y698D01*
X1243Y698D01*
X1244Y698D01*
X1245Y697D01*
X1246Y697D01*
X1247Y697D01*
X1248Y697D01*
X1249Y697D01*
X1250Y697D01*
Y687D01*
X1249Y687D01*
X1247Y686D01*
X1246Y686D01*
X1245Y686D01*
X1244Y686D01*
X1243Y685D01*
X1243Y685D01*
X1242Y684D01*
X1241Y684D01*
Y699D01*
X1242Y699D01*
D02*
G37*
G36*
X949Y664D02*
X949Y665D01*
X948Y665D01*
X947Y666D01*
X947Y666D01*
X946Y666D01*
X945Y667D01*
X944Y667D01*
X943Y667D01*
X942Y667D01*
X941Y667D01*
Y677D01*
X942Y677D01*
X944Y677D01*
X945Y677D01*
X946Y678D01*
X947Y678D01*
X947Y678D01*
X948Y679D01*
X949Y679D01*
X949Y680D01*
Y664D01*
D02*
G37*
G36*
X1638Y664D02*
X1637Y664D01*
X1637Y665D01*
X1636Y665D01*
X1635Y666D01*
X1634Y666D01*
X1633Y666D01*
X1632Y666D01*
X1631Y666D01*
X1630Y667D01*
X1629Y667D01*
Y677D01*
X1630Y677D01*
X1632Y677D01*
X1633Y677D01*
X1634Y677D01*
X1635Y678D01*
X1636Y678D01*
X1637Y678D01*
X1637Y679D01*
X1638Y679D01*
Y664D01*
D02*
G37*
G36*
X2707Y648D02*
X2706Y649D01*
X2706Y649D01*
X2705Y650D01*
X2704Y651D01*
X2703Y651D01*
X2702Y651D01*
X2701Y652D01*
X2700Y652D01*
X2699Y652D01*
X2698Y652D01*
X2698Y660D01*
X2699Y660D01*
X2700Y660D01*
X2701Y660D01*
X2702Y660D01*
X2703Y661D01*
X2704Y661D01*
X2705Y662D01*
X2706Y662D01*
X2706Y663D01*
X2707Y664D01*
X2707Y648D01*
D02*
G37*
G36*
X2400Y663D02*
X2401Y662D01*
X2402Y662D01*
X2403Y661D01*
X2404Y661D01*
X2405Y660D01*
X2405Y660D01*
X2406Y660D01*
X2408Y660D01*
X2409Y660D01*
Y652D01*
X2408Y652D01*
X2406Y652D01*
X2405Y652D01*
X2405Y651D01*
X2404Y651D01*
X2403Y651D01*
X2402Y650D01*
X2401Y649D01*
X2400Y649D01*
X2400Y648D01*
Y664D01*
X2400Y663D01*
D02*
G37*
G36*
X2394Y811D02*
X2394Y811D01*
X2391Y810D01*
X2390Y810D01*
X2390Y810D01*
X2387Y807D01*
X2384Y806D01*
X2384Y805D01*
X2383Y805D01*
X2381Y802D01*
X2379Y799D01*
X2379Y798D01*
X2379Y798D01*
X2379Y795D01*
X2379Y794D01*
X2377Y792D01*
X2374Y787D01*
Y780D01*
X2377Y774D01*
X2379Y773D01*
X2379Y772D01*
X2379Y769D01*
X2379Y768D01*
X2379Y768D01*
X2381Y765D01*
X2383Y762D01*
X2384Y762D01*
X2384Y761D01*
X2385Y760D01*
X2385Y760D01*
X2385Y760D01*
X2386Y756D01*
X2385Y754D01*
X2385Y754D01*
X2382Y751D01*
X2382Y751D01*
X2381Y751D01*
X2380Y748D01*
X2378Y744D01*
X2378Y744D01*
X2378Y744D01*
X2378Y740D01*
X2378Y740D01*
X2377Y739D01*
X2374Y733D01*
Y727D01*
X2377Y721D01*
X2380Y718D01*
X2380Y718D01*
X2381Y715D01*
X2381Y714D01*
X2381Y714D01*
X2383Y711D01*
X2385Y708D01*
X2386Y708D01*
X2386Y707D01*
X2389Y706D01*
X2392Y704D01*
X2393Y704D01*
X2393Y704D01*
X2394Y704D01*
Y680D01*
Y644D01*
X2370D01*
X2365Y649D01*
Y695D01*
X2365Y695D01*
X2364Y701D01*
X2361Y706D01*
X2361Y706D01*
X2355Y711D01*
X2351Y713D01*
Y738D01*
X2355Y741D01*
X2361Y746D01*
X2361Y746D01*
X2364Y751D01*
X2365Y756D01*
X2365Y756D01*
Y835D01*
X2375Y846D01*
X2394D01*
Y811D01*
D02*
G37*
G36*
X1178Y652D02*
X1177Y651D01*
X1177Y650D01*
X1176Y650D01*
X1176Y649D01*
X1175Y648D01*
X1175Y647D01*
X1175Y646D01*
X1175Y645D01*
X1175Y644D01*
X1167D01*
X1167Y645D01*
X1167Y646D01*
X1167Y647D01*
X1166Y648D01*
X1166Y649D01*
X1166Y650D01*
X1165Y650D01*
X1165Y651D01*
X1164Y652D01*
X1163Y653D01*
X1179D01*
X1178Y652D01*
D02*
G37*
G36*
X2950Y765D02*
X2950Y765D01*
X2953Y763D01*
Y744D01*
X2958D01*
Y733D01*
X3012D01*
Y718D01*
X2958D01*
Y706D01*
X2953D01*
Y644D01*
X2949Y643D01*
X2919D01*
Y710D01*
X2919Y710D01*
X2918Y716D01*
X2915Y721D01*
X2910Y725D01*
X2936Y752D01*
X2937Y752D01*
X2941Y756D01*
X2943Y762D01*
Y765D01*
X2948Y767D01*
X2950Y765D01*
D02*
G37*
G36*
X558Y651D02*
X558Y651D01*
X559Y650D01*
X560Y650D01*
X560Y650D01*
X561Y649D01*
X562Y649D01*
X563Y649D01*
X564Y649D01*
X566Y649D01*
Y639D01*
X564Y639D01*
X562Y639D01*
X561Y639D01*
X560Y638D01*
X560Y638D01*
X559Y638D01*
X558Y637D01*
X558Y637D01*
X557Y636D01*
Y652D01*
X558Y651D01*
D02*
G37*
G36*
X1095Y639D02*
X1095Y638D01*
X1096Y638D01*
X1097Y637D01*
X1098Y637D01*
X1099Y637D01*
X1100Y636D01*
X1101Y636D01*
X1102Y636D01*
X1103Y636D01*
X1102Y628D01*
X1101Y628D01*
X1100Y628D01*
X1099Y628D01*
X1098Y627D01*
X1097Y627D01*
X1096Y627D01*
X1096Y626D01*
X1095Y626D01*
X1094Y625D01*
X1093Y624D01*
X1094Y640D01*
X1095Y639D01*
D02*
G37*
G36*
X1638Y624D02*
X1637Y625D01*
X1636Y625D01*
X1635Y626D01*
X1635Y626D01*
X1634Y627D01*
X1633Y627D01*
X1632Y627D01*
X1631Y627D01*
X1630Y627D01*
X1629Y628D01*
Y636D01*
X1630Y636D01*
X1631Y636D01*
X1632Y636D01*
X1633Y636D01*
X1634Y636D01*
X1635Y637D01*
X1635Y637D01*
X1636Y638D01*
X1637Y639D01*
X1638Y639D01*
Y624D01*
D02*
G37*
G36*
X949Y615D02*
X949Y615D01*
X948Y616D01*
X947Y616D01*
X947Y617D01*
X946Y617D01*
X945Y617D01*
X944Y617D01*
X943Y617D01*
X942Y618D01*
X941Y618D01*
Y628D01*
X942Y628D01*
X944Y628D01*
X945Y628D01*
X946Y628D01*
X947Y629D01*
X947Y629D01*
X948Y629D01*
X949Y630D01*
X949Y630D01*
Y615D01*
D02*
G37*
G36*
X2863Y610D02*
X2862Y611D01*
X2861Y611D01*
X2860Y612D01*
X2859Y612D01*
X2859Y613D01*
X2858Y613D01*
X2857Y613D01*
X2856Y614D01*
X2855Y614D01*
X2854Y614D01*
Y622D01*
X2855Y622D01*
X2856Y622D01*
X2857Y622D01*
X2858Y622D01*
X2859Y623D01*
X2859Y623D01*
X2860Y624D01*
X2861Y624D01*
X2862Y625D01*
X2863Y625D01*
Y610D01*
D02*
G37*
G36*
X897Y603D02*
X897Y602D01*
X897Y601D01*
X897Y600D01*
X898Y599D01*
X898Y598D01*
X898Y597D01*
X899Y596D01*
X900Y596D01*
X900Y595D01*
X885D01*
X886Y596D01*
X886Y596D01*
X887Y597D01*
X887Y598D01*
X888Y599D01*
X888Y600D01*
X888Y601D01*
X889Y602D01*
X889Y603D01*
X889Y604D01*
X897D01*
X897Y603D01*
D02*
G37*
G36*
X1010Y602D02*
X1010Y601D01*
X1010Y600D01*
X1010Y599D01*
X1010Y598D01*
X1011Y597D01*
X1011Y596D01*
X1012Y595D01*
X1012Y595D01*
X1013Y594D01*
X998D01*
X998Y595D01*
X999Y595D01*
X1000Y596D01*
X1000Y597D01*
X1001Y598D01*
X1001Y599D01*
X1001Y600D01*
X1001Y601D01*
X1001Y602D01*
X1001Y603D01*
X1009D01*
X1010Y602D01*
D02*
G37*
G36*
X478Y601D02*
X478Y601D01*
X479Y600D01*
X480Y600D01*
X480Y600D01*
X481Y599D01*
X482Y599D01*
X483Y599D01*
X484Y599D01*
X486Y599D01*
Y589D01*
X484Y589D01*
X482Y589D01*
X481Y589D01*
X480Y588D01*
X480Y588D01*
X479Y588D01*
X478Y587D01*
X478Y587D01*
X477Y586D01*
Y602D01*
X478Y601D01*
D02*
G37*
G36*
X1152Y601D02*
X1153Y600D01*
X1153Y600D01*
X1154Y600D01*
X1155Y599D01*
X1156Y599D01*
X1157Y599D01*
X1158Y599D01*
X1159Y599D01*
X1160Y599D01*
Y589D01*
X1159Y589D01*
X1157Y588D01*
X1156Y588D01*
X1155Y588D01*
X1154Y588D01*
X1153Y587D01*
X1153Y587D01*
X1152Y586D01*
X1151Y586D01*
Y601D01*
X1152Y601D01*
D02*
G37*
G36*
X1637Y585D02*
X1636Y585D01*
X1636Y586D01*
X1635Y586D01*
X1634Y586D01*
X1633Y587D01*
X1632Y587D01*
X1632Y587D01*
X1631Y587D01*
X1629Y588D01*
X1628Y588D01*
X1629Y598D01*
X1630Y598D01*
X1633Y598D01*
X1634Y598D01*
X1634Y598D01*
X1635Y598D01*
X1636Y599D01*
X1637Y599D01*
X1637Y599D01*
X1638Y600D01*
X1637Y585D01*
D02*
G37*
G36*
X2707Y587D02*
X2706Y586D01*
X2706Y585D01*
X2705Y584D01*
X2705Y583D01*
X2704Y582D01*
X2704Y582D01*
X2704Y581D01*
X2704Y580D01*
X2704Y578D01*
X2696D01*
X2696Y580D01*
X2696Y581D01*
X2695Y582D01*
X2695Y582D01*
X2695Y583D01*
X2694Y584D01*
X2694Y585D01*
X2693Y586D01*
X2693Y587D01*
X2692Y587D01*
X2707D01*
X2707Y587D01*
D02*
G37*
G36*
X2850Y571D02*
X2851Y569D01*
X2851Y568D01*
X2851Y567D01*
X2851Y566D01*
X2852Y565D01*
X2852Y565D01*
X2853Y564D01*
X2853Y563D01*
X2838D01*
X2838Y564D01*
X2839Y565D01*
X2839Y565D01*
X2839Y566D01*
X2840Y567D01*
X2840Y568D01*
X2840Y569D01*
X2840Y570D01*
X2840Y571D01*
X2840Y572D01*
X2850D01*
X2850Y571D01*
D02*
G37*
G36*
X2805D02*
X2806Y569D01*
X2806Y568D01*
X2806Y567D01*
X2806Y566D01*
X2807Y565D01*
X2807Y565D01*
X2808Y564D01*
X2808Y563D01*
X2793D01*
X2793Y564D01*
X2794Y565D01*
X2794Y565D01*
X2794Y566D01*
X2795Y567D01*
X2795Y568D01*
X2795Y569D01*
X2795Y570D01*
X2795Y571D01*
X2795Y572D01*
X2805D01*
X2805Y571D01*
D02*
G37*
G36*
X1638Y549D02*
X1638Y550D01*
X1637Y551D01*
X1636Y551D01*
X1635Y552D01*
X1634Y552D01*
X1633Y552D01*
X1632Y552D01*
X1631Y553D01*
X1630Y553D01*
X1629Y553D01*
X1628Y561D01*
X1630Y561D01*
X1631Y561D01*
X1632Y561D01*
X1632Y561D01*
X1633Y562D01*
X1634Y562D01*
X1635Y563D01*
X1636Y563D01*
X1637Y564D01*
X1637Y565D01*
X1638Y549D01*
D02*
G37*
G36*
X1151Y563D02*
X1152Y562D01*
X1153Y562D01*
X1154Y561D01*
X1154Y561D01*
X1155Y561D01*
X1156Y560D01*
X1157Y560D01*
X1158Y560D01*
X1159Y560D01*
Y552D01*
X1158Y552D01*
X1157Y552D01*
X1156Y552D01*
X1155Y551D01*
X1154Y551D01*
X1154Y551D01*
X1153Y550D01*
X1152Y550D01*
X1151Y549D01*
X1150Y548D01*
Y564D01*
X1151Y563D01*
D02*
G37*
G36*
X865Y536D02*
X864Y537D01*
X863Y538D01*
X862Y538D01*
X862Y539D01*
X861Y539D01*
X860Y539D01*
X859Y540D01*
X858Y540D01*
X857Y540D01*
X856Y540D01*
Y548D01*
X857Y548D01*
X858Y548D01*
X859Y548D01*
X860Y549D01*
X861Y549D01*
X862Y549D01*
X862Y550D01*
X863Y550D01*
X864Y551D01*
X865Y552D01*
Y536D01*
D02*
G37*
G36*
X1444Y549D02*
X1445Y548D01*
X1446Y547D01*
X1447Y547D01*
X1448Y546D01*
X1448Y546D01*
X1449Y546D01*
X1450Y546D01*
X1451Y546D01*
X1452Y546D01*
Y538D01*
X1451Y538D01*
X1450Y537D01*
X1449Y537D01*
X1448Y537D01*
X1448Y537D01*
X1447Y536D01*
X1446Y536D01*
X1445Y535D01*
X1444Y535D01*
X1443Y534D01*
Y549D01*
X1444Y549D01*
D02*
G37*
G36*
X1338Y533D02*
X1337Y534D01*
X1336Y535D01*
X1335Y535D01*
X1335Y536D01*
X1334Y536D01*
X1333Y536D01*
X1332Y537D01*
X1331Y537D01*
X1330Y537D01*
X1329Y537D01*
Y545D01*
X1330Y545D01*
X1331Y545D01*
X1332Y545D01*
X1333Y546D01*
X1334Y546D01*
X1335Y546D01*
X1335Y547D01*
X1336Y547D01*
X1337Y548D01*
X1338Y549D01*
Y533D01*
D02*
G37*
G36*
X2611Y507D02*
X2611Y507D01*
X2612Y506D01*
X2613Y506D01*
X2614Y505D01*
X2615Y505D01*
X2616Y505D01*
X2617Y505D01*
X2618Y504D01*
X2619Y504D01*
Y496D01*
X2618Y496D01*
X2617Y496D01*
X2616Y496D01*
X2615Y496D01*
X2614Y496D01*
X2613Y495D01*
X2612Y495D01*
X2611Y494D01*
X2611Y493D01*
X2610Y493D01*
Y508D01*
X2611Y507D01*
D02*
G37*
G36*
X2498Y493D02*
X2497Y493D01*
X2496Y494D01*
X2495Y495D01*
X2494Y495D01*
X2494Y496D01*
X2493Y496D01*
X2492Y496D01*
X2491Y496D01*
X2490Y496D01*
X2489Y496D01*
Y504D01*
X2490Y504D01*
X2491Y505D01*
X2492Y505D01*
X2493Y505D01*
X2494Y505D01*
X2494Y506D01*
X2495Y506D01*
X2496Y507D01*
X2497Y507D01*
X2498Y508D01*
Y493D01*
D02*
G37*
G36*
X2794Y478D02*
X2793Y479D01*
X2792Y480D01*
X2791Y480D01*
X2791Y481D01*
X2790Y481D01*
X2789Y481D01*
X2788Y482D01*
X2787Y482D01*
X2786Y482D01*
X2785Y482D01*
Y490D01*
X2786Y490D01*
X2787Y490D01*
X2788Y490D01*
X2789Y491D01*
X2790Y491D01*
X2791Y491D01*
X2791Y492D01*
X2792Y492D01*
X2793Y493D01*
X2794Y494D01*
Y478D01*
D02*
G37*
G36*
X1151Y478D02*
X1150Y477D01*
X1150Y477D01*
X1150Y476D01*
X1149Y475D01*
X1149Y474D01*
X1149Y473D01*
X1149Y472D01*
X1149Y471D01*
X1149Y470D01*
X1139D01*
X1139Y471D01*
X1138Y473D01*
X1138Y474D01*
X1138Y475D01*
X1138Y476D01*
X1137Y477D01*
X1137Y477D01*
X1136Y478D01*
X1136Y479D01*
X1151D01*
X1151Y478D01*
D02*
G37*
G36*
X1106D02*
X1105Y477D01*
X1105Y477D01*
X1105Y476D01*
X1104Y475D01*
X1104Y474D01*
X1104Y473D01*
X1104Y472D01*
X1104Y471D01*
X1104Y470D01*
X1094D01*
X1094Y471D01*
X1093Y473D01*
X1093Y474D01*
X1093Y475D01*
X1093Y476D01*
X1092Y477D01*
X1092Y477D01*
X1091Y478D01*
X1091Y479D01*
X1106D01*
X1106Y478D01*
D02*
G37*
G36*
X1248Y462D02*
X1248Y461D01*
X1249Y460D01*
X1249Y459D01*
X1249Y459D01*
X1250Y458D01*
X1250Y457D01*
X1251Y456D01*
X1251Y455D01*
X1252Y454D01*
X1237D01*
X1237Y455D01*
X1238Y456D01*
X1239Y457D01*
X1239Y458D01*
X1239Y459D01*
X1240Y459D01*
X1240Y460D01*
X1240Y461D01*
X1240Y462D01*
X1240Y463D01*
X1248D01*
X1248Y462D01*
D02*
G37*
G36*
X1609Y441D02*
X1608Y441D01*
X1608Y442D01*
X1607Y443D01*
X1606Y443D01*
X1605Y444D01*
X1604Y444D01*
X1603Y444D01*
X1602Y444D01*
X1601Y444D01*
X1600Y444D01*
Y452D01*
X1601Y452D01*
X1602Y453D01*
X1603Y453D01*
X1604Y453D01*
X1605Y453D01*
X1606Y454D01*
X1607Y454D01*
X1608Y455D01*
X1608Y455D01*
X1609Y456D01*
Y441D01*
D02*
G37*
G36*
X2793Y441D02*
X2792Y441D01*
X2791Y442D01*
X2791Y442D01*
X2790Y442D01*
X2789Y443D01*
X2788Y443D01*
X2787Y443D01*
X2786Y443D01*
X2785Y443D01*
X2784Y443D01*
Y453D01*
X2785Y453D01*
X2787Y454D01*
X2788Y454D01*
X2789Y454D01*
X2790Y454D01*
X2791Y455D01*
X2791Y455D01*
X2792Y456D01*
X2793Y456D01*
Y441D01*
D02*
G37*
G36*
X1039Y431D02*
X1043D01*
X1035Y421D01*
X1035Y423D01*
X1035Y424D01*
X1035Y426D01*
X1035Y427D01*
X1034Y428D01*
X1034Y429D01*
X1033Y431D01*
X1032Y432D01*
X1032Y433D01*
X1031Y434D01*
X1039Y431D01*
D02*
G37*
G36*
X1073Y431D02*
X1074Y431D01*
X1075Y430D01*
X1076Y430D01*
X1076Y429D01*
X1077Y429D01*
X1078Y429D01*
X1079Y428D01*
X1080Y428D01*
X1081Y428D01*
Y420D01*
X1080Y420D01*
X1079Y420D01*
X1078Y420D01*
X1077Y420D01*
X1076Y419D01*
X1076Y419D01*
X1075Y418D01*
X1074Y418D01*
X1073Y417D01*
X1072Y417D01*
Y432D01*
X1073Y431D01*
D02*
G37*
G36*
X2850Y402D02*
X2850Y403D01*
X2849Y404D01*
X2848Y404D01*
X2847Y405D01*
X2846Y405D01*
X2845Y405D01*
X2844Y406D01*
X2844Y406D01*
X2842Y406D01*
X2841Y406D01*
X2842Y414D01*
X2843Y414D01*
X2844Y414D01*
X2845Y414D01*
X2846Y415D01*
X2847Y415D01*
X2848Y415D01*
X2849Y416D01*
X2849Y416D01*
X2850Y417D01*
X2851Y418D01*
X2850Y402D01*
D02*
G37*
G36*
X2777Y397D02*
X2777Y396D01*
X2778Y395D01*
X2778Y394D01*
X2778Y393D01*
X2779Y393D01*
X2779Y392D01*
X2780Y391D01*
X2780Y390D01*
X2781Y389D01*
X2765D01*
X2766Y390D01*
X2767Y391D01*
X2767Y392D01*
X2768Y393D01*
X2768Y393D01*
X2769Y394D01*
X2769Y395D01*
X2769Y396D01*
X2769Y397D01*
X2769Y398D01*
X2777D01*
X2777Y397D01*
D02*
G37*
G36*
X1696Y383D02*
X1695Y384D01*
X1694Y384D01*
X1694Y385D01*
X1693Y385D01*
X1692Y385D01*
X1691Y385D01*
X1690Y386D01*
X1689Y386D01*
X1688Y386D01*
X1687Y386D01*
X1687Y396D01*
X1689Y396D01*
X1691Y396D01*
X1692Y396D01*
X1692Y397D01*
X1693Y397D01*
X1694Y397D01*
X1695Y398D01*
X1695Y398D01*
X1696Y399D01*
X1696Y383D01*
D02*
G37*
G36*
X1543Y379D02*
X1542Y380D01*
X1542Y380D01*
X1541Y381D01*
X1540Y381D01*
X1539Y382D01*
X1538Y382D01*
X1537Y382D01*
X1536Y382D01*
X1535Y382D01*
X1534Y383D01*
Y391D01*
X1535Y391D01*
X1536Y391D01*
X1537Y391D01*
X1538Y391D01*
X1539Y391D01*
X1540Y392D01*
X1541Y392D01*
X1542Y393D01*
X1542Y394D01*
X1543Y394D01*
Y379D01*
D02*
G37*
G36*
X1236Y394D02*
X1237Y393D01*
X1238Y392D01*
X1239Y392D01*
X1240Y391D01*
X1241Y391D01*
X1242Y391D01*
X1243Y391D01*
X1244Y391D01*
X1245Y391D01*
X1245Y383D01*
X1244Y382D01*
X1243Y382D01*
X1242Y382D01*
X1241Y382D01*
X1240Y382D01*
X1239Y381D01*
X1238Y381D01*
X1237Y380D01*
X1236Y380D01*
X1236Y379D01*
X1236Y394D01*
X1236Y394D01*
D02*
G37*
G36*
X2707Y342D02*
X2706Y343D01*
X2705Y344D01*
X2705Y344D01*
X2704Y345D01*
X2703Y345D01*
X2702Y345D01*
X2701Y346D01*
X2700Y346D01*
X2699Y346D01*
X2698Y346D01*
X2698Y354D01*
X2699Y354D01*
X2700Y354D01*
X2701Y354D01*
X2702Y355D01*
X2703Y355D01*
X2704Y355D01*
X2705Y356D01*
X2706Y356D01*
X2707Y357D01*
X2707Y358D01*
X2707Y342D01*
D02*
G37*
G36*
X1546Y327D02*
X1545Y328D01*
X1545Y328D01*
X1544Y329D01*
X1543Y329D01*
X1543Y329D01*
X1542Y330D01*
X1541Y330D01*
X1540Y330D01*
X1539Y330D01*
X1538Y330D01*
X1538Y340D01*
X1539Y340D01*
X1541Y340D01*
X1542Y341D01*
X1543Y341D01*
X1544Y341D01*
X1544Y341D01*
X1545Y342D01*
X1546Y342D01*
X1546Y343D01*
X1546Y327D01*
D02*
G37*
G36*
X1316D02*
X1315Y328D01*
X1315Y329D01*
X1314Y329D01*
X1313Y330D01*
X1312Y330D01*
X1311Y331D01*
X1310Y331D01*
X1309Y331D01*
X1308Y331D01*
X1307Y331D01*
X1307Y339D01*
X1308Y339D01*
X1309Y339D01*
X1310Y340D01*
X1311Y340D01*
X1312Y340D01*
X1313Y340D01*
X1314Y341D01*
X1315Y342D01*
X1316Y342D01*
X1316Y343D01*
X1316Y327D01*
D02*
G37*
G36*
X1025Y332D02*
X1025Y332D01*
X1026Y326D01*
X1029Y321D01*
X1044Y306D01*
X1049Y303D01*
X1055Y302D01*
X1055Y302D01*
X1067D01*
Y281D01*
X1055D01*
X1055Y281D01*
X1049Y280D01*
X1044Y277D01*
X1029Y262D01*
X1026Y257D01*
X1025Y251D01*
X1025Y251D01*
Y184D01*
X1009D01*
X1008Y185D01*
X1007Y189D01*
X1007Y190D01*
X1008Y195D01*
Y257D01*
X1007Y262D01*
X1004Y267D01*
X1004Y267D01*
X994Y277D01*
X991Y279D01*
Y298D01*
X986D01*
Y309D01*
X878D01*
Y304D01*
X751D01*
X749Y308D01*
Y325D01*
X751Y329D01*
X774D01*
Y328D01*
X776Y323D01*
X781Y318D01*
X787Y316D01*
X793D01*
X799Y318D01*
X804Y323D01*
X806Y328D01*
Y329D01*
X878D01*
Y324D01*
X986D01*
Y336D01*
X991D01*
Y398D01*
X995Y399D01*
X1025D01*
Y332D01*
D02*
G37*
G36*
X2383Y318D02*
X2382Y318D01*
X2381Y319D01*
X2380Y320D01*
X2379Y320D01*
X2379Y321D01*
X2378Y321D01*
X2377Y321D01*
X2376Y321D01*
X2375Y321D01*
X2374Y321D01*
Y329D01*
X2375Y330D01*
X2376Y330D01*
X2377Y330D01*
X2378Y330D01*
X2379Y330D01*
X2379Y331D01*
X2380Y331D01*
X2381Y332D01*
X2382Y332D01*
X2383Y333D01*
Y318D01*
D02*
G37*
G36*
X1230Y385D02*
Y334D01*
Y317D01*
X1220D01*
Y320D01*
X1217Y326D01*
X1213Y330D01*
X1207Y333D01*
X1200D01*
X1195Y330D01*
X1190Y332D01*
Y397D01*
X1191Y398D01*
X1230D01*
Y385D01*
D02*
G37*
G36*
X1570Y302D02*
X1569Y302D01*
X1569Y302D01*
X1568Y303D01*
X1567Y303D01*
X1566Y303D01*
X1565Y304D01*
X1564Y304D01*
X1563Y304D01*
X1561Y304D01*
X1560Y314D01*
X1561Y314D01*
X1562Y314D01*
X1563Y314D01*
X1564Y314D01*
X1565Y315D01*
X1566Y315D01*
X1567Y315D01*
X1567Y316D01*
X1568Y316D01*
X1568Y317D01*
X1570Y302D01*
D02*
G37*
G36*
X2796Y278D02*
X2795Y278D01*
X2794Y279D01*
X2793Y280D01*
X2792Y280D01*
X2792Y281D01*
X2791Y281D01*
X2790Y281D01*
X2789Y281D01*
X2788Y281D01*
X2787Y281D01*
X2787Y289D01*
X2788Y290D01*
X2789Y290D01*
X2790Y290D01*
X2791Y290D01*
X2792Y290D01*
X2792Y291D01*
X2793Y291D01*
X2794Y292D01*
X2795Y292D01*
X2796Y293D01*
X2796Y278D01*
D02*
G37*
G36*
X1544Y276D02*
X1544Y277D01*
X1543Y277D01*
X1542Y278D01*
X1541Y278D01*
X1541Y278D01*
X1540Y279D01*
X1539Y279D01*
X1538Y279D01*
X1537Y279D01*
X1536Y279D01*
X1536Y289D01*
X1537Y289D01*
X1539Y289D01*
X1540Y290D01*
X1541Y290D01*
X1542Y290D01*
X1542Y290D01*
X1543Y291D01*
X1544Y291D01*
X1544Y292D01*
X1544Y276D01*
D02*
G37*
G36*
X1565Y251D02*
X1565Y252D01*
X1564Y252D01*
X1563Y252D01*
X1563Y253D01*
X1562Y253D01*
X1561Y253D01*
X1560Y254D01*
X1559Y254D01*
X1558Y254D01*
X1557Y254D01*
X1556Y264D01*
X1558Y264D01*
X1559Y264D01*
X1560Y264D01*
X1561Y264D01*
X1562Y264D01*
X1562Y265D01*
X1563Y265D01*
X1564Y266D01*
X1564Y266D01*
X1565Y267D01*
X1565Y251D01*
D02*
G37*
G36*
X1316Y251D02*
X1315Y251D01*
X1315Y252D01*
X1314Y252D01*
X1313Y252D01*
X1313Y253D01*
X1312Y253D01*
X1311Y253D01*
X1310Y253D01*
X1309Y253D01*
X1307Y253D01*
X1308Y263D01*
X1309Y263D01*
X1311Y264D01*
X1312Y264D01*
X1313Y264D01*
X1314Y264D01*
X1314Y265D01*
X1315Y265D01*
X1316Y265D01*
X1316Y266D01*
X1316Y251D01*
D02*
G37*
G36*
X2796Y240D02*
X2795Y240D01*
X2794Y241D01*
X2793Y242D01*
X2792Y242D01*
X2792Y243D01*
X2791Y243D01*
X2790Y243D01*
X2789Y243D01*
X2788Y243D01*
X2787Y243D01*
Y251D01*
X2788Y252D01*
X2789Y252D01*
X2790Y252D01*
X2791Y252D01*
X2792Y252D01*
X2792Y253D01*
X2793Y253D01*
X2794Y254D01*
X2795Y254D01*
X2796Y255D01*
Y240D01*
D02*
G37*
G36*
X1209Y232D02*
X1209Y230D01*
X1209Y229D01*
X1209Y228D01*
X1210Y227D01*
X1210Y226D01*
X1211Y226D01*
X1211Y225D01*
X1212Y225D01*
X1196Y224D01*
X1197Y225D01*
X1197Y225D01*
X1197Y226D01*
X1198Y227D01*
X1198Y228D01*
X1198Y229D01*
X1199Y230D01*
X1199Y231D01*
X1199Y232D01*
X1199Y233D01*
X1209Y233D01*
X1209Y232D01*
D02*
G37*
G36*
X2796Y202D02*
X2795Y202D01*
X2794Y203D01*
X2793Y204D01*
X2792Y204D01*
X2792Y205D01*
X2791Y205D01*
X2790Y205D01*
X2789Y205D01*
X2788Y205D01*
X2787Y205D01*
Y213D01*
X2788Y214D01*
X2789Y214D01*
X2790Y214D01*
X2791Y214D01*
X2792Y214D01*
X2792Y215D01*
X2793Y215D01*
X2794Y216D01*
X2795Y216D01*
X2796Y217D01*
Y202D01*
D02*
G37*
G36*
X1444Y215D02*
X1445Y214D01*
X1446Y214D01*
X1447Y213D01*
X1448Y213D01*
X1449Y212D01*
X1450Y212D01*
X1451Y212D01*
X1452Y212D01*
X1453Y212D01*
Y204D01*
X1452Y204D01*
X1451Y204D01*
X1450Y203D01*
X1449Y203D01*
X1448Y203D01*
X1447Y202D01*
X1446Y202D01*
X1445Y201D01*
X1444Y201D01*
X1444Y200D01*
Y215D01*
X1444Y215D01*
D02*
G37*
G36*
X1334Y200D02*
X1334Y200D01*
X1333Y201D01*
X1332Y202D01*
X1331Y202D01*
X1330Y202D01*
X1329Y203D01*
X1328Y203D01*
X1327Y203D01*
X1326Y203D01*
X1325Y203D01*
Y211D01*
X1326Y211D01*
X1327Y212D01*
X1328Y212D01*
X1329Y212D01*
X1330Y212D01*
X1331Y213D01*
X1332Y213D01*
X1333Y214D01*
X1334Y214D01*
X1334Y215D01*
Y200D01*
D02*
G37*
G36*
X2611Y207D02*
X2611Y207D01*
X2612Y206D01*
X2613Y206D01*
X2614Y205D01*
X2615Y205D01*
X2616Y205D01*
X2617Y205D01*
X2618Y204D01*
X2619Y204D01*
Y196D01*
X2618Y196D01*
X2617Y196D01*
X2616Y196D01*
X2615Y196D01*
X2614Y196D01*
X2613Y195D01*
X2612Y195D01*
X2611Y194D01*
X2611Y193D01*
X2610Y193D01*
Y208D01*
X2611Y207D01*
D02*
G37*
G36*
X2498Y193D02*
X2497Y193D01*
X2496Y194D01*
X2495Y195D01*
X2494Y195D01*
X2494Y196D01*
X2493Y196D01*
X2492Y196D01*
X2491Y196D01*
X2490Y196D01*
X2489Y196D01*
Y204D01*
X2490Y204D01*
X2491Y205D01*
X2492Y205D01*
X2493Y205D01*
X2494Y205D01*
X2494Y206D01*
X2495Y206D01*
X2496Y207D01*
X2497Y207D01*
X2498Y208D01*
Y193D01*
D02*
G37*
G36*
X2707Y151D02*
X2706Y150D01*
X2706Y150D01*
X2705Y149D01*
X2705Y148D01*
X2704Y147D01*
X2704Y146D01*
X2704Y145D01*
X2704Y144D01*
X2704Y143D01*
X2696D01*
X2696Y144D01*
X2696Y145D01*
X2695Y146D01*
X2695Y147D01*
X2695Y148D01*
X2694Y149D01*
X2694Y150D01*
X2693Y150D01*
X2693Y151D01*
X2692Y152D01*
X2707D01*
X2707Y151D01*
D02*
G37*
G36*
X2414D02*
X2414Y150D01*
X2413Y150D01*
X2413Y149D01*
X2412Y148D01*
X2412Y147D01*
X2412Y146D01*
X2411Y145D01*
X2411Y144D01*
X2411Y143D01*
X2403D01*
X2403Y144D01*
X2403Y145D01*
X2403Y146D01*
X2403Y147D01*
X2402Y148D01*
X2402Y149D01*
X2401Y150D01*
X2401Y150D01*
X2400Y151D01*
X2399Y152D01*
X2415D01*
X2414Y151D01*
D02*
G37*
%LPC*%
G36*
X2856Y1025D02*
X2844D01*
X2833Y1021D01*
X2823Y1016D01*
X2814Y1007D01*
X2809Y997D01*
X2805Y986D01*
Y974D01*
X2809Y963D01*
X2814Y953D01*
X2823Y944D01*
X2833Y939D01*
X2844Y935D01*
X2856D01*
X2867Y939D01*
X2877Y944D01*
X2886Y953D01*
X2891Y963D01*
X2895Y974D01*
Y986D01*
X2891Y997D01*
X2886Y1007D01*
X2877Y1016D01*
X2867Y1021D01*
X2856Y1025D01*
D02*
G37*
G36*
X2056D02*
X2044D01*
X2033Y1021D01*
X2023Y1016D01*
X2014Y1007D01*
X2009Y997D01*
X2005Y986D01*
Y974D01*
X2009Y963D01*
X2014Y953D01*
X2023Y944D01*
X2033Y939D01*
X2044Y935D01*
X2056D01*
X2067Y939D01*
X2077Y944D01*
X2086Y953D01*
X2091Y963D01*
X2095Y974D01*
Y986D01*
X2091Y997D01*
X2086Y1007D01*
X2077Y1016D01*
X2067Y1021D01*
X2056Y1025D01*
D02*
G37*
G36*
X1356D02*
X1344D01*
X1333Y1021D01*
X1323Y1016D01*
X1314Y1007D01*
X1309Y997D01*
X1305Y986D01*
Y974D01*
X1309Y963D01*
X1314Y953D01*
X1323Y944D01*
X1333Y939D01*
X1344Y935D01*
X1356D01*
X1367Y939D01*
X1377Y944D01*
X1386Y953D01*
X1391Y963D01*
X1395Y974D01*
Y986D01*
X1391Y997D01*
X1386Y1007D01*
X1377Y1016D01*
X1367Y1021D01*
X1356Y1025D01*
D02*
G37*
G36*
X1256D02*
X1244D01*
X1233Y1021D01*
X1223Y1016D01*
X1214Y1007D01*
X1209Y997D01*
X1205Y986D01*
Y974D01*
X1209Y963D01*
X1214Y953D01*
X1223Y944D01*
X1233Y939D01*
X1244Y935D01*
X1256D01*
X1267Y939D01*
X1277Y944D01*
X1286Y953D01*
X1291Y963D01*
X1295Y974D01*
Y986D01*
X1291Y997D01*
X1286Y1007D01*
X1277Y1016D01*
X1267Y1021D01*
X1256Y1025D01*
D02*
G37*
G36*
X1156D02*
X1144D01*
X1133Y1021D01*
X1123Y1016D01*
X1114Y1007D01*
X1109Y997D01*
X1105Y986D01*
Y974D01*
X1109Y963D01*
X1114Y953D01*
X1123Y944D01*
X1133Y939D01*
X1144Y935D01*
X1156D01*
X1167Y939D01*
X1177Y944D01*
X1186Y953D01*
X1191Y963D01*
X1195Y974D01*
Y986D01*
X1191Y997D01*
X1186Y1007D01*
X1177Y1016D01*
X1167Y1021D01*
X1156Y1025D01*
D02*
G37*
G36*
X956D02*
X944D01*
X933Y1021D01*
X923Y1016D01*
X914Y1007D01*
X909Y997D01*
X905Y986D01*
Y974D01*
X909Y963D01*
X914Y953D01*
X923Y944D01*
X933Y939D01*
X944Y935D01*
X956D01*
X967Y939D01*
X977Y944D01*
X986Y953D01*
X991Y963D01*
X995Y974D01*
Y986D01*
X991Y997D01*
X986Y1007D01*
X977Y1016D01*
X967Y1021D01*
X956Y1025D01*
D02*
G37*
G36*
X856D02*
X844D01*
X833Y1021D01*
X823Y1016D01*
X814Y1007D01*
X809Y997D01*
X805Y986D01*
Y974D01*
X809Y963D01*
X814Y953D01*
X823Y944D01*
X833Y939D01*
X844Y935D01*
X856D01*
X867Y939D01*
X877Y944D01*
X886Y953D01*
X891Y963D01*
X895Y974D01*
Y986D01*
X891Y997D01*
X886Y1007D01*
X877Y1016D01*
X867Y1021D01*
X856Y1025D01*
D02*
G37*
G36*
X756D02*
X744D01*
X733Y1021D01*
X723Y1016D01*
X714Y1007D01*
X709Y997D01*
X705Y986D01*
Y974D01*
X709Y963D01*
X714Y953D01*
X723Y944D01*
X733Y939D01*
X744Y935D01*
X756D01*
X767Y939D01*
X777Y944D01*
X786Y953D01*
X791Y963D01*
X795Y974D01*
Y986D01*
X791Y997D01*
X786Y1007D01*
X777Y1016D01*
X767Y1021D01*
X756Y1025D01*
D02*
G37*
G36*
X356D02*
X344D01*
X333Y1021D01*
X323Y1016D01*
X314Y1007D01*
X309Y997D01*
X305Y986D01*
Y974D01*
X309Y963D01*
X314Y953D01*
X323Y944D01*
X333Y939D01*
X344Y935D01*
X356D01*
X367Y939D01*
X377Y944D01*
X386Y953D01*
X391Y963D01*
X395Y974D01*
Y986D01*
X391Y997D01*
X386Y1007D01*
X377Y1016D01*
X367Y1021D01*
X356Y1025D01*
D02*
G37*
G36*
X256D02*
X244D01*
X233Y1021D01*
X223Y1016D01*
X214Y1007D01*
X209Y997D01*
X205Y986D01*
Y974D01*
X209Y963D01*
X214Y953D01*
X223Y944D01*
X233Y939D01*
X244Y935D01*
X256D01*
X267Y939D01*
X277Y944D01*
X286Y953D01*
X291Y963D01*
X295Y974D01*
Y986D01*
X291Y997D01*
X286Y1007D01*
X277Y1016D01*
X267Y1021D01*
X256Y1025D01*
D02*
G37*
G36*
X156D02*
X144D01*
X133Y1021D01*
X123Y1016D01*
X114Y1007D01*
X109Y997D01*
X105Y986D01*
Y974D01*
X109Y963D01*
X114Y953D01*
X123Y944D01*
X133Y939D01*
X144Y935D01*
X156D01*
X167Y939D01*
X177Y944D01*
X186Y953D01*
X191Y963D01*
X195Y974D01*
Y986D01*
X191Y997D01*
X186Y1007D01*
X177Y1016D01*
X167Y1021D01*
X156Y1025D01*
D02*
G37*
G36*
X3066Y851D02*
X3020D01*
Y833D01*
X3066D01*
Y851D01*
D02*
G37*
G36*
X2091Y643D02*
X2046D01*
X2046Y643D01*
X2046Y643D01*
X2044D01*
Y625D01*
X2091D01*
Y643D01*
D02*
G37*
G36*
X172Y604D02*
X143D01*
Y582D01*
X172D01*
Y604D01*
D02*
G37*
G36*
X310Y607D02*
X244D01*
Y602D01*
X244D01*
Y575D01*
X235D01*
Y602D01*
X216D01*
Y604D01*
X187D01*
Y575D01*
Y546D01*
X216D01*
Y548D01*
X227D01*
X230Y543D01*
X229Y540D01*
Y534D01*
X228Y532D01*
X221D01*
Y534D01*
X138D01*
Y466D01*
X221D01*
Y468D01*
X310D01*
Y484D01*
X311D01*
X317Y487D01*
X321Y491D01*
X324Y497D01*
Y503D01*
X321Y509D01*
X317Y514D01*
X311Y516D01*
X310D01*
Y532D01*
X262D01*
X261Y534D01*
Y540D01*
X263Y543D01*
X310D01*
Y559D01*
X313D01*
X319Y562D01*
X324Y566D01*
X326Y572D01*
Y578D01*
X324Y584D01*
X319Y589D01*
X313Y591D01*
X310D01*
Y607D01*
D02*
G37*
G36*
X172Y567D02*
X143D01*
Y546D01*
X172D01*
Y567D01*
D02*
G37*
G36*
X1900Y417D02*
X1853D01*
Y399D01*
X1900D01*
Y417D01*
D02*
G37*
G36*
X375Y413D02*
X275D01*
Y398D01*
X273Y397D01*
X267D01*
X261Y394D01*
X256Y390D01*
X254Y384D01*
Y378D01*
X256Y372D01*
X261Y367D01*
X263Y366D01*
X262Y361D01*
X245D01*
Y413D01*
X145D01*
Y398D01*
X143Y397D01*
X137D01*
X131Y394D01*
X126Y390D01*
X124Y384D01*
Y378D01*
X126Y372D01*
X130Y369D01*
X128Y364D01*
X26D01*
Y278D01*
X134D01*
Y286D01*
X391D01*
Y278D01*
X499D01*
Y364D01*
X391D01*
Y361D01*
X375D01*
Y413D01*
D02*
G37*
G36*
X3149Y321D02*
X3040D01*
Y235D01*
X3149D01*
Y321D01*
D02*
G37*
G36*
X924Y209D02*
X878D01*
Y191D01*
X924D01*
Y209D01*
D02*
G37*
G36*
X2956Y125D02*
X2944D01*
X2933Y121D01*
X2923Y116D01*
X2914Y107D01*
X2909Y97D01*
X2905Y86D01*
Y74D01*
X2909Y63D01*
X2914Y53D01*
X2923Y44D01*
X2933Y39D01*
X2944Y35D01*
X2956D01*
X2967Y39D01*
X2977Y44D01*
X2986Y53D01*
X2991Y63D01*
X2995Y74D01*
Y86D01*
X2991Y97D01*
X2986Y107D01*
X2977Y116D01*
X2967Y121D01*
X2956Y125D01*
D02*
G37*
G36*
X2856D02*
X2844D01*
X2833Y121D01*
X2823Y116D01*
X2814Y107D01*
X2809Y97D01*
X2805Y86D01*
Y74D01*
X2809Y63D01*
X2814Y53D01*
X2823Y44D01*
X2833Y39D01*
X2844Y35D01*
X2856D01*
X2867Y39D01*
X2877Y44D01*
X2886Y53D01*
X2891Y63D01*
X2895Y74D01*
Y86D01*
X2891Y97D01*
X2886Y107D01*
X2877Y116D01*
X2867Y121D01*
X2856Y125D01*
D02*
G37*
G36*
X2256D02*
X2244D01*
X2233Y121D01*
X2223Y116D01*
X2214Y107D01*
X2209Y97D01*
X2205Y86D01*
Y74D01*
X2209Y63D01*
X2214Y53D01*
X2223Y44D01*
X2233Y39D01*
X2244Y35D01*
X2256D01*
X2267Y39D01*
X2277Y44D01*
X2286Y53D01*
X2291Y63D01*
X2295Y74D01*
Y86D01*
X2291Y97D01*
X2286Y107D01*
X2277Y116D01*
X2267Y121D01*
X2256Y125D01*
D02*
G37*
G36*
X2156D02*
X2144D01*
X2133Y121D01*
X2123Y116D01*
X2114Y107D01*
X2109Y97D01*
X2105Y86D01*
Y74D01*
X2109Y63D01*
X2114Y53D01*
X2123Y44D01*
X2133Y39D01*
X2144Y35D01*
X2156D01*
X2167Y39D01*
X2177Y44D01*
X2186Y53D01*
X2191Y63D01*
X2195Y74D01*
Y86D01*
X2191Y97D01*
X2186Y107D01*
X2177Y116D01*
X2167Y121D01*
X2156Y125D01*
D02*
G37*
G36*
X2056D02*
X2044D01*
X2033Y121D01*
X2023Y116D01*
X2014Y107D01*
X2009Y97D01*
X2005Y86D01*
Y74D01*
X2009Y63D01*
X2014Y53D01*
X2023Y44D01*
X2033Y39D01*
X2044Y35D01*
X2056D01*
X2067Y39D01*
X2077Y44D01*
X2086Y53D01*
X2091Y63D01*
X2095Y74D01*
Y86D01*
X2091Y97D01*
X2086Y107D01*
X2077Y116D01*
X2067Y121D01*
X2056Y125D01*
D02*
G37*
G36*
X1956D02*
X1944D01*
X1933Y121D01*
X1923Y116D01*
X1914Y107D01*
X1909Y97D01*
X1905Y86D01*
Y74D01*
X1909Y63D01*
X1914Y53D01*
X1923Y44D01*
X1933Y39D01*
X1944Y35D01*
X1956D01*
X1967Y39D01*
X1977Y44D01*
X1986Y53D01*
X1991Y63D01*
X1995Y74D01*
Y86D01*
X1991Y97D01*
X1986Y107D01*
X1977Y116D01*
X1967Y121D01*
X1956Y125D01*
D02*
G37*
G36*
X1856D02*
X1844D01*
X1833Y121D01*
X1823Y116D01*
X1814Y107D01*
X1809Y97D01*
X1805Y86D01*
Y74D01*
X1809Y63D01*
X1814Y53D01*
X1823Y44D01*
X1833Y39D01*
X1844Y35D01*
X1856D01*
X1867Y39D01*
X1877Y44D01*
X1886Y53D01*
X1891Y63D01*
X1895Y74D01*
Y86D01*
X1891Y97D01*
X1886Y107D01*
X1877Y116D01*
X1867Y121D01*
X1856Y125D01*
D02*
G37*
G36*
X1756D02*
X1744D01*
X1733Y121D01*
X1723Y116D01*
X1714Y107D01*
X1709Y97D01*
X1705Y86D01*
Y74D01*
X1709Y63D01*
X1714Y53D01*
X1723Y44D01*
X1733Y39D01*
X1744Y35D01*
X1756D01*
X1767Y39D01*
X1777Y44D01*
X1786Y53D01*
X1791Y63D01*
X1795Y74D01*
Y86D01*
X1791Y97D01*
X1786Y107D01*
X1777Y116D01*
X1767Y121D01*
X1756Y125D01*
D02*
G37*
G36*
X1556D02*
X1544D01*
X1533Y121D01*
X1523Y116D01*
X1514Y107D01*
X1509Y97D01*
X1505Y86D01*
Y74D01*
X1509Y63D01*
X1514Y53D01*
X1523Y44D01*
X1533Y39D01*
X1544Y35D01*
X1556D01*
X1567Y39D01*
X1577Y44D01*
X1586Y53D01*
X1591Y63D01*
X1595Y74D01*
Y86D01*
X1591Y97D01*
X1586Y107D01*
X1577Y116D01*
X1567Y121D01*
X1556Y125D01*
D02*
G37*
G36*
X1456D02*
X1444D01*
X1433Y121D01*
X1423Y116D01*
X1414Y107D01*
X1409Y97D01*
X1405Y86D01*
Y74D01*
X1409Y63D01*
X1414Y53D01*
X1423Y44D01*
X1433Y39D01*
X1444Y35D01*
X1456D01*
X1467Y39D01*
X1477Y44D01*
X1486Y53D01*
X1491Y63D01*
X1495Y74D01*
Y86D01*
X1491Y97D01*
X1486Y107D01*
X1477Y116D01*
X1467Y121D01*
X1456Y125D01*
D02*
G37*
G36*
X1356D02*
X1344D01*
X1333Y121D01*
X1323Y116D01*
X1314Y107D01*
X1309Y97D01*
X1305Y86D01*
Y74D01*
X1309Y63D01*
X1314Y53D01*
X1323Y44D01*
X1333Y39D01*
X1344Y35D01*
X1356D01*
X1367Y39D01*
X1377Y44D01*
X1386Y53D01*
X1391Y63D01*
X1395Y74D01*
Y86D01*
X1391Y97D01*
X1386Y107D01*
X1377Y116D01*
X1367Y121D01*
X1356Y125D01*
D02*
G37*
G36*
X1256D02*
X1244D01*
X1233Y121D01*
X1223Y116D01*
X1214Y107D01*
X1209Y97D01*
X1205Y86D01*
Y74D01*
X1209Y63D01*
X1214Y53D01*
X1223Y44D01*
X1233Y39D01*
X1244Y35D01*
X1256D01*
X1267Y39D01*
X1277Y44D01*
X1286Y53D01*
X1291Y63D01*
X1295Y74D01*
Y86D01*
X1291Y97D01*
X1286Y107D01*
X1277Y116D01*
X1267Y121D01*
X1256Y125D01*
D02*
G37*
G36*
X1156D02*
X1144D01*
X1133Y121D01*
X1123Y116D01*
X1114Y107D01*
X1109Y97D01*
X1105Y86D01*
Y74D01*
X1109Y63D01*
X1114Y53D01*
X1123Y44D01*
X1133Y39D01*
X1144Y35D01*
X1156D01*
X1167Y39D01*
X1177Y44D01*
X1186Y53D01*
X1191Y63D01*
X1195Y74D01*
Y86D01*
X1191Y97D01*
X1186Y107D01*
X1177Y116D01*
X1167Y121D01*
X1156Y125D01*
D02*
G37*
G36*
X856D02*
X844D01*
X833Y121D01*
X823Y116D01*
X814Y107D01*
X809Y97D01*
X805Y86D01*
Y74D01*
X809Y63D01*
X814Y53D01*
X823Y44D01*
X833Y39D01*
X844Y35D01*
X856D01*
X867Y39D01*
X877Y44D01*
X886Y53D01*
X891Y63D01*
X895Y74D01*
Y86D01*
X891Y97D01*
X886Y107D01*
X877Y116D01*
X867Y121D01*
X856Y125D01*
D02*
G37*
G36*
X756D02*
X744D01*
X733Y121D01*
X723Y116D01*
X714Y107D01*
X709Y97D01*
X705Y86D01*
Y74D01*
X709Y63D01*
X714Y53D01*
X723Y44D01*
X733Y39D01*
X744Y35D01*
X756D01*
X767Y39D01*
X777Y44D01*
X786Y53D01*
X791Y63D01*
X795Y74D01*
Y86D01*
X791Y97D01*
X786Y107D01*
X777Y116D01*
X767Y121D01*
X756Y125D01*
D02*
G37*
G36*
X656D02*
X644D01*
X633Y121D01*
X623Y116D01*
X614Y107D01*
X609Y97D01*
X605Y86D01*
Y74D01*
X609Y63D01*
X614Y53D01*
X623Y44D01*
X633Y39D01*
X644Y35D01*
X656D01*
X667Y39D01*
X677Y44D01*
X686Y53D01*
X691Y63D01*
X695Y74D01*
Y86D01*
X691Y97D01*
X686Y107D01*
X677Y116D01*
X667Y121D01*
X656Y125D01*
D02*
G37*
G36*
X556D02*
X544D01*
X533Y121D01*
X523Y116D01*
X514Y107D01*
X509Y97D01*
X505Y86D01*
Y74D01*
X509Y63D01*
X514Y53D01*
X523Y44D01*
X533Y39D01*
X544Y35D01*
X556D01*
X567Y39D01*
X577Y44D01*
X586Y53D01*
X591Y63D01*
X595Y74D01*
Y86D01*
X591Y97D01*
X586Y107D01*
X577Y116D01*
X567Y121D01*
X556Y125D01*
D02*
G37*
%LPD*%
D12*
X2390Y730D02*
X2392Y731D01*
X2442D02*
X2443Y732D01*
X2392Y731D02*
X2442D01*
X2390Y783D02*
X2443D01*
Y707D02*
X2491D01*
X2443Y758D02*
X2492D01*
X2665Y783D02*
X2666Y783D01*
X2710D01*
X2710Y783D01*
X2665Y707D02*
X2710D01*
X2740Y825D02*
X2740Y825D01*
X2316Y893D02*
Y920D01*
X2315Y893D02*
X2316Y893D01*
Y920D02*
X2316Y920D01*
X2270Y893D02*
Y920D01*
X1324Y258D02*
X1324Y258D01*
X1279Y258D02*
X1324D01*
X1234Y692D02*
X1287D01*
X1611Y593D02*
X1644D01*
X1645Y592D01*
X1610Y594D02*
X1611Y593D01*
X1501Y284D02*
X1501Y284D01*
X1552D02*
X1552Y284D01*
X1501Y284D02*
X1552D01*
X1501Y310D02*
X1501Y309D01*
X1576D01*
X1577Y310D01*
X1501Y335D02*
X1501Y335D01*
X1554D02*
X1554Y335D01*
X1501Y335D02*
X1554D01*
X1501Y259D02*
X1573D01*
X1501Y259D02*
X1501Y259D01*
X1573D02*
X1573Y259D01*
X1279Y259D02*
X1279Y258D01*
X2292Y650D02*
X2292Y651D01*
X2241Y650D02*
X2292D01*
X2241Y650D02*
X2241Y650D01*
X2819Y825D02*
X2870D01*
X2870Y825D01*
X2818Y825D02*
X2819Y825D01*
X2298Y325D02*
X2328D01*
X2773Y448D02*
X2800D01*
X2740Y793D02*
Y825D01*
Y793D02*
X2740Y793D01*
X2845Y555D02*
Y583D01*
X2800Y555D02*
Y583D01*
X2303Y247D02*
X2334D01*
X2303Y448D02*
X2334D01*
X2298Y370D02*
X2328D01*
X1099Y459D02*
Y487D01*
X1144Y459D02*
Y487D01*
X1141Y795D02*
X1171D01*
X1144Y594D02*
X1171D01*
X926Y623D02*
X955D01*
X927Y672D02*
X957D01*
X927Y719D02*
X957D01*
X1652Y391D02*
X1652Y391D01*
X1703D01*
X1704Y391D01*
X1629Y122D02*
Y149D01*
X1674Y122D02*
Y149D01*
X1074Y217D02*
X1126D01*
X1204Y217D02*
X1204Y217D01*
X1616Y717D02*
X1646D01*
X1616Y672D02*
X1646D01*
X1610Y795D02*
X1641D01*
X1204Y249D02*
X1204Y249D01*
Y217D02*
Y249D01*
X277Y500D02*
X277Y500D01*
X308D01*
X308Y500D01*
X310Y575D02*
X310Y575D01*
X277Y575D02*
X277Y575D01*
X310D01*
X78Y537D02*
X78Y538D01*
X469Y594D02*
X498D01*
X469Y719D02*
X500D01*
X549Y644D02*
X611D01*
X140Y381D02*
X178D01*
X270D02*
X308D01*
X315Y780D02*
X315Y780D01*
X315Y812D02*
X315Y812D01*
D16*
X2443Y860D02*
D03*
Y835D02*
D03*
Y809D02*
D03*
Y783D02*
D03*
Y758D02*
D03*
Y732D02*
D03*
Y707D02*
D03*
Y681D02*
D03*
Y655D02*
D03*
Y630D02*
D03*
X2665Y630D02*
D03*
Y655D02*
D03*
Y681D02*
D03*
Y707D02*
D03*
Y732D02*
D03*
Y758D02*
D03*
Y783D02*
D03*
Y809D02*
D03*
Y835D02*
D03*
Y860D02*
D03*
X1501Y182D02*
D03*
Y207D02*
D03*
Y233D02*
D03*
Y259D02*
D03*
Y284D02*
D03*
Y310D02*
D03*
Y335D02*
D03*
Y361D02*
D03*
Y387D02*
D03*
Y412D02*
D03*
X1279Y412D02*
D03*
Y387D02*
D03*
Y361D02*
D03*
Y335D02*
D03*
Y310D02*
D03*
Y284D02*
D03*
Y259D02*
D03*
Y233D02*
D03*
Y207D02*
D03*
Y182D02*
D03*
D17*
X570Y913D02*
D03*
X604D02*
D03*
X2773Y247D02*
D03*
X2740D02*
D03*
X2773Y209D02*
D03*
X2740D02*
D03*
X2367D02*
D03*
X2334D02*
D03*
Y247D02*
D03*
X2367D02*
D03*
X2733Y129D02*
D03*
X2700D02*
D03*
X2407D02*
D03*
X2374D02*
D03*
X2741Y285D02*
D03*
X2774D02*
D03*
X2334Y285D02*
D03*
X2367D02*
D03*
X2740Y410D02*
D03*
X2773D02*
D03*
X2332D02*
D03*
X2365D02*
D03*
X2733Y565D02*
D03*
X2700D02*
D03*
X2407Y564D02*
D03*
X2374D02*
D03*
X2773Y486D02*
D03*
X2740D02*
D03*
X2367D02*
D03*
X2334D02*
D03*
X2740Y448D02*
D03*
X2773D02*
D03*
X2367Y448D02*
D03*
X2334D02*
D03*
X1204Y795D02*
D03*
X1171D02*
D03*
X1610Y833D02*
D03*
X1577D02*
D03*
X1204D02*
D03*
X1171D02*
D03*
X1577Y795D02*
D03*
X1610D02*
D03*
X1286Y894D02*
D03*
X1252D02*
D03*
X1527D02*
D03*
X1493D02*
D03*
X1170Y757D02*
D03*
X1203D02*
D03*
X1577Y757D02*
D03*
X1610D02*
D03*
X1171Y632D02*
D03*
X1204D02*
D03*
X1579D02*
D03*
X1612D02*
D03*
X1204Y556D02*
D03*
X1171D02*
D03*
X1610D02*
D03*
X1577D02*
D03*
X1244Y477D02*
D03*
X1211D02*
D03*
X1570Y478D02*
D03*
X1537D02*
D03*
X1171Y594D02*
D03*
X1204D02*
D03*
X1610Y594D02*
D03*
X1577D02*
D03*
X498Y547D02*
D03*
X532D02*
D03*
D18*
X518Y914D02*
D03*
X459Y914D02*
D03*
D19*
X3095Y168D02*
D03*
Y278D02*
D03*
X445Y321D02*
D03*
Y211D02*
D03*
X80D02*
D03*
Y321D02*
D03*
D20*
X1493Y542D02*
D03*
Y592D02*
D03*
Y642D02*
D03*
Y692D02*
D03*
Y742D02*
D03*
Y792D02*
D03*
Y842D02*
D03*
X1287Y542D02*
D03*
Y592D02*
D03*
Y642D02*
D03*
Y692D02*
D03*
Y742D02*
D03*
Y792D02*
D03*
Y842D02*
D03*
X2451Y500D02*
D03*
Y450D02*
D03*
Y400D02*
D03*
Y350D02*
D03*
Y300D02*
D03*
Y250D02*
D03*
Y200D02*
D03*
X2657Y500D02*
D03*
Y450D02*
D03*
Y400D02*
D03*
Y350D02*
D03*
Y300D02*
D03*
Y250D02*
D03*
Y200D02*
D03*
X611Y794D02*
D03*
Y744D02*
D03*
Y694D02*
D03*
Y644D02*
D03*
Y594D02*
D03*
Y544D02*
D03*
Y494D02*
D03*
X817Y794D02*
D03*
Y744D02*
D03*
Y694D02*
D03*
Y644D02*
D03*
Y594D02*
D03*
Y544D02*
D03*
Y494D02*
D03*
D21*
X2818Y675D02*
D03*
Y725D02*
D03*
Y775D02*
D03*
Y825D02*
D03*
X3012D02*
D03*
Y775D02*
D03*
Y725D02*
D03*
Y675D02*
D03*
X2292Y801D02*
D03*
Y751D02*
D03*
Y701D02*
D03*
Y651D02*
D03*
X2098D02*
D03*
Y701D02*
D03*
Y751D02*
D03*
Y801D02*
D03*
X932Y367D02*
D03*
Y317D02*
D03*
Y267D02*
D03*
Y217D02*
D03*
X1126D02*
D03*
Y267D02*
D03*
Y317D02*
D03*
Y367D02*
D03*
X1846Y241D02*
D03*
Y291D02*
D03*
Y341D02*
D03*
Y391D02*
D03*
X1652D02*
D03*
Y341D02*
D03*
Y291D02*
D03*
Y241D02*
D03*
D22*
X2942Y895D02*
D03*
X2999D02*
D03*
X2169Y580D02*
D03*
X2112D02*
D03*
X3097Y775D02*
D03*
X3154D02*
D03*
X2014Y701D02*
D03*
X1957D02*
D03*
X3097Y675D02*
D03*
X3154D02*
D03*
X2014Y801D02*
D03*
X1957D02*
D03*
X2942Y605D02*
D03*
X2999D02*
D03*
X2169Y867D02*
D03*
X2112D02*
D03*
X945Y147D02*
D03*
X1002D02*
D03*
X1832Y462D02*
D03*
X1775D02*
D03*
X790Y267D02*
D03*
X847D02*
D03*
X1987Y341D02*
D03*
X1930D02*
D03*
X790Y367D02*
D03*
X847D02*
D03*
X1987Y241D02*
D03*
X1930D02*
D03*
X945Y437D02*
D03*
X1002D02*
D03*
X1832Y175D02*
D03*
X1775D02*
D03*
X526Y777D02*
D03*
X469D02*
D03*
X957D02*
D03*
X900D02*
D03*
X744Y859D02*
D03*
X686D02*
D03*
X354Y324D02*
D03*
X296D02*
D03*
X224D02*
D03*
X166D02*
D03*
D23*
X2739Y169D02*
D03*
X2774D02*
D03*
X2333D02*
D03*
X2368D02*
D03*
X2363Y325D02*
D03*
X2328D02*
D03*
X2328Y370D02*
D03*
X2363D02*
D03*
X2739Y526D02*
D03*
X2774D02*
D03*
X2333D02*
D03*
X2368D02*
D03*
X1170Y873D02*
D03*
X1205D02*
D03*
X1576D02*
D03*
X1611D02*
D03*
X1616Y717D02*
D03*
X1581D02*
D03*
X1581Y672D02*
D03*
X1616D02*
D03*
X1170Y516D02*
D03*
X1205D02*
D03*
X1576D02*
D03*
X1611D02*
D03*
X243Y575D02*
D03*
X277D02*
D03*
X927Y670D02*
D03*
X893D02*
D03*
X927Y719D02*
D03*
X893D02*
D03*
X498Y499D02*
D03*
X532D02*
D03*
X500Y719D02*
D03*
X535D02*
D03*
X893Y620D02*
D03*
X927D02*
D03*
X893Y834D02*
D03*
X927D02*
D03*
X277Y500D02*
D03*
X243D02*
D03*
X212Y381D02*
D03*
X178D02*
D03*
X342D02*
D03*
X308D02*
D03*
X498Y594D02*
D03*
X532D02*
D03*
X500Y834D02*
D03*
X535D02*
D03*
D24*
X2845Y618D02*
D03*
Y583D02*
D03*
X2800Y583D02*
D03*
Y618D02*
D03*
X2315Y893D02*
D03*
Y858D02*
D03*
X2740Y793D02*
D03*
Y758D02*
D03*
X2270Y858D02*
D03*
Y893D02*
D03*
X1204Y284D02*
D03*
Y249D02*
D03*
X1099Y459D02*
D03*
Y424D02*
D03*
X1674Y149D02*
D03*
Y184D02*
D03*
X1629Y184D02*
D03*
Y149D02*
D03*
X1144Y424D02*
D03*
Y459D02*
D03*
X315Y846D02*
D03*
Y812D02*
D03*
D25*
X78Y575D02*
D03*
Y538D02*
D03*
Y500D02*
D03*
X180D02*
D03*
Y575D02*
D03*
D26*
X1005Y625D02*
D03*
Y683D02*
D03*
D27*
X155Y711D02*
D03*
X265D02*
D03*
X315Y211D02*
D03*
X205D02*
D03*
D28*
X70Y781D02*
D03*
Y846D02*
D03*
D29*
X379Y787D02*
D03*
Y846D02*
D03*
D30*
X174Y846D02*
D03*
X235D02*
D03*
D31*
X444Y627D02*
D03*
Y660D02*
D03*
D49*
X2608Y578D02*
Y665D01*
X2625Y682D02*
X2663D01*
X2608Y665D02*
X2625Y682D01*
X2442Y656D02*
X2442Y656D01*
X2392Y656D02*
X2442D01*
X2498Y577D02*
Y664D01*
X2407Y564D02*
X2486D01*
X2498Y577D01*
X2665Y860D02*
X2759D01*
X2768Y783D02*
Y851D01*
X2759Y860D02*
X2768Y851D01*
X2539Y153D02*
Y757D01*
X2350Y643D02*
X2364Y630D01*
X2443D01*
X2665Y630D02*
X2759D01*
X2768Y639D02*
Y718D01*
X2759Y630D02*
X2768Y639D01*
X2664Y656D02*
X2715D01*
X2715Y656D01*
X2482Y681D02*
X2498Y664D01*
X2443Y681D02*
X2482D01*
X2665Y758D02*
X2740D01*
X2740Y758D01*
X2487Y809D02*
X2539Y757D01*
X2443Y809D02*
X2487D01*
X2443Y835D02*
X2507D01*
X2369Y860D02*
X2443D01*
X2350Y841D02*
X2369Y860D01*
X2350Y756D02*
Y841D01*
X2345Y751D02*
X2350Y756D01*
X2292Y751D02*
X2345D01*
X2620Y809D02*
X2663D01*
X2567Y757D02*
X2620Y809D01*
X2567Y153D02*
Y757D01*
Y153D02*
X2591Y129D01*
X2700D01*
X2601Y835D02*
X2664D01*
X2775Y725D02*
X2818D01*
X2768Y718D02*
X2775Y725D01*
X2350Y643D02*
Y695D01*
X2345Y701D02*
X2350Y695D01*
X2292Y701D02*
X2345D01*
X2515Y129D02*
X2539Y153D01*
X2407Y129D02*
X2515D01*
X2740Y725D02*
Y758D01*
X2775Y775D02*
X2818D01*
X2768Y783D02*
X2775Y775D01*
X2608Y578D02*
X2621Y565D01*
X2700D01*
X2800Y618D02*
Y668D01*
X1333Y894D02*
X1360D01*
X1286D02*
X1333D01*
X790Y237D02*
X806Y221D01*
X815D02*
X818Y218D01*
X806Y221D02*
X815D01*
X790Y237D02*
Y267D01*
X1384Y905D02*
X1414Y935D01*
X1889D02*
X1903Y921D01*
X1414Y935D02*
X1889D01*
X1638Y917D02*
X1650Y905D01*
X1415Y917D02*
X1638D01*
X1397Y899D02*
X1415Y917D01*
X1384Y221D02*
Y905D01*
X1422Y894D02*
X1493D01*
X1410Y280D02*
Y882D01*
X1422Y894D01*
X1903Y921D02*
X1950D01*
X1950Y920D01*
X1087Y932D02*
X1088D01*
X1055Y900D02*
X1087Y932D01*
X2220Y701D02*
X2222D01*
X2195Y726D02*
X2220Y701D01*
X2374Y924D02*
X2376Y923D01*
X2389D02*
X2416Y895D01*
X2376Y923D02*
X2389D01*
X2416Y895D02*
X2910D01*
X2422Y924D02*
X2805D01*
X2140Y912D02*
X2160Y892D01*
Y877D02*
Y892D01*
X2050Y912D02*
X2140D01*
X2160Y877D02*
X2169Y867D01*
X2200D01*
X426Y914D02*
X459D01*
X604Y913D02*
X637D01*
X604Y913D02*
X604Y913D01*
X637D02*
X637Y912D01*
X518Y915D02*
X520Y913D01*
X570D01*
X2038Y651D02*
X2098D01*
X2098Y651D01*
X2038Y651D02*
X2038Y651D01*
X1244Y447D02*
Y477D01*
X2700Y129D02*
Y160D01*
X2407Y129D02*
Y155D01*
X2700Y565D02*
Y595D01*
X2407Y564D02*
Y589D01*
X1244Y477D02*
X1323D01*
X457Y211D02*
X506Y161D01*
X635D01*
X1371Y277D02*
Y883D01*
X1397Y218D02*
Y899D01*
X1446Y378D02*
Y465D01*
X1458Y478D01*
X1323Y477D02*
X1336Y464D01*
Y377D02*
Y464D01*
X1288Y541D02*
X1346D01*
X1287Y542D02*
X1288Y541D01*
X180Y575D02*
Y627D01*
X180Y575D02*
X180Y575D01*
X1537Y478D02*
X1542Y472D01*
Y459D02*
Y472D01*
X1553Y448D02*
X1617D01*
X1542Y459D02*
X1553Y448D01*
X931Y217D02*
X932Y217D01*
X870Y217D02*
X931D01*
X869Y217D02*
X870Y217D01*
X932Y317D02*
X1000D01*
X3080Y825D02*
X3080Y825D01*
X3012Y825D02*
X3012Y825D01*
X3080D01*
X2773Y247D02*
X2803D01*
X2657Y350D02*
X2715D01*
X2657Y350D02*
X2657Y350D01*
X2715D02*
X2715Y350D01*
X686Y538D02*
X742Y594D01*
X686Y212D02*
Y538D01*
X742Y594D02*
X817D01*
X635Y161D02*
X686Y212D01*
X445Y211D02*
X457D01*
X735Y215D02*
Y469D01*
X760Y494D01*
X817D01*
X538D02*
X541Y491D01*
X533Y499D02*
X538Y494D01*
X611D01*
X541Y490D02*
Y491D01*
X579Y217D02*
Y453D01*
X532Y499D02*
X533D01*
X541Y490D02*
X579Y453D01*
X2890Y725D02*
X2927Y763D01*
Y765D01*
X2910Y895D02*
X2942D01*
X2218Y751D02*
X2292D01*
X1750Y905D02*
X1832Y823D01*
Y673D02*
Y823D01*
X1749Y589D02*
X1832Y673D01*
X1749Y487D02*
X1774Y462D01*
X1749Y487D02*
Y589D01*
X1599Y291D02*
X1726D01*
X1397Y218D02*
X1433Y182D01*
X1345Y182D02*
X1384Y221D01*
X1360Y894D02*
X1371Y883D01*
X1410Y280D02*
X1457Y233D01*
X1327D02*
X1371Y277D01*
X1287Y842D02*
X1346D01*
X1436Y542D02*
X1493D01*
X1436Y842D02*
X1493D01*
X1436Y208D02*
X1499D01*
X1216Y642D02*
X1287D01*
X1493Y792D02*
X1501Y799D01*
X1532D01*
X1493Y692D02*
X1560D01*
X1258Y792D02*
X1287D01*
X1224Y826D02*
X1258Y792D01*
X1493Y742D02*
X1560D01*
X1220D02*
X1287D01*
X1235Y585D02*
X1281D01*
X1206Y556D02*
X1235Y585D01*
X1495Y590D02*
X1541D01*
X1493Y592D02*
X1495Y590D01*
X1493Y642D02*
X1567D01*
X1281Y585D02*
X1287Y592D01*
X1577Y632D02*
X1579D01*
X1567Y642D02*
X1577Y632D01*
X1575Y556D02*
X1577D01*
X1541Y590D02*
X1575Y556D01*
X1204D02*
X1206D01*
X1205Y757D02*
X1220Y742D01*
X1203Y757D02*
X1205D01*
X1575Y757D02*
X1577D01*
X1560Y742D02*
X1575Y757D01*
X1211Y826D02*
X1224D01*
X1204Y833D02*
X1211Y826D01*
X1580Y672D02*
X1581D01*
X1560Y692D02*
X1580Y672D01*
X1570Y826D02*
X1577Y833D01*
X1559Y826D02*
X1570D01*
X1532Y799D02*
X1559Y826D01*
X1206Y632D02*
X1216Y642D01*
X1204Y632D02*
X1206D01*
X1227Y894D02*
X1252D01*
X1206Y873D02*
X1227Y894D01*
X1205Y873D02*
X1206D01*
X1554Y894D02*
X1575Y873D01*
X1576D01*
X1527Y894D02*
X1554D01*
X1744Y462D02*
X1774D01*
X1775D01*
X1433Y182D02*
X1501D01*
X1457Y233D02*
X1501D01*
X2818Y725D02*
X2890D01*
X1126Y317D02*
X1169D01*
X1055D02*
X1126D01*
X2818Y775D02*
X2890D01*
X1126Y267D02*
X1169D01*
X1055D02*
X1126D01*
X1055Y590D02*
Y900D01*
X1039Y574D02*
X1055Y590D01*
X1039Y431D02*
Y574D01*
X2905Y611D02*
Y710D01*
X1279Y182D02*
X1345D01*
X2200Y580D02*
X2206Y586D01*
Y685D01*
X2222Y701D02*
X2292D01*
X2206Y762D02*
X2218Y751D01*
X2206Y762D02*
Y861D01*
X1002Y437D02*
X1034D01*
X1611Y557D02*
X1645D01*
X1646Y558D01*
X1610Y556D02*
X1611Y557D01*
X1612Y632D02*
X1646D01*
X1065Y424D02*
X1099D01*
X1099Y424D01*
X1279Y335D02*
X1324D01*
X1324Y335D01*
X1279Y335D02*
X1279Y335D01*
X1281Y233D02*
X1327D01*
X2949Y726D02*
X2949Y726D01*
X3012D02*
X3012Y725D01*
X2949Y726D02*
X3012D01*
X1501Y387D02*
X1501Y387D01*
X1551D01*
X1228Y387D02*
X1228Y387D01*
X1279D01*
X1462Y361D02*
X1501D01*
X1446Y378D02*
X1462Y361D01*
X1279Y207D02*
X1342D01*
X817Y494D02*
Y544D01*
X1005Y586D02*
Y625D01*
X1005Y625D02*
X1005Y625D01*
X817Y544D02*
X873D01*
X611Y494D02*
Y544D01*
X532Y547D02*
Y594D01*
X532Y547D02*
X532Y547D01*
Y594D02*
X611D01*
X1789Y350D02*
Y419D01*
Y350D02*
X1797Y341D01*
X1789Y419D02*
X1831Y462D01*
X1797Y341D02*
X1930D01*
X2905Y791D02*
Y890D01*
X2998Y895D02*
X2999D01*
X2984Y881D02*
Y882D01*
X2998Y895D01*
X2984Y881D02*
Y882D01*
X2998Y895D02*
X2999D01*
X2984Y882D02*
X2998Y895D01*
X2905Y890D02*
X2910Y895D01*
X2950Y847D02*
X2984Y881D01*
X2950Y847D02*
X2984Y881D01*
X2241Y858D02*
X2270D01*
X2270Y858D01*
X2315D01*
X2200Y867D02*
X2206Y861D01*
X1832Y175D02*
Y234D01*
X2724Y300D02*
X2739Y285D01*
X2657Y300D02*
X2724D01*
X2368Y135D02*
X2374Y129D01*
X2241Y285D02*
X2334D01*
X1832Y234D02*
X1839Y241D01*
X1987D02*
Y277D01*
X1839Y241D02*
X1930D01*
X2905Y611D02*
X2910Y605D01*
X2942D01*
X2845Y618D02*
X2870D01*
X2999Y605D02*
Y668D01*
Y605D02*
Y668D01*
X3154Y775D02*
Y809D01*
X3006Y675D02*
X3012D01*
X3154D02*
Y710D01*
X2773Y486D02*
X2774Y487D01*
X2664Y457D02*
X2709D01*
X2738Y486D01*
X2740D01*
X2657Y450D02*
X2664Y457D01*
X2773Y486D02*
X2802D01*
X2774Y487D02*
Y526D01*
X2740Y486D02*
Y525D01*
X2728Y400D02*
X2738Y410D01*
X2740D02*
Y448D01*
X2738Y410D02*
X2740D01*
X2657Y400D02*
X2728D01*
X2858Y410D02*
X2858Y409D01*
X2773Y381D02*
Y409D01*
X2774Y410D01*
X2858D01*
X2950Y785D02*
Y847D01*
Y785D02*
Y847D01*
X2602Y500D02*
X2657D01*
X2739Y526D02*
X2740Y525D01*
X2733Y565D02*
X2739Y560D01*
Y526D02*
Y560D01*
X3012Y775D02*
X3097D01*
X2960D02*
X3012D01*
X3097D01*
X2960D02*
X3012D01*
X2890D02*
X2905Y791D01*
X2950Y785D02*
X2960Y775D01*
X2950Y785D02*
X2960Y775D01*
X2807Y675D02*
X2818D01*
X2800Y668D02*
X2807Y675D01*
X2845Y618D02*
X2845Y618D01*
X2800Y618D02*
X2845D01*
X3012Y675D02*
X3097D01*
X3006D02*
X3012D01*
X2999Y668D02*
X3006Y675D01*
X3012D02*
X3097D01*
X2999Y668D02*
X3006Y675D01*
X2890Y725D02*
X2905Y710D01*
X2333Y169D02*
Y209D01*
X2385Y216D02*
X2412Y243D01*
X2374Y216D02*
X2385D01*
X2412Y243D02*
X2443D01*
X2451Y250D01*
Y200D02*
X2505D01*
X2602D02*
X2657D01*
Y250D02*
X2686D01*
X2720Y216D01*
X2740Y247D02*
X2741Y248D01*
X2803Y285D02*
X2803Y285D01*
X2774Y285D02*
X2774Y285D01*
X2741Y248D02*
Y285D01*
X2739D02*
X2741D01*
X2774Y285D02*
X2803D01*
X2368Y135D02*
Y169D01*
X2367Y170D02*
X2368Y169D01*
X2367Y209D02*
X2374Y216D01*
X2367Y170D02*
Y209D01*
Y247D02*
Y285D01*
X2369D01*
X2333Y209D02*
X2334Y209D01*
X2303D02*
X2334D01*
X2334Y285D02*
X2334Y285D01*
X2720Y216D02*
X2733D01*
X2773Y209D02*
X2803D01*
X2733Y216D02*
X2740Y209D01*
X2773D02*
X2774Y209D01*
X2740Y170D02*
Y209D01*
X2733Y129D02*
X2739Y135D01*
Y169D01*
X2774D02*
Y209D01*
X2739Y169D02*
X2740Y170D01*
X2333Y526D02*
X2334Y525D01*
X2303Y486D02*
X2334D01*
X2331Y410D02*
X2332Y410D01*
X2334Y486D02*
Y525D01*
X2363Y325D02*
Y370D01*
X2363Y370D02*
X2364D01*
X2365Y410D02*
X2367D01*
X2365D02*
X2367Y412D01*
Y448D01*
X2367Y410D02*
X2377Y400D01*
X2367Y486D02*
X2369D01*
X2397Y458D01*
X2367Y486D02*
Y525D01*
X2364Y370D02*
X2384Y350D01*
X2363Y370D02*
X2363Y370D01*
X2014Y801D02*
X2105D01*
X1957Y765D02*
Y801D01*
X2014D02*
X2105D01*
X2369Y285D02*
X2384Y300D01*
X2303Y409D02*
X2304Y410D01*
X2331D01*
X2363Y325D02*
X2390D01*
X1987Y341D02*
Y378D01*
X2384Y350D02*
X2451D01*
X2384Y300D02*
X2451D01*
X2443Y458D02*
X2451Y450D01*
X2397Y458D02*
X2410D01*
X2377Y400D02*
X2451D01*
X2410Y458D02*
X2410Y458D01*
X2443D01*
X2206Y685D02*
X2222Y701D01*
X2292Y801D02*
X2308D01*
X2315Y808D01*
X2169Y580D02*
X2200D01*
X2112D02*
X2113D01*
X2155Y623D01*
X2112Y580D02*
X2113D01*
X2155Y623D01*
X2105Y801D02*
X2112Y808D01*
Y867D01*
X2105Y801D02*
X2112Y808D01*
Y867D01*
X2315Y808D02*
Y858D01*
X2155Y623D02*
Y692D01*
X2147Y701D02*
X2155Y692D01*
X2014Y701D02*
X2147D01*
X2014D02*
X2147D01*
X2155Y692D01*
Y623D02*
Y692D01*
X1957Y664D02*
Y701D01*
X2451Y500D02*
X2505D01*
X2368Y526D02*
Y559D01*
X2374Y564D01*
X2367Y525D02*
X2368Y526D01*
X1099Y424D02*
X1144D01*
X1034Y437D02*
X1039Y431D01*
X1185Y412D02*
X1279D01*
X847Y367D02*
X932D01*
X938D02*
X945Y374D01*
X932Y367D02*
X938D01*
X790Y332D02*
Y367D01*
X1205Y482D02*
X1211Y477D01*
X1205Y482D02*
Y516D01*
X1204Y517D02*
Y556D01*
X1170Y516D02*
Y555D01*
X1204Y517D02*
X1205Y516D01*
X945Y374D02*
Y437D01*
X1176Y403D02*
X1185Y412D01*
X1144Y374D02*
Y424D01*
X1137Y367D02*
X1144Y374D01*
X1126Y367D02*
X1137D01*
X1176Y324D02*
Y403D01*
X1039Y332D02*
Y431D01*
X1171Y633D02*
Y661D01*
X1086Y633D02*
X1086Y632D01*
X1170D01*
X1171Y633D01*
X1203Y794D02*
X1204Y795D01*
X1204Y872D02*
X1205Y873D01*
X1170Y833D02*
Y873D01*
X1141Y833D02*
X1171D01*
X1204D02*
Y872D01*
X1170Y833D02*
X1171Y833D01*
X1141Y757D02*
X1141Y757D01*
X1203Y757D02*
Y794D01*
X1141Y757D02*
X1170D01*
X1170Y757D01*
X1204Y594D02*
Y632D01*
X1170Y555D02*
X1171Y556D01*
X1143D02*
X1171D01*
X1576Y873D02*
X1577Y872D01*
X1610Y833D02*
X1611Y833D01*
X1577Y833D02*
Y872D01*
X1610Y833D02*
X1641D01*
X1611Y833D02*
Y873D01*
X893Y624D02*
Y670D01*
Y587D02*
Y620D01*
X893Y620D02*
X893Y620D01*
X882Y631D02*
X891Y623D01*
X882Y631D02*
Y631D01*
X893Y670D02*
Y672D01*
X884Y694D02*
X893Y702D01*
Y719D01*
X893Y719D01*
Y772D01*
X1005Y683D02*
Y757D01*
X985Y777D02*
X1005Y757D01*
X893Y772D02*
X900Y779D01*
X957Y777D02*
X985D01*
X957D02*
Y805D01*
X927Y834D02*
X928D01*
X957Y805D01*
X1652Y341D02*
X1722D01*
X1580Y412D02*
X1594Y399D01*
X1599Y341D02*
X1652D01*
X1594Y347D02*
X1599Y341D01*
X1501Y412D02*
X1580D01*
X1594Y347D02*
Y399D01*
X1319Y360D02*
X1336Y377D01*
X1281Y360D02*
X1319D01*
X1726Y291D02*
X1738Y280D01*
Y357D02*
Y456D01*
X1722Y341D02*
X1738Y357D01*
X1674Y184D02*
X1674Y184D01*
X1629Y184D02*
X1674D01*
X1744Y175D02*
X1775D01*
X1674Y184D02*
X1703D01*
X1738Y181D02*
X1744Y175D01*
X945Y147D02*
X946D01*
X960Y161D02*
X994Y195D01*
X960Y160D02*
Y161D01*
X946Y147D02*
X960Y160D01*
X1034Y147D02*
X1039Y152D01*
X1002Y147D02*
X1034D01*
X1185Y182D02*
X1279D01*
X1501Y182D02*
X1575D01*
X1594Y201D01*
X1176Y191D02*
X1185Y182D01*
X1458Y478D02*
X1537D01*
X1570D02*
X1576Y483D01*
X1554Y717D02*
X1581D01*
Y672D02*
Y717D01*
X1577Y630D02*
X1579Y632D01*
X1581Y672D02*
X1581Y672D01*
X1738Y456D02*
X1744Y462D01*
X1576Y483D02*
Y516D01*
X1610Y517D02*
Y556D01*
X1577Y517D02*
Y556D01*
X1610Y517D02*
X1611Y516D01*
X1576D02*
X1577Y517D01*
Y757D02*
Y795D01*
X1610Y757D02*
X1610Y757D01*
X1703D01*
X1577Y594D02*
Y630D01*
X1636Y241D02*
X1652D01*
X1629Y234D02*
X1636Y241D01*
X1738Y181D02*
Y280D01*
X1629Y184D02*
Y234D01*
X1039Y152D02*
Y251D01*
X1594Y201D02*
Y286D01*
X1599Y291D01*
X1176Y191D02*
Y259D01*
X1039Y251D02*
X1055Y267D01*
X994Y195D02*
Y257D01*
X1169Y267D02*
X1176Y259D01*
X1169Y317D02*
X1176Y324D01*
X1204Y284D02*
Y317D01*
X1039Y332D02*
X1055Y317D01*
X984Y267D02*
X994Y257D01*
X932Y267D02*
X984D01*
X847D02*
X932D01*
X1204Y284D02*
X1279D01*
X1204Y284D02*
X1204Y284D01*
X243Y500D02*
X245Y502D01*
Y537D01*
X180Y575D02*
X243D01*
X180Y500D02*
X180Y500D01*
X243D01*
X498Y500D02*
Y547D01*
X498Y499D02*
X498Y500D01*
X469Y547D02*
X498D01*
X444Y572D02*
X469Y547D01*
X444Y572D02*
Y627D01*
Y660D02*
Y694D01*
X675Y745D02*
X675Y745D01*
X612Y745D02*
X675D01*
X611Y744D02*
X612Y745D01*
X500Y854D02*
X505Y859D01*
X686D01*
X500Y834D02*
Y854D01*
X480Y834D02*
X500D01*
X795Y859D02*
X817Y837D01*
Y819D02*
Y837D01*
X744Y859D02*
X795D01*
X817Y794D02*
Y819D01*
X611Y744D02*
Y794D01*
Y819D01*
X535Y834D02*
X596D01*
X611Y819D01*
X469Y823D02*
X480Y834D01*
X469Y777D02*
Y823D01*
X535Y719D02*
Y768D01*
X526Y777D02*
X535Y768D01*
X542Y694D02*
X611D01*
X535Y702D02*
X542Y694D01*
X535Y719D02*
X535Y719D01*
Y702D02*
Y719D01*
X832Y834D02*
X893D01*
X817Y819D02*
X832Y834D01*
X817Y694D02*
X884D01*
X817Y644D02*
X869D01*
X882Y631D01*
X817Y744D02*
Y794D01*
X224Y324D02*
X296D01*
X224D02*
Y370D01*
Y324D02*
Y324D01*
X213Y381D02*
X224Y370D01*
X212Y381D02*
X213D01*
X354Y324D02*
X356Y321D01*
X354Y324D02*
Y370D01*
X343Y381D02*
X354Y370D01*
X342Y381D02*
X343D01*
X356Y321D02*
X445D01*
X224Y324D02*
X225Y325D01*
D50*
X411Y132D02*
X414Y129D01*
X80Y147D02*
X95Y132D01*
X411D01*
X80Y147D02*
Y211D01*
X78Y500D02*
X78Y500D01*
X315Y211D02*
X445D01*
X80D02*
X205D01*
X81Y322D02*
X165D01*
X80Y321D02*
X81Y322D01*
X165D02*
X166Y324D01*
X35Y537D02*
X78D01*
X35Y500D02*
X78D01*
X265Y711D02*
X310D01*
X110D02*
X155D01*
X70Y902D02*
X70Y902D01*
X70Y846D02*
Y902D01*
X70Y846D02*
X174D01*
X70Y846D02*
X70Y846D01*
X174D02*
X174Y846D01*
X379Y846D02*
Y897D01*
X315Y846D02*
Y886D01*
X315Y887D01*
X379Y846D02*
X379Y846D01*
X315Y846D02*
X379D01*
X235D02*
X315D01*
X379Y747D02*
Y787D01*
X70Y729D02*
Y781D01*
X315Y780D02*
Y812D01*
D51*
X50Y80D02*
D03*
Y980D02*
D03*
D52*
X150Y80D02*
D03*
X250D02*
D03*
X350D02*
D03*
X450D02*
D03*
X550D02*
D03*
X650D02*
D03*
X750D02*
D03*
X850D02*
D03*
X950D02*
D03*
X1050D02*
D03*
X1150D02*
D03*
X1250D02*
D03*
X1350D02*
D03*
X1450D02*
D03*
X1550D02*
D03*
X1650D02*
D03*
X1750D02*
D03*
X1850D02*
D03*
X1950D02*
D03*
X2050D02*
D03*
X2150D02*
D03*
X2250D02*
D03*
X2350D02*
D03*
X2450D02*
D03*
X2550D02*
D03*
X2650D02*
D03*
X2750D02*
D03*
X2850D02*
D03*
X2950D02*
D03*
X3050D02*
D03*
X3150D02*
D03*
Y980D02*
D03*
X3050D02*
D03*
X2950D02*
D03*
X2850D02*
D03*
X2750D02*
D03*
X2650D02*
D03*
X2550D02*
D03*
X2450D02*
D03*
X2350D02*
D03*
X2250D02*
D03*
X2150D02*
D03*
X2050D02*
D03*
X1950D02*
D03*
X1850D02*
D03*
X1750D02*
D03*
X1650D02*
D03*
X1550D02*
D03*
X1450D02*
D03*
X1350D02*
D03*
X1250D02*
D03*
X1150D02*
D03*
X1050D02*
D03*
X950D02*
D03*
X850D02*
D03*
X750D02*
D03*
X650D02*
D03*
X550D02*
D03*
X450D02*
D03*
X350D02*
D03*
X250D02*
D03*
X150D02*
D03*
D53*
X2715Y656D02*
D03*
X2507Y835D02*
D03*
X2740Y825D02*
D03*
X2710Y783D02*
D03*
X2740Y725D02*
D03*
X2710Y707D02*
D03*
X2491Y707D02*
D03*
X1333Y894D02*
D03*
X1650Y905D02*
D03*
X1088Y932D02*
D03*
X1950Y920D02*
D03*
X2178Y924D02*
D03*
X2195Y726D02*
D03*
X2422Y924D02*
D03*
X2805D02*
D03*
X2374D02*
D03*
X414Y129D02*
D03*
X2050Y912D02*
D03*
X2270Y920D02*
D03*
X2316D02*
D03*
X426Y914D02*
D03*
X637Y912D02*
D03*
X2038Y651D02*
D03*
X1244Y447D02*
D03*
X2700Y160D02*
D03*
X2407D02*
D03*
X2700Y595D02*
D03*
X2407Y589D02*
D03*
X1346Y541D02*
D03*
X180Y627D02*
D03*
X1617Y448D02*
D03*
X869Y217D02*
D03*
X1000Y317D02*
D03*
X1324Y258D02*
D03*
X2492Y758D02*
D03*
X3080Y825D02*
D03*
X2803Y247D02*
D03*
X2715Y350D02*
D03*
X735Y215D02*
D03*
X579Y217D02*
D03*
X2927Y765D02*
D03*
X2390Y783D02*
D03*
X1750Y905D02*
D03*
X1346Y842D02*
D03*
X1436Y542D02*
D03*
Y842D02*
D03*
X1436Y208D02*
D03*
X1646Y558D02*
D03*
X1645Y592D02*
D03*
X1646Y632D02*
D03*
X2390Y730D02*
D03*
X1065Y424D02*
D03*
X1324Y335D02*
D03*
X1552Y284D02*
D03*
X1577Y310D02*
D03*
X1554Y335D02*
D03*
X1573Y259D02*
D03*
X2949Y726D02*
D03*
X2241Y650D02*
D03*
X2870Y825D02*
D03*
X2601Y835D02*
D03*
X2392Y656D02*
D03*
X1551Y387D02*
D03*
X1228Y387D02*
D03*
X1342Y207D02*
D03*
X1005Y586D02*
D03*
X873Y544D02*
D03*
X1957Y765D02*
D03*
X2241Y858D02*
D03*
X1957Y664D02*
D03*
X2845Y555D02*
D03*
X2858Y409D02*
D03*
X3154Y809D02*
D03*
Y710D02*
D03*
X2870Y618D02*
D03*
X2803Y209D02*
D03*
X2303D02*
D03*
X2241Y285D02*
D03*
X2298Y370D02*
D03*
X2303Y409D02*
D03*
Y486D02*
D03*
Y448D02*
D03*
X2298Y325D02*
D03*
X2303Y247D02*
D03*
X1987Y378D02*
D03*
X2803Y285D02*
D03*
X1987Y277D02*
D03*
X2390Y325D02*
D03*
X2802Y486D02*
D03*
X2602Y500D02*
D03*
X2800Y555D02*
D03*
X2773Y381D02*
D03*
X2800Y448D02*
D03*
X2505Y200D02*
D03*
Y500D02*
D03*
X2602Y200D02*
D03*
X1099Y487D02*
D03*
X893Y587D02*
D03*
X957Y623D02*
D03*
X1646Y672D02*
D03*
X1171Y661D02*
D03*
X1144Y594D02*
D03*
X1086Y633D02*
D03*
X1703Y184D02*
D03*
X1204Y317D02*
D03*
X1204Y217D02*
D03*
X1144Y487D02*
D03*
X1143Y556D02*
D03*
X790Y332D02*
D03*
X1074Y217D02*
D03*
X818Y218D02*
D03*
X1703Y757D02*
D03*
X1646Y717D02*
D03*
X1141Y757D02*
D03*
Y833D02*
D03*
Y795D02*
D03*
X1704Y391D02*
D03*
X1674Y122D02*
D03*
X1641Y833D02*
D03*
Y795D02*
D03*
X1629Y122D02*
D03*
X957Y672D02*
D03*
Y719D02*
D03*
X1554Y717D02*
D03*
X1234Y692D02*
D03*
X35Y537D02*
D03*
X310Y711D02*
D03*
X110D02*
D03*
X315Y780D02*
D03*
X70Y729D02*
D03*
X379Y747D02*
D03*
X315Y887D02*
D03*
X379Y897D02*
D03*
X70Y902D02*
D03*
X35Y500D02*
D03*
X444Y694D02*
D03*
X469Y594D02*
D03*
Y719D02*
D03*
X675Y745D02*
D03*
X549Y644D02*
D03*
X270Y381D02*
D03*
X140D02*
D03*
X310Y575D02*
D03*
X245Y537D02*
D03*
X308Y500D02*
D03*
M02*
