G04*
G04 #@! TF.GenerationSoftware,Altium Limited,Altium Designer,24.10.1 (45)*
G04*
G04 Layer_Color=32768*
%FSLAX23Y23*%
%MOIN*%
G70*
G04*
G04 #@! TF.SameCoordinates,D213B5B1-1682-4A20-B498-33B6BD820803*
G04*
G04*
G04 #@! TF.FilePolarity,Positive*
G04*
G01*
G75*
%ADD11C,0.006*%
%ADD57C,0.004*%
%ADD60C,0.002*%
%ADD61C,0.002*%
G36*
X522Y931D02*
Y930D01*
Y929D01*
X521Y928D01*
X520D01*
Y898D01*
X508D01*
Y930D01*
X518D01*
Y931D01*
X519Y932D01*
X521D01*
X522Y931D01*
D02*
G37*
G36*
X469Y898D02*
X457D01*
Y930D01*
X469D01*
Y898D01*
D02*
G37*
G36*
X1508Y833D02*
X1467D01*
Y850D01*
X1508D01*
Y833D01*
D02*
G37*
G36*
X1314D02*
X1272D01*
Y850D01*
X1314D01*
Y833D01*
D02*
G37*
G36*
X832Y786D02*
X791D01*
Y802D01*
X832D01*
Y786D01*
D02*
G37*
G36*
X638D02*
X596D01*
Y802D01*
X638D01*
Y786D01*
D02*
G37*
G36*
X1508Y783D02*
X1467D01*
Y800D01*
X1508D01*
Y783D01*
D02*
G37*
G36*
X1314D02*
X1272D01*
Y800D01*
X1314D01*
Y783D01*
D02*
G37*
G36*
X832Y736D02*
X791D01*
Y752D01*
X832D01*
Y736D01*
D02*
G37*
G36*
X638D02*
X596D01*
Y752D01*
X638D01*
Y736D01*
D02*
G37*
G36*
X1508Y733D02*
X1467D01*
Y750D01*
X1508D01*
Y733D01*
D02*
G37*
G36*
X1314D02*
X1272D01*
Y750D01*
X1314D01*
Y733D01*
D02*
G37*
G36*
X832Y686D02*
X791D01*
Y702D01*
X832D01*
Y686D01*
D02*
G37*
G36*
X638D02*
X596D01*
Y702D01*
X638D01*
Y686D01*
D02*
G37*
G36*
X1508Y683D02*
X1467D01*
Y700D01*
X1508D01*
Y683D01*
D02*
G37*
G36*
X1314D02*
X1272D01*
Y700D01*
X1314D01*
Y683D01*
D02*
G37*
G36*
X3061Y642D02*
X2769D01*
Y859D01*
X3061D01*
Y642D01*
D02*
G37*
G36*
X832Y636D02*
X791D01*
Y652D01*
X832D01*
Y636D01*
D02*
G37*
G36*
X638D02*
X596D01*
Y652D01*
X638D01*
Y636D01*
D02*
G37*
G36*
X1508Y633D02*
X1467D01*
Y650D01*
X1508D01*
Y633D01*
D02*
G37*
G36*
X1314D02*
X1272D01*
Y650D01*
X1314D01*
Y633D01*
D02*
G37*
G36*
X2341Y617D02*
X2049D01*
Y834D01*
X2341D01*
Y617D01*
D02*
G37*
G36*
X2653Y877D02*
X2704D01*
Y613D01*
X2653D01*
Y605D01*
X2456D01*
Y613D01*
X2404D01*
Y877D01*
X2456D01*
Y885D01*
X2653D01*
Y877D01*
D02*
G37*
G36*
X76Y596D02*
Y595D01*
Y594D01*
X75Y592D01*
X73D01*
X71Y594D01*
Y595D01*
Y596D01*
X73Y597D01*
X75D01*
X76Y596D01*
D02*
G37*
G36*
X832Y586D02*
X791D01*
Y602D01*
X832D01*
Y586D01*
D02*
G37*
G36*
X638D02*
X596D01*
Y602D01*
X638D01*
Y586D01*
D02*
G37*
G36*
X1508Y583D02*
X1467D01*
Y600D01*
X1508D01*
Y583D01*
D02*
G37*
G36*
X1314D02*
X1272D01*
Y600D01*
X1314D01*
Y583D01*
D02*
G37*
G36*
X98Y567D02*
X74D01*
Y583D01*
X98D01*
Y567D01*
D02*
G37*
G36*
X184Y567D02*
X160D01*
Y583D01*
X184D01*
Y567D01*
D02*
G37*
G36*
X832Y536D02*
X791D01*
Y552D01*
X832D01*
Y536D01*
D02*
G37*
G36*
X638D02*
X596D01*
Y552D01*
X638D01*
Y536D01*
D02*
G37*
G36*
X1508Y533D02*
X1467D01*
Y550D01*
X1508D01*
Y533D01*
D02*
G37*
G36*
X1314D02*
X1272D01*
Y550D01*
X1314D01*
Y533D01*
D02*
G37*
G36*
X98Y530D02*
X74D01*
Y546D01*
X98D01*
Y530D01*
D02*
G37*
G36*
X1511Y522D02*
Y520D01*
X1509Y519D01*
X1508D01*
X1506Y520D01*
Y522D01*
X1508Y524D01*
X1509D01*
X1511Y522D01*
D02*
G37*
G36*
X2438Y522D02*
Y520D01*
X2437Y518D01*
X2435D01*
X2433Y520D01*
Y522D01*
X2435Y523D01*
X2437D01*
X2438Y522D01*
D02*
G37*
G36*
X2672Y492D02*
X2630D01*
Y509D01*
X2672D01*
Y492D01*
D02*
G37*
G36*
X2477D02*
X2436D01*
Y509D01*
X2477D01*
Y492D01*
D02*
G37*
G36*
X184Y492D02*
X160D01*
Y508D01*
X184D01*
Y492D01*
D02*
G37*
G36*
X98D02*
X74D01*
Y508D01*
X98D01*
Y492D01*
D02*
G37*
G36*
X832Y486D02*
X791D01*
Y502D01*
X832D01*
Y486D01*
D02*
G37*
G36*
X638D02*
X596D01*
Y502D01*
X638D01*
Y486D01*
D02*
G37*
G36*
X835Y475D02*
Y473D01*
X833Y471D01*
X831D01*
X830Y473D01*
Y475D01*
X831Y476D01*
X833D01*
X835Y475D01*
D02*
G37*
G36*
X2672Y442D02*
X2630D01*
Y459D01*
X2672D01*
Y442D01*
D02*
G37*
G36*
X2477D02*
X2436D01*
Y459D01*
X2477D01*
Y442D01*
D02*
G37*
G36*
X2672Y392D02*
X2630D01*
Y409D01*
X2672D01*
Y392D01*
D02*
G37*
G36*
X2477D02*
X2436D01*
Y409D01*
X2477D01*
Y392D01*
D02*
G37*
G36*
X2672Y342D02*
X2630D01*
Y359D01*
X2672D01*
Y342D01*
D02*
G37*
G36*
X2477D02*
X2436D01*
Y359D01*
X2477D01*
Y342D01*
D02*
G37*
G36*
X2672Y292D02*
X2630D01*
Y309D01*
X2672D01*
Y292D01*
D02*
G37*
G36*
X2477D02*
X2436D01*
Y309D01*
X2477D01*
Y292D01*
D02*
G37*
G36*
X2672Y242D02*
X2630D01*
Y259D01*
X2672D01*
Y242D01*
D02*
G37*
G36*
X2477D02*
X2436D01*
Y259D01*
X2477D01*
Y242D01*
D02*
G37*
G36*
X1895Y208D02*
X1603D01*
Y425D01*
X1895D01*
Y208D01*
D02*
G37*
G36*
X2672Y192D02*
X2630D01*
Y209D01*
X2672D01*
Y192D01*
D02*
G37*
G36*
X2477D02*
X2436D01*
Y209D01*
X2477D01*
Y192D01*
D02*
G37*
G36*
X1175Y183D02*
X883D01*
Y400D01*
X1175D01*
Y183D01*
D02*
G37*
G36*
X1488Y429D02*
X1540D01*
Y165D01*
X1488D01*
Y157D01*
X1291D01*
Y165D01*
X1240D01*
Y429D01*
X1291D01*
Y437D01*
X1488D01*
Y429D01*
D02*
G37*
D11*
X2404Y613D02*
Y877D01*
X2456D01*
Y885D01*
X2653D01*
Y877D02*
Y885D01*
Y877D02*
X2704D01*
Y613D02*
Y877D01*
X2653Y613D02*
X2704D01*
X2653Y605D02*
Y613D01*
X2456Y605D02*
X2653D01*
X2456D02*
Y613D01*
X2404D02*
X2456D01*
X2769Y859D02*
X3061D01*
X2769Y642D02*
Y859D01*
Y642D02*
X3061D01*
Y859D01*
X2049Y617D02*
X2341D01*
Y834D01*
X2049D02*
X2341D01*
X2049Y617D02*
Y834D01*
X1540Y165D02*
Y429D01*
X1488Y165D02*
X1540D01*
X1488Y157D02*
Y165D01*
X1291Y157D02*
X1488D01*
X1291D02*
Y165D01*
X1240D02*
X1291D01*
X1240D02*
Y429D01*
X1291D01*
Y437D01*
X1488D01*
Y429D02*
Y437D01*
Y429D02*
X1540D01*
X883Y183D02*
Y400D01*
X1175D01*
Y183D02*
Y400D01*
X883Y183D02*
X1175D01*
X1895Y208D02*
Y425D01*
X1603Y208D02*
X1895D01*
X1603D02*
Y425D01*
X1895D01*
D57*
X576Y913D02*
X598D01*
X587Y902D02*
Y924D01*
X3075Y223D02*
X3114D01*
X3095Y203D02*
Y243D01*
X2746Y247D02*
X2767D01*
X2756Y237D02*
Y258D01*
X2746Y209D02*
X2767D01*
X2756Y199D02*
Y220D01*
X2340Y209D02*
X2361D01*
X2350Y199D02*
Y220D01*
X2340Y247D02*
X2361D01*
X2350Y237D02*
Y258D01*
X2706Y129D02*
X2727D01*
X2716Y119D02*
Y140D01*
X2380Y129D02*
X2401D01*
X2390Y119D02*
Y140D01*
X2747Y285D02*
X2768D01*
X2757Y275D02*
Y296D01*
X2340Y285D02*
X2361D01*
X2350Y275D02*
Y296D01*
X2746Y410D02*
X2767D01*
X2756Y400D02*
Y421D01*
X2338Y410D02*
X2359D01*
X2348Y400D02*
Y421D01*
X2706Y565D02*
X2727D01*
X2716Y555D02*
Y576D01*
X2380Y564D02*
X2401D01*
X2390Y554D02*
Y575D01*
X2746Y486D02*
X2767D01*
X2756Y475D02*
Y497D01*
X2340Y486D02*
X2361D01*
X2350Y475D02*
Y497D01*
X2746Y448D02*
X2767D01*
X2756Y438D02*
Y459D01*
X2340Y448D02*
X2361D01*
X2350Y438D02*
Y459D01*
X2970Y878D02*
Y913D01*
X2953Y895D02*
X2988D01*
X2140Y563D02*
Y598D01*
X2123Y580D02*
X2158D01*
X3125Y758D02*
Y793D01*
X3108Y775D02*
X3143D01*
X1985Y683D02*
Y718D01*
X1968Y701D02*
X2003D01*
X3125Y658D02*
Y693D01*
X3108Y675D02*
X3143D01*
X1985Y783D02*
Y818D01*
X1968Y801D02*
X2003D01*
X2970Y588D02*
Y623D01*
X2953Y605D02*
X2988D01*
X2140Y850D02*
Y885D01*
X2123Y867D02*
X2158D01*
X2756Y159D02*
Y180D01*
X2746Y169D02*
X2767D01*
X2350Y159D02*
Y180D01*
X2340Y169D02*
X2361D01*
X2345Y315D02*
Y336D01*
X2335Y325D02*
X2356D01*
X2345Y360D02*
Y381D01*
X2335Y370D02*
X2356D01*
X2756Y515D02*
Y537D01*
X2746Y526D02*
X2767D01*
X2350Y515D02*
Y537D01*
X2340Y526D02*
X2361D01*
X2835Y600D02*
X2856D01*
X2845Y590D02*
Y611D01*
X2790Y600D02*
X2811D01*
X2800Y590D02*
Y611D01*
X2305Y876D02*
X2326D01*
X2315Y865D02*
Y887D01*
X2730Y775D02*
X2751D01*
X2740Y765D02*
Y786D01*
X2260Y876D02*
X2281D01*
X2270Y865D02*
Y887D01*
X956Y147D02*
X991D01*
X974Y129D02*
Y164D01*
X1786Y462D02*
X1821D01*
X1804Y444D02*
Y479D01*
X801Y267D02*
X836D01*
X819Y249D02*
Y284D01*
X1941Y341D02*
X1976D01*
X1959Y324D02*
Y359D01*
X801Y367D02*
X836D01*
X819Y349D02*
Y384D01*
X1941Y241D02*
X1976D01*
X1959Y224D02*
Y259D01*
X956Y437D02*
X991D01*
X974Y419D02*
Y454D01*
X1786Y175D02*
X1821D01*
X1804Y157D02*
Y192D01*
X1188Y784D02*
Y805D01*
X1177Y795D02*
X1198D01*
X1594Y822D02*
Y843D01*
X1583Y833D02*
X1604D01*
X1188Y822D02*
Y843D01*
X1177Y833D02*
X1198D01*
X1594Y784D02*
Y805D01*
X1583Y795D02*
X1604D01*
X1269Y883D02*
Y905D01*
X1258Y894D02*
X1280D01*
X1510Y883D02*
Y905D01*
X1499Y894D02*
X1521D01*
X1187Y746D02*
Y767D01*
X1176Y757D02*
X1197D01*
X1594Y746D02*
Y767D01*
X1583Y757D02*
X1604D01*
X1188Y621D02*
Y642D01*
X1177Y632D02*
X1198D01*
X1596Y621D02*
Y642D01*
X1585Y632D02*
X1606D01*
X1188Y545D02*
Y567D01*
X1177Y556D02*
X1198D01*
X1594Y545D02*
Y567D01*
X1583Y556D02*
X1604D01*
X1228Y466D02*
Y487D01*
X1217Y477D02*
X1238D01*
X1554Y467D02*
Y488D01*
X1543Y478D02*
X1564D01*
X1188Y583D02*
Y604D01*
X1177Y594D02*
X1198D01*
X1594Y583D02*
Y604D01*
X1583Y594D02*
X1604D01*
X1177Y873D02*
X1198D01*
X1188Y862D02*
Y883D01*
X1583Y873D02*
X1604D01*
X1594Y862D02*
Y883D01*
X1588Y717D02*
X1609D01*
X1599Y706D02*
Y727D01*
X1588Y672D02*
X1609D01*
X1599Y661D02*
Y682D01*
X1177Y516D02*
X1198D01*
X1188Y505D02*
Y527D01*
X1583Y516D02*
X1604D01*
X1594Y505D02*
Y527D01*
X1204Y256D02*
Y277D01*
X1193Y267D02*
X1214D01*
X1099Y431D02*
Y452D01*
X1088Y442D02*
X1109D01*
X1674Y155D02*
Y177D01*
X1663Y166D02*
X1684D01*
X1629Y155D02*
Y177D01*
X1618Y166D02*
X1639D01*
X1144Y431D02*
Y452D01*
X1133Y442D02*
X1154D01*
X249Y575D02*
X271D01*
X260Y564D02*
Y586D01*
X899Y670D02*
X921D01*
X910Y659D02*
Y680D01*
X899Y719D02*
X921D01*
X910Y708D02*
Y730D01*
X515Y536D02*
Y557D01*
X504Y547D02*
X526D01*
X504Y499D02*
X526D01*
X515Y488D02*
Y510D01*
X507Y719D02*
X528D01*
X517Y708D02*
Y730D01*
X899Y620D02*
X921D01*
X910Y609D02*
Y631D01*
X480Y777D02*
X515D01*
X498Y759D02*
Y794D01*
X899Y834D02*
X921D01*
X910Y823D02*
Y845D01*
X911Y777D02*
X946D01*
X928Y759D02*
Y794D01*
X1005Y636D02*
Y672D01*
X987Y654D02*
X1023D01*
X190Y711D02*
X230D01*
X210Y691D02*
Y731D01*
X70Y794D02*
Y834D01*
X51Y814D02*
X90D01*
X379Y799D02*
Y834D01*
X361Y816D02*
X397D01*
X315Y818D02*
Y840D01*
X304Y829D02*
X326D01*
X445Y246D02*
Y286D01*
X425Y266D02*
X465D01*
X80Y246D02*
Y286D01*
X60Y266D02*
X100D01*
X260Y191D02*
Y230D01*
X240Y211D02*
X280D01*
X260Y489D02*
Y511D01*
X249Y500D02*
X271D01*
X715Y841D02*
Y877D01*
X697Y859D02*
X733D01*
X325Y306D02*
Y341D01*
X307Y324D02*
X343D01*
X195Y306D02*
Y341D01*
X177Y324D02*
X213D01*
X195Y370D02*
Y392D01*
X184Y381D02*
X206D01*
X325Y370D02*
Y392D01*
X314Y381D02*
X336D01*
X515Y583D02*
Y605D01*
X504Y594D02*
X526D01*
X444Y633D02*
Y654D01*
X433Y644D02*
X455D01*
X517Y823D02*
Y845D01*
X507Y834D02*
X528D01*
D60*
X552Y895D02*
Y931D01*
X622Y895D02*
Y931D01*
X552D02*
X622D01*
X552Y895D02*
X622D01*
X3049Y134D02*
Y312D01*
X3140Y134D02*
Y312D01*
X3049Y134D02*
X3140D01*
X3049Y312D02*
X3140D01*
X2792Y230D02*
Y265D01*
X2721Y230D02*
Y265D01*
Y230D02*
X2792D01*
X2721Y265D02*
X2792D01*
X2792Y192D02*
Y227D01*
X2721Y192D02*
Y227D01*
Y192D02*
X2792D01*
X2721Y227D02*
X2792D01*
X2386Y192D02*
Y227D01*
X2315Y192D02*
Y227D01*
Y192D02*
X2386D01*
X2315Y227D02*
X2386D01*
X2315Y230D02*
Y265D01*
X2386Y230D02*
Y265D01*
X2315D02*
X2386D01*
X2315Y230D02*
X2386D01*
X2752Y112D02*
Y147D01*
X2681Y112D02*
Y147D01*
Y112D02*
X2752D01*
X2681Y147D02*
X2752D01*
X2426Y112D02*
Y147D01*
X2355Y112D02*
Y147D01*
Y112D02*
X2426D01*
X2355Y147D02*
X2426D01*
X2722Y268D02*
Y303D01*
X2793Y268D02*
Y303D01*
X2722D02*
X2793D01*
X2722Y268D02*
X2793D01*
X2315Y268D02*
Y303D01*
X2386Y268D02*
Y303D01*
X2315D02*
X2386D01*
X2315Y268D02*
X2386D01*
X2721Y393D02*
Y428D01*
X2792Y393D02*
Y428D01*
X2721D02*
X2792D01*
X2721Y393D02*
X2792D01*
X2313D02*
Y428D01*
X2384Y393D02*
Y428D01*
X2313D02*
X2384D01*
X2313Y393D02*
X2384D01*
X2752Y548D02*
Y583D01*
X2681Y548D02*
Y583D01*
Y548D02*
X2752D01*
X2681Y583D02*
X2752D01*
X2426Y547D02*
Y582D01*
X2355Y547D02*
Y582D01*
Y547D02*
X2426D01*
X2355Y582D02*
X2426D01*
X2792Y468D02*
Y504D01*
X2721Y468D02*
Y504D01*
Y468D02*
X2792D01*
X2721Y504D02*
X2792D01*
X2386Y468D02*
Y504D01*
X2315Y468D02*
Y504D01*
Y468D02*
X2386D01*
X2315Y504D02*
X2386D01*
X2721Y431D02*
Y466D01*
X2792Y431D02*
Y466D01*
X2721D02*
X2792D01*
X2721Y431D02*
X2792D01*
X2386Y431D02*
Y466D01*
X2315Y431D02*
Y466D01*
Y431D02*
X2386D01*
X2315Y466D02*
X2386D01*
X2913Y923D02*
X3028D01*
X2913Y868D02*
X3028D01*
X2913D02*
Y923D01*
X3028Y868D02*
Y923D01*
X2083Y553D02*
X2198D01*
X2083Y608D02*
X2198D01*
Y553D02*
Y608D01*
X2083Y553D02*
Y608D01*
X3068Y803D02*
X3183D01*
X3068Y748D02*
X3183D01*
X3068D02*
Y803D01*
X3183Y748D02*
Y803D01*
X1928Y673D02*
X2043D01*
X1928Y728D02*
X2043D01*
Y673D02*
Y728D01*
X1928Y673D02*
Y728D01*
X3068Y703D02*
X3183D01*
X3068Y648D02*
X3183D01*
X3068D02*
Y703D01*
X3183Y648D02*
Y703D01*
X1928Y773D02*
X2043D01*
X1928Y828D02*
X2043D01*
Y773D02*
Y828D01*
X1928Y773D02*
Y828D01*
X2913Y633D02*
X3028D01*
X2913Y578D02*
X3028D01*
X2913D02*
Y633D01*
X3028Y578D02*
Y633D01*
X2083Y840D02*
X2198D01*
X2083Y895D02*
X2198D01*
Y840D02*
Y895D01*
X2083Y840D02*
Y895D01*
X2719Y189D02*
X2794D01*
X2719Y150D02*
X2794D01*
X2719D02*
Y189D01*
X2794Y150D02*
Y189D01*
X2313D02*
X2388D01*
X2313Y150D02*
X2388D01*
X2313D02*
Y189D01*
X2388Y150D02*
Y189D01*
X2308Y306D02*
X2383D01*
X2308Y345D02*
X2383D01*
Y306D02*
Y345D01*
X2308Y306D02*
Y345D01*
X2308Y390D02*
X2383D01*
X2308Y351D02*
X2383D01*
X2308D02*
Y390D01*
X2383Y351D02*
Y390D01*
X2719Y546D02*
X2794D01*
X2719Y506D02*
X2794D01*
X2719D02*
Y546D01*
X2794Y506D02*
Y546D01*
X2313D02*
X2388D01*
X2313Y506D02*
X2388D01*
X2313D02*
Y546D01*
X2388Y506D02*
Y546D01*
X2865Y563D02*
Y638D01*
X2826Y563D02*
Y638D01*
X2865D01*
X2826Y563D02*
X2865D01*
X2781Y563D02*
Y638D01*
X2820Y563D02*
Y638D01*
X2781Y563D02*
X2820D01*
X2781Y638D02*
X2820D01*
X2335Y838D02*
Y913D01*
X2296Y838D02*
Y913D01*
X2335D01*
X2296Y838D02*
X2335D01*
X2760Y738D02*
Y813D01*
X2721Y738D02*
Y813D01*
X2760D01*
X2721Y738D02*
X2760D01*
X2251Y838D02*
Y913D01*
X2290Y838D02*
Y913D01*
X2251Y838D02*
X2290D01*
X2251Y913D02*
X2290D01*
X917Y119D02*
Y174D01*
X1031Y119D02*
Y174D01*
X917D02*
X1031D01*
X917Y119D02*
X1031D01*
X1861Y434D02*
Y489D01*
X1747Y434D02*
Y489D01*
Y434D02*
X1861D01*
X1747Y489D02*
X1861D01*
X762Y239D02*
Y294D01*
X876Y239D02*
Y294D01*
X762D02*
X876D01*
X762Y239D02*
X876D01*
X2016Y314D02*
Y369D01*
X1902Y314D02*
Y369D01*
Y314D02*
X2016D01*
X1902Y369D02*
X2016D01*
X762Y339D02*
Y394D01*
X876Y339D02*
Y394D01*
X762D02*
X876D01*
X762Y339D02*
X876D01*
X2016Y214D02*
Y269D01*
X1902Y214D02*
Y269D01*
Y214D02*
X2016D01*
X1902Y269D02*
X2016D01*
X917Y409D02*
Y464D01*
X1031Y409D02*
Y464D01*
X917D02*
X1031D01*
X917Y409D02*
X1031D01*
X1861Y147D02*
Y202D01*
X1747Y147D02*
Y202D01*
Y147D02*
X1861D01*
X1747Y202D02*
X1861D01*
X1152Y777D02*
X1223D01*
X1152Y812D02*
X1223D01*
Y777D02*
Y812D01*
X1152Y777D02*
Y812D01*
X1558Y815D02*
X1629D01*
X1558Y850D02*
X1629D01*
Y815D02*
Y850D01*
X1558Y815D02*
Y850D01*
X1152Y815D02*
X1223D01*
X1152Y850D02*
X1223D01*
Y815D02*
Y850D01*
X1152Y815D02*
Y850D01*
X1558Y812D02*
X1629D01*
X1558Y777D02*
X1629D01*
X1558D02*
Y812D01*
X1629Y777D02*
Y812D01*
X1234Y876D02*
X1304D01*
X1234Y912D02*
X1304D01*
Y876D02*
Y912D01*
X1234Y876D02*
Y912D01*
X1475Y876D02*
X1545D01*
X1475Y912D02*
X1545D01*
Y876D02*
Y912D01*
X1475Y876D02*
Y912D01*
X1151Y774D02*
X1222D01*
X1151Y739D02*
X1222D01*
X1151D02*
Y774D01*
X1222Y739D02*
Y774D01*
X1558Y774D02*
X1629D01*
X1558Y739D02*
X1629D01*
X1558D02*
Y774D01*
X1629Y739D02*
Y774D01*
X1152Y649D02*
X1223D01*
X1152Y614D02*
X1223D01*
X1152D02*
Y649D01*
X1223Y614D02*
Y649D01*
X1560D02*
X1631D01*
X1560Y614D02*
X1631D01*
X1560D02*
Y649D01*
X1631Y614D02*
Y649D01*
X1152Y538D02*
X1223D01*
X1152Y574D02*
X1223D01*
Y538D02*
Y574D01*
X1152Y538D02*
Y574D01*
X1558Y538D02*
X1629D01*
X1558Y574D02*
X1629D01*
Y538D02*
Y574D01*
X1558Y538D02*
Y574D01*
X1192Y459D02*
X1263D01*
X1192Y494D02*
X1263D01*
Y459D02*
Y494D01*
X1192Y459D02*
Y494D01*
X1518Y460D02*
X1589D01*
X1518Y495D02*
X1589D01*
Y460D02*
Y495D01*
X1518Y460D02*
Y495D01*
X1152Y611D02*
X1223D01*
X1152Y576D02*
X1223D01*
X1152D02*
Y611D01*
X1223Y576D02*
Y611D01*
X1558Y576D02*
X1629D01*
X1558Y611D02*
X1629D01*
Y576D02*
Y611D01*
X1558Y576D02*
Y611D01*
X1150Y853D02*
Y892D01*
X1225Y853D02*
Y892D01*
X1150D02*
X1225D01*
X1150Y853D02*
X1225D01*
X1556D02*
Y892D01*
X1631Y853D02*
Y892D01*
X1556D02*
X1631D01*
X1556Y853D02*
X1631D01*
X1636Y697D02*
Y736D01*
X1561Y697D02*
Y736D01*
Y697D02*
X1636D01*
X1561Y736D02*
X1636D01*
X1561Y652D02*
Y691D01*
X1636Y652D02*
Y691D01*
X1561D02*
X1636D01*
X1561Y652D02*
X1636D01*
X1150Y496D02*
Y536D01*
X1225Y496D02*
Y536D01*
X1150D02*
X1225D01*
X1150Y496D02*
X1225D01*
X1556D02*
Y536D01*
X1631Y496D02*
Y536D01*
X1556D02*
X1631D01*
X1556Y496D02*
X1631D01*
X1184Y304D02*
X1223D01*
X1184Y229D02*
X1223D01*
Y304D01*
X1184Y229D02*
Y304D01*
X1079Y479D02*
X1118D01*
X1079Y404D02*
X1118D01*
Y479D01*
X1079Y404D02*
Y479D01*
X1654Y129D02*
X1693D01*
X1654Y204D02*
X1693D01*
X1654Y129D02*
Y204D01*
X1693Y129D02*
Y204D01*
X1609Y204D02*
X1648D01*
X1609Y129D02*
X1648D01*
Y204D01*
X1609Y129D02*
Y204D01*
X1124Y404D02*
X1163D01*
X1124Y479D02*
X1163D01*
X1124Y404D02*
Y479D01*
X1163Y404D02*
Y479D01*
X223Y555D02*
Y595D01*
X297Y555D02*
Y595D01*
X223D02*
X297D01*
X223Y555D02*
X297D01*
X947Y650D02*
Y689D01*
X873Y650D02*
Y689D01*
Y650D02*
X947D01*
X873Y689D02*
X947D01*
Y699D02*
Y739D01*
X873Y699D02*
Y739D01*
Y699D02*
X947D01*
X873Y739D02*
X947D01*
X480Y564D02*
X550D01*
X480Y529D02*
X550D01*
X480D02*
Y564D01*
X550Y529D02*
Y564D01*
X478Y480D02*
Y519D01*
X552Y480D02*
Y519D01*
X478D02*
X552D01*
X478Y480D02*
X552D01*
X480Y699D02*
Y739D01*
X555Y699D02*
Y739D01*
X480D02*
X555D01*
X480Y699D02*
X555D01*
X873Y601D02*
Y640D01*
X947Y601D02*
Y640D01*
X873D02*
X947D01*
X873Y601D02*
X947D01*
X555Y749D02*
Y804D01*
X441Y749D02*
Y804D01*
Y749D02*
X555D01*
X441Y804D02*
X555D01*
X873Y814D02*
Y854D01*
X947Y814D02*
Y854D01*
X873D02*
X947D01*
X873Y814D02*
X947D01*
X986Y749D02*
Y804D01*
X871Y749D02*
Y804D01*
Y749D02*
X986D01*
X871Y804D02*
X986D01*
X977Y597D02*
X1033D01*
X977Y711D02*
X1033D01*
X977Y597D02*
Y711D01*
X1033Y597D02*
Y711D01*
X121Y666D02*
Y756D01*
X298Y666D02*
Y756D01*
X121D02*
X298D01*
X121Y666D02*
X298D01*
X31Y747D02*
X110D01*
X31Y881D02*
X110D01*
X31Y747D02*
Y881D01*
X110Y747D02*
Y881D01*
X350Y757D02*
X409D01*
X350Y876D02*
X409D01*
X350Y757D02*
Y876D01*
X409Y757D02*
Y876D01*
X295Y866D02*
X335D01*
X295Y792D02*
X335D01*
Y866D01*
X295Y792D02*
Y866D01*
X400Y354D02*
X490D01*
X400Y177D02*
X490D01*
Y354D01*
X400Y177D02*
Y354D01*
X35Y177D02*
X125D01*
X35Y354D02*
X125D01*
X35Y177D02*
Y354D01*
X125Y177D02*
Y354D01*
X171Y165D02*
X349D01*
X171Y256D02*
X349D01*
Y165D02*
Y256D01*
X171Y165D02*
Y256D01*
X223Y480D02*
X297D01*
X223Y520D02*
X297D01*
Y480D02*
Y520D01*
X223Y480D02*
Y520D01*
X658Y831D02*
X772D01*
X658Y887D02*
X772D01*
Y831D02*
Y887D01*
X658Y831D02*
Y887D01*
X268Y296D02*
X382D01*
X268Y351D02*
X382D01*
Y296D02*
Y351D01*
X268Y296D02*
Y351D01*
X138Y296D02*
X252D01*
X138Y351D02*
X252D01*
Y296D02*
Y351D01*
X138Y296D02*
Y351D01*
X158Y361D02*
X232D01*
X158Y401D02*
X232D01*
Y361D02*
Y401D01*
X158Y361D02*
Y401D01*
X288Y361D02*
X362D01*
X288Y401D02*
X362D01*
Y361D02*
Y401D01*
X288Y361D02*
Y401D01*
X478Y614D02*
X552D01*
X478Y574D02*
X552D01*
X478D02*
Y614D01*
X552Y574D02*
Y614D01*
X426Y608D02*
X462D01*
X426Y679D02*
X462D01*
X426Y608D02*
Y679D01*
X462Y608D02*
Y679D01*
X480Y854D02*
X555D01*
X480Y814D02*
X555D01*
X480D02*
Y854D01*
X555Y814D02*
Y854D01*
D61*
X457Y930D02*
X520D01*
X457Y898D02*
Y930D01*
Y898D02*
X520D01*
Y930D01*
X1467Y521D02*
Y862D01*
X1314D02*
X1467D01*
X1314Y521D02*
Y862D01*
Y521D02*
X1467D01*
Y862D01*
X1314D02*
X1467D01*
X1314Y521D02*
Y862D01*
Y521D02*
X1467D01*
X2477Y180D02*
Y521D01*
Y180D02*
X2630D01*
Y521D01*
X2477D02*
X2630D01*
X2477Y180D02*
Y521D01*
Y180D02*
X2630D01*
Y521D01*
X2477D02*
X2630D01*
X97Y595D02*
X160D01*
Y481D02*
Y595D01*
X97Y481D02*
X160D01*
X97D02*
Y595D01*
X637Y474D02*
X791D01*
X637D02*
Y814D01*
X791D01*
Y474D02*
Y814D01*
X637Y474D02*
X791D01*
X637D02*
Y814D01*
X791D01*
Y474D02*
Y814D01*
M02*
