G04*
G04 #@! TF.GenerationSoftware,Altium Limited,Altium Designer,24.10.1 (45)*
G04*
G04 Layer_Color=65535*
%FSLAX23Y23*%
%MOIN*%
G70*
G04*
G04 #@! TF.SameCoordinates,D213B5B1-1682-4A20-B498-33B6BD820803*
G04*
G04*
G04 #@! TF.FilePolarity,Positive*
G04*
G01*
G75*
%ADD10C,0.012*%
%ADD11C,0.006*%
%ADD12C,0.010*%
%ADD13C,0.006*%
%ADD14C,0.008*%
%ADD15C,0.003*%
D10*
X1427Y542D02*
G03*
X1427Y542I-6J0D01*
G01*
X1505Y512D02*
G03*
X1505Y512I-6J0D01*
G01*
D02*
G03*
X1505Y512I-6J0D01*
G01*
X1427Y542D02*
G03*
X1427Y542I-6J0D01*
G01*
X2529Y500D02*
G03*
X2529Y500I-6J0D01*
G01*
X2451Y530D02*
G03*
X2451Y530I-6J0D01*
G01*
D02*
G03*
X2451Y530I-6J0D01*
G01*
X2529Y500D02*
G03*
X2529Y500I-6J0D01*
G01*
X750Y494D02*
G03*
X750Y494I-6J0D01*
G01*
X829Y465D02*
G03*
X829Y465I-6J0D01*
G01*
D02*
G03*
X829Y465I-6J0D01*
G01*
X750Y494D02*
G03*
X750Y494I-6J0D01*
G01*
D11*
X2927Y652D02*
G03*
X2903Y652I-12J0D01*
G01*
X2183Y824D02*
G03*
X2207Y824I12J0D01*
G01*
X1017Y390D02*
G03*
X1041Y390I12J0D01*
G01*
X1761Y218D02*
G03*
X1737Y218I-12J0D01*
G01*
X2475Y610D02*
X2634D01*
X2475Y880D02*
X2634D01*
X2861Y652D02*
X2970D01*
X2861Y849D02*
X2970D01*
X2141Y824D02*
X2250D01*
X2141Y627D02*
X2250D01*
X1310Y432D02*
X1469D01*
X1310Y162D02*
X1469D01*
X975Y193D02*
X1083D01*
X975Y390D02*
X1083D01*
X1695Y415D02*
X1803D01*
X1695Y218D02*
X1803D01*
D12*
X74Y600D02*
G03*
X74Y600I-3J0D01*
G01*
X98Y601D02*
X159D01*
X98Y474D02*
X161Y474D01*
X167Y520D02*
Y555D01*
X405Y39D02*
X400Y44D01*
X390D01*
X385Y39D01*
Y34D01*
X390Y29D01*
X400D01*
X405Y24D01*
Y19D01*
X400Y14D01*
X390D01*
X385Y19D01*
X415Y44D02*
X425D01*
X420D01*
Y14D01*
X415D01*
X425D01*
X460Y39D02*
X455Y44D01*
X445D01*
X440Y39D01*
Y19D01*
X445Y14D01*
X455D01*
X460Y19D01*
Y29D01*
X450D01*
X470Y44D02*
X480D01*
X475D01*
Y14D01*
X470D01*
X480D01*
X495D02*
Y44D01*
X515Y14D01*
Y44D01*
X2538Y700D02*
X2563D01*
X2568Y705D01*
Y715D01*
X2563Y720D01*
X2538D01*
X2543Y730D02*
X2538Y735D01*
Y745D01*
X2543Y750D01*
X2548D01*
X2553Y745D01*
Y740D01*
Y745D01*
X2558Y750D01*
X2563D01*
X2568Y745D01*
Y735D01*
X2563Y730D01*
X2573Y760D02*
Y780D01*
X2543Y810D02*
X2538Y805D01*
Y795D01*
X2543Y790D01*
X2548D01*
X2553Y795D01*
Y805D01*
X2558Y810D01*
X2563D01*
X2568Y805D01*
Y795D01*
X2563Y790D01*
X2568Y840D02*
Y820D01*
X2548Y840D01*
X2543D01*
X2538Y835D01*
Y825D01*
X2543Y820D01*
X1631Y1051D02*
Y1021D01*
X1646D01*
X1651Y1026D01*
Y1031D01*
X1646Y1036D01*
X1631D01*
X1646D01*
X1651Y1041D01*
Y1046D01*
X1646Y1051D01*
X1631D01*
X1661Y1021D02*
X1671D01*
X1666D01*
Y1051D01*
X1661Y1046D01*
X2326Y1051D02*
Y1021D01*
X2341D01*
X2346Y1026D01*
Y1031D01*
X2341Y1036D01*
X2326D01*
X2341D01*
X2346Y1041D01*
Y1046D01*
X2341Y1051D01*
X2326D01*
X2356Y1046D02*
X2361Y1051D01*
X2371D01*
X2376Y1046D01*
Y1041D01*
X2371Y1036D01*
X2376Y1031D01*
Y1026D01*
X2371Y1021D01*
X2361D01*
X2356Y1026D01*
Y1031D01*
X2361Y1036D01*
X2356Y1041D01*
Y1046D01*
X2361Y1036D02*
X2371D01*
X2226Y1051D02*
Y1021D01*
X2241D01*
X2246Y1026D01*
Y1031D01*
X2241Y1036D01*
X2226D01*
X2241D01*
X2246Y1041D01*
Y1046D01*
X2241Y1051D01*
X2226D01*
X2256D02*
X2276D01*
Y1046D01*
X2256Y1026D01*
Y1021D01*
X2126Y1051D02*
Y1021D01*
X2141D01*
X2146Y1026D01*
Y1031D01*
X2141Y1036D01*
X2126D01*
X2141D01*
X2146Y1041D01*
Y1046D01*
X2141Y1051D01*
X2126D01*
X2176D02*
X2166Y1046D01*
X2156Y1036D01*
Y1026D01*
X2161Y1021D01*
X2171D01*
X2176Y1026D01*
Y1031D01*
X2171Y1036D01*
X2156D01*
X2026Y1051D02*
Y1021D01*
X2041D01*
X2046Y1026D01*
Y1031D01*
X2041Y1036D01*
X2026D01*
X2041D01*
X2046Y1041D01*
Y1046D01*
X2041Y1051D01*
X2026D01*
X2076D02*
X2056D01*
Y1036D01*
X2066Y1041D01*
X2071D01*
X2076Y1036D01*
Y1026D01*
X2071Y1021D01*
X2061D01*
X2056Y1026D01*
X1926Y1051D02*
Y1021D01*
X1941D01*
X1946Y1026D01*
Y1031D01*
X1941Y1036D01*
X1926D01*
X1941D01*
X1946Y1041D01*
Y1046D01*
X1941Y1051D01*
X1926D01*
X1971Y1021D02*
Y1051D01*
X1956Y1036D01*
X1976D01*
X1826Y1051D02*
Y1021D01*
X1841D01*
X1846Y1026D01*
Y1031D01*
X1841Y1036D01*
X1826D01*
X1841D01*
X1846Y1041D01*
Y1046D01*
X1841Y1051D01*
X1826D01*
X1856Y1046D02*
X1861Y1051D01*
X1871D01*
X1876Y1046D01*
Y1041D01*
X1871Y1036D01*
X1866D01*
X1871D01*
X1876Y1031D01*
Y1026D01*
X1871Y1021D01*
X1861D01*
X1856Y1026D01*
X1726Y1051D02*
Y1021D01*
X1741D01*
X1746Y1026D01*
Y1031D01*
X1741Y1036D01*
X1726D01*
X1741D01*
X1746Y1041D01*
Y1046D01*
X1741Y1051D01*
X1726D01*
X1776Y1021D02*
X1756D01*
X1776Y1041D01*
Y1046D01*
X1771Y1051D01*
X1761D01*
X1756Y1046D01*
X172Y158D02*
Y128D01*
X187D01*
X192Y133D01*
Y138D01*
X187Y143D01*
X172D01*
X187D01*
X192Y148D01*
Y153D01*
X187Y158D01*
X172D01*
X202D02*
Y153D01*
X212Y143D01*
X222Y153D01*
Y158D01*
X212Y143D02*
Y128D01*
X232D02*
Y158D01*
X247D01*
X252Y153D01*
Y143D01*
X247Y138D01*
X232D01*
X262Y128D02*
Y148D01*
X272Y158D01*
X282Y148D01*
Y128D01*
Y143D01*
X262D01*
X312Y153D02*
X307Y158D01*
X297D01*
X292Y153D01*
Y148D01*
X297Y143D01*
X307D01*
X312Y138D01*
Y133D01*
X307Y128D01*
X297D01*
X292Y133D01*
X342Y153D02*
X337Y158D01*
X327D01*
X322Y153D01*
Y148D01*
X327Y143D01*
X337D01*
X342Y138D01*
Y133D01*
X337Y128D01*
X327D01*
X322Y133D01*
X231Y1046D02*
X226Y1051D01*
X216D01*
X211Y1046D01*
Y1026D01*
X216Y1021D01*
X226D01*
X231Y1026D01*
Y1036D01*
X221D01*
X241Y1021D02*
Y1051D01*
X261Y1021D01*
Y1051D01*
X271D02*
Y1021D01*
X286D01*
X291Y1026D01*
Y1046D01*
X286Y1051D01*
X271D01*
X47D02*
X27D01*
Y1036D01*
X37Y1041D01*
X42D01*
X47Y1036D01*
Y1026D01*
X42Y1021D01*
X32D01*
X27Y1026D01*
X57Y1051D02*
Y1031D01*
X67Y1021D01*
X77Y1031D01*
Y1051D01*
X2533Y290D02*
X2558D01*
X2563Y295D01*
Y305D01*
X2558Y310D01*
X2533D01*
X2563Y335D02*
X2533D01*
X2548Y320D01*
Y340D01*
X2568Y350D02*
Y370D01*
X2538Y400D02*
X2533Y395D01*
Y385D01*
X2538Y380D01*
X2543D01*
X2548Y385D01*
Y395D01*
X2553Y400D01*
X2558D01*
X2563Y395D01*
Y385D01*
X2558Y380D01*
X2563Y430D02*
Y410D01*
X2543Y430D01*
X2538D01*
X2533Y425D01*
Y415D01*
X2538Y410D01*
X2893Y695D02*
X2918D01*
X2923Y700D01*
Y710D01*
X2918Y715D01*
X2893D01*
X2923Y745D02*
Y725D01*
X2903Y745D01*
X2898D01*
X2893Y740D01*
Y730D01*
X2898Y725D01*
X2928Y755D02*
Y775D01*
X2898Y805D02*
X2893Y800D01*
Y790D01*
X2898Y785D01*
X2903D01*
X2908Y790D01*
Y800D01*
X2913Y805D01*
X2918D01*
X2923Y800D01*
Y790D01*
X2918Y785D01*
X2923Y835D02*
Y815D01*
X2903Y835D01*
X2898D01*
X2893Y830D01*
Y820D01*
X2898Y815D01*
X2213Y798D02*
X2188D01*
X2183Y793D01*
Y783D01*
X2188Y778D01*
X2213D01*
X2183Y768D02*
Y758D01*
Y763D01*
X2213D01*
X2208Y768D01*
X2178Y743D02*
Y723D01*
X2208Y693D02*
X2213Y698D01*
Y708D01*
X2208Y713D01*
X2203D01*
X2198Y708D01*
Y698D01*
X2193Y693D01*
X2188D01*
X2183Y698D01*
Y708D01*
X2188Y713D01*
X2183Y663D02*
Y683D01*
X2203Y663D01*
X2208D01*
X2213Y668D01*
Y678D01*
X2208Y683D01*
X1411Y757D02*
X1386D01*
X1381Y752D01*
Y742D01*
X1386Y737D01*
X1411D01*
X1381Y712D02*
X1411D01*
X1396Y727D01*
Y707D01*
X1376Y697D02*
Y677D01*
X1406Y647D02*
X1411Y652D01*
Y662D01*
X1406Y667D01*
X1401D01*
X1396Y662D01*
Y652D01*
X1391Y647D01*
X1386D01*
X1381Y652D01*
Y662D01*
X1386Y667D01*
X1381Y637D02*
Y627D01*
Y632D01*
X1411D01*
X1406Y637D01*
X1406Y347D02*
X1381D01*
X1376Y342D01*
Y332D01*
X1381Y327D01*
X1406D01*
X1401Y317D02*
X1406Y312D01*
Y302D01*
X1401Y297D01*
X1396D01*
X1391Y302D01*
Y307D01*
Y302D01*
X1386Y297D01*
X1381D01*
X1376Y302D01*
Y312D01*
X1381Y317D01*
X1371Y287D02*
Y267D01*
X1401Y237D02*
X1406Y242D01*
Y252D01*
X1401Y257D01*
X1396D01*
X1391Y252D01*
Y242D01*
X1386Y237D01*
X1381D01*
X1376Y242D01*
Y252D01*
X1381Y257D01*
X1376Y227D02*
Y217D01*
Y222D01*
X1406D01*
X1401Y227D01*
X1051Y352D02*
X1026D01*
X1021Y347D01*
Y337D01*
X1026Y332D01*
X1051D01*
X1021Y302D02*
Y322D01*
X1041Y302D01*
X1046D01*
X1051Y307D01*
Y317D01*
X1046Y322D01*
X1016Y292D02*
Y272D01*
X1046Y242D02*
X1051Y247D01*
Y257D01*
X1046Y262D01*
X1041D01*
X1036Y257D01*
Y247D01*
X1031Y242D01*
X1026D01*
X1021Y247D01*
Y257D01*
X1026Y262D01*
X1021Y232D02*
Y222D01*
Y227D01*
X1051D01*
X1046Y232D01*
X1731Y259D02*
X1756D01*
X1761Y264D01*
Y274D01*
X1756Y279D01*
X1731D01*
X1761Y289D02*
Y299D01*
Y294D01*
X1731D01*
X1736Y289D01*
X1766Y314D02*
Y334D01*
X1736Y364D02*
X1731Y359D01*
Y349D01*
X1736Y344D01*
X1741D01*
X1746Y349D01*
Y359D01*
X1751Y364D01*
X1756D01*
X1761Y359D01*
Y349D01*
X1756Y344D01*
X1761Y374D02*
Y384D01*
Y379D01*
X1731D01*
X1736Y374D01*
X404Y366D02*
Y396D01*
X419D01*
X424Y391D01*
Y381D01*
X419Y376D01*
X404D01*
X414D02*
X424Y366D01*
X434Y391D02*
X439Y396D01*
X449D01*
X454Y391D01*
Y386D01*
X449Y381D01*
X444D01*
X449D01*
X454Y376D01*
Y371D01*
X449Y366D01*
X439D01*
X434Y371D01*
X464Y391D02*
X469Y396D01*
X479D01*
X484Y391D01*
Y371D01*
X479Y366D01*
X469D01*
X464Y371D01*
Y391D01*
X38Y366D02*
Y396D01*
X53D01*
X58Y391D01*
Y381D01*
X53Y376D01*
X38D01*
X48D02*
X58Y366D01*
X88D02*
X68D01*
X88Y386D01*
Y391D01*
X83Y396D01*
X73D01*
X68Y391D01*
X98Y396D02*
X118D01*
Y391D01*
X98Y371D01*
Y366D01*
X725Y671D02*
X700D01*
X695Y666D01*
Y656D01*
X700Y651D01*
X725D01*
Y621D02*
Y641D01*
X710D01*
X715Y631D01*
Y626D01*
X710Y621D01*
X700D01*
X695Y626D01*
Y636D01*
X700Y641D01*
X120Y512D02*
X145D01*
X150Y517D01*
Y527D01*
X145Y532D01*
X120D01*
Y562D02*
X125Y552D01*
X135Y542D01*
X145D01*
X150Y547D01*
Y557D01*
X145Y562D01*
X140D01*
X135Y557D01*
Y542D01*
X165Y622D02*
Y652D01*
X180D01*
X185Y647D01*
Y637D01*
X180Y632D01*
X165D01*
X175D02*
X185Y622D01*
X195Y647D02*
X200Y652D01*
X210D01*
X215Y647D01*
Y642D01*
X210Y637D01*
X205D01*
X210D01*
X215Y632D01*
Y627D01*
X210Y622D01*
X200D01*
X195Y627D01*
X225D02*
X230Y622D01*
X240D01*
X245Y627D01*
Y647D01*
X240Y652D01*
X230D01*
X225Y647D01*
Y642D01*
X230Y637D01*
X245D01*
D13*
X480Y914D02*
X493D01*
X480Y900D02*
Y927D01*
Y900D02*
X493Y914D01*
X480Y900D02*
Y900D01*
X480Y927D02*
X493Y914D01*
X480Y927D02*
X480D01*
D14*
X3064Y205D02*
Y241D01*
X3125Y205D02*
Y241D01*
X1335Y519D02*
X1445D01*
Y864D01*
X1335D02*
X1445D01*
X1335Y519D02*
Y864D01*
X2499Y523D02*
X2609D01*
X2499Y178D02*
Y523D01*
Y178D02*
X2609D01*
Y523D01*
X659Y472D02*
Y817D01*
X769D01*
Y472D02*
Y817D01*
X659Y472D02*
X769D01*
X192Y742D02*
X228D01*
X192Y681D02*
X228D01*
X149Y810D02*
X261D01*
X149Y883D02*
X261D01*
X476Y248D02*
Y284D01*
X414Y248D02*
Y284D01*
X49Y248D02*
Y284D01*
X111Y248D02*
Y284D01*
X242Y180D02*
X278D01*
X242Y241D02*
X278D01*
D15*
X2474Y915D02*
X2494Y895D01*
X2474D02*
X2494Y915D01*
X2474Y905D02*
X2494D01*
X2484Y895D02*
Y915D01*
X2975Y610D02*
X2955Y630D01*
X2975D02*
X2955Y610D01*
X2975Y620D02*
X2955D01*
X2965Y630D02*
Y610D01*
X2135Y866D02*
X2155Y846D01*
X2135D02*
X2155Y866D01*
X2135Y856D02*
X2155D01*
X2145Y846D02*
Y866D01*
X1470Y127D02*
X1450Y147D01*
X1470D02*
X1450Y127D01*
X1470Y137D02*
X1450D01*
X1460Y147D02*
Y127D01*
X969Y432D02*
X989Y412D01*
X969D02*
X989Y432D01*
X969Y422D02*
X989D01*
X979Y412D02*
Y432D01*
X1809Y176D02*
X1789Y196D01*
X1809D02*
X1789Y176D01*
X1809Y186D02*
X1789D01*
X1799Y196D02*
Y176D01*
M02*
