G04*
G04 #@! TF.GenerationSoftware,Altium Limited,Altium Designer,24.10.1 (45)*
G04*
G04 Layer_Color=255*
%FSLAX23Y23*%
%MOIN*%
G70*
G04*
G04 #@! TF.SameCoordinates,D213B5B1-1682-4A20-B498-33B6BD820803*
G04*
G04*
G04 #@! TF.FilePolarity,Positive*
G04*
G01*
G75*
%ADD16R,0.058X0.014*%
%ADD17R,0.026X0.022*%
%ADD18R,0.031X0.031*%
%ADD19R,0.069X0.045*%
%ADD20R,0.080X0.023*%
%ADD21R,0.078X0.022*%
%ADD22R,0.037X0.035*%
%ADD23R,0.026X0.024*%
%ADD24R,0.024X0.026*%
%ADD25R,0.043X0.028*%
%ADD26R,0.035X0.037*%
%ADD27R,0.045X0.069*%
%ADD28R,0.057X0.049*%
%ADD29R,0.037X0.039*%
%ADD30R,0.051X0.042*%
%ADD31R,0.022X0.026*%
%ADD51R,0.059X0.059*%
%ADD52C,0.059*%
D16*
X2443Y860D02*
D03*
Y835D02*
D03*
Y809D02*
D03*
Y783D02*
D03*
Y758D02*
D03*
Y732D02*
D03*
Y707D02*
D03*
Y681D02*
D03*
Y655D02*
D03*
Y630D02*
D03*
X2665Y630D02*
D03*
Y655D02*
D03*
Y681D02*
D03*
Y707D02*
D03*
Y732D02*
D03*
Y758D02*
D03*
Y783D02*
D03*
Y809D02*
D03*
Y835D02*
D03*
Y860D02*
D03*
X1501Y182D02*
D03*
Y207D02*
D03*
Y233D02*
D03*
Y259D02*
D03*
Y284D02*
D03*
Y310D02*
D03*
Y335D02*
D03*
Y361D02*
D03*
Y387D02*
D03*
Y412D02*
D03*
X1279Y412D02*
D03*
Y387D02*
D03*
Y361D02*
D03*
Y335D02*
D03*
Y310D02*
D03*
Y284D02*
D03*
Y259D02*
D03*
Y233D02*
D03*
Y207D02*
D03*
Y182D02*
D03*
D17*
X570Y913D02*
D03*
X604D02*
D03*
X2773Y247D02*
D03*
X2740D02*
D03*
X2773Y209D02*
D03*
X2740D02*
D03*
X2367D02*
D03*
X2334D02*
D03*
Y247D02*
D03*
X2367D02*
D03*
X2733Y129D02*
D03*
X2700D02*
D03*
X2407D02*
D03*
X2374D02*
D03*
X2741Y285D02*
D03*
X2774D02*
D03*
X2334Y285D02*
D03*
X2367D02*
D03*
X2740Y410D02*
D03*
X2773D02*
D03*
X2332D02*
D03*
X2365D02*
D03*
X2733Y565D02*
D03*
X2700D02*
D03*
X2407Y564D02*
D03*
X2374D02*
D03*
X2773Y486D02*
D03*
X2740D02*
D03*
X2367D02*
D03*
X2334D02*
D03*
X2740Y448D02*
D03*
X2773D02*
D03*
X2367Y448D02*
D03*
X2334D02*
D03*
X1204Y795D02*
D03*
X1171D02*
D03*
X1610Y833D02*
D03*
X1577D02*
D03*
X1204D02*
D03*
X1171D02*
D03*
X1577Y795D02*
D03*
X1610D02*
D03*
X1286Y894D02*
D03*
X1252D02*
D03*
X1527D02*
D03*
X1493D02*
D03*
X1170Y757D02*
D03*
X1203D02*
D03*
X1577Y757D02*
D03*
X1610D02*
D03*
X1171Y632D02*
D03*
X1204D02*
D03*
X1579D02*
D03*
X1612D02*
D03*
X1204Y556D02*
D03*
X1171D02*
D03*
X1610D02*
D03*
X1577D02*
D03*
X1244Y477D02*
D03*
X1211D02*
D03*
X1570Y478D02*
D03*
X1537D02*
D03*
X1171Y594D02*
D03*
X1204D02*
D03*
X1610Y594D02*
D03*
X1577D02*
D03*
X498Y547D02*
D03*
X532D02*
D03*
D18*
X518Y914D02*
D03*
X459Y914D02*
D03*
D19*
X3095Y168D02*
D03*
Y278D02*
D03*
X445Y321D02*
D03*
Y211D02*
D03*
X80D02*
D03*
Y321D02*
D03*
D20*
X1493Y542D02*
D03*
Y592D02*
D03*
Y642D02*
D03*
Y692D02*
D03*
Y742D02*
D03*
Y792D02*
D03*
Y842D02*
D03*
X1287Y542D02*
D03*
Y592D02*
D03*
Y642D02*
D03*
Y692D02*
D03*
Y742D02*
D03*
Y792D02*
D03*
Y842D02*
D03*
X2451Y500D02*
D03*
Y450D02*
D03*
Y400D02*
D03*
Y350D02*
D03*
Y300D02*
D03*
Y250D02*
D03*
Y200D02*
D03*
X2657Y500D02*
D03*
Y450D02*
D03*
Y400D02*
D03*
Y350D02*
D03*
Y300D02*
D03*
Y250D02*
D03*
Y200D02*
D03*
X611Y794D02*
D03*
Y744D02*
D03*
Y694D02*
D03*
Y644D02*
D03*
Y594D02*
D03*
Y544D02*
D03*
Y494D02*
D03*
X817Y794D02*
D03*
Y744D02*
D03*
Y694D02*
D03*
Y644D02*
D03*
Y594D02*
D03*
Y544D02*
D03*
Y494D02*
D03*
D21*
X2818Y675D02*
D03*
Y725D02*
D03*
Y775D02*
D03*
Y825D02*
D03*
X3012D02*
D03*
Y775D02*
D03*
Y725D02*
D03*
Y675D02*
D03*
X2292Y801D02*
D03*
Y751D02*
D03*
Y701D02*
D03*
Y651D02*
D03*
X2098D02*
D03*
Y701D02*
D03*
Y751D02*
D03*
Y801D02*
D03*
X932Y367D02*
D03*
Y317D02*
D03*
Y267D02*
D03*
Y217D02*
D03*
X1126D02*
D03*
Y267D02*
D03*
Y317D02*
D03*
Y367D02*
D03*
X1846Y241D02*
D03*
Y291D02*
D03*
Y341D02*
D03*
Y391D02*
D03*
X1652D02*
D03*
Y341D02*
D03*
Y291D02*
D03*
Y241D02*
D03*
D22*
X2942Y895D02*
D03*
X2999D02*
D03*
X2169Y580D02*
D03*
X2112D02*
D03*
X3097Y775D02*
D03*
X3154D02*
D03*
X2014Y701D02*
D03*
X1957D02*
D03*
X3097Y675D02*
D03*
X3154D02*
D03*
X2014Y801D02*
D03*
X1957D02*
D03*
X2942Y605D02*
D03*
X2999D02*
D03*
X2169Y867D02*
D03*
X2112D02*
D03*
X945Y147D02*
D03*
X1002D02*
D03*
X1832Y462D02*
D03*
X1775D02*
D03*
X790Y267D02*
D03*
X847D02*
D03*
X1987Y341D02*
D03*
X1930D02*
D03*
X790Y367D02*
D03*
X847D02*
D03*
X1987Y241D02*
D03*
X1930D02*
D03*
X945Y437D02*
D03*
X1002D02*
D03*
X1832Y175D02*
D03*
X1775D02*
D03*
X526Y777D02*
D03*
X469D02*
D03*
X957D02*
D03*
X900D02*
D03*
X744Y859D02*
D03*
X686D02*
D03*
X354Y324D02*
D03*
X296D02*
D03*
X224D02*
D03*
X166D02*
D03*
D23*
X2739Y169D02*
D03*
X2774D02*
D03*
X2333D02*
D03*
X2368D02*
D03*
X2363Y325D02*
D03*
X2328D02*
D03*
X2328Y370D02*
D03*
X2363D02*
D03*
X2739Y526D02*
D03*
X2774D02*
D03*
X2333D02*
D03*
X2368D02*
D03*
X1170Y873D02*
D03*
X1205D02*
D03*
X1576D02*
D03*
X1611D02*
D03*
X1616Y717D02*
D03*
X1581D02*
D03*
X1581Y672D02*
D03*
X1616D02*
D03*
X1170Y516D02*
D03*
X1205D02*
D03*
X1576D02*
D03*
X1611D02*
D03*
X243Y575D02*
D03*
X277D02*
D03*
X927Y670D02*
D03*
X893D02*
D03*
X927Y719D02*
D03*
X893D02*
D03*
X498Y499D02*
D03*
X532D02*
D03*
X500Y719D02*
D03*
X535D02*
D03*
X893Y620D02*
D03*
X927D02*
D03*
X893Y834D02*
D03*
X927D02*
D03*
X277Y500D02*
D03*
X243D02*
D03*
X212Y381D02*
D03*
X178D02*
D03*
X342D02*
D03*
X308D02*
D03*
X498Y594D02*
D03*
X532D02*
D03*
X500Y834D02*
D03*
X535D02*
D03*
D24*
X2845Y618D02*
D03*
Y583D02*
D03*
X2800Y583D02*
D03*
Y618D02*
D03*
X2315Y893D02*
D03*
Y858D02*
D03*
X2740Y793D02*
D03*
Y758D02*
D03*
X2270Y858D02*
D03*
Y893D02*
D03*
X1204Y284D02*
D03*
Y249D02*
D03*
X1099Y459D02*
D03*
Y424D02*
D03*
X1674Y149D02*
D03*
Y184D02*
D03*
X1629Y184D02*
D03*
Y149D02*
D03*
X1144Y424D02*
D03*
Y459D02*
D03*
X315Y846D02*
D03*
Y812D02*
D03*
D25*
X78Y575D02*
D03*
Y538D02*
D03*
Y500D02*
D03*
X180D02*
D03*
Y575D02*
D03*
D26*
X1005Y625D02*
D03*
Y683D02*
D03*
D27*
X155Y711D02*
D03*
X265D02*
D03*
X315Y211D02*
D03*
X205D02*
D03*
D28*
X70Y781D02*
D03*
Y846D02*
D03*
D29*
X379Y787D02*
D03*
Y846D02*
D03*
D30*
X174Y846D02*
D03*
X235D02*
D03*
D31*
X444Y627D02*
D03*
Y660D02*
D03*
D51*
X50Y80D02*
D03*
Y980D02*
D03*
D52*
X150Y80D02*
D03*
X250D02*
D03*
X350D02*
D03*
X450D02*
D03*
X550D02*
D03*
X650D02*
D03*
X750D02*
D03*
X850D02*
D03*
X950D02*
D03*
X1050D02*
D03*
X1150D02*
D03*
X1250D02*
D03*
X1350D02*
D03*
X1450D02*
D03*
X1550D02*
D03*
X1650D02*
D03*
X1750D02*
D03*
X1850D02*
D03*
X1950D02*
D03*
X2050D02*
D03*
X2150D02*
D03*
X2250D02*
D03*
X2350D02*
D03*
X2450D02*
D03*
X2550D02*
D03*
X2650D02*
D03*
X2750D02*
D03*
X2850D02*
D03*
X2950D02*
D03*
X3050D02*
D03*
X3150D02*
D03*
Y980D02*
D03*
X3050D02*
D03*
X2950D02*
D03*
X2850D02*
D03*
X2750D02*
D03*
X2650D02*
D03*
X2550D02*
D03*
X2450D02*
D03*
X2350D02*
D03*
X2250D02*
D03*
X2150D02*
D03*
X2050D02*
D03*
X1950D02*
D03*
X1850D02*
D03*
X1750D02*
D03*
X1650D02*
D03*
X1550D02*
D03*
X1450D02*
D03*
X1350D02*
D03*
X1250D02*
D03*
X1150D02*
D03*
X1050D02*
D03*
X950D02*
D03*
X850D02*
D03*
X750D02*
D03*
X650D02*
D03*
X550D02*
D03*
X450D02*
D03*
X350D02*
D03*
X250D02*
D03*
X150D02*
D03*
M02*
